<?xml version="1.0" encoding="UTF-8" standalone="no"?>
<!-- Created with Inkscape (http://www.inkscape.org/) -->

<svg
   xmlns:dc="http://purl.org/dc/elements/1.1/"
   xmlns:cc="http://creativecommons.org/ns#"
   xmlns:rdf="http://www.w3.org/1999/02/22-rdf-syntax-ns#"
   xmlns:svg="http://www.w3.org/2000/svg"
   xmlns="http://www.w3.org/2000/svg"
   xmlns:sodipodi="http://sodipodi.sourceforge.net/DTD/sodipodi-0.dtd"
   xmlns:inkscape="http://www.inkscape.org/namespaces/inkscape"
   width="100%"
   height="100%"
   viewBox="0 0 90 90"
   id="svg2"
   data-z="700"
   data-slots="collar"
   version="1.1"
   inkscape:version="0.48.4 r9939"
   sodipodi:docname="bandana.svg"
   class="bandana">
  <defs
     id="defs4" />
  <sodipodi:namedview
     id="base"
     pagecolor="#ffffff"
     bordercolor="#666666"
     borderopacity="1.0"
     inkscape:pageopacity="0.0"
     inkscape:pageshadow="2"
     inkscape:zoom="7.9824051"
     inkscape:cx="32.314"
     inkscape:cy="38.843113"
     inkscape:document-units="in"
     inkscape:current-layer="layer1"
     showgrid="false"
     units="in"
     inkscape:window-width="1920"
     inkscape:window-height="1017"
     inkscape:window-x="-8"
     inkscape:window-y="-8"
     inkscape:window-maximized="1">
    <inkscape:grid
       type="xygrid"
       id="grid2994"
       empspacing="5"
       visible="true"
       enabled="true"
       snapvisiblegridlinesonly="true"
       units="in"
       spacingx="0.014in"
       spacingy="0.014in" />
  </sodipodi:namedview>
  <metadata
     id="metadata7">
    <rdf:RDF>
      <cc:Work
         rdf:about="">
        <dc:format>image/svg+xml</dc:format>
        <dc:type
           rdf:resource="http://purl.org/dc/dcmitype/StillImage" />
        <dc:title></dc:title>
      </cc:Work>
    </rdf:RDF>
  </metadata>
  <g
     inkscape:label="Body"
     inkscape:groupmode="layer"
     id="layer1"
     class="cloth"
     transform="translate(0,-962.35975)"
     style="display:inline">
    <path
       style="fill:#ffffff;fill-opacity:1;stroke:#000000;stroke-width:4.5;stroke-linecap:butt;stroke-linejoin:miter;stroke-miterlimit:4;stroke-opacity:1;stroke-dasharray:none;display:inline"
       d="m 44.21875,38.625 c -4.729086,0.01254 -11.357227,-0.04227 -14.53125,1 -3.174023,1.04227 -4.625,2.9375 -4.625,2.9375 C 18.934238,41.950012 13.087042,41.246388 9.25,40.75 7.4091765,41.4685 6.7955718,43.98865 7,45.65625 c 0.2044282,1.6676 1.0007392,3.95715 2.40625,4.78125 6.462756,0.9841 17.333494,2.7945 23.40625,4.625 8.868358,2.673 24.3125,10.25 24.3125,10.25 0,0 11.332911,-10.67115 16.40625,-13.40625 2.185361,-1.1782 4.851752,-2.06795 7.1875,-2.71875 1.23249,-2.3487 1.33229,-2.32855 1.25,-4.84375 -0.08229,-2.5151 -0.216099,-2.66605 -1.28125,-3.90625 -3.778683,0.495155 -9.406499,1.183961 -15.28125,1.8125 0,0 -3.867119,-1.997627 -7.40625,-2.75 -3.539131,-0.752373 -9.052164,-0.887537 -13.78125,-0.875 z"
       transform="translate(0,962.35975)"
       id="path2984"
       inkscape:connector-curvature="0"
       sodipodi:nodetypes="zzccscccccscczz" />
    <path
       style="fill:none;stroke:#000000;stroke-width:2.25;stroke-linecap:round;stroke-linejoin:miter;stroke-miterlimit:4;stroke-opacity:1;stroke-dasharray:none;display:inline"
       d="m 25.430932,1009.7661 c 0,0 7.110866,0.7964 10.648419,1.8791 3.537553,1.0827 10.397869,4.6352 10.397869,4.6352"
       id="path3777"
       inkscape:connector-curvature="0"
       sodipodi:nodetypes="czc" />
    <path
       style="fill:none;stroke:#000000;stroke-width:2.25;stroke-linecap:round;stroke-linejoin:miter;stroke-miterlimit:4;stroke-opacity:1;stroke-dasharray:none;display:inline"
       d="m 71.782877,1008.8892 c 0,0 -3.767066,0.8729 -5.641127,2.0597 -1.874061,1.1868 -5.508395,5.0809 -5.508395,5.0809"
       id="path3777-7"
       inkscape:connector-curvature="0"
       sodipodi:nodetypes="czc" />
    <path
       style="fill:none;stroke:#000000;stroke-width:2.25;stroke-linecap:round;stroke-linejoin:miter;stroke-miterlimit:4;stroke-opacity:1;stroke-dasharray:none;display:inline"
       d="m 37.146516,1006.3656 c 0,0 6.330622,-0.6742 9.348907,-0.2579 3.018667,0.4145 8.594106,2.815 8.594106,2.815"
       id="path3777-4"
       inkscape:connector-curvature="0"
       sodipodi:nodetypes="czc" />
  </g>
</svg>
