<!--?xml version="1.0" encoding="UTF-8" standalone="no"?--><!-- Created with Inkscape (http://www.inkscape.org/) --><svg xmlns:dc="http://purl.org/dc/elements/1.1/" xmlns:cc="http://creativecommons.org/ns#" xmlns:rdf="http://www.w3.org/1999/02/22-rdf-syntax-ns#" xmlns:svg="http://www.w3.org/2000/svg" xmlns="http://www.w3.org/2000/svg" xmlns:sodipodi="http://sodipodi.sourceforge.net/DTD/sodipodi-0.dtd" xmlns:inkscape="http://www.inkscape.org/namespaces/inkscape" width="100%" height="100%" viewBox="0 0 90 90" id="svg2" data-z="500" data-slots="clothing" data-tags="clothing,modern" version="1.1" inkscape:version="0.48.4 r9939" sodipodi:docname="binary.svg" class="binary-shirt">
  <defs id="defs4"/>
  <sodipodi:namedview id="base" pagecolor="#ffffff" bordercolor="#666666" borderopacity="1.0" inkscape:pageopacity="0.0" inkscape:pageshadow="2" inkscape:zoom="12.584327" inkscape:cx="42.916875" inkscape:cy="48.320422" inkscape:document-units="in" inkscape:current-layer="layer2" showgrid="true" units="in" inkscape:window-width="1918" inkscape:window-height="1030" inkscape:window-x="0" inkscape:window-y="24" inkscape:window-maximized="0" showguides="true" inkscape:guide-bbox="true">
    <inkscape:grid type="xygrid" id="grid2994" empspacing="5" visible="true" enabled="true" snapvisiblegridlinesonly="true" units="in" spacingx="0.014in" spacingy="0.014in"/>
  </sodipodi:namedview>
  <metadata id="metadata7">
    <rdf:rdf>
      <cc:work rdf:about="">
        <dc:format>image/svg+xml</dc:format>
        <dc:type rdf:resource="http://purl.org/dc/dcmitype/StillImage"/>
        <dc:title/>
      </cc:work>
    </rdf:rdf>
  </metadata>
  <g inkscape:groupmode="layer" id="layer2" inkscape:label="Shirt" style="display:inline" class="shirt" sodipodi:insensitive="true">
    <path style="fill:#ffffff;fill-opacity:1;stroke:#000000;stroke-width:4.5;stroke-linecap:round;stroke-miterlimit:4;stroke-opacity:1;stroke-dasharray:none;stroke-dashoffset:0" d="m 9.1875,48.78125 c 1.88688,18.1081 17.2051,32.2188 35.8125,32.2188 18.33498,0 33.47434,-13.7119 35.71875,-31.4375 -7.05244,2.6459 -19.97089,4.4375 -34.8125,4.4375 -16.28176,0 -30.28526,-2.1398 -36.71875,-5.2188 z" id="path3829-1-5-74-4-9-0-7" inkscape:connector-curvature="0" sodipodi:nodetypes="cscsc"/>
  </g>
  <g inkscape:label="Logo" id="g3760" inkscape:groupmode="layer" class="logo" style="display:inline" sodipodi:insensitive="true">
    <flowroot space="preserve" id="flowRoot3802" style="font-size:8px;font-style:normal;font-variant:normal;font-weight:normal;font-stretch:normal;line-height:125%;letter-spacing:0px;word-spacing:0px;fill:#000000;fill-opacity:1;stroke:none;font-family:Ubuntu;-inkscape-font-specification:Ubuntu"><flowregion id="flowRegion3804"><rect id="rect3806" width="102.58093" height="58.634876" x="-5.4180069" y="39.311535" style="font-size:8px;font-style:normal;font-variant:normal;font-weight:normal;font-stretch:normal;font-family:Ubuntu;-inkscape-font-specification:Ubuntu"/></flowregion><flowpara id="flowPara3808"/></flowroot>    <path style="font-size:8px;font-style:normal;font-variant:normal;font-weight:500;font-stretch:normal;line-height:125%;letter-spacing:0px;word-spacing:0px;fill:#000000;fill-opacity:1;stroke:none;font-family:Ubuntu;-inkscape-font-specification:Ubuntu Medium" d="m 80.71875,49.5625 c -0.339431,0.127346 -0.696332,0.251716 -1.0625,0.375 0.06157,0.0059 0.122713,0.03125 0.1875,0.03125 0.317869,0 0.601144,-0.07919 0.84375,-0.21875 0.0083,-0.06275 0.02329,-0.124646 0.03125,-0.1875 z M 11.5625,49.75 l 0,0.09375 0.28125,0 C 11.746637,49.81014 11.657655,49.783913 11.5625,49.75 z m 0.0625,4.4375 c -0.298669,5e-6 -0.541252,0.05951 -0.78125,0.1875 -0.185401,0.101131 -0.350093,0.262482 -0.5,0.4375 0.128058,0.453223 0.292314,0.897986 0.4375,1.34375 0.03288,-0.198297 0.06627,-0.377647 0.125,-0.53125 0.07466,-0.186663 0.163915,-0.330829 0.28125,-0.4375 0.122665,-0.10666 0.261498,-0.187496 0.4375,-0.1875 0.175997,4e-6 0.320164,0.08084 0.4375,0.1875 0.11733,0.106671 0.21191,0.250837 0.28125,0.4375 0.07466,0.181337 0.1555,0.374337 0.1875,0.625 0.032,0.25067 0.03125,0.524503 0.03125,0.8125 0,0.288002 7.5e-4,0.561835 -0.03125,0.8125 -0.032,0.250668 -0.11284,0.469584 -0.1875,0.65625 -0.06934,0.181334 -0.16392,0.330834 -0.28125,0.4375 -0.05867,0.05333 -0.114792,0.09927 -0.1875,0.125 0.108272,0.254046 0.198592,0.530243 0.3125,0.78125 0.351511,-0.111653 0.646731,-0.32455 0.875,-0.65625 0.341329,-0.501333 0.499996,-1.222915 0.5,-2.15625 -4e-6,-0.93333 -0.158671,-1.628996 -0.5,-2.125 -0.341337,-0.501328 -0.834836,-0.749995 -1.4375,-0.75 z m 4.5625,0 c -0.298669,5e-6 -0.572502,0.05951 -0.8125,0.1875 -0.234668,0.128005 -0.423084,0.317171 -0.59375,0.5625 -0.165334,0.245338 -0.31558,0.543587 -0.40625,0.90625 -0.08533,0.357337 -0.125,0.754753 -0.125,1.21875 0,0.933335 0.189916,1.654917 0.53125,2.15625 0.341332,0.496 0.803582,0.75 1.40625,0.75 0.602664,0 1.064913,-0.254 1.40625,-0.75 0.341329,-0.501333 0.531246,-1.222915 0.53125,-2.15625 -4e-6,-0.93333 -0.189921,-1.628996 -0.53125,-2.125 -0.341337,-0.501328 -0.803586,-0.749995 -1.40625,-0.75 z m 22.71875,0 c -0.298669,5e-6 -0.541252,0.05951 -0.78125,0.1875 -0.234668,0.128005 -0.454334,0.317171 -0.625,0.5625 -0.165334,0.245338 -0.28433,0.543587 -0.375,0.90625 C 37.03967,56.201087 37,56.598503 37,57.0625 c 0,0.933335 0.158666,1.654917 0.5,2.15625 0.341332,0.496 0.803582,0.75 1.40625,0.75 0.602664,0 1.096163,-0.254 1.4375,-0.75 0.341329,-0.501333 0.499996,-1.222915 0.5,-2.15625 -4e-6,-0.93333 -0.158671,-1.628996 -0.5,-2.125 -0.341337,-0.501328 -0.834836,-0.749995 -1.4375,-0.75 z m 9.09375,0 c -0.298669,5e-6 -0.541252,0.05951 -0.78125,0.1875 -0.234668,0.128005 -0.454334,0.317171 -0.625,0.5625 -0.165334,0.245338 -0.28433,0.543587 -0.375,0.90625 -0.08533,0.357337 -0.125,0.754753 -0.125,1.21875 0,0.933335 0.158666,1.654917 0.5,2.15625 0.341332,0.496 0.803582,0.75 1.40625,0.75 0.602664,0 1.096163,-0.254 1.4375,-0.75 0.341329,-0.501333 0.499996,-1.222915 0.5,-2.15625 -4e-6,-0.93333 -0.158671,-1.628996 -0.5,-2.125 C 49.096163,54.436172 48.602664,54.187505 48,54.1875 z m 9.09375,0 c -0.298669,5e-6 -0.541252,0.05951 -0.78125,0.1875 -0.234668,0.128005 -0.454334,0.317171 -0.625,0.5625 -0.165334,0.245338 -0.28433,0.543587 -0.375,0.90625 -0.08533,0.357337 -0.125,0.754753 -0.125,1.21875 0,0.933335 0.158666,1.654917 0.5,2.15625 0.341332,0.496 0.803582,0.75 1.40625,0.75 0.602664,0 1.096163,-0.254 1.4375,-0.75 0.341329,-0.501333 0.499996,-1.222915 0.5,-2.15625 -4e-6,-0.93333 -0.158671,-1.628996 -0.5,-2.125 -0.341337,-0.501328 -0.834836,-0.749995 -1.4375,-0.75 z m 9.09375,0 c -0.298669,5e-6 -0.541252,0.05951 -0.78125,0.1875 -0.234668,0.128005 -0.454334,0.317171 -0.625,0.5625 -0.165334,0.245338 -0.28433,0.543587 -0.375,0.90625 -0.08533,0.357337 -0.125,0.754753 -0.125,1.21875 0,0.933335 0.158666,1.654917 0.5,2.15625 0.341332,0.496 0.803582,0.75 1.40625,0.75 0.602664,0 1.096163,-0.254 1.4375,-0.75 0.341329,-0.501333 0.499996,-1.222915 0.5,-2.15625 -4e-6,-0.93333 -0.158671,-1.628996 -0.5,-2.125 -0.341337,-0.501328 -0.834836,-0.749995 -1.4375,-0.75 z m 13.625,0 c -0.286343,0.0041 -0.54978,0.06405 -0.78125,0.1875 -0.234668,0.128005 -0.423084,0.317171 -0.59375,0.5625 -0.165334,0.245338 -0.31558,0.543587 -0.40625,0.90625 -0.08533,0.357337 -0.125,0.754753 -0.125,1.21875 0,0.713916 0.107495,1.318923 0.3125,1.78125 0.242107,-0.579379 0.475284,-1.155746 0.6875,-1.75 -1.4e-5,-0.01102 0,-0.02019 0,-0.03125 0,-0.287997 0.0046,-0.56183 0.03125,-0.8125 0.032,-0.250663 0.08691,-0.443663 0.15625,-0.625 0.07466,-0.186663 0.195165,-0.330829 0.3125,-0.4375 0.04954,-0.04307 0.100055,-0.06272 0.15625,-0.09375 0.08785,-0.301124 0.169867,-0.601921 0.25,-0.90625 z m -58.875,0.125 c -0.240002,0.261338 -0.529085,0.464255 -0.84375,0.65625 -0.309335,0.192004 -0.596918,0.377337 -0.90625,0.5 l 0.28125,0.71875 c 0.202665,-0.06933 0.406332,-0.14333 0.625,-0.25 0.218665,-0.106663 0.418498,-0.231746 0.5625,-0.34375 l 0,4.25 0.96875,0 0,-5.53125 z m 4.5625,0 c -0.240002,0.261338 -0.529085,0.464255 -0.84375,0.65625 -0.309335,0.192004 -0.628168,0.377337 -0.9375,0.5 l 0.3125,0.71875 c 0.202665,-0.06933 0.406332,-0.14333 0.625,-0.25 0.218665,-0.106663 0.387248,-0.231746 0.53125,-0.34375 l 0,4.25 0.96875,0 0,-5.53125 z m 4.53125,0 c -0.240002,0.261338 -0.529085,0.464255 -0.84375,0.65625 -0.309335,0.192004 -0.596918,0.377337 -0.90625,0.5 l 0.28125,0.71875 c 0.202665,-0.06933 0.406332,-0.14333 0.625,-0.25 0.218665,-0.106663 0.418498,-0.231746 0.5625,-0.34375 l 0,4.25 0.96875,0 0,-5.53125 z m 4.5625,0 c -0.240002,0.261338 -0.529085,0.464255 -0.84375,0.65625 -0.309335,0.192004 -0.628168,0.377337 -0.9375,0.5 l 0.3125,0.71875 c 0.202665,-0.06933 0.406332,-0.14333 0.625,-0.25 0.218665,-0.106663 0.387248,-0.231746 0.53125,-0.34375 l 0,4.25 0.96875,0 0,-5.53125 z m 9.09375,0 c -0.240002,0.261338 -0.529085,0.464255 -0.84375,0.65625 -0.309335,0.192004 -0.628168,0.377337 -0.9375,0.5 l 0.3125,0.71875 c 0.202665,-0.06933 0.406332,-0.14333 0.625,-0.25 0.218665,-0.106663 0.387248,-0.231746 0.53125,-0.34375 l 0,4.25 0.96875,0 0,-5.53125 z m 9.09375,0 c -0.240002,0.261338 -0.529085,0.464255 -0.84375,0.65625 -0.309335,0.192004 -0.628168,0.377337 -0.9375,0.5 l 0.3125,0.71875 c 0.202665,-0.06933 0.406332,-0.14333 0.625,-0.25 0.218665,-0.106663 0.387248,-0.231746 0.53125,-0.34375 l 0,4.25 0.96875,0 0,-5.53125 z m 9.09375,0 c -0.240002,0.261338 -0.529085,0.464255 -0.84375,0.65625 -0.309335,0.192004 -0.628168,0.377337 -0.9375,0.5 l 0.3125,0.71875 c 0.202665,-0.06933 0.406332,-0.14333 0.625,-0.25 0.218665,-0.106663 0.387248,-0.231746 0.53125,-0.34375 l 0,4.25 0.96875,0 0,-5.53125 z m 9.09375,0 c -0.240002,0.261338 -0.529085,0.464255 -0.84375,0.65625 -0.309335,0.192004 -0.628168,0.377337 -0.9375,0.5 L 69.5,56.1875 c 0.202665,-0.06933 0.406332,-0.14333 0.625,-0.25 0.218665,-0.106663 0.387248,-0.231746 0.53125,-0.34375 l 0,4.25 0.96875,0 0,-5.53125 z m 4.53125,0 c -0.240002,0.261338 -0.529085,0.464255 -0.84375,0.65625 -0.309335,0.192004 -0.596918,0.377337 -0.90625,0.5 l 0.28125,0.71875 c 0.202665,-0.06933 0.406332,-0.14333 0.625,-0.25 0.218665,-0.106663 0.418498,-0.231746 0.5625,-0.34375 l 0,4.25 0.96875,0 0,-5.53125 z M 16.1875,55 c 0.175997,4e-6 0.320164,0.08084 0.4375,0.1875 0.11733,0.106671 0.21191,0.250837 0.28125,0.4375 0.07466,0.181337 0.12425,0.374337 0.15625,0.625 0.032,0.25067 0.0625,0.524503 0.0625,0.8125 0,0.288002 -0.0305,0.561835 -0.0625,0.8125 -0.032,0.250668 -0.08159,0.469584 -0.15625,0.65625 -0.06934,0.181334 -0.16392,0.330834 -0.28125,0.4375 -0.117336,0.10667 -0.261503,0.15625 -0.4375,0.15625 -0.176002,0 -0.314835,-0.04958 -0.4375,-0.15625 -0.117335,-0.106666 -0.23784,-0.256166 -0.3125,-0.4375 C 15.36817,58.344584 15.31325,58.125668 15.28125,57.875 15.25458,57.624335 15.25,57.350502 15.25,57.0625 c 0,-0.287997 0.0046,-0.56183 0.03125,-0.8125 0.032,-0.250663 0.08692,-0.443663 0.15625,-0.625 0.07466,-0.186663 0.195165,-0.330829 0.3125,-0.4375 0.122665,-0.10666 0.261498,-0.187496 0.4375,-0.1875 z m 22.71875,0 c 0.175997,4e-6 0.320164,0.08084 0.4375,0.1875 0.11733,0.106671 0.21191,0.250837 0.28125,0.4375 0.07466,0.181337 0.1555,0.374337 0.1875,0.625 0.032,0.25067 0.03125,0.524503 0.03125,0.8125 0,0.288002 7.5e-4,0.561835 -0.03125,0.8125 -0.032,0.250668 -0.11284,0.469584 -0.1875,0.65625 -0.06934,0.181334 -0.16392,0.330834 -0.28125,0.4375 -0.117336,0.10667 -0.261503,0.15625 -0.4375,0.15625 -0.176002,0 -0.314835,-0.04958 -0.4375,-0.15625 C 38.351415,58.862084 38.26217,58.712584 38.1875,58.53125 38.11816,58.344584 38.06325,58.125668 38.03125,57.875 38.00458,57.624335 37.999999,57.350502 38,57.0625 c 0,-0.287997 0.0046,-0.56183 0.03125,-0.8125 0.032,-0.250663 0.08692,-0.443663 0.15625,-0.625 0.07467,-0.186663 0.163915,-0.330829 0.28125,-0.4375 0.122665,-0.10666 0.261498,-0.187496 0.4375,-0.1875 z M 48,55 c 0.175997,4e-6 0.320164,0.08084 0.4375,0.1875 0.11733,0.106671 0.21191,0.250837 0.28125,0.4375 0.07466,0.181337 0.1555,0.374337 0.1875,0.625 0.032,0.25067 0.03125,0.524503 0.03125,0.8125 0,0.288002 7.5e-4,0.561835 -0.03125,0.8125 -0.032,0.250668 -0.11284,0.469584 -0.1875,0.65625 -0.06934,0.181334 -0.16392,0.330834 -0.28125,0.4375 C 48.320164,59.07542 48.175997,59.125 48,59.125 c -0.176002,0 -0.314835,-0.04958 -0.4375,-0.15625 -0.117335,-0.106666 -0.20658,-0.256166 -0.28125,-0.4375 C 47.21191,58.344584 47.157,58.125668 47.125,57.875 c -0.02667,-0.250665 -0.03125,-0.524498 -0.03125,-0.8125 0,-0.287997 0.0046,-0.56183 0.03125,-0.8125 0.032,-0.250663 0.08692,-0.443663 0.15625,-0.625 0.07467,-0.186663 0.163915,-0.330829 0.28125,-0.4375 C 47.685165,55.08084 47.823998,55.000004 48,55 z m 9.09375,0 c 0.175997,4e-6 0.320164,0.08084 0.4375,0.1875 0.11733,0.106671 0.21191,0.250837 0.28125,0.4375 0.07466,0.181337 0.1555,0.374337 0.1875,0.625 0.032,0.25067 0.03125,0.524503 0.03125,0.8125 0,0.288002 7.5e-4,0.561835 -0.03125,0.8125 -0.032,0.250668 -0.11284,0.469584 -0.1875,0.65625 -0.06934,0.181334 -0.16392,0.330834 -0.28125,0.4375 -0.117336,0.10667 -0.261503,0.15625 -0.4375,0.15625 -0.176002,0 -0.314835,-0.04958 -0.4375,-0.15625 C 56.538915,58.862084 56.44967,58.712584 56.375,58.53125 56.30566,58.344584 56.25075,58.125668 56.21875,57.875 56.19208,57.624335 56.1875,57.350502 56.1875,57.0625 c 0,-0.287997 0.0046,-0.56183 0.03125,-0.8125 0.032,-0.250663 0.08692,-0.443663 0.15625,-0.625 0.07467,-0.186663 0.163915,-0.330829 0.28125,-0.4375 0.122665,-0.10666 0.261498,-0.187496 0.4375,-0.1875 z m 9.09375,0 c 0.175997,4e-6 0.320164,0.08084 0.4375,0.1875 0.11733,0.106671 0.21191,0.250837 0.28125,0.4375 0.07466,0.181337 0.1555,0.374337 0.1875,0.625 0.032,0.25067 0.03125,0.524503 0.03125,0.8125 0,0.288002 7.5e-4,0.561835 -0.03125,0.8125 -0.032,0.250668 -0.11284,0.469584 -0.1875,0.65625 -0.06934,0.181334 -0.16392,0.330834 -0.28125,0.4375 -0.117336,0.10667 -0.261503,0.15625 -0.4375,0.15625 -0.176002,0 -0.314835,-0.04958 -0.4375,-0.15625 -0.117335,-0.106666 -0.20659,-0.256166 -0.28125,-0.4375 -0.06934,-0.186666 -0.12425,-0.405582 -0.15625,-0.65625 -0.02667,-0.250665 -0.03125,-0.524498 -0.03125,-0.8125 0,-0.287997 0.0046,-0.56183 0.03125,-0.8125 0.032,-0.250663 0.08691,-0.443663 0.15625,-0.625 0.07466,-0.186663 0.163915,-0.330829 0.28125,-0.4375 0.122665,-0.10666 0.261498,-0.187496 0.4375,-0.1875 z m -45.46875,9.1875 c -0.298669,5e-6 -0.541252,0.05951 -0.78125,0.1875 -0.234668,0.128005 -0.454334,0.317171 -0.625,0.5625 -0.165334,0.245338 -0.28433,0.543587 -0.375,0.90625 -0.08533,0.357337 -0.125,0.754753 -0.125,1.21875 0,0.933335 0.158666,1.654917 0.5,2.15625 0.341332,0.496 0.803582,0.75 1.40625,0.75 0.602664,0 1.096163,-0.254 1.4375,-0.75 0.341329,-0.501333 0.499996,-1.222915 0.5,-2.15625 -4e-6,-0.93333 -0.158671,-1.628996 -0.5,-2.125 -0.341337,-0.501328 -0.834836,-0.749995 -1.4375,-0.75 z m 9.09375,0 c -0.298669,5e-6 -0.541252,0.05951 -0.78125,0.1875 -0.234668,0.128005 -0.454334,0.317171 -0.625,0.5625 -0.165334,0.245338 -0.28433,0.543587 -0.375,0.90625 -0.08533,0.357337 -0.125,0.754753 -0.125,1.21875 0,0.933335 0.158666,1.654917 0.5,2.15625 0.341332,0.496 0.803582,0.75 1.40625,0.75 0.602664,0 1.096163,-0.254 1.4375,-0.75 0.341329,-0.501333 0.499996,-1.222915 0.5,-2.15625 -4e-6,-0.93333 -0.158671,-1.628996 -0.5,-2.125 -0.341337,-0.501328 -0.834836,-0.749995 -1.4375,-0.75 z m 9.09375,0 c -0.298669,5e-6 -0.541252,0.05951 -0.78125,0.1875 -0.234668,0.128005 -0.454334,0.317171 -0.625,0.5625 -0.165334,0.245338 -0.28433,0.543587 -0.375,0.90625 C 37.03967,66.201087 37,66.598503 37,67.0625 c 0,0.933335 0.158666,1.654917 0.5,2.15625 0.341332,0.496 0.803582,0.75 1.40625,0.75 0.602664,0 1.096163,-0.254 1.4375,-0.75 0.341329,-0.501333 0.499996,-1.222915 0.5,-2.15625 -4e-6,-0.93333 -0.158671,-1.628996 -0.5,-2.125 -0.341337,-0.501328 -0.834836,-0.749995 -1.4375,-0.75 z m 9.09375,0 c -0.298669,5e-6 -0.541252,0.05951 -0.78125,0.1875 -0.234668,0.128005 -0.454334,0.317171 -0.625,0.5625 -0.165334,0.245338 -0.28433,0.543587 -0.375,0.90625 -0.08533,0.357337 -0.125,0.754753 -0.125,1.21875 0,0.933335 0.158666,1.654917 0.5,2.15625 0.341332,0.496 0.803582,0.75 1.40625,0.75 0.602664,0 1.096163,-0.254 1.4375,-0.75 0.341329,-0.501333 0.499996,-1.222915 0.5,-2.15625 -4e-6,-0.93333 -0.158671,-1.628996 -0.5,-2.125 C 49.096163,64.436172 48.602664,64.187505 48,64.1875 z m 4.5625,0 c -0.298669,5e-6 -0.572502,0.05951 -0.8125,0.1875 -0.234668,0.128005 -0.423084,0.317171 -0.59375,0.5625 -0.165334,0.245338 -0.31558,0.543587 -0.40625,0.90625 -0.08533,0.357337 -0.125,0.754753 -0.125,1.21875 0,0.933335 0.189916,1.654917 0.53125,2.15625 0.341332,0.496 0.803582,0.75 1.40625,0.75 0.602664,0 1.064913,-0.254 1.40625,-0.75 0.341329,-0.501333 0.531246,-1.222915 0.53125,-2.15625 -4e-6,-0.93333 -0.189921,-1.628996 -0.53125,-2.125 -0.341337,-0.501328 -0.803586,-0.749995 -1.40625,-0.75 z m 4.53125,0 c -0.298669,5e-6 -0.541252,0.05951 -0.78125,0.1875 -0.234668,0.128005 -0.454334,0.317171 -0.625,0.5625 -0.165334,0.245338 -0.28433,0.543587 -0.375,0.90625 -0.08533,0.357337 -0.125,0.754753 -0.125,1.21875 0,0.933335 0.158666,1.654917 0.5,2.15625 0.341332,0.496 0.803582,0.75 1.40625,0.75 0.602664,0 1.096163,-0.254 1.4375,-0.75 0.341329,-0.501333 0.499996,-1.222915 0.5,-2.15625 -4e-6,-0.93333 -0.158671,-1.628996 -0.5,-2.125 -0.341337,-0.501328 -0.834836,-0.749995 -1.4375,-0.75 z m 9.09375,0 c -0.298669,5e-6 -0.541252,0.05951 -0.78125,0.1875 -0.234668,0.128005 -0.454334,0.317171 -0.625,0.5625 -0.165334,0.245338 -0.28433,0.543587 -0.375,0.90625 -0.08533,0.357337 -0.125,0.754753 -0.125,1.21875 0,0.933335 0.158666,1.654917 0.5,2.15625 0.341332,0.496 0.803582,0.75 1.40625,0.75 0.602664,0 1.096163,-0.254 1.4375,-0.75 0.341329,-0.501333 0.499996,-1.222915 0.5,-2.15625 -4e-6,-0.93333 -0.158671,-1.628996 -0.5,-2.125 -0.341337,-0.501328 -0.834836,-0.749995 -1.4375,-0.75 z m 9.09375,0 c -0.298669,5e-6 -0.541252,0.05951 -0.78125,0.1875 -0.234668,0.128005 -0.454334,0.317171 -0.625,0.5625 -0.165334,0.245338 -0.28433,0.543587 -0.375,0.90625 -0.08533,0.357337 -0.125,0.754753 -0.125,1.21875 0,0.03326 -4.04e-4,0.06103 0,0.09375 0.452267,-0.578781 0.89564,-1.17489 1.3125,-1.78125 0.264544,-0.384803 0.500228,-0.792103 0.75,-1.1875 -0.05178,-0.0039 -0.102714,0 -0.15625,0 z m -58.875,0.125 c -0.240002,0.261338 -0.529085,0.464255 -0.84375,0.65625 -0.122824,0.07624 -0.25037,0.148122 -0.375,0.21875 0.156703,0.230792 0.306866,0.460582 0.46875,0.6875 0.165738,-0.09224 0.319137,-0.189188 0.4375,-0.28125 l 0,0.875 c 0.309162,0.415277 0.642371,0.81753 0.96875,1.21875 l 0,-3.375 z m 9.09375,0 c -0.240002,0.261338 -0.529085,0.464255 -0.84375,0.65625 -0.309335,0.192004 -0.628168,0.377337 -0.9375,0.5 l 0.3125,0.71875 c 0.202665,-0.06933 0.406332,-0.14333 0.625,-0.25 0.218665,-0.106663 0.387248,-0.231746 0.53125,-0.34375 l 0,4.25 0.96875,0 0,-5.53125 z m 9.09375,0 c -0.240002,0.261338 -0.529085,0.464255 -0.84375,0.65625 -0.309335,0.192004 -0.628168,0.377337 -0.9375,0.5 l 0.3125,0.71875 c 0.202665,-0.06933 0.406332,-0.14333 0.625,-0.25 0.218665,-0.106663 0.387248,-0.231746 0.53125,-0.34375 l 0,4.25 0.96875,0 0,-5.53125 z m 9.09375,0 c -0.240002,0.261338 -0.529085,0.464255 -0.84375,0.65625 -0.309335,0.192004 -0.628168,0.377337 -0.9375,0.5 l 0.3125,0.71875 c 0.202665,-0.06933 0.406332,-0.14333 0.625,-0.25 0.218665,-0.106663 0.387248,-0.231746 0.53125,-0.34375 l 0,4.25 0.96875,0 0,-5.53125 z m 18.1875,0 c -0.240002,0.261338 -0.529085,0.464255 -0.84375,0.65625 -0.309335,0.192004 -0.628168,0.377337 -0.9375,0.5 l 0.3125,0.71875 c 0.202665,-0.06933 0.406332,-0.14333 0.625,-0.25 0.218665,-0.106663 0.387248,-0.231746 0.53125,-0.34375 l 0,4.25 0.96875,0 0,-5.53125 z m 9.09375,0 c -0.240002,0.261338 -0.529085,0.464255 -0.84375,0.65625 -0.309335,0.192004 -0.628168,0.377337 -0.9375,0.5 L 69.5,66.1875 c 0.202665,-0.06933 0.406332,-0.14333 0.625,-0.25 0.218665,-0.106663 0.387248,-0.231746 0.53125,-0.34375 l 0,4.25 0.40625,0 c 0.193573,-0.202961 0.373664,-0.417568 0.5625,-0.625 l 0,-4.90625 z M 20.71875,65 c 0.175997,4e-6 0.320164,0.08084 0.4375,0.1875 0.11733,0.106671 0.21191,0.250837 0.28125,0.4375 0.07466,0.181337 0.1555,0.374337 0.1875,0.625 0.032,0.25067 0.03125,0.524503 0.03125,0.8125 0,0.288002 7.5e-4,0.561835 -0.03125,0.8125 -0.032,0.250668 -0.11284,0.469584 -0.1875,0.65625 -0.06934,0.181334 -0.16392,0.330834 -0.28125,0.4375 -0.117336,0.10667 -0.261503,0.15625 -0.4375,0.15625 -0.176002,0 -0.314835,-0.04958 -0.4375,-0.15625 C 20.163915,68.862084 20.07466,68.712584 20,68.53125 19.93067,68.344584 19.87575,68.125668 19.84375,67.875 19.81708,67.624335 19.8125,67.350502 19.8125,67.0625 c 0,-0.287997 0.0046,-0.56183 0.03125,-0.8125 0.032,-0.250663 0.08692,-0.443663 0.15625,-0.625 0.07466,-0.186663 0.163915,-0.330829 0.28125,-0.4375 0.122665,-0.10666 0.261498,-0.187496 0.4375,-0.1875 z m 9.09375,0 c 0.175997,4e-6 0.320164,0.08084 0.4375,0.1875 0.11733,0.106671 0.21191,0.250837 0.28125,0.4375 0.07466,0.181337 0.1555,0.374337 0.1875,0.625 0.032,0.25067 0.03125,0.524503 0.03125,0.8125 0,0.288002 7.5e-4,0.561835 -0.03125,0.8125 -0.032,0.250668 -0.11284,0.469584 -0.1875,0.65625 -0.06934,0.181334 -0.16392,0.330834 -0.28125,0.4375 -0.117336,0.10667 -0.261503,0.15625 -0.4375,0.15625 -0.176002,0 -0.314835,-0.04958 -0.4375,-0.15625 -0.117335,-0.106666 -0.20658,-0.256166 -0.28125,-0.4375 -0.06934,-0.186666 -0.12425,-0.405582 -0.15625,-0.65625 -0.02667,-0.250665 -0.03125,-0.524498 -0.03125,-0.8125 0,-0.287997 0.0046,-0.56183 0.03125,-0.8125 0.032,-0.250663 0.08692,-0.443663 0.15625,-0.625 0.07466,-0.186663 0.163915,-0.330829 0.28125,-0.4375 0.122665,-0.10666 0.261498,-0.187496 0.4375,-0.1875 z m 9.09375,0 c 0.175997,4e-6 0.320164,0.08084 0.4375,0.1875 0.11733,0.106671 0.21191,0.250837 0.28125,0.4375 0.07466,0.181337 0.1555,0.374337 0.1875,0.625 0.032,0.25067 0.03125,0.524503 0.03125,0.8125 0,0.288002 7.5e-4,0.561835 -0.03125,0.8125 -0.032,0.250668 -0.11284,0.469584 -0.1875,0.65625 -0.06934,0.181334 -0.16392,0.330834 -0.28125,0.4375 -0.117336,0.10667 -0.261503,0.15625 -0.4375,0.15625 -0.176002,0 -0.314835,-0.04958 -0.4375,-0.15625 C 38.351415,68.862084 38.26217,68.712584 38.1875,68.53125 38.11816,68.344584 38.06325,68.125668 38.03125,67.875 38.00458,67.624335 37.999999,67.350502 38,67.0625 c 0,-0.287997 0.0046,-0.56183 0.03125,-0.8125 0.032,-0.250663 0.08692,-0.443663 0.15625,-0.625 0.07467,-0.186663 0.163915,-0.330829 0.28125,-0.4375 0.122665,-0.10666 0.261498,-0.187496 0.4375,-0.1875 z M 48,65 c 0.175997,4e-6 0.320164,0.08084 0.4375,0.1875 0.11733,0.106671 0.21191,0.250837 0.28125,0.4375 0.07466,0.181337 0.1555,0.374337 0.1875,0.625 0.032,0.25067 0.03125,0.524503 0.03125,0.8125 0,0.288002 7.5e-4,0.561835 -0.03125,0.8125 -0.032,0.250668 -0.11284,0.469584 -0.1875,0.65625 -0.06934,0.181334 -0.16392,0.330834 -0.28125,0.4375 C 48.320164,69.07542 48.175997,69.125 48,69.125 c -0.176002,0 -0.314835,-0.04958 -0.4375,-0.15625 -0.117335,-0.106666 -0.20658,-0.256166 -0.28125,-0.4375 C 47.21191,68.344584 47.157,68.125668 47.125,67.875 c -0.02667,-0.250665 -0.03125,-0.524498 -0.03125,-0.8125 0,-0.287997 0.0046,-0.56183 0.03125,-0.8125 0.032,-0.250663 0.08692,-0.443663 0.15625,-0.625 0.07467,-0.186663 0.163915,-0.330829 0.28125,-0.4375 C 47.685165,65.08084 47.823998,65.000004 48,65 z m 4.5625,0 c 0.175997,4e-6 0.320164,0.08084 0.4375,0.1875 0.11733,0.106671 0.21191,0.250837 0.28125,0.4375 0.07466,0.181337 0.12425,0.374337 0.15625,0.625 0.032,0.25067 0.0625,0.524503 0.0625,0.8125 0,0.288002 -0.0305,0.561835 -0.0625,0.8125 -0.032,0.250668 -0.08159,0.469584 -0.15625,0.65625 -0.06934,0.181334 -0.16392,0.330834 -0.28125,0.4375 -0.117336,0.10667 -0.261503,0.15625 -0.4375,0.15625 -0.176002,0 -0.314835,-0.04958 -0.4375,-0.15625 -0.117335,-0.106666 -0.23783,-0.256166 -0.3125,-0.4375 C 51.74316,68.344584 51.68825,68.125668 51.65625,67.875 51.62958,67.624335 51.625,67.350502 51.625,67.0625 c 0,-0.287997 0.0046,-0.56183 0.03125,-0.8125 0.032,-0.250663 0.08692,-0.443663 0.15625,-0.625 0.07467,-0.186663 0.195165,-0.330829 0.3125,-0.4375 0.122665,-0.10666 0.261498,-0.187496 0.4375,-0.1875 z m 4.53125,0 c 0.175997,4e-6 0.320164,0.08084 0.4375,0.1875 0.11733,0.106671 0.21191,0.250837 0.28125,0.4375 0.07466,0.181337 0.1555,0.374337 0.1875,0.625 0.032,0.25067 0.03125,0.524503 0.03125,0.8125 0,0.288002 7.5e-4,0.561835 -0.03125,0.8125 -0.032,0.250668 -0.11284,0.469584 -0.1875,0.65625 -0.06934,0.181334 -0.16392,0.330834 -0.28125,0.4375 -0.117336,0.10667 -0.261503,0.15625 -0.4375,0.15625 -0.176002,0 -0.314835,-0.04958 -0.4375,-0.15625 C 56.538915,68.862084 56.44967,68.712584 56.375,68.53125 56.30566,68.344584 56.25075,68.125668 56.21875,67.875 56.19208,67.624335 56.1875,67.350502 56.1875,67.0625 c 0,-0.287997 0.0046,-0.56183 0.03125,-0.8125 0.032,-0.250663 0.08692,-0.443663 0.15625,-0.625 0.07467,-0.186663 0.163915,-0.330829 0.28125,-0.4375 0.122665,-0.10666 0.261498,-0.187496 0.4375,-0.1875 z m 9.09375,0 c 0.175997,4e-6 0.320164,0.08084 0.4375,0.1875 0.11733,0.106671 0.21191,0.250837 0.28125,0.4375 0.07466,0.181337 0.1555,0.374337 0.1875,0.625 0.032,0.25067 0.03125,0.524503 0.03125,0.8125 0,0.288002 7.5e-4,0.561835 -0.03125,0.8125 -0.032,0.250668 -0.11284,0.469584 -0.1875,0.65625 -0.06934,0.181334 -0.16392,0.330834 -0.28125,0.4375 -0.117336,0.10667 -0.261503,0.15625 -0.4375,0.15625 -0.176002,0 -0.314835,-0.04958 -0.4375,-0.15625 -0.117335,-0.106666 -0.20659,-0.256166 -0.28125,-0.4375 -0.06934,-0.186666 -0.12425,-0.405582 -0.15625,-0.65625 -0.02667,-0.250665 -0.03125,-0.524498 -0.03125,-0.8125 0,-0.287997 0.0046,-0.56183 0.03125,-0.8125 0.032,-0.250663 0.08691,-0.443663 0.15625,-0.625 0.07466,-0.186663 0.163915,-0.330829 0.28125,-0.4375 0.122665,-0.10666 0.261498,-0.187496 0.4375,-0.1875 z m -40.90625,9.1875 c -0.298669,5e-6 -0.572502,0.05951 -0.8125,0.1875 -0.04579,0.02498 -0.08252,0.06415 -0.125,0.09375 0.267659,0.187786 0.539563,0.381881 0.8125,0.5625 0.03968,-0.0092 0.081,-0.03125 0.125,-0.03125 0.175997,4e-6 0.320164,0.08084 0.4375,0.1875 0.10853,0.09867 0.182371,0.239457 0.25,0.40625 0.0073,0.0045 0.02396,-0.0045 0.03125,0 0.387292,0.241121 0.759316,0.46086 1.15625,0.6875 -0.0782,-0.548919 -0.231972,-0.999675 -0.46875,-1.34375 -0.341337,-0.501328 -0.803586,-0.749995 -1.40625,-0.75 z m 9.09375,0 c -0.298669,5e-6 -0.572502,0.05951 -0.8125,0.1875 -0.234668,0.128005 -0.423084,0.317171 -0.59375,0.5625 -0.165334,0.245338 -0.31558,0.543587 -0.40625,0.90625 -0.08533,0.357337 -0.125,0.754753 -0.125,1.21875 0,0.735322 0.126815,1.344202 0.34375,1.8125 0.832381,0.300215 1.671691,0.573152 2.53125,0.8125 0.177804,-0.12044 0.331383,-0.26914 0.46875,-0.46875 0.341329,-0.501333 0.531246,-1.222915 0.53125,-2.15625 -4e-6,-0.93333 -0.189921,-1.628996 -0.53125,-2.125 -0.341337,-0.501328 -0.803586,-0.749995 -1.40625,-0.75 z m 9.09375,0 c -0.298669,5e-6 -0.572502,0.05951 -0.8125,0.1875 -0.234668,0.128005 -0.423084,0.317171 -0.59375,0.5625 -0.165334,0.245338 -0.31558,0.543587 -0.40625,0.90625 -0.08533,0.357337 -0.125,0.754753 -0.125,1.21875 0,0.933335 0.189916,1.654917 0.53125,2.15625 0.341332,0.496 0.803582,0.75 1.40625,0.75 0.602664,0 1.064913,-0.254 1.40625,-0.75 0.341329,-0.501333 0.531246,-1.222915 0.53125,-2.15625 -4e-6,-0.93333 -0.189921,-1.628996 -0.53125,-2.125 -0.341337,-0.501328 -0.803586,-0.749995 -1.40625,-0.75 z m 9.09375,0 c -0.298669,5e-6 -0.572502,0.05951 -0.8125,0.1875 -0.234668,0.128005 -0.423084,0.317171 -0.59375,0.5625 -0.165334,0.245338 -0.31558,0.543587 -0.40625,0.90625 -0.08533,0.357337 -0.125,0.754753 -0.125,1.21875 0,0.933335 0.189916,1.654917 0.53125,2.15625 0.341332,0.496 0.803582,0.75 1.40625,0.75 0.602664,0 1.064913,-0.254 1.40625,-0.75 0.341329,-0.501333 0.531246,-1.222915 0.53125,-2.15625 -4e-6,-0.93333 -0.189921,-1.628996 -0.53125,-2.125 -0.341337,-0.501328 -0.803586,-0.749995 -1.40625,-0.75 z m 9.09375,0 c -0.298669,5e-6 -0.572502,0.05951 -0.8125,0.1875 -0.234668,0.128005 -0.423084,0.317171 -0.59375,0.5625 -0.165334,0.245338 -0.31558,0.543587 -0.40625,0.90625 -0.08533,0.357337 -0.125,0.754753 -0.125,1.21875 0,0.283154 0.02862,0.537312 0.0625,0.78125 0.312987,-0.141061 0.629344,-0.28783 0.9375,-0.4375 -0.003,-0.115931 0,-0.222083 0,-0.34375 0,-0.287997 0.0046,-0.56183 0.03125,-0.8125 0.032,-0.250663 0.08691,-0.443663 0.15625,-0.625 0.07467,-0.186663 0.195165,-0.330829 0.3125,-0.4375 0.122665,-0.10666 0.261498,-0.187496 0.4375,-0.1875 0.175997,4e-6 0.320164,0.08084 0.4375,0.1875 0.11733,0.106671 0.21191,0.250837 0.28125,0.4375 0.07466,0.181337 0.12425,0.374337 0.15625,0.625 0.0073,0.05751 -0.0068,0.127664 0,0.1875 0.309876,-0.173196 0.633354,-0.349248 0.9375,-0.53125 -0.09014,-0.377886 -0.22636,-0.707342 -0.40625,-0.96875 -0.341337,-0.501328 -0.803586,-0.749995 -1.40625,-0.75 z m 4.40625,0 c -0.239518,0.0156 -0.452958,0.07908 -0.65625,0.1875 -0.234668,0.128005 -0.454334,0.317171 -0.625,0.5625 -0.04513,0.06696 -0.08641,0.143672 -0.125,0.21875 0.480835,-0.313894 0.941706,-0.632862 1.40625,-0.96875 z m -36.03125,0.125 c -0.240002,0.261338 -0.529085,0.464255 -0.84375,0.65625 -0.309335,0.192004 -0.596918,0.377337 -0.90625,0.5 l 0.28125,0.71875 c 0.202665,-0.06933 0.406332,-0.14333 0.625,-0.25 0.218665,-0.106663 0.418498,-0.231746 0.5625,-0.34375 l 0,2.03125 c 0.319741,0.14974 0.643969,0.265714 0.96875,0.40625 l 0,-3.71875 z m 9.09375,0 c -0.240002,0.261338 -0.529085,0.464255 -0.84375,0.65625 -0.309335,0.192004 -0.596918,0.377337 -0.90625,0.5 l 0.28125,0.71875 c 0.202665,-0.06933 0.406332,-0.14333 0.625,-0.25 0.218665,-0.106663 0.418498,-0.231746 0.5625,-0.34375 l 0,4.25 0.96875,0 0,-5.53125 z m 9.09375,0 c -0.240002,0.261338 -0.529085,0.464255 -0.84375,0.65625 -0.309335,0.192004 -0.596918,0.377337 -0.90625,0.5 L 46.75,76.1875 c 0.202665,-0.06933 0.406332,-0.14333 0.625,-0.25 0.218665,-0.106663 0.418498,-0.231746 0.5625,-0.34375 l 0,4.25 0.96875,0 0,-5.53125 z m 9.09375,0 c -0.240002,0.261338 -0.529085,0.464255 -0.84375,0.65625 -0.309335,0.192004 -0.596918,0.377337 -0.90625,0.5 l 0.28125,0.71875 c 0.202665,-0.06933 0.406332,-0.14333 0.625,-0.25 0.218665,-0.106663 0.418498,-0.231746 0.5625,-0.34375 l 0,3.34375 C 57.355286,78.822579 57.680304,78.717614 58,78.59375 L 58,74.3125 z M 34.375,75 c 0.175997,4e-6 0.320164,0.08084 0.4375,0.1875 0.11733,0.106671 0.21191,0.250837 0.28125,0.4375 0.07466,0.181337 0.12425,0.374337 0.15625,0.625 0.032,0.25067 0.0625,0.524503 0.0625,0.8125 0,0.288002 -0.0305,0.561835 -0.0625,0.8125 -0.032,0.250668 -0.08159,0.469584 -0.15625,0.65625 -0.06934,0.181334 -0.16392,0.330834 -0.28125,0.4375 -0.117336,0.10667 -0.261503,0.15625 -0.4375,0.15625 -0.176002,0 -0.314835,-0.04958 -0.4375,-0.15625 -0.117335,-0.106666 -0.23783,-0.256166 -0.3125,-0.4375 -0.06934,-0.186666 -0.12425,-0.405582 -0.15625,-0.65625 -0.02667,-0.250665 -0.03125,-0.524498 -0.03125,-0.8125 0,-0.287997 0.0046,-0.56183 0.03125,-0.8125 0.032,-0.250663 0.08692,-0.443663 0.15625,-0.625 0.07467,-0.186663 0.195165,-0.330829 0.3125,-0.4375 C 34.060165,75.08084 34.198998,75.000004 34.375,75 z m 9.09375,0 c 0.175997,4e-6 0.320164,0.08084 0.4375,0.1875 0.11733,0.106671 0.21191,0.250837 0.28125,0.4375 0.07466,0.181337 0.12425,0.374337 0.15625,0.625 0.032,0.25067 0.0625,0.524503 0.0625,0.8125 0,0.288002 -0.0305,0.561835 -0.0625,0.8125 -0.032,0.250668 -0.08159,0.469584 -0.15625,0.65625 -0.06934,0.181334 -0.16392,0.330834 -0.28125,0.4375 -0.117336,0.10667 -0.261503,0.15625 -0.4375,0.15625 -0.176002,0 -0.314835,-0.04958 -0.4375,-0.15625 -0.117335,-0.106666 -0.23783,-0.256166 -0.3125,-0.4375 -0.06934,-0.186666 -0.12425,-0.405582 -0.15625,-0.65625 -0.02667,-0.250665 -0.03125,-0.524498 -0.03125,-0.8125 0,-0.287997 0.0046,-0.56183 0.03125,-0.8125 0.032,-0.250663 0.08692,-0.443663 0.15625,-0.625 0.07467,-0.186663 0.195165,-0.330829 0.3125,-0.4375 0.122665,-0.10666 0.261498,-0.187496 0.4375,-0.1875 z m 9.09375,0 c 0.175997,4e-6 0.320164,0.08084 0.4375,0.1875 0.11733,0.106671 0.21191,0.250837 0.28125,0.4375 0.07466,0.181337 0.12425,0.374337 0.15625,0.625 0.032,0.25067 0.0625,0.524503 0.0625,0.8125 0,0.288002 -0.0305,0.561835 -0.0625,0.8125 -0.032,0.250668 -0.08159,0.469584 -0.15625,0.65625 -0.06934,0.181334 -0.16392,0.330834 -0.28125,0.4375 -0.117336,0.10667 -0.261503,0.15625 -0.4375,0.15625 -0.176002,0 -0.314835,-0.04958 -0.4375,-0.15625 -0.117335,-0.106666 -0.23783,-0.256166 -0.3125,-0.4375 C 51.74316,78.344584 51.68825,78.125668 51.65625,77.875 51.62958,77.624335 51.625,77.350502 51.625,77.0625 c 0,-0.287997 0.0046,-0.56183 0.03125,-0.8125 0.032,-0.250663 0.08692,-0.443663 0.15625,-0.625 0.07467,-0.186663 0.195165,-0.330829 0.3125,-0.4375 0.122665,-0.10666 0.261498,-0.187496 0.4375,-0.1875 z" id="path3844" inkscape:connector-curvature="0" sodipodi:nodetypes="ccscccccccccccccccscccscccsccccccscscsccccccscscsccccccscscsccccccscscsccccccscscsccccccsccsccccccccccccccccccccccccccccccccccccccccccccccccccccccccccccccccccccccccccccccccccccccccccccccccccscccsscccscccccccscccsscccscccccccscccsscccscccccccscccsscccscccccccscccsscccsccccccccscscsccccccscscsccccccscscsccccccscscsccccccscscsccccccscscsccccccscscsccccccscscccccccccccccccccccccccccccccccccccccccccccccccccccccccccccccccccscccsscccscccccccscccsscccscccccccscccsscccscccccccscccsscccscccccccscccsscccscccccccscccsscccscccccccscccsscccscccccccccccccccccccscccsccccccscscsccccccscscsccccccsccsccccccsccccccccccccccccccccccccccccccccccccccccccccccccccccscccsscccscccccccscccsscccscccccccscccsscccscccc"/>
  </g>
  <g inkscape:groupmode="layer" id="layer1" inkscape:label="Unselectable" sodipodi:insensitive="true">
    <path style="fill:none;stroke:#000000;stroke-width:4.5;stroke-linecap:round;stroke-miterlimit:4;stroke-opacity:1;stroke-dasharray:none;stroke-dashoffset:0;display:inline" d="m 9.1875,48.78125 c 1.88688,18.1081 17.2051,32.2188 35.8125,32.2188 18.33498,0 33.47434,-13.7119 35.71875,-31.4375 -7.05244,2.6459 -19.97089,4.4375 -34.8125,4.4375 -16.28176,0 -30.28526,-2.1398 -36.71875,-5.2188 z" id="path3829-1-5-74-4-9-0-7-4" inkscape:connector-curvature="0" sodipodi:nodetypes="cscsc"/>
  </g>
</svg>
