<!--?xml version="1.0" encoding="UTF-8" standalone="no"?--><svg xmlns:dc="http://purl.org/dc/elements/1.1/" xmlns:cc="http://creativecommons.org/ns#" xmlns:rdf="http://www.w3.org/1999/02/22-rdf-syntax-ns#" xmlns:svg="http://www.w3.org/2000/svg" xmlns="http://www.w3.org/2000/svg" xmlns:sodipodi="http://sodipodi.sourceforge.net/DTD/sodipodi-0.dtd" xmlns:inkscape="http://www.inkscape.org/namespaces/inkscape" viewBox="0 0 90 90" class="bird-big-beak" width="100%" height="100%" id="svg3336" data-z="400" data-slots="face" data-tags="animals+facial+face" version="1.1" inkscape:version="0.91 r" sodipodi:docname="bird-beak-big.svg">
  <defs id="defs3348"/>
  <sodipodi:namedview pagecolor="#ffffff" bordercolor="#666666" borderopacity="1" objecttolerance="10" gridtolerance="10" guidetolerance="10" inkscape:pageopacity="0" inkscape:pageshadow="2" inkscape:window-width="1920" inkscape:window-height="1056" id="namedview3346" showgrid="false" inkscape:zoom="10.211111" inkscape:cx="4.8966267" inkscape:cy="45" inkscape:window-x="1920" inkscape:window-y="24" inkscape:window-maximized="1" inkscape:current-layer="layer1"/>
  <metadata title="Basic Body" contributor="Douglas Richardson" id="metadata3338">
    <layers>
      <layer name="Primary" data-layer="layer1"/>
    </layers>
    <rdf:rdf>
      <cc:work rdf:about="">
        <dc:format>image/svg+xml</dc:format>
        <dc:type rdf:resource="http://purl.org/dc/dcmitype/StillImage"/>
        <dc:title>Basic Body</dc:title>
      </cc:work>
    </rdf:rdf>
  </metadata>
  <title id="title3344">Basic Body</title>
  <g inkscape:groupmode="layer" id="layer1" inkscape:label="chin" class="chin">
    <path style="fill:#ffffff;fill-opacity:1;stroke:#000000;stroke-width:2.25;stroke-miterlimit:4;stroke-dasharray:none;stroke-opacity:1" d="m 42.159955,39.760609 4.602831,0 c 3.607932,0 6.512513,2.90458 6.512513,6.512512 0,3.607932 -2.904581,6.512513 -6.512513,6.512513 l -4.602831,0 c -3.607932,0 -6.512513,-2.904581 -6.512513,-6.512513 0,-3.607932 2.904581,-6.512512 6.512513,-6.512512 z" id="rect5538"/>
  </g>
  <g inkscape:groupmode="layer" id="layer2" inkscape:label="beak" class="beak">
    <path style="fill:#ffffff;fill-opacity:1;fill-rule:evenodd;stroke:#000000;stroke-width:2.25;stroke-linecap:butt;stroke-linejoin:miter;stroke-miterlimit:4;stroke-dasharray:none;stroke-opacity:1" d="m 53.723412,44.493757 c 0.01877,-0.143259 0.02999,-0.286905 0.03366,-0.430679 3.1e-4,-3.428409 -4.20457,-9.92917 -9.391457,-9.928968 -5.186887,-2.02e-4 -9.391767,6.500559 -9.391462,9.928968 3.79e-4,0.143698 0.0083,0.287344 0.02377,0.430679 3.915861,1.407945 6.76851,2.365166 9.365516,4.962172 2.918224,-2.918224 4.548471,-3.61482 9.359973,-4.962172 z" id="path3528" inkscape:connector-curvature="0" sodipodi:nodetypes="ccccccc"/>
    <path style="fill:none;fill-rule:evenodd;stroke:#000000;stroke-width:1.16999996;stroke-linecap:butt;stroke-linejoin:miter;stroke-miterlimit:4;stroke-dasharray:none;stroke-opacity:1" d="m 44.167574,34.178454 0,5.680087" id="path6080" inkscape:connector-curvature="0"/>
  </g>
</svg>
