<!--?xml version="1.0" encoding="UTF-8" standalone="no"?--><svg xmlns:dc="http://purl.org/dc/elements/1.1/" xmlns:cc="http://creativecommons.org/ns#" xmlns:rdf="http://www.w3.org/1999/02/22-rdf-syntax-ns#" xmlns:svg="http://www.w3.org/2000/svg" xmlns="http://www.w3.org/2000/svg" xmlns:sodipodi="http://sodipodi.sourceforge.net/DTD/sodipodi-0.dtd" xmlns:inkscape="http://www.inkscape.org/namespaces/inkscape" viewBox="0 0 90 90" class="bird-wings-tucked" width="100%" height="100%" id="svg3336" data-z="0" data-slots="back" data-tags="weapons,animals" version="1.1" inkscape:version="0.91 r" sodipodi:docname="bird-wings-tucked.svg">
  <defs id="defs3348"/>
  <sodipodi:namedview pagecolor="#ffffff" bordercolor="#666666" borderopacity="1" objecttolerance="10" gridtolerance="10" guidetolerance="10" inkscape:pageopacity="0" inkscape:pageshadow="2" inkscape:window-width="1920" inkscape:window-height="1056" id="namedview3346" showgrid="false" inkscape:zoom="2.5527778" inkscape:cx="175.75013" inkscape:cy="57.227836" inkscape:window-x="1920" inkscape:window-y="24" inkscape:window-maximized="1" inkscape:current-layer="svg3336"/>
  <metadata title="Basic Body" contributor="Douglas Richardson" id="metadata3338">
    <layers>
      <layer name="Primary" data-layer="layer1"/>
    </layers>
    <rdf:rdf>
      <cc:work rdf:about="">
        <dc:format>image/svg+xml</dc:format>
        <dc:type rdf:resource="http://purl.org/dc/dcmitype/StillImage"/>
        <dc:title>Basic Body</dc:title>
      </cc:work>
    </rdf:rdf>
  </metadata>
  <title id="title3344">Basic Body</title>
  <g inkscape:groupmode="layer" id="layer4" inkscape:label="wings" class="wings">
    <path style="fill:#ffffff;fill-opacity:1;stroke:#000000;stroke-width:5.13608742;stroke-miterlimit:4;stroke-dasharray:none;stroke-dashoffset:0;stroke-opacity:1" d="m 5.0680741,42.046217 c -0.732078,-0.922539 -2.1644669,1.600818 -2.2131551,2.75541 -0.6894251,16.348991 10.487032,31.074328 26.466417,37.161545 0,0 5.856197,-2.114192 6.585686,-4.042285 C 38.767756,70.359734 41.732665,64.23111 33.307745,57.152731 24.882824,50.074352 5.0680741,42.046217 5.0680741,42.046217 Z M 52.322673,78.014308 c 1.005168,3.297093 8.060093,4.040161 8.060093,4.040161 16.12824,-6.009901 26.74531,-20.787702 26.762426,-37.252842 9.87e-4,-0.950505 -1.169973,-2.848835 -2.170027,-2.848835 0,0 -18.196365,8.051766 -26.969145,15.067385 -8.772781,7.015618 -8.121975,12.995088 -5.683347,20.994131 z" id="circle3342-6" inkscape:connector-curvature="0" sodipodi:nodetypes="csccscscssss"/>
    <path style="color:#000000;clip-rule:nonzero;display:inline;overflow:visible;visibility:visible;opacity:1;isolation:auto;mix-blend-mode:normal;color-interpolation:sRGB;color-interpolation-filters:linearRGB;solid-color:#000000;solid-opacity:1;fill:#ffffff;fill-opacity:1;fill-rule:nonzero;stroke:#000000;stroke-width:3.81645226;stroke-linecap:butt;stroke-linejoin:miter;stroke-miterlimit:4;stroke-dasharray:none;stroke-dashoffset:0;stroke-opacity:1;color-rendering:auto;image-rendering:auto;shape-rendering:auto;text-rendering:auto;enable-background:accumulate" d="m 13.15747,48.764943 c -0.583718,-0.638843 -1.725824,1.10854 -1.764646,1.908076 -0.549708,11.321406 8.361768,21.518457 21.102828,25.733754 0,0 4.669401,-1.464043 5.251055,-2.799216 C 40.027695,68.371584 42.391746,64.127614 35.67419,59.225954 28.956634,54.324294 13.15747,48.764943 13.15747,48.764943 Z M 50.835621,73.67225 c 0.801465,2.283182 6.426664,2.797745 6.426664,2.797745 12.859749,-4.161756 21.325201,-14.395139 21.338849,-25.796976 7.87e-4,-0.658209 -0.932871,-1.972771 -1.730258,-1.972771 0,0 -14.508754,5.575714 -21.503674,10.433914 -6.994922,4.858199 -6.476005,8.998883 -4.531581,14.538088 z" id="circle3342-6-7" inkscape:connector-curvature="0" sodipodi:nodetypes="csccscscssss"/>
    <path style="fill:#ffffff;fill-opacity:1;stroke:#000000;stroke-width:2.8900795;stroke-miterlimit:4;stroke-dasharray:none;stroke-dashoffset:0;stroke-opacity:1" d="m 19.21124,50.383657 c -0.472692,-0.452399 -1.397559,0.785013 -1.428998,1.351204 -0.445148,8.017266 6.771301,15.238321 17.088921,18.223388 0,0 3.781248,-1.036764 4.252267,-1.982268 1.847128,-3.70786 3.76152,-6.713232 -1.678311,-10.184349 C 32.005292,54.320517 19.21124,50.383657 19.21124,50.383657 Z m 30.511499,17.638136 c 0.649022,1.616837 5.204266,1.981226 5.204266,1.981226 10.413735,-2.947153 17.268997,-10.193934 17.280049,-18.268158 6.37e-4,-0.466111 -0.755431,-1.397019 -1.40115,-1.397019 0,0 -11.749087,3.948448 -17.413524,7.388787 -5.664437,3.44034 -5.24422,6.372569 -3.669641,10.295164 z" id="circle3342-6-7-3" inkscape:connector-curvature="0" sodipodi:nodetypes="csccscscssss"/>
  </g>
</svg>
