<?xml version="1.0" encoding="UTF-8" standalone="no"?>
<!-- Created with Inkscape (http://www.inkscape.org/) -->

<svg
   xmlns:dc="http://purl.org/dc/elements/1.1/"
   xmlns:cc="http://creativecommons.org/ns#"
   xmlns:rdf="http://www.w3.org/1999/02/22-rdf-syntax-ns#"
   xmlns:svg="http://www.w3.org/2000/svg"
   xmlns="http://www.w3.org/2000/svg"
   xmlns:sodipodi="http://sodipodi.sourceforge.net/DTD/sodipodi-0.dtd"
   xmlns:inkscape="http://www.inkscape.org/namespaces/inkscape"
   width="100%"
   height="100%"
   viewBox="0 0 90 90"
   id="svg2"
   version="1.1"
   inkscape:version="0.48.4 r9939"
   sodipodi:docname="business-hair.svg"
   class="business-hair">
  <defs
     id="defs4" />
  <sodipodi:namedview
     id="base"
     pagecolor="#ffffff"
     bordercolor="#666666"
     borderopacity="1.0"
     inkscape:pageopacity="0.0"
     inkscape:pageshadow="2"
     inkscape:zoom="7.9824051"
     inkscape:cx="12.771018"
     inkscape:cy="38.843113"
     inkscape:document-units="in"
     inkscape:current-layer="svg2"
     showgrid="false"
     units="in"
     inkscape:window-width="1920"
     inkscape:window-height="1017"
     inkscape:window-x="-8"
     inkscape:window-y="-8"
     inkscape:window-maximized="1">
    <inkscape:grid
       type="xygrid"
       id="grid2994"
       empspacing="5"
       visible="true"
       enabled="true"
       snapvisiblegridlinesonly="true"
       units="in"
       spacingx="0.014in"
       spacingy="0.014in" />
  </sodipodi:namedview>
  <metadata
     id="metadata7">
    <rdf:RDF>
      <cc:Work
         rdf:about="">
        <dc:format>image/svg+xml</dc:format>
        <dc:type
           rdf:resource="http://purl.org/dc/dcmitype/StillImage" />
        <dc:title></dc:title>
      </cc:Work>
    </rdf:RDF>
  </metadata>
  <g
     inkscape:label="Body"
     inkscape:groupmode="layer"
     id="layer1"
     class="hair"
     transform="translate(0,-962.35975)"
     style="display:inline">
    <path
       style="fill:#ffffff;fill-opacity:1;stroke:#000000;stroke-width:2.25;stroke-linecap:butt;stroke-linejoin:miter;stroke-miterlimit:4;stroke-opacity:1;stroke-dasharray:none;display:inline"
       d="m 68.875,18.0625 -6.75,3.03125 c 0,0 4.2639,7.305525 8.03125,10.15625 2.773229,2.098482 6.903933,2.204295 8.90625,2.125 C 77.076883,27.547306 73.649694,22.396528 69.1875,18.34375 69.08379,18.249555 68.97981,18.155497 68.875,18.0625 z M 20.75,18.34375 c -4.415317,4.020869 -7.823557,9.132185 -9.8125,14.90625 1.916541,0.04606 5.083745,-0.194486 7.46875,-2 3.639699,-2.755352 8.53125,-10.15625 8.53125,-10.15625 l -6.15625,-2.75 c -0.0058,0.0053 -0.02541,-0.0053 -0.03125,0 z"
       id="path4144-6"
       transform="translate(0,962.35975)"
       inkscape:connector-curvature="0" />
    <path
       style="fill:#ffffff;fill-opacity:1;stroke:#000000;stroke-width:2.25;stroke-linecap:butt;stroke-linejoin:miter;stroke-miterlimit:4;stroke-opacity:1;stroke-dasharray:none;display:inline"
       d="m 23.28125,979.11251 c -0.229923,-0.004 -0.44072,0.005 -0.65625,0.0312 -3.448473,0.41269 -6.269723,6.15318 -9.28125,7.75 -3.011527,1.59682 -7.03125,3.46875 -7.03125,3.46875 0,0 4.043363,1.74647 7.3125,0.78125 3.269184,-0.96528 5.882148,-5.75091 9.34375,-5.46875 1.34883,0.10994 2.674155,0.64306 3.8125,1.25 1.28343,-0.52534 2.621167,-0.9934 4,-1.40625 l 0.8125,-3.15625 c 0,0 -4.863655,-3.18952 -8.3125,-3.25 z"
       id="path2984-1"
       inkscape:connector-curvature="0" />
    <path
       style="fill:#ffffff;fill-opacity:1;stroke:#000000;stroke-width:2.25;stroke-linecap:butt;stroke-linejoin:miter;stroke-miterlimit:4;stroke-opacity:1;stroke-dasharray:none;display:inline"
       d="m 25.9375,13.5625 c -3.307613,-0.09956 -7.500136,3.905166 -10.65625,4.40625 -3.36652,0.53447 -7.75,0.96875 -7.75,0.96875 0,0 3.25075,2.97847 6.65625,3.125 3.405567,0.14647 7.410491,-3.54519 10.59375,-2.15625 1.414658,0.617258 2.630754,1.743935 3.5625,2.8125 1.460846,-0.532307 2.960974,-0.984764 4.53125,-1.375 l 1.15625,-1.75 c 0,0 -4.072677,-5.24142 -7.46875,-5.96875 -0.212254,-0.04546 -0.404492,-0.05586 -0.625,-0.0625 z"
       transform="translate(0,962.35975)"
       id="path2984-1-7"
       inkscape:connector-curvature="0" />
    <path
       style="fill:#ffffff;fill-opacity:1;stroke:#000000;stroke-width:2.25;stroke-linecap:butt;stroke-linejoin:miter;stroke-miterlimit:4;stroke-opacity:1;stroke-dasharray:none;display:inline"
       d="m 66.5,978.70626 c -3.448253,-0.088 -8.4375,2.90625 -8.4375,2.90625 l 0.8125,3.8125 c 1.157463,0.33837 2.282784,0.7387 3.375,1.15625 1.247933,-0.64484 2.76034,-1.25424 4.28125,-1.3125 3.470536,-0.13296 5.869129,4.76994 9.09375,5.875 3.224577,1.10498 7.34375,-0.46875 7.34375,-0.46875 0,0 -3.934971,-2.02508 -6.875,-3.75 -2.940029,-1.72493 -5.478728,-7.59555 -8.90625,-8.15625 -0.21422,-0.0351 -0.457616,-0.0566 -0.6875,-0.0625 z"
       id="path2984-1-4"
       inkscape:connector-curvature="0" />
    <path
       style="fill:#ffffff;fill-opacity:1;stroke:#000000;stroke-width:2.25;stroke-linecap:butt;stroke-linejoin:miter;stroke-miterlimit:4;stroke-opacity:1;stroke-dasharray:none;display:inline"
       d="m 63.9375,13.03125 c -0.220589,-0.0029 -0.442236,-0.005 -0.65625,0.03125 -3.424223,0.58053 -7.6875,5.65625 -7.6875,5.65625 L 57.1875,21.375 c 1.246035,0.313424 2.447216,0.659114 3.625,1.0625 1.007496,-1.116123 2.409411,-2.386016 4,-3 3.240074,-1.25069 7.091283,2.59356 10.5,2.59375 3.408649,1.5e-4 6.78125,-2.8125 6.78125,-2.8125 0,0 -4.378344,-0.63366 -7.71875,-1.3125 -3.131631,-0.636422 -7.128664,-4.832142 -10.4375,-4.875 z"
       transform="translate(0,962.35975)"
       id="path2984-1-7-0"
       inkscape:connector-curvature="0" />
    <path
       style="fill:#ffffff;fill-opacity:1;stroke:#000000;stroke-width:2.25;stroke-linecap:butt;stroke-linejoin:miter;stroke-miterlimit:4;stroke-opacity:1;stroke-dasharray:none;display:inline"
       d="m 31.75,11.5 c -2.582544,1.020128 -5.000742,2.313702 -7.25,3.875 2.027231,0.183824 3.959769,0.456747 5.09375,1.84375 1.055751,1.291329 1.664951,2.995106 2,4.4375 1.991613,-0.555864 4.069533,-0.979837 6.21875,-1.28125 -0.360331,-1.610359 -1.535223,-6.128155 -3.75,-7.9375 C 33.446589,11.934335 32.647734,11.65284 31.75,11.5 z"
       transform="translate(0,962.35975)"
       id="path2984-1-7-4"
       inkscape:connector-curvature="0" />
    <path
       style="fill:#ffffff;fill-opacity:1;stroke:#000000;stroke-width:2.25;stroke-linecap:butt;stroke-linejoin:miter;stroke-miterlimit:4;stroke-opacity:1;stroke-dasharray:none;display:inline"
       d="m 38.125,9.625 c -0.673505,0.129257 -1.34246,0.3028303 -2,0.46875 -0.01951,0.0049 -0.043,-0.005 -0.0625,0 -0.543764,0.138342 -1.09007,0.307016 -1.625,0.46875 -0.12367,0.0378 -0.251774,0.05463 -0.375,0.09375 0.0045,0.0082 -0.0043,0.0229 0,0.03125 -1.527127,0.479843 -3.010674,1.045334 -4.4375,1.71875 2.614024,0.985306 5.762106,1.49254 6.875,3.75 0.654637,1.327915 0.867629,2.8973 0.90625,4.28125 2.093663,-0.311457 4.257008,-0.486174 6.46875,-0.53125 -0.04397,-2.161564 -0.2187,-5.554779 -1.03125,-7.375 C 41.974645,10.584328 39.875054,10.259419 38.125,9.625 z"
       transform="translate(0,962.35975)"
       id="path2984-1-7-4-8"
       inkscape:connector-curvature="0" />
    <path
       style="fill:#ffffff;fill-opacity:1;stroke:#000000;stroke-width:2.25;stroke-linecap:butt;stroke-linejoin:miter;stroke-miterlimit:4;stroke-opacity:1;stroke-dasharray:none;display:inline"
       d="m 57.8125,11.34375 c -1.468375,0.06462 -2.797525,0.341161 -3.71875,1.09375 -2.078062,1.697657 -3.281037,5.869089 -3.71875,7.71875 2.186938,0.23009 4.304619,0.602881 6.34375,1.09375 0.342904,-1.349854 0.886354,-2.860223 1.84375,-4.03125 1.421698,-1.738918 4.123584,-1.754542 6.65625,-2 -2.294393,-1.563408 -4.772889,-2.869155 -7.40625,-3.875 z"
       transform="translate(0,962.35975)"
       id="path2984-1-7-4-82"
       inkscape:connector-curvature="0" />
    <path
       style="fill:#ffffff;fill-opacity:1;stroke:#000000;stroke-width:2.25;stroke-linecap:butt;stroke-linejoin:miter;stroke-miterlimit:4;stroke-opacity:1;stroke-dasharray:none;display:inline"
       d="m 50.5625,9.4375 c -1.831714,0.800264 -4.291395,0.946334 -5.25,3.09375 -0.808859,1.811952 -0.964045,5.179867 -1,7.34375 0.209646,-0.0025 0.414489,0 0.625,0 1.987657,0 3.943902,0.128287 5.84375,0.34375 0.04942,-1.330104 0.254847,-2.804534 0.875,-4.0625 1.247758,-2.531027 5.075065,-2.852718 7.8125,-4.125 -1.648784,-0.72662 -3.361459,-1.34198 -5.125,-1.8125 C 53.902175,10.100071 53.44959,10.00548 53,9.90625 52.194705,9.7285109 51.384648,9.5659855 50.5625,9.4375 z"
       transform="translate(0,962.35975)"
       id="path2984-1-7-4-8-4"
       inkscape:connector-curvature="0" />
    <path
       style="fill:#ffffff;fill-opacity:1;stroke:#000000;stroke-width:2.25;stroke-linecap:butt;stroke-linejoin:miter;stroke-miterlimit:4;stroke-opacity:1;stroke-dasharray:none;display:inline"
       d="m 44.9375,8.96875 c -1.832028,0 -3.617006,0.1732666 -5.375,0.4375 -0.257156,0.5718522 -0.357772,1.10258 -0.21875,1.5625 0.698086,2.30935 2.197419,2.07239 2.625,5.1875 0.161686,1.17796 0.230171,2.518122 0.25,3.78125 0.903327,-0.0474 1.797929,-0.0625 2.71875,-0.0625 0.342339,0 0.691215,0.02465 1.03125,0.03125 0.02044,-1.254509 0.05842,-2.581895 0.21875,-3.75 0.427582,-3.11511 1.958164,-2.87815 2.65625,-5.1875 0.159304,-0.527016 -0.03165,-1.1482061 -0.375,-1.8125 -1.161422,-0.1127316 -2.340055,-0.1875 -3.53125,-0.1875 z"
       transform="translate(0,962.35975)"
       id="path2984-1-7-4-8-4-5-7"
       inkscape:connector-curvature="0" />
  </g>
</svg>
