<?xml version="1.0" encoding="UTF-8" standalone="no"?>
<!-- Created with Inkscape (http://www.inkscape.org/) -->

<svg
   xmlns:dc="http://purl.org/dc/elements/1.1/"
   xmlns:cc="http://creativecommons.org/ns#"
   xmlns:rdf="http://www.w3.org/1999/02/22-rdf-syntax-ns#"
   xmlns:svg="http://www.w3.org/2000/svg"
   xmlns="http://www.w3.org/2000/svg"
   xmlns:sodipodi="http://sodipodi.sourceforge.net/DTD/sodipodi-0.dtd"
   xmlns:inkscape="http://www.inkscape.org/namespaces/inkscape"
   width="100%"
   height="100%"
   viewBox="0 0 90 90"
   id="svg2"
   version="1.1"
   inkscape:version="0.48.4 r9939"
   sodipodi:docname="Butterfly Wings.svg"
   class="butterfly-wings"
   data-z="0"
   data-slots="back">
  <metadata
     id="metadata17">
    <rdf:RDF>
      <cc:Work
         rdf:about="">
        <dc:format>image/svg+xml</dc:format>
        <dc:type
           rdf:resource="http://purl.org/dc/dcmitype/StillImage" />
      </cc:Work>
    </rdf:RDF>
  </metadata>
  <sodipodi:namedview
     pagecolor="#ffffff"
     bordercolor="#666666"
     borderopacity="1"
     objecttolerance="10"
     gridtolerance="10"
     guidetolerance="10"
     inkscape:pageopacity="0"
     inkscape:pageshadow="2"
     inkscape:window-width="1918"
     inkscape:window-height="1030"
     id="namedview15"
     showgrid="false"
     inkscape:zoom="2.6222222"
     inkscape:cx="-22.5"
     inkscape:cy="45"
     inkscape:window-x="0"
     inkscape:window-y="24"
     inkscape:window-maximized="0"
     inkscape:current-layer="svg2" />
  <defs
     id="defs4" />
  <g
     inkscape:label="Primary"
     inkscape:groupmode="layer"
     id="layer1"
     transform="translate(0,-962.35975)"
     style="display:inline"
     sodipodi:insensitive="true"
     class="wings">
    <path
       style="fill:#ffffff;fill-opacity:1;stroke:#000000;stroke-width:4.5;stroke-linecap:butt;stroke-linejoin:miter;stroke-miterlimit:4;stroke-opacity:1;stroke-dasharray:none"
       d="M 12.6875,3 C 9.9349777,2.9711058 6.963723,3.7434719 5.03125,5.59375 2.1532638,8.3493253 2.7675848,12.94323 2.52,16.92 c -0.2661456,4.2749 -0.2832492,8.616238 1.26125,12.61125 0.8831012,2.284236 2.3631249,4.284623 3.78125,6.28125 1.8995031,2.674376 4.517029,4.817198 6.3125,7.5625 2.056167,3.143911 4.168162,6.437648 5.03125,10.09375 0.578977,2.452587 0.964362,5.234324 0,7.5625 -1.136512,2.743782 -4.575999,3.871984 -6.3125,6.28125 -1.647389,2.285631 -3.4738194,4.761877 -3.78125,7.5625 -0.377916,3.442728 -0.1076901,7.850717 2.53125,10.09375 3.853533,3.275406 10.158785,2.206406 15.125,1.25 1.844406,-0.3552 3.466471,-1.492276 5.03125,-2.53125 3.225874,-2.1419 5.971375,-4.931529 8.8125,-7.5625 1.307426,-1.210717 4.578125,-3.75 4.578125,-3.75 0,0 3.270699,2.5393 4.578125,3.75 2.841125,2.631 5.586626,5.4206 8.8125,7.5625 1.564779,1.039 3.218094,2.17605 5.0625,2.53125 4.966215,0.9564 11.271467,2.0254 15.125,-1.25 2.63894,-2.243 2.877916,-6.65095 2.5,-10.09375 -0.307431,-2.8006 -2.133861,-5.2768 -3.78125,-7.5625 -1.736501,-2.4092 -5.144738,-3.53745 -6.28125,-6.28125 -0.964362,-2.3281 -0.578977,-5.1099 0,-7.5625 0.863088,-3.6561 2.975083,-6.94985 5.03125,-10.09375 1.795471,-2.7453 4.412997,-4.88815 6.3125,-7.5625 1.418125,-1.99662 2.898149,-3.99701 3.78125,-6.28125 C 87.575749,25.53624 87.206145,21.1949 86.94,16.92 86.692415,12.94323 87.627986,8.34933 84.75,5.59375 82.541459,3.47915 78.982025,2.77955 75.9375,3.0625 72.197026,3.41014 68.357183,5.30186 65.84375,8.09375 63.442797,10.7607 64.005253,15.1704 62.0625,18.1875 60.454666,20.68448 58.365612,23.00551 55.78125,24.46875 52.767392,26.17517 45.6875,27 45.6875,27 l -1.59375,0 c 0,0 -7.048642,-0.824833 -10.0625,-2.53125 C 31.446888,23.005509 29.326584,20.684472 27.71875,18.1875 25.775997,15.170397 26.338453,10.7607 23.9375,8.09375 21.424067,5.3018589 17.615474,3.4101404 13.875,3.0625 13.494434,3.0271302 13.080717,3.0041277 12.6875,3 z"
       transform="translate(0,962.35975)"
       id="path2996"
       inkscape:connector-curvature="0"
       sodipodi:nodetypes="sssssssssssssscsssssccssssssssssccsssss" />
  </g>
  <g
     inkscape:groupmode="layer"
     id="layer2"
     inkscape:label="Secondary"
     style="display:inline"
     sodipodi:insensitive="true"
     class="spots">
    <path
       style="fill:#b4b4b4;fill-opacity:1;stroke:none;display:inline"
       d="m 11.347245,10.874174 c 0,2.56995 -2.0833563,4.653306 -4.6533069,4.653306 -2.5699501,0 -4.6533063,-2.083356 -4.6533063,-4.653306 0,-2.5699504 2.0833562,-4.6533068 4.6533063,-4.6533068 2.5699506,0 4.6533069,2.0833564 4.6533069,4.6533068 z"
       id="path3787"
       inkscape:connector-curvature="0" />
    <path
       inkscape:connector-curvature="0"
       style="fill:#b4b4b4;fill-opacity:1;stroke:none;display:inline"
       d="m 22.747317,8.4939381 c 0,1.7396969 -1.410303,3.1499999 -3.15,3.1499999 -1.739697,0 -3.15,-1.410303 -3.15,-3.1499999 0,-1.7396966 1.410303,-3.1499997 3.15,-3.1499997 1.739697,0 3.15,1.4103031 3.15,3.1499997 z"
       id="path3787-7" />
    <path
       style="fill:#b4b4b4;fill-opacity:1;stroke:none;display:inline"
       d="m 9.7186628,25.28086 c 0,1.739697 -1.410303,3.15 -3.1500002,3.15 -1.739697,0 -3.1500001,-1.410303 -3.1500001,-3.15 0,-1.739697 1.4103031,-3.15 3.1500001,-3.15 1.7396972,0 3.1500002,1.410303 3.1500002,3.15 z"
       id="path3787-4"
       inkscape:connector-curvature="0" />
    <path
       style="fill:#b4b4b4;fill-opacity:1;stroke:none;display:inline"
       d="m 21.244011,80.903193 c 0,3.19264 -2.588146,5.780786 -5.780786,5.780786 -3.19264,0 -5.7807858,-2.588146 -5.7807858,-5.780786 0,-3.19264 2.5881458,-5.780786 5.7807858,-5.780786 3.19264,0 5.780786,2.588146 5.780786,5.780786 z"
       id="path3787-4-0"
       inkscape:connector-curvature="0" />
    <path
       style="fill:#b4b4b4;fill-opacity:1;stroke:none;display:inline"
       d="m 78.333427,11.500551 c 0,2.500762 2.02727,4.528031 4.528032,4.528031 2.500763,0 4.528031,-2.027269 4.528031,-4.528031 0,-2.5007618 -2.027268,-4.5280311 -4.528031,-4.5280311 -2.500762,0 -4.528032,2.0272693 -4.528032,4.5280311 z"
       id="path3787-9"
       inkscape:connector-curvature="0" />
    <path
       inkscape:connector-curvature="0"
       style="fill:#b4b4b4;fill-opacity:1;stroke:none;display:inline"
       d="m 67.434457,8.2433869 c 0,1.739697 1.410303,3.1500001 3.15,3.1500001 1.739697,0 3.15,-1.4103031 3.15,-3.1500001 0,-1.7396969 -1.410303,-3.15 -3.15,-3.15 -1.739697,0 -3.15,1.4103031 -3.15,3.15 z"
       id="path3787-7-4" />
    <path
       style="fill:#b4b4b4;fill-opacity:1;stroke:none;display:inline"
       d="m 80.588387,24.403931 c 0,1.739697 1.410304,3.15 3.150001,3.15 1.739697,0 3.15,-1.410303 3.15,-3.15 0,-1.739697 -1.410303,-3.15 -3.15,-3.15 -1.739697,0 -3.150001,1.410303 -3.150001,3.15 z"
       id="path3787-4-8"
       inkscape:connector-curvature="0" />
    <path
       style="fill:#b4b4b4;fill-opacity:1;stroke:none;display:inline"
       d="m 69.063039,81.654846 c 0,3.054265 2.47597,5.530235 5.530235,5.530235 3.054265,0 5.530235,-2.47597 5.530235,-5.530235 0,-3.054265 -2.47597,-5.530235 -5.530235,-5.530235 -3.054265,0 -5.530235,2.47597 -5.530235,5.530235 z"
       id="path3787-4-0-8"
       inkscape:connector-curvature="0" />
  </g>
</svg>
