<?xml version="1.0" encoding="UTF-8" standalone="no"?>
<!-- Created with Inkscape (http://www.inkscape.org/) -->

<svg
   xmlns:dc="http://purl.org/dc/elements/1.1/"
   xmlns:cc="http://creativecommons.org/ns#"
   xmlns:rdf="http://www.w3.org/1999/02/22-rdf-syntax-ns#"
   xmlns:svg="http://www.w3.org/2000/svg"
   xmlns="http://www.w3.org/2000/svg"
   xmlns:sodipodi="http://sodipodi.sourceforge.net/DTD/sodipodi-0.dtd"
   xmlns:inkscape="http://www.inkscape.org/namespaces/inkscape"
   width="90"
   height="90"
   id="svg2"
   version="1.1"
   viewBox="0 0 90 90"
   class="circuit-body"
   inkscape:version="0.48.4 r9939"
   sodipodi:docname="circuit-body.svg"
   data-z="100"
   data-slots="body"
   data-tags="body,modern">
  <defs
     id="defs4" />
  <sodipodi:namedview
     id="base"
     pagecolor="#ffffff"
     bordercolor="#666666"
     borderopacity="1.0"
     inkscape:pageopacity="0.0"
     inkscape:pageshadow="2"
     inkscape:zoom="9.7408821"
     inkscape:cx="33.425405"
     inkscape:cy="45.482563"
     inkscape:document-units="in"
     inkscape:current-layer="layer2"
     showgrid="true"
     units="in"
     inkscape:window-width="1920"
     inkscape:window-height="1017"
     inkscape:window-x="-8"
     inkscape:window-y="-8"
     inkscape:window-maximized="1">
    <inkscape:grid
       type="xygrid"
       id="grid2994"
       empspacing="5"
       visible="true"
       enabled="true"
       snapvisiblegridlinesonly="true"
       units="in"
       spacingx="0.014in"
       spacingy="0.014in" />
  </sodipodi:namedview>
  <metadata
     id="metadata7">
    <rdf:RDF>
      <cc:Work
         rdf:about="">
        <dc:format>image/svg+xml</dc:format>
        <dc:type
           rdf:resource="http://purl.org/dc/dcmitype/StillImage" />
        <dc:title />
      </cc:Work>
    </rdf:RDF>
  </metadata>
  <g
     inkscape:label="Primary"
     inkscape:groupmode="layer"
     id="layer1"
     class="body"
     transform="translate(0,-962.35975)"
     style="display:inline"
     sodipodi:insensitive="true">
    <circle
       transform="translate(0,962.35975)"
       style="color:#000000;fill:#ffffff;fill-opacity:1;fill-rule:nonzero;stroke:#000000;stroke-width:4.5;stroke-linecap:butt;stroke-linejoin:miter;stroke-miterlimit:4;stroke-opacity:1;stroke-dasharray:none;stroke-dashoffset:0;marker:none;visibility:visible;display:inline;overflow:visible;enable-background:accumulate"
       cx="45"
       cy="45"
       r="36"
       id="circle2990-1"
       sodipodi:cx="45"
       sodipodi:cy="45"
       sodipodi:rx="36"
       sodipodi:ry="36"
       d="M 81,45 C 81,64.882251 64.882251,81 45,81 25.117749,81 9,64.882251 9,45 9,25.117749 25.117749,9 45,9 64.882251,9 81,25.117749 81,45 z" />
  </g>
  <g
     inkscape:groupmode="layer"
     id="layer2"
     class="circuits"
     inkscape:label="Secondary"
     style="display:inline">
    <path
       style="fill:#000000"
       d=""
       id="path4374"
       inkscape:connector-curvature="0" />
    <path
       style="fill:#000000"
       d=""
       id="path4372"
       inkscape:connector-curvature="0" />
    <path
       style="fill:#808080;fill-opacity:1;display:inline"
       d="m 37.375,12.875 -25.3125,24.75 c -0.473336,2.130092 -0.761506,4.331704 -0.8125,6.59375 l 27.625,-26.9375 2.90625,-0.125 2.90625,-0.125 3.96875,3.9375 4,3.90625 1.5,-1.46875 1.5,-1.46875 -4.625,-4.53125 -4.625,-4.53125 -4.53125,0 -4.5,0 z m 25.4375,3.4375 C 62.729266,18.300191 63.940864,21.391157 66,22 c 1.327401,0.335868 2.485537,0.273187 3.53125,-0.1875 -1.988771,-2.104012 -4.247494,-3.963098 -6.71875,-5.5 z m -5.28125,6.25 c -0.831892,0.01822 -1.680112,0.242818 -2.46875,0.71875 -4.42378,2.66968 -2.37584,8.4375 3,8.4375 1.32456,0 1.92771,0.26277 3.09375,1.4375 1.42403,1.43462 1.52946,1.46875 4.90625,1.46875 l 3.46875,0 5.375,-5.28125 c -0.671261,-1.281527 -1.425483,-2.50996 -2.25,-3.6875 -4.432438,4.304916 -5.10797,4.78125 -6.59375,4.78125 -2.16935,0 -2.98924,-0.7856 -3.3125,-3.28125 C 62.387592,24.3583 60.026925,22.507845 57.53125,22.5625 z M 58,24.78125 c 0.120397,-0.0034 0.207268,0.02307 0.3125,0.0625 0.93851,0.35166 1.38454,2.12291 0.71875,2.90625 -1.00375,1.18098 -3,0.44595 -3,-1.09375 0,-0.86184 1.125969,-1.851125 1.96875,-1.875 z M 34.8125,27.09375 11.59375,49.8125 c 0.234658,1.652831 0.566891,3.246421 1.03125,4.8125 22.326102,-21.777293 24.095847,-23.34375 25.59375,-23.34375 1.32679,0 1.98911,0.32136 3.4375,1.625 1.42566,1.2832 1.72737,1.78345 1.40625,2.34375 -0.64021,1.11707 0.01651,3.32085 1.34375,4.5625 C 48.47481,43.61867 54.91627,39.42358 52.375,34.625 51.07555,32.17128 47.70743,31.43172 44.9375,33 l -1.5625,0.875 1.375,-1.25 1.34375,-1.25 -2.21875,-2.125 -2.21875,-2.15625 -3.4375,0 -3.40625,0 z m 13.09375,7.21875 c 0.248215,-0.05189 0.47305,0.01801 0.75,0.1875 1.034,0.63278 1.17234,2.27895 0.25,2.9375 -0.98375,0.70239 -1.2442,0.67404 -2.0625,-0.125 -0.9049,-0.8836 -0.83769,-1.56644 0.21875,-2.5 0.33705,-0.297845 0.595535,-0.448109 0.84375,-0.5 z m 28.9375,7.40625 c -0.639621,0.04723 -1.299777,0.221203 -1.9375,0.5 -1.93652,0.8466 -3.28382,3.07878 -2.78125,4.625 0.20374,0.62679 -0.13335,1.25836 -1.28125,2.40625 l -1.5625,1.5625 1.0625,0.46875 c 0.57628,0.25638 1.15835,0.83822 1.3125,1.3125 0.37787,1.16252 0.68972,1.10339 2.28125,-0.5 1.15991,-1.16855 1.62865,-1.37405 3.28125,-1.34375 0.394016,0.0072 0.730217,0.04347 1.03125,0.09375 0.253685,-1.459864 0.408464,-2.950344 0.46875,-4.46875 -0.01373,0.03021 -0.01549,0.06438 -0.03125,0.09375 -0.5175,0.96434 -2.36976,0.91635 -2.90625,-0.0625 -0.54205,-0.98899 0.51744,-2.5625 1.71875,-2.5625 0.571503,0 1.037001,0.507461 1.25,1.125 -9.28e-4,-1.028825 -0.0656,-2.057417 -0.15625,-3.0625 -0.362995,-0.10044 -0.737889,-0.166976 -1.125,-0.1875 -0.210145,-0.01114 -0.411793,-0.01574 -0.625,0 z M 38.46875,41.75 c -0.97796,0 -2.34862,0.29578 -3.0625,0.65625 -1.43308,0.72363 -2.7145,3.13822 -2.3125,4.375 C 33.29198,47.39112 30.87164,49.99524 22,58.59375 l -5.1875,5 c 0.820782,1.242407 1.713966,2.442794 2.6875,3.5625 l 6.21875,-6.0625 c 9.03581,-8.81324 10.96846,-10.51463 11.75,-10.3125 1.43115,0.37013 3.88014,-0.58483 4.84375,-1.90625 1.3687,-1.87691 1.14681,-4.01916 -0.59375,-5.71875 C 40.53001,41.9955 39.91959,41.75 38.46875,41.75 z m -0.03125,2.15625 c 0.537054,-0.03959 1.01985,0.239075 1.25,0.84375 0.20329,0.53397 0.27085,1.20595 0.15625,1.5 -0.1146,0.29404 -0.56178,0.73974 -1,0.96875 -0.61347,0.32059 -0.9959,0.20655 -1.6875,-0.46875 -0.80791,-0.7889 -0.83544,-0.96207 -0.28125,-1.78125 0.442625,-0.65428 1.025446,-1.022906 1.5625,-1.0625 z m 9.21875,7.21875 c -2.442732,0.08936 -4.59382,1.984589 -4.71875,4.5 -0.08254,1.66188 -0.47371,2.0997 -11.375,12.75 l -5,4.90625 c 1.204514,0.786465 2.444941,1.494957 3.75,2.125 l 4.875,-4.75 c 9.87346,-9.63547 10.98946,-10.59141 12,-10.34375 2.51444,0.61622 5.84375,-1.97359 5.84375,-4.5625 0,-1.74315 -1.66159,-3.7322 -3.65625,-4.375 -0.572136,-0.184376 -1.155043,-0.270622 -1.71875,-0.25 z m 19.75,0 c -1.279511,-0.0082 -2.573915,0.484245 -3.6875,1.5 -2.3621,2.15459 -1.37792,5.96627 1.90625,7.375 2.31209,0.99176 5.30668,-0.1252 6.53125,-2.4375 0.84489,-1.59539 0.44468,-3.34226 -1.125,-4.875 -1.05445,-1.02962 -2.345489,-1.554316 -3.625,-1.5625 z M 47.625,53.53125 c 0.169263,-0.01797 0.365858,-0.02562 0.59375,0 1.03114,0.11592 1.15625,0.30834 1.15625,1.59375 0,1.26362 -0.13774,1.48523 -1.09375,1.59375 -1.56719,0.17788 -2.39338,-0.87117 -1.75,-2.25 0.28815,-0.617527 0.585962,-0.883596 1.09375,-0.9375 z m 19.6875,0 c 0.330185,-0.06584 0.687772,-0.02371 1.03125,0.1875 0.952,0.58542 1.19738,1.685 0.53125,2.46875 l 0,0.03125 c -0.66567,0.78285 -2.5053,0.7817 -2.8125,0 -0.482152,-1.226895 0.259446,-2.489987 1.25,-2.6875 z M 57.75,60.625 c -2.642587,-0.04866 -5.15625,1.982366 -5.15625,5.09375 0,1.19929 -1.20451,2.54222 -11.34375,12.4375 L 40.90625,78.5 c 1.338451,0.160793 2.711327,0.25 4.09375,0.25 0.562494,0 1.131827,-0.0042 1.6875,-0.03125 8.420976,-8.213041 9.296889,-8.9375 10.75,-8.9375 4.77422,0 7.05478,-4.62509 3.78125,-7.6875 C 60.177794,61.119922 58.951176,60.647121 57.75,60.625 z m 0.25,2.25 c 0.120397,-0.0034 0.207268,-0.0082 0.3125,0.03125 0.93851,0.35166 1.38454,2.12292 0.71875,2.90625 -1.00375,1.18099 -3,0.4772 -3,-1.0625 0,-0.861857 1.125969,-1.851127 1.96875,-1.875 z m 9,7.40625 c -2.193339,0.140959 -3.954975,1.577064 -4.40625,3.53125 1.694174,-1.036187 3.302127,-2.221689 4.78125,-3.53125 -0.124244,9.26e-4 -0.25369,-0.0078 -0.375,0 z"
       id="path4376-1"
       inkscape:connector-curvature="0" />
  </g>
</svg>
