<?xml version="1.0" encoding="UTF-8" standalone="no"?>
<!-- Created with Inkscape (http://www.inkscape.org/) -->

<svg
   xmlns:dc="http://purl.org/dc/elements/1.1/"
   xmlns:cc="http://creativecommons.org/ns#"
   xmlns:rdf="http://www.w3.org/1999/02/22-rdf-syntax-ns#"
   xmlns:svg="http://www.w3.org/2000/svg"
   xmlns="http://www.w3.org/2000/svg"
   xmlns:xlink="http://www.w3.org/1999/xlink"
   xmlns:sodipodi="http://sodipodi.sourceforge.net/DTD/sodipodi-0.dtd"
   xmlns:inkscape="http://www.inkscape.org/namespaces/inkscape"
   width="100%"
   height="100%"
   viewBox="0 0 90 90"
   id="svg2"
   version="1.1"
   inkscape:version="0.48.4 r9939"
   sodipodi:docname="C:\git\dougrich.net\token-builder\token-builder-content\template.svg"
   class="cute-bob"
   data-z="900"
   data-slots="hair">
  <defs
     id="defs4">
    <radialGradient
       inkscape:collect="always"
       xlink:href="#linearGradient6505"
       id="radialGradient6638"
       gradientUnits="userSpaceOnUse"
       gradientTransform="matrix(2.4753968,1.2690783e-6,-6.6898655e-7,1.2249124,421.96436,1190.0235)"
       cx="-225"
       cy="152.1223"
       fx="-225"
       fy="152.1223"
       r="25.450468" />
    <linearGradient
       id="linearGradient6505">
      <stop
         id="stop6507"
         offset="0"
         style="stop-color:#000000;stop-opacity:0;" />
      <stop
         style="stop-color:#000000;stop-opacity:0;"
         offset="0.28869519"
         id="stop6509" />
      <stop
         id="stop6511"
         offset="1"
         style="stop-color:#808080;stop-opacity:1;" />
    </linearGradient>
  </defs>
  <sodipodi:namedview
     id="base"
     pagecolor="#ffffff"
     bordercolor="#666666"
     borderopacity="1.0"
     inkscape:pageopacity="0.0"
     inkscape:pageshadow="2"
     inkscape:zoom="0.72092901"
     inkscape:cx="-135.66267"
     inkscape:cy="63.138865"
     inkscape:document-units="in"
     inkscape:current-layer="layer1"
     showgrid="false"
     units="in"
     inkscape:window-width="1920"
     inkscape:window-height="1003"
     inkscape:window-x="-9"
     inkscape:window-y="-9"
     inkscape:window-maximized="1">
    <inkscape:grid
       type="xygrid"
       id="grid2994"
       empspacing="5"
       visible="true"
       enabled="true"
       snapvisiblegridlinesonly="true"
       units="in"
       spacingx="0.014in"
       spacingy="0.014in" />
  </sodipodi:namedview>
  <metadata
     id="metadata7">
    <rdf:RDF>
      <cc:Work
         rdf:about="">
        <dc:format>image/svg+xml</dc:format>
        <dc:type
           rdf:resource="http://purl.org/dc/dcmitype/StillImage" />
        <dc:title></dc:title>
      </cc:Work>
    </rdf:RDF>
  </metadata>
  <g
     inkscape:label="Body"
     inkscape:groupmode="layer"
     id="layer1"
     class="hair"
     transform="translate(0,-962.35975)"
     style="display:inline">
    <path
       style="fill:#ffffff;fill-opacity:1;stroke:#000000;stroke-width:4.5;stroke-linecap:butt;stroke-linejoin:miter;stroke-miterlimit:4;stroke-opacity:1;stroke-dasharray:none;display:inline"
       d="m 45,971.3598 c -18.79733,0 -34.21551,14.4071 -35.84375,32.7812 -1.85079,4.6869 -2.21674,9.0158 -5.55625,12.2188 0.9269,0.8193 1.0378,0.8352 1.80625,1.8125 -0.33799,1.1214 0.24604,1.9561 -1.8125,3.5937 1.62267,1.5813 2.49729,0.3291 3.59375,0 0.0667,1.8667 -0.71985,2.8552 -1.78125,3.5938 0.99937,0.9028 4.02844,0.8001 5.40625,0 l 1.96875,-1.9688 C 10.37153,1018.5596 9,1013.1256 9,1007.3598 c 1.09155,-1.3235 2.13753,-2.4418 3.59375,-5.4063 5.16256,0.6095 8.91699,-2.3013 12.59375,-5.4062 l -1.78125,3.625 c 5.55057,-0.2286 10.09365,-3.3884 14.40625,-7.2188 L 36,996.5473 c 4.62594,-0.03 9.40196,-1.5613 14.40625,-5.375 l -1.8125,3.5937 c 4.61535,0.7259 7.66577,-2.4606 10.8125,-5.4062 4.36694,8.402 10.989,14.8906 21.59375,18 0,-19.8823 -16.11775,-36 -36,-36 z m 36.0625,32.75 c 0.0958,1.0704 0.15625,2.1546 0.15625,3.25 0,5.7658 -1.37153,11.1998 -3.78125,16.0312 l 1.96875,1.9688 c 1.37781,0.8001 4.40688,0.9028 5.40625,0 -1.0614,-0.7386 -1.84795,-1.7271 -1.78125,-3.5938 1.09646,0.3291 1.97108,1.5813 3.59375,0 -2.05854,-1.6376 -1.47451,-2.4723 -1.8125,-3.5937 0.8113,-1.1093 0.6606,-0.9932 1.5875,-1.8125 -3.3459,-3.2092 -3.48428,-7.5528 -5.3375,-12.25 z"
       id="path5513"
       inkscape:connector-curvature="0"
       sodipodi:nodetypes="sccccccccccccccccccscscccccccc" />
  </g>
</svg>
