<!--?xml version="1.0" encoding="UTF-8" standalone="no"?--><!-- Created with Inkscape (http://www.inkscape.org/) --><svg xmlns:dc="http://purl.org/dc/elements/1.1/" xmlns:cc="http://creativecommons.org/ns#" xmlns:rdf="http://www.w3.org/1999/02/22-rdf-syntax-ns#" xmlns:svg="http://www.w3.org/2000/svg" xmlns="http://www.w3.org/2000/svg" xmlns:sodipodi="http://sodipodi.sourceforge.net/DTD/sodipodi-0.dtd" xmlns:inkscape="http://www.inkscape.org/namespaces/inkscape" width="100%" height="100%" viewBox="0 0 90 90" id="svg2" version="1.1" inkscape:version="0.48.4 r9939" sodipodi:docname="cyborg2.svg" class="cyborg2" data-z="100" data-slots="body" data-tags="body,modern">
  <defs id="defs4"/>
  <sodipodi:namedview id="base" pagecolor="#ffffff" bordercolor="#666666" borderopacity="1.0" inkscape:pageopacity="0.0" inkscape:pageshadow="2" inkscape:zoom="7.9824051" inkscape:cx="16.967748" inkscape:cy="38.843113" inkscape:document-units="in" inkscape:current-layer="layer1" showgrid="true" units="in" inkscape:window-width="1918" inkscape:window-height="1030" inkscape:window-x="0" inkscape:window-y="24" inkscape:window-maximized="0">
    <inkscape:grid type="xygrid" id="grid2994" empspacing="5" visible="true" enabled="true" snapvisiblegridlinesonly="true" units="in" spacingx="0.014in" spacingy="0.014in"/>
  </sodipodi:namedview>
  <metadata id="metadata7">
    <rdf:rdf>
      <cc:work rdf:about="">
        <dc:format>image/svg+xml</dc:format>
        <dc:type rdf:resource="http://purl.org/dc/dcmitype/StillImage"/>
        <dc:title/>
      </cc:work>
    </rdf:rdf>
  </metadata>
  <g inkscape:label="Background Body" inkscape:groupmode="layer" id="layer1" class="body" transform="translate(0,-962.35975)" style="display:inline" sodipodi:insensitive="true">
    <path inkscape:connector-curvature="0" style="fill:#4b4b4b;fill-opacity:1;fill-rule:nonzero;stroke:#000000;stroke-width:4.46456671px;stroke-linecap:round;stroke-linejoin:miter;stroke-miterlimit:4;stroke-opacity:1;stroke-dasharray:none" d="m 80.982281,1007.3775 c 0,19.8779 -16.122046,36 -35.999999,36 -19.913385,0 -35.9999986,-16.1221 -35.9999986,-36 0,-19.91342 16.0866136,-36.03546 35.9645656,-36.03546 19.913386,0 36.035432,16.12204 36.035432,35.99996 z" id="path3133"/>
  </g>
  <g style="display:inline" transform="translate(0,-962.35975)" class="right" id="g3759" inkscape:groupmode="layer" inkscape:label="Right Plate" sodipodi:insensitive="true">
    <path style="fill:#ffffff;fill-opacity:1;fill-rule:nonzero;stroke:#000000;stroke-width:4.46456671px;stroke-linecap:round;stroke-linejoin:miter;stroke-miterlimit:4;stroke-opacity:1;stroke-dasharray:none" d="m 44.9375,8.96875 c -7.607236,0 -14.629935,2.374992 -20.4375,6.40625 L 47.875,54.71875 54.1875,49.6875 61.75,61.03125 55.4375,66.0625 63,76.125 l 0.03125,0.03125 c 10.728539,-6.233722 17.9375,-17.826693 17.9375,-31.125 l 0,-0.0625 c 0,-19.87792 -16.117864,-36 -36.03125,-36 z" transform="translate(0,962.35975)" id="path3761" inkscape:connector-curvature="0"/>
  </g>
  <g style="display:inline" transform="translate(0,-962.35975)" class="left" id="g3752" inkscape:groupmode="layer" inkscape:label="Top Left Plate" sodipodi:insensitive="true">
    <path style="fill:#b4b4b4;fill-opacity:1;fill-rule:nonzero;stroke:#000000;stroke-width:4.46456671px;stroke-linecap:round;stroke-linejoin:miter;stroke-miterlimit:4;stroke-opacity:1;stroke-dasharray:none" d="m 44.9375,8.96875 c -19.877952,0 -35.96875,16.14908 -35.96875,36.0625 0,3.364908 0.4812849,6.597825 1.34375,9.6875 l 1.03125,0 20.15625,0 22.6875,-16.375 0,-28.15625 C 51.240868,9.409804 48.129799,8.96875 44.9375,8.96875 z" transform="translate(0,962.35975)" id="path3754" inkscape:connector-curvature="0"/>
  </g>
</svg>
