<?xml version="1.0" encoding="UTF-8" standalone="no"?>
<!-- Created with Inkscape (http://www.inkscape.org/) -->

<svg
   xmlns:dc="http://purl.org/dc/elements/1.1/"
   xmlns:cc="http://creativecommons.org/ns#"
   xmlns:rdf="http://www.w3.org/1999/02/22-rdf-syntax-ns#"
   xmlns:svg="http://www.w3.org/2000/svg"
   xmlns="http://www.w3.org/2000/svg"
   xmlns:sodipodi="http://sodipodi.sourceforge.net/DTD/sodipodi-0.dtd"
   xmlns:inkscape="http://www.inkscape.org/namespaces/inkscape"
   width="100%"
   height="100%"
   viewBox="0 0 90 90"
   id="svg2"
   version="1.1"
   inkscape:version="0.48.4 r9939"
   sodipodi:docname="Cyborg.svg"
   class="cyborg1"
   data-z="100"
   data-slots="body">
  <metadata
     id="metadata10">
    <rdf:RDF>
      <cc:Work
         rdf:about="">
        <dc:format>image/svg+xml</dc:format>
        <dc:type
           rdf:resource="http://purl.org/dc/dcmitype/StillImage" />
      </cc:Work>
    </rdf:RDF>
  </metadata>
  <sodipodi:namedview
     pagecolor="#ffffff"
     bordercolor="#666666"
     borderopacity="1"
     objecttolerance="10"
     gridtolerance="10"
     guidetolerance="10"
     inkscape:pageopacity="0"
     inkscape:pageshadow="2"
     inkscape:window-width="1918"
     inkscape:window-height="1030"
     id="namedview8"
     showgrid="false"
     inkscape:zoom="2.6222222"
     inkscape:cx="-22.5"
     inkscape:cy="45"
     inkscape:window-x="0"
     inkscape:window-y="24"
     inkscape:window-maximized="0"
     inkscape:current-layer="svg2" />
  <defs
     id="defs4" />
  <g
     inkscape:label="Primary"
     inkscape:groupmode="layer"
     id="layer1"
     transform="translate(0,-962.35975)"
     sodipodi:insensitive="true"
     class="body">
    <circle
       transform="translate(0,962.35975)"
       style="fill:#ffffff;fill-opacity:1;stroke:#000000;stroke-width:4.5;stroke-miterlimit:4;stroke-opacity:1;stroke-dasharray:none;stroke-dashoffset:0"
       cx="45"
       cy="45"
       r="36"
       id="circle2990-7"
       sodipodi:cx="45"
       sodipodi:cy="45"
       sodipodi:rx="36"
       sodipodi:ry="36"
       d="M 81,45 C 81,64.882251 64.882251,81 45,81 25.117749,81 9,64.882251 9,45 9,25.117749 25.117749,9 45,9 64.882251,9 81,25.117749 81,45 z" />
  </g>
  <g
     inkscape:groupmode="layer"
     id="layer2"
     inkscape:label="Secondary"
     sodipodi:insensitive="true"
     class="plate">
    <path
       style="fill:#b4b4b4;fill-opacity:1;stroke:#000000;stroke-width:4.5;stroke-miterlimit:4;stroke-opacity:1;stroke-dasharray:none;stroke-dashoffset:0"
       d="M 15.0625,25 C 11.233675,30.720254 9,37.599713 9,45 9,57.481964 15.351724,68.479472 25,74.9375 L 25,65 l -5,0 0,-5 10,0 0,-10 -10,0 0,-5 0,-5 10,0 0,-15 -14.9375,0 z"
       id="circle2990-0"
       inkscape:connector-curvature="0" />
  </g>
</svg>
