<?xml version="1.0" encoding="UTF-8" standalone="no"?>
<!-- Created with Inkscape (http://www.inkscape.org/) -->

<svg
   xmlns:dc="http://purl.org/dc/elements/1.1/"
   xmlns:cc="http://creativecommons.org/ns#"
   xmlns:rdf="http://www.w3.org/1999/02/22-rdf-syntax-ns#"
   xmlns:svg="http://www.w3.org/2000/svg"
   xmlns="http://www.w3.org/2000/svg"
   xmlns:xlink="http://www.w3.org/1999/xlink"
   xmlns:sodipodi="http://sodipodi.sourceforge.net/DTD/sodipodi-0.dtd"
   xmlns:inkscape="http://www.inkscape.org/namespaces/inkscape"
   width="100%"
   height="100%"
   viewBox="0 0 90 90"
   id="svg2"
   version="1.1"
   inkscape:version="0.48.4 r9939"
   sodipodi:docname="C:\git\dougrich.net\token-builder\token-builder-content\template.svg"
   class="deep-dress"
   data-z="500"
   data-slots="clothing">
  <defs
     id="defs4">
    <linearGradient
       id="linearGradient5737">
      <stop
         style="stop-color:#000000;stop-opacity:1;"
         offset="0"
         id="stop5739" />
      <stop
         style="stop-color:#000000;stop-opacity:0;"
         offset="1"
         id="stop5741" />
    </linearGradient>
    <linearGradient
       inkscape:collect="always"
       xlink:href="#linearGradient5728"
       id="linearGradient5734"
       x1="945"
       y1="310.2579"
       x2="945"
       y2="388.79999"
       gradientUnits="userSpaceOnUse" />
    <linearGradient
       inkscape:collect="always"
       id="linearGradient5728">
      <stop
         style="stop-color:#000000;stop-opacity:1;"
         offset="0"
         id="stop5730" />
      <stop
         style="stop-color:#000000;stop-opacity:0;"
         offset="1"
         id="stop5732" />
    </linearGradient>
  </defs>
  <sodipodi:namedview
     id="base"
     pagecolor="#ffffff"
     bordercolor="#666666"
     borderopacity="1.0"
     inkscape:pageopacity="0.0"
     inkscape:pageshadow="2"
     inkscape:zoom="0.99780064"
     inkscape:cx="622.81693"
     inkscape:cy="-31.311182"
     inkscape:document-units="in"
     inkscape:current-layer="layer1"
     showgrid="false"
     units="in"
     inkscape:window-width="1920"
     inkscape:window-height="511"
     inkscape:window-x="-9"
     inkscape:window-y="-9"
     inkscape:window-maximized="1">
    <inkscape:grid
       type="xygrid"
       id="grid2994"
       empspacing="5"
       visible="true"
       enabled="true"
       snapvisiblegridlinesonly="true"
       units="in"
       spacingx="0.014in"
       spacingy="0.014in" />
  </sodipodi:namedview>
  <metadata
     id="metadata7">
    <rdf:RDF>
      <cc:Work
         rdf:about="">
        <dc:format>image/svg+xml</dc:format>
        <dc:type
           rdf:resource="http://purl.org/dc/dcmitype/StillImage" />
        <dc:title></dc:title>
      </cc:Work>
    </rdf:RDF>
  </metadata>
  <g
     inkscape:label="Body"
     inkscape:groupmode="layer"
     id="layer1"
     class="dress"
     transform="translate(0,-962.35975)"
     style="display:inline">
    <path
       style="fill:#ffffff;fill-opacity:1;stroke:#000000;stroke-width:4.5;stroke-linecap:round;stroke-miterlimit:4;stroke-opacity:1;stroke-dasharray:none;stroke-dashoffset:0;display:inline"
       d="m 9.1875,1011.141 c 0.853,8.1858 4.4695,15.5384 9.875,21.1563 1.7727,2.7873 3.0419,6.1033 2.5312,9.25 -0.4805,2.9612 -5.6189,4.2263 -5.4062,7.2187 0.06,0.8464 0.9867,1.5863 1.8125,1.7813 3.6932,0.8718 7.0194,-3.7053 10.8125,-3.5938 3.2297,0.095 5.7919,3.2092 9,3.5938 4.2125,0.5049 2.9465,-3.6178 7.1875,-3.5 4.241,-0.1177 2.975,4.005 7.1875,3.5 3.2081,-0.3846 5.7703,-3.4988 9,-3.5938 3.7931,-0.1115 7.1193,4.4657 10.8125,3.5938 0.8258,-0.1949 1.7523,-0.935 1.8125,-1.7813 0.2127,-2.9925 -4.9257,-4.2575 -5.4062,-7.2187 -0.5107,-3.1467 0.7585,-6.4627 2.5312,-9.25 5.4055,-5.6179 9.022,-12.9705 9.875,-21.1563 -5.0327,2.4086 -14.7356,4.2219 -26.5,4.9063 L 54,1016.3598 c 0,0 1.8,14.4 -9,14.4 -10.8,0 -9,-14.4 -9,-14.4 l -0.3125,-0.3125 c -11.7644,-0.6844 -21.4673,-2.4977 -26.5,-4.9063 z"
       id="path3829-1-5-74-4-9-9"
       inkscape:connector-curvature="0"
       sodipodi:nodetypes="ccscssscscccscccczccc" />
    <path
       style="fill:none;stroke:#000000;stroke-width:2.25;stroke-linecap:butt;stroke-linejoin:miter;stroke-miterlimit:4;stroke-opacity:1;stroke-dasharray:none;display:inline"
       d="m 45,1030.7598 0,-10.8"
       id="path6200"
       inkscape:connector-curvature="0"
       sodipodi:nodetypes="cc" />
  </g>
</svg>
