<?xml version="1.0" encoding="UTF-8" standalone="no"?>
<!-- Created with Inkscape (http://www.inkscape.org/) -->

<svg
   xmlns:dc="http://purl.org/dc/elements/1.1/"
   xmlns:cc="http://creativecommons.org/ns#"
   xmlns:rdf="http://www.w3.org/1999/02/22-rdf-syntax-ns#"
   xmlns:svg="http://www.w3.org/2000/svg"
   xmlns="http://www.w3.org/2000/svg"
   xmlns:sodipodi="http://sodipodi.sourceforge.net/DTD/sodipodi-0.dtd"
   xmlns:inkscape="http://www.inkscape.org/namespaces/inkscape"
   width="100%"
   height="100%"
   viewBox="0 0 90 90"
   id="svg2"
   version="1.1"
   inkscape:version="0.48.4 r9939"
   sodipodi:docname="Dragon Wings.svg"
   class="dragon-wings">
  <metadata
     id="metadata16">
    <rdf:RDF>
      <cc:Work
         rdf:about="">
        <dc:format>image/svg+xml</dc:format>
        <dc:type
           rdf:resource="http://purl.org/dc/dcmitype/StillImage" />
      </cc:Work>
    </rdf:RDF>
  </metadata>
  <sodipodi:namedview
     pagecolor="#ffffff"
     bordercolor="#666666"
     borderopacity="1"
     objecttolerance="10"
     gridtolerance="10"
     guidetolerance="10"
     inkscape:pageopacity="0"
     inkscape:pageshadow="2"
     inkscape:window-width="1918"
     inkscape:window-height="1030"
     id="namedview14"
     showgrid="false"
     inkscape:zoom="7.4167645"
     inkscape:cx="38.70286"
     inkscape:cy="50.982624"
     inkscape:window-x="0"
     inkscape:window-y="24"
     inkscape:window-maximized="0"
     inkscape:current-layer="layer1" />
  <defs
     id="defs4" />
  <g
     inkscape:label="Primary"
     inkscape:groupmode="layer"
     id="layer1"
     transform="translate(0,-962.35975)"
     style="display:inline"
     class="wings">
    <path
       id="path3805-1"
       style="fill:#ffffff;fill-opacity:1;stroke:none;display:inline"
       d="M 6.9542964,1038.4998 C 5.7227441,1032.6198 2.212993,1020.1322 2.52,1010.7798 2.8592049,1000.4464 3.9593988,989.32056 9.4174011,980.53975 13.28294,974.32089 18.9,969.19975 26.46,966.67975 c -2.719312,8.80011 -3.353452,13.7606 -1.26,20.16 1.019909,3.11772 6.3,7.56 6.3,7.56 0.346826,-4.45835 1.17702,-6.48181 3.78,-7.56 1.227057,-0.50826 2.937963,0.23288 3.78,1.26 2.14678,2.61865 1.655972,6.71708 1.26,10.08 -0.419635,3.56385 -3.78,10.08005 -3.78,10.08005 l -3.78,-3.78 c 0,0 -3.442215,-3.5075 -5.04,-2.52 -2.500934,1.5456 0,8.82 0,8.82 0,0 -6.7411,-2.0789 -8.82,0 -4.157811,4.1577 0,17.64 0,17.64 0,0 -6.511126,-8.0213 -10.08,-6.3 -4.9497007,2.3872 -1.8657036,16.38 -1.8657036,16.38 z"
       inkscape:connector-curvature="0"
       sodipodi:nodetypes="csscscsssccacacac" />
    <path
       id="path3805"
       transform="translate(0,962.35975)"
       style="fill:none;stroke:#000000;stroke-width:4.5;stroke-linecap:round;stroke-linejoin:miter;stroke-miterlimit:4;stroke-opacity:1;stroke-dasharray:none"
       d="m 26.46,4.32 c 0,0 -5.960531,12.863311 -6.3,17.64 -0.480081,6.755259 0.158531,12.552759 2.52,18.9 1.056081,2.838572 5.04,7.56 5.04,7.56 M 26.46,4.32 c 0,0 -9.266769,9.428523 -11.34,15.12 -2.603472,7.147107 -2.987833,18.867877 -2.52,26.46 0.557631,9.049389 7.56,22.68 7.56,22.68 M 6.9542964,76.14005 C 5.7227441,70.26005 2.212993,57.77245 2.52,48.42005 2.8592049,38.08665 3.9593988,26.96081 9.4174011,18.18 13.28294,11.96114 18.9,6.84 26.46,4.32 c -2.719312,8.80011 -3.353452,13.7606 -1.26,20.16 1.019909,3.11772 6.3,7.56 6.3,7.56 0.346826,-4.45835 1.17702,-6.48181 3.78,-7.56 1.227057,-0.508264 2.937963,0.232881 3.78,1.26 2.14678,2.618651 1.655972,6.717084 1.26,10.08 -0.419635,3.563877 -3.78,10.08005 -3.78,10.08005 l -3.78,-3.78"
       inkscape:connector-curvature="0"
       sodipodi:nodetypes="cssccssccsscscssscc"
       class="ignored" />
    <path
       id="path3805-1-7"
       style="fill:#ffffff;fill-opacity:1;stroke:none;display:inline"
       d="m 82.815964,1038.4998 c 1.231552,-5.88 4.741303,-18.3676 4.434296,-27.72 -0.339205,-10.3334 -1.439399,-21.45924 -6.897401,-30.24005 -3.865539,-6.21886 -9.482599,-11.34 -17.042599,-13.86 2.719312,8.80011 3.353452,13.7606 1.26,20.16 -1.019909,3.11772 -6.3,7.56 -6.3,7.56 -0.346826,-4.45835 -1.17702,-6.48181 -3.78,-7.56 -1.227057,-0.50826 -2.937963,0.23288 -3.78,1.26 -2.14678,2.61865 -1.655972,6.71708 -1.26,10.08 0.419635,3.56385 3.78,10.08005 3.78,10.08005 l 3.78,-3.78 c 0,0 3.442215,-3.5075 5.04,-2.52 2.500934,1.5456 0,8.82 0,8.82 0,0 6.7411,-2.0789 8.82,0 4.157811,4.1577 0,17.64 0,17.64 0,0 6.511126,-8.0213 10.08,-6.3 4.949701,2.3872 1.865704,16.38 1.865704,16.38 z"
       inkscape:connector-curvature="0"
       sodipodi:nodetypes="csscscsssccacacac" />
    <path
       id="path3805-4"
       style="fill:none;stroke:#000000;stroke-width:4.5;stroke-linecap:round;stroke-linejoin:miter;stroke-miterlimit:4;stroke-opacity:1;stroke-dasharray:none;display:inline"
       d="m 63.31026,966.67975 c 0,0 5.960531,12.86331 6.3,17.64 0.480081,6.75526 -0.158531,12.55276 -2.52,18.90005 -1.056081,2.8385 -5.04,7.56 -5.04,7.56 m 1.26,-44.10005 c 0,0 9.266769,9.42852 11.34,15.12 2.603472,7.14711 2.987833,18.86785 2.52,26.46005 -0.557631,9.0493 -7.56,22.68 -7.56,22.68 m 13.205704,7.56 c 1.231552,-5.88 4.741303,-18.3676 4.434296,-27.72 -0.339205,-10.3334 -1.439399,-21.45924 -6.897401,-30.24005 -3.865539,-6.21886 -9.482599,-11.34 -17.042599,-13.86 2.719312,8.80011 3.353452,13.7606 1.26,20.16 -1.019909,3.11772 -6.3,7.56 -6.3,7.56 -0.346826,-4.45835 -1.17702,-6.48181 -3.78,-7.56 -1.227057,-0.50826 -2.937963,0.23288 -3.78,1.26 -2.14678,2.61865 -1.655972,6.71708 -1.26,10.08 0.419635,3.56385 3.78,10.08005 3.78,10.08005 l 3.78,-3.78"
       inkscape:connector-curvature="0"
       sodipodi:nodetypes="cssccssccsscscssscc"
       class="ignored" />
    <path
       id="path3805-1-5"
       style="fill:none;stroke:#000000;stroke-width:2.25;stroke-miterlimit:4;stroke-opacity:1;stroke-dasharray:none;display:inline"
       d="m 36.54,1008.2598 -3.78,-3.78 c 0,0 -3.442215,-3.5075 -5.04,-2.52 -2.500934,1.5456 0,8.82 0,8.82 0,0 -6.7411,-2.0789 -8.82,0 -4.157811,4.1577 0,17.64 0,17.64 0,0 -6.511126,-8.0213 -10.08,-6.3 -4.9497007,2.3872 -1.8657036,16.38 -1.8657036,16.38"
       inkscape:connector-curvature="0"
       sodipodi:nodetypes="ccacacac"
       class="ignored" />
    <path
       id="path3805-1-7-5"
       style="fill:none;stroke:#000000;stroke-width:2.25;stroke-miterlimit:4;stroke-opacity:1;stroke-dasharray:none;display:inline"
       d="m 53.23026,1008.2598 3.78,-3.78 c 0,0 3.442215,-3.5075 5.04,-2.52 2.500934,1.5456 0,8.82 0,8.82 0,0 6.7411,-2.0789 8.82,0 4.157811,4.1577 0,17.64 0,17.64 0,0 6.511126,-8.0213 10.08,-6.3 4.949701,2.3872 1.865704,16.38 1.865704,16.38"
       inkscape:connector-curvature="0"
       sodipodi:nodetypes="ccacacac"
       class="ignored" />
  </g>
  <g
     inkscape:groupmode="layer"
     id="layer2"
     inkscape:label="Secondary"
     style="display:inline"
     sodipodi:insensitive="true"
     class="spikes">
    <path
       style="fill:#b4b4b4;fill-opacity:1;stroke:#000000;stroke-width:2.25;stroke-linecap:butt;stroke-linejoin:miter;stroke-miterlimit:4;stroke-opacity:1;stroke-dasharray:none"
       d="m 18.9,8.1 c 0,0 0.182543,3.003413 1.26,3.78 1.362887,0.982313 5.04,0 5.04,0 0,0 0.888664,-2.50481 1.26,-3.78 0.484163,-1.6626443 1.26,-5.04 1.26,-5.04 0,0 -2.603546,0.6435936 -3.78,1.26 C 22.079863,5.294624 18.9,8.1 18.9,8.1 z"
       id="path3849"
       inkscape:connector-curvature="0"
       sodipodi:nodetypes="cacacac" />
    <path
       style="fill:#b4b4b4;fill-opacity:1;stroke:#000000;stroke-width:2.25;stroke-linecap:butt;stroke-linejoin:miter;stroke-miterlimit:4;stroke-opacity:1;stroke-dasharray:none;display:inline"
       d="m 71.190608,8.1 c 0,0 -0.182543,3.003413 -1.26,3.78 -1.362887,0.982313 -5.04,0 -5.04,0 0,0 -0.888664,-2.50481 -1.26,-3.78 -0.484163,-1.6626443 -1.26,-5.04 -1.26,-5.04 0,0 2.603546,0.6435936 3.78,1.26 1.860137,0.974624 5.04,3.78 5.04,3.78 z"
       id="path3849-0"
       inkscape:connector-curvature="0"
       sodipodi:nodetypes="cacacac" />
  </g>
</svg>
