<?xml version="1.0" encoding="UTF-8" standalone="no"?>
<!-- Created with Inkscape (http://www.inkscape.org/) -->

<svg
   xmlns:dc="http://purl.org/dc/elements/1.1/"
   xmlns:cc="http://creativecommons.org/ns#"
   xmlns:rdf="http://www.w3.org/1999/02/22-rdf-syntax-ns#"
   xmlns:svg="http://www.w3.org/2000/svg"
   xmlns="http://www.w3.org/2000/svg"
   xmlns:sodipodi="http://sodipodi.sourceforge.net/DTD/sodipodi-0.dtd"
   xmlns:inkscape="http://www.inkscape.org/namespaces/inkscape"
   id="svg2"
   class="elf"
   version="1.1"
   inkscape:version="0.48.4 r9939"
   sodipodi:docname="elf.svg"
   width="100%"
   height="100%"
   viewBox="0 0 90 90"
   data-z="100"
   data-slots="body"
   data-tags="body,fantasy">
  <defs
     id="defs4" />
  <sodipodi:namedview
     id="base"
     pagecolor="#ffffff"
     bordercolor="#666666"
     borderopacity="1.0"
     inkscape:pageopacity="0.0"
     inkscape:pageshadow="2"
     inkscape:zoom="2.8222064"
     inkscape:cx="29.049715"
     inkscape:cy="47.302428"
     inkscape:document-units="in"
     inkscape:current-layer="svg2"
     showgrid="true"
     units="in"
     inkscape:window-width="1920"
     inkscape:window-height="1017"
     inkscape:window-x="1912"
     inkscape:window-y="-8"
     inkscape:window-maximized="1">
    <inkscape:grid
       type="xygrid"
       id="grid2994"
       empspacing="5"
       visible="true"
       enabled="true"
       snapvisiblegridlinesonly="true"
       units="in"
       spacingx="0.014in"
       spacingy="0.014in" />
  </sodipodi:namedview>
  <metadata
     id="metadata7">
    <rdf:RDF>
      <cc:Work
         rdf:about="">
        <dc:format>image/svg+xml</dc:format>
        <dc:type
           rdf:resource="http://purl.org/dc/dcmitype/StillImage" />
        <dc:title />
      </cc:Work>
    </rdf:RDF>
  </metadata>
  <g
     inkscape:label="Primary"
     inkscape:groupmode="layer"
     id="layer1"
     transform="translate(0,-962.35975)"
     style="display:inline"
     class="body"
     sodipodi:insensitive="true">
    <path
       inkscape:connector-curvature="0"
       id="path3829-1-7-2"
       d="m 9.112561,971.35971 c -1.8,3.6 -3.02047,9.4955 -3.625,14.4062 -0.7331,5.955 -2.83114,12.7099 0,17.99999 0.54966,1.027 2.05462,1.9532 3.34375,2.6251 -0.009,0.3245 -0.0312,0.6422 -0.0312,0.9688 0,19.8822 16.11775,36 36,36 19.88225,0 36,-16.1178 36,-36 0,-0.2738 0.006,-0.5403 0,-0.8125 1.34455,-0.6733 2.99895,-1.67 3.59375,-2.7814 2.83115,-5.28999 0.7331,-12.04489 0,-17.99999 -0.60458,-4.9107 -1.7938,-10.8062 -3.5938,-14.4062 -1.8,3.6 -2.78877,9.2025 -3.59375,10.8125 -1.0125,2.025 -1.46245,4.5861 -1.65625,6.4687 -6.32132,-10.3585 -17.72705,-17.2812 -30.75,-17.2812 -12.86227,0 -24.13323,6.7599 -30.5,16.9062 -0.21319,-1.8405 -0.64864,-4.2035 -1.59375,-6.0937 -0.80498,-1.61 -1.79375,-7.2125 -3.59375,-10.8125 z"
       style="fill:#ffffff;fill-opacity:1;stroke:#000000;stroke-width:4.5;stroke-linecap:round;stroke-miterlimit:4;stroke-opacity:1;stroke-dasharray:none;stroke-dashoffset:0;display:inline" />
  </g>
</svg>
