<?xml version="1.0" encoding="UTF-8" standalone="no"?>
<!-- Created with Inkscape (http://www.inkscape.org/) -->

<svg
   xmlns:dc="http://purl.org/dc/elements/1.1/"
   xmlns:cc="http://creativecommons.org/ns#"
   xmlns:rdf="http://www.w3.org/1999/02/22-rdf-syntax-ns#"
   xmlns:svg="http://www.w3.org/2000/svg"
   xmlns="http://www.w3.org/2000/svg"
   xmlns:xlink="http://www.w3.org/1999/xlink"
   xmlns:sodipodi="http://sodipodi.sourceforge.net/DTD/sodipodi-0.dtd"
   xmlns:inkscape="http://www.inkscape.org/namespaces/inkscape"
   width="100%"
   height="100%"
   viewBox="0 0 90 90"
   id="svg2"
   version="1.1"
   inkscape:version="0.48.4 r9939"
   sodipodi:docname="fuzzy-shirt.svg"
   class="fuzzy-shirt"
   data-z="500"
   data-slots="clothing">
  <defs
     id="defs4">
    <inkscape:path-effect
       effect="sketch"
       id="path-effect5121-4"
       is_visible="true"
       nbiter_approxstrokes="3"
       strokelength="1"
       strokelength_rdm="0;1"
       strokeoverlap="0.1"
       strokeoverlap_rdm="0;1"
       ends_tolerance="0.9;1"
       parallel_offset="0.9;1"
       tremble_size="1.5;1"
       tremble_frequency="0.01"
       nbtangents="0"
       tgt_places_rdmness="1;1"
       tgtscale="10.5"
       tgtlength="100"
       tgtlength_rdm="0.1;1" />
    <inkscape:path-effect
       effect="sketch"
       id="path-effect5121-7"
       is_visible="true"
       nbiter_approxstrokes="3"
       strokelength="1"
       strokelength_rdm="0;1"
       strokeoverlap="0.1"
       strokeoverlap_rdm="0;1"
       ends_tolerance="0.9;1"
       parallel_offset="0.9;1"
       tremble_size="1.5;1"
       tremble_frequency="0.01"
       nbtangents="0"
       tgt_places_rdmness="1;1"
       tgtscale="10.5"
       tgtlength="100"
       tgtlength_rdm="0.1;1" />
    <inkscape:path-effect
       effect="sketch"
       id="path-effect5257"
       is_visible="true"
       nbiter_approxstrokes="2"
       strokelength="1"
       strokelength_rdm="0.1;1"
       strokeoverlap="0"
       strokeoverlap_rdm="0;1"
       ends_tolerance="0;1"
       parallel_offset="0.8;1"
       tremble_size="0.7;1"
       tremble_frequency="1"
       nbtangents="0"
       tgt_places_rdmness="1;1"
       tgtscale="10"
       tgtlength="100"
       tgtlength_rdm="0.3;1" />
    <linearGradient
       inkscape:collect="always"
       xlink:href="#linearGradient5728-3"
       id="linearGradient5483"
       gradientUnits="userSpaceOnUse"
       x1="945"
       y1="310.2579"
       x2="945"
       y2="388.79999"
       gradientTransform="translate(-1170,962.35973)" />
    <linearGradient
       id="linearGradient5728-3">
      <stop
         style="stop-color:#000000;stop-opacity:1;"
         offset="0"
         id="stop5730-7" />
      <stop
         style="stop-color:#000000;stop-opacity:0;"
         offset="1"
         id="stop5732-3" />
    </linearGradient>
    <inkscape:path-effect
       effect="sketch"
       id="path-effect6957"
       is_visible="true"
       nbiter_approxstrokes="1"
       strokelength="2"
       strokelength_rdm="0.2;1"
       strokeoverlap="0"
       strokeoverlap_rdm="0;1"
       ends_tolerance="0;1"
       parallel_offset="0.1;1"
       tremble_size="0.6;1"
       tremble_frequency="2.51"
       nbtangents="0"
       tgt_places_rdmness="1;1"
       tgtscale="10"
       tgtlength="100"
       tgtlength_rdm="0.3;1" />
  </defs>
  <sodipodi:namedview
     id="base"
     pagecolor="#ffffff"
     bordercolor="#666666"
     borderopacity="1.0"
     inkscape:pageopacity="0.0"
     inkscape:pageshadow="2"
     inkscape:zoom="5.6444128"
     inkscape:cx="112.81378"
     inkscape:cy="-4.0939349"
     inkscape:document-units="in"
     inkscape:current-layer="svg2"
     showgrid="false"
     units="in"
     inkscape:window-width="1920"
     inkscape:window-height="1017"
     inkscape:window-x="-8"
     inkscape:window-y="-8"
     inkscape:window-maximized="1">
    <inkscape:grid
       type="xygrid"
       id="grid2994"
       empspacing="5"
       visible="true"
       enabled="true"
       snapvisiblegridlinesonly="true"
       units="in"
       spacingx="0.014in"
       spacingy="0.014in" />
  </sodipodi:namedview>
  <metadata
     id="metadata7">
    <rdf:RDF>
      <cc:Work
         rdf:about="">
        <dc:format>image/svg+xml</dc:format>
        <dc:type
           rdf:resource="http://purl.org/dc/dcmitype/StillImage" />
        <dc:title />
      </cc:Work>
    </rdf:RDF>
  </metadata>
  <g
     inkscape:label="Body"
     inkscape:groupmode="layer"
     id="layer1"
     class="shirt"
     transform="translate(0,-962.35975)"
     style="display:inline">
    <path
       style="fill:#ffffff;fill-opacity:1;stroke:#000000;stroke-width:0;stroke-linecap:round;stroke-miterlimit:4;stroke-opacity:1;stroke-dasharray:none;stroke-dashoffset:0"
       d="m 9.1875,1011.141 c 1.8869,18.1081 17.2051,32.2188 35.8125,32.2188 18.335,0 33.4743,-13.7119 35.7188,-31.4375 C 75.6,1021.7598 45,1021.7598 45,1021.7598 c 0,0 -30.6,0 -35.8125,-10.6188 z"
       id="path3829-1-5-74-4-9-5-18"
       inkscape:connector-curvature="0"
       sodipodi:nodetypes="csccc" />
    <path
       style="fill:none;stroke:#000000;stroke-width:4.5;stroke-linecap:round;stroke-miterlimit:4;stroke-opacity:1;stroke-dashoffset:0"
       d="m 9.4072759,1011.6417 c 0.1933709,0.1377 0.054327,0.6355 -0.089844,0.7818 0,0 0,0 0,0 -0.1465773,0.1488 -0.074464,0.3887 -0.1867059,0.4894 -0.021945,0.02 -0.024571,0.051 -0.013227,0.092 m -0.1371346,-0.097 c -0.124859,0.1881 0.023365,0.234 0.2466589,0.2775 0,0 0,0 10e-8,0 0.2269288,0.044 0.2703273,0.7019 0.3389058,1.0738 0.00343,0.019 0.00669,0.037 0.00982,0.055 m -0.149337,0.062 c -0.057521,0.1649 0.2794944,0.5091 0.9687078,0.478 0,0 0,0 0,0 0.700175,-0.032 -0.187591,0.8578 -0.5116526,1.5914 -0.031495,0.071 -0.053831,0.1302 -0.067999,0.1782 m -0.2863481,-0.7735 c -0.040565,0.2556 0.386689,0.476 0.8119537,0.5879 0,0 0,0 0,0 0.431874,0.1136 0.221682,0.6018 0.330465,1.0946 0.04798,0.2173 0.06043,0.3751 0.0309,0.5462 m 0.318878,0.3618 c 0.174735,0.3196 0.0029,0.4184 0.06202,0.264 0,0 0,0 0,0 0.06004,-0.1568 0.06206,0.4781 0.06697,0.3738 0.0013,-0.028 0.03162,0 0.08088,0.066 m 0.32751,0.9866 c 0.27721,0.3025 0.281632,0.5483 0.278842,0.6406 0,0 0,0 0,0 -0.0028,0.094 0.115701,0.3849 -0.275151,0.2285 -0.05101,-0.02 -0.08395,-0.029 -0.102708,-0.027 m -0.231464,-0.2434 c 0.24658,0.2854 0.326528,0.8115 0.760266,1.8883 0,0 0,0 0,0 0.440024,1.0924 0.208712,0.2406 0.575023,-0.3535 0.03629,-0.059 0.06557,-0.098 0.08869,-0.119 m -0.173816,0.8621 c 0.127823,0.1324 -0.03976,0.3925 -0.120385,0.6974 0,0 0,0 0,0 -0.08177,0.3092 0.258583,0.4336 0.542655,0.3804 0,0 0,0 0,0 0.007,0 0.01379,0 0.02051,0 m 0.591455,0.5618 c 0.195255,0.3051 0.209715,0.2665 0.391578,-0.094 0,0 0,0 0,0 0.184403,-0.366 0.163105,0.5499 0.08173,0.804 -0.03186,0.099 0.0019,0.2204 0.07666,0.3717 m -0.56134,0.03 c 0.158924,0.2556 0.420706,0.314 1.118534,0.3506 0,0 0,0 0,0 0.707381,0.037 0.131694,0.467 -0.243347,0.8666 -0.139435,0.1485 -0.105781,0.2378 0.02563,0.2935 m 0.452165,0.6066 c 0.195544,0.1717 0.264632,0.3518 0.345622,0.2327 0,0 0,0 0,0 0.08208,-0.1206 0.20595,0.1441 0.353458,0.112 0,0 0,0 0,0 0.03313,-0.01 0.06797,0.019 0.107445,0.068 m -0.189518,0.9867 c 0.168813,0.1345 0.38642,0.015 0.490722,-0.4544 0,0 0,0 0,0 0.105681,-0.4753 0.399554,0.7699 0.825043,1.7478 0,0 0,0 0,0 0.151463,0.3482 0.256052,0.4988 0.342795,0.5564 m 0.362755,-1.1888 c 0.278545,0.3684 0.377873,0.611 0.368484,1.4844 0,0 0,0 0,0 -0.0095,0.8849 0.385737,0.3133 0.762757,0.348 0,0 0,0 0,0 0.09352,0.01 0.152673,0.046 0.189454,0.1033 m -0.184734,0.2344 c 0.231191,0.077 0.347128,0.2433 0.704277,0.4899 0,0 0,0 0,0 0.361719,0.2497 0.328686,0.495 0.702377,0.7713 0,0 0,0 0,0 0.02966,0.022 0.05651,0.043 0.08079,0.063 m -0.918066,-0.1351 c 0.187453,0.2551 0.505578,0.1641 0.999131,-0.2503 0,0 10e-7,0 10e-7,0 0.499776,-0.4197 0.164121,0.2198 0.06675,0.3328 0,0 0,0 0,0 -0.0167,0.019 -0.01258,0.046 0.0073,0.08 m 0.564648,1.0089 c 0.0014,0 0.0029,0.01 0.0044,0.01 0.153011,0.3378 0.549249,0.4371 0.975167,0.6416 0,0 0,0 0,0 0.435366,0.209 0.472072,0.2139 0.748171,0.065 0,0 0,0 0,0 0.105808,-0.057 0.176873,-0.015 0.238981,0.071 m -0.504211,-0.1059 c 0.271601,0.1681 0.144083,0.5455 0.04977,0.9688 -0.09546,0.4284 0.435137,0 0.774248,-0.4309 0,0 0,0 0,0 0.161837,-0.2047 0.279725,-0.1503 0.380128,-10e-4 m 0.77319,0.417 c 0.377384,0.189 0.473947,0.4632 0.559364,1.1396 0.08644,0.6846 0.115856,0.405 -0.241058,0.6543 0,0 0,0 0,0 -0.174498,0.1218 -0.02468,0.1876 0.221068,0.244 m 0.333722,-1.2449 c 0.058,-0.033 0.357753,0.2282 0.703921,0.4933 0.350212,0.2682 0.786702,0.4085 1.488716,0.8706 0,0 0,0 1e-6,0 0.157486,0.1037 0.255109,0.166 0.305296,0.2005 m -0.668985,0.4783 c 0.36287,0.2005 0.508367,0.3746 0.904306,0.4648 0.400463,0.091 0.211973,-0.025 -0.06227,-0.5273 0,0 0,0 0,0 -0.09804,-0.1794 -0.03318,-0.1808 0.115784,-0.08 m 0.319036,0.9862 c 0.08727,0.1867 0.681967,0.1547 1.483096,-0.045 0.810053,-0.2016 0.110696,0.1031 -0.221709,0.2091 0,0 0,0 0,0 -0.142892,0.046 -0.0475,0.1085 0.163214,0.2091 m 1.1692,0.454 c 0.19214,0.1019 0.473981,0.3 0.732935,0.3136 0.261754,0.014 0.324653,0.1227 0.489294,-0.163 0,0 0,0 0,0 0.08042,-0.1396 0.19938,-0.1229 0.307812,-0.05 m 0.09911,-0.107 c 0.08254,0.053 0.574182,0.3046 0.838034,0.345 0.266608,0.041 0.352573,0.5232 0.331339,1.1037 0,0 0,0 0,0 -0.0092,0.2517 0.123691,0.3047 0.321034,0.2637 m 0.05751,-0.7546 c 0.260889,0.078 0.552942,0.1148 0.905816,0.3876 0.356428,0.2757 0.408211,0.043 0.288019,0.022 0,0 0,0 0,0 -0.0615,-0.011 0.143868,0 0.448734,0.04 m 0.612911,-0.3281 c 0.243334,0.035 0.153669,0.1224 -0.295796,0.065 -0.453801,-0.058 0.960809,0.291 1.822454,0.8556 0,0 0,0 0,0 0.300918,0.1971 0.428057,0.2505 0.464294,0.2167 m -0.591912,-0.7661 c 0.184119,-0.082 0.551668,0.1478 0.592276,0.2216 0.04098,0.074 0.658744,0.3907 1.094604,0.8618 0,0 0,0 0,0 0.01832,0.02 0.03633,0.038 0.05402,0.053 m -0.465324,-0.5835 c 0.100758,-0.1209 0.47744,0.396 0.887523,0.9848 0.413713,0.594 0.414611,-0.044 0.434266,-0.3221 0,0 0,0 0,0 0.0061,-0.087 0.07313,-0.1016 0.181951,-0.081 m 0.564556,0 c 0.269948,-0.01 0.438965,-0.085 0.463942,-0.1195 0.02519,-0.035 0.373811,0.1603 0.621121,0.2659 0,0 10e-7,0 10e-7,0 0.02539,0.011 0.05141,0.022 0.07816,0.035 m 0.242203,-0.1441 c 0.169371,-0.1555 0.663046,0.078 1.469131,0.4171 0.812539,0.3423 0.594545,-0.1444 0.974582,-0.3423 0,0 0,0 0,0 0.09694,-0.051 0.156435,-0.064 0.183488,-0.049 m -1.005812,0.5932 c 0.235328,0.024 0.442194,-0.023 0.761854,-0.1134 0.215097,-0.061 0.480971,-0.1415 0.840178,-0.2333 0,0 0,0 0,0 0.907242,-0.2318 0.305158,-0.1875 0.374771,-0.4187 0.03555,-0.118 0.136572,-0.073 0.211745,0.082 m 0.173545,0.6464 c 0.353642,-0.013 0.516156,-0.1675 0.735293,-0.4676 0,0 0,0 0,0 0.222912,-0.3053 0.534394,-0.2091 0.921174,-0.3028 0.0863,-0.021 0.161157,-0.031 0.232262,-0.035 m -0.363488,-0.3828 c 0.160662,-0.04 0.538344,-0.05 0.800814,0 0,0 0,0 0,0 0.266879,0.052 0.487781,0.213 0.964233,0.5868 0.112836,0.089 0.201806,0.1328 0.279293,0.1514 m -0.339488,-0.5193 c 0.227783,-0.017 0.760921,0.042 1.674652,0.4067 0,0 0,0 0,0 0.92869,0.3712 0.483633,-0.115 0.714714,0.028 0.08834,0.055 0.177377,0.06 0.255248,0.043 m 0.119904,-0.2863 c 0.374895,-0.2079 0.188262,-0.062 0.105029,0.045 0,0 0,0 0,0 -0.08456,0.1081 0.66159,-0.072 1.011123,-0.2902 0.148015,-0.092 0.28716,-0.1567 0.444031,-0.2199 m -0.697718,-0.6597 c 0.329506,-0.03 0.499139,-0.1758 0.73941,-0.1681 0,0 0,0 0,0 0.244,0.01 0.730053,-0.07 1.623901,-0.064 0.29583,0 0.439013,-0.013 0.489738,-0.046 m -0.599087,-0.1196 c 0.08343,-0.1591 0.737281,-0.154 1.375169,-0.4088 0,0 0,0 0,0 0.647542,-0.2587 0.405903,0.09 0.45843,0.6978 0.02079,0.2407 0.116131,0.2485 0.248406,0.1474 m 0.146694,-0.7502 c 0.155069,0.089 0.171332,-0.2067 0.111322,-0.3647 0,0 0,0 0,0 -0.0609,-0.1604 0.827831,-0.4304 1.507714,-0.6918 0.03133,-0.012 0.06007,-0.023 0.08634,-0.033 m -0.786699,0.9536 c 0.08605,-0.201 0.464332,-0.4454 0.883461,-0.9917 0,0 0,0 0,0 0.4252,-0.5543 0.538429,-0.1221 0.691908,-0.1812 0.07638,-0.029 0.161309,-0.094 0.251593,-0.1627 m -0.166491,0.064 c 0.26753,-0.041 0.732756,-0.1827 1.542365,-0.3158 0,0 0,0 0,0 0.821071,-0.135 0.165279,-0.2029 0.05847,-0.441 -0.04853,-0.1082 0.07333,-0.1574 0.285604,-0.2043 m 0.568122,0 c 0.197849,-0.1273 0.354029,-0.4496 0.06683,-0.8336 0,0 0,0 0,0 -0.291177,-0.3893 0.35584,-0.3577 0.356145,-0.3426 0,0 0,0 0,0 2.2e-5,0 0.0042,0 0.01221,0 m 0.67323,0.3683 c 0.134319,-0.205 0.577127,-0.1042 0.903906,0.1604 0,0 0,0 0,0 0.331236,0.2681 0.496275,-0.559 0.500899,-0.9968 0.0016,-0.1473 0.04107,-0.203 0.08377,-0.206 m 0.212773,0.4922 c 0.05947,-0.02 0.382273,-0.4649 0.452838,-1.1795 0,0 0,0 0,0 0.07151,-0.7242 0.422348,-0.2022 0.636898,-0.093 0.09196,0.047 0.145386,-0.018 0.180412,-0.1148 m -0.06972,-0.02 c 0.288668,-0.2332 0.534647,-0.4424 1.304571,-0.7693 0,0 0,0 10e-7,0 0.780056,-0.3313 0.111867,-0.3281 -0.111019,-0.6841 0,0 0,0 0,0 -0.02513,-0.04 -0.03717,-0.074 -0.03801,-0.1026 m 0.09035,0.3895 c 0.184078,-0.2836 0.575696,-0.393 1.280573,-0.5145 0.09111,-0.016 0.161816,-0.033 0.216034,-0.052 0.370684,-0.1304 -0.02913,-0.3344 0.05205,-0.5473 0.01213,-0.032 0.02849,-0.062 0.04884,-0.091 m 0.337684,-0.1833 c 0.212205,-0.061 0.115589,-0.2459 -0.123773,-0.3772 0,0 0,0 0,0 -0.24242,-0.133 0.438076,-0.1781 0.767587,0.1283 0.01905,0.018 0.03763,0.032 0.05578,0.043 m -0.342963,-0.5982 c 0.185929,-0.2225 0.506839,-0.3921 1.202214,-0.7574 0,0 0,0 0,0 0.70413,-0.3698 0.07274,-0.4283 -0.05507,-0.9888 0,0 0,0 0,0 -0.04247,-0.1862 -0.01706,-0.2747 0.04542,-0.2955 m 0.01103,1.2625 c 0.03851,-0.053 0.498658,-0.4197 1.042065,-0.7915 0.550134,-0.3764 0.473194,-0.8203 0.804975,-1.5781 0,0 0,0 0,0 0.165515,-0.378 0.194519,-0.4474 0.181589,-0.4297 m -0.05647,0.5571 c 0.245004,-0.096 0.308459,-0.6467 0.58304,-1.0191 0.277915,-0.3769 0.241047,-0.4494 0.151934,-0.6723 0,0 0,0 0,0 -0.03345,-0.084 0.0083,-0.1083 0.09963,-0.084 m -0.362719,0.4244 c 0.02288,-0.1022 0.40817,-0.5048 0.534929,-0.7528 0.128268,-0.2509 0.155007,-0.5543 0.192962,-0.9118 0,0 0,0 0,0 0.01967,-0.1853 0.101176,-0.3251 0.208332,-0.4672 m 0.235271,0.9357 c 0.263857,-0.066 0.234471,-0.6324 0.544802,-1.2473 0.313943,-0.622 0.375523,-0.5129 0.507099,-0.5977 0,0 0,0 0,0 0.05503,-0.035 0.140897,-0.08 0.247369,-0.1223 m 0.370442,-0.4562 c 0.309891,-0.1508 0.18541,-0.5161 0.468783,-0.6043 0.286592,-0.089 0.128871,-0.3908 0.04334,-0.3183 0,0 0,0 0,0 -0.0351,0.03 -0.04071,-0.082 -0.05526,-0.2848 m 0.520602,0.2388 c 0.08769,-0.098 0.153295,-0.8651 -0.02903,-1.8025 -0.184344,-0.9477 0.107982,-0.3075 0.131699,-0.3837 0,0 0,0 0,0 0.0064,-0.02 0.01281,-0.06 0.01828,-0.1049 m 0.504894,0.5727 c -0.01779,-0.4248 0.323803,-0.5214 0.444927,-0.8263 0.122426,-0.3081 0.05233,-0.565 -0.223935,-0.8024 0,0 0,0 0,0 -0.07276,-0.062 -0.08117,-0.1285 -0.05036,-0.1982 m -0.528452,0.4325 c 0.25754,-0.1541 0.36995,-0.4767 1.137556,-0.7482 0.775593,-0.2743 0.01724,-0.7016 -0.233385,-1.3411 0,0 0,0 0,0 -0.04048,-0.1033 -0.06879,-0.1822 -0.08811,-0.2426 m 0.669015,0.5679 c -0.08342,-0.2008 -0.109035,-0.427 -0.474615,-0.7866 -0.369259,-0.3633 0.373093,-0.6929 1.108249,-1.0853 0,0 10e-7,0 10e-7,0 0.354595,-0.1892 0.350494,-0.2961 0.206955,-0.3923 m -0.342295,0.1078 c 0.0834,-0.3094 -0.0595,-0.5779 -0.378115,-0.6676 -0.321684,-0.091 0.143342,-0.7957 0.390711,-1.6023 0,0 0,0 0,0 0.05058,-0.165 0.09494,-0.2756 0.137051,-0.3479 m 0.278787,0.2197 c 0.035,-0.3246 0.06616,-0.2495 0.171801,-0.2957 0.106619,-0.047 -0.209364,-0.6581 -0.678653,-1.2443 0,0 0,0 0,0 -0.101447,-0.1267 -0.149589,-0.2171 -0.157118,-0.2842 m 0.421486,0.3921 c -0.131157,-0.4322 0.112211,-0.3063 0.19614,-0.2325 0.03446,0.03 0.07777,-0.078 0.154418,-0.2639 0.01915,0.024 0.104271,-0.1192 0.334983,-0.2456 0.06548,-0.036 0.09744,-0.046 0.104674,-0.034 m -1.069691,0.5969 c -0.273474,0.3041 -0.271974,0.1256 -0.318929,-0.028 -0.04627,-0.1514 -0.04572,0.5717 0.07404,1.1508 0,0 0,0 0,0 0.0406,0.1962 -0.02672,0.2714 -0.158595,0.2794 m 0.295843,-0.4019 c -0.146175,0.2877 -0.302277,0.4099 -0.606487,0.99 -0.29819,0.5686 -0.630743,0.1742 -1.05611,-0.1093 0,0 0,0 0,0 -0.133461,-0.089 -0.236682,-0.096 -0.331682,-0.058 m -0.550429,1.0267 c -0.05893,0.064 -0.102146,0.096 -0.130321,0.1028 -0.111817,0.027 0.01391,-0.3539 0.328878,-0.7331 0.387508,-0.4666 -0.417259,0.4109 -0.720605,0.624 0,0 0,0 0,0 -0.130795,0.092 -0.307152,0.1726 -0.524465,0.2605 m 0.201161,0.5798 c -0.349379,0.2342 -0.592383,-0.029 -1.246755,-0.1677 -0.646257,-0.1374 -0.54893,0.5788 -0.734469,1.2267 0,0 0,0 0,0 -0.02315,0.081 -0.05051,0.1405 -0.0812,0.1815 m 0.200781,-1.2906 c -0.372929,0.15 -0.342475,0.5209 -0.347595,1.1952 -0.0051,0.669 -0.495136,0.1033 -0.844573,0.046 -10e-7,0 -10e-7,0 -10e-7,0 -0.02541,0 -0.04834,-0.01 -0.06903,-0.01 m 0.03546,-0.3404 c -0.126694,0.039 -0.22083,0.086 -0.296967,0.1443 -0.179225,0.1367 -0.257719,0.3366 -0.435928,0.6589 -0.252899,0.4574 -0.581404,0.1729 -0.947966,0.5332 -10e-7,0 -10e-7,0 -10e-7,0 -0.138323,0.1359 -0.224349,0.178 -0.263394,0.1692 m -0.288178,-0.192 c -0.337684,0.012 -0.623152,0.1516 -0.843779,0.094 -0.220661,-0.057 -0.362469,0.2243 -0.279951,0.6007 0,0 0,0 0,0 0.0054,0.025 0.0084,0.045 0.0093,0.061 m -0.516248,-1.1654 c -0.181216,0.051 -0.414286,0.3939 -0.380192,0.9414 0.03421,0.5493 -0.426644,0.023 -0.709192,-0.4049 0,0 0,0 0,0 -0.03832,-0.058 -0.07101,-0.092 -0.09884,-0.1056 m 0.07257,0.3219 c -0.23157,0.054 -0.338367,0.181 -0.337901,0.4616 4.7e-4,0.2826 -0.771622,-0.05 -1.830602,-0.2312 0,0 0,0 0,0 -0.05277,-0.01 -0.101503,-0.016 -0.146491,-0.022 m 0.451914,0.9972 c -0.144625,0.1766 -0.658696,0.062 -1.171323,0.024 -0.51752,-0.039 -0.105313,-0.2264 0.152605,-0.71 0,0 0,0 0,0 0.0457,-0.086 0.06157,-0.1245 0.05516,-0.1265 m -0.07682,0.8514 c -0.185497,0.039 -0.709124,0.062 -1.412827,-0.1451 0,0 0,0 0,0 -0.712596,-0.2097 -0.577469,-0.017 -1.172845,0.073 0,0 0,0 0,0 -0.08233,0.012 -0.146624,0.026 -0.195223,0.041 m 0.739885,-0.2238 c -0.177736,0.05 -0.395405,0.039 -0.450454,0.081 0,0 0,0 0,0 -0.05592,0.042 -0.576498,0.2118 -0.791242,0.5165 -0.1037,0.1472 -0.303624,0.2111 -0.587511,0.2817 m 0.06659,0.1239 c -0.100022,0.04 -0.208186,0.051 -0.31859,0.061 -0.100576,0.01 -0.203011,0.015 -0.30292,0.04 0,0 0,0 0,0 -0.213709,0.052 -0.625849,-0.079 -0.798461,-0.2783 -0.04371,-0.051 -0.107337,-0.079 -0.190875,-0.096 m -0.893858,0.1106 c -0.376499,0.1874 -0.408852,-0.033 -0.264747,-0.2701 0,0 0,0 0,0 0.147527,-0.2428 -0.730739,0.2267 -1.245583,0.247 -0.03809,0 -0.07232,0 -0.10308,0.01 m 0.480254,0.5446 c -0.239767,0.143 -0.694256,0.1088 -1.237335,0.179 -0.558383,0.072 -0.556182,0.01 -1.06412,-0.3086 -0.112193,-0.07 -0.199134,-0.1033 -0.269167,-0.1076 m 1.090391,0.2823 c -0.247622,0.023 -0.794685,0.1795 -1.594647,0.4201 -0.827261,0.2488 -0.442272,-0.3004 -0.277797,-1.014 0.06211,-0.2695 -0.01,-0.3095 -0.160826,-0.241 m 0.318989,1.1954 c -0.204931,0.01 -0.516961,-0.1275 -1.020747,-0.3323 -0.525365,-0.2136 -0.726179,-0.048 -1.642871,-0.4307 -0.385447,-0.161 -0.486699,-0.176 -0.465749,-0.1315 m 0.487949,0.976 c -0.403348,0.1474 -0.491386,-0.1615 -0.625007,-0.2181 -0.141166,-0.06 -0.544657,0.2789 -1.118689,0.4858 0,0 0,0 0,0 -0.02363,0.01 -0.0461,0.016 -0.06752,0.023 m 0.560044,-0.7615 c -0.09613,-0.047 -0.37447,0.042 -0.632689,0.375 0,0 -10e-7,0 -10e-7,0 -0.277877,0.3582 -0.676203,-0.1327 -1.452053,-0.227 -10e-7,0 -10e-7,0 -10e-7,0 -0.03072,0 -0.05961,-0.01 -0.08674,-0.01 m 0.734566,0.4536 c -0.377759,-0.063 -0.834803,0.054 -1.494749,0.197 0,0 0,0 0,0 -0.368121,0.08 -0.464439,-0.026 -0.455745,-0.2108 0.0087,-0.1851 0.122607,-0.45 0.21731,-0.7154 0.01363,-0.038 0.02258,-0.07 0.02751,-0.096 m -0.20168,0.2781 c -0.260837,0.08 -0.519514,0.1122 -0.970025,0.2514 0,0 0,0 -10e-7,0 -0.280266,0.087 -0.336682,0.1345 -0.362338,0.1688 -0.02566,0.034 -0.01891,0.055 -0.07332,0.075 -0.02707,0.01 -0.07381,0.026 -0.13317,0.045 m 0.05826,-0.4612 c -0.286273,-0.035 -0.531347,-0.03 -0.770946,-0.067 -0.239598,-0.037 -0.460065,-0.101 -0.588498,-0.1427 0,0 0,0 0,0 -0.07612,-0.025 -0.106631,-0.033 -0.108184,-0.034 -3.7e-5,0 -6.6e-5,0 -8.6e-5,-10e-5 -2e-5,0 -4.8e-5,0 -8.6e-5,0 -0.0011,-3e-4 -0.01822,-0.01 -0.04703,-0.013 -0.02881,-0.01 -0.069,-0.018 -0.1099,-0.026 -0.08181,-0.016 -0.162562,-0.019 -0.149395,0.038 0.01265,0.055 0.123737,0.1709 0.283495,0.3316 0,0 0,0 0,0 0.12506,0.1258 0.03588,0.1865 -0.186619,0.2219 m -0.571654,-0.3241 c -0.05605,0.015 -0.116929,0.026 -0.183282,0.036 -0.202698,0.03 -0.456147,0.038 -0.781575,0.245 -0.181473,0.1154 -0.297822,0.1676 -0.346076,0.2297 -0.04825,0.062 -0.02835,0.1339 0.05599,0.3287 0.01698,0.039 0.02319,0.067 0.01959,0.085 m -0.725887,-1.0154 c -0.116924,-0.1418 -0.319105,0.028 -0.107051,0.2722 0,0 0,0 0,0 0.09804,0.1127 -0.0089,0.1838 -0.169354,0.2592 -0.160501,0.075 -0.374721,0.1549 -0.448371,0.2969 -0.0035,0.01 -0.0073,0.013 -0.0116,0.019 m -0.386306,-0.1833 c -0.186636,0.065 -0.42076,0.013 -0.691517,-0.067 -0.197263,-0.058 -0.413899,-0.1301 -0.644536,-0.1743 -10e-7,0 -10e-7,0 -10e-7,0 0,0 0,0 0,0 -0.5228,-0.1003 -0.256041,-0.2438 -0.303077,-0.4715 -0.0026,-0.013 -0.0066,-0.024 -0.01182,-0.034 m -0.428993,0.8714 c -0.08519,-0.017 -0.289387,-0.2139 0.03805,-0.767 0.318341,-0.5378 -0.624382,0.05 -1.085158,0.4461 0,0 0,0 0,0 -0.0897,0.077 -0.170795,0.1161 -0.246264,0.1275 m 0.148712,-0.6574 c -0.346651,0.015 -0.51011,-0.094 -0.90239,-0.4609 -0.385786,-0.361 -0.397718,-0.1053 -0.746696,-0.1139 -10e-7,0 -10e-7,0 -10e-7,0 -0.03606,-9e-4 -0.07449,0 -0.115381,0.01 m 0.01036,0.2943 c -0.138962,-0.1814 -0.571641,-0.068 -1.129981,0.1544 -0.553242,0.2209 -0.635959,-0.1256 -1.359631,-0.3458 0,0 0,0 0,0 -0.03297,-0.01 -0.06412,-0.019 -0.09354,-0.027 m 0.693207,-0.068 c -0.195098,0.067 -0.607314,-0.089 -0.85471,-0.27 -0.246487,-0.1806 -0.327119,0.076 -0.500485,0.2189 0,0 0,0 0,0 -0.01669,0.014 -0.03405,0.023 -0.05199,0.029 m 0.152474,0.8423 c -0.224062,-0.1919 -0.659074,-0.3339 -1.077101,-0.7741 -0.418368,-0.4405 -0.529918,-0.1014 -1.136319,0.065 0,0 0,0 -10e-7,0 -0.0455,0.013 -0.0874,0.023 -0.12606,0.032 m 0.409932,0.4034 c -0.386192,-0.091 -0.482703,-0.2069 -0.571959,-0.8054 -0.08966,-0.6012 -0.839022,-0.1297 -1.612426,-0.136 0,0 0,0 -1e-6,0 -0.05312,-4e-4 -0.100204,-7e-4 -0.141849,-6e-4 -0.166047,10e-5 -0.245591,0 -0.276557,0.019 m 1.110317,-0.1141 c -0.318068,-0.1103 -0.75414,-0.3062 -1.603471,-0.5305 -0.856341,-0.2261 -0.368792,-0.018 -0.479896,0.081 -10e-7,0 -10e-7,0 -10e-7,0 -0.0036,0 -0.0075,0.01 -0.0116,0.01 m -0.391095,0.6903 c -0.398785,-0.037 -0.590189,-0.049 -0.706847,-0.1504 -0.117964,-0.1024 -0.594752,-0.011 -0.715875,0.1914 0,0 0,0 0,0 -0.03763,0.063 -0.102365,0.077 -0.173692,0.066 m 0.1281,-0.9977 c -0.236754,-0.068 -0.591552,-0.1132 -0.812353,-0.3611 0,0 0,0 0,0 -0.223975,-0.2516 -0.554782,0.1528 -0.716123,0.2877 -0.02265,0.019 -0.04806,0.029 -0.07474,0.031 m -0.105249,-0.1132 c -0.138229,-0.1509 -0.390736,-0.2272 -0.173904,-0.6364 0,0 0,0 0,0 0.220579,-0.4163 -0.642181,0.1721 -1.404582,0.4862 -0.278357,0.1146 -0.394961,0.1139 -0.428543,0.064 m 0.784424,-0.7285 c -0.321027,0.04 -0.899588,0.2755 -1.566497,0.7224 0,0 0,0 -1e-6,0 -0.680629,0.4562 -0.510874,-0.306 -0.632837,-0.3994 -0.0097,-0.01 -0.02219,-0.014 -0.03703,-0.021 m 0.426271,0.2183 c -0.321564,0.027 -0.696712,-0.2912 -1.249146,-0.4757 0,0 0,0 0,0 -0.565477,-0.1889 -0.311896,-0.3833 0.0324,-0.6997 0.159701,-0.1468 0.07989,-0.1987 -0.0748,-0.2276 m -1.209432,0.1949 c -0.42066,-0.2423 -0.342274,-0.1623 -0.318403,-0.4834 0.02453,-0.3299 -0.453609,0.038 -0.332642,0.2729 0.01257,0.024 0.01636,0.038 0.01239,0.043 -0.003,0 -0.01055,0 -0.02212,0 m -0.770328,-0.2841 c -0.416599,-0.1177 -0.400422,-0.3704 -0.762228,-0.5932 -0.373062,-0.2297 -0.425985,-0.3758 -0.581394,-0.5573 -0.07869,-0.092 -0.170796,-0.1052 -0.256899,-0.074 m 0.304796,0.9006 c -0.289966,-0.2334 -0.537897,-0.5954 -1.223713,-1.3938 -0.710097,-0.8267 -0.29113,-0.293 -0.479831,-0.5049 -0.01554,-0.017 -0.03164,-0.034 -0.04817,-0.049 m 0.215096,0.6073 c -0.109903,-0.1621 -0.273737,-0.3719 -0.227674,-0.8714 0.04784,-0.5186 -0.626809,-0.1195 -1.443723,0.071 -0.18234,0.043 -0.290217,0.042 -0.344596,0.01 -0.07255,-0.044 -0.04995,-0.1453 0.01994,-0.2802 m -0.147889,-0.4185 c -0.206577,-0.065 -0.25292,-0.4709 -0.130297,-0.602 0.127515,-0.1364 -0.299613,-0.3518 -0.385339,-0.6894 -0.01955,-0.077 -0.04987,-0.1369 -0.0893,-0.1819 m -0.493657,0.9244 c -0.305173,-0.1093 -0.189829,-0.4456 0.193247,-0.5237 0.396557,-0.081 -0.624456,-0.6001 -1.3367881,-1.1134 -0.2226478,-0.1604 -0.3362094,-0.2587 -0.3871677,-0.3144 m 0.049281,0.081 c -0.1843153,-0.3898 0.076499,-0.3841 0.6646024,-0.7953 0.048844,-0.034 0.08709,-0.064 0.1160786,-0.09 0.059291,-0.01 0.096485,-0.011 0.1163851,0 0.1477987,0.2508 -0.3933537,0.8068 -0.4106895,1.3023 -0.00728,0.2082 -0.027512,0.3081 -0.067956,0.3455"
       id="path3829-1-5-74-4-9-5-1"
       class="ignored"
       inkscape:connector-curvature="0" />
  </g>
</svg>
