<!--?xml version="1.0" encoding="UTF-8" standalone="no"?--><!-- Created with Inkscape (http://www.inkscape.org/) --><svg xmlns:dc="http://purl.org/dc/elements/1.1/" xmlns:cc="http://creativecommons.org/ns#" xmlns:rdf="http://www.w3.org/1999/02/22-rdf-syntax-ns#" xmlns:svg="http://www.w3.org/2000/svg" xmlns="http://www.w3.org/2000/svg" xmlns:sodipodi="http://sodipodi.sourceforge.net/DTD/sodipodi-0.dtd" xmlns:inkscape="http://www.inkscape.org/namespaces/inkscape" width="100%" height="100%" viewBox="0 0 90 90" id="svg2" version="1.1" inkscape:version="0.48.4 r9939" sodipodi:docname="greek.svg" class="greek-hair" data-z="900" data-slots="hair">
  <defs id="defs4"/>
  <sodipodi:namedview id="base" pagecolor="#ffffff" bordercolor="#666666" borderopacity="1.0" inkscape:pageopacity="0.0" inkscape:pageshadow="2" inkscape:zoom="1.9956013" inkscape:cx="114.33608" inkscape:cy="-2.0744224" inkscape:document-units="in" inkscape:current-layer="layer2" showgrid="false" units="in" inkscape:window-width="1920" inkscape:window-height="1017" inkscape:window-x="-8" inkscape:window-y="-8" inkscape:window-maximized="1">
    <inkscape:grid type="xygrid" id="grid2994" empspacing="5" visible="true" enabled="true" snapvisiblegridlinesonly="true" units="in" spacingx="0.014in" spacingy="0.014in"/>
  </sodipodi:namedview>
  <metadata id="metadata7">
    <rdf:rdf>
      <cc:work rdf:about="">
        <dc:format>image/svg+xml</dc:format>
        <dc:type rdf:resource="http://purl.org/dc/dcmitype/StillImage"/>
        <dc:title/>
      </cc:work>
    </rdf:rdf>
  </metadata>
  <g inkscape:label="Body" inkscape:groupmode="layer" id="layer1" class="hair" transform="translate(0,-962.35975)" style="display:inline">
    <path style="fill:#ffffff;fill-opacity:1;stroke:#000000;stroke-width:4.5;stroke-linecap:butt;stroke-linejoin:miter;stroke-miterlimit:4;stroke-opacity:1;stroke-dasharray:none;display:inline" d="m 45,971.3598 c -15.89811,0 -29.38773,10.2986 -34.15625,24.5937 l -0.0312,0.5938 c 0,0 4.3604,-6.3788 7.1875,-5.375 2.33129,0.8277 3.6125,3.5875 1.8125,7.1875 7.2,0 3.1269,-8.417 7.1875,-7.1875 2.92814,0.8865 5.39375,5.3875 3.59375,7.1875 10.8,0 11.29548,-16.6123 19.8125,-16.1875 5.93232,0.2958 1.79375,10.7937 12.59375,12.5937 0,-1.8 3.27085,-3.9403 5.40625,-3.5937 6.75267,1.0958 12.5937,16.1875 12.5937,16.1875 0,-19.8823 -16.11775,-36 -36,-36 z" id="path5435" inkscape:connector-curvature="0"/>
  </g>
  <g inkscape:groupmode="layer" id="layer2" class="band" inkscape:label="Band">
    <path style="fill:#b4b4b4;fill-opacity:1;stroke:#000000;stroke-width:2.25;stroke-linecap:butt;stroke-linejoin:miter;stroke-miterlimit:4;stroke-opacity:1;stroke-dasharray:none;display:inline" d="m 14.4,27.00005 c 0,0 12.6,-12.6 30.6,-12.6 18,0 30.6,12.6 30.6,12.6 l 1.8,5.4 c 0,0 -12.6,-12.6 -32.4,-12.6 -19.8,0 -32.4,12.6 -32.4,12.6 z" id="path5427" inkscape:connector-curvature="0" sodipodi:nodetypes="czcczcc"/>
  </g>
</svg>
