<?xml version="1.0" encoding="UTF-8" standalone="no"?>
<!-- Created with Inkscape (http://www.inkscape.org/) -->

<svg
   xmlns:dc="http://purl.org/dc/elements/1.1/"
   xmlns:cc="http://creativecommons.org/ns#"
   xmlns:rdf="http://www.w3.org/1999/02/22-rdf-syntax-ns#"
   xmlns:svg="http://www.w3.org/2000/svg"
   xmlns="http://www.w3.org/2000/svg"
   xmlns:sodipodi="http://sodipodi.sourceforge.net/DTD/sodipodi-0.dtd"
   xmlns:inkscape="http://www.inkscape.org/namespaces/inkscape"
   width="100%"
   height="100%"
   viewBox="0 0 90 90"
   id="svg2"
   version="1.1"
   inkscape:version="0.48.4 r9939"
   sodipodi:docname="hammer (left).svg"
   class="hammer-left"
   data-z="1200"
   data-slots="left-weapon">
  <defs
     id="defs4" />
  <sodipodi:namedview
     id="base"
     pagecolor="#ffffff"
     bordercolor="#666666"
     borderopacity="1.0"
     inkscape:pageopacity="0.0"
     inkscape:pageshadow="2"
     inkscape:zoom="8"
     inkscape:cx="37.986825"
     inkscape:cy="32.906006"
     inkscape:document-units="in"
     inkscape:current-layer="layer1"
     showgrid="false"
     units="in"
     inkscape:window-width="1920"
     inkscape:window-height="1017"
     inkscape:window-x="-8"
     inkscape:window-y="-8"
     inkscape:window-maximized="1">
    <inkscape:grid
       type="xygrid"
       id="grid2994"
       empspacing="5"
       visible="true"
       enabled="true"
       snapvisiblegridlinesonly="true"
       units="in"
       spacingx="0.014in"
       spacingy="0.014in" />
  </sodipodi:namedview>
  <metadata
     id="metadata7">
    <rdf:RDF>
      <cc:Work
         rdf:about="">
        <dc:format>image/svg+xml</dc:format>
        <dc:type
           rdf:resource="http://purl.org/dc/dcmitype/StillImage" />
        <dc:title />
      </cc:Work>
    </rdf:RDF>
  </metadata>
  <g
     inkscape:label="Body"
     inkscape:groupmode="layer"
     id="layer1"
     class="hammer-head"
     transform="translate(0,-962.35975)"
     style="display:inline">
    <path
       style="fill:none;stroke:#000000;stroke-width:2.25;stroke-miterlimit:4;stroke-opacity:1;stroke-dasharray:none;display:inline"
       d="m 41.544684,1008.5456 -5.091169,2.5455 2.545584,2.5456 z"
       id="path4960-1-4"
       inkscape:connector-curvature="0" />
    <path
       inkscape:connector-curvature="0"
       style="fill:none;stroke:#000000;stroke-width:3.5999999;stroke-miterlimit:4;stroke-opacity:1;stroke-dasharray:none;display:inline"
       d="m 35.200253,1014.8901 -24.183066,24.1831 z"
       id="rect4958-9-1"
       sodipodi:nodetypes="ccc" />
    <path
       style="fill:#ffffff;fill-opacity:1;stroke:#000000;stroke-width:4.5;stroke-linecap:butt;stroke-linejoin:miter;stroke-miterlimit:4;stroke-opacity:1;stroke-dasharray:none"
       d="m 32.018205,998.98016 -12.727923,12.72794 6.363962,6.3639 12.727922,-12.7279 z"
       id="path4952-5"
       inkscape:connector-curvature="0" />
    <path
       style="fill:#ffffff;fill-opacity:1;stroke:#000000;stroke-width:4.5;stroke-linecap:butt;stroke-linejoin:miter;stroke-miterlimit:4;stroke-opacity:1;stroke-dasharray:none"
       d="m 44.746127,1011.7081 -12.727922,12.7279 6.363961,6.364 12.727922,-12.728 z"
       id="path4954-4"
       inkscape:connector-curvature="0" />
    <path
       style="fill:#ffffff;fill-opacity:1;stroke:#000000;stroke-width:4.5;stroke-linecap:butt;stroke-linejoin:miter;stroke-miterlimit:4;stroke-opacity:1;stroke-dasharray:none"
       d="m 35.836581,1007.8897 6.363961,6.364 -7.636753,7.6367 -6.363961,-6.3639 z"
       id="path4956-3"
       inkscape:connector-curvature="0" />
    <path
       inkscape:connector-curvature="0"
       style="fill:none;stroke:#000000;stroke-width:6.75;stroke-miterlimit:4;stroke-opacity:1;stroke-dasharray:none;display:inline"
       d="M 23.20309,1026.8872 9.2023759,1040.8879 z"
       id="rect5134-3-7"
       sodipodi:nodetypes="ccc" />
    <path
       sodipodi:type="arc"
       style="fill:none;stroke:#000000;stroke-width:2.16541386;stroke-opacity:1;display:inline"
       id="path4962-2-0"
       sodipodi:cx="193.5"
       sodipodi:cy="-58.5"
       sodipodi:rx="0.89999998"
       sodipodi:ry="0.89999998"
       d="m 194.4,-58.5 a 0.89999998,0.89999998 0 1 1 -1.8,0 0.89999998,0.89999998 0 1 1 1.8,0 z"
       transform="matrix(0.32654583,0.32654583,-0.32654583,0.32654583,-50.271341,961.26043)" />
    <path
       sodipodi:type="arc"
       style="fill:none;stroke:#000000;stroke-width:2.16541386;stroke-opacity:1;display:inline"
       id="path4962-2-0-9"
       sodipodi:cx="193.5"
       sodipodi:cy="-58.5"
       sodipodi:rx="0.89999998"
       sodipodi:ry="0.89999998"
       d="m 194.4,-58.5 a 0.89999998,0.89999998 0 1 1 -1.8,0 0.89999998,0.89999998 0 1 1 1.8,0 z"
       transform="matrix(0.32654583,0.32654583,-0.32654583,0.32654583,-53.458841,964.44793)" />
    <path
       sodipodi:type="arc"
       style="fill:none;stroke:#000000;stroke-width:2.16541386;stroke-opacity:1;display:inline"
       id="path4962-2-0-9-4"
       sodipodi:cx="193.5"
       sodipodi:cy="-58.5"
       sodipodi:rx="0.89999998"
       sodipodi:ry="0.89999998"
       d="m 194.4,-58.5 a 0.89999998,0.89999998 0 1 1 -1.8,0 0.89999998,0.89999998 0 1 1 1.8,0 z"
       transform="matrix(0.32654583,0.32654583,-0.32654583,0.32654583,-56.630716,967.6198)" />
    <path
       sodipodi:type="arc"
       style="fill:none;stroke:#000000;stroke-width:2.16541386;stroke-opacity:1;display:inline"
       id="path4962-2-0-9-4-8"
       sodipodi:cx="193.5"
       sodipodi:cy="-58.5"
       sodipodi:rx="0.89999998"
       sodipodi:ry="0.89999998"
       d="m 194.4,-58.5 a 0.89999998,0.89999998 0 1 1 -1.8,0 0.89999998,0.89999998 0 1 1 1.8,0 z"
       transform="matrix(0.32654583,0.32654583,-0.32654583,0.32654583,-43.911966,980.35417)" />
    <path
       sodipodi:type="arc"
       style="fill:none;stroke:#000000;stroke-width:2.16541386;stroke-opacity:1;display:inline"
       id="path4962-2-0-9-4-8-8"
       sodipodi:cx="193.5"
       sodipodi:cy="-58.5"
       sodipodi:rx="0.89999998"
       sodipodi:ry="0.89999998"
       d="m 194.4,-58.5 a 0.89999998,0.89999998 0 1 1 -1.8,0 0.89999998,0.89999998 0 1 1 1.8,0 z"
       transform="matrix(0.32654583,0.32654583,-0.32654583,0.32654583,-40.708841,977.1823)" />
    <path
       sodipodi:type="arc"
       style="fill:none;stroke:#000000;stroke-width:2.16541386;stroke-opacity:1;display:inline"
       id="path4962-2-0-9-4-8-8-2"
       sodipodi:cx="193.5"
       sodipodi:cy="-58.5"
       sodipodi:rx="0.89999998"
       sodipodi:ry="0.89999998"
       d="m 194.4,-58.5 a 0.89999998,0.89999998 0 1 1 -1.8,0 0.89999998,0.89999998 0 1 1 1.8,0 z"
       transform="matrix(0.32654583,0.32654583,-0.32654583,0.32654583,-37.552591,973.9948)" />
  </g>
</svg>
