<!--?xml version="1.0" encoding="UTF-8" standalone="no"?--><!-- Created with Inkscape (http://www.inkscape.org/) --><svg xmlns:dc="http://purl.org/dc/elements/1.1/" xmlns:cc="http://creativecommons.org/ns#" xmlns:rdf="http://www.w3.org/1999/02/22-rdf-syntax-ns#" xmlns:svg="http://www.w3.org/2000/svg" xmlns="http://www.w3.org/2000/svg" xmlns:sodipodi="http://sodipodi.sourceforge.net/DTD/sodipodi-0.dtd" xmlns:inkscape="http://www.inkscape.org/namespaces/inkscape" width="100%" height="100%" viewBox="0 0 90 90" id="svg2" version="1.1" inkscape:version="0.48.4 r9939" sodipodi:docname="Heavy Collar.svg" class="heavy-collar" data-z="700" data-slots="collar" data-tags="collar">
  <defs id="defs4"/>
  <sodipodi:namedview id="base" pagecolor="#ffffff" bordercolor="#666666" borderopacity="1.0" inkscape:pageopacity="0.0" inkscape:pageshadow="2" inkscape:zoom="7.9824051" inkscape:cx="37.07447" inkscape:cy="38.843113" inkscape:document-units="in" inkscape:current-layer="svg2" showgrid="false" units="in" inkscape:window-width="1918" inkscape:window-height="1030" inkscape:window-x="0" inkscape:window-y="24" inkscape:window-maximized="0">
    <inkscape:grid type="xygrid" id="grid2994" empspacing="5" visible="true" enabled="true" snapvisiblegridlinesonly="true" units="in" spacingx="0.014in" spacingy="0.014in"/>
  </sodipodi:namedview>
  <metadata id="metadata7">
    <rdf:rdf>
      <cc:work rdf:about="">
        <dc:format>image/svg+xml</dc:format>
        <dc:type rdf:resource="http://purl.org/dc/dcmitype/StillImage"/>
        <dc:title/>
      </cc:work>
    </rdf:rdf>
  </metadata>
  <g inkscape:label="Primary" inkscape:groupmode="layer" id="layer1" transform="translate(0,-962.35975)" style="display:inline" sodipodi:insensitive="true" class="collar">
    <path style="fill:#ffffff;fill-opacity:1;stroke:#000000;stroke-width:4.5;stroke-linecap:round;stroke-miterlimit:4;stroke-opacity:1;stroke-dasharray:none;stroke-dashoffset:0;display:inline" d="m 10.317784,997.79973 c -2.4845411,4.78557 -4.0195232,7.82427 1.022216,11.72007 5.041739,3.8957 17.144231,9.023 33.056781,12.5324 14.715251,3.2454 28.121728,4.3156 37.080225,3.3778 3.247441,-1.6454 2.60908,-6.6643 2.444564,-10.3412 -8.722565,1.6947 -21.422024,4.5468 -38.176844,0.8516 -18.380582,-4.0538 -29.049658,-12.5236 -35.426895,-18.14066 z" id="path3829-1-5-74-4-9-0-7-87-0-0-9-2-4-5" inkscape:connector-curvature="0" sodipodi:nodetypes="ccsccscc"/>
    <path style="fill:#ffffff;fill-opacity:1;stroke:#000000;stroke-width:4.5;stroke-linecap:round;stroke-miterlimit:4;stroke-opacity:1;stroke-dasharray:none;stroke-dashoffset:0;display:inline" d="m 6.0372177,1012.058 c -0.5119091,5.3677 -2.1338347,9.2571 1.2628037,10.8787 0.022474,0.01 0.044727,0.016 0.066753,0.02 8.8038456,1.807 23.2821946,1.5327 39.3512176,-1.1714 14.85996,-2.5006 27.69185,-6.5282 35.647476,-10.7522 2.39512,-2.7416 -0.07612,-7.1565 -1.605403,-10.5042 -7.45348,4.8374 -18.161135,12.2372 -35.080681,15.0845 -18.561332,3.1235 -31.625659,-0.7352 -39.6422248,-3.5558 z" id="path3829-1-5-74-4-9-0-7-87-0-0-9-2-4" inkscape:connector-curvature="0" sodipodi:nodetypes="cccsccsc"/>
    <path style="fill:#ffffff;fill-opacity:1;stroke:#000000;stroke-width:4.5;stroke-linecap:round;stroke-miterlimit:4;stroke-opacity:1;stroke-dasharray:none;stroke-dashoffset:0;display:inline" d="M 7.56,43.375 C 6.1644404,48.583299 3.9195722,52.149574 7,54.3125 c 0.020965,0.0082 0.04146,0.02311 0.0625,0.03125 8.381914,3.242937 22.705039,5.375 39,5.375 15.068891,0 28.391227,-1.842275 36.9375,-4.6875 2.81687,-2.306103 1.112553,-7.070025 0.16,-10.625 C 75.007123,47.93965 63.219942,53.46 46.0625,53.46 27.240193,53.46 14.997348,47.4868 7.56,43.375 z" id="path3829-1-5-74-4-9-0-7-87-0-0-9-2" transform="translate(0,962.35975)" inkscape:connector-curvature="0" sodipodi:nodetypes="cccsccsc"/>
  </g>
</svg>
