<?xml version="1.0" encoding="UTF-8" standalone="no"?>
<!-- Created with Inkscape (http://www.inkscape.org/) -->

<svg
   xmlns:dc="http://purl.org/dc/elements/1.1/"
   xmlns:cc="http://creativecommons.org/ns#"
   xmlns:rdf="http://www.w3.org/1999/02/22-rdf-syntax-ns#"
   xmlns:svg="http://www.w3.org/2000/svg"
   xmlns="http://www.w3.org/2000/svg"
   xmlns:sodipodi="http://sodipodi.sourceforge.net/DTD/sodipodi-0.dtd"
   xmlns:inkscape="http://www.inkscape.org/namespaces/inkscape"
   width="100%"
   height="100%"
   viewBox="0 0 90 90"
   id="svg2"
   version="1.1"
   inkscape:version="0.48.4 r9939"
   sodipodi:docname="horned-pig-snout.svg"
   class="horned-pig-snout"
   data-z="400"
   data-slots="face">
  <defs
     id="defs4" />
  <sodipodi:namedview
     id="base"
     pagecolor="#ffffff"
     bordercolor="#666666"
     borderopacity="1.0"
     inkscape:pageopacity="0.0"
     inkscape:pageshadow="2"
     inkscape:zoom="7.9824051"
     inkscape:cx="51.856982"
     inkscape:cy="38.843113"
     inkscape:document-units="in"
     inkscape:current-layer="layer3"
     showgrid="false"
     units="in"
     inkscape:window-width="1920"
     inkscape:window-height="1017"
     inkscape:window-x="-8"
     inkscape:window-y="-8"
     inkscape:window-maximized="1">
    <inkscape:grid
       type="xygrid"
       id="grid2994"
       empspacing="5"
       visible="true"
       enabled="true"
       snapvisiblegridlinesonly="true"
       units="in"
       spacingx="0.014in"
       spacingy="0.014in" />
  </sodipodi:namedview>
  <metadata
     id="metadata7">
    <rdf:RDF>
      <cc:Work
         rdf:about="">
        <dc:format>image/svg+xml</dc:format>
        <dc:type
           rdf:resource="http://purl.org/dc/dcmitype/StillImage" />
        <dc:title />
      </cc:Work>
    </rdf:RDF>
  </metadata>
  <g
     inkscape:label="Body"
     inkscape:groupmode="layer"
     id="layer1"
     class="tusks"
     transform="translate(0,-962.35975)"
     style="display:inline">
    <path
       style="fill:#b4b4b4;fill-opacity:1;stroke:#000000;stroke-width:2.25;stroke-miterlimit:4;stroke-opacity:1;stroke-dasharray:none"
       d="m 30.212388,996.61887 c -1.662926,2.1351 -2.581325,4.51653 -2.58125,7.12333 10e-5,3.4917 2.572397,7.5174 5.39375,8.3454 0.29294,0.06 0.59559,0.094 0.90625,0.094 2.48528,0 4.5,-2.0147 4.5,-4.5 0,-2.4853 -2.01472,-4.5 -4.5,-4.5 -0.4607,0 -0.89397,0.09 -1.3125,0.2188 -1.35438,-1.9454 -2.227517,-4.27983 -2.40625,-6.78133 z"
       id="path5310-9"
       inkscape:connector-curvature="0"
       sodipodi:nodetypes="cscssscc" />
    <path
       style="fill:#b4b4b4;fill-opacity:1;stroke:#000000;stroke-width:2.25;stroke-miterlimit:4;stroke-opacity:1;stroke-dasharray:none"
       d="m 59.269105,996.61887 c 1.66293,2.1351 2.58132,4.51653 2.58125,7.12333 -1e-4,3.4917 -2.5724,7.5174 -5.39375,8.3454 -0.29294,0.06 -0.59559,0.094 -0.90625,0.094 -2.48528,0 -4.5,-2.0147 -4.5,-4.5 0,-2.4853 2.01472,-4.5 4.5,-4.5 0.4607,0 0.89397,0.09 1.3125,0.2188 1.35438,-1.9454 2.22752,-4.27983 2.40625,-6.78133 z"
       id="path5310-2-0"
       inkscape:connector-curvature="0"
       sodipodi:nodetypes="cscssscc" />
  </g>
  <g
     inkscape:groupmode="layer"
     id="layer2"
     class="snout"
     inkscape:label="Snout">
    <path
       sodipodi:type="arc"
       style="color:#000000;fill:#ffffff;fill-opacity:1;fill-rule:nonzero;stroke:#000000;stroke-width:4.5;stroke-linecap:butt;stroke-linejoin:miter;stroke-miterlimit:4;stroke-opacity:1;stroke-dasharray:none;stroke-dashoffset:0;marker:none;visibility:visible;display:inline;overflow:visible;enable-background:accumulate"
       id="path7874-4"
       sodipodi:cx="-46.799999"
       sodipodi:cy="135.89999"
       sodipodi:rx="9.000001"
       sodipodi:ry="6.299994"
       d="m -37.799998,135.89999 a 9.000001,6.299994 0 1 1 -18.000002,0 9.000001,6.299994 0 1 1 18.000002,0 z"
       transform="translate(92.124999,-90.00005)" />
  </g>
  <g
     inkscape:groupmode="layer"
     id="layer3"
     inkscape:label="Unselectable">
    <path
       sodipodi:type="arc"
       style="color:#000000;fill:#000000;fill-opacity:1;fill-rule:nonzero;stroke:#000000;stroke-width:0;stroke-linecap:butt;stroke-linejoin:miter;stroke-miterlimit:4;stroke-opacity:1;stroke-dasharray:none;stroke-dashoffset:0;marker:none;visibility:visible;display:inline;overflow:visible;enable-background:accumulate"
       id="path7879-3"
       sodipodi:cx="6.3000002"
       sodipodi:cy="128.7"
       sodipodi:rx="0.89999998"
       sodipodi:ry="0.89999998"
       d="m 7.2000002,128.7 a 0.89999998,0.89999998 0 1 1 -1.8,0 0.89999998,0.89999998 0 1 1 1.8,0 z"
       transform="matrix(1.5,0,0,1.5,33.099999,-147.22505)" />
    <path
       sodipodi:type="arc"
       style="color:#000000;fill:#000000;fill-opacity:1;fill-rule:nonzero;stroke:#000000;stroke-width:0;stroke-linecap:butt;stroke-linejoin:miter;stroke-miterlimit:4;stroke-opacity:1;stroke-dasharray:none;stroke-dashoffset:0;marker:none;visibility:visible;display:inline;overflow:visible;enable-background:accumulate"
       id="path7879-4-7"
       sodipodi:cx="6.3000002"
       sodipodi:cy="128.7"
       sodipodi:rx="0.89999998"
       sodipodi:ry="0.89999998"
       d="m 7.2000002,128.7 a 0.89999998,0.89999998 0 1 1 -1.8,0 0.89999998,0.89999998 0 1 1 1.8,0 z"
       transform="matrix(1.5,0,0,1.5,38.549999,-147.25005)" />
  </g>
</svg>
