<!--?xml version="1.0" encoding="UTF-8" standalone="no"?--><!-- Created with Inkscape (http://www.inkscape.org/) --><svg xmlns:dc="http://purl.org/dc/elements/1.1/" xmlns:cc="http://creativecommons.org/ns#" xmlns:rdf="http://www.w3.org/1999/02/22-rdf-syntax-ns#" xmlns:svg="http://www.w3.org/2000/svg" xmlns="http://www.w3.org/2000/svg" xmlns:sodipodi="http://sodipodi.sourceforge.net/DTD/sodipodi-0.dtd" xmlns:inkscape="http://www.inkscape.org/namespaces/inkscape" width="100%" height="100%" viewBox="0 0 90 90" id="svg2" version="1.1" inkscape:version="0.92.3 (2405546, 2018-03-11)" sodipodi:docname="lightning-sword-right.svg" class="lightning-sword-right" data-z="1200" data-slots="right-weapon" data-tags="right+weapon">
  <defs id="defs4"/>
  <sodipodi:namedview id="base" pagecolor="#ffffff" bordercolor="#666666" borderopacity="1.0" inkscape:pageopacity="0.0" inkscape:pageshadow="2" inkscape:zoom="15.96481" inkscape:cx="60.10861" inkscape:cy="46.048243" inkscape:document-units="in" inkscape:current-layer="layer3" showgrid="false" units="in" inkscape:window-width="3773" inkscape:window-height="2105" inkscape:window-x="67" inkscape:window-y="27" inkscape:window-maximized="1">
    <inkscape:grid type="xygrid" id="grid2994" empspacing="5" visible="true" enabled="true" snapvisiblegridlinesonly="true" units="in" spacingx="1.344" spacingy="1.344" originx="0" originy="0"/>
  </sodipodi:namedview>
  <metadata id="metadata7">
    <rdf:rdf>
      <cc:work rdf:about="">
        <dc:format>image/svg+xml</dc:format>
        <dc:type rdf:resource="http://purl.org/dc/dcmitype/StillImage"/>
        <dc:title/>
      </cc:work>
    </rdf:rdf>
  </metadata>
  <g inkscape:label="Primary" inkscape:groupmode="layer" id="layer1" transform="translate(0,-962.35975)" class="blade">
    <path style="opacity:1;vector-effect:none;fill:#ffffff;fill-opacity:1;stroke:#000000;stroke-width:4.51200008;stroke-linecap:round;stroke-linejoin:miter;stroke-miterlimit:4;stroke-dasharray:none;stroke-dashoffset:0;stroke-opacity:1" d="m 81.941161,985.85176 c 0.564842,-2.78123 -1.361441,-8.96618 -5.223302,-13.25246 l -14.598318,74.4627 7.531939,1.4766 z" id="rect819" inkscape:connector-curvature="0" sodipodi:nodetypes="ccccc"/>
  </g>
  <g inkscape:groupmode="layer" id="layer2" inkscape:label="Secondary" style="display:inline" class="handle">
    <path inkscape:connector-curvature="0" style="opacity:1;vector-effect:none;fill:#ffffff;fill-opacity:1;stroke:#000000;stroke-width:4.51200008;stroke-linecap:round;stroke-linejoin:miter;stroke-miterlimit:4;stroke-dasharray:none;stroke-dashoffset:0;stroke-opacity:1" d="M 73.211377,68.020477 69.651478,86.178716 62.119086,84.702 65.678985,66.543761 Z" id="rect822"/>
  </g>
  <g inkscape:groupmode="layer" id="layer3" inkscape:label="Current" class="lightning" style="display:inline">
    <path style="color:#000000;font-style:normal;font-variant:normal;font-weight:normal;font-stretch:normal;font-size:medium;line-height:normal;font-family:sans-serif;font-variant-ligatures:normal;font-variant-position:normal;font-variant-caps:normal;font-variant-numeric:normal;font-variant-alternates:normal;font-feature-settings:normal;text-indent:0;text-align:start;text-decoration:none;text-decoration-line:none;text-decoration-style:solid;text-decoration-color:#000000;letter-spacing:normal;word-spacing:normal;text-transform:none;writing-mode:lr-tb;direction:ltr;text-orientation:mixed;dominant-baseline:auto;baseline-shift:baseline;text-anchor:start;white-space:normal;shape-padding:0;clip-rule:nonzero;display:inline;overflow:visible;visibility:visible;opacity:0.75;isolation:auto;mix-blend-mode:normal;color-interpolation:sRGB;color-interpolation-filters:linearRGB;solid-color:#000000;solid-opacity:1;vector-effect:none;fill:#00ffff;fill-opacity:0.78431373;fill-rule:nonzero;stroke:none;stroke-width:4.32000017;stroke-linecap:square;stroke-linejoin:miter;stroke-miterlimit:4;stroke-dasharray:none;stroke-dashoffset:0;stroke-opacity:1;color-rendering:auto;image-rendering:auto;shape-rendering:auto;text-rendering:auto;enable-background:accumulate" d="m 77.593621,7.8409246 0.800876,0.8894429 c 0.70837,0.7862187 1.343938,1.6205765 1.922337,2.4786335 l -3.032476,2.838764 9.34523,3.062129 -1.146617,11.036356 3.56667,13.542681 -8.178359,-1.014226 0.833048,-4.249189 1.540937,0.190641 -2.141482,-8.132267 0.867618,-8.354384 -12.966038,-4.247666 z m -8.553659,29.8335804 -1.071653,5.466256 -0.442283,0.23572 2.561685,4.50671 7.146189,7.294295 2.788248,9.391549 -4.330643,2.526541 0.167586,-0.854822 -5.447088,-1.067894 4.503401,-2.626022 -1.517516,-5.112056 -6.787806,-6.92947 -5.033131,-8.854415 z" id="path886" inkscape:connector-curvature="0"/>
    <path style="color:#000000;font-style:normal;font-variant:normal;font-weight:normal;font-stretch:normal;font-size:medium;line-height:normal;font-family:sans-serif;font-variant-ligatures:normal;font-variant-position:normal;font-variant-caps:normal;font-variant-numeric:normal;font-variant-alternates:normal;font-feature-settings:normal;text-indent:0;text-align:start;text-decoration:none;text-decoration-line:none;text-decoration-style:solid;text-decoration-color:#000000;letter-spacing:normal;word-spacing:normal;text-transform:none;writing-mode:lr-tb;direction:ltr;text-orientation:mixed;dominant-baseline:auto;baseline-shift:baseline;text-anchor:start;white-space:normal;shape-padding:0;clip-rule:nonzero;display:inline;overflow:visible;visibility:visible;opacity:0.5;isolation:auto;mix-blend-mode:normal;color-interpolation:sRGB;color-interpolation-filters:linearRGB;solid-color:#000000;solid-opacity:1;vector-effect:none;fill:#00ffff;fill-opacity:0.50196078;fill-rule:nonzero;stroke:none;stroke-width:1.91999996;stroke-linecap:butt;stroke-linejoin:bevel;stroke-miterlimit:4;stroke-dasharray:none;stroke-dashoffset:0;stroke-opacity:1;color-rendering:auto;image-rendering:auto;shape-rendering:auto;text-rendering:auto;enable-background:accumulate" d="m 78.807751,9.2213883 c 0.5151,0.60781 0.999381,1.2336947 1.440494,1.8806227 l -3.322152,0.09307 -4.711881,1.99403 -0.0083,3.66651 7.019071,-3.874346 1.4148,0.966015 -0.767912,5.866146 7.966959,0.823509 0.344707,1.805115 -5.268244,2.750739 6.027303,3.763071 0.05852,1.589785 -6.719032,4.912398 1.746719,7.668756 -1.692284,0.804695 -1.682073,-2.150899 0.488481,-2.49163 0.05889,0.07524 -0.03973,-0.172985 0.942393,-4.806931 -1.266898,-0.248373 5.88479,-4.301723 -6.24693,-3.901663 0.06376,-1.665326 3.924521,-2.048875 -5.770497,-0.595907 -0.853306,-1.078849 0.650685,-4.963636 -6.784758,3.745137 -1.42314,-0.842261 0.01268,-5.932605 0.586915,-0.882079 5.461046,-2.3128879 0.347133,-0.075247 z m -12.187934,26.9198087 2.316061,2.064218 -0.429112,2.188802 -2.097746,-1.868165 -2.217361,6.264658 8.088322,0.0014 0.861359,1.382954 -3.813417,7.796765 7.658573,-3.014549 1.045885,1.558452 -5.175833,5.396058 9.590009,2.260257 0.566801,1.484431 -5.594821,8.030684 -1.53503,0.05333 -0.57189,-0.707219 0.113478,-0.578826 0.368615,-1.880223 0.780095,0.964981 4.057261,-5.822344 -9.850334,-2.323236 -0.472626,-1.599319 3.306724,-3.445779 -5.883532,2.315644 -1.21503,-1.31496 4.224679,-8.63566 -7.909061,-0.0021 -0.9054,-1.280131 3.148878,-8.894336 z m 5.980752,26.477261 2.861779,3.544515 -2.932459,-0.574904 -1.422038,-1.761567 z" id="path912" inkscape:connector-curvature="0"/>
  </g>
</svg>
