<?xml version="1.0" encoding="UTF-8" standalone="no"?>
<!-- Created with Inkscape (http://www.inkscape.org/) -->

<svg
   xmlns:dc="http://purl.org/dc/elements/1.1/"
   xmlns:cc="http://creativecommons.org/ns#"
   xmlns:rdf="http://www.w3.org/1999/02/22-rdf-syntax-ns#"
   xmlns:svg="http://www.w3.org/2000/svg"
   xmlns="http://www.w3.org/2000/svg"
   xmlns:sodipodi="http://sodipodi.sourceforge.net/DTD/sodipodi-0.dtd"
   xmlns:inkscape="http://www.inkscape.org/namespaces/inkscape"
   width="100%"
   height="100%"
   viewBox="0 0 90 90"
   id="svg2"
   version="1.1"
   inkscape:version="0.48.4 r9939"
   sodipodi:docname="light-fuzz.svg"
   class="light-fuzz">
  <defs
     id="defs4">
    <inkscape:path-effect
       effect="sketch"
       id="path-effect3940"
       is_visible="true"
       nbiter_approxstrokes="1"
       strokelength="1"
       strokelength_rdm="0;1"
       strokeoverlap="0.1"
       strokeoverlap_rdm="0.1;1"
       ends_tolerance="0.1;1"
       parallel_offset="0.3;1"
       tremble_size="0.4;1"
       tremble_frequency="0.01"
       nbtangents="0"
       tgt_places_rdmness="1;1"
       tgtscale="10"
       tgtlength="90"
       tgtlength_rdm="0.2;1" />
  </defs>
  <sodipodi:namedview
     id="base"
     pagecolor="#ffffff"
     bordercolor="#666666"
     borderopacity="1.0"
     inkscape:pageopacity="0.0"
     inkscape:pageshadow="2"
     inkscape:zoom="5.6444128"
     inkscape:cx="-1.9128759"
     inkscape:cy="26.772907"
     inkscape:document-units="in"
     inkscape:current-layer="layer1"
     showgrid="false"
     units="in"
     inkscape:window-width="1920"
     inkscape:window-height="1017"
     inkscape:window-x="-8"
     inkscape:window-y="-8"
     inkscape:window-maximized="1">
    <inkscape:grid
       type="xygrid"
       id="grid2994"
       empspacing="5"
       visible="true"
       enabled="true"
       snapvisiblegridlinesonly="true"
       units="in"
       spacingx="0.014in"
       spacingy="0.014in" />
  </sodipodi:namedview>
  <metadata
     id="metadata7">
    <rdf:RDF>
      <cc:Work
         rdf:about="">
        <dc:format>image/svg+xml</dc:format>
        <dc:type
           rdf:resource="http://purl.org/dc/dcmitype/StillImage" />
        <dc:title />
      </cc:Work>
    </rdf:RDF>
  </metadata>
  <g
     inkscape:label="Body"
     inkscape:groupmode="layer"
     id="layer1"
     class="body"
     transform="translate(0,-962.35975)"
     style="display:inline">
    <path
       transform="translate(90,962.3598)"
       style="fill:#ffffff;fill-opacity:1;stroke:#000000;stroke-width:0;stroke-linecap:round;stroke-miterlimit:4;stroke-dashoffset:0;stroke-opacity:1"
       d="M -9,45 C -9,64.882251 -25.117749,81 -45,81 -64.882251,81 -81,64.882251 -81,45 -81,25.117749 -64.882251,9 -45,9 -25.117749,9 -9,25.117749 -9,45 z"
       id="path3829-1-5-74-4-94-8" />
    <path
       transform="translate(90,962.3598)"
       style="fill:#ffffff;fill-opacity:1;stroke:#000000;stroke-width:4.5;stroke-linecap:round;stroke-miterlimit:4;stroke-dashoffset:0;stroke-opacity:1"
       d="m -8.7867415,45.608276 c 5.864e-4,0.333475 -0.00341,0.665914 -0.011929,0.997256 m -0.1962381,-0.760364 c -0.00939,0.33376 -0.023302,0.666392 -0.041682,0.997836 m -0.3351493,0.281178 c -0.018338,0.333377 -0.041206,0.665539 -0.068545,0.996426 m 0.4152861,-0.10385 c -0.024295,0.334155 -0.053163,0.667027 -0.08654,0.998554 m -0.3927566,-0.54351 c -0.034608,0.331815 -0.073717,0.662311 -0.1172626,0.991425 m 0.2855231,0.273436 c -0.042963,0.332226 -0.090403,0.663002 -0.1422582,0.992266 m -0.3022914,-0.23779 c -0.051254,0.330273 -0.1069585,0.659068 -0.167051,0.986322 m 0.5911666,-0.350306 c -0.058262,0.328575 -0.121006,0.655618 -0.188166,0.981063 m -0.1083589,0.257856 c -0.066407,0.327695 -0.1372848,0.65376 -0.2125654,0.97813 m 0.078589,-0.514257 c -0.075881,0.326588 -0.1561402,0.651457 -0.2407133,0.974542 m -0.04515,0.30796 c -0.08222,0.323697 -0.168832,0.645631 -0.259776,0.965738 m -0.357631,-0.52281 c -0.09042,0.321749 -0.185205,0.641646 -0.284285,0.959624 m -0.120846,0.149473 c -0.09876,0.318843 -0.201843,0.635793 -0.309181,0.950783 m 0.537751,-0.103466 c -0.108825,0.31723 -0.221914,0.632481 -0.339199,0.945686 m 0.0028,-0.04335 c -0.115636,0.312317 -0.235525,0.622591 -0.359597,0.930753 m -0.116611,0.01353 c -0.124133,0.310728 -0.252434,0.61933 -0.384834,0.925738 m 0.331155,0.07328 c -0.130934,0.307279 -0.266021,0.612343 -0.405192,0.915122 m -0.09603,-0.505678 c -0.139034,0.303928 -0.282166,0.605588 -0.429324,0.904909 m -0.113464,-0.159825 c -0.146536,0.299912 -0.297113,0.597471 -0.451658,0.892605 m -0.422461,0.340946 c -0.153282,0.295252 -0.310561,0.588103 -0.471765,0.878481 m 0.447367,-0.03513 c -0.161214,0.291538 -0.326372,0.580599 -0.495404,0.867109 m 0.175291,-0.361823 c -0.169594,0.28637 -0.343058,0.570231 -0.520319,0.85151 m -0.0046,0.293736 c -0.175882,0.282877 -0.355581,0.563111 -0.539027,0.840631 m -0.245465,-0.104029 c -0.183466,0.278552 -0.370677,0.554416 -0.561561,0.827517 m 0.359938,-0.829537 c -0.189082,0.275307 -0.381881,0.547836 -0.578325,0.817515 m 0.249222,0.52491 c -0.19716,0.269264 -0.397973,0.535708 -0.602365,0.79926 m 0.135715,0.204244 c -0.202965,0.26345 -0.409529,0.523999 -0.619618,0.781573 m 0.0061,-0.0485 c -0.210869,0.25958 -0.425247,0.516183 -0.643062,0.769736 m -0.221879,-8.65e-4 c -0.216312,0.254234 -0.436076,0.505407 -0.65922,0.753446 m -0.144516,-0.924331 c -0.223146,0.247335 -0.449666,0.491587 -0.679488,0.732682 m 0.263945,0.749635 c -0.228992,0.243763 -0.461296,0.484337 -0.69684,0.721649 m 0.858669,-0.584311 c -0.03852,0.03895 -0.07712,0.07782 -0.115818,0.116595 -0.196729,0.19715 -0.395741,0.392027 -0.596994,0.584589 m -0.217048,0.123944 c -0.239927,0.230792 -0.483085,0.458295 -0.729399,0.682436 m -0.192167,-0.405281 c -0.246547,0.224441 -0.496209,0.44551 -0.748914,0.663132 m 0.516774,-0.307798 c -0.250458,0.218738 -0.503993,0.434041 -0.760533,0.645839 m -0.715191,1.01947 c -0.257277,0.212623 -0.517524,0.421734 -0.780669,0.627263 m 0.198636,-1.195842 c -0.263315,0.204424 -0.529544,0.405305 -0.798615,0.602569 m 0.405779,0.695832 c -0.266483,0.198738 -0.535847,0.393845 -0.808019,0.585251 m 0.283799,0.188815 c -0.271154,0.192719 -0.545108,0.381761 -0.821791,0.567055 m -0.481764,-1.138226 c -0.276807,0.18565 -0.556308,0.367563 -0.838431,0.545666 m 0.287814,1.143516 c -0.282444,0.178817 -0.5675,0.353827 -0.855096,0.524959 m 0.03424,-0.609452 c -0.286444,0.170125 -0.575439,0.336421 -0.866915,0.498815 m 0.653178,0.406556 c -0.290248,0.163914 -0.58299,0.323935 -0.878156,0.479994 m -0.06793,-0.387454 c -0.295044,0.157549 -0.59249,0.311109 -0.89227,0.460609 m -0.190841,-0.136225 c -0.298945,0.148761 -0.600216,0.293534 -0.90374,0.434248 m -0.09327,0.442935 c -0.301542,0.142322 -0.605346,0.280571 -0.911344,0.414678 m 0.175133,-0.355956 c -0.304809,0.133784 -0.611825,0.263455 -0.920978,0.388944 m -0.238502,-0.187519 c -0.307351,0.125525 -0.616833,0.246902 -0.928377,0.36406 m 0.491562,-0.163187 c -0.311184,0.118015 -0.624455,0.231845 -0.939745,0.341421 m 0.07102,0.165285 c -0.312813,0.10966 -0.627658,0.215096 -0.944466,0.316237 m 0.03733,-0.597493 c -0.317189,0.101403 -0.636282,0.198559 -0.95721,0.2914 m 0.521901,0.397954 c -0.318753,0.09494 -0.639345,0.185542 -0.961709,0.271738 M -35.77807,79.31891 c -0.322478,0.085 -0.646719,0.1657 -0.972655,0.242044 m -0.391937,0.797817 c -0.323323,0.07835 -0.648343,0.152338 -0.974994,0.221901 m 0.549099,-0.488327 c -0.325156,0.06956 -0.651949,0.134722 -0.980313,0.195415 m 0.188667,0.230155 c -0.327941,0.06213 -0.657423,0.119856 -0.988381,0.173108 M -39.406,80.499394 c -0.328933,0.05207 -0.659339,0.09972 -0.991155,0.14289 m 0.821622,-0.205041 c -0.329391,0.0445 -0.660224,0.08456 -0.992437,0.120121 m -0.947519,0.290544 c -0.329532,0.03697 -0.660423,0.06945 -0.99261,0.09739 m 0.73871,-0.440979 c -0.332346,0.02781 -0.66596,0.05116 -1.000781,0.06998 m -0.182,0.535926 c -0.331118,0.02016 -0.663461,0.03582 -0.996968,0.04692 m 0.276056,-0.180779 c -0.33257,0.01085 -0.666284,0.01723 -1.001081,0.01908 m -0.0917,-0.478967 c -0.136239,0.0015 -0.272657,0.0022 -0.40925,0.0021 -0.19799,-6.8e-5 -0.395602,-0.0017 -0.592825,-0.005 m 0.288453,0.740778 c -0.3355,-0.004 -0.669876,-0.01258 -1.003071,-0.02566 m -0.01579,-0.291532 c -0.33433,-0.01269 -0.667475,-0.02993 -0.999376,-0.05165 m 0.697721,0.471884 c -0.333807,-0.02218 -0.666377,-0.04887 -0.997648,-0.08002 m 0.08949,-0.344169 c -0.332022,-0.0306 -0.662789,-0.0657 -0.992238,-0.105254 m -0.541437,0.409834 c -0.331181,-0.03678 -0.661002,-0.07811 -0.9894,-0.123937 m -0.08839,-0.642433 c -0.330382,-0.04592 -0.659335,-0.09636 -0.986796,-0.151235 m 0.51761,0.263687 c -0.330454,-0.05424 -0.659381,-0.112952 -0.986717,-0.17608 m 0.135052,-0.518006 c -0.329314,-0.06335 -0.657003,-0.131128 -0.983003,-0.203283 m 0.396019,0.698503 c -0.326339,-0.0718 -0.65102,-0.148013 -0.973977,-0.228574 m -0.419456,-0.126709 c -0.324994,-0.07802 -0.648277,-0.160456 -0.969781,-0.247253 m 0.467498,-0.273605 c -0.321401,-0.0886 -0.64105,-0.181535 -0.958879,-0.278731 m -0.271285,0.247593 c -0.321,-0.09625 -0.640115,-0.196832 -0.957277,-0.301675 m -0.05455,-0.126851 c -0.316477,-0.103006 -0.631047,-0.210319 -0.94364,-0.321871 m -0.304092,0.35589 c -0.314389,-0.111145 -0.626753,-0.226544 -0.937024,-0.346129 m 0.415731,-0.328396 c -0.312777,-0.118758 -0.623438,-0.241732 -0.931913,-0.368852 m 0.647653,0.172124 c -0.308625,-0.127452 -0.615089,-0.259081 -0.919324,-0.394817 m -0.826252,-0.08856 c -0.304975,-0.136459 -0.607698,-0.276979 -0.908098,-0.421492 m 0.606983,0.233875 c -0.302192,-0.14336 -0.602057,-0.290767 -0.899525,-0.442149 m 0.491615,-0.09457 c -0.29647,-0.15146 -0.590595,-0.306895 -0.882303,-0.466235 m -0.294195,0.464523 c -0.294963,-0.156977 -0.58746,-0.317942 -0.87742,-0.482822 m 0.149235,-0.04053 c -0.289818,-0.165494 -0.577135,-0.334902 -0.861879,-0.508151 m -0.274392,-0.274313 c -0.284914,-0.173021 -0.567246,-0.349892 -0.846925,-0.530543 m 0.04114,-0.380234 c -0.281658,-0.1789 -0.56063,-0.361605 -0.836843,-0.548042 m 0.235438,0.32661 c -0.276506,-0.18747 -0.55027,-0.378665 -0.821217,-0.573515 m 0.280298,0.505623 c -0.272846,-0.193321 -0.542864,-0.390326 -0.809982,-0.590941 m 0.12816,-0.318492 c -0.266394,-0.199495 -0.529938,-0.402611 -0.79056,-0.609275 m 0.293018,0.50749 c -0.261567,-0.207288 -0.52018,-0.41812 -0.775765,-0.632424 m -0.691437,0.03557 c -0.256182,-0.213637 -0.50935,-0.430758 -0.759431,-0.651289 m 0.11022,-0.628198 c -0.25188,-0.218528 -0.500662,-0.4405 -0.746272,-0.665842 m 0.175107,0.810771 c -0.246134,-0.224884 -0.489096,-0.453148 -0.728813,-0.684719 m 1.012234,-0.660603 c -0.137544,-0.134193 -0.274035,-0.269465 -0.409457,-0.405803 -0.09988,-0.100549 -0.199169,-0.201679 -0.297876,-0.303382 m -0.242898,0.569558 c -0.232929,-0.237038 -0.462597,-0.477341 -0.68893,-0.720836 m 0.146068,-0.336347 c -0.227134,-0.243746 -0.450936,-0.49062 -0.671331,-0.740549 m -0.351049,0.605377 c -0.222262,-0.248372 -0.441087,-0.49986 -0.656403,-0.754391 m -0.415966,-0.07859 c -0.215837,-0.255 -0.428188,-0.513026 -0.636982,-0.774003 m 0.508595,0.643596 c -0.207685,-0.258752 -0.411864,-0.520493 -0.612463,-0.78515 m 0.360143,-0.740357 c -0.201126,-0.266093 -0.398663,-0.535029 -0.592537,-0.806736 m 0.27034,0.04282 c -0.194,-0.26938 -0.384384,-0.541597 -0.571076,-0.816577 m -0.198222,0.501578 c -0.188601,-0.275375 -0.373504,-0.553494 -0.554637,-0.834285 m 0.138698,0.105385 c -0.181695,-0.278305 -0.35962,-0.559331 -0.533702,-0.843006 m -0.136008,-0.09965 c -0.174965,-0.283079 -0.346106,-0.568772 -0.513353,-0.857008 m 0.277375,0.476304 c -0.168084,-0.289376 -0.332259,-0.581263 -0.492454,-0.875589 m -0.12127,-0.293562 c -0.159547,-0.292799 -0.315149,-0.588046 -0.466736,-0.885672 m -0.324599,0.274958 c -0.151329,-0.295424 -0.298688,-0.593246 -0.442003,-0.893394 m 0.254409,-0.435377 c -0.144893,-0.29983 -0.285769,-0.60196 -0.422558,-0.906319 m 0.504016,0.540077 c -0.138416,-0.303001 -0.272748,-0.60824 -0.402927,-0.915648 m 0.143669,0.192294 c -0.130538,-0.307686 -0.256943,-0.617513 -0.379147,-0.929412 m -0.329036,0.01272 c -0.121649,-0.310196 -0.239141,-0.622491 -0.352407,-0.936817 m -0.156956,-0.222749 c -0.114435,-0.312826 -0.224628,-0.627658 -0.330512,-0.944427 m -0.02521,-0.07669 c -0.106008,-0.31606 -0.207767,-0.634039 -0.305208,-0.953869 m -0.04605,0.223566 c -0.09823,-0.317877 -0.192156,-0.637622 -0.281719,-0.959168 m -0.0845,0.160593 c -0.09096,-0.321683 -0.177581,-0.645134 -0.259785,-0.970287 m 0.369901,0.284742 c -0.08239,-0.322105 -0.160426,-0.645953 -0.234037,-0.971478 m -0.580776,0.09405 c -0.07435,-0.323802 -0.144305,-0.649302 -0.209795,-0.976436 m 0.499493,-0.04638 c -0.06398,-0.326315 -0.123598,-0.654241 -0.17879,-0.983713 m 0.269635,0.17193 c -0.05671,-0.326914 -0.10899,-0.655363 -0.156769,-0.985282 m -0.217073,-0.156001 c -0.0497,-0.328547 -0.09493,-0.658558 -0.135641,-0.98997 m -0.334319,0.572986 c -0.04104,-0.328757 -0.07759,-0.658952 -0.109593,-0.990522 m 0.749456,-0.137208 c -0.03159,-0.330085 -0.05874,-0.661489 -0.08139,-0.99415 m -0.0416,0.278437 c -0.02473,-0.330717 -0.04495,-0.662715 -0.06062,-0.995931 m -0.300118,0.409967 c -0.01639,-0.331339 -0.02829,-0.663878 -0.03563,-0.997559 m 0.116004,-0.712045 c -0.0068,-0.269608 -0.01059,-0.539937 -0.01137,-0.810956 -1.81e-4,-0.06277 -2.01e-4,-0.125511 -5.8e-5,-0.188209 m -0.04347,0.49332 c 0.0012,-0.334558 0.0069,-0.66805 0.01717,-1.000416 m 0.19623,-0.486167 c 0.0078,-0.333961 0.02015,-0.66678 0.03704,-0.9984 m -0.278369,0.853742 c 0.01717,-0.335015 0.03889,-0.668805 0.06511,-1.001311 m -0.24723,0.135355 c 0.0251,-0.333741 0.05474,-0.666198 0.08886,-0.997311 m 0.17371,0.114962 c 0.03392,-0.333028 0.07237,-0.664732 0.115285,-0.99505 m -0.536441,-0.856687 c 0.0429,-0.331633 0.09031,-0.661837 0.142151,-0.990547 m 0.723797,0.535983 c 0.05152,-0.329231 0.10754,-0.656983 0.167982,-0.98319 m -0.331315,0.01425 c 0.05923,-0.328864 0.12293,-0.656175 0.191041,-0.981867 m -0.519674,0.02622 c 0.06845,-0.32752 0.141311,-0.653391 0.218527,-0.977549 m 0.37876,0.860437 c 0.07645,-0.324433 0.157286,-0.647195 0.242436,-0.96822 m 0.301324,-0.968139 c 0.08503,-0.323766 0.174423,-0.645725 0.268109,-0.965811 m 0.425019,1.111934 c 0.09255,-0.321044 0.189412,-0.640249 0.290532,-0.957548 m -1.117289,-0.367379 c 0.100961,-0.319518 0.206226,-0.637096 0.31573,-0.952665 m 0.794763,0.124605 c 0.108686,-0.31577 0.221636,-0.629565 0.338783,-0.941318 m 0.157003,-0.158605 c 0.115409,-0.313003 0.235037,-0.623941 0.358816,-0.932745 m -0.60902,0.562668 c 0.124438,-0.309601 0.253059,-0.617085 0.385793,-0.922383 m 0.591809,-0.014 c 0.130624,-0.306866 0.265405,-0.611538 0.404271,-0.913945 m -0.986425,0.156214 c 0.13861,-0.302047 0.281329,-0.601852 0.428087,-0.899345 m 0.346803,-0.375096 c 0.146536,-0.298248 0.297136,-0.594167 0.451731,-0.887685 m -0.100934,0.254976 c 0.154748,-0.29487 0.313467,-0.587338 0.476086,-0.877332 m -0.648373,-0.138376 c 0.162699,-0.290639 0.329318,-0.578814 0.499784,-0.864452 m 0.680882,0.18299 c 0.169343,-0.28752 0.342545,-0.572473 0.519534,-0.854789 m -0.34626,-0.369029 c 0.17524,-0.282842 0.354323,-0.563052 0.537176,-0.840556 m 0.737386,1.169128 c 0.183807,-0.278622 0.371378,-0.554558 0.562638,-0.827735 m -1.048772,-0.745977 c 0.191616,-0.272805 0.386936,-0.542861 0.585888,-0.810096 m -0.02848,0.914577 c 0.196112,-0.268069 0.395889,-0.533337 0.599258,-0.795729 m -0.05474,-0.286129 c 0.204875,-0.262944 0.413316,-0.523017 0.62525,-0.780145 m 0.534252,-0.07378 c 0.211394,-0.259223 0.4263,-0.515466 0.644646,-0.768657 m -0.282431,0.0075 c 0.217679,-0.254198 0.4388,-0.50533 0.66329,-0.753321 m 0.340078,0.285044 c 0.222194,-0.248451 0.447774,-0.49378 0.676667,-0.735914 m -0.12284,-0.152771 c 0.227921,-0.243006 0.459181,-0.482808 0.693708,-0.719334 m -0.607676,-0.07506 c 0.02833,-0.02845 0.0567,-0.05684 0.08512,-0.08519 0.207414,-0.206901 0.41735,-0.411288 0.629756,-0.613111 m 0.02481,0.427476 c 0.241927,-0.229235 0.487016,-0.455166 0.735194,-0.67772 m 0.357038,-0.120978 c 0.245711,-0.22477 0.494551,-0.446154 0.746448,-0.66408 m 0.008,-0.274539 c 0.250645,-0.219207 0.504383,-0.434935 0.761143,-0.647113 m -0.560719,-0.0426 c 0.257297,-0.211292 0.517582,-0.419094 0.78078,-0.623331 m 0.503504,1.003063 c 0.261491,-0.205121 0.525919,-0.406695 0.793212,-0.604649 m -0.543485,-0.800298 c 0.268443,-0.199659 0.539732,-0.395674 0.813795,-0.587971 m 0.275488,0.977634 c 0.27234,-0.190661 0.54743,-0.377676 0.825197,-0.560974 m -0.487633,-0.402512 c 0.276634,-0.184014 0.555965,-0.364313 0.837919,-0.540826 m 0.06136,-0.442344 c 0.282812,-0.178783 0.568247,-0.353748 0.856233,-0.524823 m -0.284965,0.65176 c 0.287174,-0.170759 0.576907,-0.337675 0.869127,-0.500676 m 0.426246,-0.185342 c 0.290092,-0.164361 0.582668,-0.324811 0.877657,-0.481279 m 0.03736,-0.03864 c 0.293533,-0.155851 0.589504,-0.307748 0.887841,-0.455618 m -0.218017,-0.184442 c 0.299229,-0.149166 0.600759,-0.294284 0.904518,-0.435284 m -0.02123,0.259135 c 0.302464,-0.142232 0.607189,-0.280389 0.914106,-0.414401 m -0.785676,0.317665 c 0.305839,-0.133301 0.613861,-0.262489 0.923998,-0.387495 m 0.251924,-0.550367 c 0.308725,-0.125043 0.619567,-0.24595 0.932456,-0.36265 m -0.138352,0.591049 c 0.31245,-0.117484 0.62695,-0.230794 0.94343,-0.33986 m 0.128593,0.463537 c 0.314415,-0.111075 0.630802,-0.217917 0.949094,-0.320458 m -0.637557,-0.771303 c 0.317997,-0.102953 0.637882,-0.201615 0.959588,-0.295918 m 0.415301,0.408107 c 0.318332,-0.09425 0.638523,-0.184181 0.960507,-0.269741 m -0.825752,-0.253021 c 0.320953,-0.086358 0.64371,-0.1683619 0.968203,-0.2459464 m 0.79448,0.2212754 c 0.323118,-0.078064 0.647928,-0.1517711 0.974364,-0.2210543 m -0.765617,0.043615 c 0.325901,-0.06936 0.653421,-0.1343284 0.982494,-0.1948399 m -0.107807,0.118447 c 0.325945,-0.061063 0.653453,-0.1177034 0.98246,-0.1698553 m 0.293597,0.4615952 c 0.327146,-0.053197 0.655794,-0.1019466 0.98588,-0.1461861 m -0.0172,-0.5744144 c 0.329663,-0.044683 0.66073,-0.084903 0.99314,-0.1205983 m -0.218314,0.2595345 c 0.329829,-0.035032 0.661015,-0.065617 0.993497,-0.091692 m -0.181981,-0.2130249 c 0.332042,-0.028683 0.665351,-0.052874 0.999867,-0.072514 m -0.222577,0.1419175 c 0.332862,-0.018882 0.666931,-0.033296 1.002147,-0.043184 m 0.413224,-0.4010167 c 0.331719,-0.010879 0.664557,-0.017239 0.998457,-0.019021 m -0.640586,0.2126524 c 0.122045,-0.00163 0.244236,-0.00264 0.366568,-0.00304 0.211068,-6.866e-4 0.421708,4.616e-4 0.631906,0.00343 m 0.121072,0.5681577 c 0.333853,0.00565 0.666599,0.015825 0.998178,0.030471 m 0.139853,-0.7545239 c 0.333092,0.012292 0.665044,0.029156 0.995794,0.05053 m -0.468919,0.3284751 c 0.332322,0.020388 0.663446,0.045348 0.993308,0.074819 m 0.169615,-0.1526427 c 0.331758,0.030297 0.662234,0.065092 0.991364,0.1043244 m -0.19499,0.082233 c 0.330747,0.038066 0.660159,0.080634 0.988173,0.1276424 m -0.508625,-0.3940265 c 0.331024,0.045426 0.660611,0.095387 0.988696,0.1498185 m 0.214945,0.7089587 c 0.329178,0.054086 0.656852,0.112643 0.982956,0.175604 m -0.325007,-0.6962546 c 0.329178,0.063144 0.656744,0.1307359 0.982634,0.2027116 m 0.525202,0.550631 c 0.327064,0.07123 0.652468,0.146877 0.976147,0.226889 m -0.527195,-0.3954945 c 0.325476,0.079634 0.64922,0.1636535 0.971165,0.2519915 m -0.283274,-0.190418 c 0.322138,0.08855 0.642487,0.181427 0.960979,0.278571 m 0.08419,0.13164 c 0.320117,0.09668 0.638357,0.197667 0.954652,0.302896 m -0.0803,0.21696 c 0.316329,0.104598 0.630738,0.213464 0.94316,0.326529 m -0.496542,-0.402274 c 0.314382,0.111802 0.626745,0.227855 0.937021,0.348091 m 0.01523,0.387548 c 0.311106,0.118729 0.620154,0.241699 0.927073,0.368839 m 0.282462,0.115201 c 0.307143,0.128542 0.612135,0.261208 0.914907,0.397929 m 0.0064,-0.273022 c 0.305004,0.136335 0.607783,0.276769 0.908267,0.421231 m 0.09726,-0.03064 c 0.301359,0.143632 0.6004,0.291324 0.897054,0.443006 m -0.148831,-0.21059 c 0.297594,0.150864 0.592799,0.305736 0.885544,0.464544 m -0.330864,0.124069 c 0.293169,0.159129 0.583903,0.322207 0.872129,0.489162 m -0.153521,-0.425447 c 0.290672,0.166316 0.578784,0.336531 0.864266,0.510573 m -0.05618,-0.412548 c 0.286292,0.172778 0.569964,0.349391 0.850944,0.52977 m -0.07839,0.11033 c 0.281823,0.180692 0.560956,0.365151 0.83733,0.553306 m 0.146242,0.198287 c 0.277527,0.185935 0.552307,0.375618 0.824268,0.568975 m -0.483596,0.126176 c 0.270855,0.193651 0.538931,0.390978 0.804154,0.591907 m 0.248772,0.151854 c 0.267194,0.201181 0.531498,0.40597 0.792838,0.614293 m -0.208304,-0.113031 c 0.261707,0.207099 0.520453,0.417746 0.776166,0.631868 m -0.230563,-0.217424 c 0.255656,0.214471 0.508325,0.432434 0.757935,0.653817 M -21.339164,17.879 c 0.250148,0.220872 0.497211,0.445131 0.741116,0.672705 m -0.156259,-0.01634 c 0.246139,0.224969 0.489108,0.453333 0.728835,0.685017 m 0.270624,0.366165 c 0.136123,0.130903 0.271213,0.262862 0.405255,0.395863 0.102575,0.101779 0.204537,0.204167 0.30588,0.307161 m -0.559303,-0.496557 c 0.234462,0.237524 0.465638,0.478269 0.693456,0.722162 m -0.263323,-0.390406 c 0.227918,0.242903 0.452488,0.488992 0.673638,0.738193 m 0.171291,0.418651 c 0.220948,0.249652 0.438497,0.502388 0.652574,0.758135 m -0.03195,-0.389871 c 0.214621,0.254975 0.425802,0.512956 0.63347,0.773873 m 0.640156,-0.04532 c 0.209076,0.260519 0.414596,0.523979 0.616489,0.790308 m -0.714276,-0.09947 c 0.202236,0.264821 0.400875,0.532514 0.595847,0.803005 m 0.153058,0.01902 c 0.194438,0.270922 0.385256,0.544653 0.572379,0.821118 m -0.16415,-0.142783 c 0.18751,0.274148 0.371327,0.551057 0.551378,0.830654 m -0.118015,0.132333 c 0.180662,0.280098 0.357579,0.562859 0.530678,0.84821 m 0.379058,-0.560013 c 0.174927,0.285144 0.346,0.572898 0.513145,0.863189 m -0.536233,0.0098 c 0.166268,0.288091 0.328682,0.578713 0.487167,0.871794 m -0.37504,0.521747 c 0.159265,0.292008 0.314635,0.586479 0.46604,0.883341 m 0.926198,-0.787935 c 0.151039,0.297517 0.298106,0.597399 0.44113,0.899575 m -0.480775,0.792147 c 0.145132,0.29949 0.286214,0.601283 0.423178,0.905307 m 0.426819,-0.879431 c 0.137321,0.302163 0.27055,0.6066 0.399617,0.91324 m -0.468856,-0.274862 c 0.12982,0.307719 0.255513,0.61759 0.37701,0.929544 m -0.242935,0.14878 c 0.12052,0.31037 0.236885,0.622827 0.349027,0.937302 m 0.114198,0.06169 c 0.112775,0.312681 0.221358,0.627401 0.325679,0.944092 m -0.308374,-0.135239 c 0.106482,0.316366 0.208709,0.634669 0.306611,0.954843 m 0.256505,0.240614 c 0.09856,0.319317 0.192824,0.640488 0.282723,0.963444 m 0.210069,-0.247191 c 0.09036,0.320829 0.1763701,0.643442 0.2579651,0.967774 m -0.4309681,-0.01797 c 0.08234,0.323641 0.16031,0.649001 0.23386,0.976014 m 0.4436729,-0.116973 c 0.072254,0.324124 0.1401455,0.649917 0.2036077,0.977314 m -0.6720126,-0.271462 c 0.06498,0.326576 0.125571,0.654745 0.181719,0.984441 m 0.1399732,0.05002 c 0.055611,0.328875 0.1068207,0.659242 0.1535638,0.991036 m 0.063688,-0.04305 c 0.049532,0.329685 0.094588,0.660812 0.1351047,0.993319 m -0.3439482,-0.227537 c 0.041284,0.331213 0.078084,0.663779 0.1103367,0.997635 m 0.3172501,-0.109301 c 0.032007,0.33183 0.059537,0.664939 0.082527,0.999266 m -0.2475859,0.376592 c 0.02377,0.331273 0.04306,0.663782 0.057811,0.997468 m 0.3824211,-0.506973 c 0.015133,0.332404 0.02577,0.665984 0.031852,1.000679 m -0.547002,-0.399616 c 0.00426,0.253573 0.00592,0.5078 0.00495,0.762657 -1.26e-4,0 -2.515e-4,0 -3.765e-4,0 -1.717e-4,0.04577 -4.278e-4,0.09152 -7.682e-4,0.13725"
       id="path3829-1-5-74-4-94-0" />
  </g>
</svg>
