<!--?xml version="1.0" encoding="UTF-8" standalone="no"?--><!-- Created with Inkscape (http://www.inkscape.org/) --><svg xmlns:dc="http://purl.org/dc/elements/1.1/" xmlns:cc="http://creativecommons.org/ns#" xmlns:rdf="http://www.w3.org/1999/02/22-rdf-syntax-ns#" xmlns:svg="http://www.w3.org/2000/svg" xmlns="http://www.w3.org/2000/svg" xmlns:sodipodi="http://sodipodi.sourceforge.net/DTD/sodipodi-0.dtd" xmlns:inkscape="http://www.inkscape.org/namespaces/inkscape" width="100%" height="100%" viewBox="0 0 90 90" id="svg2" version="1.1" inkscape:version="0.48.4 r9939" sodipodi:docname="C:\git\dougrich.net\token-builder\token-builder-content\template.svg" class="long-curly" data-z="900" data-slots="hair" data-tags="hair">
  <defs id="defs4"/>
  <sodipodi:namedview id="base" pagecolor="#ffffff" bordercolor="#666666" borderopacity="1.0" inkscape:pageopacity="0.0" inkscape:pageshadow="2" inkscape:zoom="0.99780064" inkscape:cx="-120.02104" inkscape:cy="48.865155" inkscape:document-units="in" inkscape:current-layer="layer1" showgrid="false" units="in" inkscape:window-width="1920" inkscape:window-height="1003" inkscape:window-x="-9" inkscape:window-y="-9" inkscape:window-maximized="1">
    <inkscape:grid type="xygrid" id="grid2994" empspacing="5" visible="true" enabled="true" snapvisiblegridlinesonly="true" units="in" spacingx="0.014in" spacingy="0.014in"/>
  </sodipodi:namedview>
  <metadata id="metadata7">
    <rdf:rdf>
      <cc:work rdf:about="">
        <dc:format>image/svg+xml</dc:format>
        <dc:type rdf:resource="http://purl.org/dc/dcmitype/StillImage"/>
        <dc:title/>
      </cc:work>
    </rdf:rdf>
  </metadata>
  <g inkscape:label="Body" inkscape:groupmode="layer" id="layer1" class="hair" transform="translate(0,-962.35975)" style="display:inline">
    <path style="fill:#ffffff;fill-opacity:1;stroke:#000000;stroke-width:4.5;stroke-linecap:butt;stroke-linejoin:miter;stroke-miterlimit:4;stroke-opacity:1;stroke-dasharray:none;display:inline" d="m 54,980.3598 c -4.22303,0.4074 -4.81669,8.2929 -9,9 -3.28595,0.5553 -5.78257,-5.2219 -9,-4.3535 -5.18234,1.3986 -4.26101,10.8326 -9,13.3535 -2.64859,1.4088 -8.31074,-2.9198 -9,0 l 0,0 c 1.07454,3.1545 -4.35348,5.6674 -4.35348,8.9999 0,3.3326 3.60909,5.7517 4.35348,9 0.67011,2.9242 0,6 0,9 0,3 2.12132,6.8787 0,9 -2.12132,2.1213 -6.45844,1.5939 -9,0 -2.82329,-1.7705 -4.35348,-5.6674 -4.35348,-9 0,-3.3325 4.35348,-5.6674 4.35348,-9 0,-3.3325 -4.35348,-5.6674 -4.35348,-9 0,-3.3325 3.60909,-5.7516 4.35348,-8.9999 0.67011,-2.9242 -0.70813,-6.0848 0,-9 0.79694,-3.2809 2.65472,-6.2739 4.64652,-9 1.21071,-1.6571 2.61649,-3.2605 4.35348,-4.3535 3.95448,-2.4884 8.792,-3.168 13.22411,-4.6465 4.56831,-1.524 8.96293,-4.1879 13.77589,-4.3535 6.16934,-0.2123 12.2161,2.1965 18,4.3535 3.16342,1.1797 6.27389,2.6547 9,4.6465 3.42569,2.5029 7.37641,5.0803 9,9 4.23187,13.4751 0.58168,6.1203 0.40746,22.3534 0.35464,3.3136 4.35348,5.6675 4.35348,9 0,3.3326 -4.35348,5.6675 -4.35348,9 0,3.3326 5.61552,5.9157 4.35348,9 -1.79022,4.3752 -8.63851,5.1169 -13.35348,4.7759 -3.38738,-0.245 -7.94394,-1.548 -9,-4.7759 -1.03626,-3.1673 3.55633,-5.7642 4.35348,-9 0.71799,-2.9144 -0.42495,-6.0855 0.29304,-9 0.79715,-3.2358 3.99884,-5.6864 4.35348,-9 0.65691,-6.1379 0.49749,-14.1824 -4.35348,-17.9999 -0.18349,-0.1444 -0.47719,0.068 -0.7005,0 -5.1335,-1.5685 -8.01053,-9.5155 -13.35348,-9 z" id="path4725" inkscape:connector-curvature="0" sodipodi:nodetypes="aaaaaaaaaaaaaaaaaaaaaaccaaaaaaaaaaa"/>
  </g>
</svg>
