<?xml version="1.0" encoding="UTF-8" standalone="no"?>
<!-- Created with Inkscape (http://www.inkscape.org/) -->

<svg
   xmlns:dc="http://purl.org/dc/elements/1.1/"
   xmlns:cc="http://creativecommons.org/ns#"
   xmlns:rdf="http://www.w3.org/1999/02/22-rdf-syntax-ns#"
   xmlns:svg="http://www.w3.org/2000/svg"
   xmlns="http://www.w3.org/2000/svg"
   xmlns:sodipodi="http://sodipodi.sourceforge.net/DTD/sodipodi-0.dtd"
   xmlns:inkscape="http://www.inkscape.org/namespaces/inkscape"
   width="100%"
   height="100%"
   viewBox="0 0 90 90"
   id="svg2"
   version="1.1"
   inkscape:version="0.48.4 r9939"
   sodipodi:docname="long-straight.svg"
   class="long-straight">
  <defs
     id="defs4" />
  <sodipodi:namedview
     id="base"
     pagecolor="#ffffff"
     bordercolor="#666666"
     borderopacity="1.0"
     inkscape:pageopacity="0.0"
     inkscape:pageshadow="2"
     inkscape:zoom="11.288826"
     inkscape:cx="32.06515"
     inkscape:cy="52.459476"
     inkscape:document-units="in"
     inkscape:current-layer="layer1"
     showgrid="false"
     units="in"
     inkscape:window-width="1920"
     inkscape:window-height="1017"
     inkscape:window-x="-8"
     inkscape:window-y="-8"
     inkscape:window-maximized="1">
    <inkscape:grid
       type="xygrid"
       id="grid2994"
       empspacing="5"
       visible="true"
       enabled="true"
       snapvisiblegridlinesonly="true"
       units="in"
       spacingx="0.014in"
       spacingy="0.014in" />
  </sodipodi:namedview>
  <metadata
     id="metadata7">
    <rdf:RDF>
      <cc:Work
         rdf:about="">
        <dc:format>image/svg+xml</dc:format>
        <dc:type
           rdf:resource="http://purl.org/dc/dcmitype/StillImage" />
        <dc:title />
      </cc:Work>
    </rdf:RDF>
  </metadata>
  <g
     inkscape:label="Body"
     inkscape:groupmode="layer"
     id="layer1"
     class="hair"
     transform="translate(0,-962.35975)"
     style="display:inline">
    <path
       style="fill:#ffffff;fill-opacity:1;stroke:#000000;stroke-width:4.5;stroke-linecap:round;stroke-linejoin:miter;stroke-miterlimit:4;stroke-opacity:1;stroke-dasharray:none;display:inline"
       d="M 36.487207,993.05773 34.371248,985.67479 27,998.3598 24.696837,988.03105 c 0,0 -4.16128,5.94019 -5.190923,9.35434 C 17.67397,1003.4598 18,1016.3598 18,1016.3598 l 0,18 0,3.8753 -9.17565,6.5471 c 0,0 0.20793,-25.4753 0.17565,-43.0564 -0.0125,-6.8036 3.52816,-15.9088 9,-21.366 5.69537,-5.6803 14.35985,-7.8147 22.2637,-9.3084 4.50026,-0.8505 9.29099,-0.7939 13.7363,0.3084 6.51105,1.6144 13.25658,4.2565 18,9 10.21441,10.6276 9.09837,23.5239 9,36 0,10.0784 0,30.2352 0,30.2352 l -9,-7.7431 0,-9.1358 0,-18.5022 c 0,0 0,-7.6808 0,-12.8541 0,-8.4853 -13.19937,-18 -18,-18 -7.56396,-0.4849 -17.512793,12.8751 -17.512793,12.8751"
       id="path4516"
       inkscape:connector-curvature="0"
       sodipodi:nodetypes="ccccaccccsaaaccccccscc" />
  </g>
</svg>
