<!--?xml version="1.0" encoding="UTF-8" standalone="no"?--><!-- Created with Inkscape (http://www.inkscape.org/) --><svg xmlns:dc="http://purl.org/dc/elements/1.1/" xmlns:cc="http://creativecommons.org/ns#" xmlns:rdf="http://www.w3.org/1999/02/22-rdf-syntax-ns#" xmlns:svg="http://www.w3.org/2000/svg" xmlns="http://www.w3.org/2000/svg" xmlns:sodipodi="http://sodipodi.sourceforge.net/DTD/sodipodi-0.dtd" xmlns:inkscape="http://www.inkscape.org/namespaces/inkscape" width="100%" height="100%" viewBox="0 0 90 90" id="svg2" version="1.1" inkscape:version="0.48.4 r9939" sodipodi:docname="magic (left).svg" class="magic-left" data-z="1200" data-slots="left-weapon" data-tags="left-hand+weapon">
  <defs id="defs4"/>
  <sodipodi:namedview id="base" pagecolor="#ffffff" bordercolor="#666666" borderopacity="1.0" inkscape:pageopacity="0.0" inkscape:pageshadow="2" inkscape:zoom="5.6444128" inkscape:cx="87.043194" inkscape:cy="30.553705" inkscape:document-units="in" inkscape:current-layer="svg2" showgrid="false" units="in" inkscape:window-width="1920" inkscape:window-height="1017" inkscape:window-x="-8" inkscape:window-y="-8" inkscape:window-maximized="1">
    <inkscape:grid type="xygrid" id="grid2994" empspacing="5" visible="true" enabled="true" snapvisiblegridlinesonly="true" units="in" spacingx="0.014in" spacingy="0.014in"/>
  </sodipodi:namedview>
  <metadata id="metadata7">
    <rdf:rdf>
      <cc:work rdf:about="">
        <dc:format>image/svg+xml</dc:format>
        <dc:type rdf:resource="http://purl.org/dc/dcmitype/StillImage"/>
        <dc:title/>
      </cc:work>
    </rdf:rdf>
  </metadata>
  <g inkscape:label="Body" inkscape:groupmode="layer" id="layer1" class="secondary" transform="translate(0,-962.35975)" style="display:inline">
    <path style="fill:#b4b4b4;fill-opacity:0.50196078;stroke:#000000;stroke-width:0;stroke-linecap:butt;stroke-linejoin:miter;stroke-miterlimit:4;stroke-opacity:1;stroke-dasharray:none" d="m 12.0086,1009.5617 c 0,1.8 -3.4012,-2.9307 -5.4,-2.6987 -2.3272,0.2701 -4.8678,2.2172 -5.4,4.4987 -0.6718,2.8798 3.9801,5.1755 3.6,8.1081 -0.2466,1.9029 -3.19,2.6174 -3.6,4.4919 -0.5286,2.4168 0.6711,4.9988 1.8,7.2 1.2709,2.4781 2.6699,5.8251 5.4,6.3753 3.2991,0.6648 5.6346,-4.5641 9,-4.5753 4.0249,-0.013 7.1987,7.1974 10.8,5.4 2.9771,-1.4858 -0.1822,-7.1458 1.8,-9.8182 1.2063,-1.6262 3.4266,-3.2351 5.4,-2.7818 2.9239,0.6717 2.4259,7.5934 5.4,7.2 3.2032,-0.4236 3.8581,-5.7792 3.6,-9 -0.2794,-3.4874 -5.5755,-5.5058 -5.4,-9 0.075,-1.4951 2.8493,-2.1121 2.6848,-3.6 -0.3035,-2.7453 -3.5243,-5.3084 -6.2848,-5.4 -2.9983,-0.1 -4.2559,5.9767 -7.2,5.4 -3.4333,-0.6725 -1.9667,-8.3274 -5.4,-9 -2.9441,-0.5767 -6.2558,7.2259 -7.2,5.4 -1.8489,-3.5751 -3.6,0 -3.6,1.8 z" id="path5956-0-3-4" inkscape:connector-curvature="0" sodipodi:nodetypes="saaaaaaaaaaaaaaaaass"/>
  </g>
  <g inkscape:groupmode="layer" id="layer2" inkscape:label="Secondary" class="core">
    <path style="fill:#5a5a5a;fill-opacity:1;stroke:none;display:inline" d="m 21.0086,52.60195 c -1.8729,-0.3039 -3.8608,-2.9094 -5.4,-1.8 -1.4602,1.0525 1.2728,4.1272 0,5.4 -1.2728,1.2728 -4.1272,-1.2728 -5.4,0 -1.2728,1.2728 0.4136,3.6482 0,5.4 -0.3082,1.3058 -2.3606,2.3811 -1.8,3.6 1.0337,2.2475 4.728,1.895 7.2,1.8 1.896,-0.073 3.9666,-0.5568 5.4,-1.8 1.0136,-0.879 0.4757,-3.3851 1.8,-3.6 0.8376,-0.1359 0.9515,1.8 1.8,1.8 1.6971,0 1.9483,-3.2101 3.6,-3.6 1.8466,-0.4359 3.7029,2.6485 5.4,1.8 1.6971,-0.8485 2.9094,-3.8608 1.8,-5.4 -1.943,-2.6957 -8.5009,2.9811 -9.9689,0 -0.6688,-1.3581 3.4377,-2.2418 2.7689,-3.6 -1.0603,-2.1531 -4.831,0.3845 -7.2,0 z" id="path5992-7-3-8" inkscape:connector-curvature="0" sodipodi:nodetypes="aaaaaaaaaaaaaaaa"/>
  </g>
</svg>
