<?xml version="1.0" encoding="UTF-8" standalone="no"?>
<!-- Created with Inkscape (http://www.inkscape.org/) -->

<svg
   xmlns:dc="http://purl.org/dc/elements/1.1/"
   xmlns:cc="http://creativecommons.org/ns#"
   xmlns:rdf="http://www.w3.org/1999/02/22-rdf-syntax-ns#"
   xmlns:svg="http://www.w3.org/2000/svg"
   xmlns="http://www.w3.org/2000/svg"
   xmlns:sodipodi="http://sodipodi.sourceforge.net/DTD/sodipodi-0.dtd"
   xmlns:inkscape="http://www.inkscape.org/namespaces/inkscape"
   width="100%"
   height="100%"
   viewBox="0 0 90 90"
   id="svg2"
   version="1.1"
   inkscape:version="0.48.4 r9939"
   sodipodi:docname="messy-long-hair.svg"
   class="messy-long-hair">
  <defs
     id="defs4" />
  <sodipodi:namedview
     id="base"
     pagecolor="#ffffff"
     bordercolor="#666666"
     borderopacity="1.0"
     inkscape:pageopacity="0.0"
     inkscape:pageshadow="2"
     inkscape:zoom="7.9824051"
     inkscape:cx="32.314"
     inkscape:cy="38.843113"
     inkscape:document-units="in"
     inkscape:current-layer="svg2"
     showgrid="false"
     units="in"
     inkscape:window-width="1920"
     inkscape:window-height="1017"
     inkscape:window-x="-8"
     inkscape:window-y="-8"
     inkscape:window-maximized="1">
    <inkscape:grid
       type="xygrid"
       id="grid2994"
       empspacing="5"
       visible="true"
       enabled="true"
       snapvisiblegridlinesonly="true"
       units="in"
       spacingx="0.014in"
       spacingy="0.014in" />
  </sodipodi:namedview>
  <metadata
     id="metadata7">
    <rdf:RDF>
      <cc:Work
         rdf:about="">
        <dc:format>image/svg+xml</dc:format>
        <dc:type
           rdf:resource="http://purl.org/dc/dcmitype/StillImage" />
        <dc:title></dc:title>
      </cc:Work>
    </rdf:RDF>
  </metadata>
  <g
     inkscape:label="Body"
     inkscape:groupmode="layer"
     id="layer1"
     class="hair"
     transform="translate(0,-962.35975)"
     style="display:inline">
    <path
       style="fill:#ffffff;fill-opacity:1;stroke:#000000;stroke-width:4.5;stroke-linecap:butt;stroke-linejoin:miter;stroke-miterlimit:4;stroke-opacity:1;stroke-dasharray:none;display:inline"
       d="m 46.40625,964.60975 c -7.8975,0 -16.248361,1.43305 -23.0625,5.4375 -6.351611,3.73263 -11.605762,9.75937 -14.9375,16.34375 -1.043601,2.06244 -1.5978293,4.51371 -1.34375,6.8125 0.5213099,3.49622 2.1090065,5.30452 0.5,8.3438 -1.516581,6.7821 -2.9446169,13.6508 -3.0625,20.625 0.8676797,8.2708 7.135e-4,3.154 0.78125,9.5312 4.0547209,-3.4837 4.0539691,-3.4908 6.28125,0.4688 l -0.875,11.3125 c 5.215948,-2.1321 8.489774,-12.7397 8.875,-17.0313 0.258243,-7.1013 -0.281193,-11.1528 -1.625,-17.9375 1.466649,0.5885 2.6875,1 2.6875,1 -0.465,-3.7762 -0.634245,-6.6922 0.795,-10.07625 2.52,2.52005 3.78,3.78005 6.73625,4.76375 0,0 -0.07307,-2.6554 0.125,-3.9687 0.486784,-3.22764 0.32581,-8.46422 2.96875,-11.3438 1.682007,-1.83261 7.03125,-2.5 7.03125,-2.5 0,0 3.370044,6.14734 4.0625,9.53125 0.272771,1.33298 0,4.0625 0,4.0625 0,0 5.034067,-2.08159 6.78125,-4.0625 2.951105,-3.34589 5.40625,-12.25 5.40625,-12.25 0,0 3.606145,4.53155 5.4375,6.78125 2.233807,2.7441 5.578912,4.85643 6.78125,8.1875 0.769717,2.1325 0,6.7813 0,6.7813 0,0 3.574942,-2.4348 6.21875,-4.8125 0.08203,3.1984 0.171862,6.5584 -0.09375,7.6562 -1.383937,6.9522 -1.917974,10.9905 -1.65625,18.1875 0.385226,4.2916 3.659052,14.8992 8.875,17.0313 l -0.875,-11.3125 c 2.227281,-3.9596 2.226529,-3.9525 6.28125,-0.4688 0.780506,-6.3772 -0.08643,-1.2604 0.78125,-9.5312 -0.117883,-6.9742 -1.545919,-13.8429 -3.0625,-20.625 l -3.675266,-10.34769 c 0.762233,-1.84764 2.362766,-5.62111 2.362766,-5.62111 0,0 -6.833854,-11.98956 -12.4375,-15.53125 -6.676951,-4.22005 -15.165,-5.4375 -23.0625,-5.4375 z"
       id="path3788-7"
       inkscape:connector-curvature="0"
       sodipodi:nodetypes="ssscccccccccccsacscscsscccccccccccss" />
  </g>
</svg>
