<!--?xml version="1.0" encoding="UTF-8" standalone="no"?--><!-- Created with Inkscape (http://www.inkscape.org/) --><svg xmlns:dc="http://purl.org/dc/elements/1.1/" xmlns:cc="http://creativecommons.org/ns#" xmlns:rdf="http://www.w3.org/1999/02/22-rdf-syntax-ns#" xmlns:svg="http://www.w3.org/2000/svg" xmlns="http://www.w3.org/2000/svg" xlink="http://www.w3.org/1999/xlink" xmlns:sodipodi="http://sodipodi.sourceforge.net/DTD/sodipodi-0.dtd" xmlns:inkscape="http://www.inkscape.org/namespaces/inkscape" width="100%" height="100%" viewBox="0 0 90 90" id="svg2" version="1.1" inkscape:version="0.48.4 r9939" sodipodi:docname="C:\git\dougrich.net\token-builder\token-builder-content\template.svg" class="minotaur-horns" data-z="1000" data-slots="hat">
  <defs id="defs4">
    <radialGradient inkscape:collect="always" href="#linearGradient6505" id="radialGradient6638" gradientUnits="userSpaceOnUse" gradientTransform="matrix(2.4753968,1.2690783e-6,-6.6898655e-7,1.2249124,421.96436,1190.0235)" cx="-225" cy="152.1223" fx="-225" fy="152.1223" r="25.450468"/>
    <linearGradient id="linearGradient6505">
      <stop id="stop6507" offset="0" style="stop-color:#000000;stop-opacity:0;"/>
      <stop style="stop-color:#000000;stop-opacity:0;" offset="0.28869519" id="stop6509"/>
      <stop id="stop6511" offset="1" style="stop-color:#808080;stop-opacity:1;"/>
    </linearGradient>
  </defs>
  <sodipodi:namedview id="base" pagecolor="#ffffff" bordercolor="#666666" borderopacity="1.0" inkscape:pageopacity="0.0" inkscape:pageshadow="2" inkscape:zoom="0.72092901" inkscape:cx="-135.66267" inkscape:cy="63.138865" inkscape:document-units="in" inkscape:current-layer="layer1" showgrid="false" units="in" inkscape:window-width="1920" inkscape:window-height="1003" inkscape:window-x="-9" inkscape:window-y="-9" inkscape:window-maximized="1">
    <inkscape:grid type="xygrid" id="grid2994" empspacing="5" visible="true" enabled="true" snapvisiblegridlinesonly="true" units="in" spacingx="0.014in" spacingy="0.014in"/>
  </sodipodi:namedview>
  <metadata id="metadata7">
    <rdf:rdf>
      <cc:work rdf:about="">
        <dc:format>image/svg+xml</dc:format>
        <dc:type rdf:resource="http://purl.org/dc/dcmitype/StillImage"/>
        <dc:title/>
      </cc:work>
    </rdf:rdf>
  </metadata>
  <g inkscape:label="Body" inkscape:groupmode="layer" id="layer1" class="hrons" transform="translate(0,-962.35975)" style="display:inline">
    <g transform="translate(-180,-360)" style="display:inline" id="g6260">
      <path sodipodi:nodetypes="caaccaaac" inkscape:connector-curvature="0" id="path5814" d="m 186.82201,1328.0934 c 0,0 1.50692,5.521 3.6,7.2 3.85944,3.0959 10.09448,1.1622 14.4,3.6 2.95356,1.6722 7.2,3.6 7.2,7.2 0,3.6 -3.6,7.2 -7.2,7.2 -3.6,0 -4.3128,-5.4156 -7.2,-7.2 -3.228,-1.995 -7.572,-1.605 -10.8,-3.6 -1.4436,-0.8922 -3.2101,-1.9484 -3.6,-3.6 -0.87186,-3.6933 3.6,-10.8 3.6,-10.8 z" style="fill:#ffffff;fill-opacity:1;stroke:#000000;stroke-width:4.5;stroke-linecap:butt;stroke-linejoin:miter;stroke-miterlimit:4;stroke-opacity:1;stroke-dasharray:none"/>
      <path sodipodi:nodetypes="caaccaaac" inkscape:connector-curvature="0" id="path5814-3" d="m 263.40285,1328.0934 c 0,0 -1.50692,5.521 -3.6,7.2 -3.85944,3.0959 -10.09448,1.1622 -14.4,3.6 -2.95356,1.6722 -7.2,3.6 -7.2,7.2 0,3.6 3.6,7.2 7.2,7.2 3.6,0 4.3128,-5.4156 7.2,-7.2 3.228,-1.995 7.572,-1.605 10.8,-3.6 1.4436,-0.8922 3.2101,-1.9484 3.6,-3.6 0.87186,-3.6933 -3.6,-10.8 -3.6,-10.8 z" style="fill:#ffffff;fill-opacity:1;stroke:#000000;stroke-width:4.5;stroke-linecap:butt;stroke-linejoin:miter;stroke-miterlimit:4;stroke-opacity:1;stroke-dasharray:none"/>
    </g>
  </g>
</svg>
