<!--?xml version="1.0" encoding="UTF-8" standalone="no"?--><!-- Created with Inkscape (http://www.inkscape.org/) --><svg xmlns:dc="http://purl.org/dc/elements/1.1/" xmlns:cc="http://creativecommons.org/ns#" xmlns:rdf="http://www.w3.org/1999/02/22-rdf-syntax-ns#" xmlns:svg="http://www.w3.org/2000/svg" xmlns="http://www.w3.org/2000/svg" xmlns:sodipodi="http://sodipodi.sourceforge.net/DTD/sodipodi-0.dtd" xmlns:inkscape="http://www.inkscape.org/namespaces/inkscape" width="100%" height="100%" viewBox="0 0 90 90" id="svg2" version="1.1" inkscape:version="0.48.4 r9939" sodipodi:docname="monkey-face.svg" class="monkey-face" data-z="400" data-slots="face">
  <defs id="defs4"/>
  <sodipodi:namedview id="base" pagecolor="#ffffff" bordercolor="#666666" borderopacity="1.0" inkscape:pageopacity="0.0" inkscape:pageshadow="2" inkscape:zoom="7.9824051" inkscape:cx="32.314" inkscape:cy="38.843113" inkscape:document-units="in" inkscape:current-layer="layer1" showgrid="false" units="in" inkscape:window-width="1920" inkscape:window-height="1017" inkscape:window-x="1912" inkscape:window-y="-8" inkscape:window-maximized="1">
    <inkscape:grid type="xygrid" id="grid2994" empspacing="5" visible="true" enabled="true" snapvisiblegridlinesonly="true" units="in" spacingx="0.014in" spacingy="0.014in"/>
  </sodipodi:namedview>
  <metadata id="metadata7">
    <rdf:rdf>
      <cc:work rdf:about="">
        <dc:format>image/svg+xml</dc:format>
        <dc:type rdf:resource="http://purl.org/dc/dcmitype/StillImage"/>
        <dc:title/>
      </cc:work>
    </rdf:rdf>
  </metadata>
  <g inkscape:label="Body" inkscape:groupmode="layer" id="layer1" class="face" transform="translate(0,-962.35975)" style="display:inline">
    <path style="fill:#b4b4b4;fill-opacity:1;stroke:none;stroke-width:2.25000000000000000;stroke-linecap:butt;stroke-linejoin:miter;stroke-miterlimit:4;stroke-opacity:1;stroke-dasharray:none;display:inline" d="m 45,989.3597 c -5.4,-1.8 -15.133101,-4.6669 -19.800001,0 -3.39411,3.3942 -3.39411,11.0059 0,14.4 3.39411,3.3942 9.000001,1.8 10.800001,1.8 1.8,0 -0.32132,5.0788 1.8,7.2001 2.545579,2.5456 11.854419,2.5456 14.399999,0 2.12132,-2.1213 0,-7.2001 1.8,-7.2001 1.8,0 7.40589,1.5942 10.800001,-1.8 3.394109,-3.3941 3.394109,-11.0058 0,-14.4 -4.6669,-4.6669 -14.400001,-1.8 -19.8,0 z" id="path3962" inkscape:connector-curvature="0" sodipodi:nodetypes="ccczcczccc"/>
  </g>
</svg>
