<?xml version="1.0" encoding="UTF-8" standalone="no"?>
<!-- Created with Inkscape (http://www.inkscape.org/) -->

<svg xmlns:dc="http://purl.org/dc/elements/1.1/" xmlns:cc="http://creativecommons.org/ns#" xmlns:rdf="http://www.w3.org/1999/02/22-rdf-syntax-ns#" xmlns:svg="http://www.w3.org/2000/svg" xmlns="http://www.w3.org/2000/svg" xmlns:sodipodi="http://sodipodi.sourceforge.net/DTD/sodipodi-0.dtd" xmlns:inkscape="http://www.inkscape.org/namespaces/inkscape" width="100%" height="100%" viewBox="0 0 90 90" id="svg2" version="1.1" inkscape:version="0.48.4 r9939" sodipodi:docname="template.svg" class="monocle"
   data-z="1100"
   data-slots="">
  <defs id="defs4"/>
  <sodipodi:namedview id="base" pagecolor="#ffffff" bordercolor="#666666" borderopacity="1.0" inkscape:pageopacity="0.0" inkscape:pageshadow="2" inkscape:zoom="7.9824051" inkscape:cx="32.314" inkscape:cy="38.843113" inkscape:document-units="in" inkscape:current-layer="svg2" showgrid="false" units="in" inkscape:window-width="1920" inkscape:window-height="1017" inkscape:window-x="-8" inkscape:window-y="-8" inkscape:window-maximized="1">
    <inkscape:grid type="xygrid" id="grid2994" empspacing="5" visible="true" enabled="true" snapvisiblegridlinesonly="true" units="in" spacingx="0.014in" spacingy="0.014in"/>
  </sodipodi:namedview>
  <metadata id="metadata7">
    <rdf:RDF>
      <cc:Work rdf:about="">
        <dc:format>image/svg+xml</dc:format>
        <dc:type rdf:resource="http://purl.org/dc/dcmitype/StillImage"/>
        <dc:title/>
      </cc:Work>
    </rdf:RDF>
  </metadata>
  <g inkscape:label="Body" inkscape:groupmode="layer" id="layer1" class="body" transform="translate(0,-962.35975)" style="display:inline">
    <path sodipodi:type="arc" style="fill:#ffffff;fill-opacity:1;stroke:#000000;stroke-width:2.25;stroke-linecap:round;stroke-linejoin:round;stroke-miterlimit:4;stroke-opacity:1;stroke-dasharray:none;stroke-dashoffset:0;display:inline" id="path3996" sodipodi:cx="64.889999" sodipodi:cy="47.790001" sodipodi:rx="1.89" sodipodi:ry="1.89" d="m 66.779999,47.790001 a 1.89,1.89 0 1 1 -3.78,0 1.89,1.89 0 1 1 3.78,0 z" transform="translate(0.18791343,963.61251)"/>
    <path transform="translate(-2.6644446,960.22283)" sodipodi:type="arc" style="fill:#ffffff;fill-opacity:1;stroke:#000000;stroke-width:2.25;stroke-linecap:round;stroke-linejoin:round;stroke-miterlimit:4;stroke-opacity:1;stroke-dasharray:none;stroke-dashoffset:0;display:inline" id="path3996-2" sodipodi:cx="64.889999" sodipodi:cy="47.790001" sodipodi:rx="1.89" sodipodi:ry="1.89" d="m 66.779999,47.790001 a 1.89,1.89 0 1 1 -3.78,0 1.89,1.89 0 1 1 3.78,0 z"/>
    <path sodipodi:type="arc" style="fill:#ffffff;fill-opacity:1;stroke:#000000;stroke-width:2.25;stroke-linecap:round;stroke-linejoin:round;stroke-miterlimit:4;stroke-opacity:1;stroke-dasharray:none;stroke-dashoffset:0;display:inline" id="path3996-6" sodipodi:cx="64.889999" sodipodi:cy="47.790001" sodipodi:rx="1.89" sodipodi:ry="1.89" d="m 66.779999,47.790001 a 1.89,1.89 0 1 1 -3.78,0 1.89,1.89 0 1 1 3.78,0 z" transform="translate(3.0837404,966.80704)"/>
    <path sodipodi:type="arc" style="fill:#ffffff;fill-opacity:1;stroke:#000000;stroke-width:2.25;stroke-linecap:round;stroke-linejoin:round;stroke-miterlimit:4;stroke-opacity:1;stroke-dasharray:none;stroke-dashoffset:0;display:inline" id="path3996-6-0" sodipodi:cx="64.889999" sodipodi:cy="47.790001" sodipodi:rx="1.89" sodipodi:ry="1.89" d="m 66.779999,47.790001 a 1.89,1.89 0 1 1 -3.78,0 1.89,1.89 0 1 1 3.78,0 z" transform="translate(5.2833074,970.00881)"/>
    <path sodipodi:type="arc" style="fill:#ffffff;fill-opacity:1;stroke:#000000;stroke-width:2.25;stroke-linecap:round;stroke-linejoin:round;stroke-miterlimit:4;stroke-opacity:1;stroke-dasharray:none;stroke-dashoffset:0;display:inline" id="path3996-6-0-4" sodipodi:cx="64.889999" sodipodi:cy="47.790001" sodipodi:rx="1.89" sodipodi:ry="1.89" d="m 66.779999,47.790001 a 1.89,1.89 0 1 1 -3.78,0 1.89,1.89 0 1 1 3.78,0 z" transform="translate(6.2301194,973.89959)"/>
    <path sodipodi:type="arc" style="fill:#ffffff;fill-opacity:1;stroke:#000000;stroke-width:2.25;stroke-linecap:round;stroke-linejoin:round;stroke-miterlimit:4;stroke-opacity:1;stroke-dasharray:none;stroke-dashoffset:0;display:inline" id="path3996-6-0-4-9" sodipodi:cx="64.889999" sodipodi:cy="47.790001" sodipodi:rx="1.89" sodipodi:ry="1.89" d="m 66.779999,47.790001 a 1.89,1.89 0 1 1 -3.78,0 1.89,1.89 0 1 1 3.78,0 z" transform="translate(6.7457104,977.72774)"/>
    <path sodipodi:type="arc" style="fill:#ffffff;fill-opacity:1;stroke:#000000;stroke-width:2.25;stroke-linecap:round;stroke-linejoin:round;stroke-miterlimit:4;stroke-opacity:1;stroke-dasharray:none;stroke-dashoffset:0;display:inline" id="path3996-6-0-4-9-4" sodipodi:cx="64.889999" sodipodi:cy="47.790001" sodipodi:rx="1.89" sodipodi:ry="1.89" d="m 66.779999,47.790001 a 1.89,1.89 0 1 1 -3.78,0 1.89,1.89 0 1 1 3.78,0 z" transform="translate(7.7479154,981.52691)"/>
    <path sodipodi:type="arc" style="fill:#ffffff;fill-opacity:1;stroke:#000000;stroke-width:2.25;stroke-linecap:round;stroke-linejoin:round;stroke-miterlimit:4;stroke-opacity:1;stroke-dasharray:none;stroke-dashoffset:0;display:inline" id="path3994" sodipodi:cx="56.700001" sodipodi:cy="39.599998" sodipodi:rx="6.3000002" sodipodi:ry="6.3000002" d="m 63.000001,39.599998 a 6.3000002,6.3000002 0 1 1 -12.6,0 6.3000002,6.3000002 0 1 1 12.6,0 z" transform="translate(-0.62637757,964.99054)"/>
  </g>
<title>Monocle</title></svg>
