<!--?xml version="1.0" encoding="UTF-8" standalone="no"?--><svg xmlns:dc="http://purl.org/dc/elements/1.1/" xmlns:cc="http://creativecommons.org/ns#" xmlns:rdf="http://www.w3.org/1999/02/22-rdf-syntax-ns#" xmlns:svg="http://www.w3.org/2000/svg" xmlns="http://www.w3.org/2000/svg" xmlns:sodipodi="http://sodipodi.sourceforge.net/DTD/sodipodi-0.dtd" xmlns:inkscape="http://www.inkscape.org/namespaces/inkscape" viewBox="0 0 90 90" class="moulded-pauldrons" width="100%" height="100%" id="svg3336" version="1.1" inkscape:version="0.91 r" sodipodi:docname="molded-pauldrons.svg" data-z="800" data-slots="pauldron" data-tags="pauldron">
  <defs id="defs3348"/>
  <sodipodi:namedview pagecolor="#ffffff" bordercolor="#666666" borderopacity="1" objecttolerance="10" gridtolerance="10" guidetolerance="10" inkscape:pageopacity="0" inkscape:pageshadow="2" inkscape:window-width="1920" inkscape:window-height="1056" id="namedview3346" showgrid="false" inkscape:zoom="10.211111" inkscape:cx="14.102285" inkscape:cy="45" inkscape:window-x="1920" inkscape:window-y="24" inkscape:window-maximized="1" inkscape:current-layer="svg3336"/>
  <metadata title="Basic Body" contributor="Douglas Richardson" id="metadata3338">
    <layers>
      <layer name="Primary" data-layer="layer1"/>
    </layers>
    <rdf:rdf>
      <cc:work rdf:about="">
        <dc:format>image/svg+xml</dc:format>
        <dc:type rdf:resource="http://purl.org/dc/dcmitype/StillImage"/>
        <dc:title>Basic Body</dc:title>
      </cc:work>
    </rdf:rdf>
  </metadata>
  <title id="title3344">Basic Body</title>
  <g id="g5868" class="pauldrons">
    <path id="path6719-5" d="m 4.9593402,64.649066 c 1.3985181,0.570039 3.2961998,-0.371002 5.2222608,-1.971564 1.156824,1.323411 2.36812,2.149524 3.505139,1.987626 3.863893,-0.550173 5.411413,-12.124524 4.861239,-15.988417 -0.05309,-0.372878 -0.142334,-0.731189 -0.249363,-1.080282 -0.02471,-0.08547 -0.04972,-0.170629 -0.0774,-0.255118 -0.01478,-0.0424 -0.03007,-0.08416 -0.0456,-0.126152 -0.68664,-1.976699 -2.180154,-3.662153 -4.270231,-4.514073 -3.856608,-1.571962 -8.2576071,0.280224 -9.8295693,4.136833 -1.571962,3.856608 -2.9730835,16.239185 0.8835246,17.811147 z" style="color:#000000;clip-rule:nonzero;display:inline;overflow:visible;visibility:visible;opacity:1;isolation:auto;mix-blend-mode:normal;color-interpolation:sRGB;color-interpolation-filters:linearRGB;solid-color:#000000;solid-opacity:1;fill:#ffffff;fill-opacity:1;fill-rule:nonzero;stroke:#000000;stroke-width:4.5;stroke-linecap:butt;stroke-linejoin:miter;stroke-miterlimit:4;stroke-dasharray:none;stroke-dashoffset:0;stroke-opacity:1;color-rendering:auto;image-rendering:auto;shape-rendering:auto;text-rendering:auto;enable-background:accumulate" inkscape:connector-curvature="0"/>
    <path sodipodi:nodetypes="ssscs" inkscape:connector-curvature="0" id="path6719" d="m 3.7195509,45.63558 c 1.5719621,-3.856609 5.972687,-5.70868 9.8292951,-4.136718 3.856609,1.571962 5.70868,5.972687 4.136718,9.829296 C 16.113602,55.184766 8.4599757,65.017416 4.6033671,63.445454 0.74675867,61.873492 2.1475888,49.492188 3.7195509,45.63558 Z" style="color:#000000;clip-rule:nonzero;display:inline;overflow:visible;visibility:visible;opacity:1;isolation:auto;mix-blend-mode:normal;color-interpolation:sRGB;color-interpolation-filters:linearRGB;solid-color:#000000;solid-opacity:1;fill:none;fill-opacity:1;fill-rule:nonzero;stroke:#000000;stroke-width:2.25;stroke-linecap:butt;stroke-linejoin:miter;stroke-miterlimit:4;stroke-dasharray:none;stroke-dashoffset:0;stroke-opacity:1;color-rendering:auto;image-rendering:auto;shape-rendering:auto;text-rendering:auto;enable-background:accumulate"/>
    <path id="path6719-5-2" d="m 85.037488,64.649066 c -1.398518,0.570039 -3.2962,-0.371002 -5.222261,-1.971564 -1.156824,1.323411 -2.36812,2.149524 -3.505139,1.987626 -3.863893,-0.550173 -5.411413,-12.124524 -4.861239,-15.988417 0.05309,-0.372878 0.142334,-0.731189 0.249363,-1.080282 0.02471,-0.08547 0.04972,-0.170629 0.0774,-0.255118 0.01478,-0.0424 0.03007,-0.08416 0.0456,-0.126152 0.68664,-1.976699 2.180154,-3.662153 4.270231,-4.514073 3.856608,-1.571962 8.257607,0.280224 9.829569,4.136833 1.571962,3.856608 2.973084,16.239185 -0.883524,17.811147 z" style="color:#000000;clip-rule:nonzero;display:inline;overflow:visible;visibility:visible;opacity:1;isolation:auto;mix-blend-mode:normal;color-interpolation:sRGB;color-interpolation-filters:linearRGB;solid-color:#000000;solid-opacity:1;fill:#ffffff;fill-opacity:1;fill-rule:nonzero;stroke:#000000;stroke-width:4.5;stroke-linecap:butt;stroke-linejoin:miter;stroke-miterlimit:4;stroke-dasharray:none;stroke-dashoffset:0;stroke-opacity:1;color-rendering:auto;image-rendering:auto;shape-rendering:auto;text-rendering:auto;enable-background:accumulate" inkscape:connector-curvature="0"/>
    <path sodipodi:nodetypes="ssscs" inkscape:connector-curvature="0" id="path6719-9" d="m 86.277277,45.63558 c -1.571962,-3.856609 -5.972687,-5.70868 -9.829295,-4.136718 -3.856609,1.571962 -5.70868,5.972687 -4.136718,9.829296 1.571962,3.856608 9.225588,13.689258 13.082197,12.117296 3.856608,-1.571962 2.455778,-13.953266 0.883816,-17.809874 z" style="color:#000000;clip-rule:nonzero;display:inline;overflow:visible;visibility:visible;opacity:1;isolation:auto;mix-blend-mode:normal;color-interpolation:sRGB;color-interpolation-filters:linearRGB;solid-color:#000000;solid-opacity:1;fill:none;fill-opacity:1;fill-rule:nonzero;stroke:#000000;stroke-width:2.25;stroke-linecap:butt;stroke-linejoin:miter;stroke-miterlimit:4;stroke-dasharray:none;stroke-dashoffset:0;stroke-opacity:1;color-rendering:auto;image-rendering:auto;shape-rendering:auto;text-rendering:auto;enable-background:accumulate"/>
  </g>
</svg>
