<!--?xml version="1.0" encoding="UTF-8" standalone="no"?--><!-- Created with Inkscape (http://www.inkscape.org/) --><svg xmlns:dc="http://purl.org/dc/elements/1.1/" xmlns:cc="http://creativecommons.org/ns#" xmlns:rdf="http://www.w3.org/1999/02/22-rdf-syntax-ns#" xmlns:svg="http://www.w3.org/2000/svg" xmlns="http://www.w3.org/2000/svg" xmlns:sodipodi="http://sodipodi.sourceforge.net/DTD/sodipodi-0.dtd" xmlns:inkscape="http://www.inkscape.org/namespaces/inkscape" width="100%" height="100%" viewBox="0 0 90 90" id="svg2" version="1.1" inkscape:version="0.48.4 r9939" sodipodi:docname="C:\git\dougrich.net\token-builder\token-builder-content\template.svg" class="open-helmet" data-z="1000" data-slots="hat">
  <defs id="defs4"/>
  <sodipodi:namedview id="base" pagecolor="#ffffff" bordercolor="#666666" borderopacity="1.0" inkscape:pageopacity="0.0" inkscape:pageshadow="2" inkscape:zoom="0.99780064" inkscape:cx="62.707345" inkscape:cy="-71.39935" inkscape:document-units="in" inkscape:current-layer="layer1" showgrid="false" units="in" inkscape:window-width="1920" inkscape:window-height="1003" inkscape:window-x="-9" inkscape:window-y="-9" inkscape:window-maximized="1">
    <inkscape:grid type="xygrid" id="grid2994" empspacing="5" visible="true" enabled="true" snapvisiblegridlinesonly="true" units="in" spacingx="0.014in" spacingy="0.014in"/>
  </sodipodi:namedview>
  <metadata id="metadata7">
    <rdf:rdf>
      <cc:work rdf:about="">
        <dc:format>image/svg+xml</dc:format>
        <dc:type rdf:resource="http://purl.org/dc/dcmitype/StillImage"/>
        <dc:title/>
      </cc:work>
    </rdf:rdf>
  </metadata>
  <g inkscape:label="Body" inkscape:groupmode="layer" id="layer1" class="armor" transform="translate(0,-962.35975)" style="display:inline">
    <path style="fill:#ffffff;fill-opacity:1;stroke:#000000;stroke-width:4.5;stroke-linecap:butt;stroke-linejoin:miter;stroke-miterlimit:4;stroke-opacity:1;stroke-dasharray:none;display:inline" d="m 3.6,1003.7598 14.4,0 c 0,0 -0.5372,-12.528 3.6,-16.2001 4.5098,-4.0027 18,-1.7999 18,-1.7999 l 0,9 5.4,3.6 5.4,-3.6 0,-9 c 0,0 13.4902,-2.2028 18,1.7999 4.1372,3.6721 3.6,16.2001 3.6,16.2001 l 14.4,0 c 0,0 -2.06153,-17.06 -7.2,-23.4 -3.88957,-4.7991 -10.50852,-6.5986 -16.2,-9 -5.77146,-2.4353 -18,-5.4 -18,-5.4 0,0 -12.22854,2.9647 -18,5.4 -5.69148,2.4014 -12.31043,4.2009 -16.2,9 -5.13847,6.34 -7.2,23.4 -7.2,23.4 z" id="path5726" inkscape:connector-curvature="0" sodipodi:nodetypes="ccacccccaccaacaac"/>
  </g>
</svg>
