<!--?xml version="1.0" encoding="UTF-8" standalone="no"?--><!-- Created with Inkscape (http://www.inkscape.org/) --><svg xmlns:dc="http://purl.org/dc/elements/1.1/" xmlns:cc="http://creativecommons.org/ns#" xmlns:rdf="http://www.w3.org/1999/02/22-rdf-syntax-ns#" xmlns:svg="http://www.w3.org/2000/svg" xmlns="http://www.w3.org/2000/svg" xmlns:sodipodi="http://sodipodi.sourceforge.net/DTD/sodipodi-0.dtd" xmlns:inkscape="http://www.inkscape.org/namespaces/inkscape" width="100%" height="100%" viewBox="0 0 90 90" id="svg2" version="1.1" inkscape:version="0.48.4 r9939" sodipodi:docname="orc.svg" class="orc" data-z="100" data-slots="body" data-tags="body">
  <defs id="defs4"/>
  <sodipodi:namedview id="base" pagecolor="#ffffff" bordercolor="#666666" borderopacity="1.0" inkscape:pageopacity="0.0" inkscape:pageshadow="2" inkscape:zoom="45.155302" inkscape:cx="39.915855" inkscape:cy="43.868374" inkscape:document-units="in" inkscape:current-layer="layer3" showgrid="false" units="in" inkscape:window-width="1920" inkscape:window-height="1017" inkscape:window-x="-8" inkscape:window-y="-8" inkscape:window-maximized="1">
    <inkscape:grid type="xygrid" id="grid2994" empspacing="5" visible="true" enabled="true" snapvisiblegridlinesonly="true" units="in" spacingx="0.014in" spacingy="0.014in"/>
  </sodipodi:namedview>
  <metadata id="metadata7">
    <rdf:rdf>
      <cc:work rdf:about="">
        <dc:format>image/svg+xml</dc:format>
        <dc:type rdf:resource="http://purl.org/dc/dcmitype/StillImage"/>
        <dc:title/>
      </cc:work>
    </rdf:rdf>
  </metadata>
  <g inkscape:label="Primary" inkscape:groupmode="layer" id="layer1" class="body" transform="translate(0,-962.35975)" style="display:inline" sodipodi:insensitive="true">
    <path inkscape:connector-curvature="0" style="fill:#ffffff;fill-opacity:1;fill-rule:nonzero;stroke:#000000;stroke-width:4.46456671px;stroke-linecap:round;stroke-linejoin:miter;stroke-miterlimit:4;stroke-opacity:1;stroke-dasharray:none" d="m 80.982281,1007.3775 c 0,19.8779 -16.122046,36 -35.999999,36 -19.913385,0 -35.9999986,-16.1221 -35.9999986,-36 0,-19.91342 16.0866136,-36.03546 35.9645656,-36.03546 19.913386,0 36.035432,16.12204 36.035432,35.99996 z" id="path3133"/>
  </g>
  <path inkscape:connector-curvature="0" style="fill:#000000;fill-opacity:1;fill-rule:nonzero;stroke:#000000;stroke-width:1;stroke-opacity:1;display:inline" d="m 37.243762,42.954077 c 5.857837,-2.589372 10.45251,-2.345768 15.853519,0.243604 l 0,4.61765 C 48.006313,44.747044 42.348642,44.724898 37.243762,47.571727 z" id="path3135-1" sodipodi:nodetypes="ccccc"/>
  <g inkscape:groupmode="layer" id="layer2" class="tusks" inkscape:label="Secondary" sodipodi:insensitive="true">
    <path inkscape:connector-curvature="0" style="fill:#b4b4b4;fill-opacity:1;fill-rule:nonzero;stroke:#000000;stroke-width:2.23228335px;stroke-linecap:butt;stroke-linejoin:miter;stroke-miterlimit:4;stroke-opacity:1;stroke-dasharray:none;display:inline" d="m 30.171259,34.24606 c -1.665354,2.16142 -2.586614,4.53539 -2.586614,7.12209 0,3.5078 2.586614,7.5472 5.42126,8.3622 0.283464,0.071 0.566929,0.1063 0.885827,0.1063 2.480314,0 4.499999,-2.0197 4.499999,-4.5 0,-2.5158 -2.019685,-4.5 -4.499999,-4.5 -0.46063,0 -0.885827,0.071 -1.311024,0.2126 -1.346457,-1.9489 -2.232283,-4.28744 -2.409449,-6.80319 z" id="path3137"/>
    <path inkscape:connector-curvature="0" style="fill:#b4b4b4;fill-opacity:1;fill-rule:nonzero;stroke:#000000;stroke-width:2.23228335px;stroke-linecap:butt;stroke-linejoin:miter;stroke-miterlimit:4;stroke-opacity:1;stroke-dasharray:none;display:inline" d="m 59.226377,34.24606 c 1.665354,2.16142 2.586614,4.53539 2.586614,7.12209 0,3.5078 -2.586614,7.5472 -5.385827,8.3622 -0.283465,0.071 -0.602362,0.1063 -0.92126,0.1063 -2.480315,0 -4.5,-2.0197 -4.5,-4.5 0,-2.5158 2.019685,-4.5 4.5,-4.5 0.46063,0 0.885827,0.071 1.311024,0.2126 1.38189,-1.9489 2.232283,-4.28744 2.409449,-6.80319 z" id="path3139"/>
  </g>
</svg>
