<?xml version="1.0" encoding="UTF-8" standalone="no"?>
<!-- Created with Inkscape (http://www.inkscape.org/) -->

<svg
   xmlns:dc="http://purl.org/dc/elements/1.1/"
   xmlns:cc="http://creativecommons.org/ns#"
   xmlns:rdf="http://www.w3.org/1999/02/22-rdf-syntax-ns#"
   xmlns:svg="http://www.w3.org/2000/svg"
   xmlns="http://www.w3.org/2000/svg"
   xmlns:xlink="http://www.w3.org/1999/xlink"
   xmlns:sodipodi="http://sodipodi.sourceforge.net/DTD/sodipodi-0.dtd"
   xmlns:inkscape="http://www.inkscape.org/namespaces/inkscape"
   width="100%"
   height="100%"
   viewBox="0 0 90 90"
   id="svg2"
   version="1.1"
   inkscape:version="0.48.4 r9939"
   sodipodi:docname="partially-shaved.svg"
   class="partially-shaved">
  <defs
     id="defs4">
    <linearGradient
       inkscape:collect="always"
       id="linearGradient4261">
      <stop
         style="stop-color:#737373;stop-opacity:1;"
         offset="0"
         id="stop4263" />
      <stop
         style="stop-color:#737373;stop-opacity:0;"
         offset="1"
         id="stop4265" />
    </linearGradient>
    <linearGradient
       inkscape:collect="always"
       xlink:href="#linearGradient4261"
       id="linearGradient4267"
       x1="59.220001"
       y1="8.1000004"
       x2="57.959999"
       y2="32.040001"
       gradientUnits="userSpaceOnUse" />
    <linearGradient
       inkscape:collect="always"
       xlink:href="#linearGradient4261-3"
       id="linearGradient4267-2"
       x1="59.220001"
       y1="8.1000004"
       x2="57.959999"
       y2="32.040001"
       gradientUnits="userSpaceOnUse" />
    <linearGradient
       inkscape:collect="always"
       id="linearGradient4261-3">
      <stop
         style="stop-color:#737373;stop-opacity:1;"
         offset="0"
         id="stop4263-2" />
      <stop
         style="stop-color:#737373;stop-opacity:0;"
         offset="1"
         id="stop4265-2" />
    </linearGradient>
    <linearGradient
       inkscape:collect="always"
       xlink:href="#linearGradient4261-8"
       id="linearGradient4267-6"
       x1="59.220001"
       y1="8.1000004"
       x2="57.959999"
       y2="32.040001"
       gradientUnits="userSpaceOnUse" />
    <linearGradient
       inkscape:collect="always"
       id="linearGradient4261-8">
      <stop
         style="stop-color:#737373;stop-opacity:1;"
         offset="0"
         id="stop4263-5" />
      <stop
         style="stop-color:#737373;stop-opacity:0;"
         offset="1"
         id="stop4265-7" />
    </linearGradient>
    <linearGradient
       y2="32.040001"
       x2="57.959999"
       y1="8.1000004"
       x1="59.220001"
       gradientUnits="userSpaceOnUse"
       id="linearGradient4318"
       xlink:href="#linearGradient4261-8"
       inkscape:collect="always" />
    <linearGradient
       inkscape:collect="always"
       xlink:href="#linearGradient4261-8"
       id="linearGradient4344"
       gradientUnits="userSpaceOnUse"
       x1="59.220001"
       y1="8.1000004"
       x2="57.959999"
       y2="32.040001" />
    <linearGradient
       inkscape:collect="always"
       xlink:href="#linearGradient4261-8"
       id="linearGradient3026"
       gradientUnits="userSpaceOnUse"
       x1="59.220001"
       y1="8.1000004"
       x2="57.959999"
       y2="32.040001" />
    <linearGradient
       inkscape:collect="always"
       xlink:href="#linearGradient4261-8-7"
       id="linearGradient3026-1"
       gradientUnits="userSpaceOnUse"
       x1="59.220001"
       y1="8.1000004"
       x2="57.959999"
       y2="32.040001" />
    <linearGradient
       inkscape:collect="always"
       id="linearGradient4261-8-7">
      <stop
         style="stop-color:#737373;stop-opacity:1;"
         offset="0"
         id="stop4263-5-4" />
      <stop
         style="stop-color:#737373;stop-opacity:0;"
         offset="1"
         id="stop4265-7-0" />
    </linearGradient>
    <linearGradient
       y2="32.040001"
       x2="57.959999"
       y1="8.1000004"
       x1="59.220001"
       gradientUnits="userSpaceOnUse"
       id="linearGradient3043"
       xlink:href="#linearGradient4261-8-7"
       inkscape:collect="always" />
    <linearGradient
       y2="32.040001"
       x2="57.959999"
       y1="8.1000004"
       x1="59.220001"
       gradientUnits="userSpaceOnUse"
       id="linearGradient3043-9"
       xlink:href="#linearGradient4261-8-7-4"
       inkscape:collect="always" />
    <linearGradient
       inkscape:collect="always"
       id="linearGradient4261-8-7-4">
      <stop
         style="stop-color:#737373;stop-opacity:1;"
         offset="0"
         id="stop4263-5-4-8" />
      <stop
         style="stop-color:#737373;stop-opacity:0;"
         offset="1"
         id="stop4265-7-0-8" />
    </linearGradient>
    <linearGradient
       y2="32.040001"
       x2="57.959999"
       y1="8.1000004"
       x1="59.220001"
       gradientUnits="userSpaceOnUse"
       id="linearGradient3078"
       xlink:href="#linearGradient4261-8-7-4"
       inkscape:collect="always" />
    <linearGradient
       y2="32.040001"
       x2="57.959999"
       y1="8.1000004"
       x1="59.220001"
       gradientUnits="userSpaceOnUse"
       id="linearGradient3078-1"
       xlink:href="#linearGradient4261-8-7-4-7"
       inkscape:collect="always" />
    <linearGradient
       inkscape:collect="always"
       id="linearGradient4261-8-7-4-7">
      <stop
         style="stop-color:#737373;stop-opacity:1;"
         offset="0"
         id="stop4263-5-4-8-1" />
      <stop
         style="stop-color:#737373;stop-opacity:0;"
         offset="1"
         id="stop4265-7-0-8-1" />
    </linearGradient>
    <linearGradient
       y2="32.040001"
       x2="57.959999"
       y1="8.1000004"
       x1="59.220001"
       gradientUnits="userSpaceOnUse"
       id="linearGradient3146"
       xlink:href="#linearGradient4261-8-7-4-7"
       inkscape:collect="always" />
    <linearGradient
       y2="32.040001"
       x2="57.959999"
       y1="8.1000004"
       x1="59.220001"
       gradientUnits="userSpaceOnUse"
       id="linearGradient3146-5"
       xlink:href="#linearGradient4261-8-7-4-7-2"
       inkscape:collect="always" />
    <linearGradient
       inkscape:collect="always"
       id="linearGradient4261-8-7-4-7-2">
      <stop
         style="stop-color:#737373;stop-opacity:1;"
         offset="0"
         id="stop4263-5-4-8-1-7" />
      <stop
         style="stop-color:#737373;stop-opacity:0;"
         offset="1"
         id="stop4265-7-0-8-1-6" />
    </linearGradient>
    <linearGradient
       y2="32.040001"
       x2="57.959999"
       y1="8.1000004"
       x1="59.220001"
       gradientUnits="userSpaceOnUse"
       id="linearGradient3192"
       xlink:href="#linearGradient4261-8-7-4-7-2"
       inkscape:collect="always" />
    <linearGradient
       inkscape:collect="always"
       xlink:href="#linearGradient4261-8-7-4-7-2"
       id="linearGradient3299"
       gradientUnits="userSpaceOnUse"
       x1="59.220001"
       y1="8.1000004"
       x2="57.959999"
       y2="32.040001" />
    <mask
       maskUnits="userSpaceOnUse"
       id="mask3295">
      <path
         inkscape:connector-curvature="0"
         id="path3297"
         d="M 44.9375,11 C 26.18151,11 11,26.241794 11,45.03125 c 0,0.298383 0.02361,0.578458 0.03125,0.875 l 67.875,0 c 0.0077,-0.296643 0.03125,-0.576515 0.03125,-0.875 l 0,-0.0625 C 78.9375,26.21279 63.726924,11 44.9375,11 z"
         style="fill:url(#linearGradient3299);fill-opacity:1;fill-rule:nonzero;stroke:none;display:inline"
         class="ignored" />
    </mask>
  </defs>
  <sodipodi:namedview
     id="base"
     pagecolor="#ffffff"
     bordercolor="#666666"
     borderopacity="1.0"
     inkscape:pageopacity="0.0"
     inkscape:pageshadow="2"
     inkscape:zoom="22.627416"
     inkscape:cx="57.088784"
     inkscape:cy="60.805284"
     inkscape:document-units="in"
     inkscape:current-layer="layer1"
     showgrid="true"
     units="in"
     inkscape:window-width="1920"
     inkscape:window-height="1017"
     inkscape:window-x="-8"
     inkscape:window-y="-8"
     inkscape:window-maximized="1">
    <inkscape:grid
       type="xygrid"
       id="grid2994"
       empspacing="5"
       visible="true"
       enabled="true"
       snapvisiblegridlinesonly="true"
       units="in"
       spacingx="0.014in"
       spacingy="0.014in" />
  </sodipodi:namedview>
  <metadata
     id="metadata7">
    <rdf:RDF>
      <cc:Work
         rdf:about="">
        <dc:format>image/svg+xml</dc:format>
        <dc:type
           rdf:resource="http://purl.org/dc/dcmitype/StillImage" />
        <dc:title />
      </cc:Work>
    </rdf:RDF>
  </metadata>
  <g
     inkscape:groupmode="layer"
     id="layer2"
     inkscape:label="Stubble"
     class="stubble"
     style="display:inline">
    <path
       style="fill:#000000;fill-opacity:0.52271274;fill-rule:nonzero;stroke:none;display:inline"
       mask="url(#mask3295)"
       d="m 44.9375,11 c -1.570631,0 -3.111397,0.137108 -4.625,0.34375 l 0,21.96875 36.5625,0 C 72.110513,20.3069 59.616738,11 44.9375,11 z"
       id="path3133-1"
       inkscape:connector-curvature="0" />
    <path
       sodipodi:type="arc"
       style="color:#000000;fill:#000000;fill-opacity:0.52271274;fill-rule:nonzero;stroke:none;stroke-width:2.25;marker:none;visibility:visible;display:inline;overflow:visible;enable-background:accumulate"
       id="path2985"
       sodipodi:cx="48.509998"
       sodipodi:cy="26.370001"
       sodipodi:rx="0.63"
       sodipodi:ry="0.63"
       d="m 49.139998,26.370001 a 0.63,0.63 0 1 1 -1.26,0 0.63,0.63 0 1 1 1.26,0 z"
       transform="translate(8.7812497,-10.6875)" />
    <path
       sodipodi:type="arc"
       style="color:#000000;fill:#000000;fill-opacity:0.52271274;fill-rule:nonzero;stroke:none;stroke-width:2.25;marker:none;visibility:visible;display:inline;overflow:visible;enable-background:accumulate"
       id="path2985-1"
       sodipodi:cx="48.509998"
       sodipodi:cy="26.370001"
       sodipodi:rx="0.63"
       sodipodi:ry="0.63"
       d="m 49.139998,26.370001 a 0.63,0.63 0 1 1 -1.26,0 0.63,0.63 0 1 1 1.26,0 z"
       transform="translate(8.3124997,-8.9374998)" />
    <path
       sodipodi:type="arc"
       style="color:#000000;fill:#000000;fill-opacity:0.52271274;fill-rule:nonzero;stroke:none;stroke-width:2.25;marker:none;visibility:visible;display:inline;overflow:visible;enable-background:accumulate"
       id="path2985-1-7"
       sodipodi:cx="48.509998"
       sodipodi:cy="26.370001"
       sodipodi:rx="0.63"
       sodipodi:ry="0.63"
       d="m 49.139998,26.370001 a 0.63,0.63 0 1 1 -1.26,0 0.63,0.63 0 1 1 1.26,0 z"
       transform="translate(9.3124997,-7.6562498)" />
    <path
       sodipodi:type="arc"
       style="color:#000000;fill:#000000;fill-opacity:0.52271274;fill-rule:nonzero;stroke:none;stroke-width:2.25;marker:none;visibility:visible;display:inline;overflow:visible;enable-background:accumulate"
       id="path2985-1-7-4"
       sodipodi:cx="48.509998"
       sodipodi:cy="26.370001"
       sodipodi:rx="0.63"
       sodipodi:ry="0.63"
       d="m 49.139998,26.370001 a 0.63,0.63 0 1 1 -1.26,0 0.63,0.63 0 1 1 1.26,0 z"
       transform="translate(8.0624997,-6.7187498)" />
    <path
       sodipodi:type="arc"
       style="color:#000000;fill:#000000;fill-opacity:0.52271274;fill-rule:nonzero;stroke:none;stroke-width:2.25;marker:none;visibility:visible;display:inline;overflow:visible;enable-background:accumulate"
       id="path2985-1-7-4-0"
       sodipodi:cx="48.509998"
       sodipodi:cy="26.370001"
       sodipodi:rx="0.63"
       sodipodi:ry="0.63"
       d="m 49.139998,26.370001 a 0.63,0.63 0 1 1 -1.26,0 0.63,0.63 0 1 1 1.26,0 z"
       transform="translate(9.3749997,-5.7499998)" />
    <path
       sodipodi:type="arc"
       style="color:#000000;fill:#000000;fill-opacity:0.52271274;fill-rule:nonzero;stroke:none;stroke-width:2.25;marker:none;visibility:visible;display:inline;overflow:visible;enable-background:accumulate"
       id="path2985-1-7-4-0-9"
       sodipodi:cx="48.509998"
       sodipodi:cy="26.370001"
       sodipodi:rx="0.63"
       sodipodi:ry="0.63"
       d="m 49.139998,26.370001 a 0.63,0.63 0 1 1 -1.26,0 0.63,0.63 0 1 1 1.26,0 z"
       transform="translate(8.0624997,-4.7499998)" />
    <path
       sodipodi:type="arc"
       style="color:#000000;fill:#000000;fill-opacity:0.52271274;fill-rule:nonzero;stroke:none;stroke-width:2.25;marker:none;visibility:visible;display:inline;overflow:visible;enable-background:accumulate"
       id="path2985-1-7-4-0-9-4"
       sodipodi:cx="48.509998"
       sodipodi:cy="26.370001"
       sodipodi:rx="0.63"
       sodipodi:ry="0.63"
       d="m 49.139998,26.370001 a 0.63,0.63 0 1 1 -1.26,0 0.63,0.63 0 1 1 1.26,0 z"
       transform="translate(10.8125,-4.2187498)" />
    <path
       sodipodi:type="arc"
       style="color:#000000;fill:#000000;fill-opacity:0.52271274;fill-rule:nonzero;stroke:none;stroke-width:2.25;marker:none;visibility:visible;display:inline;overflow:visible;enable-background:accumulate"
       id="path2985-1-7-4-0-9-4-8"
       sodipodi:cx="48.509998"
       sodipodi:cy="26.370001"
       sodipodi:rx="0.63"
       sodipodi:ry="0.63"
       d="m 49.139998,26.370001 a 0.63,0.63 0 1 1 -1.26,0 0.63,0.63 0 1 1 1.26,0 z"
       transform="translate(11.96875,-6.7499998)" />
    <path
       sodipodi:type="arc"
       style="color:#000000;fill:#000000;fill-opacity:0.52271274;fill-rule:nonzero;stroke:none;stroke-width:2.25;marker:none;visibility:visible;display:inline;overflow:visible;enable-background:accumulate"
       id="path2985-1-7-4-0-9-4-8-8"
       sodipodi:cx="48.509998"
       sodipodi:cy="26.370001"
       sodipodi:rx="0.63"
       sodipodi:ry="0.63"
       d="m 49.139998,26.370001 a 0.63,0.63 0 1 1 -1.26,0 0.63,0.63 0 1 1 1.26,0 z"
       transform="translate(10.375,-8.7187498)" />
    <path
       sodipodi:type="arc"
       style="color:#000000;fill:#000000;fill-opacity:0.52271274;fill-rule:nonzero;stroke:none;stroke-width:2.25;marker:none;visibility:visible;display:inline;overflow:visible;enable-background:accumulate"
       id="path2985-1-7-4-0-9-4-8-8-2"
       sodipodi:cx="48.509998"
       sodipodi:cy="26.370001"
       sodipodi:rx="0.63"
       sodipodi:ry="0.63"
       d="m 49.139998,26.370001 a 0.63,0.63 0 1 1 -1.26,0 0.63,0.63 0 1 1 1.26,0 z"
       transform="translate(12.3125,-8.2499998)" />
    <path
       sodipodi:type="arc"
       style="color:#000000;fill:#000000;fill-opacity:0.52271274;fill-rule:nonzero;stroke:none;stroke-width:2.25;marker:none;visibility:visible;display:inline;overflow:visible;enable-background:accumulate"
       id="path2985-1-7-4-0-9-4-8-8-2-4"
       sodipodi:cx="48.509998"
       sodipodi:cy="26.370001"
       sodipodi:rx="0.63"
       sodipodi:ry="0.63"
       d="m 49.139998,26.370001 a 0.63,0.63 0 1 1 -1.26,0 0.63,0.63 0 1 1 1.26,0 z"
       transform="translate(11.53125,-10.09375)" />
    <path
       sodipodi:type="arc"
       style="color:#000000;fill:#000000;fill-opacity:0.52271274;fill-rule:nonzero;stroke:none;stroke-width:2.25;marker:none;visibility:visible;display:inline;overflow:visible;enable-background:accumulate"
       id="path2985-1-7-4-0-9-4-8-8-2-4-5"
       sodipodi:cx="48.509998"
       sodipodi:cy="26.370001"
       sodipodi:rx="0.63"
       sodipodi:ry="0.63"
       d="m 49.139998,26.370001 a 0.63,0.63 0 1 1 -1.26,0 0.63,0.63 0 1 1 1.26,0 z"
       transform="translate(14.25,-8.1562498)" />
    <path
       sodipodi:type="arc"
       style="color:#000000;fill:#000000;fill-opacity:0.52271274;fill-rule:nonzero;stroke:none;stroke-width:2.25;marker:none;visibility:visible;display:inline;overflow:visible;enable-background:accumulate"
       id="path2985-1-7-4-0-9-4-8-8-2-4-5-5"
       sodipodi:cx="48.509998"
       sodipodi:cy="26.370001"
       sodipodi:rx="0.63"
       sodipodi:ry="0.63"
       d="m 49.139998,26.370001 a 0.63,0.63 0 1 1 -1.26,0 0.63,0.63 0 1 1 1.26,0 z"
       transform="translate(13.96875,-5.9999998)" />
    <path
       sodipodi:type="arc"
       style="color:#000000;fill:#000000;fill-opacity:0.52271274;fill-rule:nonzero;stroke:none;stroke-width:2.25;marker:none;visibility:visible;display:inline;overflow:visible;enable-background:accumulate"
       id="path2985-1-7-4-0-9-4-8-8-2-4-5-5-1"
       sodipodi:cx="48.509998"
       sodipodi:cy="26.370001"
       sodipodi:rx="0.63"
       sodipodi:ry="0.63"
       d="m 49.139998,26.370001 a 0.63,0.63 0 1 1 -1.26,0 0.63,0.63 0 1 1 1.26,0 z"
       transform="translate(15.84375,-4.2812498)" />
    <path
       sodipodi:type="arc"
       style="color:#000000;fill:#000000;fill-opacity:0.52271274;fill-rule:nonzero;stroke:none;stroke-width:2.25;marker:none;visibility:visible;display:inline;overflow:visible;enable-background:accumulate"
       id="path2985-1-7-4-0-9-4-8-8-2-4-5-5-1-7"
       sodipodi:cx="48.509998"
       sodipodi:cy="26.370001"
       sodipodi:rx="0.63"
       sodipodi:ry="0.63"
       d="m 49.139998,26.370001 a 0.63,0.63 0 1 1 -1.26,0 0.63,0.63 0 1 1 1.26,0 z"
       transform="translate(13.3125,-2.4999998)" />
    <path
       sodipodi:type="arc"
       style="color:#000000;fill:#000000;fill-opacity:0.52271274;fill-rule:nonzero;stroke:none;stroke-width:2.25;marker:none;visibility:visible;display:inline;overflow:visible;enable-background:accumulate"
       id="path2985-1-7-4-0-9-4-8-8-2-4-5-5-1-7-1"
       sodipodi:cx="48.509998"
       sodipodi:cy="26.370001"
       sodipodi:rx="0.63"
       sodipodi:ry="0.63"
       d="m 49.139998,26.370001 a 0.63,0.63 0 1 1 -1.26,0 0.63,0.63 0 1 1 1.26,0 z"
       transform="translate(17.4375,-2.5312498)" />
    <path
       sodipodi:type="arc"
       style="color:#000000;fill:#000000;fill-opacity:0.52271274;fill-rule:nonzero;stroke:none;stroke-width:2.25;marker:none;visibility:visible;display:inline;overflow:visible;enable-background:accumulate"
       id="path2985-1-7-4-0-9-4-8-8-2-4-5-5-1-7-1-1"
       sodipodi:cx="48.509998"
       sodipodi:cy="26.370001"
       sodipodi:rx="0.63"
       sodipodi:ry="0.63"
       d="m 49.139998,26.370001 a 0.63,0.63 0 1 1 -1.26,0 0.63,0.63 0 1 1 1.26,0 z"
       transform="translate(16.78125,-6.2499998)" />
    <path
       sodipodi:type="arc"
       style="color:#000000;fill:#000000;fill-opacity:0.52271274;fill-rule:nonzero;stroke:none;stroke-width:2.25;marker:none;visibility:visible;display:inline;overflow:visible;enable-background:accumulate"
       id="path2985-1-7-4-0-9-4-8-8-2-4-5-5-1-7-1-1-5"
       sodipodi:cx="48.509998"
       sodipodi:cy="26.370001"
       sodipodi:rx="0.63"
       sodipodi:ry="0.63"
       d="m 49.139998,26.370001 a 0.63,0.63 0 1 1 -1.26,0 0.63,0.63 0 1 1 1.26,0 z"
       transform="translate(17.6875,-4.5312498)" />
    <path
       sodipodi:type="arc"
       style="color:#000000;fill:#000000;fill-opacity:0.52271274;fill-rule:nonzero;stroke:none;stroke-width:2.25;marker:none;visibility:visible;display:inline;overflow:visible;enable-background:accumulate"
       id="path2985-1-7-4-0-9-4-8-8-2-4-5-5-1-7-1-1-5-2"
       sodipodi:cx="48.509998"
       sodipodi:cy="26.370001"
       sodipodi:rx="0.63"
       sodipodi:ry="0.63"
       d="m 49.139998,26.370001 a 0.63,0.63 0 1 1 -1.26,0 0.63,0.63 0 1 1 1.26,0 z"
       transform="translate(20.15625,-3.6249998)" />
    <path
       sodipodi:type="arc"
       style="color:#000000;fill:#000000;fill-opacity:0.52271274;fill-rule:nonzero;stroke:none;stroke-width:2.25;marker:none;visibility:visible;display:inline;overflow:visible;enable-background:accumulate"
       id="path2985-1-7-4-0-9-4-8-8-2-4-5-5-1-7-1-1-5-2-7"
       sodipodi:cx="48.509998"
       sodipodi:cy="26.370001"
       sodipodi:rx="0.63"
       sodipodi:ry="0.63"
       d="m 49.139998,26.370001 a 0.63,0.63 0 1 1 -1.26,0 0.63,0.63 0 1 1 1.26,0 z"
       transform="translate(19.0625,-1.9999998)" />
    <path
       sodipodi:type="arc"
       style="color:#000000;fill:#000000;fill-opacity:0.52271274;fill-rule:nonzero;stroke:none;stroke-width:2.25;marker:none;visibility:visible;display:inline;overflow:visible;enable-background:accumulate"
       id="path2985-1-7-4-0-9-4-8-8-2-4-5-5-1-7-1-1-5-2-7-6"
       sodipodi:cx="48.509998"
       sodipodi:cy="26.370001"
       sodipodi:rx="0.63"
       sodipodi:ry="0.63"
       d="m 49.139998,26.370001 a 0.63,0.63 0 1 1 -1.26,0 0.63,0.63 0 1 1 1.26,0 z"
       transform="translate(19.5625,1.5599824e-7)" />
    <path
       sodipodi:type="arc"
       style="color:#000000;fill:#000000;fill-opacity:0.52271274;fill-rule:nonzero;stroke:none;stroke-width:2.25;marker:none;visibility:visible;display:inline;overflow:visible;enable-background:accumulate"
       id="path2985-1-7-4-0-9-4-8-8-2-4-5-5-1-7-1-1-5-2-7-6-1"
       sodipodi:cx="48.509998"
       sodipodi:cy="26.370001"
       sodipodi:rx="0.63"
       sodipodi:ry="0.63"
       d="m 49.139998,26.370001 a 0.63,0.63 0 1 1 -1.26,0 0.63,0.63 0 1 1 1.26,0 z"
       transform="translate(22.65625,-0.09374984)" />
    <path
       sodipodi:type="arc"
       style="color:#000000;fill:#000000;fill-opacity:0.52271274;fill-rule:nonzero;stroke:none;stroke-width:2.25;marker:none;visibility:visible;display:inline;overflow:visible;enable-background:accumulate"
       id="path2985-1-7-4-0-9-4-8-8-2-4-5-5-1-7-1-1-5-2-7-6-1-4"
       sodipodi:cx="48.509998"
       sodipodi:cy="26.370001"
       sodipodi:rx="0.63"
       sodipodi:ry="0.63"
       d="m 49.139998,26.370001 a 0.63,0.63 0 1 1 -1.26,0 0.63,0.63 0 1 1 1.26,0 z"
       transform="translate(23.65625,1.3437502)" />
  </g>
  <g
     inkscape:groupmode="layer"
     id="layer1"
     inkscape:label="Hair"
     class="hair"
     style="display:inline">
    <path
       style="fill:#ffffff;fill-opacity:1;stroke:#000000;stroke-width:4.5;stroke-linecap:butt;stroke-linejoin:miter;stroke-miterlimit:4;stroke-opacity:1;stroke-dasharray:none"
       d="m 52.92,19.44 c 1.26,-3.78 1.26,-8.82 0,-12.5999999 -8.82,-3.78 -26.46,-3.78 -39.06,5.0399999 7.56,0 5.04,3.78 5.04,3.78 0,0 -7.56,3.78 -13.86,11.34 5.04,0 7.56,0 7.56,0 0,0 -7.56,8.82 -8.82,16.38 8.40109,0.308533 9.934944,11.634966 10.08,11.34 C 20.615031,40.960325 25.328261,16.198015 37.8,27 c 2.52,-3.78 5.04,-7.56 15.12,-7.56 z"
       id="path3760"
       inkscape:connector-curvature="0"
       sodipodi:nodetypes="cccccccccc" />
  </g>
</svg>
