<?xml version="1.0" encoding="UTF-8" standalone="no"?>
<!-- Created with Inkscape (http://www.inkscape.org/) -->

<svg
   xmlns:dc="http://purl.org/dc/elements/1.1/"
   xmlns:cc="http://creativecommons.org/ns#"
   xmlns:rdf="http://www.w3.org/1999/02/22-rdf-syntax-ns#"
   xmlns:svg="http://www.w3.org/2000/svg"
   xmlns="http://www.w3.org/2000/svg"
   xmlns:xlink="http://www.w3.org/1999/xlink"
   xmlns:sodipodi="http://sodipodi.sourceforge.net/DTD/sodipodi-0.dtd"
   xmlns:inkscape="http://www.inkscape.org/namespaces/inkscape"
   width="100%"
   height="100%"
   viewBox="0 0 90 90"
   id="svg2"
   version="1.1"
   inkscape:version="0.48.4 r9939"
   sodipodi:docname="pockets.svg"
   class="pocketed-shirt"
   data-z="500"
   data-slots="shirt">
  <defs
     id="defs4">
    <linearGradient
       id="linearGradient5737">
      <stop
         style="stop-color:#000000;stop-opacity:1;"
         offset="0"
         id="stop5739" />
      <stop
         style="stop-color:#000000;stop-opacity:0;"
         offset="1"
         id="stop5741" />
    </linearGradient>
    <linearGradient
       inkscape:collect="always"
       xlink:href="#linearGradient5728"
       id="linearGradient5734"
       x1="945"
       y1="310.2579"
       x2="945"
       y2="388.79999"
       gradientUnits="userSpaceOnUse" />
    <linearGradient
       inkscape:collect="always"
       id="linearGradient5728">
      <stop
         style="stop-color:#000000;stop-opacity:1;"
         offset="0"
         id="stop5730" />
      <stop
         style="stop-color:#000000;stop-opacity:0;"
         offset="1"
         id="stop5732" />
    </linearGradient>
  </defs>
  <sodipodi:namedview
     id="base"
     pagecolor="#ffffff"
     bordercolor="#666666"
     borderopacity="1.0"
     inkscape:pageopacity="0.0"
     inkscape:pageshadow="2"
     inkscape:zoom="22.577651"
     inkscape:cx="34.232562"
     inkscape:cy="33.408123"
     inkscape:document-units="in"
     inkscape:current-layer="layer2"
     showgrid="false"
     units="in"
     inkscape:window-width="1920"
     inkscape:window-height="1017"
     inkscape:window-x="-8"
     inkscape:window-y="-8"
     inkscape:window-maximized="1">
    <inkscape:grid
       type="xygrid"
       id="grid2994"
       empspacing="5"
       visible="true"
       enabled="true"
       snapvisiblegridlinesonly="true"
       units="in"
       spacingx="0.014in"
       spacingy="0.014in" />
  </sodipodi:namedview>
  <metadata
     id="metadata7">
    <rdf:RDF>
      <cc:Work
         rdf:about="">
        <dc:format>image/svg+xml</dc:format>
        <dc:type
           rdf:resource="http://purl.org/dc/dcmitype/StillImage" />
        <dc:title />
      </cc:Work>
    </rdf:RDF>
  </metadata>
  <g
     inkscape:label="Body"
     inkscape:groupmode="layer"
     id="layer1"
     class="shirt"
     transform="translate(0,-962.35975)"
     style="display:inline">
    <path
       style="fill:#ffffff;fill-opacity:1;stroke:#000000;stroke-width:4.5;stroke-linecap:round;stroke-miterlimit:4;stroke-opacity:1;stroke-dasharray:none;stroke-dashoffset:0;display:inline"
       d="m 9.1875,1011.141 c 1.88688,18.1081 17.2051,32.2188 35.8125,32.2188 18.33498,0 33.47434,-13.7119 35.71875,-31.4375 -7.05244,2.6459 -19.97089,4.4375 -34.8125,4.4375 -16.28176,0 -30.28526,-2.1398 -36.71875,-5.2188 z"
       id="path3829-1-5-74-4-9-0-7"
       inkscape:connector-curvature="0"
       sodipodi:nodetypes="cscsc" />
  </g>
  <g
     inkscape:groupmode="layer"
     id="layer2"
     class="pockets"
     inkscape:label="Pockets">
    <path
       sodipodi:nodetypes="ccsccccc"
       inkscape:connector-curvature="0"
       id="path4891-5"
       d="m 24.21556,58.06165 -1.68251,8.8414 c 0,0 -0.673,3.5365 3.74767,4.3777 4.42067,0.8413 5.09367,-2.6952 5.09367,-2.6952 l 1.6825,-8.8414 -1.43174,-2.1048 -5.30481,-1.0095 z"
       style="fill:#b4b4b4;fill-opacity:1;stroke:#000000;stroke-width:2.25;stroke-linecap:butt;stroke-linejoin:miter;stroke-miterlimit:4;stroke-opacity:1;stroke-dasharray:none;display:inline" />
    <path
       style="fill:#b4b4b4;fill-opacity:1;stroke:#000000;stroke-width:2.25;stroke-linecap:butt;stroke-linejoin:miter;stroke-miterlimit:4;stroke-opacity:1;stroke-dasharray:none;display:inline"
       d="m 26.65684,54.86155 c -1.66165,0.3449 -3.27844,1.4447 -4.20954,2.8635 -0.65838,1.0033 -0.673,3.5366 -0.673,3.5366 0,0 1.97493,1.8943 3.20003,2.4412 1.64365,0.7338 3.50652,1.0883 5.3048,1.0095 1.34036,-0.059 3.87304,-1.0952 3.87304,-1.0952 0,0 0.91686,-2.3616 0.673,-3.5366 -0.34489,-1.6616 -1.4447,-3.2784 -2.86353,-4.2095 -1.50489,-0.9876 -3.54237,-1.3753 -5.3048,-1.0095 z"
       id="path6843-9"
       inkscape:connector-curvature="0"
       sodipodi:nodetypes="aacaacaaa" />
    <path
       sodipodi:nodetypes="ccsccccc"
       inkscape:connector-curvature="0"
       id="path4891-5-1"
       d="m 39.69735,61.76085 -1.68251,8.8413 c 0,0 -0.673,3.5366 3.74767,4.3778 4.42067,0.8413 5.09367,-2.6952 5.09367,-2.6952 l 1.6825,-8.8414 -1.43174,-2.1048 -5.30481,-1.0095 z"
       style="fill:#b4b4b4;fill-opacity:1;stroke:#000000;stroke-width:2.25;stroke-linecap:butt;stroke-linejoin:miter;stroke-miterlimit:4;stroke-opacity:1;stroke-dasharray:none;display:inline" />
    <path
       style="fill:#b4b4b4;fill-opacity:1;stroke:#000000;stroke-width:2.25;stroke-linecap:butt;stroke-linejoin:miter;stroke-miterlimit:4;stroke-opacity:1;stroke-dasharray:none;display:inline"
       d="m 42.13862,58.56075 c -1.66164,0.3449 -3.27843,1.4447 -4.20953,2.8635 -0.65838,1.0033 -0.673,3.5366 -0.673,3.5366 0,0 1.97493,1.8943 3.20003,2.4412 1.64365,0.7338 3.50652,1.0883 5.3048,1.0095 1.34036,-0.059 3.87304,-1.0952 3.87304,-1.0952 0,0 0.91686,-2.3616 0.673,-3.5366 -0.34489,-1.6616 -1.44471,-3.2784 -2.86353,-4.2095 -1.50489,-0.9876 -3.54237,-1.3753 -5.30481,-1.0095 z"
       id="path6843-9-8"
       inkscape:connector-curvature="0"
       sodipodi:nodetypes="aacaacaaa" />
    <path
       sodipodi:type="arc"
       style="fill:none;stroke:#000000;stroke-width:2.32097101;stroke-opacity:1;display:inline"
       id="path6845-9-1"
       sodipodi:cx="202.5"
       sodipodi:cy="470.70001"
       sodipodi:rx="0.89999998"
       sodipodi:ry="0.89999998"
       d="m 203.4,470.70001 a 0.89999998,0.89999998 0 1 1 -1.8,0 0.89999998,0.89999998 0 1 1 1.8,0 z"
       transform="matrix(0.82148327,0.15497038,-0.1532493,0.79831068,-66.018094,-346.39779)" />
    <path
       sodipodi:type="arc"
       style="fill:none;stroke:#000000;stroke-width:2.46923709;stroke-opacity:1;display:inline"
       id="path6845-9-2-7"
       sodipodi:cx="202.5"
       sodipodi:cy="470.70001"
       sodipodi:rx="0.89999998"
       sodipodi:ry="0.89999998"
       d="m 203.4,470.70001 a 0.89999998,0.89999998 0 1 1 -1.8,0 0.89999998,0.89999998 0 1 1 1.8,0 z"
       transform="matrix(0.77253516,0.14559385,-0.14411794,0.75000865,-44.922447,-318.0641)" />
  </g>
</svg>
