<?xml version="1.0" encoding="UTF-8" standalone="no"?>
<!-- Created with Inkscape (http://www.inkscape.org/) -->

<svg
   xmlns:dc="http://purl.org/dc/elements/1.1/"
   xmlns:cc="http://creativecommons.org/ns#"
   xmlns:rdf="http://www.w3.org/1999/02/22-rdf-syntax-ns#"
   xmlns:svg="http://www.w3.org/2000/svg"
   xmlns="http://www.w3.org/2000/svg"
   xmlns:sodipodi="http://sodipodi.sourceforge.net/DTD/sodipodi-0.dtd"
   xmlns:inkscape="http://www.inkscape.org/namespaces/inkscape"
   width="100%"
   height="100%"
   viewBox="0 0 90 90"
   id="svg2"
   version="1.1"
   inkscape:version="0.48.4 r9939"
   sodipodi:docname="ragged-cape.svg"
   class="ragged-cape"
   data-z="0"
   data-slots="back">
  <defs
     id="defs4">
    <inkscape:path-effect
       effect="sketch"
       id="path-effect5121-4"
       is_visible="true"
       nbiter_approxstrokes="3"
       strokelength="1"
       strokelength_rdm="0;1"
       strokeoverlap="0.1"
       strokeoverlap_rdm="0;1"
       ends_tolerance="0.9;1"
       parallel_offset="0.9;1"
       tremble_size="1.5;1"
       tremble_frequency="0.01"
       nbtangents="0"
       tgt_places_rdmness="1;1"
       tgtscale="10.5"
       tgtlength="100"
       tgtlength_rdm="0.1;1" />
    <inkscape:path-effect
       effect="sketch"
       id="path-effect5121-7"
       is_visible="true"
       nbiter_approxstrokes="3"
       strokelength="1"
       strokelength_rdm="0;1"
       strokeoverlap="0.1"
       strokeoverlap_rdm="0;1"
       ends_tolerance="0.9;1"
       parallel_offset="0.9;1"
       tremble_size="1.5;1"
       tremble_frequency="0.01"
       nbtangents="0"
       tgt_places_rdmness="1;1"
       tgtscale="10.5"
       tgtlength="100"
       tgtlength_rdm="0.1;1" />
    <inkscape:path-effect
       effect="sketch"
       id="path-effect5257"
       is_visible="true"
       nbiter_approxstrokes="2"
       strokelength="1"
       strokelength_rdm="0.1;1"
       strokeoverlap="0"
       strokeoverlap_rdm="0;1"
       ends_tolerance="0;1"
       parallel_offset="0.8;1"
       tremble_size="0.7;1"
       tremble_frequency="1"
       nbtangents="0"
       tgt_places_rdmness="1;1"
       tgtscale="10"
       tgtlength="100"
       tgtlength_rdm="0.3;1" />
  </defs>
  <sodipodi:namedview
     id="base"
     pagecolor="#ffffff"
     bordercolor="#666666"
     borderopacity="1.0"
     inkscape:pageopacity="0.0"
     inkscape:pageshadow="2"
     inkscape:zoom="3.9912026"
     inkscape:cx="132.53668"
     inkscape:cy="-31.527546"
     inkscape:document-units="in"
     inkscape:current-layer="svg2"
     showgrid="false"
     units="in"
     inkscape:window-width="1920"
     inkscape:window-height="1017"
     inkscape:window-x="-8"
     inkscape:window-y="-8"
     inkscape:window-maximized="1">
    <inkscape:grid
       type="xygrid"
       id="grid2994"
       empspacing="5"
       visible="true"
       enabled="true"
       snapvisiblegridlinesonly="true"
       units="in"
       spacingx="0.014in"
       spacingy="0.014in" />
  </sodipodi:namedview>
  <metadata
     id="metadata7">
    <rdf:RDF>
      <cc:Work
         rdf:about="">
        <dc:format>image/svg+xml</dc:format>
        <dc:type
           rdf:resource="http://purl.org/dc/dcmitype/StillImage" />
        <dc:title />
      </cc:Work>
    </rdf:RDF>
  </metadata>
  <g
     inkscape:label="Body"
     inkscape:groupmode="layer"
     id="layer1"
     class="cape"
     transform="translate(0,-962.35975)"
     style="display:inline">
    <path
       sodipodi:nodetypes="ccsccccccccsccccccscccccccccsccccccccc"
       inkscape:connector-curvature="0"
       id="path3958-7-1-2"
       d="m 9,1007.3597 -5.40625,36.0001 c 0,3.6 3.60625,3.5937 5.40625,3.5937 0.16963,0 0.49121,0 0.71875,0 L 9,1043.3598 l 1.8125,-5.4063 3.59375,-3.5937 1.78125,5.4062 -1.78125,3.5938 0.75,3.0625 c 1.17553,-0.2665 2.22566,-0.632 2.84375,-1.25 1.8,1.8 5.4,3.5937 9,3.5937 1.44252,0 2.89204,-0.01 4.21875,-0.125 l 1.1875,-10.6875 3.59375,-5.4062 3.59375,7.2187 3.59375,5.4063 -0.59375,3.5312 c 0.99373,0.05 1.86619,0.062 2.40625,0.062 1.8,0 7.2,-0.013 9,-1.8125 1.288,1.288 4.41338,1.6422 6.75,1.75 l -0.45312,-11.6406 -4.48438,-2.7031 3.59375,-3.5938 3.59375,-1.8125 4.5,7.2188 2.21875,10.6562 c 0.89923,-0.5178 1.69793,-1.0729 2.28125,-1.6562 1.8,1.8 5.4,1.7812 9,1.7812 0.3845,0 0.75019,-0.055 1.09375,-0.094 l 0.71875,-3.5 -5.40625,-1.8125 0,-5.375 7.375,-3.6875 L 81,1007.3597 l -18,0 -36,0 z"
       style="fill:#ffffff;fill-opacity:1;stroke:#000000;stroke-width:4.5;stroke-linecap:butt;stroke-linejoin:miter;stroke-miterlimit:4;stroke-opacity:1;stroke-dasharray:none" />
    <path
       sodipodi:nodetypes="cccccc"
       inkscape:connector-curvature="0"
       d="m 72,1045.1598 -1.8,-7.2 m -16.2,9 0,-9 m -36,7.2 1.8,-7.2"
       style="fill:#ffffff;fill-opacity:1;stroke:#000000;stroke-width:2.25;stroke-linecap:butt;stroke-linejoin:miter;stroke-miterlimit:4;stroke-opacity:1;stroke-dasharray:none"
       id="path3992-1-3" />
  </g>
</svg>
