<?xml version="1.0" encoding="UTF-8" standalone="no"?>
<svg
   xmlns:dc="http://purl.org/dc/elements/1.1/"
   xmlns:cc="http://creativecommons.org/ns#"
   xmlns:rdf="http://www.w3.org/1999/02/22-rdf-syntax-ns#"
   xmlns:svg="http://www.w3.org/2000/svg"
   xmlns="http://www.w3.org/2000/svg"
   xmlns:sodipodi="http://sodipodi.sourceforge.net/DTD/sodipodi-0.dtd"
   xmlns:inkscape="http://www.inkscape.org/namespaces/inkscape"
   viewBox="0 0 90 90"
   class="sashed-robe-2"
   id="svg2"
   version="1.1"
   inkscape:version="0.48.4 r9939"
   width="100%"
   height="100%"
   sodipodi:docname="temp.svg">
  <defs
     id="defs16" />
  <sodipodi:namedview
     pagecolor="#ffffff"
     bordercolor="#666666"
     borderopacity="1"
     objecttolerance="10"
     gridtolerance="10"
     guidetolerance="10"
     inkscape:pageopacity="0"
     inkscape:pageshadow="2"
     inkscape:window-width="1920"
     inkscape:window-height="1017"
     id="namedview14"
     showgrid="false"
     inkscape:zoom="7.4167645"
     inkscape:cx="25.704724"
     inkscape:cy="46.458914"
     inkscape:window-x="-8"
     inkscape:window-y="-8"
     inkscape:window-maximized="1"
     inkscape:current-layer="svg2" />
  <metadata
     title="Basic Body"
     contributor="Douglas Richardson"
     id="metadata4">
    <layers
       id="layers6">
      <layer
         name="Primary"
         data-layer="layer1"
         id="layer8" />
    </layers>
    <rdf:RDF>
      <cc:Work
         rdf:about="">
        <dc:format>image/svg+xml</dc:format>
        <dc:type
           rdf:resource="http://purl.org/dc/dcmitype/StillImage" />
        <dc:title></dc:title>
      </cc:Work>
    </rdf:RDF>
  </metadata>
  <g
     inkscape:groupmode="layer"
     id="layer2"
     inkscape:label="shirt"
     style="display:inline"
     class="shirt">
    <path
       style="fill:#ffffff;fill-opacity:1;stroke:#000000;stroke-width:4.5;stroke-linecap:round;stroke-miterlimit:4;stroke-opacity:1;stroke-dasharray:none;stroke-dashoffset:0;display:inline"
       d="m 9.18,48.78115 c 1.88688,18.1081 17.2051,32.2189 35.8125,32.2189 18.33498,0 33.47434,-13.7119 35.71875,-31.4375 -7.05244,2.6459 -19.97089,4.4375 -34.8125,4.4375 -16.28176,0 -30.28526,-2.1398 -36.71875,-5.2188 z"
       id="path3829-1-5-74-4-9-0-7-87-0"
       inkscape:connector-curvature="0"
       sodipodi:nodetypes="cscsc" />
  </g>
  <g
     inkscape:groupmode="layer"
     id="layer1"
     inkscape:label="sash"
     class="sash">
    <path
       style="fill:#ffffff;fill-opacity:1;stroke:#000000;stroke-width:4.5;stroke-linecap:butt;stroke-linejoin:miter;stroke-miterlimit:4;stroke-opacity:1;stroke-dasharray:none"
       d="m 81.90625,50.9375 -1.5,0.65625 c 0.01346,-0.07272 0.01823,-0.145877 0.03125,-0.21875 -0.194606,-0.05474 -0.407647,-0.08937 -0.65625,-0.09375 -0.207816,-0.0037 -0.438797,0.02689 -0.6875,0.0625 -4.112398,-0.07127 -8.275052,0.388846 -12.125,1.90625 -3.051225,1.041801 -6.210051,1.743855 -9.15625,3.09375 -3.157909,1.30398 -6.530347,2.064559 -9.46875,3.875 -2.231241,1.338213 -4.670637,2.290371 -7.03125,3.34375 -3.38828,1.813893 -6.276627,4.504542 -8.15625,7.875 -0.938277,1.671337 -2.064148,3.340435 -2.625,5.15625 0.02675,0.261553 0.10668,0.766154 -0.28125,0.8125 0.229238,0.274526 0.489562,0.519609 0.75,0.75 0.847498,0.358024 1.714607,0.706458 2.59375,1 0.555294,-0.0041 1.117675,0.03147 1.65625,0.125 0.0023,0.146362 0.03174,0.281582 0.0625,0.40625 2.802219,0.780295 5.748064,1.206733 8.78125,1.28125 12.072412,0.474317 25.33957,0.21875 37.8125,0.21875 z"
       id="path4437"
       inkscape:connector-curvature="0"
       sodipodi:nodetypes="ccccccccccccccccccc" />
    <path
       style="fill:#ffffff;fill-opacity:1;stroke:#000000;stroke-width:4.5;stroke-linecap:butt;stroke-linejoin:miter;stroke-miterlimit:4;stroke-opacity:1;stroke-dasharray:none;display:inline"
       d="m 81.59375,45.625 c -1.510608,0.08482 -2.864728,0.626032 -3.71875,1.875 -4.370311,-0.815658 -8.303011,2.111757 -12.46875,3 -4.279886,-0.354189 -6.961096,2.437194 -9.90625,4.78125 -4.933831,-1.604937 -5.921339,4.135459 -9.96875,4.96875 -3.796049,0.781168 -8.016265,-0.09725 -11.40625,2.3125 -1.504164,2.594047 -4.832762,2.092276 -6.71875,3.3125 -0.02111,0.0011 -0.04134,-8.62e-4 -0.0625,0 -1.461193,0.200251 -3.15552,0.282105 -4.15625,1.53125 -1.043298,1.21336 -2.707813,0.793833 -4.03125,1.28125 -0.934457,0.251198 -2.000443,1.026452 -1.0625,1.96875 0.756543,1.271024 1.535302,2.671062 2.90625,3.375 1.089468,0.812577 2.549485,1.027513 3.53125,1.96875 -0.05353,0.08009 -0.09391,0.170867 -0.15625,0.25 -2.789718,4.422519 3.983789,2.929286 6.34375,4.09375 4.061378,1.110042 7.533513,-1.77122 11.03125,-3.4375 4.145878,-1.820732 7.289811,-5.292166 11.5,-6.9375 C 56.570159,69.222344 59.510906,67.08376 61,64 c 2.127797,-3.542504 6.767247,-2.027117 9.78125,-4.125 3.297208,-1.978542 7.326795,-2.513617 10.34375,-5.03125 3.189341,-1.436858 6.469774,-5.867394 3.28125,-8.9375 -0.944631,-0.207178 -1.906135,-0.332144 -2.8125,-0.28125 z"
       id="path4373"
       inkscape:connector-curvature="0" />
    <path
       style="fill:#ffffff;fill-opacity:1;stroke:#000000;stroke-width:2.25;stroke-linecap:round;stroke-linejoin:miter;stroke-miterlimit:4;stroke-opacity:1;stroke-dasharray:none;display:inline"
       d="m 63,55.98 c 0.887369,-0.02361 1.764482,-0.122989 2.644379,-0.242855 0.811133,0.02421 1.627805,-0.05286 2.419298,-0.228568 0.756108,-0.224355 1.204962,-0.872632 1.524727,-1.544443 0.587908,-0.398239 1.410032,0.0033 2.069135,-0.244486 0.868105,-0.237381 1.46636,-0.978816 2.256649,-1.347514 0.548684,-0.175241 1.133473,0.01278 1.685812,-0.172126"
       id="path4390"
       inkscape:connector-curvature="0" />
    <path
       style="fill:#ffffff;fill-opacity:1;stroke:#000000;stroke-width:2.25;stroke-linecap:round;stroke-linejoin:miter;stroke-miterlimit:4;stroke-opacity:1;stroke-dasharray:none;display:inline"
       d="m 30.24,74.88 c 0.456419,-1.185038 1.895693,-1.15014 2.924658,-1.457194 2.252727,-0.594805 4.701557,-1.087157 6.417038,-2.790174 1.982994,-1.383693 4.475849,-1.88638 6.303402,-3.517939 1.678908,-1.268508 3.387419,-2.648989 5.478207,-3.149655"
       id="path4386"
       inkscape:connector-curvature="0"
       sodipodi:nodetypes="ccccc" />
  </g>
</svg>
