<!--?xml version="1.0" encoding="UTF-8" standalone="no"?--><!-- Created with Inkscape (http://www.inkscape.org/) --><svg xmlns:dc="http://purl.org/dc/elements/1.1/" xmlns:cc="http://creativecommons.org/ns#" xmlns:rdf="http://www.w3.org/1999/02/22-rdf-syntax-ns#" xmlns:svg="http://www.w3.org/2000/svg" xmlns="http://www.w3.org/2000/svg" xlink="http://www.w3.org/1999/xlink" xmlns:sodipodi="http://sodipodi.sourceforge.net/DTD/sodipodi-0.dtd" xmlns:inkscape="http://www.inkscape.org/namespaces/inkscape" width="100%" height="100%" viewBox="0 0 90 90" id="svg2" version="1.1" inkscape:version="0.48.4 r9939" sodipodi:docname="C:\git\dougrich.net\token-builder\token-builder-content\template.svg" class="scale-mail" data-z="500" data-slots="clothing" data-tags="clothing">
  <defs id="defs4">
    <linearGradient id="linearGradient5737">
      <stop style="stop-color:#000000;stop-opacity:1;" offset="0" id="stop5739"/>
      <stop style="stop-color:#000000;stop-opacity:0;" offset="1" id="stop5741"/>
    </linearGradient>
    <linearGradient inkscape:collect="always" href="#linearGradient5728" id="linearGradient5734" x1="945" y1="310.2579" x2="945" y2="388.79999" gradientUnits="userSpaceOnUse"/>
    <linearGradient inkscape:collect="always" id="linearGradient5728">
      <stop style="stop-color:#000000;stop-opacity:1;" offset="0" id="stop5730"/>
      <stop style="stop-color:#000000;stop-opacity:0;" offset="1" id="stop5732"/>
    </linearGradient>
  </defs>
  <sodipodi:namedview id="base" pagecolor="#ffffff" bordercolor="#666666" borderopacity="1.0" inkscape:pageopacity="0.0" inkscape:pageshadow="2" inkscape:zoom="0.99780064" inkscape:cx="565.94265" inkscape:cy="-271.84019" inkscape:document-units="in" inkscape:current-layer="layer1" showgrid="false" units="in" inkscape:window-width="1920" inkscape:window-height="1003" inkscape:window-x="-9" inkscape:window-y="-9" inkscape:window-maximized="1">
    <inkscape:grid type="xygrid" id="grid2994" empspacing="5" visible="true" enabled="true" snapvisiblegridlinesonly="true" units="in" spacingx="0.014in" spacingy="0.014in"/>
  </sodipodi:namedview>
  <metadata id="metadata7">
    <rdf:rdf>
      <cc:work rdf:about="">
        <dc:format>image/svg+xml</dc:format>
        <dc:type rdf:resource="http://purl.org/dc/dcmitype/StillImage"/>
        <dc:title/>
      </cc:work>
    </rdf:rdf>
  </metadata>
  <g inkscape:label="Body" inkscape:groupmode="layer" id="layer1" class="scales" transform="translate(0,-962.35975)" style="display:inline">
    <g style="display:inline" id="g4393" transform="translate(450,-540.00005)">
      <path sodipodi:nodetypes="cscc" inkscape:connector-curvature="0" id="path3829-1-5-74-4-1" d="m -438.71875,1559.9535 c 5.10805,13.6668 18.2701,23.4063 33.71875,23.4063 15.44865,0 28.6107,-9.7395 33.71875,-23.4063 z" style="fill:#ffffff;fill-opacity:1;stroke:#000000;stroke-width:4.5;stroke-linecap:round;stroke-miterlimit:4;stroke-opacity:1;stroke-dasharray:none;stroke-dashoffset:0"/>
      <path id="path9913-1-5-2-7-6-5" d="m -423.0625,1577.4848 c -0.45807,0 -0.94128,0.061 -1.40625,0.1562 2.14473,1.3819 4.45009,2.5312 6.875,3.4375 -0.55019,-1.8332 -2.75216,-3.2504 -4.65625,-3.5312 -0.2675,-0.039 -0.52794,-0.061 -0.8125,-0.062 z m 10.40625,1.1875 c -1.78248,0.1324 -3.72641,1.0699 -4.5,2.5625 3.27436,1.1751 6.77079,1.9188 10.40625,2.0937 0.0102,-0.073 0.0265,-0.1449 0.0312,-0.2187 0.0116,-0.1804 -0.008,-0.3765 -0.0312,-0.5625 -0.26969,-2.1463 -2.90548,-3.7113 -5.0625,-3.875 -0.26963,-0.02 -0.55855,-0.021 -0.84375,0 z m 5.9375,4.4375 c -0.002,0.074 -0.004,0.1452 0,0.2187 0.57251,0.027 1.13954,0.031 1.71875,0.031 3.0831,0 6.0815,-0.3647 8.9375,-1.0938 -0.63501,-1.9082 -3.15968,-3.1575 -5.1875,-3.1875 -2.16301,-0.032 -4.94621,1.3551 -5.40625,3.4688 -0.0399,0.1832 -0.0579,0.3822 -0.0625,0.5625 z m 16.03125,-4.2188 c -1.99225,0.089 -4.43202,1.4019 -5.0625,3.2813 2.60159,-0.6893 5.07094,-1.6843 7.40625,-2.9063 -0.7829,-0.2704 -1.59398,-0.4083 -2.34375,-0.375 z" style="fill:#ffffff;fill-opacity:1;stroke:#000000;stroke-width:2.25;stroke-linecap:butt;stroke-linejoin:miter;stroke-miterlimit:4;stroke-opacity:1;stroke-dasharray:none" inkscape:connector-curvature="0"/>
      <path id="path9913-1-5-2-7-7" d="m -429.21875,1572.391 c -0.4959,0 -0.99824,0.075 -1.5,0.1875 2.04639,2.0868 4.37371,3.8962 6.875,5.4375 0.17047,-0.4166 0.24693,-0.8468 0.21875,-1.3125 -0.13068,-2.1592 -2.60997,-3.9344 -4.75,-4.25 -0.2675,-0.04 -0.55919,-0.061 -0.84375,-0.062 z m 43.71875,0.5313 c -0.28504,-0.01 -0.57496,0 -0.84375,0.031 -2.15032,0.2357 -4.7035,1.9401 -4.90625,4.0937 -0.10543,1.1201 0.44546,2.118 1.28125,3 3.09892,-1.4282 5.98299,-3.2614 8.53125,-5.4687 -0.97969,-1.0243 -2.58166,-1.6078 -4.0625,-1.6563 z m -33.28125,0.6562 c -1.99638,0.1484 -4.22901,1.3054 -4.75,3.125 -0.14253,0.4978 -0.13646,1.0094 -0.0312,1.5 2.52914,1.5259 5.24008,2.7536 8.125,3.625 1.32564,-1.0972 2.47021,-2.3762 2.5625,-3.8125 0.0116,-0.1804 0.0234,-0.3452 0,-0.5312 -0.26969,-2.1463 -2.90548,-3.7426 -5.0625,-3.9063 -0.26963,-0.021 -0.55855,-0.021 -0.84375,0 z m 5.90625,4.4375 c -0.0478,1.8883 1.75318,3.6113 3.40625,5.0625 1.18066,0.1464 2.38049,0.2521 3.59375,0.2813 0.0105,2e-4 0.0208,-3e-4 0.0312,0 1.75515,-1.4539 3.77224,-3.2373 3.78125,-5.2188 8.2e-4,-0.1807 -0.0281,-0.3782 -0.0625,-0.5625 -0.39656,-2.1265 -3.11824,-3.5305 -5.28125,-3.5625 -2.16301,-0.032 -4.94621,1.3551 -5.40625,3.4688 -0.0399,0.1832 -0.0579,0.3509 -0.0625,0.5312 z m 10.8125,0.125 c 0.0611,1.7936 1.77834,3.3457 3.4375,4.6563 1.92953,-0.3456 3.81521,-0.8602 5.625,-1.5 1.15899,-1.3025 2.02698,-2.7387 1.65625,-4.2188 -0.52561,-2.0983 -3.33892,-3.3772 -5.5,-3.2812 -2.16108,0.097 -4.85368,1.644 -5.1875,3.7812 -0.0289,0.1853 -0.0374,0.3822 -0.0312,0.5625 z" style="fill:#ffffff;fill-opacity:1;stroke:#000000;stroke-width:2.25;stroke-linecap:butt;stroke-linejoin:miter;stroke-miterlimit:4;stroke-opacity:1;stroke-dasharray:none" inkscape:connector-curvature="0"/>
      <path id="path9913-1-5-2-6" d="m -434.09375,1564.641 c -0.77679,-0.023 -1.56595,0.096 -2.28125,0.3438 1.59613,2.8343 3.53733,5.458 5.8125,7.75 1.02968,-0.6878 1.86328,-1.5 2.09375,-2.5313 0.0391,-0.1751 0.0587,-0.3438 0.0625,-0.5312 0.0434,-2.1626 -1.9286,-4.1578 -4,-4.7813 -0.51785,-0.1559 -1.1024,-0.2328 -1.6875,-0.25 z m 5.625,5.5625 c -0.45452,2.6736 2.9206,5.6158 4.34375,7.5313 1.91551,-1.4231 5.96255,-3.1905 6.3125,-5.875 0.0233,-0.179 0.0113,-0.3754 0,-0.5625 -0.13068,-2.1592 -2.60997,-3.9344 -4.75,-4.25 -2.14003,-0.3157 -4.98929,0.6001 -5.75,2.625 -0.0659,0.1755 -0.12595,0.353 -0.15625,0.5312 z m 10.65625,1.6563 c -0.24144,2.6952 3.32017,5.2835 4.875,7.0937 1.81034,-1.5548 5.73239,-3.6066 5.90625,-6.3125 -0.0405,2.692 3.62496,5.0756 5.28125,6.7813 1.71208,-1.6623 5.48767,-3.9766 5.5,-6.6875 8.2e-4,-0.1808 0.003,-0.3782 -0.0312,-0.5625 -0.39656,-2.1265 -3.14949,-3.5305 -5.3125,-3.5625 -2.16301,-0.032 -4.91496,1.355 -5.375,3.4687 -0.0399,0.1832 -0.0579,0.351 -0.0625,0.5313 0.009,-0.1707 -0.009,-0.3556 -0.0312,-0.5313 -0.26969,-2.1463 -2.90548,-3.7113 -5.0625,-3.875 -2.15702,-0.1638 -4.99833,1.0142 -5.59375,3.0938 -0.0516,0.1802 -0.0777,0.3828 -0.0937,0.5625 z m 21.5625,0.875 c 0.0922,2.705 3.95768,4.8584 5.71875,6.4687 1.61043,-1.7609 5.24619,-4.2937 5.09375,-7 -0.0102,-0.1804 -0.0482,-0.3494 -0.0937,-0.5312 -0.52561,-2.0983 -3.33892,-3.346 -5.5,-3.25 -2.16108,0.097 -4.82243,1.6128 -5.15625,3.75 -0.0289,0.1852 -0.0686,0.3821 -0.0625,0.5625 z m 10.8125,-0.5313 c 0.13218,1.3778 1.233,2.549 2.53125,3.5625 2.58419,-2.0129 4.89216,-4.3667 6.84375,-7 -1.2048,-0.9398 -3.00062,-1.3797 -4.46875,-1.2187 -2.15032,0.2357 -4.7035,1.9714 -4.90625,4.125 -0.0176,0.1866 -0.0172,0.3517 0,0.5312 z" style="fill:#ffffff;fill-opacity:1;stroke:#000000;stroke-width:2.25;stroke-linecap:butt;stroke-linejoin:miter;stroke-miterlimit:4;stroke-opacity:1;stroke-dasharray:none" inkscape:connector-curvature="0"/>
      <path id="path9913-1-5-1" d="m -438.875,1559.5785 c 0.8583,2.379 1.96605,4.6339 3.28125,6.75 0.495,-0.5692 0.8287,-1.2189 0.84375,-1.9687 0.0434,-2.1626 -1.95985,-4.1265 -4.03125,-4.75 -0.0306,-0.01 -0.0628,-0.023 -0.0937,-0.031 z m 63.75,0.8125 c -0.56237,-0.02 -1.12946,0.034 -1.65625,0.1563 -2.10714,0.4895 -4.29351,2.3687 -4.34375,4.5312 -0.0484,2.0846 2.21062,3.5296 4.3125,4.6563 1.97977,-2.4909 3.63603,-5.2547 4.90625,-8.2188 -0.87338,-0.7079 -2.03172,-1.0825 -3.21875,-1.125 z m -54.625,1.3125 c -1.99191,-0.01 -4.27188,0.9157 -4.9375,2.6875 -1.05494,2.8082 2.66947,6.0194 4.1875,8.0625 2.04321,-1.5179 6.52495,-3.4431 6.34375,-6.4375 -0.13068,-2.1592 -2.60997,-3.9344 -4.75,-4.25 -0.2675,-0.04 -0.55919,-0.061 -0.84375,-0.062 z m 43.71875,0.5313 c -0.28504,-0.01 -0.57496,0 -0.84375,0.031 -2.15032,0.2357 -4.7035,1.9401 -4.90625,4.0937 -0.0176,0.1867 -0.0172,0.383 0,0.5625 0.25828,2.6922 4.23249,4.5692 6.09375,6.0625 1.59303,-1.9853 5.43246,-5.0238 4.5,-7.875 -0.58834,-1.799 -2.84844,-2.8096 -4.84375,-2.875 z m -5.75,4.6875 c -0.0102,-0.1805 -0.0482,-0.3494 -0.0937,-0.5313 -0.52561,-2.0983 -3.33892,-3.3772 -5.5,-3.2812 -2.16108,0.097 -4.85368,1.644 -5.1875,3.7812 -0.0289,0.1853 -0.0374,0.3822 -0.0312,0.5625 0.0922,2.705 3.95768,4.8585 5.71875,6.4688 1.61043,-1.761 5.24619,-4.2937 5.09375,-7 z m -10.8125,0.5312 c 8.2e-4,-0.1807 0.003,-0.3782 -0.0312,-0.5625 -0.39656,-2.1265 -3.14949,-3.5305 -5.3125,-3.5625 -2.16301,-0.032 -4.94621,1.3551 -5.40625,3.4688 -0.0399,0.1832 -0.0579,0.3509 -0.0625,0.5312 -0.0684,2.7045 3.65007,5.0693 5.3125,6.7813 1.71208,-1.6623 5.48767,-3.9453 5.5,-6.6563 z m -10.8125,-0.125 c 0.0116,-0.1804 0.0234,-0.3452 0,-0.5312 -0.26969,-2.1463 -2.90548,-3.7426 -5.0625,-3.9063 -2.15702,-0.1638 -4.99833,1.0454 -5.59375,3.125 -0.82572,2.8841 3.12276,5.7254 4.78125,7.6563 1.81034,-1.5548 5.70114,-3.6379 5.875,-6.3438 z" style="fill:#ffffff;fill-opacity:1;stroke:#000000;stroke-width:2.25;stroke-linecap:butt;stroke-linejoin:miter;stroke-miterlimit:4;stroke-opacity:1;stroke-dasharray:none" inkscape:connector-curvature="0"/>
      <path id="path9913-1-8" d="m -435.25,1553.4223 c -1.75531,-0.052 -3.62537,0.5467 -4.40625,1.9687 -0.12782,0.2328 -0.2216,0.4701 -0.28125,0.7188 0.53783,2.1541 1.31247,4.2066 2.21875,6.1875 0.39254,0.6202 0.76313,1.2197 1.03125,1.7187 2.24227,-1.2046 7.06479,-2.5633 7.125,-5.5625 0.0434,-2.1626 -1.95985,-4.1577 -4.03125,-4.7812 -0.51785,-0.1559 -1.07115,-0.2328 -1.65625,-0.25 z m 65.3125,1.0312 c -0.56237,-0.02 -1.12946,0.034 -1.65625,0.1563 -2.10714,0.4895 -4.29351,2.4 -4.34375,4.5625 -0.0402,1.7312 1.52124,3.0032 3.25,4.0312 1.34294,-2.7324 2.38345,-5.6501 3,-8.7187 -0.0834,-0.01 -0.16656,-0.028 -0.25,-0.031 z m -54.625,1.3125 c -1.99191,-0.01 -4.27188,0.9157 -4.9375,2.6875 -1.05494,2.8082 2.66947,6.0194 4.1875,8.0625 2.04321,-1.5179 6.52495,-3.4431 6.34375,-6.4375 -0.13068,-2.1592 -2.60997,-3.9344 -4.75,-4.25 -0.2675,-0.04 -0.55919,-0.061 -0.84375,-0.062 z m 43.71875,0.5313 c -0.28504,-0.01 -0.57496,0 -0.84375,0.031 -2.15032,0.2357 -4.7035,1.9713 -4.90625,4.125 -0.0176,0.1866 -0.0172,0.3517 0,0.5312 0.25828,2.6922 4.23249,4.6004 6.09375,6.0938 1.59303,-1.9853 5.43246,-5.0551 4.5,-7.9063 -0.58834,-1.799 -2.84844,-2.8096 -4.84375,-2.875 z m -5.75,4.6875 c -0.0102,-0.1805 -0.0482,-0.3494 -0.0937,-0.5313 -0.52561,-2.0983 -3.33892,-3.346 -5.5,-3.25 -2.16108,0.097 -4.85368,1.6128 -5.1875,3.75 -0.0289,0.1853 -0.0374,0.3822 -0.0312,0.5625 0.0922,2.705 3.95768,4.8585 5.71875,6.4688 1.61043,-1.761 5.24619,-4.2937 5.09375,-7 z m -10.8125,0.5312 c 8.2e-4,-0.1807 0.003,-0.3782 -0.0312,-0.5625 -0.39656,-2.1265 -3.14949,-3.5305 -5.3125,-3.5625 -2.16301,-0.032 -4.94621,1.3551 -5.40625,3.4688 -0.0399,0.1832 -0.0579,0.3509 -0.0625,0.5312 -0.0684,2.7045 3.65007,5.0693 5.3125,6.7813 1.71208,-1.6623 5.48767,-3.9453 5.5,-6.6563 z m -10.8125,-0.125 c 0.0116,-0.1804 0.0234,-0.3452 0,-0.5312 -0.26969,-2.1463 -2.90548,-3.7113 -5.0625,-3.875 -2.15702,-0.1638 -4.99833,1.0141 -5.59375,3.0937 -0.82572,2.8841 3.12276,5.7254 4.78125,7.6563 1.81034,-1.5548 5.70114,-3.6379 5.875,-6.3438 z" style="fill:#ffffff;fill-opacity:1;stroke:#000000;stroke-width:2.25;stroke-linecap:butt;stroke-linejoin:miter;stroke-miterlimit:4;stroke-opacity:1;stroke-dasharray:none" inkscape:connector-curvature="0"/>
    </g>
  </g>
</svg>
