<!--?xml version="1.0" encoding="UTF-8" standalone="no"?--><!-- Created with Inkscape (http://www.inkscape.org/) --><svg xmlns:dc="http://purl.org/dc/elements/1.1/" xmlns:cc="http://creativecommons.org/ns#" xmlns:rdf="http://www.w3.org/1999/02/22-rdf-syntax-ns#" xmlns:svg="http://www.w3.org/2000/svg" xmlns="http://www.w3.org/2000/svg" xmlns:sodipodi="http://sodipodi.sourceforge.net/DTD/sodipodi-0.dtd" xmlns:inkscape="http://www.inkscape.org/namespaces/inkscape" width="100%" height="100%" viewBox="0 0 90 90" id="svg2" version="1.1" inkscape:version="0.48.4 r9939" sodipodi:docname="scythe.svg" class="scythe" data-z="1200" data-slots="left-weapon+right-weapon">
  <defs id="defs4"/>
  <sodipodi:namedview id="base" pagecolor="#ffffff" bordercolor="#666666" borderopacity="1.0" inkscape:pageopacity="0.0" inkscape:pageshadow="2" inkscape:zoom="3.9912026" inkscape:cx="67.264872" inkscape:cy="42.458078" inkscape:document-units="in" inkscape:current-layer="svg2" showgrid="false" units="in" inkscape:window-width="1920" inkscape:window-height="1017" inkscape:window-x="-8" inkscape:window-y="-8" inkscape:window-maximized="1">
    <inkscape:grid type="xygrid" id="grid2994" empspacing="5" visible="true" enabled="true" snapvisiblegridlinesonly="true" units="in" spacingx="0.014in" spacingy="0.014in"/>
  </sodipodi:namedview>
  <metadata id="metadata7">
    <rdf:rdf>
      <cc:work rdf:about="">
        <dc:format>image/svg+xml</dc:format>
        <dc:type rdf:resource="http://purl.org/dc/dcmitype/StillImage"/>
        <dc:title/>
      </cc:work>
    </rdf:rdf>
  </metadata>
  <g inkscape:label="Body" inkscape:groupmode="layer" id="layer1" class="blade" transform="translate(0,-962.35975)" style="display:inline">
    <path style="fill:#ffffff;fill-opacity:1;stroke:#000000;stroke-width:4.5;stroke-linecap:butt;stroke-linejoin:miter;stroke-miterlimit:4;stroke-opacity:1;stroke-dasharray:none;stroke-dashoffset:0" d="m 74.36197,983.6681 -12.08103,7.8364 c 15.75587,17.6749 23.11823,39.5915 21.61284,59.804 6.69558,-22.0536 3.99087,-46.7929 -9.53333,-67.6427 z" id="path6217" inkscape:connector-curvature="0" sodipodi:nodetypes="ccccc"/>
    <path style="fill:#000000;fill-opacity:1;stroke:none" d="m 78.3633,983.2215 -18.12155,11.7546 c 0,0 -9.60813,5.7984 -12.61154,10.326 -3.05801,4.6096 -1.76241,11.2263 -4.69371,15.9176 -1.93394,3.0951 -5.07455,5.3186 -8.08123,7.3874 -4.47603,3.0798 -9.2279,6.3185 -14.57071,7.3058 -3.77788,0.6981 -11.468832,-1.1428 -11.468832,-1.1428 l 1.061251,-4.9794 c 0,0 6.033991,1.1832 8.979071,0.6123 4.74893,-0.9207 9.10106,-3.5474 13.06058,-6.3263 2.50425,-1.7575 4.97385,-3.7985 6.5711,-6.4078 2.44668,-3.9968 2.26866,-9.1418 4.16305,-13.428 0.54247,-1.2271 1.16801,-2.4502 2.04079,-3.4692 3.53417,-4.1266 12.61154,-10.326 12.61154,-10.326 l 18.12155,-11.7546 z" id="path6225" inkscape:connector-curvature="0" sodipodi:nodetypes="ccaaaaccaaaaaccc" class="ignored"/>
  </g>
</svg>
