<?xml version="1.0" encoding="UTF-8" standalone="no"?>
<!-- Created with Inkscape (http://www.inkscape.org/) -->

<svg
   xmlns:dc="http://purl.org/dc/elements/1.1/"
   xmlns:cc="http://creativecommons.org/ns#"
   xmlns:rdf="http://www.w3.org/1999/02/22-rdf-syntax-ns#"
   xmlns:svg="http://www.w3.org/2000/svg"
   xmlns="http://www.w3.org/2000/svg"
   xmlns:sodipodi="http://sodipodi.sourceforge.net/DTD/sodipodi-0.dtd"
   xmlns:inkscape="http://www.inkscape.org/namespaces/inkscape"
   width="100%"
   height="100%"
   viewBox="0 0 90 90"
   id="svg2"
   version="1.1"
   inkscape:version="0.48.4 r9939"
   sodipodi:docname="sheep.svg"
   class="sheep"
   data-z="100"
   data-slots="body">
  <defs
     id="defs4">
    <inkscape:path-effect
       effect="sketch"
       id="path-effect3940-2-2"
       is_visible="true"
       nbiter_approxstrokes="1"
       strokelength="1"
       strokelength_rdm="0;1"
       strokeoverlap="0.1"
       strokeoverlap_rdm="0.1;1"
       ends_tolerance="0.1;1"
       parallel_offset="0.3;1"
       tremble_size="0.4;1"
       tremble_frequency="0.01"
       nbtangents="0"
       tgt_places_rdmness="1;1"
       tgtscale="10"
       tgtlength="90"
       tgtlength_rdm="0.2;1" />
    <inkscape:path-effect
       effect="sketch"
       id="path-effect6303"
       is_visible="true"
       nbiter_approxstrokes="1"
       strokelength="1"
       strokelength_rdm="0;1"
       strokeoverlap="0"
       strokeoverlap_rdm="0.1;1"
       ends_tolerance="0;1"
       parallel_offset="0;1"
       tremble_size="0.6;1"
       tremble_frequency="0.01"
       nbtangents="0"
       tgt_places_rdmness="0.7;1"
       tgtscale="10"
       tgtlength="100"
       tgtlength_rdm="0.3;1" />
  </defs>
  <sodipodi:namedview
     id="base"
     pagecolor="#ffffff"
     bordercolor="#666666"
     borderopacity="1.0"
     inkscape:pageopacity="0.0"
     inkscape:pageshadow="2"
     inkscape:zoom="2.8222064"
     inkscape:cx="126.73925"
     inkscape:cy="62.557883"
     inkscape:document-units="in"
     inkscape:current-layer="layer1"
     showgrid="false"
     units="in"
     inkscape:window-width="1920"
     inkscape:window-height="1017"
     inkscape:window-x="-8"
     inkscape:window-y="-8"
     inkscape:window-maximized="1">
    <inkscape:grid
       type="xygrid"
       id="grid2994"
       empspacing="5"
       visible="true"
       enabled="true"
       snapvisiblegridlinesonly="true"
       units="in"
       spacingx="0.014in"
       spacingy="0.014in" />
  </sodipodi:namedview>
  <metadata
     id="metadata7">
    <rdf:RDF>
      <cc:Work
         rdf:about="">
        <dc:format>image/svg+xml</dc:format>
        <dc:type
           rdf:resource="http://purl.org/dc/dcmitype/StillImage" />
        <dc:title />
      </cc:Work>
    </rdf:RDF>
  </metadata>
  <g
     inkscape:label="Body"
     inkscape:groupmode="layer"
     id="layer1"
     class="body"
     transform="translate(0,-962.35975)"
     style="display:inline">
    <path
       d="M -9,45 C -9,64.882251 -25.117749,81 -45,81 -64.882251,81 -81,64.882251 -81,45 -81,25.117749 -64.882251,9 -45,9 -25.117749,9 -9,25.117749 -9,45 z"
       sodipodi:ry="36"
       sodipodi:rx="36"
       sodipodi:cy="45"
       sodipodi:cx="-45"
       id="path3829-1-5-74-4-94-77-3"
       style="fill:#ffffff;fill-opacity:1;stroke:#000000;stroke-width:4.5;stroke-linecap:round;stroke-miterlimit:4;stroke-opacity:1;stroke-dasharray:none;stroke-dashoffset:0"
       sodipodi:type="arc"
       transform="translate(90,962.3598)" />
    <path
       style="fill:#ffffff;fill-opacity:1;stroke:#000000;stroke-width:4.5;stroke-linecap:butt;stroke-linejoin:miter;stroke-miterlimit:4;stroke-opacity:1;stroke-dasharray:none"
       d="m 45,971.3597 c -8.33261,-3.0006 -10.8,-3.6 -18,3.6 -9.21984,-2.0076 -12.75759,1.9866 -10.8,10.8 -9.732,2.0824 -10.8,7.2 -7.2,12.6 -5.4,3.6 -5.4,12.6001 0,16.2001 -5.4,7.2 1.8,14.4 5.4,12.6 0,10.8 7.2,12.6 12.6,10.8 1.8,7.2 9,9 16.2,5.4 5.4,5.4 16.2,1.8 16.2,-3.6 7.2,1.8 14.4,-1.8 12.6,-9 7.2,0 9,-5.4 7.2,-10.8 5.4,-3.6 5.4,-10.8 1.8,-12.6 5.4,-7.2001 1.8,-10.8001 -1.8,-12.6001 3.6,-5.4 -1.8,-14.4 -9,-12.6 0,-5.4 -2.34218,-9.3619 -10.8,-7.2 0,-3.6 -5.4,-7.2 -14.4,-3.6 z"
       id="path6474"
       inkscape:connector-curvature="0"
       sodipodi:nodetypes="cccccccccccccccc" />
  </g>
</svg>
