<!--?xml version="1.0" encoding="UTF-8" standalone="no"?--><!-- Created with Inkscape (http://www.inkscape.org/) --><svg xmlns:dc="http://purl.org/dc/elements/1.1/" xmlns:cc="http://creativecommons.org/ns#" xmlns:rdf="http://www.w3.org/1999/02/22-rdf-syntax-ns#" xmlns:svg="http://www.w3.org/2000/svg" xmlns="http://www.w3.org/2000/svg" xmlns:sodipodi="http://sodipodi.sourceforge.net/DTD/sodipodi-0.dtd" xmlns:inkscape="http://www.inkscape.org/namespaces/inkscape" width="100%" height="100%" viewBox="0 0 90 90" id="svg2" version="1.1" inkscape:version="0.48.4 r9939" sodipodi:docname="simple-cape.svg" class="simple-cape" data-z="0" data-slots="back" data-tags="back">
  <defs id="defs4">
    <inkscape:path-effect effect="sketch" id="path-effect5121-4" is_visible="true" nbiter_approxstrokes="3" strokelength="1" strokelength_rdm="0;1" strokeoverlap="0.1" strokeoverlap_rdm="0;1" ends_tolerance="0.9;1" parallel_offset="0.9;1" tremble_size="1.5;1" tremble_frequency="0.01" nbtangents="0" tgt_places_rdmness="1;1" tgtscale="10.5" tgtlength="100" tgtlength_rdm="0.1;1"/>
    <inkscape:path-effect effect="sketch" id="path-effect5121-7" is_visible="true" nbiter_approxstrokes="3" strokelength="1" strokelength_rdm="0;1" strokeoverlap="0.1" strokeoverlap_rdm="0;1" ends_tolerance="0.9;1" parallel_offset="0.9;1" tremble_size="1.5;1" tremble_frequency="0.01" nbtangents="0" tgt_places_rdmness="1;1" tgtscale="10.5" tgtlength="100" tgtlength_rdm="0.1;1"/>
    <inkscape:path-effect effect="sketch" id="path-effect5257" is_visible="true" nbiter_approxstrokes="2" strokelength="1" strokelength_rdm="0.1;1" strokeoverlap="0" strokeoverlap_rdm="0;1" ends_tolerance="0;1" parallel_offset="0.8;1" tremble_size="0.7;1" tremble_frequency="1" nbtangents="0" tgt_places_rdmness="1;1" tgtscale="10" tgtlength="100" tgtlength_rdm="0.3;1"/>
  </defs>
  <sodipodi:namedview id="base" pagecolor="#ffffff" bordercolor="#666666" borderopacity="1.0" inkscape:pageopacity="0.0" inkscape:pageshadow="2" inkscape:zoom="0.7055516" inkscape:cx="539.56689" inkscape:cy="-215.9197" inkscape:document-units="in" inkscape:current-layer="svg2" showgrid="false" units="in" inkscape:window-width="1920" inkscape:window-height="1017" inkscape:window-x="-8" inkscape:window-y="-8" inkscape:window-maximized="1">
    <inkscape:grid type="xygrid" id="grid2994" empspacing="5" visible="true" enabled="true" snapvisiblegridlinesonly="true" units="in" spacingx="0.014in" spacingy="0.014in"/>
  </sodipodi:namedview>
  <metadata id="metadata7">
    <rdf:rdf>
      <cc:work rdf:about="">
        <dc:format>image/svg+xml</dc:format>
        <dc:type rdf:resource="http://purl.org/dc/dcmitype/StillImage"/>
        <dc:title/>
      </cc:work>
    </rdf:rdf>
  </metadata>
  <g inkscape:label="Body" inkscape:groupmode="layer" id="layer1" class="body" transform="translate(0,-962.35975)" style="display:inline">
    <path sodipodi:nodetypes="cccccccccccccccc" inkscape:connector-curvature="0" d="m 81,1007.3597 5.4,36.0001 c 0,1.8 -1.8,3.6 -5.4,3.6 -3.6,0 -7.2,0 -9,-1.8 -1.8,1.8 -5.4,3.6 -9,3.6 -1.8,0 -7.2,0 -9,-1.8 -1.8,1.8 -7.2,1.8 -9,1.8 -1.8,0 -7.2,0 -9,-1.8 -1.8,1.8 -5.4,1.8 -9,1.8 -3.6,0 -7.2,-1.8 -9,-3.6 -1.8,1.8 -7.2,1.8 -9,1.8 -1.8,0 -5.4,0 -5.4,-3.6 l 5.4,-36.0001 18,0 36,0 z" style="fill:#ffffff;fill-opacity:1;stroke:#000000;stroke-width:4.5;stroke-linecap:butt;stroke-linejoin:miter;stroke-miterlimit:4;stroke-opacity:1;stroke-dasharray:none" id="path3958-7-1"/>
    <path inkscape:connector-curvature="0" d="m 72,1045.1598 -1.8,-7.2 m -16.2,9 0,-9 m -18,9 0,-9 m -18,7.2 1.8,-7.2" style="fill:#ffffff;fill-opacity:1;stroke:#000000;stroke-width:2.25;stroke-linecap:butt;stroke-linejoin:miter;stroke-miterlimit:4;stroke-opacity:1;stroke-dasharray:none" id="path3992-1"/>
    <path sodipodi:nodetypes="cccccccccccccccc" inkscape:connector-curvature="0" d="m 81,1007.3597 5.4,36.0001 c 0,1.8 -1.8,3.6 -5.4,3.6 -3.6,0 -7.2,0 -9,-1.8 -1.8,1.8 -5.4,3.6 -9,3.6 -1.8,0 -7.2,0 -9,-1.8 -1.8,1.8 -7.2,1.8 -9,1.8 -1.8,0 -7.2,0 -9,-1.8 -1.8,1.8 -5.4,1.8 -9,1.8 -3.6,0 -7.2,-1.8 -9,-3.6 -1.8,1.8 -7.2,1.8 -9,1.8 -1.8,0 -5.4,0 -5.4,-3.6 l 5.4,-36.0001 18,0 36,0 z" style="fill:#ffffff;fill-opacity:1;stroke:#000000;stroke-width:4.5;stroke-linecap:butt;stroke-linejoin:miter;stroke-miterlimit:4;stroke-opacity:1;stroke-dasharray:none" id="path3958-7-1-23"/>
    <path inkscape:connector-curvature="0" d="m 72,1045.1598 -1.8,-7.2 m -16.2,9 0,-9 m -18,9 0,-9 m -18,7.2 1.8,-7.2" style="fill:#ffffff;fill-opacity:1;stroke:#000000;stroke-width:2.25;stroke-linecap:butt;stroke-linejoin:miter;stroke-miterlimit:4;stroke-opacity:1;stroke-dasharray:none" id="path3992-1-2"/>
  </g>
</svg>
