<!--?xml version="1.0" encoding="UTF-8" standalone="no"?--><svg xmlns:dc="http://purl.org/dc/elements/1.1/" xmlns:cc="http://creativecommons.org/ns#" xmlns:rdf="http://www.w3.org/1999/02/22-rdf-syntax-ns#" xmlns:svg="http://www.w3.org/2000/svg" xmlns="http://www.w3.org/2000/svg" xmlns:sodipodi="http://sodipodi.sourceforge.net/DTD/sodipodi-0.dtd" xmlns:inkscape="http://www.inkscape.org/namespaces/inkscape" viewBox="0 0 90 90" class="strap" id="svg2" version="1.1" inkscape:version="0.48.4 r9939" width="100%" height="100%" sodipodi:docname="strap.svg" data-z="700" data-slots="collar">
  <defs id="defs16"/>
  <sodipodi:namedview pagecolor="#ffffff" bordercolor="#666666" borderopacity="1" objecttolerance="10" gridtolerance="10" guidetolerance="10" inkscape:pageopacity="0" inkscape:pageshadow="2" inkscape:window-width="1920" inkscape:window-height="1017" id="namedview14" showgrid="false" inkscape:zoom="2.6222222" inkscape:cx="45" inkscape:cy="45" inkscape:window-x="-8" inkscape:window-y="-8" inkscape:window-maximized="1" inkscape:current-layer="svg2"/>
  <metadata title="Basic Body" contributor="Douglas Richardson" id="metadata4">
    <layers id="layers6">
      <layer name="Primary" data-layer="layer1" id="layer8"/>
    </layers>
    <rdf:rdf>
      <cc:work rdf:about="">
        <dc:format>image/svg+xml</dc:format>
        <dc:type rdf:resource="http://purl.org/dc/dcmitype/StillImage"/>
        <dc:title/>
      </cc:work>
    </rdf:rdf>
  </metadata>
  <g inkscape:groupmode="layer" id="layer1" inkscape:label="strap" class="layer">
    <path style="color:#000000;fill:#ffffff;fill-opacity:1;fill-rule:nonzero;stroke:#000000;stroke-width:2.25;stroke-opacity:1;marker:none;visibility:visible;display:inline;overflow:visible;enable-background:accumulate" d="m 80.71875,49.5625 c -4.145572,1.555302 -10.351557,2.787938 -17.75,3.5625 l -47.3125,12.6875 c 0.01351,0.01883 0.01771,0.04355 0.03125,0.0625 0.225469,0.316007 0.452185,0.629204 0.6875,0.9375 0.145017,0.189567 0.288821,0.375927 0.4375,0.5625 0.452763,0.568158 0.920537,1.148104 1.40625,1.6875 0.04454,0.04956 0.08019,0.106943 0.125,0.15625 1.060641,1.164866 2.202358,2.232467 3.40625,3.25 0.08431,0.07126 0.165099,0.147941 0.25,0.21875 L 78.78125,57.46875 c 0.05813,-0.143765 0.104602,-0.291944 0.15625,-0.4375 0.02219,-0.0626 0.04065,-0.124744 0.0625,-0.1875 0.191484,-0.549239 0.365981,-1.095308 0.53125,-1.65625 0.100485,-0.341469 0.221949,-0.685644 0.3125,-1.03125 0.164541,-0.628045 0.306523,-1.265386 0.4375,-1.90625 0.0126,-0.06158 0.01896,-0.125807 0.03125,-0.1875 0.140772,-0.707952 0.245164,-1.4341 0.34375,-2.15625 0.0159,-0.116395 0.04772,-0.227003 0.0625,-0.34375 z" id="rect4468" inkscape:connector-curvature="0"/>
  </g>
</svg>
