<?xml version="1.0" encoding="UTF-8" standalone="no"?>
<!-- Created with Inkscape (http://www.inkscape.org/) -->

<svg
   xmlns:dc="http://purl.org/dc/elements/1.1/"
   xmlns:cc="http://creativecommons.org/ns#"
   xmlns:rdf="http://www.w3.org/1999/02/22-rdf-syntax-ns#"
   xmlns:svg="http://www.w3.org/2000/svg"
   xmlns="http://www.w3.org/2000/svg"
   xmlns:xlink="http://www.w3.org/1999/xlink"
   xmlns:sodipodi="http://sodipodi.sourceforge.net/DTD/sodipodi-0.dtd"
   xmlns:inkscape="http://www.inkscape.org/namespaces/inkscape"
   width="100%"
   height="100%"
   viewBox="0 0 90 90"
   id="svg2"
   version="1.1"
   inkscape:version="0.48.4 r9939"
   sodipodi:docname="stubble.svg"
   class="stubble"
   data-z="900"
   data-slots="hair">
  <defs
     id="defs4">
    <linearGradient
       id="linearGradient4086">
      <stop
         style="stop-color:#ffffff;stop-opacity:1;"
         offset="0"
         id="stop4088" />
      <stop
         style="stop-color:#000000;stop-opacity:1;"
         offset="1"
         id="stop4090" />
    </linearGradient>
    <linearGradient
       inkscape:collect="always"
       xlink:href="#linearGradient5737"
       id="linearGradient5743"
       x1="943.20001"
       y1="351"
       x2="943.20001"
       y2="394.20001"
       gradientUnits="userSpaceOnUse" />
    <linearGradient
       id="linearGradient5737">
      <stop
         style="stop-color:#000000;stop-opacity:1;"
         offset="0"
         id="stop5739" />
      <stop
         style="stop-color:#000000;stop-opacity:0;"
         offset="1"
         id="stop5741" />
    </linearGradient>
    <linearGradient
       inkscape:collect="always"
       xlink:href="#linearGradient5728"
       id="linearGradient5734"
       x1="945"
       y1="310.2579"
       x2="945"
       y2="388.79999"
       gradientUnits="userSpaceOnUse" />
    <linearGradient
       inkscape:collect="always"
       id="linearGradient5728">
      <stop
         style="stop-color:#000000;stop-opacity:1;"
         offset="0"
         id="stop5730" />
      <stop
         style="stop-color:#000000;stop-opacity:0;"
         offset="1"
         id="stop5732" />
    </linearGradient>
    <linearGradient
       y2="388.79999"
       x2="945"
       y1="310.2579"
       x1="945"
       gradientUnits="userSpaceOnUse"
       id="linearGradient4029"
       xlink:href="#linearGradient5728"
       inkscape:collect="always" />
    <linearGradient
       id="linearGradient5737-7">
      <stop
         style="stop-color:#000000;stop-opacity:1;"
         offset="0"
         id="stop5739-4" />
      <stop
         style="stop-color:#000000;stop-opacity:0;"
         offset="1"
         id="stop5741-0" />
    </linearGradient>
    <linearGradient
       y2="388.79999"
       x2="945"
       y1="310.2579"
       x1="945"
       gradientUnits="userSpaceOnUse"
       id="linearGradient4029-9"
       xlink:href="#linearGradient5728-4"
       inkscape:collect="always" />
    <linearGradient
       inkscape:collect="always"
       id="linearGradient5728-4">
      <stop
         style="stop-color:#000000;stop-opacity:1;"
         offset="0"
         id="stop5730-8" />
      <stop
         style="stop-color:#000000;stop-opacity:0;"
         offset="1"
         id="stop5732-8" />
    </linearGradient>
    <linearGradient
       id="linearGradient5737-1">
      <stop
         style="stop-color:#000000;stop-opacity:1;"
         offset="0"
         id="stop5739-7" />
      <stop
         style="stop-color:#000000;stop-opacity:0;"
         offset="1"
         id="stop5741-1" />
    </linearGradient>
    <linearGradient
       y2="388.79999"
       x2="945"
       y1="310.2579"
       x1="945"
       gradientUnits="userSpaceOnUse"
       id="linearGradient4029-1"
       xlink:href="#linearGradient5728-5"
       inkscape:collect="always" />
    <linearGradient
       inkscape:collect="always"
       id="linearGradient5728-5">
      <stop
         style="stop-color:#000000;stop-opacity:1;"
         offset="0"
         id="stop5730-2" />
      <stop
         style="stop-color:#000000;stop-opacity:0;"
         offset="1"
         id="stop5732-7" />
    </linearGradient>
    <linearGradient
       inkscape:collect="always"
       xlink:href="#linearGradient5737-2"
       id="linearGradient5743-3"
       x1="943.20001"
       y1="351"
       x2="943.20001"
       y2="394.20001"
       gradientUnits="userSpaceOnUse" />
    <linearGradient
       id="linearGradient5737-2">
      <stop
         style="stop-color:#000000;stop-opacity:1;"
         offset="0"
         id="stop5739-2" />
      <stop
         style="stop-color:#000000;stop-opacity:0;"
         offset="1"
         id="stop5741-16" />
    </linearGradient>
    <linearGradient
       y2="388.79999"
       x2="945"
       y1="310.2579"
       x1="945"
       gradientUnits="userSpaceOnUse"
       id="linearGradient4029-8"
       xlink:href="#linearGradient5728-57"
       inkscape:collect="always" />
    <linearGradient
       inkscape:collect="always"
       id="linearGradient5728-57">
      <stop
         style="stop-color:#000000;stop-opacity:1;"
         offset="0"
         id="stop5730-6" />
      <stop
         style="stop-color:#000000;stop-opacity:0;"
         offset="1"
         id="stop5732-1" />
    </linearGradient>
    <linearGradient
       y2="388.79999"
       x2="945"
       y1="310.2579"
       x1="945"
       gradientUnits="userSpaceOnUse"
       id="linearGradient3016"
       xlink:href="#linearGradient5728-57"
       inkscape:collect="always" />
    <linearGradient
       inkscape:collect="always"
       xlink:href="#linearGradient5737-2"
       id="linearGradient3886"
       gradientUnits="userSpaceOnUse"
       x1="943.20001"
       y1="351"
       x2="943.20001"
       y2="394.20001" />
    <linearGradient
       inkscape:collect="always"
       xlink:href="#linearGradient5728-57"
       id="linearGradient3888"
       gradientUnits="userSpaceOnUse"
       x1="945"
       y1="310.2579"
       x2="945"
       y2="388.79999" />
    <linearGradient
       inkscape:collect="always"
       xlink:href="#linearGradient5728-57"
       id="linearGradient3891"
       gradientUnits="userSpaceOnUse"
       x1="945"
       y1="310.2579"
       x2="945"
       y2="388.79999"
       gradientTransform="translate(-900,-360.00005)" />
    <linearGradient
       inkscape:collect="always"
       xlink:href="#linearGradient5737-2"
       id="linearGradient3894"
       gradientUnits="userSpaceOnUse"
       x1="943.20001"
       y1="351"
       x2="943.20001"
       y2="394.20001"
       gradientTransform="translate(-900,-360.00005)" />
    <linearGradient
       inkscape:collect="always"
       xlink:href="#linearGradient5728"
       id="linearGradient3899"
       gradientUnits="userSpaceOnUse"
       x1="945"
       y1="310.2579"
       x2="945"
       y2="388.79999"
       gradientTransform="translate(-900,602.35975)" />
    <linearGradient
       inkscape:collect="always"
       xlink:href="#linearGradient5737"
       id="linearGradient3902"
       gradientUnits="userSpaceOnUse"
       x1="943.20001"
       y1="351"
       x2="943.20001"
       y2="394.20001"
       gradientTransform="translate(-900,602.35975)" />
    <linearGradient
       inkscape:collect="always"
       xlink:href="#linearGradient5728-54"
       id="linearGradient3899-9"
       gradientUnits="userSpaceOnUse"
       x1="945"
       y1="310.2579"
       x2="945"
       y2="388.79999"
       gradientTransform="translate(-900,602.35975)" />
    <linearGradient
       inkscape:collect="always"
       id="linearGradient5728-54">
      <stop
         style="stop-color:#000000;stop-opacity:1;"
         offset="0"
         id="stop5730-3" />
      <stop
         style="stop-color:#000000;stop-opacity:0;"
         offset="1"
         id="stop5732-12" />
    </linearGradient>
    <linearGradient
       inkscape:collect="always"
       xlink:href="#linearGradient5728-41"
       id="linearGradient3899-3"
       gradientUnits="userSpaceOnUse"
       x1="945"
       y1="310.2579"
       x2="945"
       y2="388.79999"
       gradientTransform="translate(-900,602.35975)" />
    <linearGradient
       id="linearGradient5728-41">
      <stop
         style="stop-color:#ffffff;stop-opacity:1;"
         offset="0"
         id="stop5730-1" />
      <stop
         style="stop-color:#ffffff;stop-opacity:0;"
         offset="1"
         id="stop5732-3" />
    </linearGradient>
    <linearGradient
       y2="388.79999"
       x2="945"
       y1="310.2579"
       x1="945"
       gradientTransform="translate(-900,-360)"
       gradientUnits="userSpaceOnUse"
       id="linearGradient3919"
       xlink:href="#linearGradient5728-41"
       inkscape:collect="always" />
    <linearGradient
       inkscape:collect="always"
       xlink:href="#linearGradient5728-41"
       id="linearGradient3971"
       gradientUnits="userSpaceOnUse"
       gradientTransform="translate(-900,-360)"
       x1="945"
       y1="310.2579"
       x2="945"
       y2="388.79999" />
    <mask
       maskUnits="userSpaceOnUse"
       id="mask3967">
      <path
         inkscape:connector-curvature="0"
         style="fill:url(#linearGradient3971);fill-opacity:1;stroke:none;display:inline"
         d="M 45,9 C 30.94822,9 18.80515,17.07194 12.875,28.8125 l 64.25,0 C 71.19485,17.07194 59.05178,9 45,9 z"
         id="path3969" />
    </mask>
    <linearGradient
       inkscape:collect="always"
       xlink:href="#linearGradient5737-4"
       id="linearGradient3902-7"
       gradientUnits="userSpaceOnUse"
       x1="943.20001"
       y1="351"
       x2="943.20001"
       y2="394.20001"
       gradientTransform="translate(-900,602.35975)" />
    <linearGradient
       id="linearGradient5737-4">
      <stop
         style="stop-color:#000000;stop-opacity:1;"
         offset="0"
         id="stop5739-27" />
      <stop
         style="stop-color:#000000;stop-opacity:0;"
         offset="1"
         id="stop5741-7" />
    </linearGradient>
    <linearGradient
       inkscape:collect="always"
       xlink:href="#linearGradient5728-9"
       id="linearGradient3899-31"
       gradientUnits="userSpaceOnUse"
       x1="945"
       y1="310.2579"
       x2="945"
       y2="388.79999"
       gradientTransform="translate(-900,602.35975)" />
    <linearGradient
       inkscape:collect="always"
       id="linearGradient5728-9">
      <stop
         style="stop-color:#000000;stop-opacity:1;"
         offset="0"
         id="stop5730-86" />
      <stop
         style="stop-color:#000000;stop-opacity:0;"
         offset="1"
         id="stop5732-5" />
    </linearGradient>
    <linearGradient
       y2="388.79999"
       x2="945"
       y1="310.2579"
       x1="945"
       gradientTransform="translate(-900,-360)"
       gradientUnits="userSpaceOnUse"
       id="linearGradient4022"
       xlink:href="#linearGradient5728-9"
       inkscape:collect="always" />
    <mask
       maskUnits="userSpaceOnUse"
       id="mask3967-2">
      <path
         inkscape:connector-curvature="0"
         style="fill:url(#linearGradient3971-6);fill-opacity:1;stroke:none;display:inline"
         d="M 45,9 C 30.94822,9 18.80515,17.07194 12.875,28.8125 l 64.25,0 C 71.19485,17.07194 59.05178,9 45,9 z"
         id="path3969-8" />
    </mask>
    <linearGradient
       inkscape:collect="always"
       xlink:href="#linearGradient5728-41-0"
       id="linearGradient3971-6"
       gradientUnits="userSpaceOnUse"
       gradientTransform="translate(-900,-360)"
       x1="945"
       y1="310.2579"
       x2="945"
       y2="388.79999" />
    <linearGradient
       id="linearGradient5728-41-0">
      <stop
         style="stop-color:#ffffff;stop-opacity:1;"
         offset="0"
         id="stop5730-1-2" />
      <stop
         style="stop-color:#ffffff;stop-opacity:0;"
         offset="1"
         id="stop5732-3-4" />
    </linearGradient>
    <linearGradient
       inkscape:collect="always"
       xlink:href="#linearGradient4086"
       id="linearGradient4092"
       x1="45.088833"
       y1="10.673766"
       x2="45.266006"
       y2="34.236893"
       gradientUnits="userSpaceOnUse" />
    <linearGradient
       inkscape:collect="always"
       xlink:href="#linearGradient4086"
       id="linearGradient4098"
       gradientUnits="userSpaceOnUse"
       x1="45.088833"
       y1="10.673766"
       x2="45.266006"
       y2="34.236893" />
    <mask
       maskUnits="userSpaceOnUse"
       id="mask4094">
      <rect
         style="color:#000000;fill:url(#linearGradient4098);fill-opacity:1;fill-rule:nonzero;stroke:none;stroke-width:2.25;marker:none;visibility:visible;display:inline;overflow:visible;enable-background:accumulate"
         id="rect4096"
         width="51.378242"
         height="17.27372"
         x="18.425301"
         y="10.629476" />
    </mask>
    <mask
       maskUnits="userSpaceOnUse"
       id="mask4094-8">
      <rect
         style="color:#000000;fill:url(#linearGradient4098-5);fill-opacity:1;fill-rule:nonzero;stroke:none;stroke-width:2.25000000000000000;marker:none;visibility:visible;display:inline;overflow:visible;enable-background:accumulate"
         id="rect4096-6"
         width="51.378242"
         height="17.27372"
         x="18.425301"
         y="10.629476" />
    </mask>
    <linearGradient
       inkscape:collect="always"
       xlink:href="#linearGradient4086-0"
       id="linearGradient4098-5"
       gradientUnits="userSpaceOnUse"
       x1="45.088833"
       y1="10.673766"
       x2="45.266006"
       y2="34.236893" />
    <linearGradient
       id="linearGradient4086-0">
      <stop
         style="stop-color:#ffffff;stop-opacity:1;"
         offset="0"
         id="stop4088-9" />
      <stop
         style="stop-color:#000000;stop-opacity:1;"
         offset="1"
         id="stop4090-0" />
    </linearGradient>
  </defs>
  <sodipodi:namedview
     id="base"
     pagecolor="#ffffff"
     bordercolor="#666666"
     borderopacity="1.0"
     inkscape:pageopacity="0.0"
     inkscape:pageshadow="2"
     inkscape:zoom="11.288826"
     inkscape:cx="57.059546"
     inkscape:cy="64.295275"
     inkscape:document-units="in"
     inkscape:current-layer="svg2"
     showgrid="false"
     units="in"
     inkscape:window-width="1920"
     inkscape:window-height="1017"
     inkscape:window-x="-8"
     inkscape:window-y="-8"
     inkscape:window-maximized="1"
     showguides="true"
     inkscape:guide-bbox="true">
    <inkscape:grid
       type="xygrid"
       id="grid2994"
       empspacing="5"
       visible="true"
       enabled="true"
       snapvisiblegridlinesonly="true"
       units="in"
       spacingx="0.014in"
       spacingy="0.014in" />
  </sodipodi:namedview>
  <metadata
     id="metadata7">
    <rdf:RDF>
      <cc:Work
         rdf:about="">
        <dc:format>image/svg+xml</dc:format>
        <dc:type
           rdf:resource="http://purl.org/dc/dcmitype/StillImage" />
        <dc:title />
      </cc:Work>
    </rdf:RDF>
  </metadata>
  <g
     inkscape:groupmode="layer"
     id="layer3"
     inkscape:label="hair"
     style="display:inline"
     class="hair">
    <path
       inkscape:connector-curvature="0"
       style="fill:#000000;fill-opacity:1;stroke:none;display:inline"
       d="M 45,9 C 30.94822,9 18.80515,17.07194 12.875,28.8125 l 64.25,0 C 71.19485,17.07194 59.05178,9 45,9 z"
       id="path5706-3"
       mask="url(#mask3967-2)" />
    <path
       inkscape:connector-curvature="0"
       style="fill:#000000;fill-opacity:1;stroke:none;display:inline"
       d="m 47.78125,11.5 c -0.5672,0 -1.03125,0.40911 -1.03125,0.9375 0,0.52839 0.46405,0.96875 1.03125,0.96875 0.5672,0 1.03125,-0.44036 1.03125,-0.96875 0,-0.52839 -0.46405,-0.9375 -1.03125,-0.9375 z m -3.71875,1.75 c -0.5672,0 -1.03125,0.44036 -1.03125,0.96875 0,0.52839 0.46405,0.96875 1.03125,0.96875 0.5672,0 1.03125,-0.44036 1.03125,-0.96875 0,-0.52839 -0.46405,-0.96875 -1.03125,-0.96875 z m -12.65625,1.3125 c -0.5672,0 -1.03125,0.40911 -1.03125,0.9375 0,0.52839 0.46405,0.96875 1.03125,0.96875 0.5672,0 1,-0.44036 1,-0.96875 0,-0.52839 -0.4328,-0.9375 -1,-0.9375 z m 20.125,1 c -0.34165,0 -0.6258,0.16717 -0.8125,0.40625 -0.18833,-0.20329 -0.43913,-0.34375 -0.75,-0.34375 -0.5672,0 -1.03125,0.40911 -1.03125,0.9375 0,0.52839 0.46405,0.96875 1.03125,0.96875 0.15174,0 0.27663,-0.0387 0.40625,-0.0937 0.18816,0.22006 0.45578,0.375 0.78125,0.375 0.33499,0 0.59378,-0.17506 0.78125,-0.40625 0.36861,-0.14524 0.625,-0.47871 0.625,-0.875 0,-0.52839 -0.46405,-0.96875 -1.03125,-0.96875 z m 7.5,0.34375 C 58.46405,15.90625 58,16.34661 58,16.875 c 0,0.52839 0.46405,0.9375 1.03125,0.9375 0.5672,0 1.03125,-0.40911 1.03125,-0.9375 0,-0.52839 -0.46405,-0.96875 -1.03125,-0.96875 z m 4.15625,0.3125 c -0.5672,0 -1.03125,0.44036 -1.03125,0.96875 0,0.52839 0.46405,0.9375 1.03125,0.9375 0.5672,0 1.03125,-0.40911 1.03125,-0.9375 0,-0.52839 -0.46405,-0.96875 -1.03125,-0.96875 z M 39.71875,16.4375 c -0.5672,0 -1.03125,0.40911 -1.03125,0.9375 0,0.42607 0.30558,0.78241 0.71875,0.90625 0.0973,0.43414 0.47384,0.75 0.96875,0.75 0.5672,0 1.03125,-0.40911 1.03125,-0.9375 0,-0.41781 -0.28674,-0.77586 -0.6875,-0.90625 -0.0942,-0.4378 -0.50231,-0.75 -1,-0.75 z m 13.34375,0.53125 c -0.5672,0 -1.03125,0.44036 -1.03125,0.96875 0,0.52839 0.46405,0.9375 1.03125,0.9375 0.5672,0 1.03125,-0.40911 1.03125,-0.9375 0,-0.52839 -0.46405,-0.96875 -1.03125,-0.96875 z m -2.90625,1.21875 c -0.5672,0 -1.03125,0.44036 -1.03125,0.96875 0,0.11068 0.0254,0.21362 0.0625,0.3125 -0.0776,-0.0175 -0.13534,-0.0625 -0.21875,-0.0625 -0.5672,0 -1.03125,0.44036 -1.03125,0.96875 0,0.52839 0.46405,0.9375 1.03125,0.9375 0.5672,0 1,-0.40911 1,-0.9375 0,-0.11068 -0.0254,-0.21362 -0.0625,-0.3125 0.0806,0.0189 0.16312,0.0312 0.25,0.0312 0.5672,0 1,-0.40911 1,-0.9375 0,-0.52839 -0.4328,-0.96875 -1,-0.96875 z m -21.5,0.5625 c -0.5672,0 -1.03125,0.40911 -1.03125,0.9375 0,0.52839 0.46405,0.96875 1.03125,0.96875 0.5672,0 1.03125,-0.44036 1.03125,-0.96875 0,-0.52839 -0.46405,-0.9375 -1.03125,-0.9375 z M 63.75,19.8125 c -0.5672,0 -1.03125,0.40911 -1.03125,0.9375 0,0.39629 0.25639,0.72976 0.625,0.875 0.17739,0.28664 0.52557,0.46875 0.90625,0.46875 0.5672,0 1.03125,-0.40911 1.03125,-0.9375 0,-0.407 -0.30294,-0.768 -0.6875,-0.90625 C 64.41116,19.98489 64.11323,19.8125 63.75,19.8125 z m -22.21875,0.875 c -0.5672,0 -1.03125,0.40911 -1.03125,0.9375 0,0.52839 0.46405,0.96875 1.03125,0.96875 0.4254,0 0.78159,-0.25036 0.9375,-0.59375 0.13673,0.37877 0.51608,0.65625 0.96875,0.65625 0.5672,0 1.03125,-0.40911 1.03125,-0.9375 0,-0.52839 -0.46405,-0.96875 -1.03125,-0.96875 -0.4254,0 -0.78159,0.25036 -0.9375,0.59375 -0.12944,-0.39037 -0.5072,-0.65625 -0.96875,-0.65625 z m -6.3125,0.125 c -0.5672,0 -1.03125,0.44036 -1.03125,0.96875 0,0.29434 0.15056,0.54325 0.375,0.71875 -0.30894,0.16495 -0.53125,0.457 -0.53125,0.8125 0,0.52839 0.46405,0.9375 1.03125,0.9375 0.5672,0 1.03125,-0.40911 1.03125,-0.9375 0,-0.28945 -0.15697,-0.54331 -0.375,-0.71875 0.31151,-0.1643 0.53125,-0.45522 0.53125,-0.8125 0,-0.52839 -0.46405,-0.96875 -1.03125,-0.96875 z m 23.625,0.34375 c -0.45042,0 -0.83026,0.24916 -0.96875,0.625 C 57.69348,21.51109 57.3986,21.3125 57.03125,21.3125 56.46405,21.3125 56,21.75286 56,22.28125 c 0,0.52839 0.46405,0.9375 1.03125,0.9375 0.45042,0 0.83026,-0.24916 0.96875,-0.625 0.11145,0.16587 0.24206,0.32924 0.4375,0.40625 -0.44545,0.1046 -0.78125,0.4588 -0.78125,0.90625 0,0.52839 0.46405,0.96875 1.03125,0.96875 0.5672,0 1.03125,-0.44036 1.03125,-0.96875 0,-0.39629 -0.25639,-0.72976 -0.625,-0.875 0.44545,-0.1046 0.78125,-0.49005 0.78125,-0.9375 0,-0.52839 -0.46405,-0.9375 -1.03125,-0.9375 z M 37.25,21.375 c -0.5672,0 -1,0.40911 -1,0.9375 0,0.52839 0.4328,0.96875 1,0.96875 0.5672,0 1.03125,-0.44036 1.03125,-0.96875 0,-0.52839 -0.46405,-0.9375 -1.03125,-0.9375 z m 29.4375,0 c -0.5672,0 -1.03125,0.44036 -1.03125,0.96875 0,0.52839 0.46405,0.9375 1.03125,0.9375 0.5672,0 1.03125,-0.40911 1.03125,-0.9375 0,-0.52839 -0.46405,-0.96875 -1.03125,-0.96875 z M 32.78125,22 c -0.5672,0 -1.03125,0.44036 -1.03125,0.96875 0,0.52839 0.46405,0.9375 1.03125,0.9375 0.5672,0 1.03125,-0.40911 1.03125,-0.9375 C 33.8125,22.44036 33.34845,22 32.78125,22 z m -4.4375,0.4375 c -0.5672,0 -1.03125,0.44036 -1.03125,0.96875 0,0.52839 0.46405,0.96875 1.03125,0.96875 0.5672,0 1.03125,-0.44036 1.03125,-0.96875 0,-0.52839 -0.46405,-0.96875 -1.03125,-0.96875 z M 23.3125,22.75 c -0.3093,0 -0.56172,0.14224 -0.75,0.34375 -0.0812,-0.0192 -0.16237,-0.0625 -0.25,-0.0625 -0.5672,0 -1.03125,0.44036 -1.03125,0.96875 0,0.52839 0.46405,0.9375 1.03125,0.9375 0.30105,0 0.56215,-0.12025 0.75,-0.3125 0.0806,0.0189 0.16312,0.0312 0.25,0.0312 0.0656,0 0.12534,-0.0203 0.1875,-0.0312 0.1852,0.25047 0.46133,0.4375 0.8125,0.4375 0.5672,0 1.03125,-0.44036 1.03125,-0.96875 0,-0.52839 -0.46405,-0.96875 -1.03125,-0.96875 -0.0645,0 -0.12627,0.0206 -0.1875,0.0312 -0.1867,-0.23908 -0.47085,-0.40625 -0.8125,-0.40625 z m 37.65625,0.5625 c -0.5672,0 -1.03125,0.40911 -1.03125,0.9375 0,0.52839 0.46405,0.96875 1.03125,0.96875 C 61.53595,25.21875 62,24.77839 62,24.25 62,23.72161 61.53595,23.3125 60.96875,23.3125 z M 49.125,23.59375 c -0.53079,0 -0.91487,0.36256 -0.96875,0.84375 -0.49052,0.0721 -0.875,0.46027 -0.875,0.9375 0,0.52839 0.46405,0.9375 1.03125,0.9375 0.52793,0 0.94231,-0.3663 1,-0.84375 0.47698,-0.0826 0.84375,-0.46922 0.84375,-0.9375 0,-0.52839 -0.46405,-0.9375 -1.03125,-0.9375 z m -29.09375,0.0625 c -0.5672,0 -1.03125,0.40911 -1.03125,0.9375 0,0.52839 0.46405,0.96875 1.03125,0.96875 0.5672,0 1,-0.44036 1,-0.96875 0,-0.52839 -0.4328,-0.9375 -1,-0.9375 z m 48.21875,0.125 c -0.5672,0 -1,0.40911 -1,0.9375 0,0.52839 0.4328,0.96875 1,0.96875 0.5672,0 1.03125,-0.44036 1.03125,-0.96875 0,-0.52839 -0.46405,-0.9375 -1.03125,-0.9375 z m -41.9375,0.3125 c -0.5672,0 -1,0.40911 -1,0.9375 0,0.52839 0.4328,0.96875 1,0.96875 0.5672,0 1.03125,-0.44036 1.03125,-0.96875 0,-0.52839 -0.46405,-0.9375 -1.03125,-0.9375 z M 66.125,24.5 c -0.5672,0 -1,0.40911 -1,0.9375 0,0.52839 0.4328,0.96875 1,0.96875 0.5672,0 1.03125,-0.44036 1.03125,-0.96875 0,-0.52839 -0.46405,-0.9375 -1.03125,-0.9375 z m -13.15625,0.8125 c -0.5672,0 -1.03125,0.44036 -1.03125,0.96875 0,0.52839 0.46405,0.9375 1.03125,0.9375 0.5672,0 1.03125,-0.40911 1.03125,-0.9375 0,-0.52839 -0.46405,-0.96875 -1.03125,-0.96875 z"
       id="use5290-9"
       sodipodi:nodetypes="sssssssssssssssccssscscsccsssssssssssscsscsssssscscsssscssccssssssscsscsssscssscssscssscssscsssccssscssssssssssssssssssssssccssscscssscccsssssscsscsssssssssssssssssssssssssss"
       mask="url(#mask4094-8)" />
  </g>
</svg>
