<?xml version="1.0" encoding="UTF-8" standalone="no"?>
<!-- Created with Inkscape (http://www.inkscape.org/) -->

<svg
   xmlns:dc="http://purl.org/dc/elements/1.1/"
   xmlns:cc="http://creativecommons.org/ns#"
   xmlns:rdf="http://www.w3.org/1999/02/22-rdf-syntax-ns#"
   xmlns:svg="http://www.w3.org/2000/svg"
   xmlns="http://www.w3.org/2000/svg"
   xmlns:sodipodi="http://sodipodi.sourceforge.net/DTD/sodipodi-0.dtd"
   xmlns:inkscape="http://www.inkscape.org/namespaces/inkscape"
   id="svg2"
   version="1.1"
   inkscape:version="0.48.4 r9939"
   sodipodi:docname="suit.svg"
   height="100%"
   width="100%"
   viewBox="0 0 90 90"
   class="suit"
   data-z="500"
   data-slots="clothing">
  <defs
     id="defs4" />
  <sodipodi:namedview
     id="base"
     pagecolor="#ffffff"
     bordercolor="#666666"
     borderopacity="1.0"
     inkscape:pageopacity="0.0"
     inkscape:pageshadow="2"
     inkscape:zoom="11.288825"
     inkscape:cx="14.71493"
     inkscape:cy="28.794778"
     inkscape:document-units="in"
     inkscape:current-layer="layer5"
     showgrid="true"
     units="in"
     inkscape:window-width="1920"
     inkscape:window-height="1017"
     inkscape:window-x="1912"
     inkscape:window-y="-8"
     inkscape:window-maximized="1">
    <inkscape:grid
       type="xygrid"
       id="grid2994"
       empspacing="5"
       visible="true"
       enabled="true"
       snapvisiblegridlinesonly="true"
       units="in"
       spacingx="0.014in"
       spacingy="0.014in" />
  </sodipodi:namedview>
  <metadata
     id="metadata7">
    <rdf:RDF>
      <cc:Work
         rdf:about="">
        <dc:format>image/svg+xml</dc:format>
        <dc:type
           rdf:resource="http://purl.org/dc/dcmitype/StillImage" />
        <dc:title />
      </cc:Work>
    </rdf:RDF>
  </metadata>
  <g
     inkscape:groupmode="layer"
     id="layer2"
     inkscape:label="Shirt"
     style="display:inline"
     class="shirt"
     sodipodi:insensitive="true">
    <path
       style="fill:#ffffff;fill-opacity:1;stroke:#000000;stroke-width:4.5;stroke-linecap:round;stroke-miterlimit:4;stroke-opacity:1;stroke-dasharray:none;stroke-dashoffset:0;display:inline"
       d="m 9.18,48.78115 c 1.88688,18.1081 17.2051,32.2189 35.8125,32.2189 18.33498,0 33.47434,-13.7119 35.71875,-31.4375 -7.05244,2.6459 -19.97089,4.4375 -34.8125,4.4375 -16.28176,0 -30.28526,-2.1398 -36.71875,-5.2188 z"
       id="path3829-1-5-74-4-9-0-7-87-0"
       inkscape:connector-curvature="0"
       sodipodi:nodetypes="cscsc" />
  </g>
  <g
     inkscape:groupmode="layer"
     id="layer6"
     inkscape:label="Jacket"
     style="display:inline"
     sodipodi:insensitive="true"
     class="jacket">
    <path
       style="fill:#ffffff;fill-opacity:1;stroke:#000000;stroke-width:2.25;stroke-linecap:butt;stroke-linejoin:miter;stroke-miterlimit:4;stroke-opacity:1;stroke-dasharray:none;display:inline"
       d="m 9.1875,48.78125 c 1.576313,15.127638 12.526817,27.473361 26.9375,31.125 0.181388,-0.912281 0.337497,-1.805664 0.40625,-2.5 0.206929,-2.08978 0.304948,-4.234759 0,-6.3125 C 35.894501,66.7553 34.521723,62.511059 32.75,58.5 32.092285,57.010977 31.053812,55.111299 29.9375,53.25 20.789916,52.373015 13.376693,50.786153 9.1875,48.78125 z"
       id="path2997"
       inkscape:connector-curvature="0" />
    <path
       inkscape:connector-curvature="0"
       style="fill:#ffffff;fill-opacity:1;stroke:#000000;stroke-width:2.25;stroke-linecap:butt;stroke-linejoin:miter;stroke-miterlimit:4;stroke-opacity:1;stroke-dasharray:none;display:inline"
       d="m 80.776258,48.78125 c -1.576313,15.1276 -12.526817,27.4734 -26.9375,31.125 -0.181388,-0.9123 -0.337497,-1.8057 -0.40625,-2.5 -0.206929,-2.0898 -0.304948,-4.2348 0,-6.3125 0.636749,-4.3384 2.009527,-8.5827 3.78125,-12.5937 0.657715,-1.4891 1.696188,-3.3887 2.8125,-5.25 9.147584,-0.877 16.560807,-2.4639 20.75,-4.4688 z"
       id="path2997-4" />
  </g>
  <g
     inkscape:groupmode="layer"
     id="layer7"
     inkscape:label="Flair"
     style="display:inline"
     sodipodi:insensitive="true"
     class="flair">
    <path
       style="fill:#ffffff;fill-opacity:1;stroke:#000000;stroke-width:2.25;stroke-linecap:butt;stroke-linejoin:miter;stroke-miterlimit:4;stroke-opacity:1;stroke-dasharray:none;display:inline"
       d="m 66.78,66.06 c 2.52,0 5.04,-1.26 6.3,-3.78 0,-2.52 -1.26,-3.78 -2.52,-3.78 -1.26,3.78 -3.78,5.04 -3.78,7.56 z"
       id="path3964"
       inkscape:connector-curvature="0"
       sodipodi:nodetypes="cccc" />
  </g>
  <g
     inkscape:groupmode="layer"
     id="layer5"
     inkscape:label="Tie"
     style="display:inline"
     class="tie">
    <path
       style="fill:#ffffff;fill-opacity:0.83398695;stroke:#000000;stroke-width:2.25;stroke-linecap:butt;stroke-linejoin:miter;stroke-miterlimit:4;stroke-opacity:1;stroke-dasharray:none;display:inline"
       d="m 45.36,57.24 -3.78,0 -2.52,7.56 6.3,3.78 6.3,-3.78 -2.52,-7.56 z"
       id="path3922"
       inkscape:connector-curvature="0" />
    <path
       style="fill:#ffffff;fill-opacity:1;stroke:#000000;stroke-width:2.25;stroke-linecap:butt;stroke-linejoin:miter;stroke-miterlimit:4;stroke-opacity:1;stroke-dasharray:none;display:inline"
       d="m 39.90625,53.90625 c -0.0881,1.249445 -0.06114,2.587504 0.40625,3.34375 1.045757,1.692071 5.0625,2.5 5.0625,2.5 0,0 3.985493,-0.807929 5.03125,-2.5 0.467519,-0.756462 0.49445,-2.093999 0.40625,-3.34375 C 49.201999,53.949993 47.570687,54 45.90625,54 c -2.03522,0 -4.046311,-0.02923 -6,-0.09375 z"
       id="path3920"
       inkscape:connector-curvature="0" />
  </g>
  <g
     inkscape:groupmode="layer"
     id="layer4"
     inkscape:label="Vest"
     style="display:inline"
     class="vest"
     sodipodi:insensitive="true">
    <path
       style="fill:#ffffff;fill-opacity:1;stroke:#000000;stroke-width:2.25;stroke-linecap:butt;stroke-linejoin:miter;stroke-miterlimit:4;stroke-opacity:1;stroke-dasharray:none;display:inline"
       d="m 33.84375,61.1875 c 1.233933,3.20605 2.190349,6.519169 2.6875,9.90625 0.304898,2.0777 0.206929,5.4727 0,7.5625 l 0,1.25 8.84375,1.28125 8.8125,-1.28125 -0.75,-1.25 c -0.206929,-2.0898 -0.304898,-5.4848 0,-7.5625 0.493798,-3.364235 1.434509,-6.657686 2.65625,-9.84375 -2.005724,0.185751 -4.420164,0.506288 -5.6875,1.03125 -2.341965,0.9701 -5.03125,3.78125 -5.03125,3.78125 0,0 -2.720535,-2.81125 -5.0625,-3.78125 -1.452675,-0.601734 -4.368651,-0.925203 -6.46875,-1.09375 z"
       id="path3859"
       inkscape:connector-curvature="0"
       sodipodi:nodetypes="cccccccccsccc" />
    <path
       style="fill:none;stroke:#000000;stroke-width:2.25;stroke-linecap:butt;stroke-linejoin:miter;stroke-miterlimit:4;stroke-opacity:1;stroke-dasharray:none;display:inline"
       d="m 45.36,72.36 0,8.82"
       id="path3857"
       inkscape:connector-curvature="0"
       sodipodi:nodetypes="cc" />
  </g>
  <g
     inkscape:groupmode="layer"
     id="layer3"
     inkscape:label="Lapels"
     style="display:inline"
     sodipodi:insensitive="true">
    <path
       style="fill:#000000;fill-opacity:0.25098039;stroke:#000000;stroke-width:2.25;stroke-linecap:butt;stroke-linejoin:miter;stroke-miterlimit:4;stroke-opacity:1;stroke-dasharray:none;display:inline"
       d="m 20.69875,52.44375 c 1.24208,2.129528 2.488927,4.339477 3.25,6.0625 0.398201,0.901487 0.792129,1.821472 1.1875,2.75 L 27.73,62.2875 26.46,64.8 c 4.29125,7.90625 1.675,5.085 7.56,13.86 0.177273,-0.898783 2.452061,0.6861 2.52,0 0.206929,-2.0898 0.296198,-5.48855 -0.0087,-7.56625 C 35.894501,66.75525 34.521723,62.511 32.75,58.5 32.091236,57.008599 31.024904,55.113246 29.90625,53.25 27.556578,53.024225 22.792469,52.760222 20.69875,52.44375 z"
       id="path2997-7"
       inkscape:connector-curvature="0"
       sodipodi:nodetypes="csccccssscc" />
    <path
       style="fill:#000000;fill-opacity:0.25098039;stroke:#000000;stroke-width:2.25;stroke-linecap:butt;stroke-linejoin:miter;stroke-miterlimit:4;stroke-opacity:1;stroke-dasharray:none;display:inline"
       d="m 69.265008,52.44375 c -1.24208,2.1295 -2.488927,4.3395 -3.25,6.0625 -0.398201,0.9015 -0.792129,1.8215 -1.1875,2.75 l -2.59375,1.0313 1.27,2.5125 c -4.29125,7.9062 -1.675,5.085 -7.56,13.86 -0.177273,-0.8988 -2.452061,0.6861 -2.52,0 -0.206929,-2.0898 -0.296198,-5.4886 0.0087,-7.5663 0.636799,-4.3385 2.009577,-8.5827 3.7813,-12.5937 0.658764,-1.4914 1.725096,-3.3868 2.84375,-5.25 2.349672,-0.2258 7.113781,-0.4898 9.2075,-0.8063 z"
       id="path2997-7-5"
       inkscape:connector-curvature="0"
       sodipodi:nodetypes="csccccssscc" />
    <path
       style="fill:#000000;fill-opacity:0.25098039;stroke:#000000;stroke-width:2.25;stroke-linecap:butt;stroke-linejoin:miter;stroke-miterlimit:4;stroke-opacity:1;stroke-dasharray:none;display:inline"
       d="m 33.84375,61.1875 c 0.811882,2.109462 1.483335,4.271123 2,6.46875 1.974493,2.255095 4.303861,4.043238 7,4.71875 l 1.25,0 1.28125,-6.3125 c 0,0 -2.720535,-2.811176 -5.0625,-3.78125 -1.452675,-0.601718 -4.368651,-0.925198 -6.46875,-1.09375 z"
       id="path3837"
       inkscape:connector-curvature="0" />
    <path
       style="fill:#000000;fill-opacity:0.25098039;stroke:#000000;stroke-width:2.25;stroke-linecap:butt;stroke-linejoin:miter;stroke-miterlimit:4;stroke-opacity:1;stroke-dasharray:none;display:inline"
       d="m 56.09375,61.25 c -2.00774,0.188438 -4.420164,0.506288 -5.6875,1.03125 -2.341965,0.9701 -5.03125,3.78125 -5.03125,3.78125 l -1.28125,6.3125 3.78125,0 c 2.238638,-0.55966 4.227285,-1.905069 5.96875,-3.625 0.530334,-2.555363 1.313649,-5.058178 2.25,-7.5 z"
       id="path3837-9"
       inkscape:connector-curvature="0" />
    <path
       style="fill:#000000;fill-opacity:0.25098039;stroke:#000000;stroke-width:2.25;stroke-linecap:butt;stroke-linejoin:miter;stroke-miterlimit:4;stroke-opacity:1;stroke-dasharray:none;display:inline"
       d="m 39.90625,53.90625 c -0.0881,1.2495 -0.06114,2.5875 0.40625,3.3438 1.045757,1.692 5.0625,2.5 5.0625,2.5 0,0 3.985493,-0.808 5.03125,-2.5 0.467519,-0.7565 0.49445,-2.094 0.40625,-3.3438 -1.610501,0.044 -3.241813,0.094 -4.90625,0.094 -2.03522,0 -4.046311,-0.029 -6,-0.094 z"
       id="path3920-8"
       inkscape:connector-curvature="0" />
    <path
       style="fill:none;stroke:#000000;stroke-width:4.5;stroke-linecap:round;stroke-miterlimit:4;stroke-opacity:1;stroke-dasharray:none;stroke-dashoffset:0;display:inline"
       d="m 9.18,48.78115 c 1.88688,18.1081 17.2051,32.2189 35.8125,32.2189 18.33498,0 33.47434,-13.7119 35.71875,-31.4375 -7.05244,2.6459 -19.97089,4.4375 -34.8125,4.4375 -16.28176,0 -30.28526,-2.1398 -36.71875,-5.2188 z"
       id="path3829-1-5-74-4-9-0-7-87-0-1"
       inkscape:connector-curvature="0"
       sodipodi:nodetypes="cscsc" />
  </g>
</svg>
