<?xml version="1.0" encoding="UTF-8" standalone="no"?>
<!-- Created with Inkscape (http://www.inkscape.org/) -->

<svg
   xmlns:dc="http://purl.org/dc/elements/1.1/"
   xmlns:cc="http://creativecommons.org/ns#"
   xmlns:rdf="http://www.w3.org/1999/02/22-rdf-syntax-ns#"
   xmlns:svg="http://www.w3.org/2000/svg"
   xmlns="http://www.w3.org/2000/svg"
   xmlns:sodipodi="http://sodipodi.sourceforge.net/DTD/sodipodi-0.dtd"
   xmlns:inkscape="http://www.inkscape.org/namespaces/inkscape"
   width="100%"
   height="100%"
   viewBox="0 0 90 90"
   id="svg2"
   version="1.1"
   inkscape:version="0.48.4 r9939"
   sodipodi:docname="tied-scarf.svg"
   class="tied-scarf">
  <defs
     id="defs4" />
  <sodipodi:namedview
     id="base"
     pagecolor="#ffffff"
     bordercolor="#666666"
     borderopacity="1.0"
     inkscape:pageopacity="0.0"
     inkscape:pageshadow="2"
     inkscape:zoom="13.59285"
     inkscape:cx="43.457187"
     inkscape:cy="27.732954"
     inkscape:document-units="in"
     inkscape:current-layer="svg2"
     showgrid="true"
     units="in"
     inkscape:window-width="1918"
     inkscape:window-height="1030"
     inkscape:window-x="0"
     inkscape:window-y="24"
     inkscape:window-maximized="0">
    <inkscape:grid
       type="xygrid"
       id="grid2994"
       empspacing="5"
       visible="true"
       enabled="true"
       snapvisiblegridlinesonly="true"
       units="in"
       spacingx="0.014in"
       spacingy="0.014in" />
  </sodipodi:namedview>
  <g
     inkscape:groupmode="layer"
     id="layer2"
     inkscape:label="Shirt"
     style="display:inline"
     class="shirt-layer"
     sodipodi:insensitive="true">
    <g
       id="g5372"
       transform="translate(-90,-1412.3598)">
      <path
         style="fill:#ffffff;fill-opacity:1;stroke:#000000;stroke-width:4.5;stroke-linecap:round;stroke-miterlimit:4;stroke-opacity:1;stroke-dasharray:none;stroke-dashoffset:0"
         d="m 99.3125,1462.0785 c 2.3147,17.6484 17.40753,31.2813 35.6875,31.2813 18.27997,0 33.3728,-13.6329 35.6875,-31.2813 -3.2875,6.0812 -13.78788,8.8142 -26.78125,9.4687 0.007,0.7215 -1.23459,1.2664 -1.71875,2 -0.74156,1.1238 -1.18123,2.4198 -1.78125,3.6251 -0.59793,1.201 -1.8125,2.2521 -1.8125,3.5937 0,1.3416 2.15547,2.2967 1.8125,3.5938 -0.55317,2.092 -3.2521,3.799 -5.40625,3.5937 -0.84327,-0.08 -1.31659,-1.0945 -1.8125,-1.7812 -0.78818,-1.0916 -0.99782,-2.5301 -1.78125,-3.625 -0.9858,-1.3778 -3.31947,-1.922 -3.59375,-3.5938 -0.21646,-1.3194 1.96949,-2.2701 1.78125,-3.5937 -0.24289,-1.708 -2.71592,-2.6695 -3.5,-3.8126 -12.53496,-0.6654 -23.49375,-3.3875 -26.78125,-9.4687 z"
         id="path2989-5-1-0"
         inkscape:connector-curvature="0"
         sodipodi:nodetypes="csccaaaaaaaaacc" />
      <path
         style="fill:none;stroke:#000000;stroke-width:2.25;stroke-linecap:butt;stroke-linejoin:miter;stroke-miterlimit:4;stroke-opacity:1;stroke-dasharray:none"
         d="m 127.8,1484.3598 c 0,0 14.46508,1.3472 14.4,-3.6 -0.0728,-5.5313 -16.25884,1.9314 -16.2,-3.6 0.0651,-6.1185 12.34694,-5.9416 18,-3.6001 1.99866,0.8279 3.23078,3.2685 3.6,5.4001 0.42222,2.4375 -1.8,7.2 -1.8,7.2"
         id="path4086-2"
         inkscape:connector-curvature="0"
         sodipodi:nodetypes="caaaac" />
    </g>
  </g>
  <g
     inkscape:groupmode="layer"
     id="layer1"
     inkscape:label="Suspenders"
     sodipodi:insensitive="true"
     class="suspenders-layer">
    <path
       style="fill:#b4b4b4;fill-opacity:1;stroke:#000000;stroke-width:4.5;stroke-linecap:round;stroke-miterlimit:4;stroke-opacity:1;stroke-dasharray:none;stroke-dashoffset:0"
       d="m 18.90625,56.34375 0,13.46875 c 2.559423,2.692066 5.531253,4.527994 8.81375,6.3275 L 27.7188,58.375 c -3.221394,-0.474157 -6.197,-1.156596 -8.8125,-2.03125 z"
       id="path2989-5-1-0-0"
       inkscape:connector-curvature="0"
       sodipodi:nodetypes="ccccc" />
    <path
       style="fill:#b4b4b4;fill-opacity:1;stroke:#000000;stroke-width:4.5;stroke-linecap:round;stroke-miterlimit:4;stroke-opacity:1;stroke-dasharray:none;stroke-dashoffset:0"
       d="m 71.09375,56.34375 0,13.46875 C 68.534327,72.504566 65.562497,74.340494 62.28,76.14 l 0.0012,-17.765 c 3.221394,-0.474157 6.197,-1.156596 8.8125,-2.03125 z"
       id="path2989-5-1-0-0-0"
       inkscape:connector-curvature="0"
       sodipodi:nodetypes="ccccc" />
  </g>
  <metadata
     id="metadata3897">
    <rdf:RDF>
      <cc:Work
         rdf:about="">
        <dc:title></dc:title>
      </cc:Work>
    </rdf:RDF>
  </metadata>
</svg>
