<!--?xml version="1.0" encoding="UTF-8" standalone="no"?--><!-- Created with Inkscape (http://www.inkscape.org/) --><svg xmlns:dc="http://purl.org/dc/elements/1.1/" xmlns:cc="http://creativecommons.org/ns#" xmlns:rdf="http://www.w3.org/1999/02/22-rdf-syntax-ns#" xmlns:svg="http://www.w3.org/2000/svg" xmlns="http://www.w3.org/2000/svg" xlink="http://www.w3.org/1999/xlink" xmlns:sodipodi="http://sodipodi.sourceforge.net/DTD/sodipodi-0.dtd" xmlns:inkscape="http://www.inkscape.org/namespaces/inkscape" width="100%" height="100%" viewBox="0 0 90 90" id="svg2" version="1.1" inkscape:version="0.48.4 r9939" sodipodi:docname="v-shirt.svg" class="v-shirt" data-z="500" data-slots="clothing">
  <defs id="defs4">
    <linearGradient id="linearGradient5737">
      <stop style="stop-color:#000000;stop-opacity:1;" offset="0" id="stop5739"/>
      <stop style="stop-color:#000000;stop-opacity:0;" offset="1" id="stop5741"/>
    </linearGradient>
    <linearGradient inkscape:collect="always" href="#linearGradient5728" id="linearGradient5734" x1="945" y1="310.2579" x2="945" y2="388.79999" gradientUnits="userSpaceOnUse"/>
    <linearGradient inkscape:collect="always" id="linearGradient5728">
      <stop style="stop-color:#000000;stop-opacity:1;" offset="0" id="stop5730"/>
      <stop style="stop-color:#000000;stop-opacity:0;" offset="1" id="stop5732"/>
    </linearGradient>
  </defs>
  <sodipodi:namedview id="base" pagecolor="#ffffff" bordercolor="#666666" borderopacity="1.0" inkscape:pageopacity="0.0" inkscape:pageshadow="2" inkscape:zoom="7.9824051" inkscape:cx="124.19062" inkscape:cy="12.224148" inkscape:document-units="in" inkscape:current-layer="layer1" showgrid="false" units="in" inkscape:window-width="1920" inkscape:window-height="1017" inkscape:window-x="-8" inkscape:window-y="-8" inkscape:window-maximized="1">
    <inkscape:grid type="xygrid" id="grid2994" empspacing="5" visible="true" enabled="true" snapvisiblegridlinesonly="true" units="in" spacingx="0.014in" spacingy="0.014in"/>
  </sodipodi:namedview>
  <metadata id="metadata7">
    <rdf:rdf>
      <cc:work rdf:about="">
        <dc:format>image/svg+xml</dc:format>
        <dc:type rdf:resource="http://purl.org/dc/dcmitype/StillImage"/>
        <dc:title/>
      </cc:work>
    </rdf:rdf>
  </metadata>
  <g inkscape:label="Body" inkscape:groupmode="layer" id="layer1" class="shirt" transform="translate(0,-962.35975)" style="display:inline">
    <path sodipodi:nodetypes="csccaaaaaaaaacc" inkscape:connector-curvature="0" id="path2989-5-1-0" d="m 9.3125,1012.0785 c 2.3147,17.6484 17.40753,31.2813 35.6875,31.2813 18.27997,0 33.3728,-13.6329 35.6875,-31.2813 -3.2875,6.0812 -13.78788,8.8142 -26.78125,9.4686 0.007,0.7216 -1.23459,1.2664 -1.71875,2 -0.74156,1.1239 -1.18123,2.4199 -1.78125,3.6252 -0.59793,1.201 -1.8125,2.252 -1.8125,3.5937 0,1.3415 2.15547,2.2966 1.8125,3.5938 -0.55317,2.092 -3.2521,3.799 -5.40625,3.5937 -0.84327,-0.08 -1.31659,-1.0946 -1.8125,-1.7812 -0.78818,-1.0917 -0.99782,-2.5301 -1.78125,-3.625 -0.9858,-1.3779 -3.31947,-1.922 -3.59375,-3.5938 -0.21646,-1.3195 1.96949,-2.2702 1.78125,-3.5937 -0.24289,-1.7081 -2.71592,-2.6696 -3.5,-3.8127 C 23.55879,1020.8817 12.6,1018.1596 9.3125,1012.0785 z" style="fill:#ffffff;fill-opacity:1;stroke:#000000;stroke-width:4.5;stroke-linecap:round;stroke-miterlimit:4;stroke-opacity:1;stroke-dasharray:none;stroke-dashoffset:0"/>
    <path sodipodi:nodetypes="caaaac" inkscape:connector-curvature="0" id="path4086-2" d="m 37.8,1034.3598 c 0,0 14.46508,1.3471 14.4,-3.6 -0.0728,-5.5313 -16.25884,1.9314 -16.2,-3.6 0.0651,-6.1185 12.34694,-5.9416 18,-3.6001 1.99866,0.8279 3.23078,3.2684 3.6,5.4001 0.42222,2.4375 -1.8,7.2 -1.8,7.2" style="fill:none;stroke:#000000;stroke-width:2.25;stroke-linecap:butt;stroke-linejoin:miter;stroke-miterlimit:4;stroke-opacity:1;stroke-dasharray:none" class="ignored"/>
  </g>
</svg>
