<!--?xml version="1.0" encoding="UTF-8" standalone="no"?--><svg xmlns:dc="http://purl.org/dc/elements/1.1/" xmlns:cc="http://creativecommons.org/ns#" xmlns:rdf="http://www.w3.org/1999/02/22-rdf-syntax-ns#" xmlns:svg="http://www.w3.org/2000/svg" xmlns="http://www.w3.org/2000/svg" xmlns:sodipodi="http://sodipodi.sourceforge.net/DTD/sodipodi-0.dtd" xmlns:inkscape="http://www.inkscape.org/namespaces/inkscape" viewBox="0 0 90 90" class="vested-jacket" id="svg2" version="1.1" inkscape:version="0.48.4 r9939" width="100%" height="100%" sodipodi:docname="imperial-gunner-jacket.svg" data-z="600" data-slots="jacket">
  <defs id="defs16"/>
  <sodipodi:namedview pagecolor="#ffffff" bordercolor="#666666" borderopacity="1" objecttolerance="10" gridtolerance="10" guidetolerance="10" inkscape:pageopacity="0" inkscape:pageshadow="2" inkscape:window-width="1920" inkscape:window-height="1017" id="namedview14" showgrid="false" inkscape:zoom="2.6222222" inkscape:cx="45" inkscape:cy="45" inkscape:window-x="-8" inkscape:window-y="-8" inkscape:window-maximized="1" inkscape:current-layer="svg2"/>
  <metadata title="Basic Body" contributor="Douglas Richardson" id="metadata4">
    <layers id="layers6">
      <layer name="Primary" data-layer="layer1" id="layer8"/>
    </layers>
    <rdf:rdf>
      <cc:work rdf:about="">
        <dc:format>image/svg+xml</dc:format>
        <dc:type rdf:resource="http://purl.org/dc/dcmitype/StillImage"/>
        <dc:title/>
      </cc:work>
    </rdf:rdf>
  </metadata>
  <g inkscape:groupmode="layer" id="layer1" inkscape:label="jacket" class="jacket">
    <path style="fill:#ffffff;fill-opacity:1;stroke:#000000;stroke-width:4.5;stroke-linecap:round;stroke-miterlimit:4;stroke-opacity:1;stroke-dasharray:none;stroke-dashoffset:0;display:inline" d="m 9.1875,48.78125 c 0.017477,0.167721 0.042725,0.332978 0.0625,0.5 0.081881,0.691592 0.1919332,1.383592 0.3125,2.0625 0.1496841,0.842867 0.3239197,1.678639 0.53125,2.5 0.166637,0.659739 0.360003,1.324076 0.5625,1.96875 0.13687,0.435742 0.284681,0.852823 0.4375,1.28125 0.06027,0.168963 0.124789,0.332213 0.1875,0.5 0.177545,0.475031 0.365704,0.940973 0.5625,1.40625 0.227712,0.538373 0.465966,1.069139 0.71875,1.59375 0.226494,0.470052 0.441452,0.94782 0.6875,1.40625 0.04635,0.08635 0.109223,0.164076 0.15625,0.25 0.260602,0.476155 0.531309,0.943472 0.8125,1.40625 0.300664,0.494826 0.614027,0.989947 0.9375,1.46875 0.173778,0.256974 0.351056,0.497818 0.53125,0.75 0.225469,0.316007 0.452185,0.629204 0.6875,0.9375 0.145017,0.189567 0.288821,0.375927 0.4375,0.5625 0.452763,0.568158 0.920537,1.148104 1.40625,1.6875 0.04454,0.04956 0.08019,0.106943 0.125,0.15625 1.060641,1.164866 2.202358,2.232467 3.40625,3.25 0.559189,0.472628 1.131104,0.936577 1.71875,1.375 0.07198,0.05383 0.146357,0.102948 0.21875,0.15625 0.01167,0.0086 0.01957,0.02269 0.03125,0.03125 0.223808,0.164368 0.458092,0.313314 0.6875,0.46875 L 44.1875,63.0625 64.875,75 c 0.08186,-0.05414 0.168993,-0.101523 0.25,-0.15625 0.478803,-0.323473 0.944224,-0.654472 1.40625,-1 0.462925,-0.346689 0.929681,-0.694405 1.375,-1.0625 0.05142,-0.04244 0.105068,-0.08228 0.15625,-0.125 0.07852,-0.06563 0.140802,-0.152462 0.21875,-0.21875 0.53632,-0.456094 1.085165,-0.919948 1.59375,-1.40625 0.582501,-0.55698 1.143316,-1.124091 1.6875,-1.71875 0.418988,-0.457851 0.82356,-0.927154 1.21875,-1.40625 0.117452,-0.142319 0.228456,-0.293358 0.34375,-0.4375 0.286234,-0.35808 0.571074,-0.724706 0.84375,-1.09375 0.303301,-0.410286 0.588977,-0.826631 0.875,-1.25 0.323473,-0.478803 0.636836,-0.973924 0.9375,-1.46875 0.300664,-0.494826 0.597899,-0.989904 0.875,-1.5 0.277101,-0.510096 0.528466,-1.037889 0.78125,-1.5625 0.422699,-0.877243 0.804363,-1.772486 1.15625,-2.6875 0.111964,-0.29112 0.239184,-0.580306 0.34375,-0.875 0.02219,-0.0626 0.04065,-0.124744 0.0625,-0.1875 0.191484,-0.549239 0.365981,-1.095308 0.53125,-1.65625 0.100485,-0.341469 0.221949,-0.685644 0.3125,-1.03125 0.164541,-0.628045 0.306523,-1.265386 0.4375,-1.90625 0.0126,-0.06158 0.01896,-0.125807 0.03125,-0.1875 0.140772,-0.707952 0.245164,-1.4341 0.34375,-2.15625 0.0159,-0.116395 0.04772,-0.227003 0.0625,-0.34375 C 73.66625,52.2084 60.74785,54 45.90625,54 29.62445,54 15.621,51.86025 9.1875,48.78125 z" id="path3829-1-5-74-4-9-2-45-6" inkscape:connector-curvature="0"/>
  </g>
  <g inkscape:groupmode="layer" id="layer2" inkscape:label="trim" class="trim">
    <path style="color:#000000;fill:#ffffff;fill-opacity:1;fill-rule:nonzero;stroke:#000000;stroke-width:3.1500001;stroke-linecap:square;stroke-linejoin:miter;stroke-miterlimit:4;stroke-opacity:1;stroke-dasharray:none;stroke-dashoffset:0;marker:none;visibility:visible;display:inline;overflow:visible;enable-background:accumulate" d="m 27.9375,53.0625 c 2.725298,7.011071 2.5108,14.12436 -2.992244,21.40108 L 44.1875,63.0625 64.540176,74.719571 C 56.781459,65.58075 59.302593,59.046691 60.75,53.34375 56.155262,53.750736 51.157013,54 45.90625,54 39.440934,54 33.352998,53.662122 27.9375,53.0625 z" id="rect4356" inkscape:connector-curvature="0" sodipodi:nodetypes="cccccsc"/>
    <path style="fill:none;stroke:#000000;stroke-width:3.1500001;stroke-linecap:butt;stroke-linejoin:miter;stroke-miterlimit:4;stroke-opacity:1;stroke-dasharray:none" d="m 44.085733,63.468767 0,-10.17363" id="path4165" inkscape:connector-curvature="0"/>
  </g>
</svg>
