<?xml version="1.0" encoding="UTF-8" standalone="no"?>
<svg
   xmlns:dc="http://purl.org/dc/elements/1.1/"
   xmlns:cc="http://creativecommons.org/ns#"
   xmlns:rdf="http://www.w3.org/1999/02/22-rdf-syntax-ns#"
   xmlns:svg="http://www.w3.org/2000/svg"
   xmlns="http://www.w3.org/2000/svg"
   xmlns:sodipodi="http://sodipodi.sourceforge.net/DTD/sodipodi-0.dtd"
   xmlns:inkscape="http://www.inkscape.org/namespaces/inkscape"
   viewBox="0 0 90 90"
   class="victorian-hair"
   id="svg2"
   version="1.1"
   inkscape:version="0.48.4 r9939"
   width="100%"
   height="100%"
   sodipodi:docname="template.svg"
   data-z="900"
   data-slots="hair">
  <defs
     id="defs16" />
  <sodipodi:namedview
     pagecolor="#ffffff"
     bordercolor="#666666"
     borderopacity="1"
     objecttolerance="10"
     gridtolerance="10"
     guidetolerance="10"
     inkscape:pageopacity="0"
     inkscape:pageshadow="2"
     inkscape:window-width="1920"
     inkscape:window-height="1017"
     id="namedview14"
     showgrid="false"
     inkscape:zoom="7.4167645"
     inkscape:cx="19.058779"
     inkscape:cy="58.577991"
     inkscape:window-x="-8"
     inkscape:window-y="-8"
     inkscape:window-maximized="1"
     inkscape:current-layer="svg2" />
  <metadata
     title="Basic Body"
     contributor="Douglas Richardson"
     id="metadata4">
    <layers
       id="layers6">
      <layer
         name="Primary"
         data-layer="layer1"
         id="layer8" />
    </layers>
    <rdf:RDF>
      <cc:Work
         rdf:about="">
        <dc:format>image/svg+xml</dc:format>
        <dc:type
           rdf:resource="http://purl.org/dc/dcmitype/StillImage" />
        <dc:title></dc:title>
      </cc:Work>
    </rdf:RDF>
  </metadata>
  <g
     inkscape:groupmode="layer"
     id="layer1"
     inkscape:label="hair"
     class="hair">
    <path
       style="fill:#ffffff;fill-opacity:1;stroke:#000000;stroke-width:4.5;stroke-linecap:butt;stroke-linejoin:miter;stroke-miterlimit:4;stroke-opacity:1;stroke-dasharray:none;display:inline"
       d="M 39.375,6.8152856 C 33.79452,7.4895022 27.056735,9.2661907 23.0625,11.940286 19.068265,14.614381 16.473392,17.867402 15.540535,19.203554 14.607677,20.539707 13.017467,22.989221 12,25 c -2.303091,5.774471 -5.0000001,13 1,19 2,-6 3,-9 5,-10 2.52,2.52005 7.2,6.86005 10.15625,7.84375 0,0 -0.07307,-2.65545 0.125,-3.96875 0.486784,-3.22764 0.32581,-8.464169 2.96875,-11.34375 1.682007,-1.83261 7.03125,-2.5 7.03125,-2.5 0,0 3.370044,6.14734 4.0625,9.53125 0.272771,1.33298 0,4.0625 0,4.0625 0,0 5.034067,-2.08159 6.78125,-4.0625 1.752698,-1.987166 3.320117,-5.902702 6.62101,-6.259344 3.300894,-0.356642 3.665415,0.105956 4.22274,0.790594 2.233807,2.7441 5.578912,4.85643 6.78125,8.1875 0.769717,2.1325 0,6.78125 0,6.78125 0,0 3.574942,-2.4348 6.21875,-4.8125 1.655494,0.8328 4.067423,3.7741 5.03125,4.75 4.851711,-3.881369 4.015385,-7.770259 2.648317,-12.47888 0,0 -4.569344,-7.113196 -7.287694,-10.506743 C 70.642273,16.62083 68.032158,14.384315 64.84375,12.346536 61.655342,10.308757 60.24135,9.03822 55.96875,7.8777856 51.69615,6.7173512 44.95548,6.141069 39.375,6.8152856 z"
       id="path3788-7"
       inkscape:connector-curvature="0"
       sodipodi:nodetypes="zzzccccsscscscsscccczzzz" />
  </g>
</svg>
