<!--?xml version="1.0" encoding="UTF-8" standalone="no"?--><!-- Created with Inkscape (http://www.inkscape.org/) --><svg xmlns:dc="http://purl.org/dc/elements/1.1/" xmlns:cc="http://creativecommons.org/ns#" xmlns:rdf="http://www.w3.org/1999/02/22-rdf-syntax-ns#" xmlns:svg="http://www.w3.org/2000/svg" xmlns="http://www.w3.org/2000/svg" xmlns:sodipodi="http://sodipodi.sourceforge.net/DTD/sodipodi-0.dtd" xmlns:inkscape="http://www.inkscape.org/namespaces/inkscape" width="100%" height="100%" viewBox="0 0 90 90" id="svg2" version="1.1" inkscape:version="0.48.4 r9939" sodipodi:docname="wand (right).svg" class="wand-right" data-z="1200" data-slots="right-weapon">
  <defs id="defs4"/>
  <sodipodi:namedview id="base" pagecolor="#ffffff" bordercolor="#666666" borderopacity="1.0" inkscape:pageopacity="0.0" inkscape:pageshadow="2" inkscape:zoom="7.9824051" inkscape:cx="48.136634" inkscape:cy="56.815163" inkscape:document-units="in" inkscape:current-layer="svg2" showgrid="false" units="in" inkscape:window-width="1920" inkscape:window-height="1017" inkscape:window-x="-8" inkscape:window-y="-8" inkscape:window-maximized="1">
    <inkscape:grid type="xygrid" id="grid2994" empspacing="5" visible="true" enabled="true" snapvisiblegridlinesonly="true" units="in" spacingx="0.014in" spacingy="0.014in"/>
  </sodipodi:namedview>
  <metadata id="metadata7">
    <rdf:rdf>
      <cc:work rdf:about="">
        <dc:format>image/svg+xml</dc:format>
        <dc:type rdf:resource="http://purl.org/dc/dcmitype/StillImage"/>
        <dc:title/>
      </cc:work>
    </rdf:rdf>
  </metadata>
  <g inkscape:label="wand" inkscape:groupmode="layer" id="layer1" class="wand" transform="translate(0,-962.35975)" style="display:inline">
    <rect style="fill:#000000;fill-opacity:1;stroke:none" id="rect6335-5" width="3.5999999" height="18" x="-674.29132" y="770.60828" transform="matrix(-0.79623937,-0.60498171,-0.60498171,0.79623937,0,0)"/>
  </g>
  <g inkscape:groupmode="layer" id="layer2" inkscape:label="secondary" class="secondary">
    <path style="fill:#b4b4b4;fill-opacity:0.50196078;stroke:#000000;stroke-width:0;stroke-linecap:butt;stroke-linejoin:miter;stroke-miterlimit:4;stroke-opacity:1;stroke-dasharray:none;display:inline" d="m 76.5043,44.22185 c -0.555,1.7124 4.1391,-1.7393 5.969,-0.9023 2.1306,0.9744 3.947,3.6101 3.7499,5.9445 -0.2489,2.9467 -5.3819,3.6962 -5.9245,6.6032 -0.3522,1.8862 2.2275,3.4734 2.0396,5.383 -0.2423,2.462 -2.1796,4.5484 -3.9322,6.2942 -1.9731,1.9656 -4.3359,4.7182 -7.1026,4.3998 -3.3433,-0.3848 -3.9529,-6.079 -7.1509,-7.1273 -3.8248,-1.2533 -9.0671,4.6272 -11.9387,1.807 -2.374,-2.3313 2.3765,-6.7414 1.3148,-9.8948 -0.6461,-1.9189 -2.2622,-4.134 -4.2792,-4.3112 -2.9886,-0.2626 -4.6489,6.4755 -7.3569,5.1843 -2.9165,-1.3906 -1.8882,-6.6872 -0.6497,-9.6715 1.3411,-3.2314 7.0015,-3.5185 7.9119,-6.8967 0.3896,-1.4454 -2.0593,-2.8877 -1.4441,-4.2524 1.1352,-2.518 4.9893,-3.9632 7.6436,-3.1992 2.883,0.8293 2.2058,6.9977 5.1843,7.3568 3.4734,0.4189 4.4384,-7.3153 7.9118,-6.8966 2.9785,0.3592 3.7231,8.8027 5.1843,7.3569 2.8611,-2.8309 3.4246,1.1099 2.8696,2.8223 z" id="path5956-0-8-0" inkscape:connector-curvature="0" sodipodi:nodetypes="saaaaaaaaaaaaaaaaass"/>
  </g>
  <g inkscape:groupmode="layer" id="layer3" inkscape:label="primary" class="primary">
    <path style="fill:#5a5a5a;fill-opacity:1;stroke:none;display:inline" d="m 66.2778,46.58395 c 1.8754,0.2882 4.5698,-1.5774 5.6919,-0.047 1.0646,1.4514 -2.4833,3.5336 -1.6649,5.1368 0.8184,1.6033 4.3186,0.062 5.1369,1.665 0.8184,1.6032 -1.5183,3.3429 -1.6649,5.1369 -0.1094,1.3373 1.5114,2.9929 0.6023,3.9796 -1.6763,1.8193 -5.0819,0.3449 -7.4042,-0.5076 -1.7811,-0.654 -3.6017,-1.7527 -4.5819,-3.3773 -0.6932,-1.1486 0.5911,-3.3667 -0.6024,-3.9796 -0.7549,-0.3875 -1.4601,1.419 -2.2673,1.1574 -1.6144,-0.5233 -0.8636,-3.6544 -2.3146,-4.5346 -1.6223,-0.984 -4.3391,1.3778 -5.6919,0.047 -1.3528,-1.3305 -1.5773,-4.5697 -0.047,-5.692 2.6795,-1.9653 7.1676,5.457 9.4832,3.0737 1.055,-1.0856 -2.579,-3.1924 -1.524,-4.2783 1.6725,-1.7213 4.4771,1.8552 6.8492,2.22 z" id="path5992-7-7-2" inkscape:connector-curvature="0" sodipodi:nodetypes="aaaaaaaaaaaaaaaa"/>
  </g>
</svg>
