<?xml version="1.0" encoding="UTF-8" standalone="no"?>
<!-- Created with Inkscape (http://www.inkscape.org/) -->

<svg
   xmlns:dc="http://purl.org/dc/elements/1.1/"
   xmlns:cc="http://creativecommons.org/ns#"
   xmlns:rdf="http://www.w3.org/1999/02/22-rdf-syntax-ns#"
   xmlns:svg="http://www.w3.org/2000/svg"
   xmlns="http://www.w3.org/2000/svg"
   xmlns:sodipodi="http://sodipodi.sourceforge.net/DTD/sodipodi-0.dtd"
   xmlns:inkscape="http://www.inkscape.org/namespaces/inkscape"
   width="100%"
   height="100%"
   viewBox="0 0 90 90"
   id="svg2"
   version="1.1"
   inkscape:version="0.48.4 r9939"
   sodipodi:docname="wild-pig.svg"
   class="wild-pig"
   data-z="100"
   data-slots="body">
  <defs
     id="defs4">
    <inkscape:path-effect
       effect="sketch"
       id="path-effect3940-2-2"
       is_visible="true"
       nbiter_approxstrokes="1"
       strokelength="1"
       strokelength_rdm="0;1"
       strokeoverlap="0.1"
       strokeoverlap_rdm="0.1;1"
       ends_tolerance="0.1;1"
       parallel_offset="0.3;1"
       tremble_size="0.4;1"
       tremble_frequency="0.01"
       nbtangents="0"
       tgt_places_rdmness="1;1"
       tgtscale="10"
       tgtlength="90"
       tgtlength_rdm="0.2;1" />
    <inkscape:path-effect
       effect="sketch"
       id="path-effect6303"
       is_visible="true"
       nbiter_approxstrokes="1"
       strokelength="1"
       strokelength_rdm="0;1"
       strokeoverlap="0"
       strokeoverlap_rdm="0.1;1"
       ends_tolerance="0;1"
       parallel_offset="0;1"
       tremble_size="0.6;1"
       tremble_frequency="0.01"
       nbtangents="0"
       tgt_places_rdmness="0.7;1"
       tgtscale="10"
       tgtlength="100"
       tgtlength_rdm="0.3;1" />
  </defs>
  <sodipodi:namedview
     id="base"
     pagecolor="#ffffff"
     bordercolor="#666666"
     borderopacity="1.0"
     inkscape:pageopacity="0.0"
     inkscape:pageshadow="2"
     inkscape:zoom="2.8222064"
     inkscape:cx="65.971194"
     inkscape:cy="105.07781"
     inkscape:document-units="in"
     inkscape:current-layer="layer1"
     showgrid="false"
     units="in"
     inkscape:window-width="1920"
     inkscape:window-height="1017"
     inkscape:window-x="-8"
     inkscape:window-y="-8"
     inkscape:window-maximized="1">
    <inkscape:grid
       type="xygrid"
       id="grid2994"
       empspacing="5"
       visible="true"
       enabled="true"
       snapvisiblegridlinesonly="true"
       units="in"
       spacingx="0.014in"
       spacingy="0.014in" />
  </sodipodi:namedview>
  <metadata
     id="metadata7">
    <rdf:RDF>
      <cc:Work
         rdf:about="">
        <dc:format>image/svg+xml</dc:format>
        <dc:type
           rdf:resource="http://purl.org/dc/dcmitype/StillImage" />
        <dc:title />
      </cc:Work>
    </rdf:RDF>
  </metadata>
  <g
     inkscape:label="Body"
     inkscape:groupmode="layer"
     id="layer1"
     class="body"
     transform="translate(0,-962.35975)"
     style="display:inline">
    <path
       inkscape:connector-curvature="0"
       style="fill:#ffffff;fill-opacity:1;stroke:none;stroke-width:4.50000000000000000;stroke-linecap:round;stroke-miterlimit:4;stroke-opacity:1;stroke-dasharray:none;stroke-dashoffset:0;display:inline"
       d="m 18,971.3598 0,12.1875 c -5.599646,6.3458 -9,14.6839 -9,23.8126 0,19.8822 16.117749,36 36,36 19.882251,0 36,-16.1178 36,-36 0,-9.1287 -3.400354,-17.4668 -9,-23.8126 l 0,-12.1875 -7.59375,5.6875 C 58.80451,973.453 52.14988,971.3598 45,971.3598 c -7.14988,0 -13.80451,2.0932 -19.40625,5.6875 L 18,971.3598 z"
       id="path3829-1-5-74-4-94-3" />
    <path
       inkscape:connector-curvature="0"
       style="fill:#ffffff;fill-opacity:1;stroke:#000000;stroke-width:4.5;stroke-linecap:round;stroke-miterlimit:4;stroke-opacity:1;stroke-dasharray:none;stroke-dashoffset:0"
       d="m 18.182864,971.77705 c 0.0018,0.33199 0.0035,0.66402 0.0052,0.99611 m -0.474032,-0.30078 c -7.96e-4,0.33266 -0.0015,0.66533 -0.0023,0.99801 m -0.204017,0.002 c -0.0017,0.33264 -0.0034,0.66527 -0.0051,0.99787 m 0.309932,-0.20875 c 0.0018,0.33468 0.0036,0.66934 0.0053,1.00398 m -0.08043,-0.0462 c -0.0012,0.33234 -0.0024,0.66472 -0.0035,0.99712 m 0.111319,0.52325 c -0.0012,0.33446 -0.0025,0.66885 -0.0036,1.00319 m -0.432315,-0.71572 c -0.0012,0.33335 -0.0023,0.66669 -0.0034,1.00004 m 0.72529,0.15463 c 8.12e-4,0.33295 0.0016,0.66591 0.0024,0.9989 m 0.358578,0.70895 c 0.0011,0.33408 0.0021,0.66815 0.0031,1.0022 m -0.368782,-0.86467 c -7.96e-4,0.33518 -0.0015,0.67032 -0.0023,1.00541 m 0.264833,0.8383 c 0.002,0.33392 0.0039,0.66783 0.0058,1.00174 m -0.568342,-0.60641 c 0.0019,0.33438 0.0038,0.66874 0.0056,1.00306 m -0.375968,-0.4812 c 2.84e-4,0.0625 5.68e-4,0.12507 8.5e-4,0.18761 -0.177964,0.20338 -0.35369,0.40881 -0.527136,0.61625 m 0.693859,0.0879 c -0.216359,0.25671 -0.429244,0.51645 -0.638583,0.77915 m -0.145374,0.79091 c -0.207458,0.25949 -0.411417,0.52193 -0.611805,0.78726 m -0.286553,-0.33886 c -0.201064,0.26732 -0.398502,0.53752 -0.592242,0.81051 m 0.723866,0.57788 c -0.192154,0.27245 -0.380661,0.54766 -0.565448,0.82557 m -0.297606,-0.6727 c -0.185197,0.27779 -0.36667,0.5583 -0.544346,0.84145 m -0.745654,0.0768 c -0.177342,0.28221 -0.350883,0.56703 -0.520553,0.8544 m 0.03219,-0.12293 c -0.168295,0.28576 -0.332738,0.57408 -0.493259,0.8649 m 0.389675,0.71047 c -0.161074,0.29075 -0.318243,0.58399 -0.471435,0.87964 m -0.212542,-0.95022 c -0.154578,0.29361 -0.305165,0.58969 -0.451688,0.88815 m -0.184046,0.92919 c -0.145004,0.299 -0.285967,0.6003 -0.422817,0.90381 m 0.341801,0.0444 c -0.137415,0.30319 -0.270715,0.60863 -0.399829,0.91623 m 0.489661,-1.044 c -0.126967,0.30899 -0.24981,0.62012 -0.368459,0.93331 m 0.0949,0.63704 c -0.12025,0.31064 -0.236325,0.62338 -0.348155,0.93814 m -0.142957,0.2204 c -0.110158,0.31268 -0.216105,0.62736 -0.317772,0.94397 m 0.312317,0.11616 c -0.103377,0.31758 -0.202465,0.63708 -0.297196,0.95841 m -0.900259,0.0399 c -0.092992,0.32031 -0.1816645,0.64241 -0.2659487,0.96626 m -0.079703,-1.01018 c -0.084862,0.32065 -0.1653482,0.64309 -0.2413933,0.96725 m 0.4619122,0.88512 c -0.075456,0.32589 -0.1465084,0.65346 -0.2130912,0.98256 m 0.531178,-0.3194 c -0.06543,0.3264 -0.126473,0.6544 -0.183071,0.9839 m -0.4418034,-0.1557 c -0.055924,0.3277 -0.1074626,0.6569 -0.1545518,0.9876 m -0.4241616,-0.436 c -0.048204,0.3287 -0.091933,0.6588 -0.131124,0.9903 m 0.8222368,0.1795 c -0.036656,0.3305 -0.068858,0.6625 -0.096543,0.9957 m -0.9802497,0.8897 c -0.029675,0.3318 -0.054831,0.6649 -0.075405,0.9992 m 0.1230415,-1.1693 c -0.021791,0.3299 -0.039074,0.6611 -0.051788,0.9934 m 0.8442048,0.5306 c -0.00982,0.3317 -0.015181,0.6646 -0.016014,0.9986 m -0.3642759,0.4184 c -9.85e-5,0.07 2e-6,0.1402 3.019e-4,0.2104 0.00113,0.2646 0.00508,0.5284 0.01183,0.7916 m -0.5433434,-0.8271 c 0.0072,0.3346 0.018979,0.6682 0.035289,1.0006 m 0.1404827,0.9128 c 0.014729,0.3346 0.034059,0.668 0.057928,1.0002 m -0.1640499,-0.5273 c 0.024454,0.3317 0.053478,0.6621 0.08701,0.9912 m 0.9359253,0.4079 c 0.03421,0.3323 0.072952,0.6633 0.1161639,0.9929 m -0.2376221,-0.4639 c 0.042248,0.3327 0.089042,0.664 0.1403171,0.9936 m 0.032975,-0.2199 c 0.051341,0.3294 0.1072147,0.6573 0.1675541,0.9836 m -0.3229698,0.9155 c 0.062103,0.3295 0.1286885,0.6573 0.1996912,0.9835 m 0.225392,-0.5851 c 0.071499,0.3263 0.1474249,0.6509 0.2277129,0.9737 m -0.3237442,-0.042 c 0.081631,0.3233 0.1676582,0.6448 0.2580152,0.9646 m 0.671475,-0.3726 c 0.08948,0.3214 0.183285,0.6409 0.281342,0.9586 m -0.01386,0.5541 c 0.100271,0.318 0.20479,0.634 0.313493,0.9482 m -0.445951,-0.6579 c 0.106554,0.3146 0.217405,0.6273 0.332485,0.938 m 0.12887,0.7965 c 0.116673,0.3139 0.237584,0.6256 0.362661,0.9352 m -0.498617,-0.5746 c 0.123145,0.3077 0.250492,0.6134 0.38197,0.9169 m -0.248122,0.4459 c 0.133531,0.3063 0.271197,0.6105 0.412927,0.9124 m 0.585537,-0.095 c 0.142005,0.3017 0.288074,0.601 0.438135,0.898 m -0.492589,0.011 c 0.148592,0.2987 0.301233,0.5951 0.457853,0.889 m 0.140781,-0.1245 c 0.157442,0.2917 0.318869,0.581 0.48421,0.8679 m 0.860813,0.01 c 0.166642,0.2883 0.337147,0.574 0.511443,0.8572 m -0.979821,0.6022 c 0.17586,0.2847 0.355538,0.5667 0.538963,0.8461 m 0.394321,-0.7513 c 0.180588,0.2784 0.364974,0.5541 0.553084,0.8271 m 0.01923,0.6683 c 0.190932,0.2741 0.385553,0.5454 0.58379,0.8139 m 0.07679,-0.6704 c 0.196777,0.2671 0.397204,0.5314 0.601206,0.7928 m -0.447972,-0.2952 c 0.20373,0.2629 0.411056,0.523 0.621906,0.78 m 0.190643,0.7646 c 0.210222,0.2582 0.423976,0.5133 0.641189,0.7654 m -0.243186,-0.4431 c 0.218593,0.2516 0.440645,0.5 0.666083,0.7454 m 0.826143,0.6884 c 0.225512,0.2437 0.454391,0.4842 0.686562,0.7216 m 0.06664,-0.1595 c 0.114183,0.1158 0.229135,0.2309 0.344846,0.3451 0.121251,0.1198 0.243336,0.2387 0.366246,0.3568 m -0.430345,0.089 c 0.240243,0.2339 0.483688,0.4645 0.730262,0.6917 m -0.55216,-0.6843 c 0.246095,0.226 0.495314,0.4486 0.747585,0.6678 m 0.83666,0.1864 c 0.250136,0.2192 0.503359,0.4349 0.759595,0.6471 m -0.305613,-0.2497 c 0.255503,0.2109 0.514057,0.4182 0.775586,0.622 m 0.328839,0.7854 c 0.263096,0.2033 0.529112,0.4031 0.797978,0.5993 m 0.08896,-0.3809 c 0.267726,0.1991 0.538265,0.3944 0.811547,0.5861 m 0.143425,-0.4792 c 0.275214,0.1879 0.553123,0.3722 0.833655,0.5527 m -0.655254,0.8112 c 0.277423,0.1809 0.557547,0.3581 0.840301,0.5314 m 0.126862,-0.5313 c 0.28529,0.175 0.573134,0.3462 0.863462,0.5134 m -0.425653,0.077 c 0.288963,0.1669 0.580465,0.3299 0.874435,0.4889 m 0.191274,-0.035 c 0.291401,0.1593 0.585287,0.3146 0.881586,0.4659 m 0.609938,0.1462 c 0.297126,0.1498 0.596617,0.2956 0.898401,0.4372 m -0.945934,-0.3798 c 0.301594,0.1396 0.605504,0.2752 0.911658,0.4067 m 0.599489,0.2162 c 0.304283,0.1322 0.610803,0.2602 0.919489,0.3841 m 0.07324,0.021 c 0.310808,0.1227 0.623698,0.2414 0.9386,0.3559 m 0.055,0.5061 c 0.310493,0.117 0.623053,0.2298 0.937611,0.3382 m -0.196636,-0.3463 c 0.315112,0.1065 0.632158,0.2087 0.95107,0.3067 m -0.144879,0.015 c 0.318875,0.097 0.639617,0.19 0.962162,0.2786 m -0.04,-0.4618 c 0.319641,0.09 0.641118,0.1759 0.964364,0.2572 m -0.01589,0.3576 c 0.322725,0.079 0.647187,0.1532 0.97332,0.2232 m 0.361488,-0.067 c 0.323075,0.071 0.647825,0.138 0.974185,0.2004 m 0.413573,-0.226 c 0.327093,0.063 0.655715,0.1216 0.985802,0.1757 m -0.492942,0.8541 c 0.328221,0.052 0.657946,0.1 0.989111,0.1428 m -0.332451,-0.4764 c 0.329633,0.043 0.660678,0.082 0.993074,0.1159 m 0.06091,-0.5941 c 0.328979,0.036 0.659315,0.068 0.990948,0.095 m -0.08873,1.1292 c 0.329969,0.027 0.661228,0.049 0.993718,0.067 m 0.820017,-1.1625 c 0.332618,0.014 0.666373,0.024 1.001208,0.029 m -0.09089,0.4789 c 0.255543,0.01 0.511725,0.01 0.768521,0.011 0.07805,3e-4 0.156044,3e-4 0.233977,10e-5 m -0.222877,-0.4301 c 0.334921,-0 0.668746,-0.01 1.001414,-0.021 m -0.418891,0.5398 c 0.332713,-0.01 0.664323,-0.025 0.994766,-0.044 m -0.164663,-0.3552 c 0.332448,-0.021 0.663694,-0.047 0.993677,-0.077 m 0.223878,0.8691 c 0.334229,-0.028 0.667111,-0.06 0.998588,-0.097 m 0.235196,-0.4878 c 0.333247,-0.041 0.665107,-0.085 0.995517,-0.1347 m 0.361627,-0.2435 c 0.332603,-0.047 0.663692,-0.099 0.993203,-0.155 m -0.23076,0.4757 c 0.328931,-0.058 0.656307,-0.1208 0.982065,-0.1878 m 0.206921,0.2796 c 0.327083,-0.065 0.652557,-0.134 0.976357,-0.2077 m -0.566368,-0.7498 c 0.324462,-0.074 0.647232,-0.1531 0.968242,-0.2362 m 0.518249,0.6857 c 0.321729,-0.087 0.641734,-0.1772 0.959947,-0.2723 m -0.375781,-0.1629 c 0.321011,-0.094 0.640189,-0.1932 0.957464,-0.2962 m -0.55459,0.256 c 0.319464,-0.1015 0.636973,-0.2072 0.952461,-0.3172 m 0.383928,-0.5935 c 0.314838,-0.1113 0.62764,-0.2269 0.938336,-0.3466 m 0.524656,0.5814 c 0.309767,-0.1195 0.617452,-0.2432 0.922984,-0.371 m 0.183138,-0.3531 c 0.306522,-0.1302 0.610886,-0.2645 0.913021,-0.4028 m -0.370758,0.014 c 0.304417,-0.1378 0.606563,-0.2797 0.906368,-0.4256 m -0.352229,-0.7294 c 0.299362,-0.1457 0.59644,-0.2954 0.891163,-0.4491 m 0.466481,0.066 c 0.295813,-0.1547 0.589216,-0.3133 0.880136,-0.4758 m -0.796313,0.016 c 0.290995,-0.1618 0.579522,-0.3275 0.865507,-0.497 m 0.193833,0.3506 c 0.285084,-0.172 0.567645,-0.3478 0.847608,-0.5274 m 0.760116,-0.055 c 0.280819,-0.1773 0.559003,-0.3584 0.834479,-0.5433 m -0.755654,0.4761 c 0.275548,-0.1847 0.548403,-0.3732 0.818493,-0.5655 m 0.730934,-0.12 c 0.27354,-0.1935 0.544206,-0.3908 0.81193,-0.5917 m 0.196302,-0.346 c 0.266627,-0.1997 0.530385,-0.4029 0.791201,-0.6097 m -0.465266,-0.1533 c 0.259017,-0.2074 0.515104,-0.4184 0.768189,-0.6329 m -0.571926,0.7764 c 0.253745,-0.2132 0.504499,-0.43 0.75219,-0.6502 m 0.804408,-0.868 c 0.249468,-0.2208 0.495771,-0.4451 0.738838,-0.6727 m -0.05856,0.5683 c 0.241117,-0.2276 0.479073,-0.4586 0.713794,-0.6928 m -0.572714,0.3386 c 0.01054,-0.01 0.02108,-0.021 0.03161,-0.032 0.22398,-0.2242 0.444996,-0.4514 0.662982,-0.6815 m 0.181669,-1.0622 c 0.227871,-0.2414 0.452463,-0.4861 0.673703,-0.7338 m 0.262286,0.6176 c 0.223061,-0.2483 0.442753,-0.4997 0.659004,-0.7542 m 0.0032,-0.4491 c 0.213689,-0.2537 0.423953,-0.5105 0.63072,-0.7701 m -0.195729,0.791 c 0.208179,-0.2617 0.41284,-0.5263 0.61391,-0.7938 m -0.275547,-0.1119 c 0.200318,-0.2663 0.397036,-0.5355 0.590081,-0.8074 m 0.387208,0.2225 c 0.193564,-0.2719 0.383474,-0.5466 0.56966,-0.8241 m -0.477387,-1.1176 c 0.186933,-0.2765 0.370128,-0.5558 0.549513,-0.8376 m 0.438504,0.118 c 0.179575,-0.2798 0.355366,-0.5623 0.5273,-0.8473 m 0.09037,0.2674 c 0.170759,-0.2862 0.337677,-0.575 0.500683,-0.8663 m -0.628691,-0.1403 c 0.16408,-0.2913 0.324218,-0.585 0.480343,-0.8811 m 0.450125,0.8501 c 0.155582,-0.2938 0.307153,-0.5901 0.454644,-0.8887 m 0.530855,-1.0163 c 0.147875,-0.3 0.291701,-0.6024 0.431409,-0.9069 m 0.04616,0.7663 c 0.138453,-0.3033 0.272794,-0.6088 0.402952,-0.9166 m -1.028885,-0.3653 c 0.130384,-0.3084 0.256639,-0.6189 0.378694,-0.9315 m 0.689895,-0.2392 c 0.121287,-0.3103 0.238394,-0.6226 0.35125,-0.937 m 0.320908,0.3373 c 0.110719,-0.3136 0.217201,-0.6292 0.319378,-0.9468 m -0.221915,0.469 c 0.103585,-0.3161 0.202908,-0.6342 0.297898,-0.9541 m 0.147814,-0.4043 c 0.09224,-0.3196 0.1802,-0.6411 0.263812,-0.9644 m -0.904243,-0.069 c 0.08374,-0.3201 0.163168,-0.6419 0.238216,-0.9655 m 0.05992,-0.2204 c 0.07514,-0.3221 0.145934,-0.6458 0.212332,-0.9712 m 0.625787,0.5007 c 0.06713,-0.3246 0.129844,-0.6509 0.188064,-0.9788 m -0.727309,-0.3034 c 0.05891,-0.326 0.11338,-0.6536 0.163337,-0.9826 m 0.896471,0.1454 c 0.04881,-0.329 0.09314,-0.6595 0.132935,-0.9913 m -0.295983,-0.7452 c 0.03777,-0.3297 0.07109,-0.6608 0.09991,-0.9932 m 0.431506,1.0347 c 0.03088,-0.3311 0.05728,-0.6636 0.07913,-0.9973 m -1.08464,-0.8902 c 0.02306,-0.3302 0.04163,-0.6616 0.05566,-0.9942 m 0.425292,0.7454 c 0.01056,-0.3307 0.01666,-0.6626 0.01821,-0.9957 m -0.164433,0.1648 c 0.0015,-0.1072 0.0025,-0.2144 0.0031,-0.3217 0.0012,-0.2251 2.51e-4,-0.4497 -0.0028,-0.6738 m 0.547953,-0.8343 c -0.0044,-0.3349 -0.0134,-0.6687 -0.02691,-1.0014 m -0.502091,0.063 c -0.01367,-0.335 -0.03192,-0.6689 -0.05469,-1.0014 m 0.609132,0.561 c -0.0255,-0.3341 -0.05554,-0.6669 -0.09008,-0.9984 m -0.151671,-0.7946 c -0.03526,-0.3336 -0.07502,-0.6658 -0.119219,-0.9966 m -0.16875,0.1673 c -0.04269,-0.3307 -0.08987,-0.66 -0.141489,-0.9878 m 0.177537,0.4527 c -0.05029,-0.328 -0.105127,-0.6546 -0.164432,-0.9797 m 0.182222,-0.4652 c -0.06228,-0.3289 -0.129013,-0.65619 -0.200134,-0.98185 m 0.09212,0.0858 c -0.07226,-0.32799 -0.148889,-0.65427 -0.229826,-0.97878 m -0.383541,-0.10812 c -0.07941,-0.32355 -0.163215,-0.6454 -0.251356,-0.96547 m 0.32791,0.88826 c -0.08994,-0.32166 -0.184211,-0.64154 -0.282747,-0.95958 m -0.740989,-0.87275 c -0.09604,-0.32081 -0.196409,-0.63971 -0.301037,-0.95663 m 0.858213,0.89981 c -0.106428,-0.31464 -0.21718,-0.62738 -0.332184,-0.93814 m -0.238702,-0.20206 c -0.115836,-0.31188 -0.23592,-0.62176 -0.360184,-0.92957 m -0.05874,-0.61823 c -0.122049,-0.31118 -0.248308,-0.6202 -0.378705,-0.927 m -0.474061,0.79593 c -0.130645,-0.30625 -0.265437,-0.61031 -0.404303,-0.91211 m 0.533658,-0.20639 c -0.141036,-0.30371 -0.286165,-0.60514 -0.435316,-0.9042 m 0.150353,-0.40398 c -0.150258,-0.29797 -0.304513,-0.59358 -0.462694,-0.88677 m -0.07208,-0.43716 c -0.15565,-0.29482 -0.315343,-0.58714 -0.479005,-0.87689 m -0.02884,0.35829 c -0.164331,-0.29123 -0.332592,-0.57992 -0.504711,-0.86599 m -0.913186,-0.0325 c -0.172374,-0.28458 -0.348625,-0.56655 -0.528679,-0.84583 m 0.572998,-0.10852 c -0.18071,-0.27884 -0.365224,-0.55501 -0.553469,-0.82845 m 0.218314,0.13289 c -0.187365,-0.27411 -0.378463,-0.5455 -0.573221,-0.81408 m 0.182366,0.72012 c -0.196196,-0.27099 -0.396063,-0.53914 -0.599525,-0.80437 m -0.64329,-0.50134 c -0.20215,-0.26523 -0.407923,-0.52752 -0.617244,-0.78679 m 0.416478,0.52459 c -0.212535,-0.25857 -0.42855,-0.51415 -0.647972,-0.76666 m -0.619378,-0.7062 c -0.07572,-0.0875 -0.151834,-0.17454 -0.228356,-0.26125 -4.87e-4,-0.2186 -9.54e-4,-0.4372 -0.0014,-0.65578 m 0.785011,-0.007 c -5.79e-4,-0.33401 -0.0012,-0.66803 -0.0018,-1.00206 m -0.523194,-0.18074 c 8.59e-4,-0.33333 0.0017,-0.66667 0.0025,-1.00001 m -0.194791,0.6047 c -0.0015,-0.33324 -0.003,-0.66647 -0.0044,-0.99969 m 0.130967,0.34187 c -0.0018,-0.33379 -0.0035,-0.66757 -0.0052,-1.00133 m 0.202147,-0.78148 c 2.34e-4,-0.33349 4.51e-4,-0.66697 6.52e-4,-1.00045 m 0.01806,0.2677 c -9.68e-4,-0.33138 -0.0019,-0.6628 -0.0028,-0.99427 m -0.128336,-0.0574 c 0.0012,-0.33427 0.0024,-0.66853 0.0036,-1.00277 m -0.04108,0.23253 c 0.0016,-0.33194 0.0032,-0.66393 0.0048,-0.99596 m 0.501337,-0.61342 c -6.1e-4,-0.33229 -0.0013,-0.66455 -0.0019,-0.99678 m -0.67776,0.76076 c -7.34e-4,-0.33499 -0.0015,-0.66994 -0.0022,-1.00484 m 0.536609,0.15492 c -6.88e-4,-0.33219 -0.0014,-0.66443 -0.0021,-0.9967 m 0.288001,-0.68306 c -7.58e-4,-0.17846 -0.0015,-0.35692 -0.0022,-0.53536 -0.125156,0.0927 -0.250303,0.18533 -0.375442,0.278 m -1.003679,0.13974 c -0.268656,0.1982 -0.537262,0.39644 -0.805816,0.59472 m 0.825739,0.35639 c -0.268469,0.20053 -0.53691,0.40101 -0.805322,0.60144 m -0.59039,-0.25043 c -0.268641,0.1997 -0.537228,0.39938 -0.805762,0.59904 m 0.09918,-0.50117 c -0.266564,0.19823 -0.533119,0.39651 -0.799665,0.59485 m 0.528934,0.98432 c -0.267345,0.19872 -0.534678,0.39742 -0.801999,0.59611 m -0.317078,-1.13566 c -0.265065,0.19991 -0.530168,0.39983 -0.795308,0.59974 m 0.112084,0.59503 c -0.265611,0.19959 -0.531226,0.39918 -0.796845,0.59878 m -0.355096,0.0804 c -0.265064,0.19986 -0.530133,0.3997 -0.795206,0.59952 m -0.202117,-0.28126 c -0.266813,0.2009 -0.533612,0.40176 -0.800397,0.60257 m 0.665643,-0.23748 c -0.0055,0.004 -0.01108,0.008 -0.01663,0.0125 -0.274045,-0.17513 -0.550627,-0.34669 -0.82968,-0.51459 m -0.446889,0.82193 c -0.286442,-0.17136 -0.575414,-0.33893 -0.866846,-0.50262 m -0.15077,-0.40574 c -0.289822,-0.16462 -0.582134,-0.32534 -0.876868,-0.48209 m -0.168514,-0.0553 c -0.294702,-0.15795 -0.59177,-0.31192 -0.891135,-0.46181 m 0.831162,0.52559 C 60.9223,975.41815 60.6199,975.27534 60.315247,975.13655 m -0.369781,-0.41116 c -0.302223,-0.13832 -0.606687,-0.2726 -0.913325,-0.40276 m 0.238742,-0.0693 c -0.306102,-0.13035 -0.614398,-0.25659 -0.92482,-0.37866 m -0.187303,-0.42871 c -0.309669,-0.12218 -0.621453,-0.24021 -0.935284,-0.35401 m 0.169113,0.99297 c -0.313666,-0.11228 -0.629332,-0.22036 -0.946932,-0.32418 m -0.152141,-0.54811 c -0.314271,-0.10372 -0.630536,-0.20319 -0.948729,-0.29834 m 0.05638,-0.51459 c -0.317184,-0.096 -0.636269,-0.18766 -0.957189,-0.27501 m -0.09793,0.17804 c -0.319722,-0.0858 -0.641263,-0.16728 -0.964559,-0.2444 m -0.21507,-0.0366 c -0.321475,-0.0794 -0.644672,-0.15437 -0.969526,-0.2249 m 0.209788,0.31348 c -0.326323,-0.0689 -0.654242,-0.1335 -0.983694,-0.19358 m -0.01608,0.22987 c -0.326112,-0.0586 -0.6538,-0.11286 -0.983001,-0.16258 m -0.07812,0.17475 c -0.328181,-0.0504 -0.657863,-0.0965 -0.988986,-0.13793 m -0.446714,-0.72224 c -0.330549,-0.0399 -0.662464,-0.0753 -0.995683,-0.10622 m 0.494044,0.24865 c -0.331676,-0.0305 -0.66469,-0.0567 -0.998982,-0.0783 m -0.12402,0.17324 c -0.32999,-0.0245 -0.661261,-0.0445 -0.993756,-0.0599 m 0.740634,0.47315 c -0.330647,-0.0152 -0.662482,-0.026 -0.995446,-0.0321 m -0.824439,-0.26771 c -0.172832,-0.003 -0.345967,-0.004 -0.519398,-0.005 -0.158931,-2.9e-4 -0.31762,4.7e-4 -0.476059,0.002 m -0.08891,-0.392 c -0.333571,0.003 -0.666035,0.0111 -0.997333,0.0235 m -0.01637,0.1768 c -0.334447,0.0141 -0.667692,0.0328 -0.999676,0.056 m 0.254307,-0.1142 c -0.333908,0.0232 -0.666506,0.0508 -0.997738,0.083 m 0.469918,-0.45582 c -0.331703,0.0328 -0.662106,0.07 -0.991148,0.11178 m -0.359067,0.50862 c -0.330978,0.0407 -0.660549,0.086 -0.98865,0.13566 m 0.143392,0.33433 c -0.331308,0.0517 -0.661077,0.10791 -0.989247,0.16854 m -0.503314,-0.12107 c -0.329845,0.0586 -0.658096,0.12163 -0.984689,0.18913 m -0.04349,0.27036 c -0.327765,0.0697 -0.653849,0.14383 -0.97819,0.22231 m 0.448018,-1.09014 c -0.323598,0.0797 -0.645525,0.16384 -0.965716,0.25232 m -0.265858,0.32733 c -0.323416,0.0868 -0.644997,0.17793 -0.964678,0.2734 m -0.156392,0.69429 c -0.320339,0.0955 -0.638745,0.19538 -0.955152,0.29951 m 0.657711,-0.8377 c -0.318706,0.10685 -0.635438,0.21795 -0.95013,0.33324 m 0.06628,0.83781 c -0.313121,0.11302 -0.624238,0.23027 -0.933281,0.35167 m -0.01612,-0.97302 c -0.310097,0.12047 -0.618103,0.24518 -0.923951,0.37407 m -0.544874,0.23539 c -0.306212,0.13242 -0.610239,0.26895 -0.912013,0.40952 m -0.15219,-0.0464 c -0.304691,0.1402 -0.607092,0.28445 -0.907134,0.43271 m 0.379647,0.60727 c -0.300476,0.14762 -0.598579,0.29928 -0.894243,0.45492 m -0.272421,-0.24777 c -0.293725,0.15727 -0.585045,0.31849 -0.873891,0.48356 m 0.671699,0.13246 c -0.289058,0.16597 -0.575641,0.33581 -0.85968,0.50943 m -0.514836,0.35094 c -0.284539,0.17269 -0.566554,0.34919 -0.845974,0.52941 m -0.143963,-0.53124 c -0.0064,0.004 -0.0127,0.008 -0.01905,0.0124 -0.259418,-0.19372 -0.518847,-0.38747 -0.778286,-0.58124 m 0.352168,0.17804 c -0.268282,-0.20039 -0.536532,-0.40076 -0.804751,-0.60112 m -0.600289,-0.30769 c -0.26686,-0.19926 -0.533681,-0.39852 -0.800462,-0.59778 m 0.173456,0.24209 c -0.268469,-0.19806 -0.536892,-0.39616 -0.805268,-0.59431 m 0.07997,0.23857 c -0.265096,-0.19878 -0.530236,-0.39757 -0.795418,-0.59637 m -0.281536,0.006 c -0.264987,-0.19809 -0.530005,-0.39622 -0.795055,-0.5944 m -0.01007,0.0465 c -0.266454,-0.19845 -0.532907,-0.39695 -0.799358,-0.5955 m 0.07397,0.085 c -0.266329,-0.20026 -0.532643,-0.40052 -0.798942,-0.60079 m 0.762593,-0.20021 c -0.26686,-0.19922 -0.533718,-0.39843 -0.800574,-0.59764 m -0.712379,-0.66748 c -0.137152,-0.10198 -0.274285,-0.20396 -0.4114,-0.30593 -1.93e-4,0 -3.85e-4,0 -5.76e-4,0 -7.45e-4,0.12991 -0.0015,0.25983 -0.0022,0.38975"
       id="path3829-1-5-74-4-94-3-2"
       inkscape:path-effect="#path-effect6303"
       inkscape:original-d="m 17.999999,971.3598 0,12.1875 c -5.599646,6.3458 -8.9999999,14.6839 -8.9999999,23.8125 0,19.8822 16.1177489,36 35.9999999,36 19.882251,0 36,-16.1178 36,-36 0,-9.1286 -3.400354,-17.4667 -9,-23.8125 l 0,-12.1875 -7.59375,5.6875 c -5.60174,-3.5943 -12.25637,-5.6875 -19.40625,-5.6875 -7.14988,0 -13.80451,2.0932 -19.40625,5.6875 l -7.59375,-5.6875 z" />
  </g>
</svg>
