<!--?xml version="1.0" encoding="UTF-8" standalone="no"?--><!-- Created with Inkscape (http://www.inkscape.org/) --><svg xmlns:dc="http://purl.org/dc/elements/1.1/" xmlns:cc="http://creativecommons.org/ns#" xmlns:rdf="http://www.w3.org/1999/02/22-rdf-syntax-ns#" xmlns:svg="http://www.w3.org/2000/svg" xmlns="http://www.w3.org/2000/svg" xlink="http://www.w3.org/1999/xlink" xmlns:sodipodi="http://sodipodi.sourceforge.net/DTD/sodipodi-0.dtd" xmlns:inkscape="http://www.inkscape.org/namespaces/inkscape" width="100%" height="100%" viewBox="0 0 90 90" id="svg2" version="1.1" inkscape:version="0.48.4 r9939" sodipodi:docname="winged-helmet.svg" class="winged-helmet" data-z="1000" data-slots="hat">
  <defs id="defs4">
    <inkscape:path-effect effect="sketch" id="path-effect5121-4" is_visible="true" nbiter_approxstrokes="3" strokelength="1" strokelength_rdm="0;1" strokeoverlap="0.1" strokeoverlap_rdm="0;1" ends_tolerance="0.9;1" parallel_offset="0.9;1" tremble_size="1.5;1" tremble_frequency="0.01" nbtangents="0" tgt_places_rdmness="1;1" tgtscale="10.5" tgtlength="100" tgtlength_rdm="0.1;1"/>
    <inkscape:path-effect effect="sketch" id="path-effect5121-7" is_visible="true" nbiter_approxstrokes="3" strokelength="1" strokelength_rdm="0;1" strokeoverlap="0.1" strokeoverlap_rdm="0;1" ends_tolerance="0.9;1" parallel_offset="0.9;1" tremble_size="1.5;1" tremble_frequency="0.01" nbtangents="0" tgt_places_rdmness="1;1" tgtscale="10.5" tgtlength="100" tgtlength_rdm="0.1;1"/>
    <inkscape:path-effect effect="sketch" id="path-effect5257" is_visible="true" nbiter_approxstrokes="2" strokelength="1" strokelength_rdm="0.1;1" strokeoverlap="0" strokeoverlap_rdm="0;1" ends_tolerance="0;1" parallel_offset="0.8;1" tremble_size="0.7;1" tremble_frequency="1" nbtangents="0" tgt_places_rdmness="1;1" tgtscale="10" tgtlength="100" tgtlength_rdm="0.3;1"/>
    <linearGradient inkscape:collect="always" href="#linearGradient5728-3" id="linearGradient5483" gradientUnits="userSpaceOnUse" x1="945" y1="310.2579" x2="945" y2="388.79999" gradientTransform="translate(-1170,962.35973)"/>
    <linearGradient id="linearGradient5728-3">
      <stop style="stop-color:#000000;stop-opacity:1;" offset="0" id="stop5730-7"/>
      <stop style="stop-color:#000000;stop-opacity:0;" offset="1" id="stop5732-3"/>
    </linearGradient>
  </defs>
  <sodipodi:namedview id="base" pagecolor="#ffffff" bordercolor="#666666" borderopacity="1.0" inkscape:pageopacity="0.0" inkscape:pageshadow="2" inkscape:zoom="5.6444128" inkscape:cx="79.82532" inkscape:cy="36.194268" inkscape:document-units="in" inkscape:current-layer="svg2" showgrid="false" units="in" inkscape:window-width="1920" inkscape:window-height="1017" inkscape:window-x="-8" inkscape:window-y="-8" inkscape:window-maximized="1">
    <inkscape:grid type="xygrid" id="grid2994" empspacing="5" visible="true" enabled="true" snapvisiblegridlinesonly="true" units="in" spacingx="0.014in" spacingy="0.014in"/>
  </sodipodi:namedview>
  <metadata id="metadata7">
    <rdf:rdf>
      <cc:work rdf:about="">
        <dc:format>image/svg+xml</dc:format>
        <dc:type rdf:resource="http://purl.org/dc/dcmitype/StillImage"/>
        <dc:title/>
      </cc:work>
    </rdf:rdf>
  </metadata>
  <g inkscape:groupmode="layer" id="layer2" inkscape:label="wings" class="wings">
    <path style="fill:#b4b4b4;fill-opacity:1;stroke:#000000;stroke-width:4.5;stroke-miterlimit:4;stroke-opacity:1;stroke-dasharray:none" d="m 83.875,21.37495 -6.15625,6.15625 c 1.697613,2.74975 3.001574,5.74327 3.875,8.875 L 83.875,34.12495 c 3.514719,-3.5147 3.514674,-9.2353 0,-12.75 z" id="path3597-5-6-1" inkscape:connector-curvature="0"/>
    <path style="fill:#b4b4b4;fill-opacity:1;stroke:#000000;stroke-width:4.5;stroke-miterlimit:4;stroke-opacity:1;stroke-dasharray:none" d="m 81.125,12.56245 -6.375,6.375 -2.09375,2.09375 c 2.119085,2.18754 3.968443,4.63273 5.5,7.25 L 81.125,25.31245 c 3.514719,-3.5148 3.514674,-9.2353 0,-12.75 z" id="path3597-5-8" inkscape:connector-curvature="0"/>
    <path style="fill:#b4b4b4;fill-opacity:1;stroke:#000000;stroke-width:4.5;stroke-miterlimit:4;stroke-opacity:1;stroke-dasharray:none" d="m 76.8125,4.24995 -6.34375,6.375 -4.75,4.75 c 2.528366,1.65409 4.87425,3.57795 6.96875,5.75 l 4.125,-4.125 c 3.514718,-3.5148 3.514674,-9.2353 0,-12.75 z" id="path3597-1" inkscape:connector-curvature="0"/>
    <path style="fill:#b4b4b4;fill-opacity:1;stroke:#000000;stroke-width:4.5;stroke-miterlimit:4;stroke-opacity:1;stroke-dasharray:none" d="m 6.3125,20.7812 c -3.514675,3.5147 -3.514719,9.20405 0,12.71875 l 2.25,2.25 c 0.927342,-3.07519 2.30792,-5.99438 4.03125,-8.6875 L 6.3125,20.7812 z" id="path3597-5-6" inkscape:connector-curvature="0"/>
    <path style="fill:#b4b4b4;fill-opacity:1;stroke:#000000;stroke-width:4.5;stroke-miterlimit:4;stroke-opacity:1;stroke-dasharray:none" d="m 9.09375,11.9687 c -3.514675,3.5147 -3.514719,9.20395 0,12.71875 l 3.0625,3.0625 c 1.569542,-2.57678 3.483291,-4.94833 5.625,-7.09375 L 15.4375,18.31245 9.09375,11.9687 z" id="path3597-5" inkscape:connector-curvature="0"/>
    <path style="fill:#b4b4b4;fill-opacity:1;stroke:#000000;stroke-width:4.5;stroke-miterlimit:4;stroke-opacity:1;stroke-dasharray:none" d="m 13.375,3.6562 c -3.514674,3.5147 -3.514718,9.20395 0,12.71875 l 4.34375,4.34375 c 2.124425,-2.13751 4.483579,-4.07074 7.03125,-5.6875 l -5.03125,-5 -6.34375,-6.375 z" id="path3597" inkscape:connector-curvature="0"/>
  </g>
  <g inkscape:label="Body" inkscape:groupmode="layer" id="layer1" class="helmet" transform="translate(0,-962.35975)" style="display:inline">
    <path style="fill:#ffffff;fill-opacity:1;stroke:#000000;stroke-width:4.5;stroke-linecap:round;stroke-miterlimit:4;stroke-opacity:1;stroke-dasharray:none;stroke-dashoffset:0" d="m 45,969.5597 c -5.907537,1.8001 -6.139457,2.1928 -8.989227,2.9314 C 20.486262,976.5148 7.2,990.5813 7.2,1007.3598 c 0,0.9158 1.82656,1.82 1.89375,2.7187 7.374588,2.6022 21.318283,4.4688 35.90625,4.4688 13.433913,0 28.022289,-2.2661 35.90625,-4.6563 0.05837,-0.8383 1.89375,-1.6781 1.89375,-2.5312 0,-16.761 -13.254352,-30.8466 -28.762229,-34.8562 C 51.149824,971.757 50.4,971.3598 45,969.5597 z" id="path3829-1-5-74-4-24-3-5" inkscape:connector-curvature="0" sodipodi:nodetypes="csscscssc"/>
    <path style="fill:none;fill-opacity:1;stroke:#000000;stroke-width:9;stroke-linecap:round;stroke-miterlimit:4;stroke-opacity:1;stroke-dasharray:none;display:inline" d="m 63,993.85974 -36,0 z" id="rect4246-1" inkscape:connector-curvature="0" sodipodi:nodetypes="ccc"/>
  </g>
</svg>
