<?xml version="1.0" encoding="UTF-8" standalone="no"?>
<!--?xml version="1.0" encoding="UTF-8" standalone="no"?-->

<!-- Created with Inkscape (http://www.inkscape.org/) -->

<svg
   xmlns:dc="http://purl.org/dc/elements/1.1/"
   xmlns:cc="http://creativecommons.org/ns#"
   xmlns:rdf="http://www.w3.org/1999/02/22-rdf-syntax-ns#"
   xmlns:svg="http://www.w3.org/2000/svg"
   xmlns="http://www.w3.org/2000/svg"
   xmlns:sodipodi="http://sodipodi.sourceforge.net/DTD/sodipodi-0.dtd"
   xmlns:inkscape="http://www.inkscape.org/namespaces/inkscape"
   xlink="http://www.w3.org/1999/xlink"
   width="100%"
   height="100%"
   viewBox="0 0 90 90"
   id="svg2"
   version="1.1"
   inkscape:version="0.92.5 (2060ec1f9f, 2020-04-08)"
   sodipodi:docname="armor-wolf.svg"
   class="winged-armor"
   data-z="500"
   data-slots="clothing"
   data-tags="new+clothing+armor">
  <defs
     id="defs4">
    <linearGradient
       id="linearGradient5737">
      <stop
         style="stop-color:#000000;stop-opacity:1;"
         offset="0"
         id="stop5739" />
      <stop
         style="stop-color:#000000;stop-opacity:0;"
         offset="1"
         id="stop5741" />
    </linearGradient>
    <linearGradient
       inkscape:collect="always"
       href="#linearGradient5728"
       id="linearGradient5734"
       x1="945"
       y1="310.2579"
       x2="945"
       y2="388.79999"
       gradientUnits="userSpaceOnUse" />
  </defs>
  <sodipodi:namedview
     id="base"
     pagecolor="#ffffff"
     bordercolor="#666666"
     borderopacity="1.0"
     inkscape:pageopacity="0.0"
     inkscape:pageshadow="2"
     inkscape:zoom="15.96481"
     inkscape:cx="14.632375"
     inkscape:cy="17.56825"
     inkscape:document-units="in"
     inkscape:current-layer="layer2"
     showgrid="false"
     units="in"
     inkscape:window-width="3840"
     inkscape:window-height="2123"
     inkscape:window-x="3840"
     inkscape:window-y="0"
     inkscape:window-maximized="1">
    <inkscape:grid
       type="xygrid"
       id="grid2994"
       empspacing="5"
       visible="true"
       enabled="true"
       snapvisiblegridlinesonly="true"
       units="in"
       spacingx="1.344"
       spacingy="1.344"
       originx="0"
       originy="0" />
  </sodipodi:namedview>
  <metadata
     id="metadata7">
    <rdf:rdf>
      <cc:work
         rdf:about="">
        <dc:format>image/svg+xml</dc:format>
        <dc:type
           rdf:resource="http://purl.org/dc/dcmitype/StillImage" />
        <dc:title />
      </cc:work>
    </rdf:rdf>
    <rdf:RDF>
      <cc:Work
         rdf:about="">
        <dc:format>image/svg+xml</dc:format>
        <dc:type
           rdf:resource="http://purl.org/dc/dcmitype/StillImage" />
        <dc:title />
      </cc:Work>
    </rdf:RDF>
  </metadata>
  <g
     inkscape:label="Body"
     inkscape:groupmode="layer"
     id="layer1"
     class="armor"
     transform="translate(0,-962.35975)"
     style="display:inline">
    <path
       style="fill:#ffffff;fill-opacity:1;stroke:#000000;stroke-width:2.25;stroke-linecap:round;stroke-miterlimit:4;stroke-dasharray:none;stroke-dashoffset:0;stroke-opacity:1"
       d="m 9.1875,1011.141 c 1.88688,18.108 17.2051,32.2188 35.8125,32.2188 18.33498,0 33.47434,-13.7119 35.71875,-31.4375 -7.05244,2.6459 -19.97089,4.4375 -34.8125,4.4375 -16.28176,0 -30.28526,-2.1398 -36.71875,-5.2188 z"
       id="path3829-1-5-74-4-9-96"
       inkscape:connector-curvature="0"
       sodipodi:nodetypes="cscsc" />
    <path
       style="fill:none;stroke:#000000;stroke-width:2.25;stroke-linecap:butt;stroke-linejoin:miter;stroke-miterlimit:4;stroke-dasharray:none;stroke-opacity:1"
       d="m 45,1021.7598 v 16.2"
       id="path4514-3"
       inkscape:connector-curvature="0"
       sodipodi:nodetypes="cc" />
  </g>
  <g
     inkscape:groupmode="layer"
     id="layer2"
     class="wings"
     inkscape:label="Wings">
    <path
       style="fill:#b4b4b4;fill-opacity:1;stroke:none;stroke-width:0.83971947px;stroke-linecap:butt;stroke-linejoin:miter;stroke-opacity:1"
       d="m 39.087891,57.830078 c 0.03719,0.167366 -0.576193,1.040102 -1.003907,1.449219 -0.427714,0.409118 -0.128906,0.855471 -0.128906,0.855469 0,10e-7 -0.447036,0.09314 -2.734375,-0.07422 -2.287339,-0.167366 -1.151677,1.152425 -3.197265,1.115234 -0.263903,-0.0048 -0.58252,0.01466 -0.878907,0.02344 -0.916124,-0.170415 -2.393986,-0.415483 -2.986328,-0.220703 -0.286171,0.09407 -0.560404,0.292524 -0.8125,0.503906 -0.331308,0.03607 -0.920156,0.09734 -0.996094,0.101562 -0.396093,0.151658 -0.55601,0.131024 -0.519531,1.115235 -0.256427,1.065768 -0.603731,1.841763 0.81836,2.417969 0.08478,-0.01927 0.135801,-0.03346 0.21875,-0.05273 0.310514,0.324293 0.804782,0.561549 1.351562,0.667969 0,0 -0.380592,-0.407483 -0.466797,-0.886719 0.164888,-0.04091 0.314643,-0.07723 0.472656,-0.117187 0.30885,0.334132 0.813686,0.579012 1.371094,0.6875 0,0 -0.3923,-0.419722 -0.470703,-0.908204 0.183914,-0.04651 0.41556,-0.103225 0.591797,-0.146484 0.309339,0.331479 0.812633,0.573708 1.367187,0.681641 0,0 -0.376837,-0.40387 -0.464843,-0.88086 0.253004,-0.05493 0.507877,-0.111875 0.751953,-0.154297 0.295747,0.38087 0.844724,0.65931 1.451172,0.777344 0,0 -0.39156,-0.422255 -0.46875,-0.912109 0.187343,-0.01682 0.374359,-0.03147 0.5625,-0.03711 1.84103,-0.05578 2.528193,1.48635 2.583984,1.914062 0.05579,0.427716 -0.298101,1.042635 -1.060547,1.191406 -0.659785,0.128738 -1.443031,-0.32767 -2.28125,-0.464844 -0.06625,-0.480121 0.16211,-0.982421 0.162109,-0.982421 -0.436233,0.245543 -0.803343,0.580168 -1.013671,0.939453 -0.233324,5.97e-4 -0.473761,0.01494 -0.726563,0.04297 -0.01738,-0.43886 0.167969,-0.861328 0.167969,-0.861328 -0.45879,0.258239 -0.841384,0.613565 -1.044922,0.994141 -0.18243,0.03609 -0.360141,0.07215 -0.539063,0.115234 -0.01461,-0.469453 0.230469,-0.925781 0.230469,-0.925781 -0.602879,0.284531 -1.09396,0.730127 -1.253906,1.212891 -0.02291,0.0073 -0.04579,0.01418 -0.06836,0.02148 -0.0376,-0.458479 0.166015,-0.916015 0.166015,-0.916015 -0.574819,0.323548 -1.031432,0.799574 -1.162109,1.287109 -0.26327,0.118491 -0.446585,0.22132 -0.464844,0.279297 -0.121293,0.242583 0.16943,0.44795 0.25586,0.894531 -0.05437,0.14833 -0.08278,0.304916 -0.08398,0.462891 -1.5e-5,0.653351 0.459542,1.216575 1.099609,1.347656 -0.116697,-0.149701 -0.20115,-0.321933 -0.248046,-0.50586 0.310087,0.235386 0.705392,0.328358 1.08789,0.25586 -0.241622,-0.136414 -0.436343,-0.342709 -0.558594,-0.591797 0.431537,0.217047 0.945297,0.191841 1.353516,-0.06641 -0.305105,-0.04256 -0.587092,-0.186308 -0.800781,-0.408203 -0.159067,-0.166231 -0.273899,-0.369705 -0.333985,-0.591797 0.652506,-0.37333 2.635824,-0.529705 3.396485,-0.591797 0.795307,-0.06492 2.101681,0.152765 2.927734,0.839844 -0.861897,0.584483 -1.954868,0.711352 -2.927734,0.339843 -0.198479,-0.07588 -0.388879,-0.171407 -0.568359,-0.285156 0.290605,0.932305 0.992323,1.680085 1.904296,2.029297 1.338613,0.510209 2.85317,0.06527 3.703125,-1.087891 0.136366,0.01276 0.273297,0.02409 0.416016,0.0293 -0.320653,0.865088 -1.00022,1.54893 -1.863281,1.875 -0.198462,0.07495 -0.403907,0.129909 -0.613282,0.164063 0.834785,0.505839 1.855245,0.601551 2.769532,0.259765 1.071495,-0.405531 1.843146,-1.354624 2.021484,-2.486328 0.06192,-0.01197 0.123165,-0.02422 0.183594,-0.03711 0.09907,0.695268 -0.03412,1.403794 -0.378906,2.015625 -0.105281,0.185746 -0.228949,0.36045 -0.369141,0.521484 0.966758,-0.147012 1.812639,-0.72941 2.294922,-1.580078 0.553323,-0.979559 0.549612,-2.178183 -0.0098,-3.154297 -0.0168,-1.270303 -0.422898,-2.69181 -0.582031,-2.957031 -0.278944,-0.464906 -0.873379,-3.793177 -0.724609,-4.574219 0.148769,-0.781044 -0.912191,-2.13807 -0.875,-1.970703 z"
       id="path823"
       inkscape:connector-curvature="0"
       sodipodi:nodetypes="ccccscccccccccccccccccccccccccccccccccccccccccccscccccccccccccccscc" />
    <path
       style="fill:#b4b4b4;fill-opacity:1;stroke:none;stroke-width:0.83971947px;stroke-linecap:butt;stroke-linejoin:miter;stroke-opacity:1"
       d="m 50.7892,57.830078 c -0.03719,0.167366 0.576193,1.040102 1.003907,1.449219 0.427714,0.409118 0.128906,0.855471 0.128906,0.855469 0,10e-7 0.447036,0.09314 2.734375,-0.07422 2.287339,-0.167366 1.151677,1.152425 3.197265,1.115234 0.263903,-0.0048 0.58252,0.01466 0.878907,0.02344 0.916124,-0.170415 2.393986,-0.415483 2.986328,-0.220703 0.286171,0.09407 0.560404,0.292524 0.8125,0.503906 0.331308,0.03607 0.920156,0.09734 0.996094,0.101562 0.396093,0.151658 0.55601,0.131024 0.519531,1.115235 0.256427,1.065768 0.603731,1.841763 -0.81836,2.417969 -0.08478,-0.01927 -0.135801,-0.03346 -0.21875,-0.05273 -0.310514,0.324293 -0.804782,0.561549 -1.351562,0.667969 0,0 0.380592,-0.407483 0.466797,-0.886719 -0.164888,-0.04091 -0.314643,-0.07723 -0.472656,-0.117187 -0.30885,0.334132 -0.813686,0.579012 -1.371094,0.6875 0,0 0.3923,-0.419722 0.470703,-0.908204 -0.183914,-0.04651 -0.41556,-0.103225 -0.591797,-0.146484 -0.309339,0.331479 -0.812633,0.573708 -1.367187,0.681641 0,0 0.376837,-0.40387 0.464843,-0.88086 -0.253004,-0.05493 -0.507877,-0.111875 -0.751953,-0.154297 -0.295747,0.38087 -0.844724,0.65931 -1.451172,0.777344 0,0 0.39156,-0.422255 0.46875,-0.912109 -0.187343,-0.01682 -0.374359,-0.03147 -0.5625,-0.03711 -1.84103,-0.05578 -2.528193,1.48635 -2.583984,1.914062 -0.05579,0.427716 0.298101,1.042635 1.060547,1.191406 0.659785,0.128738 1.443031,-0.32767 2.28125,-0.464844 0.06625,-0.480121 -0.16211,-0.982421 -0.162109,-0.982421 0.436233,0.245543 0.803343,0.580168 1.013671,0.939453 0.233324,5.97e-4 0.473761,0.01494 0.726563,0.04297 0.01738,-0.43886 -0.167969,-0.861328 -0.167969,-0.861328 0.45879,0.258239 0.841384,0.613565 1.044922,0.994141 0.18243,0.03609 0.360141,0.07215 0.539063,0.115234 0.01461,-0.469453 -0.230469,-0.925781 -0.230469,-0.925781 0.602879,0.284531 1.09396,0.730127 1.253906,1.212891 0.02291,0.0073 0.04579,0.01418 0.06836,0.02148 0.0376,-0.458479 -0.166015,-0.916015 -0.166015,-0.916015 0.574819,0.323548 1.031432,0.799574 1.162109,1.287109 0.26327,0.118491 0.446585,0.22132 0.464844,0.279297 0.121293,0.242583 -0.16943,0.44795 -0.25586,0.894531 0.05437,0.14833 0.08278,0.304916 0.08398,0.462891 1.5e-5,0.653351 -0.459542,1.216575 -1.099609,1.347656 0.116697,-0.149701 0.20115,-0.321933 0.248046,-0.50586 -0.310087,0.235386 -0.705392,0.328358 -1.08789,0.25586 0.241622,-0.136414 0.436343,-0.342709 0.558594,-0.591797 -0.431537,0.217047 -0.945297,0.191841 -1.353516,-0.06641 0.305105,-0.04256 0.587092,-0.186308 0.800781,-0.408203 0.159067,-0.166231 0.273899,-0.369705 0.333985,-0.591797 -0.652506,-0.37333 -2.635824,-0.529705 -3.396485,-0.591797 -0.795307,-0.06492 -2.101681,0.152765 -2.927734,0.839844 0.861897,0.584483 1.954868,0.711352 2.927734,0.339843 0.198479,-0.07588 0.388879,-0.171407 0.568359,-0.285156 -0.290605,0.932305 -0.992323,1.680085 -1.904296,2.029297 -1.338613,0.510209 -2.85317,0.06527 -3.703125,-1.087891 -0.136366,0.01276 -0.273297,0.02409 -0.416016,0.0293 0.320653,0.865088 1.00022,1.54893 1.863281,1.875 0.198462,0.07495 0.403907,0.129909 0.613282,0.164063 -0.834785,0.505839 -1.855245,0.601551 -2.769532,0.259765 -1.071495,-0.405531 -1.843146,-1.354624 -2.021484,-2.486328 -0.06192,-0.01197 -0.123165,-0.02422 -0.183594,-0.03711 -0.09907,0.695268 0.03412,1.403794 0.378906,2.015625 0.105281,0.185746 0.228949,0.36045 0.369141,0.521484 -0.966758,-0.147012 -1.812639,-0.72941 -2.294922,-1.580078 -0.553323,-0.979559 -0.549612,-2.178183 0.0098,-3.154297 0.0168,-1.270303 0.422898,-2.69181 0.582031,-2.957031 0.278944,-0.464906 0.873379,-3.793177 0.724609,-4.574219 -0.148769,-0.781044 0.912191,-2.13807 0.875,-1.970703 z"
       id="path823-3"
       inkscape:connector-curvature="0"
       sodipodi:nodetypes="ccccscccccccccccccccccccccccccccccccccccccccccccscccccccccccccccscc" />
  </g>
</svg>
