<!--?xml version="1.0" encoding="UTF-8" standalone="no"?--><svg xmlns:dc="http://purl.org/dc/elements/1.1/" xmlns:cc="http://creativecommons.org/ns#" xmlns:rdf="http://www.w3.org/1999/02/22-rdf-syntax-ns#" xmlns:svg="http://www.w3.org/2000/svg" xmlns="http://www.w3.org/2000/svg" xmlns:sodipodi="http://sodipodi.sourceforge.net/DTD/sodipodi-0.dtd" xmlns:inkscape="http://www.inkscape.org/namespaces/inkscape" viewBox="0 0 90 90" class="bicorne" id="svg3674" data-z="1000" data-slots="hat" data-tags="clothing+hat" version="1.1" inkscape:version="0.91 r13725" sodipodi:docname="bicorne.svg">
  <defs id="defs3684"/>
  <sodipodi:namedview pagecolor="#ffffff" bordercolor="#666666" borderopacity="1" objecttolerance="10" gridtolerance="10" guidetolerance="10" inkscape:pageopacity="0" inkscape:pageshadow="2" inkscape:window-width="1280" inkscape:window-height="702" id="namedview3682" showgrid="false" inkscape:zoom="5.5555556" inkscape:cx="23.94" inkscape:cy="52.2" inkscape:window-x="0" inkscape:window-y="1" inkscape:window-maximized="1" inkscape:current-layer="svg3674"/>
  <metadata title="Bicorne" contributor="Douglas Richardson" id="metadata3676">
    <layers>
      <layer name="Primary" data-layer="layer1"/>
    </layers>
    <rdf:rdf>
      <cc:work rdf:about="">
        <dc:format>image/svg+xml</dc:format>
        <dc:type rdf:resource="http://purl.org/dc/dcmitype/StillImage"/>
        <dc:title/>
      </cc:work>
    </rdf:rdf>
  </metadata>
  <g inkscape:groupmode="layer" id="layer2" class="bicorne-back" inkscape:label="bicorne">
    <path style="fill:#999999;fill-opacity:1;fill-rule:evenodd;stroke:#000000;stroke-width:4.5;stroke-linecap:butt;stroke-linejoin:miter;stroke-miterlimit:4;stroke-dasharray:none;stroke-opacity:1" d="m 3.96,28.44 c 25.02,4.5 58.5,5.22 82.08,0.9 0,0 -1.235387,-3.090179 -3.06808,-6.705268 C 76.376393,23.538885 55.788036,3.2531795 43.74,3.06 31.691964,2.8668205 14.516184,24.268427 6.6379327,22.277448 4.9952885,25.636632 3.96,28.44 3.96,28.44 Z" id="path3779" inkscape:connector-curvature="0" sodipodi:nodetypes="ccczcc"/>
  </g>
  <g inkscape:groupmode="layer" id="layer1" class="bicorne-front" inkscape:label="bicorne-front">
    <path style="fill:#ffffff;fill-opacity:1;fill-rule:evenodd;stroke:#000000;stroke-width:2.20795679;stroke-linecap:butt;stroke-linejoin:miter;stroke-miterlimit:4;stroke-dasharray:none;stroke-opacity:1" d="M 43.789062 7.0351562 C 32.206879 6.8416463 15.694722 28.279539 8.1210938 26.285156 C 7.672436 27.24119 7.2863658 28.122989 6.9414062 28.9375 C 30.512205 32.800392 60.57744 33.428871 82.982422 29.847656 C 82.553586 28.873648 82.073509 27.813341 81.503906 26.642578 C 75.163404 27.548277 55.371247 7.2286661 43.789062 7.0351562 z " id="path3779-3-6"/>
  </g>
  <g inkscape:groupmode="layer" id="layer3" class="emblem" inkscape:label="emblem">
    <path style="fill:#dddddd;fill-opacity:1;fill-rule:evenodd;stroke:#000000;stroke-width:2.20795679;stroke-linecap:butt;stroke-linejoin:miter;stroke-miterlimit:4;stroke-dasharray:none;stroke-opacity:1" d="M 55.271484 11.214844 C 56.052521 12.123083 56.527344 13.302092 56.527344 14.619141 C 56.527344 16.941066 55.077107 18.864507 53.017578 19.5625 A 4.1399999 4.1399999 0 0 1 56.339844 23.619141 A 4.1399999 4.1399999 0 0 1 55.761719 25.722656 C 59.663904 24.13686 62.560868 20.544518 63.15625 16.251953 C 60.543251 14.458262 57.881139 12.714002 55.271484 11.214844 z " id="path3779-3"/>
    <circle style="fill:#dddddd;fill-opacity:1;stroke:#000000;stroke-width:2.25;stroke-miterlimit:4;stroke-dasharray:none;stroke-opacity:1" id="path4611" cx="52.200001" cy="23.620001" r="4.1399999"/>
  </g>
</svg>
