<?xml version="1.0" encoding="UTF-8" standalone="no"?>
<!--?xml version="1.0" encoding="UTF-8" standalone="no"?-->

<svg
   xmlns:dc="http://purl.org/dc/elements/1.1/"
   xmlns:cc="http://creativecommons.org/ns#"
   xmlns:rdf="http://www.w3.org/1999/02/22-rdf-syntax-ns#"
   xmlns:svg="http://www.w3.org/2000/svg"
   xmlns="http://www.w3.org/2000/svg"
   xmlns:sodipodi="http://sodipodi.sourceforge.net/DTD/sodipodi-0.dtd"
   xmlns:inkscape="http://www.inkscape.org/namespaces/inkscape"
   viewBox="0 0 90 90"
   class="bird-wings-tucked"
   width="100%"
   height="100%"
   id="svg3336"
   data-z="0"
   data-slots="back"
   data-tags="weapon+animals+back"
   version="1.1"
   inkscape:version="0.92.3 (2405546, 2018-03-11)"
   sodipodi:docname="bird-wings-tucked.svg">
  <defs
     id="defs3348" />
  <sodipodi:namedview
     pagecolor="#ffffff"
     bordercolor="#666666"
     borderopacity="1"
     objecttolerance="10"
     gridtolerance="10"
     guidetolerance="10"
     inkscape:pageopacity="0"
     inkscape:pageshadow="2"
     inkscape:window-width="3773"
     inkscape:window-height="2105"
     id="namedview3346"
     showgrid="false"
     inkscape:zoom="20.422222"
     inkscape:cx="48.584872"
     inkscape:cy="38.08428"
     inkscape:window-x="67"
     inkscape:window-y="27"
     inkscape:window-maximized="1"
     inkscape:current-layer="layer4" />
  <metadata
     title="Basic Body"
     contributor="Douglas Richardson"
     id="metadata3338">
    <layers>
      <layer
         name="Primary"
         data-layer="layer1" />
    </layers>
    <rdf:rdf>
      <cc:work
         rdf:about="">
        <dc:format>image/svg+xml</dc:format>
        <dc:type
           rdf:resource="http://purl.org/dc/dcmitype/StillImage" />
        <dc:title>Basic Body</dc:title>
      </cc:work>
    </rdf:rdf>
    <rdf:RDF>
      <cc:Work
         rdf:about="">
        <dc:format>image/svg+xml</dc:format>
        <dc:type
           rdf:resource="http://purl.org/dc/dcmitype/StillImage" />
      </cc:Work>
    </rdf:RDF>
  </metadata>
  <title
     id="title3344">Basic Body</title>
  <g
     inkscape:groupmode="layer"
     id="layer4"
     inkscape:label="wings"
     class="wings">
    <path
       style="fill:#ffffff;fill-opacity:1;stroke:#000000;stroke-width:2.25;stroke-miterlimit:4;stroke-dasharray:none;stroke-dashoffset:0;stroke-opacity:1"
       d="m 5.0680741,42.046217 c -0.732078,-0.922539 -2.1644669,1.600818 -2.2131551,2.75541 -0.6894251,16.348991 10.487032,31.074328 26.466417,37.161545 0,0 5.856197,-2.114192 6.585686,-4.042285 C 38.767756,70.359734 41.732665,64.23111 33.307745,57.152731 24.882824,50.074352 5.0680741,42.046217 5.0680741,42.046217 Z M 52.322673,78.014308 c 1.005168,3.297093 8.060093,4.040161 8.060093,4.040161 16.12824,-6.009901 26.74531,-20.787702 26.762426,-37.252842 9.87e-4,-0.950505 -1.169973,-2.848835 -2.170027,-2.848835 0,0 -18.196365,8.051766 -26.969145,15.067385 -8.772781,7.015618 -8.121975,12.995088 -5.683347,20.994131 z"
       id="circle3342-6"
       inkscape:connector-curvature="0"
       sodipodi:nodetypes="csccscscssss" />
    <path
       style="color:#000000;clip-rule:nonzero;display:inline;overflow:visible;visibility:visible;opacity:1;isolation:auto;mix-blend-mode:normal;color-interpolation:sRGB;color-interpolation-filters:linearRGB;solid-color:#000000;solid-opacity:1;fill:#ffffff;fill-opacity:1;fill-rule:nonzero;stroke:#000000;stroke-width:2.25;stroke-linecap:butt;stroke-linejoin:miter;stroke-miterlimit:4;stroke-dasharray:none;stroke-dashoffset:0;stroke-opacity:1;color-rendering:auto;image-rendering:auto;shape-rendering:auto;text-rendering:auto;enable-background:accumulate"
       d="m 14.642288,46.725833 c -0.520342,-0.691441 -1.823392,0.939453 -1.938046,1.731677 -1.623497,11.217873 6.278229,22.215918 18.560854,27.623362 0,0 4.787434,-1.013512 5.493383,-2.287343 2.768419,-4.995415 5.525219,-8.995424 -0.695933,-14.513494 C 29.841394,53.761965 14.642288,46.725833 14.642288,46.725833 Z"
       id="path821"
       inkscape:connector-curvature="0"
       inkscape:transform-center-x="9.1419007"
       inkscape:transform-center-y="-2.0089419" />
    <path
       style="color:#000000;clip-rule:nonzero;display:inline;overflow:visible;visibility:visible;opacity:1;isolation:auto;mix-blend-mode:normal;color-interpolation:sRGB;color-interpolation-filters:linearRGB;solid-color:#000000;solid-opacity:1;fill:#ffffff;fill-opacity:1;fill-rule:nonzero;stroke:#000000;stroke-width:2.25;stroke-linecap:butt;stroke-linejoin:miter;stroke-miterlimit:4;stroke-dasharray:none;stroke-dashoffset:0;stroke-opacity:1;color-rendering:auto;image-rendering:auto;shape-rendering:auto;text-rendering:auto;enable-background:accumulate"
       d="m 51.582687,73.911215 c 0.962968,2.2199 6.610576,2.330165 6.610576,2.330165 12.52857,-5.072307 20.239176,-15.885843 19.435987,-27.259363 -0.04637,-0.656575 -1.071799,-1.900874 -1.867138,-1.843751 0,0 -14.072045,6.600763 -20.700963,11.947581 -6.628919,5.346817 -5.814706,9.439689 -3.478462,14.825368 z"
       id="circle3342-6-7"
       inkscape:connector-curvature="0"
       inkscape:transform-center-x="-9.2441949"
       inkscape:transform-center-y="-1.6878698" />
    <path
       style="fill:#ffffff;fill-opacity:1;stroke:#000000;stroke-width:2.25;stroke-miterlimit:4;stroke-dasharray:none;stroke-dashoffset:0;stroke-opacity:1"
       d="m 20.514756,48.912722 c -0.427543,-0.495286 -1.465857,0.648598 -1.550979,1.209236 -1.205299,7.938637 5.291992,15.813025 15.279105,19.765425 0,0 3.862684,-0.672601 4.421455,-1.569045 2.191252,-3.515469 4.382682,-6.325236 -0.702528,-10.297774 -5.085205,-3.972536 -17.447053,-9.107842 -17.447053,-9.107842 z"
       id="path825"
       inkscape:connector-curvature="0"
       inkscape:transform-center-x="5.3559535"
       inkscape:transform-center-y="-3.9895236" />
    <path
       style="fill:#ffffff;fill-opacity:1;stroke:#000000;stroke-width:2.25;stroke-miterlimit:4;stroke-dasharray:none;stroke-dashoffset:0;stroke-opacity:1"
       d="m 50.067878,68.355 c 0.763181,1.566188 5.332826,1.603313 5.332826,1.603313 10.175852,-3.685597 16.494357,-11.404854 15.926962,-19.459125 -0.03276,-0.464959 -0.85357,-1.339312 -1.49763,-1.293055 0,0 -11.436042,4.779982 -16.839467,8.617269 -5.403426,3.837288 -4.77423,6.73188 -2.922691,10.531598 z"
       id="circle3342-6-7-3"
       inkscape:connector-curvature="0"
       inkscape:transform-center-x="-5.5098949"
       inkscape:transform-center-y="-3.7954018" />
  </g>
</svg>
