<!--?xml version="1.0" encoding="UTF-8" standalone="no"?--><!--?xml version="1.0" encoding="UTF-8" standalone="no"?--><svg xmlns:dc="http://purl.org/dc/elements/1.1/" xmlns:cc="http://creativecommons.org/ns#" xmlns:rdf="http://www.w3.org/1999/02/22-rdf-syntax-ns#" xmlns:svg="http://www.w3.org/2000/svg" xmlns="http://www.w3.org/2000/svg" xmlns:sodipodi="http://sodipodi.sourceforge.net/DTD/sodipodi-0.dtd" xmlns:inkscape="http://www.inkscape.org/namespaces/inkscape" viewBox="0 0 90 90" data-z="100" data-slots="body" data-tags="body" class="basic-body" version="1.1" id="svg6" sodipodi:docname="body-brain.svg" inkscape:version="0.92.3 (2405546, 2018-03-11)">
  <metadata id="metadata12">
    <rdf:rdf>
      <cc:work rdf:about="">
        <dc:format>image/svg+xml</dc:format>
        <dc:type rdf:resource="http://purl.org/dc/dcmitype/StillImage"/>
        <dc:title/>
      </cc:work>
    </rdf:rdf>
  </metadata>
  <defs id="defs10"/>
  <sodipodi:namedview pagecolor="#ffffff" bordercolor="#666666" borderopacity="1" objecttolerance="10" gridtolerance="10" guidetolerance="10" inkscape:pageopacity="0" inkscape:pageshadow="2" inkscape:window-width="3773" inkscape:window-height="2105" id="namedview8" showgrid="false" inkscape:zoom="10.488889" inkscape:cx="68.514199" inkscape:cy="63.838744" inkscape:window-x="67" inkscape:window-y="27" inkscape:window-maximized="1" inkscape:current-layer="layer1"/>
  <g inkscape:groupmode="layer" id="layer3" class="brain" inkscape:label="brain" sodipodi:insensitive="true">
    <path style="fill:#b4b4b4;fill-opacity:1;stroke:#000000;stroke-width:2.25;stroke-linecap:round;stroke-linejoin:miter;stroke-miterlimit:4;stroke-dasharray:none;stroke-opacity:1" d="m 11.210144,43.505758 c -1.239121,-4.602451 0.0708,-11.187496 3.080101,-16.958261 0.778876,-3.009294 4.319222,-7.151499 7.930376,-8.213602 2.088805,-3.681961 3.292522,-3.186312 8.142796,-4.779468 1.062105,-0.849683 1.451542,-0.70807 3.150909,-1.132912 4.885677,-3.4695389 11.541529,-0.566454 11.753949,2.336629 -0.106212,-3.221714 6.514239,-5.4521341 10.975075,-2.336629 2.478242,-0.460244 3.469539,1.062105 3.469539,1.062105 1.734769,-0.389439 7.399324,2.478242 8.036585,4.744064 1.734771,0.495648 7.717956,4.425434 7.64715,8.532235 2.124207,2.478242 5.770764,10.337812 3.929784,16.958259 -6.089395,20.179974 -61.53122,18.940852 -68.116264,-0.21242 z" id="path1010" inkscape:connector-curvature="0"/>
    <path style="fill:none;stroke:#000000;stroke-width:1.125;stroke-linecap:round;stroke-linejoin:miter;stroke-miterlimit:4;stroke-dasharray:none;stroke-opacity:1" d="m 45.19389,14.679436 c 2.063688,12.418976 1.584617,29.849764 1.805727,38.915249" id="path1012" inkscape:connector-curvature="0"/>
    <path style="fill:none;stroke:#000000;stroke-width:1.125;stroke-linecap:round;stroke-linejoin:miter;stroke-miterlimit:4;stroke-dasharray:none;stroke-opacity:1" d="m 39.99782,17.922374 c 0.552773,3.869414 -3.132383,4.459039 -4.311632,4.127375 -1.179251,-0.331664 -6.301617,-4.23793 -6.670132,2.063687 -0.147407,1.179251 -2.395352,1.031844 -3.242938,2.616461 -0.847586,1.584617 -1.17925,1.768875 -0.921289,3.279788 2.395351,-1.105546 4.311632,-0.405366 4.422187,2.948126 0.110555,3.353491 4.311633,3.722008 4.97496,3.79571 0.663329,0.07371 5.41718,-0.921289 5.41718,-0.921289" id="path1014" inkscape:connector-curvature="0"/>
    <path style="fill:none;stroke:#000000;stroke-width:1.125;stroke-linecap:round;stroke-linejoin:miter;stroke-miterlimit:4;stroke-dasharray:none;stroke-opacity:1" d="m 26.215337,26.656194 c 3.427195,-0.589626 6.043656,-0.07371 6.706983,1.474062" id="path1016" inkscape:connector-curvature="0"/>
    <path style="fill:none;stroke:#000000;stroke-width:1.125;stroke-linecap:round;stroke-linejoin:miter;stroke-miterlimit:4;stroke-dasharray:none;stroke-opacity:1" d="m 36.312664,22.418265 c 0.70018,4.532742 2.432203,8.402155 -1.437211,9.139186" id="path1018" inkscape:connector-curvature="0"/>
    <path style="fill:none;stroke:#000000;stroke-width:1.125;stroke-linecap:round;stroke-linejoin:miter;stroke-miterlimit:4;stroke-dasharray:none;stroke-opacity:1" d="m 37.713023,29.456912 c 2.284797,1.474063 8.807524,3.169234 9.102336,5.159219" id="path1020" inkscape:connector-curvature="0"/>
    <path style="fill:none;stroke:#000000;stroke-width:1.125;stroke-linecap:round;stroke-linejoin:miter;stroke-miterlimit:4;stroke-dasharray:none;stroke-opacity:1" d="m 41.840398,25.108429 c 2.874422,0.331663 4.680148,3.206085 4.680148,3.206085" id="path1022" inkscape:connector-curvature="0"/>
    <path style="fill:none;stroke:#000000;stroke-width:1.125;stroke-linecap:round;stroke-linejoin:miter;stroke-miterlimit:4;stroke-dasharray:none;stroke-opacity:1" d="m 32.111586,15.748133 c 3.979968,-0.257961 5.490883,-0.589626 7.001797,-1.252954 1.510913,-0.663328 5.969952,-1.768875 6.338468,2.026835" id="path1024" inkscape:connector-curvature="0"/>
    <path style="fill:none;stroke:#000000;stroke-width:1.125;stroke-linecap:round;stroke-linejoin:miter;stroke-miterlimit:4;stroke-dasharray:none;stroke-opacity:1" d="m 16.707634,30.415053 c 2.542758,0.110554 2.100539,-0.626476 4.127375,-1.105547 2.026835,-0.47907 4.01682,0.700179 4.01682,0.700179" id="path1026" inkscape:connector-curvature="0"/>
    <path style="fill:none;stroke:#000000;stroke-width:1.125;stroke-linecap:round;stroke-linejoin:miter;stroke-miterlimit:4;stroke-dasharray:none;stroke-opacity:1" d="m 17.518368,26.766748 c 2.984976,-1.768875 2.948125,-2.395351 5.085515,-4.901257 2.137391,-2.505906 3.943117,-4.864406 5.896251,-5.490882 1.953132,-0.626476 3.611452,-0.626476 3.611452,-0.626476" id="path1028" inkscape:connector-curvature="0"/>
    <path style="fill:none;stroke:#000000;stroke-width:1.125;stroke-linecap:round;stroke-linejoin:miter;stroke-miterlimit:4;stroke-dasharray:none;stroke-opacity:1" d="m 18.95558,37.195741 c 2.026835,-3.390344 5.896249,-7.186056 5.896249,-7.186056" id="path1030" inkscape:connector-curvature="0"/>
    <path style="fill:none;stroke:#000000;stroke-width:1.125;stroke-linecap:round;stroke-linejoin:miter;stroke-miterlimit:4;stroke-dasharray:none;stroke-opacity:1" d="m 53.043271,17.922374 c -0.552773,3.869414 3.132383,4.459039 4.311633,4.127375 1.17925,-0.331664 6.301616,-4.23793 6.670132,2.063687 0.147406,1.179251 2.395352,1.031844 3.242937,2.616461 0.847586,1.584617 1.179251,1.768875 0.92129,3.279788 -2.395351,-1.105546 -4.311633,-0.405366 -4.422187,2.948126 -0.110556,3.353491 -4.311633,3.722008 -4.974961,3.79571 -0.663328,0.07371 -5.417179,-0.921289 -5.417179,-0.921289" id="path1014-6" inkscape:connector-curvature="0"/>
    <path style="fill:none;stroke:#000000;stroke-width:1.125;stroke-linecap:round;stroke-linejoin:miter;stroke-miterlimit:4;stroke-dasharray:none;stroke-opacity:1" d="m 66.825754,26.656194 c -3.427195,-0.589626 -6.043655,-0.07371 -6.706983,1.474062" id="path1016-2" inkscape:connector-curvature="0"/>
    <path style="fill:none;stroke:#000000;stroke-width:1.125;stroke-linecap:round;stroke-linejoin:miter;stroke-miterlimit:4;stroke-dasharray:none;stroke-opacity:1" d="m 56.728427,22.418265 c -0.700179,4.532742 -2.432203,8.402155 1.437212,9.139186" id="path1018-6" inkscape:connector-curvature="0"/>
    <path style="fill:none;stroke:#000000;stroke-width:1.125;stroke-linecap:round;stroke-linejoin:miter;stroke-miterlimit:4;stroke-dasharray:none;stroke-opacity:1" d="m 55.917693,29.86228 c -2.284796,1.474062 -8.807523,3.169234 -9.102335,5.159218" id="path1020-1" inkscape:connector-curvature="0"/>
    <path style="fill:none;stroke:#000000;stroke-width:1.125;stroke-linecap:round;stroke-linejoin:miter;stroke-miterlimit:4;stroke-dasharray:none;stroke-opacity:1" d="m 51.200693,25.108429 c -2.874422,0.331663 -4.680147,3.206085 -4.680147,3.206085" id="path1022-8" inkscape:connector-curvature="0"/>
    <path style="fill:none;stroke:#000000;stroke-width:1.125;stroke-linecap:round;stroke-linejoin:miter;stroke-miterlimit:4;stroke-dasharray:none;stroke-opacity:1" d="m 76.333457,30.415053 c -2.542757,0.110554 -2.100539,-0.626476 -4.127374,-1.105547 -2.026836,-0.47907 -4.01682,0.700179 -4.01682,0.700179" id="path1026-9" inkscape:connector-curvature="0"/>
    <path style="fill:none;stroke:#000000;stroke-width:1.125;stroke-linecap:round;stroke-linejoin:miter;stroke-miterlimit:4;stroke-dasharray:none;stroke-opacity:1" d="M 74.085512,37.195741 C 72.058676,33.805397 68.189263,30.009685 68.189263,30.009685" id="path1030-0" inkscape:connector-curvature="0"/>
    <path style="fill:none;stroke:#000000;stroke-width:1.125;stroke-linecap:round;stroke-linejoin:miter;stroke-miterlimit:4;stroke-dasharray:none;stroke-opacity:1" d="m 49.394968,13.57389 c 3.943116,1.40036 6.043655,3.242938 9.544554,3.279789" id="path1113" inkscape:connector-curvature="0"/>
    <path style="fill:none;stroke:#000000;stroke-width:1.125;stroke-linecap:round;stroke-linejoin:miter;stroke-miterlimit:4;stroke-dasharray:none;stroke-opacity:1" d="m 60.229327,15.969241 c 2.984976,1.179251 7.701976,3.832563 10.355288,8.181047" id="path1115" inkscape:connector-curvature="0"/>
  </g>
  <g inkscape:groupmode="layer" id="layer1" class="body" inkscape:label="Layer 1">
    <path style="fill:#ffffff;fill-opacity:1;stroke:#000000;stroke-width:2.25;stroke-miterlimit:4;stroke-dasharray:none;stroke-dashoffset:0;stroke-opacity:1" d="M 9.9921875 36.769531 A 36 36 0 0 0 9 45 A 36 36 0 0 0 45 81 A 36 36 0 0 0 81 45 A 36 36 0 0 0 80.007812 36.794922 A 79.229012 35.468418 0 0 1 45 40.46875 A 79.229012 35.468418 0 0 1 9.9921875 36.769531 z " id="circle2"/>
  </g>
</svg>
