<!--?xml version="1.0" encoding="UTF-8" standalone="no"?--><!-- Created with Inkscape (http://www.inkscape.org/) --><svg xmlns:dc="http://purl.org/dc/elements/1.1/" xmlns:cc="http://creativecommons.org/ns#" xmlns:rdf="http://www.w3.org/1999/02/22-rdf-syntax-ns#" xmlns:svg="http://www.w3.org/2000/svg" xmlns="http://www.w3.org/2000/svg" xmlns:sodipodi="http://sodipodi.sourceforge.net/DTD/sodipodi-0.dtd" xmlns:inkscape="http://www.inkscape.org/namespaces/inkscape" id="svg2" version="1.1" inkscape:version="0.48.4 r9939" sodipodi:docname="bound-mail.svg" width="100%" height="100%" viewBox="0 0 90 90" class="bound-mail" data-z="500" data-slots="clothing" data-tags="armor+fantasy+clothing">
  <defs id="defs4"/>
  <sodipodi:namedview id="base" pagecolor="#ffffff" bordercolor="#666666" borderopacity="1.0" inkscape:pageopacity="0.0" inkscape:pageshadow="2" inkscape:zoom="15.96481" inkscape:cx="38.476699" inkscape:cy="22.247322" inkscape:document-units="in" inkscape:current-layer="layer2" showgrid="true" units="in" inkscape:window-width="1920" inkscape:window-height="1003" inkscape:window-x="-9" inkscape:window-y="-9" inkscape:window-maximized="1">
    <inkscape:grid type="xygrid" id="grid2994" empspacing="5" visible="true" enabled="true" snapvisiblegridlinesonly="true" units="in" spacingx="0.014in" spacingy="0.014in"/>
  </sodipodi:namedview>
  <metadata id="metadata7">
    <rdf:rdf>
      <cc:work rdf:about="">
        <dc:format>image/svg+xml</dc:format>
        <dc:type rdf:resource="http://purl.org/dc/dcmitype/StillImage"/>
        <dc:title/>
      </cc:work>
    </rdf:rdf>
  </metadata>
  <g inkscape:label="Primary" inkscape:groupmode="layer" id="layer1" transform="translate(0,-962.35975)" style="display:inline" sodipodi:insensitive="true" class="bands">
    <path style="fill:#ffffff;fill-opacity:1;stroke:#000000;stroke-width:2.25;stroke-linecap:round;stroke-miterlimit:4;stroke-opacity:1;stroke-dasharray:none;stroke-dashoffset:0;display:inline" d="m 9.18,1011.1409 c 1.88688,18.1081 17.2051,32.2189 35.8125,32.2189 18.33498,0 33.47434,-13.7119 35.71875,-31.4375 -7.05244,2.6459 -19.97089,4.4375 -34.8125,4.4375 -16.28176,0 -30.28526,-2.1398 -36.71875,-5.2188 z" id="path3829-1-5-74-4-9-0-7-87-0" inkscape:connector-curvature="0" sodipodi:nodetypes="cscsc"/>
    <path style="fill:#ffffff;fill-opacity:1;stroke:#000000;stroke-width:2.25;stroke-linecap:round;stroke-miterlimit:4;stroke-opacity:1;stroke-dasharray:none;stroke-dashoffset:0;display:inline" d="m 9.1875,1011.141 c 0.3706371,3.5569 1.263506,6.9532 2.59375,10.125 7.186169,2.5042 19.768877,4.1875 34.125,4.1875 13.062333,0 24.636291,-1.3947 32.03125,-3.5313 1.385416,-3.1258 2.335817,-6.4821 2.78125,-10 -7.05244,2.6459 -19.97089,4.4375 -34.8125,4.4375 -16.28176,0 -30.28526,-2.1397 -36.71875,-5.2187 z" id="path3829-1-5-74-4-9-0-7-87-0-5" inkscape:connector-curvature="0"/>
    <path style="fill:#ffffff;fill-opacity:1;stroke:#000000;stroke-width:2.25;stroke-linecap:round;stroke-miterlimit:4;stroke-opacity:1;stroke-dasharray:none;stroke-dashoffset:0;display:inline" d="m 11.8125,1021.3597 c 1.723494,4.0785 4.198252,7.7594 7.21875,10.9063 7.146758,1.4247 16.533222,2.3438 26.875,2.3438 9.30761,0 17.833464,-0.7262 24.65625,-1.9063 3.052746,-3.0781 5.555756,-6.7054 7.34375,-10.7188 -7.396311,2.1314 -18.956367,3.5313 -32,3.5313 -14.330051,0 -26.901071,-1.6597 -34.09375,-4.1563 z" id="path3829-1-5-74-4-9-0-7-87-0-5-4" inkscape:connector-curvature="0"/>
    <path style="fill:#ffffff;fill-opacity:1;stroke:#000000;stroke-width:2.25;stroke-linecap:round;stroke-miterlimit:4;stroke-opacity:1;stroke-dasharray:none;stroke-dashoffset:0;display:inline" d="m 19.0625,1032.2973 c 6.552169,6.8095 15.741614,11.0625 25.9375,11.0625 9.987153,0 19.007965,-4.0869 25.53125,-10.6563 -6.810928,1.1709 -15.348994,1.875 -24.625,1.875 -10.315529,0 -19.702987,-0.8688 -26.84375,-2.2812 z" id="path3829-1-5-74-4-9-0-7-87-0-5-4-2" inkscape:connector-curvature="0"/>
    <path style="fill:none;stroke:#000000;stroke-width:2.25;stroke-linecap:butt;stroke-linejoin:miter;stroke-miterlimit:4;stroke-opacity:1;stroke-dasharray:none" d="m 44.1,1015.8197 0,27.7201" id="path4187" inkscape:connector-curvature="0"/>
  </g>
  <g inkscape:groupmode="layer" id="layer2" inkscape:label="Secondary" style="display:inline" class="tassles" sodipodi:insensitive="true">
    <path style="fill:#b4b4b4;fill-opacity:1;stroke:#000000;stroke-width:2.25;stroke-linecap:round;stroke-miterlimit:4;stroke-opacity:1;stroke-dasharray:none;stroke-dashoffset:0;display:inline" d="m 31.625,56.03125 c -0.08023,0.8011 -0.125,1.6205 -0.125,2.4687 0,0.4998 0.0028,0.9843 0.03125,1.4688 2.829732,0.2412 5.821284,0.427 8.90625,0.5312 -0.06412,-0.6438 -0.125,-1.3105 -0.125,-2 0,-0.6781 0.0629,-1.3345 0.125,-1.9687 -3.057183,-0.096 -5.999069,-0.2624 -8.8125,-0.5 z m 24.96875,0.2812 c -2.81661,0.1725 -5.780636,0.2517 -8.8125,0.2813 0.05814,0.6148 0.09375,1.2507 0.09375,1.9062 0,0.7121 -0.02549,1.3994 -0.09375,2.0625 3.041591,-0.036 6.018107,-0.138 8.84375,-0.3125 0.04029,-0.5757 0.0625,-1.152 0.0625,-1.75 0,-0.7502 -0.03086,-1.4732 -0.09375,-2.1875 z" id="path3829-1-5-74-4-9-0-7-87-0-5-6" inkscape:connector-curvature="0"/>
    <path style="fill:none;stroke:#000000;stroke-width:1.16999996;stroke-linecap:butt;stroke-linejoin:miter;stroke-miterlimit:4;stroke-opacity:1;stroke-dasharray:none;display:inline" d="m 37.8,58.49995 12.6,0" id="path4110" inkscape:connector-curvature="0"/>
    <path inkscape:connector-curvature="0" style="fill:#b4b4b4;fill-opacity:1;stroke:#000000;stroke-width:2.25;stroke-linecap:round;stroke-miterlimit:4;stroke-opacity:1;stroke-dasharray:none;stroke-dashoffset:0;display:inline" d="m 31.625,65.17635 c -0.08023,0.8011 -0.125,1.6205 -0.125,2.4688 0,0.4998 0.0028,0.9842 0.03125,1.4687 2.829732,0.2412 5.821284,0.427 8.90625,0.5313 -0.06412,-0.6439 -0.125,-1.3106 -0.125,-2 0,-0.6782 0.0629,-1.3346 0.125,-1.9688 -3.057183,-0.096 -5.999069,-0.2624 -8.8125,-0.5 z m 24.96875,0.2813 c -2.81661,0.1724 -5.780636,0.2516 -8.8125,0.2812 0.05814,0.6148 0.09375,1.2507 0.09375,1.9063 0,0.712 -0.02549,1.3993 -0.09375,2.0625 3.041591,-0.036 6.018107,-0.1381 8.84375,-0.3125 0.04029,-0.5758 0.0625,-1.1521 0.0625,-1.75 0,-0.7503 -0.03086,-1.4733 -0.09375,-2.1875 z" id="path3829-1-5-74-4-9-0-7-87-0-5-6-2"/>
    <path style="fill:none;stroke:#000000;stroke-width:1.16999996;stroke-linecap:butt;stroke-linejoin:miter;stroke-miterlimit:4;stroke-opacity:1;stroke-dasharray:none;display:inline" d="m 37.8,67.64515 12.6,0" id="path4110-3" inkscape:connector-curvature="0"/>
    <path inkscape:connector-curvature="0" style="fill:#b4b4b4;fill-opacity:1;stroke:#000000;stroke-width:2.25;stroke-linecap:round;stroke-miterlimit:4;stroke-opacity:1;stroke-dasharray:none;stroke-dashoffset:0;display:inline" d="m 31.625,74.25885 c -0.08023,0.8011 -0.125,1.6205 -0.125,2.4687 0,0.4998 0.0028,0.9842 0.03125,1.4688 2.829732,0.2411 5.821284,0.427 8.90625,0.5312 -0.06412,-0.6439 -0.125,-1.3105 -0.125,-2 0,-0.6781 0.0629,-1.3345 0.125,-1.9687 -3.057183,-0.096 -5.999069,-0.2625 -8.8125,-0.5 z m 24.96875,0.2812 c -2.81661,0.1725 -5.780636,0.2517 -8.8125,0.2813 0.05814,0.6148 0.09375,1.2507 0.09375,1.9062 0,0.7121 -0.02549,1.3994 -0.09375,2.0625 3.041591,-0.036 6.018107,-0.138 8.84375,-0.3125 0.04029,-0.5757 0.0625,-1.152 0.0625,-1.75 0,-0.7502 -0.03086,-1.4732 -0.09375,-2.1875 z" id="path3829-1-5-74-4-9-0-7-87-0-5-6-2-2"/>
    <path style="fill:none;stroke:#000000;stroke-width:1.16999996;stroke-linecap:butt;stroke-linejoin:miter;stroke-miterlimit:4;stroke-opacity:1;stroke-dasharray:none;display:inline" d="m 37.8,76.72755 12.6,0" id="path4110-3-1" inkscape:connector-curvature="0"/>
  </g>
</svg>
