<?xml version="1.0" encoding="UTF-8" standalone="no"?>
<!--?xml version="1.0" encoding="UTF-8" standalone="no"?-->

<!-- Created with Inkscape (http://www.inkscape.org/) -->

<svg
   xmlns:dc="http://purl.org/dc/elements/1.1/"
   xmlns:cc="http://creativecommons.org/ns#"
   xmlns:rdf="http://www.w3.org/1999/02/22-rdf-syntax-ns#"
   xmlns:svg="http://www.w3.org/2000/svg"
   xmlns="http://www.w3.org/2000/svg"
   xmlns:sodipodi="http://sodipodi.sourceforge.net/DTD/sodipodi-0.dtd"
   xmlns:inkscape="http://www.inkscape.org/namespaces/inkscape"
   width="100%"
   height="100%"
   viewBox="0 0 90 90"
   id="svg2"
   version="1.1"
   inkscape:version="0.92.3 (2405546, 2018-03-11)"
   sodipodi:docname="buckler-right.svg"
   class="buckler-right"
   data-z="1200"
   data-slots="right-weapon"
   data-tags="weapon+fantasy+right-hand">
  <defs
     id="defs4" />
  <sodipodi:namedview
     id="base"
     pagecolor="#ffffff"
     bordercolor="#666666"
     borderopacity="1.0"
     inkscape:pageopacity="0.0"
     inkscape:pageshadow="2"
     inkscape:zoom="11.288826"
     inkscape:cx="82.606143"
     inkscape:cy="21.126768"
     inkscape:document-units="in"
     inkscape:current-layer="layer2"
     showgrid="false"
     units="in"
     inkscape:window-width="3773"
     inkscape:window-height="2105"
     inkscape:window-x="67"
     inkscape:window-y="27"
     inkscape:window-maximized="1">
    <inkscape:grid
       type="xygrid"
       id="grid2994"
       empspacing="5"
       visible="true"
       enabled="true"
       snapvisiblegridlinesonly="true"
       units="in"
       spacingx="1.344"
       spacingy="1.344"
       originx="0"
       originy="0" />
  </sodipodi:namedview>
  <metadata
     id="metadata7">
    <rdf:rdf>
      <cc:work
         rdf:about="">
        <dc:format>image/svg+xml</dc:format>
        <dc:type
           rdf:resource="http://purl.org/dc/dcmitype/StillImage" />
        <dc:title />
      </cc:work>
    </rdf:rdf>
    <rdf:RDF>
      <cc:Work
         rdf:about="">
        <dc:format>image/svg+xml</dc:format>
        <dc:type
           rdf:resource="http://purl.org/dc/dcmitype/StillImage" />
      </cc:Work>
    </rdf:RDF>
  </metadata>
  <g
     inkscape:label="Body"
     inkscape:groupmode="layer"
     id="layer1"
     class="body"
     transform="translate(0,-962.35975)"
     style="display:inline">
    <path
       sodipodi:type="arc"
       style="fill:#ffffff;fill-opacity:1;stroke:#000000;stroke-width:2.25;stroke-miterlimit:4;stroke-opacity:1;stroke-dasharray:none"
       id="path4963-3-8"
       sodipodi:cx="382.5"
       sodipodi:cy="-67.5"
       sodipodi:rx="13.5"
       sodipodi:ry="13.5"
       d="M 396,-67.5 A 13.5,13.5 0 0 1 382.5,-54 13.5,13.5 0 0 1 369,-67.5 13.5,13.5 0 0 1 382.5,-81 13.5,13.5 0 0 1 396,-67.5 Z"
       transform="translate(-312.75,1090.6098)" />
  </g>
  <g
     inkscape:groupmode="layer"
     id="layer2"
     inkscape:label="blazon"
     class="blazon">
    <path
       style="display:inline;fill:#000000;fill-opacity:1;stroke:none;stroke-width:1.11368966"
       d="m 66.756959,47.733802 c 1.754061,3.508123 1.976799,5.471892 0.661253,8.596237 -0.894226,0.47187 -1.616398,1.193986 -2.088168,2.088168 -3.124423,1.315601 -5.088169,1.092863 -8.596292,-0.661198 v 5.986082 c 3.508123,-1.754061 5.471869,-1.976799 8.596292,-0.661198 0.47177,0.894182 1.193942,1.616298 2.088168,2.088168 1.315546,3.124345 1.092808,5.088114 -0.661253,8.596237 h 5.986082 c -1.754061,-3.508123 -1.976799,-5.471892 -0.661253,-8.596237 0.894226,-0.47187 1.616398,-1.193986 2.088168,-2.088168 3.124423,-1.315601 5.088169,-1.092863 8.596292,0.661198 v -5.986082 c -3.508123,1.754061 -5.471869,1.976799 -8.596292,0.661198 -0.47177,-0.894182 -1.193942,-1.616298 -2.088168,-2.088168 -1.315546,-3.124345 -1.092808,-5.088114 0.661253,-8.596237 z"
       id="path4967-3-7"
       inkscape:connector-curvature="0" />
  </g>
</svg>
