<?xml version="1.0" encoding="UTF-8" standalone="no"?>
<!--?xml version="1.0" encoding="UTF-8" standalone="no"?-->

<!-- Created with Inkscape (http://www.inkscape.org/) -->

<svg
   xmlns:dc="http://purl.org/dc/elements/1.1/"
   xmlns:cc="http://creativecommons.org/ns#"
   xmlns:rdf="http://www.w3.org/1999/02/22-rdf-syntax-ns#"
   xmlns:svg="http://www.w3.org/2000/svg"
   xmlns="http://www.w3.org/2000/svg"
   xmlns:sodipodi="http://sodipodi.sourceforge.net/DTD/sodipodi-0.dtd"
   xmlns:inkscape="http://www.inkscape.org/namespaces/inkscape"
   width="90"
   height="90"
   id="svg2"
   version="1.1"
   viewBox="0 0 90 90"
   class="circuit-body"
   inkscape:version="0.92.3 (2405546, 2018-03-11)"
   sodipodi:docname="circuit-body.svg"
   data-z="100"
   data-slots="body"
   data-tags="body+modern">
  <defs
     id="defs4" />
  <sodipodi:namedview
     id="base"
     pagecolor="#ffffff"
     bordercolor="#666666"
     borderopacity="1.0"
     inkscape:pageopacity="0.0"
     inkscape:pageshadow="2"
     inkscape:zoom="19.481764"
     inkscape:cx="24.563975"
     inkscape:cy="45.065966"
     inkscape:document-units="in"
     inkscape:current-layer="layer2"
     showgrid="true"
     units="in"
     inkscape:window-width="3773"
     inkscape:window-height="2105"
     inkscape:window-x="67"
     inkscape:window-y="27"
     inkscape:window-maximized="1">
    <inkscape:grid
       type="xygrid"
       id="grid2994"
       empspacing="5"
       visible="true"
       enabled="true"
       snapvisiblegridlinesonly="true"
       units="in"
       spacingx="1.26"
       spacingy="1.26"
       originx="0"
       originy="0" />
  </sodipodi:namedview>
  <metadata
     id="metadata7">
    <rdf:rdf>
      <cc:work
         rdf:about="">
        <dc:format>image/svg+xml</dc:format>
        <dc:type
           rdf:resource="http://purl.org/dc/dcmitype/StillImage" />
        <dc:title />
      </cc:work>
    </rdf:rdf>
    <rdf:RDF>
      <cc:Work
         rdf:about="">
        <dc:format>image/svg+xml</dc:format>
        <dc:type
           rdf:resource="http://purl.org/dc/dcmitype/StillImage" />
      </cc:Work>
    </rdf:RDF>
  </metadata>
  <g
     inkscape:label="Primary"
     inkscape:groupmode="layer"
     id="layer1"
     class="body"
     transform="translate(0,-962.35975)"
     style="display:inline"
     sodipodi:insensitive="true">
    <circle
       transform="translate(0,962.35975)"
       style="color:#000000;fill:#ffffff;fill-opacity:1;fill-rule:nonzero;stroke:#000000;stroke-width:2.25;stroke-linecap:butt;stroke-linejoin:miter;stroke-miterlimit:4;stroke-opacity:1;stroke-dasharray:none;stroke-dashoffset:0;marker:none;visibility:visible;display:inline;overflow:visible;enable-background:accumulate"
       cx="45"
       cy="45"
       r="36"
       id="circle2990-1"
       sodipodi:cx="45"
       sodipodi:cy="45"
       sodipodi:rx="36"
       sodipodi:ry="36" />
  </g>
  <g
     inkscape:groupmode="layer"
     id="layer2"
     class="circuits"
     inkscape:label="Secondary"
     style="display:inline">
    <path
       style="fill:#000000"
       d=""
       id="path4374"
       inkscape:connector-curvature="0" />
    <path
       style="fill:#000000"
       d=""
       id="path4372"
       inkscape:connector-curvature="0" />
    <path
       style="display:inline;fill:#808080;fill-opacity:1;stroke-width:1.04193628"
       d="M 37.055236,11.493723 10.681223,37.281646 c -0.493186,2.219421 -0.7934408,4.51336 -0.8465733,6.870268 L 38.61814,16.084755 l 3.028128,-0.130242 3.028127,-0.130242 4.135185,4.102624 4.167745,4.070064 1.562904,-1.530344 1.562905,-1.530344 -4.818956,-4.721274 -4.818955,-4.721274 h -4.721274 z m 26.504254,3.581656 c -0.08672,2.071047 1.175684,5.291637 3.321172,5.926013 1.383068,0.349953 2.589772,0.284643 3.679338,-0.195363 -2.072173,-2.192247 -4.425618,-4.129296 -7.00051,-5.73065 z m -5.502726,6.512102 c -0.866778,0.01898 -1.750569,0.253001 -2.57228,0.748892 -4.609297,2.781636 -2.475474,8.791337 3.125809,8.791337 1.380107,0 2.008551,0.27379 3.22349,1.497784 1.483749,1.494782 1.5936,1.530344 5.112,1.530344 H 70.56 l 5.600408,-5.502727 c -0.699412,-1.335269 -1.485263,-2.615218 -2.344357,-3.84214 -4.618318,4.485449 -5.322179,4.981758 -6.870268,4.981758 -2.260324,0 -3.114597,-0.818545 -3.451414,-3.418853 -0.377606,-2.915286 -2.83727,-4.843342 -5.437605,-4.786395 z m 0.488408,2.311796 c 0.125446,-0.0035 0.21596,0.02404 0.325605,0.06512 0.977868,0.366407 1.442603,2.211937 0.748892,3.028127 -1.045844,1.230506 -3.125809,0.464652 -3.125809,-1.139617 0,-0.897983 1.173188,-1.928755 2.051312,-1.953631 z m -24.159898,2.409478 -24.192459,23.67149 c 0.244499,1.722145 0.590665,3.382564 1.074497,5.014319 23.262376,-22.690553 25.106338,-24.322701 26.667057,-24.322701 1.382431,0 2.072526,0.334837 3.581656,1.693147 1.485447,1.337012 1.79981,1.858241 1.465223,2.442038 -0.667058,1.163916 0.0172,3.460114 1.400102,4.753834 4.239181,3.965787 10.950772,-0.40523 8.30293,-5.405044 -1.353944,-2.55662 -4.86331,-3.327195 -7.749401,-1.693147 l -1.628025,0.911694 1.432662,-1.30242 1.400102,-1.30242 -2.311796,-2.214115 -2.311797,-2.246675 h -3.581656 z m 13.642853,7.521477 c 0.258625,-0.05407 0.492888,0.01877 0.781453,0.195364 1.077362,0.659316 1.221503,2.37452 0.260484,3.060687 -1.025005,0.731846 -1.296377,0.702307 -2.148994,-0.130242 -0.942848,-0.920655 -0.87282,-1.63213 0.227924,-2.60484 0.351184,-0.310336 0.620509,-0.466901 0.879133,-0.520969 z m 30.151032,7.716841 c -0.666444,0.04921 -1.354285,0.23048 -2.018751,0.520968 -2.017731,0.882104 -3.421532,3.207893 -2.897886,4.818956 0.212284,0.653075 -0.138942,1.311131 -1.334981,2.507159 l -1.628025,1.628026 1.107057,0.488407 c 0.600447,0.267132 1.206927,0.873372 1.367542,1.367542 0.393716,1.211271 0.718644,1.149662 2.376917,-0.520969 1.208552,-1.217554 1.696949,-1.431672 3.418853,-1.400101 0.41054,0.0075 0.76084,0.04529 1.074497,0.09768 0.264324,-1.521085 0.425594,-3.07407 0.488408,-4.656153 -0.01431,0.03148 -0.01614,0.06708 -0.03256,0.09768 -0.539202,1.004781 -2.469139,0.954778 -3.028127,-0.06512 -0.564782,-1.030465 0.539139,-2.669962 1.790828,-2.669962 0.59547,0 1.080489,0.528742 1.30242,1.172178 -9.67e-4,-1.07197 -0.06835,-2.143697 -0.162802,-3.19093 -0.378218,-0.104652 -0.768834,-0.173978 -1.172179,-0.195363 -0.218957,-0.01161 -0.429062,-0.0164 -0.65121,0 z m -39.984305,0.03256 c -1.018973,0 -2.447113,0.308184 -3.19093,0.68377 -1.493179,0.753977 -2.828337,3.269826 -2.409478,4.558472 0.206543,0.635445 -2.315297,3.348773 -11.558981,12.307872 L 15.63042,64.33943 c 0.855203,1.294509 1.785844,2.545236 2.800204,3.711898 l 6.479542,-6.316739 c 9.414738,-9.182835 11.428436,-10.955575 12.242751,-10.744968 1.491167,0.385652 4.042859,-0.609356 5.046879,-1.986191 1.426098,-1.955621 1.194903,-4.187709 -0.61865,-5.958573 -1.238591,-1.209428 -1.87461,-1.465223 -3.386292,-1.465224 z m -0.03256,2.246675 c 0.559576,-0.04125 1.062619,0.249101 1.30242,0.879134 0.211816,0.556362 0.282209,1.256523 0.162803,1.562904 -0.119406,0.306371 -0.585339,0.770762 -1.041936,1.009376 -0.639197,0.334034 -1.037665,0.215212 -1.758268,-0.488408 -0.841791,-0.821983 -0.870475,-1.002415 -0.293044,-1.855949 0.461187,-0.681718 1.068449,-1.065803 1.628025,-1.107057 z m 9.60535,7.521478 c -2.545171,0.09311 -4.786468,2.067815 -4.916637,4.688713 -0.086,1.731573 -0.493575,2.187754 -11.852025,13.284688 l -5.209682,5.112 c 1.255027,0.819446 2.547473,1.55765 3.907262,2.214115 L 34.776,71.698105 C 45.063516,61.658559 46.226317,60.66253 47.279236,60.920576 c 2.619886,0.642062 6.088815,-2.056355 6.088815,-4.753834 0,-1.816251 -1.731271,-3.888715 -3.80958,-4.558471 C 48.962342,51.416163 48.35499,51.3263 47.767643,51.347787 Z m 20.578242,0 c -1.333169,-0.0085 -2.681855,0.504552 -3.84214,1.562904 -2.461158,2.244946 -1.435705,6.216473 1.986191,7.68428 2.409051,1.033351 5.529223,-0.13045 6.805147,-2.539719 0.880321,-1.662295 0.463328,-3.482422 -1.172179,-5.07944 -1.098669,-1.072798 -2.44385,-1.619498 -3.777019,-1.628025 z m -20.610802,2.507159 c 0.176361,-0.01872 0.381201,-0.02669 0.618649,0 1.074383,0.120781 1.204739,0.321271 1.204739,1.660586 0,1.316611 -0.143516,1.547515 -1.139617,1.660586 -1.632913,0.185339 -2.49375,-0.907704 -1.823389,-2.344357 0.300234,-0.643424 0.610535,-0.920651 1.139618,-0.976815 z m 20.513121,0 c 0.344032,-0.0686 0.716614,-0.0247 1.074497,0.195363 0.991923,0.60997 1.247593,1.755663 0.553528,2.57228 v 0.03256 c -0.693585,0.81568 -2.610363,0.814481 -2.930446,0 -0.502371,-1.278347 0.270327,-2.594408 1.302421,-2.800204 z m -9.963516,7.391236 c -2.753407,-0.0507 -5.372484,2.065499 -5.372484,5.307363 0,1.249583 -1.255023,2.648831 -11.819465,12.959082 l -0.358166,0.358166 c 1.394581,0.167536 2.82503,0.260484 4.265427,0.260484 0.586083,0 1.179292,-0.0044 1.758268,-0.03256 8.77412,-8.557466 9.686766,-9.312306 11.200815,-9.312306 4.974433,0 7.350631,-4.819049 3.939821,-8.009886 -1.084609,-1.014666 -2.362667,-1.507295 -3.614216,-1.530343 z m 0.260484,2.344356 c 0.125446,-0.0035 0.21596,-0.0085 0.325605,0.03256 0.977868,0.366407 1.442603,2.211947 0.748892,3.028127 -1.045844,1.230516 -3.125809,0.497212 -3.125809,-1.107057 0,-0.898 1.173188,-1.928757 2.051312,-1.953631 z m 9.377427,7.716841 c -2.28532,0.14687 -4.120832,1.6432 -4.591032,3.679338 1.765221,-1.079641 3.440606,-2.314859 4.981758,-3.679338 -0.129454,9.65e-4 -0.264329,-0.0081 -0.390726,0 z"
       id="path4376-1"
       inkscape:connector-curvature="0" />
  </g>
</svg>
