<!--?xml version="1.0" encoding="UTF-8" standalone="no"?--><!--?xml version="1.0" encoding="UTF-8" standalone="no"?--><!-- Created with Inkscape (http://www.inkscape.org/) --><svg xmlns:dc="http://purl.org/dc/elements/1.1/" xmlns:cc="http://creativecommons.org/ns#" xmlns:rdf="http://www.w3.org/1999/02/22-rdf-syntax-ns#" xmlns:svg="http://www.w3.org/2000/svg" xmlns="http://www.w3.org/2000/svg" xmlns:sodipodi="http://sodipodi.sourceforge.net/DTD/sodipodi-0.dtd" xmlns:inkscape="http://www.inkscape.org/namespaces/inkscape" xlink="http://www.w3.org/1999/xlink" width="100%" height="100%" viewBox="0 0 90 90" id="svg2" version="1.1" inkscape:version="0.92.3 (2405546, 2018-03-11)" sodipodi:docname="clothing-dress-frills.svg" class="tutu" data-z="500" data-slots="clothing" data-tags="clothing">
  <defs id="defs4">
    <inkscape:path-effect effect="sketch" id="path-effect5121-4" is_visible="true" nbiter_approxstrokes="3" strokelength="1" strokelength_rdm="0;1" strokeoverlap="0.1" strokeoverlap_rdm="0;1" ends_tolerance="0.9;1" parallel_offset="0.9;1" tremble_size="1.5;1" tremble_frequency="0.01" nbtangents="0" tgt_places_rdmness="1;1" tgtscale="10.5" tgtlength="100" tgtlength_rdm="0.1;1"/>
    <inkscape:path-effect effect="sketch" id="path-effect5121-7" is_visible="true" nbiter_approxstrokes="3" strokelength="1" strokelength_rdm="0;1" strokeoverlap="0.1" strokeoverlap_rdm="0;1" ends_tolerance="0.9;1" parallel_offset="0.9;1" tremble_size="1.5;1" tremble_frequency="0.01" nbtangents="0" tgt_places_rdmness="1;1" tgtscale="10.5" tgtlength="100" tgtlength_rdm="0.1;1"/>
    <inkscape:path-effect effect="sketch" id="path-effect5257" is_visible="true" nbiter_approxstrokes="2" strokelength="1" strokelength_rdm="0.1;1" strokeoverlap="0" strokeoverlap_rdm="0;1" ends_tolerance="0;1" parallel_offset="0.8;1" tremble_size="0.7;1" tremble_frequency="1" nbtangents="0" tgt_places_rdmness="1;1" tgtscale="10" tgtlength="100" tgtlength_rdm="0.3;1"/>
    <linearGradient inkscape:collect="always" href="#linearGradient5728-3" id="linearGradient5483" gradientUnits="userSpaceOnUse" x1="945" y1="310.2579" x2="945" y2="388.79999" gradientTransform="translate(-1170,962.35973)"/>
    <linearGradient id="linearGradient5728-3">
      <stop style="stop-color:#000000;stop-opacity:1;" offset="0" id="stop5730-7"/>
      <stop style="stop-color:#000000;stop-opacity:0;" offset="1" id="stop5732-3"/>
    </linearGradient>
    <inkscape:path-effect effect="sketch" id="path-effect6957" is_visible="true" nbiter_approxstrokes="1" strokelength="2" strokelength_rdm="0.2;1" strokeoverlap="0" strokeoverlap_rdm="0;1" ends_tolerance="0;1" parallel_offset="0.1;1" tremble_size="0.6;1" tremble_frequency="2.51" nbtangents="0" tgt_places_rdmness="1;1" tgtscale="10" tgtlength="100" tgtlength_rdm="0.3;1"/>
  </defs>
  <sodipodi:namedview id="base" pagecolor="#ffffff" bordercolor="#666666" borderopacity="1.0" inkscape:pageopacity="0.0" inkscape:pageshadow="2" inkscape:zoom="22.577651" inkscape:cx="47.508576" inkscape:cy="32.297831" inkscape:document-units="in" inkscape:current-layer="layer2" showgrid="false" units="in" inkscape:window-width="3773" inkscape:window-height="2105" inkscape:window-x="67" inkscape:window-y="27" inkscape:window-maximized="1">
    <inkscape:grid type="xygrid" id="grid2994" empspacing="5" visible="true" enabled="true" snapvisiblegridlinesonly="true" units="in" spacingx="1.344" spacingy="1.344" originx="0" originy="0"/>
  </sodipodi:namedview>
  <metadata id="metadata7">
    <rdf:rdf>
      <cc:work rdf:about="">
        <dc:format>image/svg+xml</dc:format>
        <dc:type rdf:resource="http://purl.org/dc/dcmitype/StillImage"/>
        <dc:title/>
      </cc:work>
    </rdf:rdf>
    <rdf:rdf>
      <cc:work rdf:about="">
        <dc:format>image/svg+xml</dc:format>
        <dc:type rdf:resource="http://purl.org/dc/dcmitype/StillImage"/>
        <dc:title/>
      </cc:work>
    </rdf:rdf>
  </metadata>
  <g inkscape:label="Body" inkscape:groupmode="layer" id="layer1" class="body" transform="translate(0,-962.35975)" style="display:inline">
    <path inkscape:connector-curvature="0" style="fill:#ffffff;fill-opacity:1;stroke:#000000;stroke-width:2.25;stroke-linecap:butt;stroke-linejoin:miter;stroke-miterlimit:4;stroke-opacity:1;stroke-dasharray:none" d="m 14.28125,1028.5785 c -9.09599,-0.3942 -10.6875,20.1876 -10.6875,20.1876 0,0 10.80625,1.8064 14.40625,-3.5937 3.6,5.4001 10.8,5.3813 18,1.7812 3.6,3.6001 12.6,3.6001 18,0 7.2,3.6001 15.99247,1.2302 18,-1.7812 3.6,5.4001 14.40625,3.5937 14.40625,3.5937 0,0 -1.79375,-23.4127 -12.59375,-19.8126 l -0.0312,0 -0.0312,0.031 c -0.0365,-2e-4 -0.0593,10e-4 -0.0937,0 L 45,1034.3596 l -28.65625,-5.375 c -0.0348,9e-4 -0.0569,-3e-4 -0.0937,0 l -0.0312,-0.031 -0.0312,0 c -0.675,-0.2251 -1.29985,-0.3488 -1.90625,-0.375 z" id="path5370-2-6"/>
  </g>
  <g inkscape:groupmode="layer" id="layer2" inkscape:label="shirt" class="shirt">
    <path style="display:inline;fill:#b4b4b4;fill-opacity:1;stroke:#000000;stroke-width:2.25;stroke-linecap:butt;stroke-linejoin:miter;stroke-miterlimit:4;stroke-dasharray:none;stroke-opacity:1" d="m 9.3125,49.71875 c 0.0851,0.649 0.1933,1.2999 0.3125,1.9375 0.049706,0.264721 0.1100509,0.525417 0.1679688,0.787109 -0.906234,14.151502 -6.7812501,23.16211 -6.78125,23.16211 0,0 1.8159934,4.075479 6.8652343,4.164062 5.0492409,0.08858 3.8986469,-1.461568 7.6191409,-1.505859 3.720493,-0.04429 3.320966,3.896359 7.484375,4.162109 4.163409,0.265749 5.535622,-1.99288 10.097656,-1.904297 4.562033,0.08858 4.518799,3.099672 8.859375,2.966797 4.340575,-0.132875 3.985791,-3.143084 9.300781,-3.453125 5.31499,-0.310041 5.404445,1.72587 9.257813,1.814453 3.853368,0.08858 4.471986,-3.275896 8.679687,-3.585937 4.2077,-0.310042 10.720104,5.270002 16.167969,-1.285156 -4.251992,-4.473448 -7.263672,-23.917969 -7.263672,-23.917969 0.08804,-0.431345 0.206129,-0.979027 0.294922,-1.404297 0.0176,-0.094 0.0457,-0.18735 0.0625,-0.28125 0.097,-0.5434 0.17767,-1.10475 0.25,-1.65625 -2.46563,4.5609 -8.97359,7.2327 -17.5625,8.5625 -9.12485,1.1193 -27.00857,0.9254 -36.03125,0 -8.52445,-1.3314 -15.31562,-4.0016 -17.78125,-8.5625 z" id="path5515" inkscape:connector-curvature="0" sodipodi:nodetypes="ccccsssssssscccccccc"/>
  </g>
</svg>
