<!--?xml version="1.0" encoding="UTF-8" standalone="no"?--><!--?xml version="1.0" encoding="UTF-8" standalone="no"?--><!--?xml version="1.0" encoding="UTF-8" standalone="no"?--><svg xmlns:dc="http://purl.org/dc/elements/1.1/" xmlns:cc="http://creativecommons.org/ns#" xmlns:rdf="http://www.w3.org/1999/02/22-rdf-syntax-ns#" xmlns:svg="http://www.w3.org/2000/svg" xmlns="http://www.w3.org/2000/svg" xlink="http://www.w3.org/1999/xlink" xmlns:sodipodi="http://sodipodi.sourceforge.net/DTD/sodipodi-0.dtd" xmlns:inkscape="http://www.inkscape.org/namespaces/inkscape" viewBox="0 0 90 90" class="buttoned-shirt-2" id="svg2" version="1.1" inkscape:version="0.92.3 (2405546, 2018-03-11)" width="100%" height="100%" sodipodi:docname="cyberpunk-jackey.svg" data-z="500" data-slots="clothing" data-tags="clothing">
  <defs id="defs16">
    <linearGradient inkscape:collect="always" id="linearGradient996">
      <stop style="stop-color:#ffffff;stop-opacity:1" offset="0" id="stop992"/>
      <stop style="stop-color:#0f0000;stop-opacity:1" offset="1" id="stop994"/>
    </linearGradient>
    <radialGradient inkscape:collect="always" href="#linearGradient996" id="radialGradient1031" gradientUnits="userSpaceOnUse" gradientTransform="matrix(1,0,0,1.1812297,0,-11.759625)" cx="53.965584" cy="64.88797" fx="53.965584" fy="64.88797" r="11.043383"/>
    <mask maskUnits="userSpaceOnUse" id="mask1027">
      <ellipse style="display:inline;opacity:1;vector-effect:none;fill:url(#radialGradient1031);fill-opacity:1;stroke:none;stroke-width:2.38561654;stroke-linecap:butt;stroke-linejoin:bevel;stroke-miterlimit:4;stroke-dasharray:none;stroke-dashoffset:0;stroke-opacity:1;marker:none" id="ellipse1029" cx="53.965584" cy="64.88797" rx="11.043383" ry="13.044771"/>
    </mask>
    <mask maskUnits="userSpaceOnUse" id="mask1027-3">
      <ellipse style="display:inline;opacity:1;vector-effect:none;fill:url(#radialGradient1031-6);fill-opacity:1;stroke:none;stroke-width:2.38561654;stroke-linecap:butt;stroke-linejoin:bevel;stroke-miterlimit:4;stroke-dasharray:none;stroke-dashoffset:0;stroke-opacity:1;marker:none" id="ellipse1029-5" cx="53.965584" cy="64.88797" rx="11.043383" ry="13.044771"/>
    </mask>
    <radialGradient inkscape:collect="always" href="#linearGradient996" id="radialGradient1031-6" gradientUnits="userSpaceOnUse" gradientTransform="matrix(1,0,0,1.1812297,0,-11.759625)" cx="53.965584" cy="64.88797" fx="53.965584" fy="64.88797" r="11.043383"/>
    <mask maskUnits="userSpaceOnUse" id="mask1027-3-2">
      <ellipse style="display:inline;opacity:1;vector-effect:none;fill:url(#radialGradient1031-6-0);fill-opacity:1;stroke:none;stroke-width:2.38561654;stroke-linecap:butt;stroke-linejoin:bevel;stroke-miterlimit:4;stroke-dasharray:none;stroke-dashoffset:0;stroke-opacity:1;marker:none" id="ellipse1029-5-7" cx="53.965584" cy="64.88797" rx="11.043383" ry="13.044771"/>
    </mask>
    <radialGradient inkscape:collect="always" href="#linearGradient996" id="radialGradient1031-6-0" gradientUnits="userSpaceOnUse" gradientTransform="matrix(1,0,0,1.1812297,0,-11.759625)" cx="53.965584" cy="64.88797" fx="53.965584" fy="64.88797" r="11.043383"/>
    <mask maskUnits="userSpaceOnUse" id="mask1027-3-0">
      <ellipse style="display:inline;opacity:1;vector-effect:none;fill:url(#radialGradient1031-6-2);fill-opacity:1;stroke:none;stroke-width:2.38561654;stroke-linecap:butt;stroke-linejoin:bevel;stroke-miterlimit:4;stroke-dasharray:none;stroke-dashoffset:0;stroke-opacity:1;marker:none" id="ellipse1029-5-6" cx="53.965584" cy="64.88797" rx="11.043383" ry="13.044771"/>
    </mask>
    <radialGradient inkscape:collect="always" href="#linearGradient996" id="radialGradient1031-6-2" gradientUnits="userSpaceOnUse" gradientTransform="matrix(1,0,0,1.1812297,0,-11.759625)" cx="53.965584" cy="64.88797" fx="53.965584" fy="64.88797" r="11.043383"/>
  </defs>
  <sodipodi:namedview pagecolor="#ffffff" bordercolor="#666666" borderopacity="1" objecttolerance="10" gridtolerance="10" guidetolerance="10" inkscape:pageopacity="0" inkscape:pageshadow="2" inkscape:window-width="2493" inkscape:window-height="1385" id="namedview14" showgrid="false" inkscape:zoom="14.833529" inkscape:cx="23.898157" inkscape:cy="28.97361" inkscape:window-x="67" inkscape:window-y="54" inkscape:window-maximized="1" inkscape:current-layer="layer2"/>
  <metadata title="Basic Body" contributor="Douglas Richardson" id="metadata4">
    <layers id="layers6">
      <layer name="Primary" data-layer="layer1" id="layer8"/>
    </layers>
    <rdf:rdf>
      <cc:work rdf:about="">
        <dc:format>image/svg+xml</dc:format>
        <dc:type rdf:resource="http://purl.org/dc/dcmitype/StillImage"/>
        <dc:title/>
      </cc:work>
    </rdf:rdf>
    <rdf:rdf>
      <cc:work rdf:about="">
        <dc:format>image/svg+xml</dc:format>
        <dc:type rdf:resource="http://purl.org/dc/dcmitype/StillImage"/>
      </cc:work>
    </rdf:rdf>
    <rdf:rdf>
      <cc:work rdf:about="">
        <dc:format>image/svg+xml</dc:format>
        <dc:type rdf:resource="http://purl.org/dc/dcmitype/StillImage"/>
        <dc:title/>
      </cc:work>
    </rdf:rdf>
  </metadata>
  <g inkscape:groupmode="layer" id="layer4" inkscape:label="shirt 2" class="shirt-other" sodipodi:insensitive="true" style="display:inline">
    <path style="display:inline;fill:#4b4b4b;fill-opacity:1;stroke:#000000;stroke-width:2.25;stroke-linecap:butt;stroke-linejoin:miter;stroke-miterlimit:4;stroke-dasharray:none;stroke-opacity:1" d="m 80.71875,49.5625 c -6.877386,2.580202 -19.348986,4.335677 -33.726562,4.421875 L 46.583984,62.832031 41.660156,80.84375 C 42.75945,80.946322 43.873471,81 45,81 c 4.970563,0 9.693019,-1.022051 14,-2.84375 0.538373,-0.227712 1.069139,-0.465966 1.59375,-0.71875 0.491036,-0.236605 0.99041,-0.460819 1.46875,-0.71875 0.0332,-0.01789 0.06061,-0.0445 0.09375,-0.0625 0.510096,-0.277101 1.005174,-0.574336 1.5,-0.875 0.494826,-0.300664 0.989947,-0.614027 1.46875,-0.9375 0.478803,-0.323473 0.944224,-0.654472 1.40625,-1 0.462925,-0.346689 0.929681,-0.694405 1.375,-1.0625 0.05142,-0.04244 0.105068,-0.08228 0.15625,-0.125 0.07852,-0.06563 0.140802,-0.152462 0.21875,-0.21875 0.53632,-0.456094 1.085165,-0.919948 1.59375,-1.40625 0.582501,-0.55698 1.143316,-1.124091 1.6875,-1.71875 0.418988,-0.457851 0.82356,-0.927154 1.21875,-1.40625 0.117452,-0.142319 0.228456,-0.293358 0.34375,-0.4375 0.286234,-0.35808 0.571074,-0.724706 0.84375,-1.09375 0.303301,-0.410286 0.588977,-0.826631 0.875,-1.25 0.323473,-0.478803 0.636836,-0.973924 0.9375,-1.46875 0.300664,-0.494826 0.597899,-0.989904 0.875,-1.5 0.277101,-0.510096 0.528466,-1.037889 0.78125,-1.5625 0.422699,-0.877243 0.804363,-1.772486 1.15625,-2.6875 0.111964,-0.29112 0.239184,-0.580306 0.34375,-0.875 0.02219,-0.0626 0.04065,-0.124744 0.0625,-0.1875 0.191484,-0.549239 0.365981,-1.095308 0.53125,-1.65625 0.100485,-0.341469 0.221949,-0.685644 0.3125,-1.03125 0.164541,-0.628045 0.306523,-1.265386 0.4375,-1.90625 0.0126,-0.06158 0.01896,-0.125807 0.03125,-0.1875 0.140772,-0.707952 0.245164,-1.4341 0.34375,-2.15625 0.0159,-0.116395 0.04772,-0.227003 0.0625,-0.34375 z" id="path1110" inkscape:connector-curvature="0"/>
  </g>
  <g inkscape:groupmode="layer" id="layer1" inkscape:label="shirt" class="shirt" style="display:inline" sodipodi:insensitive="true">
    <path style="display:inline;fill:#ffffff;fill-opacity:1;stroke:#000000;stroke-width:2.25;stroke-linecap:round;stroke-miterlimit:4;stroke-dasharray:none;stroke-dashoffset:0;stroke-opacity:1" d="m 9.1875,48.78125 c 0.017477,0.167721 0.042725,0.332978 0.0625,0.5 0.081881,0.691592 0.1919332,1.383592 0.3125,2.0625 0.1496841,0.842867 0.3239197,1.678639 0.53125,2.5 0.166637,0.659739 0.360003,1.324076 0.5625,1.96875 0.13687,0.435742 0.284681,0.852823 0.4375,1.28125 0.06027,0.168963 0.124789,0.332213 0.1875,0.5 0.177545,0.475031 0.365704,0.940973 0.5625,1.40625 0.227712,0.538373 0.465966,1.069139 0.71875,1.59375 0.226494,0.470052 0.441452,0.94782 0.6875,1.40625 0.04635,0.08635 0.109223,0.164076 0.15625,0.25 0.260602,0.476155 0.531309,0.943472 0.8125,1.40625 0.300664,0.494826 0.614027,0.989947 0.9375,1.46875 0.173778,0.256974 0.351056,0.497818 0.53125,0.75 0.225469,0.316007 0.452185,0.629204 0.6875,0.9375 0.145017,0.189567 0.288821,0.375927 0.4375,0.5625 0.452763,0.568158 0.920537,1.148104 1.40625,1.6875 0.04454,0.04956 0.08019,0.106943 0.125,0.15625 1.060641,1.164866 2.202358,2.232467 3.40625,3.25 0.559189,0.472628 1.131104,0.936577 1.71875,1.375 0.07198,0.05383 0.146357,0.102948 0.21875,0.15625 0.01167,0.0086 0.01957,0.02269 0.03125,0.03125 0.508226,0.373249 1.034448,0.715788 1.5625,1.0625 0.281957,0.184757 0.556368,0.385502 0.84375,0.5625 0.563694,0.347909 1.134986,0.682881 1.71875,1 0.0079,0.0043 0.02335,-0.0043 0.03125,0 0.707371,0.383113 1.421351,0.72627 2.15625,1.0625 0.04239,0.0194 0.08252,0.04326 0.125,0.0625 0.736759,0.333616 1.48782,0.652915 2.25,0.9375 2.784814,1.04084 5.730876,1.746362 8.791016,2.072266 l 5.453125,-19.375 1.476562,-7.449219 C 47.383774,53.975913 46.659862,54 45.90625,54 29.62445,54 15.621,51.86025 9.1875,48.78125 Z" id="path3829-1-5-74-4-9-2" inkscape:connector-curvature="0"/>
  </g>
  <g inkscape:groupmode="layer" id="layer3" inkscape:label="collar" class="collar" sodipodi:insensitive="true" style="display:inline">
    <path inkscape:connector-curvature="0" style="display:inline;fill:#b4b4b4;fill-opacity:1;stroke:#000000;stroke-width:2.25;stroke-linecap:butt;stroke-linejoin:miter;stroke-miterlimit:4;stroke-dasharray:none;stroke-opacity:1" d="m 15.761719,50.994141 c 11.610263,5.538506 28.328125,9.208984 28.328125,9.208984 0,0 -0.242657,12.468517 -5.712891,20.177734 1.69992,0.319511 3.442677,0.518571 5.21875,0.587891 C 49.517968,74.560963 53.44677,60.360978 54.390625,53.78125 51.646844,53.913084 48.829358,54 45.90625,54 33.912598,54 23.167687,52.836441 15.761719,50.994141 Z" id="path839"/>
  </g>
  <g inkscape:groupmode="layer" id="layer2" inkscape:label="trim" class="trim" style="display:inline">
    <ellipse style="display:inline;opacity:1;vector-effect:none;fill:#b4b4b4;fill-opacity:1;stroke:none;stroke-width:2.25;stroke-linecap:butt;stroke-linejoin:bevel;stroke-miterlimit:4;stroke-dasharray:none;stroke-dashoffset:0;stroke-opacity:1;marker:none" id="path967-8" cx="53.965584" cy="64.88797" rx="10.415593" ry="12.303208" mask="url(#mask1027-3-0)" transform="matrix(0.99272538,0.12040062,-0.06498334,0.53579972,3.3957489,28.477393)"/>
    <ellipse style="display:inline;opacity:1;vector-effect:none;fill:#b4b4b4;fill-opacity:1;stroke:none;stroke-width:2.25;stroke-linecap:butt;stroke-linejoin:bevel;stroke-miterlimit:4;stroke-dasharray:none;stroke-dashoffset:0;stroke-opacity:1;marker:none" id="path967-6" cx="53.965584" cy="64.88797" rx="10.415593" ry="12.303208" mask="url(#mask1027-3-2)" transform="matrix(0.71400452,0,0,0.57808219,-2.0265301,27.984124)"/>
    <ellipse style="display:inline;opacity:1;vector-effect:none;fill:#b4b4b4;fill-opacity:1;stroke:none;stroke-width:2.25;stroke-linecap:butt;stroke-linejoin:bevel;stroke-miterlimit:4;stroke-dasharray:none;stroke-dashoffset:0;stroke-opacity:1;marker:none" id="path967" cx="53.965584" cy="64.88797" rx="10.415593" ry="12.303208" mask="url(#mask1027-3)" transform="matrix(0.99272538,0.12040062,-0.06498334,0.53579972,5.1485349,19.848293)"/>
    <rect style="display:inline;opacity:1;vector-effect:none;fill:#b4b4b4;fill-opacity:1;stroke:#000000;stroke-width:2.25;stroke-linecap:butt;stroke-linejoin:bevel;stroke-miterlimit:4;stroke-dasharray:none;stroke-dashoffset:0;stroke-opacity:1;marker:none" id="rect841" width="12.067257" height="4.719039" x="59.49826" y="47.276421" transform="rotate(10.634412)"/>
    <rect style="display:inline;opacity:1;vector-effect:none;fill:#b4b4b4;fill-opacity:1;stroke:#000000;stroke-width:2.25;stroke-linecap:butt;stroke-linejoin:bevel;stroke-miterlimit:4;stroke-dasharray:none;stroke-dashoffset:0;stroke-opacity:1;marker:none" id="rect841-3" width="12.067257" height="4.719039" x="64.038994" y="49.64175" transform="rotate(16.002366)"/>
    <circle style="opacity:1;vector-effect:none;fill:#b4b4b4;fill-opacity:1;stroke:#000000;stroke-width:2.25;stroke-linecap:butt;stroke-linejoin:bevel;stroke-miterlimit:4;stroke-dasharray:none;stroke-dashoffset:0;stroke-opacity:1;marker:none" id="path1165" cx="36.235474" cy="65.562111" r="2.5954714"/>
  </g>
</svg>
