<?xml version="1.0" encoding="UTF-8" standalone="no"?>
<!--?xml version="1.0" encoding="UTF-8" standalone="no"?-->

<!--?xml version="1.0" encoding="UTF-8" standalone="no"?-->

<!-- Created with Inkscape (http://www.inkscape.org/) -->

<svg
   xmlns:dc="http://purl.org/dc/elements/1.1/"
   xmlns:cc="http://creativecommons.org/ns#"
   xmlns:rdf="http://www.w3.org/1999/02/22-rdf-syntax-ns#"
   xmlns:svg="http://www.w3.org/2000/svg"
   xmlns="http://www.w3.org/2000/svg"
   xmlns:xlink="http://www.w3.org/1999/xlink"
   xmlns:sodipodi="http://sodipodi.sourceforge.net/DTD/sodipodi-0.dtd"
   xmlns:inkscape="http://www.inkscape.org/namespaces/inkscape"
   width="100%"
   height="100%"
   viewBox="0 0 90 90"
   id="svg2"
   version="1.1"
   inkscape:version="0.92.3 (2405546, 2018-03-11)"
   sodipodi:docname="cyberpunk-glowhelmet-tactical.svg"
   class="glowhelmet"
   data-z="1000"
   data-slots="hat"
   data-tags="new+hat">
  <defs
     id="defs4">
    <linearGradient
       inkscape:collect="always"
       id="linearGradient1014">
      <stop
         style="stop-color:#f6ffff;stop-opacity:1"
         offset="0"
         id="stop1010" />
      <stop
         style="stop-color:#000000;stop-opacity:0.98156685"
         offset="1"
         id="stop1012" />
    </linearGradient>
    <radialGradient
       inkscape:collect="always"
       xlink:href="#linearGradient1014"
       id="radialGradient1024"
       gradientUnits="userSpaceOnUse"
       gradientTransform="matrix(2.2457955,-2.4142903e-8,0,0.56877734,-56.060805,-533.28786)"
       cx="45"
       cy="995.01239"
       fx="45"
       fy="995.01239"
       r="36" />
    <mask
       maskUnits="userSpaceOnUse"
       id="mask1020">
      <path
         inkscape:connector-curvature="0"
         style="display:inline;fill:url(#radialGradient1024);fill-opacity:1;stroke:none;stroke-width:2.20799994;stroke-miterlimit:4;stroke-dasharray:none;stroke-dashoffset:0;stroke-opacity:1"
         d="M 45.015625,13.55469 A 39.163297,39.163297 0 0 0 10.773438,33.9043 36,36 0 0 0 9,44.99995 a 36,36 0 0 0 0.072266,2.0743 c 8.405354,3.7118 19.675578,4.933 36.042968,4.6328 17.387655,-0.3191 27.272308,-0.6652 35.835938,-5.7149 A 36,36 0 0 0 81,44.99995 36,36 0 0 0 79.046875,33.44141 39.163297,39.163297 0 0 0 45.015625,13.55469 Z"
         id="path1022" />
    </mask>
  </defs>
  <sodipodi:namedview
     id="base"
     pagecolor="#ffffff"
     bordercolor="#666666"
     borderopacity="1.0"
     inkscape:pageopacity="0.0"
     inkscape:pageshadow="2"
     inkscape:zoom="15.96481"
     inkscape:cx="38.545543"
     inkscape:cy="58.132737"
     inkscape:document-units="in"
     inkscape:current-layer="layer4"
     showgrid="true"
     units="in"
     inkscape:window-width="2493"
     inkscape:window-height="1385"
     inkscape:window-x="67"
     inkscape:window-y="54"
     inkscape:window-maximized="1" />
  <metadata
     id="metadata7">
    <rdf:rdf>
      <cc:work
         rdf:about="">
        <dc:format>image/svg+xml</dc:format>
        <dc:type
           rdf:resource="http://purl.org/dc/dcmitype/StillImage" />
        <dc:title />
      </cc:work>
    </rdf:rdf>
    <rdf:rdf>
      <cc:work
         rdf:about="">
        <dc:format>image/svg+xml</dc:format>
        <dc:type
           rdf:resource="http://purl.org/dc/dcmitype/StillImage" />
        <dc:title />
      </cc:work>
    </rdf:rdf>
    <rdf:RDF>
      <cc:Work
         rdf:about="">
        <dc:format>image/svg+xml</dc:format>
        <dc:type
           rdf:resource="http://purl.org/dc/dcmitype/StillImage" />
        <dc:title></dc:title>
      </cc:Work>
    </rdf:RDF>
  </metadata>
  <g
     inkscape:groupmode="layer"
     id="layer2"
     class="tubing"
     inkscape:label="Tubing"
     sodipodi:insensitive="true">
    <path
       style="color:#000000;font-style:normal;font-variant:normal;font-weight:normal;font-stretch:normal;font-size:medium;line-height:normal;font-family:sans-serif;font-variant-ligatures:normal;font-variant-position:normal;font-variant-caps:normal;font-variant-numeric:normal;font-variant-alternates:normal;font-feature-settings:normal;text-indent:0;text-align:start;text-decoration:none;text-decoration-line:none;text-decoration-style:solid;text-decoration-color:#000000;letter-spacing:normal;word-spacing:normal;text-transform:none;writing-mode:lr-tb;direction:ltr;text-orientation:mixed;dominant-baseline:auto;baseline-shift:baseline;text-anchor:start;white-space:normal;shape-padding:0;clip-rule:nonzero;display:inline;overflow:visible;visibility:visible;opacity:1;isolation:auto;mix-blend-mode:normal;color-interpolation:sRGB;color-interpolation-filters:linearRGB;solid-color:#000000;solid-opacity:1;vector-effect:none;fill:#b4b4b4;fill-opacity:1;fill-rule:nonzero;stroke:#000000;stroke-width:2.20799994;stroke-linecap:round;stroke-linejoin:miter;stroke-miterlimit:4;stroke-dasharray:none;stroke-dashoffset:0;stroke-opacity:1;color-rendering:auto;image-rendering:auto;shape-rendering:auto;text-rendering:auto;enable-background:accumulate"
       d="m 26.414062,38.40425 a 2.4002401,2.4002401 0 0 0 -2.474609,2.0567 c -1.629006,10.2995 -7.168596,18.543 -11.058594,23.1953 a 2.4002401,2.4002401 0 1 0 3.683594,3.0781 c 4.231532,-5.0607 10.287989,-13.9705 12.115235,-25.5234 a 2.4002401,2.4002401 0 0 0 -2.265626,-2.8067 z"
       id="path863"
       inkscape:connector-curvature="0" />
    <path
       style="color:#000000;font-style:normal;font-variant:normal;font-weight:normal;font-stretch:normal;font-size:medium;line-height:normal;font-family:sans-serif;font-variant-ligatures:normal;font-variant-position:normal;font-variant-caps:normal;font-variant-numeric:normal;font-variant-alternates:normal;font-feature-settings:normal;text-indent:0;text-align:start;text-decoration:none;text-decoration-line:none;text-decoration-style:solid;text-decoration-color:#000000;letter-spacing:normal;word-spacing:normal;text-transform:none;writing-mode:lr-tb;direction:ltr;text-orientation:mixed;dominant-baseline:auto;baseline-shift:baseline;text-anchor:start;white-space:normal;shape-padding:0;clip-rule:nonzero;display:inline;overflow:visible;visibility:visible;opacity:1;isolation:auto;mix-blend-mode:normal;color-interpolation:sRGB;color-interpolation-filters:linearRGB;solid-color:#000000;solid-opacity:1;vector-effect:none;fill:#b4b4b4;fill-opacity:1;fill-rule:nonzero;stroke:#000000;stroke-width:2.20799994;stroke-linecap:round;stroke-linejoin:miter;stroke-miterlimit:4;stroke-dasharray:none;stroke-dashoffset:0;stroke-opacity:1;color-rendering:auto;image-rendering:auto;shape-rendering:auto;text-rendering:auto;enable-background:accumulate"
       d="m 18.480469,36.63477 a 2.4002401,2.4002401 0 0 0 -2.234375,1.42378 c -2.595697,5.624 -6.026879,9.0456 -8.4062502,10.918 a 2.4002401,2.4002401 0 1 0 2.9687502,3.7715 c 2.856043,-2.2475 6.834074,-6.2626 9.794922,-12.6777 a 2.4002401,2.4002401 0 0 0 -2.123047,-3.43558 z"
       id="path865"
       inkscape:connector-curvature="0" />
    <path
       style="color:#000000;font-style:normal;font-variant:normal;font-weight:normal;font-stretch:normal;font-size:medium;line-height:normal;font-family:sans-serif;font-variant-ligatures:normal;font-variant-position:normal;font-variant-caps:normal;font-variant-numeric:normal;font-variant-alternates:normal;font-feature-settings:normal;text-indent:0;text-align:start;text-decoration:none;text-decoration-line:none;text-decoration-style:solid;text-decoration-color:#000000;letter-spacing:normal;word-spacing:normal;text-transform:none;writing-mode:lr-tb;direction:ltr;text-orientation:mixed;dominant-baseline:auto;baseline-shift:baseline;text-anchor:start;white-space:normal;shape-padding:0;clip-rule:nonzero;display:inline;overflow:visible;visibility:visible;opacity:1;isolation:auto;mix-blend-mode:normal;color-interpolation:sRGB;color-interpolation-filters:linearRGB;solid-color:#000000;solid-opacity:1;vector-effect:none;fill:#b4b4b4;fill-opacity:1;fill-rule:nonzero;stroke:#000000;stroke-width:2.20799994;stroke-linecap:round;stroke-linejoin:miter;stroke-miterlimit:4;stroke-dasharray:none;stroke-dashoffset:0;stroke-opacity:1;color-rendering:auto;image-rendering:auto;shape-rendering:auto;text-rendering:auto;enable-background:accumulate"
       d="m 65.013672,38.40425 a 2.4002401,2.4002401 0 0 0 -2.433594,2.8067 c 1.716579,10.8532 7.172509,19.3756 11.330078,24.5625 a 2.4002401,2.4002401 0 1 0 3.744141,-3.002 C 73.82696,57.99655 68.852611,50.13665 67.322266,40.46095 a 2.4002401,2.4002401 0 0 0 -2.308594,-2.0567 z"
       id="path863-7"
       inkscape:connector-curvature="0" />
    <path
       style="color:#000000;font-style:normal;font-variant:normal;font-weight:normal;font-stretch:normal;font-size:medium;line-height:normal;font-family:sans-serif;font-variant-ligatures:normal;font-variant-position:normal;font-variant-caps:normal;font-variant-numeric:normal;font-variant-alternates:normal;font-feature-settings:normal;text-indent:0;text-align:start;text-decoration:none;text-decoration-line:none;text-decoration-style:solid;text-decoration-color:#000000;letter-spacing:normal;word-spacing:normal;text-transform:none;writing-mode:lr-tb;direction:ltr;text-orientation:mixed;dominant-baseline:auto;baseline-shift:baseline;text-anchor:start;white-space:normal;shape-padding:0;clip-rule:nonzero;display:inline;overflow:visible;visibility:visible;opacity:1;isolation:auto;mix-blend-mode:normal;color-interpolation:sRGB;color-interpolation-filters:linearRGB;solid-color:#000000;solid-opacity:1;vector-effect:none;fill:#b4b4b4;fill-opacity:1;fill-rule:nonzero;stroke:#000000;stroke-width:2.20799994;stroke-linecap:round;stroke-linejoin:miter;stroke-miterlimit:4;stroke-dasharray:none;stroke-dashoffset:0;stroke-opacity:1;color-rendering:auto;image-rendering:auto;shape-rendering:auto;text-rendering:auto;enable-background:accumulate"
       d="m 72.707031,36.63672 a 2.4002401,2.4002401 0 0 0 -2.050781,3.43363 c 2.504251,5.4258 5.738352,9.1395 8.402344,11.5117 A 2.4002401,2.4002401 0 1 0 82.25,47.99605 c -2.250138,-2.0036 -5.040918,-5.1807 -7.236328,-9.9375 a 2.4002401,2.4002401 0 0 0 -2.306641,-1.42183 z"
       id="path865-5"
       inkscape:connector-curvature="0" />
  </g>
  <g
     inkscape:label="Primary"
     inkscape:groupmode="layer"
     id="layer1"
     transform="translate(0,-962.35975)"
     style="display:inline"
     class="helmet"
     sodipodi:insensitive="true">
    <path
       style="display:inline;fill:#ffffff;fill-opacity:1;stroke:none;stroke-width:2.20799994;stroke-miterlimit:4;stroke-dasharray:none;stroke-dashoffset:0;stroke-opacity:1"
       d="M 45.015625,13.554688 A 39.163297,39.163297 0 0 0 10.773438,33.904297 36,36 0 0 0 9,45 36,36 0 0 0 9.0722656,47.074219 C 17.47762,50.786087 28.747844,52.007273 45.115234,51.707031 62.502889,51.387889 72.387542,51.041902 80.951172,45.992188 A 36,36 0 0 0 81,45 36,36 0 0 0 79.046875,33.441406 39.163297,39.163297 0 0 0 45.015625,13.554688 Z"
       transform="translate(0,962.35975)"
       id="circle2-9"
       mask="url(#mask1020)"
       inkscape:connector-curvature="0" />
    <path
       style="fill:#ffffff;fill-opacity:1;stroke:#000000;stroke-width:2.20799994;stroke-miterlimit:4;stroke-dasharray:none;stroke-dashoffset:0;stroke-opacity:1"
       d="M 45.015092,968.83664 A 39.163297,39.163297 0 0 0 6.5203898,1001.1182 c 8.6467012,4.688 20.5180132,6.2019 38.5948812,5.8703 18.965363,-0.3481 29.009135,-0.7109 38.142968,-7.19493 A 39.163297,39.163297 0 0 0 45.015092,968.83664 Z"
       id="circle2"
       inkscape:connector-curvature="0" />
  </g>
  <g
     inkscape:groupmode="layer"
     id="layer3"
     class="reflection"
     inkscape:label="Accent"
     sodipodi:insensitive="true">
    <path
       style="color:#000000;font-style:normal;font-variant:normal;font-weight:normal;font-stretch:normal;font-size:medium;line-height:normal;font-family:sans-serif;font-variant-ligatures:normal;font-variant-position:normal;font-variant-caps:normal;font-variant-numeric:normal;font-variant-alternates:normal;font-feature-settings:normal;text-indent:0;text-align:start;text-decoration:none;text-decoration-line:none;text-decoration-style:solid;text-decoration-color:#000000;letter-spacing:normal;word-spacing:normal;text-transform:none;writing-mode:lr-tb;direction:ltr;text-orientation:mixed;dominant-baseline:auto;baseline-shift:baseline;text-anchor:start;white-space:normal;shape-padding:0;clip-rule:nonzero;display:inline;overflow:visible;visibility:visible;opacity:1;isolation:auto;mix-blend-mode:normal;color-interpolation:sRGB;color-interpolation-filters:linearRGB;solid-color:#000000;solid-opacity:1;vector-effect:none;fill:#b4b4b4;fill-opacity:1;fill-rule:nonzero;stroke:none;stroke-width:2.20799994;stroke-linecap:butt;stroke-linejoin:miter;stroke-miterlimit:4;stroke-dasharray:none;stroke-dashoffset:0;stroke-opacity:1;color-rendering:auto;image-rendering:auto;shape-rendering:auto;text-rendering:auto;enable-background:accumulate"
       d="m 42.927734,10.447266 c -3.688179,0.07096 -6.914261,0.615225 -9.80664,1.232422 l 0.460937,2.160156 c 2.820871,-0.601937 5.884236,-1.115347 9.375,-1.183594 10.936715,0.01704 21.335632,4.735784 28.548828,12.957031 L 73.166016,24.15625 C 65.532862,15.456356 54.523023,10.462252 42.949219,10.447266 H 42.9375 Z"
       id="path1466"
       inkscape:connector-curvature="0" />
  </g>
  <g
     inkscape:groupmode="layer"
     id="layer4"
     class="targeting"
     inkscape:label="Targeting">
    <path
       inkscape:connector-curvature="0"
       style="color:#000000;font-style:normal;font-variant:normal;font-weight:normal;font-stretch:normal;font-size:medium;line-height:normal;font-family:sans-serif;font-variant-ligatures:normal;font-variant-position:normal;font-variant-caps:normal;font-variant-numeric:normal;font-variant-alternates:normal;font-feature-settings:normal;text-indent:0;text-align:start;text-decoration:none;text-decoration-line:none;text-decoration-style:solid;text-decoration-color:#000000;letter-spacing:normal;word-spacing:normal;text-transform:none;writing-mode:lr-tb;direction:ltr;text-orientation:mixed;dominant-baseline:auto;baseline-shift:baseline;text-anchor:start;white-space:normal;shape-padding:0;clip-rule:nonzero;display:inline;overflow:visible;visibility:visible;opacity:1;isolation:auto;mix-blend-mode:normal;color-interpolation:sRGB;color-interpolation-filters:linearRGB;solid-color:#000000;solid-opacity:1;vector-effect:none;fill:#b4b4b4;fill-opacity:1;fill-rule:nonzero;stroke:none;stroke-width:2.20799994;stroke-linecap:butt;stroke-linejoin:miter;stroke-miterlimit:4;stroke-dasharray:none;stroke-dashoffset:0;stroke-opacity:1;marker:none;color-rendering:auto;image-rendering:auto;shape-rendering:auto;text-rendering:auto;enable-background:accumulate"
       d="m 55.88017,27.317768 -1.152343,0.474609 0.236328,0.578125 0.501953,1.21875 c -1.365999,0.793912 -2.300781,2.261553 -2.300781,3.947266 0,0.893644 0.264435,1.725358 0.71289,2.429687 l -0.345703,0.304688 -0.466797,0.414062 0.826172,0.935547 0.466797,-0.414062 0.335937,-0.296875 c 0.746682,0.670138 1.702609,1.11245 2.763672,1.175781 l -0.474609,-2.308594 c -0.230708,-0.0761 -0.444241,-0.1876 -0.636719,-0.326172 l 0.447266,-0.396484 0.466797,-0.414062 -0.826172,-0.935547 -0.466797,0.414062 -0.398438,0.351563 c -0.121501,-0.285589 -0.195312,-0.598394 -0.195312,-0.933594 0,-0.783794 0.370335,-1.461834 0.939453,-1.890625 l 0.238281,0.578125 0.236328,0.578125 1.154297,-0.474609 -0.236328,-0.578126 -0.228515,-0.55664 c 0.08199,-0.0085 0.161671,-0.02344 0.246093,-0.02344 0.332745,1e-6 0.647938,0.069 0.933594,0.191407 l 1.8125,-1.449219 C 59.703217,29.3232 58.757576,28.960344 57.72392,28.960344 c -0.3823,0 -0.748095,0.0621 -1.103515,0.152344 l -0.501953,-1.216797 z m 5.972657,4.314453 -1.820313,1.457031 c 0.0254,0.137131 0.03943,0.278849 0.04102,0.423828 l -0.351563,-0.115234 -0.591797,-0.195312 -0.388671,1.185546 0.59375,0.195313 0.412109,0.134765 c -0.153633,0.264547 -0.346372,0.503216 -0.585938,0.689454 l 0.466793,2.271484 c 0.989571,-0.463082 1.789811,-1.270966 2.244141,-2.265625 l 0.636719,0.208984 0.591796,0.19336 0.388672,-1.185547 -0.591796,-0.19336 -0.667969,-0.21875 c 0.03376,-0.22234 0.05273,-0.450197 0.05273,-0.68164 0,-0.680055 -0.16056,-1.321863 -0.429687,-1.904297 z"
       id="path4572-0-6-36" />
  </g>
</svg>
