<!--?xml version="1.0" encoding="UTF-8" standalone="no"?--><!--?xml version="1.0" encoding="UTF-8" standalone="no"?--><svg xmlns:dc="http://purl.org/dc/elements/1.1/" xmlns:cc="http://creativecommons.org/ns#" xmlns:rdf="http://www.w3.org/1999/02/22-rdf-syntax-ns#" xmlns:svg="http://www.w3.org/2000/svg" xmlns="http://www.w3.org/2000/svg" xmlns:sodipodi="http://sodipodi.sourceforge.net/DTD/sodipodi-0.dtd" xmlns:inkscape="http://www.inkscape.org/namespaces/inkscape" viewBox="0 0 90 90" data-z="150" data-slots="decal" data-tags="decal" class="code-body" version="1.1" id="svg6" sodipodi:docname="decal-code.svg" inkscape:version="0.92.3 (2405546, 2018-03-11)">
  <metadata id="metadata12">
    <rdf:rdf>
      <cc:work rdf:about="">
        <dc:format>image/svg+xml</dc:format>
        <dc:type rdf:resource="http://purl.org/dc/dcmitype/StillImage"/>
        <dc:title/>
      </cc:work>
    </rdf:rdf>
  </metadata>
  <defs id="defs10"/>
  <sodipodi:namedview pagecolor="#ffffff" bordercolor="#666666" borderopacity="1" objecttolerance="10" gridtolerance="10" guidetolerance="10" inkscape:pageopacity="0" inkscape:pageshadow="2" inkscape:window-width="2493" inkscape:window-height="1385" id="namedview8" showgrid="false" inkscape:zoom="10.488889" inkscape:cx="35.926761" inkscape:cy="52.582035" inkscape:window-x="67" inkscape:window-y="54" inkscape:window-maximized="1" inkscape:current-layer="layer1"/>
  <g inkscape:groupmode="layer" id="layer1" class="code" inkscape:label="code">
    <path style="color:#000000;font-style:normal;font-variant:normal;font-weight:normal;font-stretch:normal;font-size:medium;line-height:normal;font-family:sans-serif;font-variant-ligatures:normal;font-variant-position:normal;font-variant-caps:normal;font-variant-numeric:normal;font-variant-alternates:normal;font-feature-settings:normal;text-indent:0;text-align:start;text-decoration:none;text-decoration-line:none;text-decoration-style:solid;text-decoration-color:#000000;letter-spacing:normal;word-spacing:normal;text-transform:none;writing-mode:lr-tb;direction:ltr;text-orientation:mixed;dominant-baseline:auto;baseline-shift:baseline;text-anchor:start;white-space:normal;shape-padding:0;clip-rule:nonzero;display:inline;overflow:visible;visibility:visible;opacity:1;isolation:auto;mix-blend-mode:normal;color-interpolation:sRGB;color-interpolation-filters:linearRGB;solid-color:#000000;solid-opacity:1;vector-effect:none;fill:#b4b4b4;fill-opacity:1;fill-rule:nonzero;stroke:none;stroke-width:2.33113146;stroke-linecap:square;stroke-linejoin:round;stroke-miterlimit:4;stroke-dasharray:none;stroke-dashoffset:0;stroke-opacity:1;marker:none;color-rendering:auto;image-rendering:auto;shape-rendering:auto;text-rendering:auto;enable-background:accumulate" d="M 45.873047 10.146484 C 46.025681 10.779286 46.27844 11.367083 46.650391 11.861328 C 47.274358 12.690448 48.24116 13.295268 49.349609 13.304688 C 50.458057 13.313985 51.432348 12.724651 52.070312 11.90625 C 52.291956 11.62192 52.476996 11.30719 52.625 10.96875 C 51.824422 10.790426 51.015673 10.634033 50.195312 10.511719 C 49.920981 10.844669 49.643112 10.976938 49.369141 10.974609 C 49.083054 10.972109 48.791519 10.828707 48.511719 10.457031 C 48.478082 10.412335 48.456888 10.343779 48.425781 10.292969 C 47.584213 10.211065 46.731151 10.167601 45.873047 10.146484 z M 43.685547 10.158203 C 41.535501 10.237879 39.435359 10.51177 37.402344 10.962891 C 37.476351 11.082194 37.542275 11.207562 37.626953 11.318359 C 38.257059 12.142824 39.227451 12.741002 40.335938 12.742188 C 41.444426 12.743386 42.416961 12.14733 43.048828 11.324219 C 43.316087 10.976069 43.525608 10.581828 43.685547 10.158203 z M 54.611328 11.474609 C 54.65357 11.536519 54.685085 11.606633 54.730469 11.666016 C 55.360574 12.49048 56.330965 13.08866 57.439453 13.089844 C 57.842226 13.09028 58.223058 13.004285 58.578125 12.863281 C 57.294563 12.320861 55.968165 11.862376 54.611328 11.474609 z M 34.919922 11.607422 C 33.747448 11.960418 32.599131 12.368467 31.482422 12.837891 C 31.727765 12.905621 31.980067 12.954771 32.246094 12.957031 C 33.330511 12.96613 34.281614 12.398193 34.919922 11.607422 z M 40.109375 13.787109 L 37.443359 15.328125 L 38.609375 17.347656 L 39.548828 16.802734 L 39.597656 21.101562 L 38.615234 21.111328 L 38.638672 23.441406 L 42.615234 23.398438 L 42.589844 21.068359 L 41.931641 21.076172 L 41.859375 14.783203 L 40.109375 13.787109 z M 32.009766 14 L 29.333984 15.523438 L 30.484375 17.548828 L 31.427734 17.013672 L 31.445312 21.310547 L 30.460938 21.314453 L 30.46875 23.644531 L 34.445312 23.630859 L 34.4375 21.300781 L 33.777344 21.302734 L 33.751953 15.009766 L 32.009766 14 z M 57.212891 14.134766 L 54.546875 15.675781 L 55.712891 17.695312 L 56.652344 17.150391 L 56.701172 21.449219 L 55.71875 21.458984 L 55.742188 23.789062 L 59.71875 23.746094 L 59.693359 21.416016 L 59.033203 21.423828 L 58.962891 15.130859 L 57.212891 14.134766 z M 49.113281 14.347656 L 46.4375 15.871094 L 47.585938 17.896484 L 48.53125 17.361328 L 48.548828 21.658203 L 47.564453 21.662109 L 47.572266 23.992188 L 51.548828 23.978516 L 51.541016 21.648438 L 50.880859 21.650391 L 50.855469 15.357422 L 49.113281 14.347656 z M 63.234375 15.261719 L 62.775391 15.523438 L 63.925781 17.548828 L 64.871094 17.013672 L 64.888672 21.310547 L 63.904297 21.314453 L 63.912109 23.644531 L 67.886719 23.630859 L 67.880859 21.300781 L 67.220703 21.302734 L 67.208984 18.099609 C 65.955581 17.063893 64.626243 16.116449 63.234375 15.261719 z M 25.529297 16.056641 C 24.733699 16.592629 23.965824 17.165616 23.21875 17.763672 L 23.259766 21.449219 L 22.275391 21.458984 L 22.300781 23.789062 L 26.275391 23.746094 L 26.251953 21.416016 L 25.591797 21.423828 L 25.529297 16.056641 z M 18.101562 22.791016 C 17.779959 23.180185 17.468816 23.579304 17.164062 23.982422 L 18.105469 23.978516 L 18.101562 22.791016 z M 72.078125 23.015625 L 72.082031 23.441406 L 72.408203 23.4375 C 72.297787 23.297303 72.190635 23.154072 72.078125 23.015625 z M 40.339844 24.853516 C 39.231356 24.852316 38.258819 25.450312 37.626953 26.273438 C 36.995088 27.096553 36.64576 28.158947 36.644531 29.310547 C 36.643231 30.46215 36.99099 31.529052 37.621094 32.353516 C 38.251204 33.177978 39.22159 33.77616 40.330078 33.777344 C 41.438565 33.778544 42.411101 33.182486 43.042969 32.359375 C 43.674839 31.536258 44.024162 30.469958 44.025391 29.318359 C 44.026691 28.166759 43.678939 27.103757 43.048828 26.279297 C 42.418719 25.454831 41.448336 24.854699 40.339844 24.853516 z M 73.480469 24.873047 C 72.499186 24.969824 71.643612 25.526606 71.070312 26.273438 C 70.438446 27.096553 70.08912 28.158947 70.087891 29.310547 C 70.086591 30.46215 70.434348 31.529052 71.064453 32.353516 C 71.694563 33.177978 72.664949 33.77616 73.773438 33.777344 C 74.881923 33.778544 75.852507 33.182486 76.484375 32.359375 C 76.731089 32.037988 76.921627 31.671904 77.076172 31.285156 C 76.10375 29.011514 74.891635 26.867102 73.480469 24.873047 z M 32.160156 25.068359 C 31.051708 25.059059 30.073512 25.65035 29.435547 26.46875 C 28.797584 27.287149 28.43947 28.346488 28.429688 29.498047 C 28.419988 30.649609 28.760798 31.719704 29.384766 32.548828 C 30.008733 33.377947 30.975536 33.982768 32.083984 33.992188 C 33.192432 34.001488 34.166722 33.412148 34.804688 32.59375 C 35.44265 31.775349 35.800763 30.714061 35.810547 29.5625 C 35.820247 28.410941 35.481386 27.342793 34.857422 26.513672 C 34.233453 25.684549 33.268607 25.077775 32.160156 25.068359 z M 65.601562 25.068359 C 64.493116 25.059059 63.516871 25.65035 62.878906 26.46875 C 62.240942 27.287149 61.882828 28.346488 61.873047 29.498047 C 61.863347 30.649609 62.202203 31.719704 62.826172 32.548828 C 63.450138 33.377947 64.416943 33.982768 65.525391 33.992188 C 66.633839 34.001488 67.610082 33.412148 68.248047 32.59375 C 68.88601 31.775349 69.244122 30.714061 69.253906 29.5625 C 69.263606 28.410941 68.922793 27.342793 68.298828 26.513672 C 67.67486 25.684549 66.710015 25.077775 65.601562 25.068359 z M 24.001953 25.201172 C 22.893465 25.199972 21.918975 25.797971 21.287109 26.621094 C 20.655243 27.44421 20.305916 28.506602 20.304688 29.658203 C 20.303387 30.809805 20.651146 31.876707 21.28125 32.701172 C 21.91136 33.525633 22.8837 34.123815 23.992188 34.125 C 25.100676 34.1262 26.071257 33.530144 26.703125 32.707031 C 27.334995 31.883915 27.684318 30.817616 27.685547 29.666016 C 27.686847 28.514417 27.339096 27.451414 26.708984 26.626953 C 26.078875 25.802488 25.110445 25.202353 24.001953 25.201172 z M 57.443359 25.201172 C 56.33487 25.199972 55.362336 25.797971 54.730469 26.621094 C 54.098604 27.44421 53.749277 28.506602 53.748047 29.658203 C 53.746747 30.809805 54.094504 31.876707 54.724609 32.701172 C 55.354719 33.525633 56.325106 34.123815 57.433594 34.125 C 58.542082 34.1262 59.512663 33.530144 60.144531 32.707031 C 60.7764 31.883915 61.127677 30.817616 61.128906 29.666016 C 61.130206 28.514417 60.782456 27.451414 60.152344 26.626953 C 59.522236 25.802488 58.551851 25.202353 57.443359 25.201172 z M 49.263672 25.416016 C 48.155224 25.406716 47.177028 25.998005 46.539062 26.816406 C 45.9011 27.634805 45.542985 28.694145 45.533203 29.845703 C 45.523503 30.997264 45.864312 32.06736 46.488281 32.896484 C 47.112248 33.725602 48.07905 34.330424 49.1875 34.339844 C 50.295947 34.349144 51.270238 33.759804 51.908203 32.941406 C 52.546167 32.123004 52.90428 31.061716 52.914062 29.910156 C 52.923763 28.758596 52.5849 27.690448 51.960938 26.861328 C 51.336968 26.032206 50.372123 25.425432 49.263672 25.416016 z M 16.119141 25.439453 C 14.711951 27.514147 13.528784 29.751424 12.589844 32.113281 C 12.718788 32.39061 12.864253 32.656413 13.044922 32.896484 C 13.66889 33.725602 14.635692 34.330424 15.744141 34.339844 C 16.852588 34.349144 17.82688 33.759804 18.464844 32.941406 C 19.102808 32.123004 19.46092 31.061716 19.470703 29.910156 C 19.480403 28.758596 19.141542 27.690448 18.517578 26.861328 C 17.950715 26.108088 17.100766 25.544488 16.119141 25.439453 z M 40.337891 27.185547 C 40.623994 27.185762 40.914734 27.325635 41.197266 27.695312 C 41.479799 28.064988 41.696033 28.647295 41.695312 29.316406 C 41.694533 29.985517 41.476676 30.570378 41.193359 30.939453 C 40.910035 31.308528 40.620079 31.447573 40.333984 31.447266 C 40.047883 31.447049 39.755205 31.307084 39.472656 30.9375 C 39.19012 30.567818 38.973892 29.983561 38.974609 29.314453 C 38.975369 28.645343 39.191295 28.062432 39.474609 27.693359 C 39.757929 27.324283 40.051796 27.18524 40.337891 27.185547 z M 73.78125 27.185547 C 74.067353 27.185762 74.358092 27.325635 74.640625 27.695312 C 74.923158 28.064988 75.13744 28.647295 75.136719 29.316406 C 75.13594 29.985517 74.920036 30.570378 74.636719 30.939453 C 74.353396 31.308528 74.061485 31.447573 73.775391 31.447266 C 73.48929 31.447049 73.196611 31.307084 72.914062 30.9375 C 72.631529 30.567818 72.417252 29.983561 72.417969 29.314453 C 72.41873 28.645343 72.634656 28.062432 72.917969 27.693359 C 73.20129 27.324283 73.495156 27.18524 73.78125 27.185547 z M 32.138672 27.400391 C 32.424764 27.402891 32.716312 27.54426 32.996094 27.916016 C 33.27587 28.287782 33.486155 28.87193 33.480469 29.541016 C 33.474869 30.2101 33.252851 30.793195 32.966797 31.160156 C 32.680741 31.527113 32.389601 31.664541 32.103516 31.662109 C 31.817427 31.659609 31.525889 31.51816 31.246094 31.146484 C 30.966313 30.774714 30.754079 30.188616 30.759766 29.519531 C 30.765366 28.850442 30.987388 28.2693 31.273438 27.902344 C 31.55949 27.535383 31.852585 27.397961 32.138672 27.400391 z M 65.582031 27.400391 C 65.868123 27.402891 66.157718 27.54426 66.4375 27.916016 C 66.717276 28.287782 66.929513 28.87193 66.923828 29.541016 C 66.918228 30.2101 66.69621 30.793195 66.410156 31.160156 C 66.1241 31.527113 65.832961 31.664541 65.546875 31.662109 C 65.260786 31.659609 64.969248 31.51816 64.689453 31.146484 C 64.409672 30.774714 64.197439 30.188616 64.203125 29.519531 C 64.208725 28.850442 64.430747 28.2693 64.716797 27.902344 C 65.002848 27.535383 65.295944 27.397961 65.582031 27.400391 z M 23.998047 27.533203 C 24.28415 27.533418 24.574888 27.673289 24.857422 28.042969 C 25.139954 28.412646 25.356191 28.994951 25.355469 29.664062 C 25.354691 30.333174 25.138786 30.918034 24.855469 31.287109 C 24.572145 31.656184 24.280236 31.79523 23.994141 31.794922 C 23.70804 31.794706 23.415363 31.654741 23.132812 31.285156 C 22.850276 30.915475 22.63405 30.331216 22.634766 29.662109 C 22.635527 28.992999 22.853406 28.410089 23.136719 28.041016 C 23.420039 27.67194 23.711952 27.532896 23.998047 27.533203 z M 57.441406 27.533203 C 57.727509 27.533418 58.018247 27.673289 58.300781 28.042969 C 58.583313 28.412646 58.799549 28.994951 58.798828 29.664062 C 58.798049 30.333174 58.580192 30.918034 58.296875 31.287109 C 58.013552 31.656184 57.723594 31.79523 57.4375 31.794922 C 57.151399 31.794706 56.858721 31.654741 56.576172 31.285156 C 56.293636 30.915475 56.077408 30.331216 56.078125 29.662109 C 56.078886 28.992999 56.294813 28.410089 56.578125 28.041016 C 56.861446 27.67194 57.155312 27.532896 57.441406 27.533203 z M 15.800781 27.748047 C 16.086874 27.750547 16.376468 27.891917 16.65625 28.263672 C 16.936026 28.635438 17.14631 29.219584 17.140625 29.888672 C 17.135025 30.557756 16.91496 31.140851 16.628906 31.507812 C 16.34285 31.874771 16.049757 32.012198 15.763672 32.009766 C 15.477582 32.007266 15.186046 31.865818 14.90625 31.494141 C 14.626469 31.122372 14.416189 30.536272 14.421875 29.867188 C 14.427475 29.198099 14.647544 28.616954 14.933594 28.25 C 15.219646 27.883038 15.514695 27.745617 15.800781 27.748047 z M 49.242188 27.748047 C 49.528278 27.750547 49.817874 27.891917 50.097656 28.263672 C 50.377431 28.635438 50.589669 29.219584 50.583984 29.888672 C 50.578384 30.557756 50.356369 31.140851 50.070312 31.507812 C 49.784256 31.874771 49.493117 32.012198 49.207031 32.009766 C 48.920942 32.007266 48.629405 31.865818 48.349609 31.494141 C 48.069828 31.122372 47.857595 30.536272 47.863281 29.867188 C 47.868881 29.198099 48.090903 28.616954 48.376953 28.25 C 48.663004 27.883038 48.9561 27.745617 49.242188 27.748047 z M 40.466797 34.574219 L 37.802734 36.117188 L 38.966797 38.134766 L 39.908203 37.591797 L 39.957031 41.888672 L 38.972656 41.900391 L 38.998047 44.230469 L 42.972656 44.1875 L 42.949219 41.857422 L 42.289062 41.863281 L 42.216797 35.570312 L 40.466797 34.574219 z M 73.910156 34.574219 L 71.244141 36.117188 L 72.410156 38.134766 L 73.349609 37.591797 L 73.398438 41.888672 L 72.416016 41.900391 L 72.439453 44.230469 L 76.416016 44.1875 L 76.390625 41.857422 L 75.732422 41.863281 L 75.660156 35.570312 L 73.910156 34.574219 z M 24.128906 34.921875 L 21.462891 36.464844 L 22.626953 38.482422 L 23.568359 37.939453 L 23.617188 42.236328 L 22.632812 42.248047 L 22.658203 44.578125 L 26.632812 44.535156 L 26.609375 42.205078 L 25.949219 42.210938 L 25.878906 35.917969 L 24.128906 34.921875 z M 57.570312 34.921875 L 54.904297 36.464844 L 56.070312 38.482422 L 57.011719 37.939453 L 57.060547 42.236328 L 56.076172 42.248047 L 56.101562 44.578125 L 60.076172 44.535156 L 60.052734 42.205078 L 59.392578 42.210938 L 59.320312 35.917969 L 57.570312 34.921875 z M 32.382812 35.271484 C 31.274361 35.262184 30.298121 35.851518 29.660156 36.669922 C 29.022193 37.488322 28.66408 38.549615 28.654297 39.701172 C 28.644597 40.852735 28.983456 41.922829 29.607422 42.751953 C 30.231389 43.581075 31.200144 44.185896 32.308594 44.195312 C 33.417046 44.204614 34.391333 43.615274 35.029297 42.796875 C 35.66726 41.978474 36.025374 40.915233 36.035156 39.763672 C 36.044856 38.612112 35.704045 37.545919 35.080078 36.716797 C 34.456112 35.887676 33.491262 35.280899 32.382812 35.271484 z M 65.826172 35.271484 C 64.71772 35.262184 63.741481 35.851518 63.103516 36.669922 C 62.465552 37.488322 62.107439 38.549615 62.097656 39.701172 C 62.087956 40.852735 62.426814 41.922829 63.050781 42.751953 C 63.674747 43.581075 64.641549 44.185896 65.75 44.195312 C 66.858452 44.204614 67.834692 43.615274 68.472656 42.796875 C 69.11062 41.978474 69.46678 40.915233 69.476562 39.763672 C 69.486262 38.612112 69.147406 37.545919 68.523438 36.716797 C 67.899473 35.887676 66.934623 35.280899 65.826172 35.271484 z M 16.044922 35.619141 C 14.936471 35.609841 13.958278 36.199176 13.320312 37.017578 C 12.682353 37.83598 12.324235 38.897272 12.314453 40.048828 C 12.304753 41.200391 12.645565 42.270487 13.269531 43.099609 C 13.893498 43.928732 14.8603 44.533553 15.96875 44.542969 C 17.077202 44.552269 18.051491 43.962931 18.689453 43.144531 C 19.327417 42.326131 19.68553 41.262889 19.695312 40.111328 C 19.705012 38.959769 19.366155 37.893575 18.742188 37.064453 C 18.118223 36.235332 17.153372 35.628556 16.044922 35.619141 z M 49.486328 35.619141 C 48.377877 35.609841 47.401637 36.199176 46.763672 37.017578 C 46.125709 37.83598 45.767596 38.897272 45.757812 40.048828 C 45.748112 41.200391 46.086968 42.270487 46.710938 43.099609 C 47.334904 43.928732 48.301706 44.533553 49.410156 44.542969 C 50.518609 44.552269 51.494849 43.962931 52.132812 43.144531 C 52.770776 42.326131 53.12889 41.262889 53.138672 40.111328 C 53.148372 38.959769 52.807562 37.893575 52.183594 37.064453 C 51.559629 36.235332 50.594779 35.628556 49.486328 35.619141 z M 32.363281 37.603516 C 32.649369 37.606016 32.938971 37.747385 33.21875 38.119141 C 33.498529 38.490903 33.710762 39.075056 33.705078 39.744141 C 33.699478 40.413225 33.477461 40.99632 33.191406 41.363281 C 32.905351 41.730239 32.61421 41.867664 32.328125 41.865234 C 32.042034 41.862734 31.750498 41.719333 31.470703 41.347656 C 31.190921 40.97589 30.978692 40.389786 30.984375 39.720703 C 30.989975 39.051614 31.211997 38.472428 31.498047 38.105469 C 31.7841 37.738508 32.077194 37.601082 32.363281 37.603516 z M 65.806641 37.603516 C 66.092729 37.606016 66.38233 37.747385 66.662109 38.119141 C 66.941887 38.490903 67.152167 39.075056 67.146484 39.744141 C 67.140884 40.413225 66.920821 40.99632 66.634766 41.363281 C 66.348711 41.730239 66.055616 41.867664 65.769531 41.865234 C 65.48344 41.862734 65.191904 41.719333 64.912109 41.347656 C 64.632327 40.97589 64.422051 40.389786 64.427734 39.720703 C 64.433334 39.051614 64.653403 38.472428 64.939453 38.105469 C 65.225505 37.738508 65.520554 37.601082 65.806641 37.603516 z M 16.023438 37.951172 C 16.309525 37.953672 16.599126 38.095042 16.878906 38.466797 C 17.158685 38.83856 17.370918 39.42271 17.365234 40.091797 C 17.359634 40.760881 17.137618 41.343975 16.851562 41.710938 C 16.565508 42.077897 16.274365 42.21532 15.988281 42.212891 C 15.702189 42.210391 15.410654 42.066989 15.130859 41.695312 C 14.851078 41.323546 14.638848 40.737443 14.644531 40.068359 C 14.650131 39.399272 14.872153 38.820084 15.158203 38.453125 C 15.444257 38.086165 15.73735 37.948739 16.023438 37.951172 z M 49.466797 37.951172 C 49.752885 37.953672 50.042486 38.095042 50.322266 38.466797 C 50.602044 38.83856 50.814277 39.42271 50.808594 40.091797 C 50.802994 40.760881 50.580977 41.343975 50.294922 41.710938 C 50.008868 42.077897 49.717726 42.21532 49.431641 42.212891 C 49.14555 42.210391 48.852061 42.066989 48.572266 41.695312 C 48.292485 41.323546 48.082208 40.737443 48.087891 40.068359 C 48.093491 39.399272 48.315513 38.820084 48.601562 38.453125 C 48.887617 38.086165 49.18071 37.948739 49.466797 37.951172 z M 40.634766 44.835938 C 39.526277 44.834738 38.553745 45.432734 37.921875 46.255859 C 37.290012 47.078974 36.940684 48.141369 36.939453 49.292969 C 36.938153 50.444571 37.285909 51.511475 37.916016 52.335938 C 38.546124 53.160398 39.516512 53.758581 40.625 53.759766 C 41.733491 53.760966 42.704068 53.16491 43.335938 52.341797 C 43.967799 51.518682 44.317129 50.452379 44.318359 49.300781 C 44.319659 48.14918 43.971908 47.086179 43.341797 46.261719 C 42.711688 45.437251 41.743256 44.837122 40.634766 44.835938 z M 74.078125 44.835938 C 72.969636 44.834738 71.997104 45.432734 71.365234 46.255859 C 70.733371 47.078974 70.382089 48.141369 70.380859 49.292969 C 70.379559 50.444571 70.727316 51.511475 71.357422 52.335938 C 71.98753 53.160398 72.959871 53.758581 74.068359 53.759766 C 75.176849 53.760966 76.147428 53.16491 76.779297 52.341797 C 77.411159 51.518682 77.760488 50.452379 77.761719 49.300781 C 77.763019 48.14918 77.415267 47.086179 76.785156 46.261719 C 76.155046 45.437251 75.186614 44.837122 74.078125 44.835938 z M 32.304688 45.052734 C 31.196238 45.043434 30.219995 45.632771 29.582031 46.451172 C 28.94407 47.269572 28.585954 48.330861 28.576172 49.482422 C 28.566472 50.633981 28.905331 51.70408 29.529297 52.533203 C 30.153264 53.36232 31.120066 53.967143 32.228516 53.976562 C 33.336966 53.985864 34.313208 53.396525 34.951172 52.578125 C 35.589132 51.759727 35.947246 50.696484 35.957031 49.544922 C 35.966731 48.393362 35.625919 47.327166 35.001953 46.498047 C 34.377984 45.668924 33.413137 45.062152 32.304688 45.052734 z M 65.748047 45.052734 C 64.639597 45.043434 63.661401 45.632771 63.023438 46.451172 C 62.385475 47.269572 62.029313 48.330861 62.019531 49.482422 C 62.009831 50.633981 62.348691 51.70408 62.972656 52.533203 C 63.596624 53.36232 64.563425 53.967143 65.671875 53.976562 C 66.780325 53.985864 67.756568 53.396525 68.394531 52.578125 C 69.032492 51.759727 69.388653 50.696484 69.398438 49.544922 C 69.408136 48.393362 69.069282 47.327166 68.445312 46.498047 C 67.821345 45.668924 66.856497 45.062152 65.748047 45.052734 z M 24.294922 45.183594 C 23.186432 45.182394 22.2139 45.780391 21.582031 46.603516 C 20.950167 47.42663 20.600839 48.489025 20.599609 49.640625 C 20.598309 50.792225 20.946065 51.85913 21.576172 52.683594 C 22.206281 53.508054 23.176668 54.106237 24.285156 54.107422 C 25.393647 54.108622 26.364224 53.512567 26.996094 52.689453 C 27.627956 51.866338 27.97924 50.800035 27.980469 49.648438 C 27.981869 48.496837 27.634017 47.433837 27.003906 46.609375 C 26.373797 45.784909 25.403411 45.184779 24.294922 45.183594 z M 57.738281 45.183594 C 56.629791 45.182394 55.65726 45.780391 55.025391 46.603516 C 54.393527 47.42663 54.044198 48.489025 54.042969 49.640625 C 54.041669 50.792225 54.387472 51.85913 55.017578 52.683594 C 55.647687 53.508054 56.620028 54.106237 57.728516 54.107422 C 58.837006 54.108622 59.807584 53.512567 60.439453 52.689453 C 61.071316 51.866338 61.420646 50.800035 61.421875 49.648438 C 61.423275 48.496837 61.075425 47.433837 60.445312 46.609375 C 59.815202 45.784909 58.846769 45.184779 57.738281 45.183594 z M 15.966797 45.400391 C 14.858348 45.391091 13.880152 45.980428 13.242188 46.798828 C 12.604228 47.617229 12.24611 48.678517 12.236328 49.830078 C 12.226628 50.981637 12.567442 52.051738 13.191406 52.880859 C 13.815374 53.709977 14.782175 54.314799 15.890625 54.324219 C 16.999075 54.333519 17.973364 53.744182 18.611328 52.925781 C 19.249288 52.107383 19.607402 51.04414 19.617188 49.892578 C 19.626887 48.741019 19.28803 47.674823 18.664062 46.845703 C 18.040094 46.016579 17.075247 45.409811 15.966797 45.400391 z M 49.408203 45.400391 C 48.299754 45.391091 47.323511 45.980428 46.685547 46.798828 C 46.047585 47.617229 45.689469 48.678517 45.679688 49.830078 C 45.669987 50.981637 46.008849 52.051738 46.632812 52.880859 C 47.25678 53.709977 48.223581 54.314799 49.332031 54.324219 C 50.440481 54.333519 51.416723 53.744182 52.054688 52.925781 C 52.692647 52.107383 53.048809 51.04414 53.058594 49.892578 C 53.068294 48.741019 52.729436 47.674823 52.105469 46.845703 C 51.481501 46.016579 50.516654 45.409811 49.408203 45.400391 z M 40.632812 47.167969 C 40.918915 47.168184 41.209653 47.308057 41.492188 47.677734 C 41.77472 48.047413 41.989002 48.629721 41.988281 49.298828 C 41.987503 49.967941 41.771601 50.552801 41.488281 50.921875 C 41.20496 51.290948 40.91305 51.429991 40.626953 51.429688 C 40.340858 51.429279 40.048174 51.289524 39.765625 50.919922 C 39.483091 50.550241 39.268815 49.965986 39.269531 49.296875 C 39.270294 48.627769 39.486235 48.044858 39.769531 47.675781 C 40.052853 47.306702 40.346713 47.167662 40.632812 47.167969 z M 74.074219 47.167969 C 74.360322 47.168184 74.651059 47.308057 74.933594 47.677734 C 75.216125 48.047413 75.432362 48.629721 75.431641 49.298828 C 75.430863 49.967941 75.21496 50.552801 74.931641 50.921875 C 74.64832 51.290948 74.35641 51.429991 74.070312 51.429688 C 73.784218 51.429279 73.491533 51.289524 73.208984 50.919922 C 72.92645 50.550241 72.710222 49.965986 72.710938 49.296875 C 72.711701 48.627769 72.929594 48.044858 73.212891 47.675781 C 73.496212 47.306702 73.788121 47.167662 74.074219 47.167969 z M 32.285156 47.384766 C 32.571245 47.387266 32.860846 47.528636 33.140625 47.900391 C 33.420404 48.272157 33.632637 48.856306 33.626953 49.525391 C 33.621353 50.194477 33.399335 50.77757 33.113281 51.144531 C 32.827228 51.51149 32.536085 51.648914 32.25 51.646484 C 31.963915 51.643984 31.672375 51.500582 31.392578 51.128906 C 31.112801 50.757136 30.900566 50.171037 30.90625 49.501953 C 30.91185 48.832869 31.133891 48.253681 31.419922 47.886719 C 31.705976 47.519758 31.999068 47.382334 32.285156 47.384766 z M 65.728516 47.384766 C 66.014606 47.387266 66.304205 47.528636 66.583984 47.900391 C 66.863763 48.272157 67.074043 48.856306 67.068359 49.525391 C 67.062759 50.194477 66.842695 50.77757 66.556641 51.144531 C 66.270587 51.51149 65.977491 51.648914 65.691406 51.646484 C 65.405322 51.643984 65.113781 51.500582 64.833984 51.128906 C 64.554207 50.757136 64.343926 50.171037 64.349609 49.501953 C 64.355209 48.832869 64.575297 48.253681 64.861328 47.886719 C 65.147382 47.519758 65.442428 47.382334 65.728516 47.384766 z M 24.292969 47.515625 C 24.579072 47.51584 24.869809 47.655713 25.152344 48.025391 C 25.434876 48.395069 25.651112 48.977377 25.650391 49.646484 C 25.649613 50.315597 25.431758 50.900456 25.148438 51.269531 C 24.865116 51.638604 24.57516 51.777649 24.289062 51.777344 C 24.002968 51.776938 23.710283 51.637181 23.427734 51.267578 C 23.1452 50.897898 22.928969 50.313642 22.929688 49.644531 C 22.93045 48.975427 23.14639 48.392516 23.429688 48.023438 C 23.71301 47.654359 24.006871 47.515317 24.292969 47.515625 z M 57.736328 47.515625 C 58.022431 47.51584 58.313168 47.655713 58.595703 48.025391 C 58.878234 48.395069 59.092518 48.977377 59.091797 49.646484 C 59.091019 50.315597 58.875116 50.900456 58.591797 51.269531 C 58.308476 51.638604 58.016567 51.777649 57.730469 51.777344 C 57.444375 51.776938 57.15169 51.637181 56.869141 51.267578 C 56.586607 50.897898 56.37233 50.313642 56.373047 49.644531 C 56.373809 48.975427 56.58975 48.392516 56.873047 48.023438 C 57.156369 47.654359 57.450231 47.515317 57.736328 47.515625 z M 15.945312 47.732422 C 16.231403 47.734922 16.521002 47.876292 16.800781 48.248047 C 17.08056 48.619813 17.292795 49.20396 17.287109 49.873047 C 17.281509 50.542133 17.059492 51.125226 16.773438 51.492188 C 16.487385 51.859147 16.196241 51.99657 15.910156 51.994141 C 15.62407 51.991641 15.332531 51.84824 15.052734 51.476562 C 14.772957 51.104793 14.560723 50.518694 14.566406 49.849609 C 14.572006 49.180525 14.794045 48.601336 15.080078 48.234375 C 15.366131 47.867414 15.659225 47.72999 15.945312 47.732422 z M 49.388672 47.732422 C 49.674763 47.734922 49.964362 47.876292 50.244141 48.248047 C 50.52392 48.619813 50.734201 49.20396 50.728516 49.873047 C 50.722916 50.542133 50.502851 51.125226 50.216797 51.492188 C 49.930743 51.859147 49.637649 51.99657 49.351562 51.994141 C 49.065478 51.991641 48.773938 51.84824 48.494141 51.476562 C 48.214364 51.104793 48.004083 50.518694 48.009766 49.849609 C 48.015366 49.180525 48.235452 48.601336 48.521484 48.234375 C 48.807537 47.867414 49.102584 47.72999 49.388672 47.732422 z M 31.994141 55.021484 L 29.316406 56.542969 L 30.466797 58.568359 L 31.412109 58.033203 L 31.429688 62.330078 L 30.445312 62.333984 L 30.453125 64.664062 L 34.427734 64.650391 L 34.421875 62.320312 L 33.761719 62.322266 L 33.736328 56.029297 L 31.994141 55.021484 z M 65.4375 55.021484 L 62.759766 56.542969 L 63.910156 58.568359 L 64.855469 58.033203 L 64.871094 62.330078 L 63.888672 62.333984 L 63.894531 64.664062 L 67.871094 64.650391 L 67.863281 62.320312 L 67.203125 62.322266 L 67.179688 56.029297 L 65.4375 55.021484 z M 40.726562 55.134766 C 39.618072 55.133566 38.64554 55.731562 38.013672 56.554688 C 37.381806 57.377803 37.032481 58.442149 37.03125 59.59375 C 37.02995 60.745351 37.37771 61.812256 38.007812 62.636719 C 38.637923 63.461183 39.608307 64.059363 40.716797 64.060547 C 41.825282 64.061747 42.797818 63.465689 43.429688 62.642578 C 44.061554 61.819462 44.410883 60.753165 44.412109 59.601562 C 44.413409 58.449965 44.065656 57.385007 43.435547 56.560547 C 42.805436 55.73608 41.835053 55.135946 40.726562 55.134766 z M 74.169922 55.134766 C 73.061432 55.133566 72.0889 55.731562 71.457031 56.554688 C 70.825166 57.377803 70.475841 58.442149 70.474609 59.59375 C 70.473309 60.745351 70.821069 61.812256 71.451172 62.636719 C 72.081283 63.461183 73.051665 64.059363 74.160156 64.060547 C 74.176756 64.060565 74.192454 64.056902 74.208984 64.056641 C 75.51068 62.064466 76.611159 59.930996 77.488281 57.683594 C 77.3303 57.279141 77.135137 56.895808 76.878906 56.560547 C 76.248795 55.73608 75.27841 55.135946 74.169922 55.134766 z M 15.654297 55.369141 L 12.978516 56.890625 L 14.126953 58.916016 L 15.072266 58.380859 L 15.089844 62.677734 L 14.933594 62.677734 C 15.402872 63.474698 15.904385 64.249246 16.433594 65.003906 L 18.089844 64.998047 L 18.082031 62.667969 L 17.421875 62.669922 L 17.396484 56.376953 L 15.654297 55.369141 z M 49.097656 55.369141 L 46.419922 56.890625 L 47.570312 58.916016 L 48.515625 58.380859 L 48.533203 62.677734 L 47.548828 62.681641 L 47.554688 65.011719 L 51.53125 64.998047 L 51.525391 62.667969 L 50.865234 62.669922 L 50.839844 56.376953 L 49.097656 55.369141 z M 24.388672 55.482422 C 23.280182 55.481222 22.307649 56.079221 21.675781 56.902344 C 21.043915 57.725461 20.692637 58.789805 20.691406 59.941406 C 20.690106 61.093007 21.037864 62.159911 21.667969 62.984375 C 22.298079 63.808838 23.270415 64.407019 24.378906 64.408203 C 25.487391 64.409403 26.457976 63.813346 27.089844 62.990234 C 27.721712 62.16712 28.07104 61.100821 28.072266 59.949219 C 28.073566 58.797622 27.725812 57.732663 27.095703 56.908203 C 26.465592 56.083736 25.497161 55.483602 24.388672 55.482422 z M 57.830078 55.482422 C 56.721588 55.481222 55.749055 56.079221 55.117188 56.902344 C 54.485323 57.725461 54.135998 58.789805 54.134766 59.941406 C 54.133466 61.093007 54.481224 62.159911 55.111328 62.984375 C 55.741438 63.808838 56.711822 64.407019 57.820312 64.408203 C 58.928796 64.409403 59.899383 63.813346 60.53125 62.990234 C 61.163119 62.16712 61.514399 61.100821 61.515625 59.949219 C 61.516925 58.797622 61.169173 57.732663 60.539062 56.908203 C 59.908952 56.083736 58.938566 55.483602 57.830078 55.482422 z M 40.724609 57.466797 C 41.010706 57.467204 41.301449 57.606886 41.583984 57.976562 C 41.866517 58.346238 42.082735 58.930502 42.082031 59.599609 C 42.081252 60.268721 41.8634 60.851623 41.580078 61.220703 C 41.296757 61.589774 41.006799 61.728821 40.720703 61.728516 C 40.434608 61.728108 40.141925 61.588354 39.859375 61.21875 C 39.576841 60.849069 39.360611 60.264809 39.361328 59.595703 C 39.362107 58.926592 39.579965 58.345636 39.863281 57.976562 C 40.146599 57.607487 40.438513 57.46649 40.724609 57.466797 z M 74.167969 57.466797 C 74.454066 57.467204 74.744809 57.606886 75.027344 57.976562 C 75.309876 58.346238 75.524141 58.930502 75.523438 59.599609 C 75.522659 60.268721 75.306758 60.851623 75.023438 61.220703 C 74.740116 61.589774 74.448206 61.728821 74.162109 61.728516 C 73.876015 61.728108 73.58333 61.588354 73.300781 61.21875 C 73.018247 60.849069 72.80397 60.264809 72.804688 59.595703 C 72.805464 58.926592 73.021371 58.345636 73.304688 57.976562 C 73.588003 57.607487 73.881874 57.46649 74.167969 57.466797 z M 24.384766 57.814453 C 24.670862 57.814859 24.961606 57.954542 25.244141 58.324219 C 25.526674 58.693897 25.742891 59.27816 25.742188 59.947266 C 25.741408 60.616377 25.525509 61.199281 25.242188 61.568359 C 24.958866 61.937432 24.666956 62.076477 24.380859 62.076172 C 24.094764 62.075766 23.802082 61.936011 23.519531 61.566406 C 23.236997 61.196725 23.020766 60.612467 23.021484 59.943359 C 23.022263 59.274248 23.240121 58.693291 23.523438 58.324219 C 23.806756 57.955143 24.09867 57.814146 24.384766 57.814453 z M 57.828125 57.814453 C 58.11422 57.814859 58.404965 57.954542 58.6875 58.324219 C 58.970033 58.693897 59.186251 59.27816 59.185547 59.947266 C 59.184768 60.616377 58.966915 61.199281 58.683594 61.568359 C 58.400273 61.937432 58.110317 62.076477 57.824219 62.076172 C 57.538125 62.075766 57.245442 61.936011 56.962891 61.566406 C 56.680357 61.196725 56.464126 60.612467 56.464844 59.943359 C 56.465623 59.274248 56.681528 58.693291 56.964844 58.324219 C 57.248163 57.955143 57.54203 57.814146 57.828125 57.814453 z M 40.777344 65.355469 L 38.111328 66.898438 L 39.277344 68.916016 L 40.216797 68.373047 L 40.267578 72.669922 L 39.283203 72.681641 L 39.306641 75.011719 L 43.283203 74.966797 L 43.257812 72.636719 L 42.599609 72.644531 L 42.527344 66.351562 L 40.777344 65.355469 z M 24.4375 65.703125 L 21.771484 67.246094 L 22.9375 69.263672 L 23.878906 68.720703 L 23.925781 72.791016 C 24.893129 73.525469 25.896674 74.213743 26.939453 74.845703 L 26.919922 72.984375 L 26.259766 72.992188 L 26.1875 66.699219 L 24.4375 65.703125 z M 57.880859 65.703125 L 55.214844 67.246094 L 56.380859 69.263672 L 57.320312 68.720703 L 57.369141 73.017578 L 56.386719 73.029297 L 56.410156 75.359375 L 60.386719 75.314453 L 60.361328 72.984375 L 59.701172 72.992188 L 59.630859 66.699219 L 57.880859 65.703125 z M 72.636719 66.273438 L 71.554688 66.898438 L 71.800781 67.324219 C 72.087144 66.980723 72.363514 66.627945 72.636719 66.273438 z M 32.363281 66.480469 C 31.25483 66.471169 30.276636 67.062457 29.638672 67.880859 C 29.00071 68.699259 28.64455 69.760552 28.634766 70.912109 C 28.625066 72.063671 28.963923 73.131817 29.587891 73.960938 C 30.21186 74.790059 31.178658 75.396832 32.287109 75.40625 C 33.395558 75.41555 34.369847 74.826213 35.007812 74.007812 C 35.645776 73.189414 36.00389 72.126169 36.013672 70.974609 C 36.023372 69.82305 35.684514 68.756852 35.060547 67.927734 C 34.43658 67.098608 33.471732 66.489889 32.363281 66.480469 z M 65.804688 66.480469 C 64.696236 66.471169 63.719995 67.062457 63.082031 67.880859 C 62.44407 68.699259 62.085956 69.760552 62.076172 70.912109 C 62.066472 72.063671 62.40533 73.131817 63.029297 73.960938 C 63.185677 74.168733 63.370161 74.353433 63.568359 74.523438 C 64.298124 74.06376 65.011231 73.581283 65.703125 73.070312 C 65.432108 73.053192 65.157137 72.910028 64.892578 72.558594 C 64.612797 72.186827 64.400563 71.600728 64.40625 70.931641 C 64.41185 70.262555 64.633874 69.683365 64.919922 69.316406 C 65.205976 68.949445 65.499072 68.810069 65.785156 68.8125 C 66.071242 68.815 66.360846 68.958305 66.640625 69.330078 C 66.920403 69.701843 67.132636 70.285991 67.126953 70.955078 C 67.123019 71.425077 67.008442 71.847473 66.84375 72.1875 C 67.718389 71.48407 68.559065 70.740234 69.361328 69.957031 C 69.224149 69.201122 68.936383 68.505 68.501953 67.927734 C 67.877985 67.098608 66.913135 66.489889 65.804688 66.480469 z M 49.466797 66.828125 C 48.358345 66.818825 47.380152 67.410113 46.742188 68.228516 C 46.104227 69.046915 45.746113 70.108207 45.736328 71.259766 C 45.726628 72.411328 46.06744 73.479474 46.691406 74.308594 C 47.315375 75.137716 48.282175 75.74449 49.390625 75.753906 C 50.499074 75.763206 51.473363 75.173869 52.111328 74.355469 C 52.749291 73.537071 53.107403 72.473825 53.117188 71.322266 C 53.126888 70.170706 52.788028 69.104508 52.164062 68.275391 C 51.540095 67.446265 50.575247 66.837544 49.466797 66.828125 z M 32.34375 68.8125 C 32.629836 68.815 32.91944 68.958305 33.199219 69.330078 C 33.478997 69.701843 33.689277 70.285991 33.683594 70.955078 C 33.677994 71.624165 33.455977 72.207258 33.169922 72.574219 C 32.883868 72.941177 32.59273 73.078604 32.306641 73.076172 C 32.020557 73.073672 31.729017 72.930271 31.449219 72.558594 C 31.169438 72.186827 30.957205 71.600728 30.962891 70.931641 C 30.968491 70.262555 31.190513 69.683365 31.476562 69.316406 C 31.762615 68.949445 32.057665 68.810069 32.34375 68.8125 z M 49.445312 69.160156 C 49.7314 69.162656 50.021002 69.305961 50.300781 69.677734 C 50.580559 70.049499 50.792792 70.633648 50.787109 71.302734 C 50.781509 71.971821 50.559489 72.554913 50.273438 72.921875 C 49.987383 73.288832 49.696246 73.426261 49.410156 73.423828 C 49.124072 73.421328 48.832531 73.277927 48.552734 72.90625 C 48.272953 72.534482 48.06072 71.948382 48.066406 71.279297 C 48.072006 70.61021 48.29403 70.029069 48.580078 69.662109 C 48.866132 69.295148 49.159227 69.157725 49.445312 69.160156 z M 40.929688 76.072266 C 39.821196 76.071066 38.846711 76.669065 38.214844 77.492188 C 37.867648 77.944471 37.623791 78.477012 37.462891 79.050781 C 38.220963 79.217571 38.985961 79.365775 39.761719 79.482422 C 39.845973 79.264696 39.946696 79.067465 40.064453 78.914062 C 40.34777 78.544986 40.639687 78.40399 40.925781 78.404297 C 41.211879 78.404512 41.502619 78.544387 41.785156 78.914062 C 41.948706 79.128061 42.083933 79.419307 42.173828 79.751953 C 42.963176 79.815198 43.759124 79.853375 44.5625 79.863281 C 44.454063 78.974376 44.140942 78.157793 43.636719 77.498047 C 43.006611 76.673583 42.038176 76.073451 40.929688 76.072266 z M 32.367188 76.291016 C 31.743254 76.285781 31.174398 76.488237 30.673828 76.798828 C 32.24096 77.505305 33.868444 78.098808 35.548828 78.570312 C 35.414497 78.27358 35.256665 77.991738 35.064453 77.736328 C 34.440484 76.907205 33.475639 76.300435 32.367188 76.291016 z M 58.03125 76.419922 C 56.92276 76.418722 55.950225 77.016721 55.318359 77.839844 C 55.177541 78.023285 55.057131 78.223055 54.947266 78.429688 C 56.482446 77.974148 57.971673 77.414786 59.410156 76.761719 C 58.990453 76.550943 58.528301 76.420453 58.03125 76.419922 z M 49.470703 76.638672 C 48.362256 76.629372 47.384059 77.218709 46.746094 78.037109 C 46.342344 78.555054 46.066073 79.177139 45.90625 79.851562 C 46.755088 79.829878 47.599007 79.786255 48.431641 79.705078 C 48.479213 79.621215 48.530038 79.541862 48.583984 79.472656 C 48.870036 79.105695 49.165085 78.968272 49.451172 78.970703 C 49.73382 78.973173 50.020227 79.112791 50.296875 79.474609 C 51.108272 79.351202 51.907284 79.191901 52.699219 79.013672 C 52.558068 78.679881 52.381131 78.367234 52.167969 78.083984 C 51.544001 77.254861 50.579154 76.648091 49.470703 76.638672 z " id="path857"/>
  </g>
</svg>
