<!--?xml version="1.0" encoding="UTF-8" standalone="no"?--><!-- Created with Inkscape (http://www.inkscape.org/) --><svg xmlns:dc="http://purl.org/dc/elements/1.1/" xmlns:cc="http://creativecommons.org/ns#" xmlns:rdf="http://www.w3.org/1999/02/22-rdf-syntax-ns#" xmlns:svg="http://www.w3.org/2000/svg" xmlns="http://www.w3.org/2000/svg" xmlns:sodipodi="http://sodipodi.sourceforge.net/DTD/sodipodi-0.dtd" xmlns:inkscape="http://www.inkscape.org/namespaces/inkscape" width="100%" height="100%" viewBox="0 0 90 90" id="svg2" version="1.1" inkscape:version="0.48.4 r9939" sodipodi:docname="C:\Users\dougrich\Dropbox\token-builder-content\template.svg" class="double-braid" data-z="900" data-slots="hair" data-tags="hair">
  <defs id="defs4"/>
  <sodipodi:namedview id="base" pagecolor="#ffffff" bordercolor="#666666" borderopacity="1.0" inkscape:pageopacity="0.0" inkscape:pageshadow="2" inkscape:zoom="2.8222064" inkscape:cx="11.283758" inkscape:cy="42.52078" inkscape:document-units="in" inkscape:current-layer="layer1" showgrid="false" units="in" inkscape:window-width="1920" inkscape:window-height="1003" inkscape:window-x="-9" inkscape:window-y="-9" inkscape:window-maximized="1">
    <inkscape:grid type="xygrid" id="grid2994" empspacing="5" visible="true" enabled="true" snapvisiblegridlinesonly="true" units="in" spacingx="0.014in" spacingy="0.014in"/>
  </sodipodi:namedview>
  <metadata id="metadata7">
    <rdf:rdf>
      <cc:work rdf:about="">
        <dc:format>image/svg+xml</dc:format>
        <dc:type rdf:resource="http://purl.org/dc/dcmitype/StillImage"/>
        <dc:title/>
      </cc:work>
    </rdf:rdf>
  </metadata>
  <g inkscape:label="Body" inkscape:groupmode="layer" id="layer1" class="hair" transform="translate(0,-962.35975)" style="display:inline">
    <path style="fill:#ffffff;fill-opacity:1;stroke:#000000;stroke-width:4.5;stroke-linecap:butt;stroke-linejoin:miter;stroke-miterlimit:4;stroke-opacity:1;stroke-dasharray:none;display:inline" d="M 39.4375 5.28125 C 39.19069 5.2736147 38.934659 5.3061793 38.6875 5.3125 C 35.764144 5.3872606 32.820848 6.3636072 30 7.1875 C 25.60565 8.4709 21.16251 10.02235 17.375 12.59375 C 15.27259 14.02115 13.54654 15.9836 12 18 C 11.091 19.1851 10.40005 20.5302 9.75 21.875 C 9.26046 22.8877 8.86799 23.96835 8.5 25.03125 C 8.24555 25.76615 8.13195 26.5276 7.84375 27.25 C 7.34659 28.4961 6.06195 29.50245 6.03125 30.84375 C 6.001 32.16755 7.9 33.16715 7.65625 34.46875 C 7.44066 35.61995 5.84403 35.9895 5.15625 36.9375 C 4.36289 38.0309 3.17338 39.2223 3.34375 40.5625 C 3.50576 41.8369 5.9192 42.18485 5.875 43.46875 C 5.84559 44.32265 4.56329 44.58895 4.0625 45.28125 C 3.27614 46.36825 2.52349 47.5615 2.25 48.875 C 1.91183 50.499 1.56348 52.49635 2.53125 53.84375 C 3.5919901 55.32055 6.13032 54.7958 7.59375 55.875 C 8.73813 56.7188 8.8761301 58.9699 10.28125 59.1875 C 12.15418 59.4775 14.1562 57.7436 15.03125 56.0625 C 15.85882 54.4725 15.31212 52.4258 14.875 50.6875 C 14.54554 49.3773 12.66849 48.3547 13.0625 47.0625 C 13.35228 46.1121 15.08354 46.40565 15.65625 45.59375 C 16.77171 44.01245 16.67635 41.81 16.65625 39.875 C 16.63831 38.1447 14.78762 36.27775 15.65625 34.78125 C 16.14738 33.93475 17.77398 34.56265 18.4375 33.84375 C 18.765719 33.488096 18.779829 32.947215 18.78125 32.40625 C 21.537137 32.070921 24.305525 31.229261 27 30.59375 C 30.69659 29.72185 34.40107 28.6695 37.8125 27 C 39.74836 26.0527 41.87894 25.11875 43.1875 23.40625 C 44.211666 22.065947 44.066929 20.113135 44.71875 18.5625 C 45.370571 20.113135 45.225834 22.065947 46.25 23.40625 C 47.55856 25.11875 49.68914 26.0527 51.625 27 C 55.03643 28.6695 58.74091 29.72185 62.4375 30.59375 C 65.139798 31.231106 67.892382 32.073033 70.65625 32.40625 C 70.657715 32.946782 70.672032 33.488368 71 33.84375 C 71.66352 34.56265 73.29012 33.93475 73.78125 34.78125 C 74.64988 36.27775 72.79919 38.1447 72.78125 39.875 C 72.76115 41.81 72.66579 44.01245 73.78125 45.59375 C 74.35396 46.40565 76.08522 46.1121 76.375 47.0625 C 76.76901 48.3547 74.89196 49.3773 74.5625 50.6875 C 74.12538 52.4258 73.57868 54.4725 74.40625 56.0625 C 75.2813 57.7436 77.28332 59.4775 79.15625 59.1875 C 80.56137 58.9699 80.69937 56.7188 81.84375 55.875 C 83.30718 54.7958 85.84551 55.32055 86.90625 53.84375 C 87.87402 52.49635 87.52567 50.499 87.1875 48.875 C 86.91401 47.5615 86.16136 46.36825 85.375 45.28125 C 84.87421 44.58895 83.59191 44.32265 83.5625 43.46875 C 83.5183 42.18485 85.93174 41.8369 86.09375 40.5625 C 86.26412 39.2223 85.07461 38.0309 84.28125 36.9375 C 83.59347 35.9895 81.99684 35.61995 81.78125 34.46875 C 81.5375 33.16715 83.4365 32.16755 83.40625 30.84375 C 83.37555 29.50245 82.09091 28.4961 81.59375 27.25 C 81.30555 26.5276 81.1607 25.76615 80.90625 25.03125 C 80.53826 23.96835 80.17704 22.8877 79.6875 21.875 C 79.03745 20.5302 78.3465 19.1851 77.4375 18 C 75.89096 15.9836 74.16491 14.02115 72.0625 12.59375 C 68.27499 10.02235 63.83185 8.4709 59.4375 7.1875 C 56.616652 6.3636072 53.673356 5.3872606 50.75 5.3125 C 50.460655 5.2928927 50.164032 5.2832114 49.875 5.28125 C 49.255914 5.2770488 48.646944 5.3141831 48.03125 5.40625 C 46.81723 5.5877622 45.730999 6.2842571 44.71875 7 C 43.706501 6.2842571 42.62027 5.5877622 41.40625 5.40625 C 40.790556 5.3141831 40.181586 5.2770488 39.5625 5.28125 C 39.5208 5.2795386 39.479213 5.2825404 39.4375 5.28125 z " transform="translate(0,962.35975)" id="path3930-1"/>
  </g>
</svg>
