<!--?xml version="1.0" encoding="UTF-8" standalone="no"?--><!--?xml version="1.0" encoding="UTF-8" standalone="no"?--><!-- Created with Inkscape (http://www.inkscape.org/) --><svg xmlns:dc="http://purl.org/dc/elements/1.1/" xmlns:cc="http://creativecommons.org/ns#" xmlns:rdf="http://www.w3.org/1999/02/22-rdf-syntax-ns#" xmlns:svg="http://www.w3.org/2000/svg" xmlns="http://www.w3.org/2000/svg" xmlns:sodipodi="http://sodipodi.sourceforge.net/DTD/sodipodi-0.dtd" xmlns:inkscape="http://www.inkscape.org/namespaces/inkscape" width="100%" height="100%" viewBox="0 0 90 90" id="svg2" version="1.1" inkscape:version="0.92.3 (2405546, 2018-03-11)" sodipodi:docname="eyes-excited.svg" class="face-scar" data-z="1050" data-slots="eyes" data-tags="eyes">
  <defs id="defs4"/>
  <sodipodi:namedview id="base" pagecolor="#ffffff" bordercolor="#666666" borderopacity="1.0" inkscape:pageopacity="0.0" inkscape:pageshadow="2" inkscape:zoom="22.577651" inkscape:cx="51.301353" inkscape:cy="53.826922" inkscape:document-units="in" inkscape:current-layer="layer2" showgrid="true" units="in" inkscape:window-width="3773" inkscape:window-height="2105" inkscape:window-x="67" inkscape:window-y="27" inkscape:window-maximized="1">
    <inkscape:grid type="xygrid" id="grid2994" empspacing="5" visible="true" enabled="true" snapvisiblegridlinesonly="true" units="in" spacingx="1.344" spacingy="1.344" originx="0" originy="0"/>
  </sodipodi:namedview>
  <metadata id="metadata7">
    <rdf:rdf>
      <cc:work rdf:about="">
        <dc:format>image/svg+xml</dc:format>
        <dc:type rdf:resource="http://purl.org/dc/dcmitype/StillImage"/>
        <dc:title>Face Scar</dc:title>
      </cc:work>
    </rdf:rdf>
    <rdf:rdf>
      <cc:work rdf:about="">
        <dc:format>image/svg+xml</dc:format>
        <dc:type rdf:resource="http://purl.org/dc/dcmitype/StillImage"/>
        <dc:title>Face Scar</dc:title>
      </cc:work>
    </rdf:rdf>
  </metadata>
  <g inkscape:groupmode="layer" id="layer2" inkscape:label="FaceScar" style="display:inline" class="eyes">
    <path style="opacity:1;vector-effect:none;fill:#ffffff;fill-opacity:1;stroke:#000000;stroke-width:2.25;stroke-linecap:round;stroke-linejoin:bevel;stroke-miterlimit:4;stroke-dasharray:none;stroke-dashoffset:0;stroke-opacity:1" d="M 32.042969 27.013672 A 4.7354641 4.7354641 0 0 0 27.306641 31.75 A 4.7354641 4.7354641 0 0 0 27.535156 33.183594 A 9.4709282 9.4709282 0 0 0 32.042969 34.328125 A 9.4709282 9.4709282 0 0 0 36.558594 33.169922 A 4.7354641 4.7354641 0 0 0 36.777344 31.75 A 4.7354641 4.7354641 0 0 0 32.042969 27.013672 z " id="path878"/>
    <path style="display:inline;opacity:1;vector-effect:none;fill:#ffffff;fill-opacity:1;stroke:#000000;stroke-width:2.25;stroke-linecap:round;stroke-linejoin:bevel;stroke-miterlimit:4;stroke-dasharray:none;stroke-dashoffset:0;stroke-opacity:1" d="M 58.042969 27.013672 A 4.7354641 4.7354641 0 0 0 53.306641 31.75 A 4.7354641 4.7354641 0 0 0 53.535156 33.183594 A 9.4709282 9.4709282 0 0 0 58.042969 34.328125 A 9.4709282 9.4709282 0 0 0 62.558594 33.169922 A 4.7354641 4.7354641 0 0 0 62.777344 31.75 A 4.7354641 4.7354641 0 0 0 58.042969 27.013672 z " id="path878-3"/>
  </g>
  <title id="title9">Face Scar</title>
</svg>
