<?xml version="1.0" encoding="UTF-8" standalone="no"?>
<!--?xml version="1.0" encoding="UTF-8" standalone="no"?-->

<!-- Created with Inkscape (http://www.inkscape.org/) -->

<svg
   xmlns:dc="http://purl.org/dc/elements/1.1/"
   xmlns:cc="http://creativecommons.org/ns#"
   xmlns:rdf="http://www.w3.org/1999/02/22-rdf-syntax-ns#"
   xmlns:svg="http://www.w3.org/2000/svg"
   xmlns="http://www.w3.org/2000/svg"
   xmlns:sodipodi="http://sodipodi.sourceforge.net/DTD/sodipodi-0.dtd"
   xmlns:inkscape="http://www.inkscape.org/namespaces/inkscape"
   width="100%"
   height="100%"
   viewBox="0 0 90 90"
   id="svg2"
   version="1.1"
   inkscape:version="0.92.3 (2405546, 2018-03-11)"
   sodipodi:docname="eyes-arthropod.svg"
   class="face-scar"
   data-z="1050"
   data-slots="eyes"
   data-tags="new+eyes">
  <defs
     id="defs4" />
  <sodipodi:namedview
     id="base"
     pagecolor="#ffffff"
     bordercolor="#666666"
     borderopacity="1.0"
     inkscape:pageopacity="0.0"
     inkscape:pageshadow="2"
     inkscape:zoom="15.96481"
     inkscape:cx="92.213779"
     inkscape:cy="28.951276"
     inkscape:document-units="in"
     inkscape:current-layer="layer1"
     showgrid="true"
     units="in"
     inkscape:window-width="3773"
     inkscape:window-height="2105"
     inkscape:window-x="67"
     inkscape:window-y="27"
     inkscape:window-maximized="1"
     gridtolerance="10">
    <inkscape:grid
       type="xygrid"
       id="grid2994"
       empspacing="5"
       visible="true"
       enabled="true"
       snapvisiblegridlinesonly="true"
       units="in"
       spacingx="1.344"
       spacingy="1.344"
       originx="0"
       originy="0" />
  </sodipodi:namedview>
  <metadata
     id="metadata7">
    <rdf:rdf>
      <cc:work
         rdf:about="">
        <dc:format>image/svg+xml</dc:format>
        <dc:type
           rdf:resource="http://purl.org/dc/dcmitype/StillImage" />
        <dc:title>Face Scar</dc:title>
      </cc:work>
    </rdf:rdf>
    <rdf:RDF>
      <cc:Work
         rdf:about="">
        <dc:format>image/svg+xml</dc:format>
        <dc:type
           rdf:resource="http://purl.org/dc/dcmitype/StillImage" />
        <dc:title>Face Scar</dc:title>
      </cc:Work>
    </rdf:RDF>
  </metadata>
  <g
     inkscape:groupmode="layer"
     id="layer2"
     inkscape:label="FaceScar"
     style="display:inline"
     class="eyes"
     sodipodi:insensitive="true">
    <circle
       style="display:inline;opacity:1;vector-effect:none;fill:#ffffff;fill-opacity:1;stroke:#000000;stroke-width:2.25;stroke-linecap:round;stroke-linejoin:bevel;stroke-miterlimit:4;stroke-dasharray:none;stroke-dashoffset:0;stroke-opacity:1"
       id="path878-1"
       cx="32.042171"
       cy="31.749084"
       r="9.4709282" />
    <circle
       style="display:inline;opacity:1;vector-effect:none;fill:#ffffff;fill-opacity:1;stroke:#000000;stroke-width:2.25;stroke-linecap:round;stroke-linejoin:bevel;stroke-miterlimit:4;stroke-dasharray:none;stroke-dashoffset:0;stroke-opacity:1"
       id="path878-3-3"
       cx="58.042175"
       cy="31.749084"
       r="9.4709282" />
  </g>
  <g
     inkscape:groupmode="layer"
     id="layer1"
     class="arthropod"
     inkscape:label="EYES"
     sodipodi:insensitive="true">
    <path
       style="display:inline;opacity:1;vector-effect:none;fill:#b4b4b4;fill-opacity:1;stroke:none;stroke-width:1.95340443;stroke-linecap:round;stroke-linejoin:bevel;stroke-miterlimit:4;stroke-dasharray:none;stroke-dashoffset:0;stroke-opacity:1"
       d="m 33.072266,23.697266 c -0.224366,0 -0.40625,0.181884 -0.40625,0.40625 0,0.224366 0.181884,0.40625 0.40625,0.40625 0.224366,0 0.40625,-0.181884 0.40625,-0.40625 0,-0.224366 -0.181884,-0.40625 -0.40625,-0.40625 z m -1.47461,0.373042 c -0.169363,-2.5e-5 -0.306666,0.137278 -0.30664,0.306641 -2.6e-5,0.169363 0.137277,0.306666 0.30664,0.306641 0.169364,2.6e-5 0.306667,-0.137277 0.306641,-0.306641 2.6e-5,-0.169364 -0.137277,-0.306667 -0.306641,-0.306641 z m -1.433594,0.337891 c -0.155071,0.01059 -0.275436,0.13949 -0.27539,0.294922 3.3e-4,0.162744 0.132178,0.294592 0.294922,0.294922 0.163506,7.49e-4 0.296545,-0.131414 0.296875,-0.294922 -3.3e-4,-0.163508 -0.133369,-0.295671 -0.296875,-0.294922 -0.0065,-2.15e-4 -0.01302,-2.15e-4 -0.01953,0 z m -1.496093,0.285156 c -0.155071,0.01059 -0.275437,0.13949 -0.275391,0.294922 3.3e-4,0.162744 0.132178,0.294592 0.294922,0.294922 0.163506,7.49e-4 0.296545,-0.131414 0.296875,-0.294922 -3.3e-4,-0.163508 -0.133369,-0.295671 -0.296875,-0.294922 -0.0065,-2.15e-4 -0.01302,-2.15e-4 -0.01953,0 z m 6.894531,0.05273 c -0.24932,-3.49e-4 -0.451521,0.201852 -0.451172,0.451172 -3.49e-4,0.24932 0.201852,0.451521 0.451172,0.451172 0.248557,-7.3e-4 0.449568,-0.202614 0.449219,-0.451172 3.49e-4,-0.248558 -0.200662,-0.450442 -0.449219,-0.451172 z m -8.322266,0.230466 c -0.114362,-5.1e-5 -0.207083,0.09267 -0.207031,0.207032 -5.1e-5,0.114361 0.09267,0.207082 0.207031,0.207031 0.114362,5.2e-5 0.207083,-0.09267 0.207032,-0.207031 5.2e-5,-0.114362 -0.09267,-0.207084 -0.207032,-0.207032 z m 5.34375,0.05469 c -0.24932,-3.49e-4 -0.451521,0.201852 -0.451172,0.451172 7.3e-4,0.248557 0.202614,0.449568 0.451172,0.449219 0.248558,3.49e-4 0.450442,-0.200662 0.451172,-0.449219 3.49e-4,-0.24932 -0.201852,-0.451521 -0.451172,-0.451172 z m 1.53125,0.109375 c -0.189434,0.01365 -0.336097,0.171403 -0.335937,0.361328 -7.31e-4,0.200174 0.161153,0.362933 0.361328,0.363281 0.200938,7.35e-4 0.364016,-0.162343 0.363281,-0.363281 -3.48e-4,-0.200175 -0.163107,-0.362059 -0.363281,-0.361328 -0.0085,-2.97e-4 -0.01693,-2.97e-4 -0.02539,0 z m -2.980468,0.210937 c -0.248557,7.3e-4 -0.449568,0.202614 -0.449219,0.451172 -3.49e-4,0.248558 0.200662,0.450442 0.449219,0.451172 0.24932,3.49e-4 0.451521,-0.201852 0.451172,-0.451172 3.49e-4,-0.24932 -0.201852,-0.451521 -0.451172,-0.451172 z m -1.494141,0.257813 c -0.253083,0.01812 -0.449164,0.228691 -0.449219,0.482422 -3.4e-4,0.266891 0.215531,0.483637 0.482422,0.484375 0.267654,3.4e-4 0.484715,-0.216721 0.484375,-0.484375 -7.38e-4,-0.266891 -0.217484,-0.482762 -0.484375,-0.482422 -0.01106,-3.8e-4 -0.02214,-3.8e-4 -0.0332,0 z m 6.925781,0.333984 c -0.211889,7.13e-4 -0.383178,0.172877 -0.382812,0.384766 -3.66e-4,0.211889 0.170923,0.384053 0.382812,0.384766 0.212652,3.66e-4 0.385132,-0.172114 0.384766,-0.384766 3.66e-4,-0.212652 -0.172114,-0.385132 -0.384766,-0.384766 z m -8.361328,0.06055 c -0.149203,0.01092 -0.264444,0.135556 -0.263672,0.285156 6.86e-4,0.156887 0.128268,0.283596 0.285156,0.283204 0.156126,-6.82e-4 0.282522,-0.127078 0.283204,-0.283204 3.92e-4,-0.156888 -0.126317,-0.28447 -0.283204,-0.285156 -0.0072,-2.7e-4 -0.01432,-2.7e-4 -0.02148,0 z m 6.861328,0.236328 c -0.189434,0.01365 -0.336097,0.171403 -0.335937,0.361328 -7.32e-4,0.200175 0.161152,0.362934 0.361328,0.363282 0.200176,-3.48e-4 0.36206,-0.163107 0.361328,-0.363282 -3.47e-4,-0.199412 -0.161916,-0.360981 -0.361328,-0.361328 -0.0085,-2.97e-4 -0.01693,-2.97e-4 -0.02539,0 z m -8.33789,0.01563 c -0.160921,0.01128 -0.285577,0.145327 -0.285157,0.306642 -2.6e-5,0.169364 0.137277,0.306667 0.306641,0.306641 0.169364,2.6e-5 0.306667,-0.137277 0.306641,-0.306641 2.6e-5,-0.169364 -0.137277,-0.306667 -0.306641,-0.306641 -0.0072,-2.51e-4 -0.01432,-2.51e-4 -0.02148,0 z m 6.890625,0.126953 c -0.279368,2.6e-5 -0.505834,0.226492 -0.50586,0.50586 2.6e-5,0.279368 0.226492,0.505833 0.50586,0.505859 0.279367,-2.6e-5 0.505833,-0.226492 0.505859,-0.505859 -2.6e-5,-0.279368 -0.226491,-0.505834 -0.505859,-0.50586 z m -1.458985,0.261719 c -0.288217,0.02021 -0.511706,0.259904 -0.511718,0.548828 -3.23e-4,0.304322 0.246459,0.551105 0.550781,0.550782 0.304322,3.23e-4 0.551104,-0.24646 0.550781,-0.550782 -7.56e-4,-0.303558 -0.247222,-0.549151 -0.550781,-0.548828 -0.01302,-4.62e-4 -0.02604,-4.62e-4 -0.03906,0 z m -1.433594,0.222658 c -0.316035,4.4e-5 -0.572221,0.25623 -0.572265,0.572265 4.3e-5,0.316036 0.256229,0.572222 0.572265,0.572266 0.316036,-4.3e-5 0.572223,-0.25623 0.572266,-0.572266 -4.4e-5,-0.316036 -0.25623,-0.572222 -0.572266,-0.572265 z m 6.824219,0.123045 c -0.224366,0 -0.40625,0.181884 -0.40625,0.40625 0,0.224366 0.181884,0.40625 0.40625,0.40625 0.224366,0 0.40625,-0.181884 0.40625,-0.40625 0,-0.224366 -0.181884,-0.40625 -0.40625,-0.40625 z M 29.25,27.130859 c -0.321893,7.64e-4 -0.582345,0.262091 -0.582031,0.583985 7.62e-4,0.321131 0.2609,0.581269 0.582031,0.582031 0.321893,3.14e-4 0.58322,-0.260139 0.583984,-0.582031 3.14e-4,-0.322656 -0.261328,-0.584299 -0.583984,-0.583985 z m 6.84375,0.06641 c -0.265552,0.01852 -0.471323,0.239663 -0.470703,0.505859 2.6e-5,0.279367 0.226492,0.505833 0.505859,0.505859 0.279368,-2.6e-5 0.505834,-0.226491 0.50586,-0.505859 -2.6e-5,-0.279368 -0.226492,-0.505833 -0.50586,-0.505859 -0.01172,-4.07e-4 -0.02344,-4.07e-4 -0.03516,0 z M 34.625,27.347656 c -0.371038,6.9e-5 -0.671806,0.300837 -0.671875,0.671875 6.9e-5,0.371038 0.300837,0.671806 0.671875,0.671875 0.371038,-6.9e-5 0.671806,-0.300837 0.671875,-0.671875 -6.9e-5,-0.371038 -0.300837,-0.671806 -0.671875,-0.671875 z m -6.837891,0.103516 c -0.285988,-3.31e-4 -0.517909,0.23159 -0.517578,0.517578 -3.31e-4,0.285988 0.23159,0.517909 0.517578,0.517578 0.285225,-7.47e-4 0.515956,-0.232353 0.515625,-0.517578 3.31e-4,-0.285225 -0.2304,-0.516831 -0.515625,-0.517578 z m 5.363282,0.169922 c -0.371038,6.9e-5 -0.671806,0.300837 -0.671875,0.671875 6.9e-5,0.371038 0.300837,0.671806 0.671875,0.671875 0.371038,-6.9e-5 0.671806,-0.300837 0.671875,-0.671875 -6.9e-5,-0.371038 -0.300837,-0.671806 -0.671875,-0.671875 z m -6.830079,0.130859 c -0.175983,-3.84e-4 -0.318743,0.142376 -0.318359,0.318359 -3.84e-4,0.175984 0.142375,0.318744 0.318359,0.31836 0.175221,-6.95e-4 0.31679,-0.143138 0.316407,-0.31836 3.83e-4,-0.175222 -0.141186,-0.317664 -0.316407,-0.318359 z m 5.388672,0.08594 c -0.371038,6.9e-5 -0.671806,0.300837 -0.671875,0.671875 6.9e-5,0.371038 0.300837,0.671806 0.671875,0.671875 0.371038,-6.9e-5 0.671806,-0.300837 0.671875,-0.671875 -6.9e-5,-0.371038 -0.300837,-0.671806 -0.671875,-0.671875 z m 6.847657,0.228515 c -0.255177,-7.06e-4 -0.462518,0.20576 -0.462891,0.460938 -7.08e-4,0.25594 0.206951,0.463598 0.462891,0.46289 0.255177,-3.74e-4 0.461642,-0.207714 0.460937,-0.46289 -3.73e-4,-0.254414 -0.206523,-0.460565 -0.460937,-0.460938 z m -8.267579,0.07617 c -0.371037,7e-5 -0.671805,0.300838 -0.671874,0.671875 6.9e-5,0.371037 0.300837,0.671805 0.671874,0.671875 0.371038,-6.8e-5 0.671807,-0.300837 0.671876,-0.671875 -6.9e-5,-0.371038 -0.300838,-0.671807 -0.671876,-0.671875 z m -5.40625,0.0039 c -0.119937,0.0085 -0.212893,0.108279 -0.21289,0.228516 3.12e-4,0.126076 0.10244,0.228204 0.228516,0.228516 0.126838,7.67e-4 0.230156,-0.101676 0.230468,-0.228516 -3.12e-4,-0.12684 -0.10363,-0.229283 -0.230468,-0.228516 -0.0052,-1.78e-4 -0.01042,-1.78e-4 -0.01563,0 z m 12.197266,0.19336 c -0.255177,3.74e-4 -0.461642,0.207714 -0.460937,0.46289 3.73e-4,0.254414 0.206523,0.460565 0.460937,0.460938 0.255177,7.06e-4 0.462518,-0.20576 0.462891,-0.460938 7.08e-4,-0.25594 -0.206951,-0.463598 -0.462891,-0.46289 z m -8.287109,0.08789 c -0.371038,6.9e-5 -0.671806,0.300837 -0.671875,0.671875 6.9e-5,0.371038 0.300837,0.671806 0.671875,0.671875 0.371038,-6.9e-5 0.671806,-0.300837 0.671875,-0.671875 -6.9e-5,-0.371038 -0.300837,-0.671806 -0.671875,-0.671875 z m 6.855469,0.113282 c -0.371802,6.7e-5 -0.672887,0.302027 -0.671876,0.673828 6.9e-5,0.371038 0.300838,0.671807 0.671876,0.671875 0.371037,-7e-5 0.671805,-0.300838 0.671874,-0.671875 10e-4,-0.3718 -0.300073,-0.67376 -0.671874,-0.673828 z m -8.332032,0.292968 c -0.297702,3.5e-5 -0.539028,0.241361 -0.539062,0.539063 3.5e-5,0.297701 0.241361,0.539027 0.539062,0.539062 0.297702,-3.4e-5 0.539028,-0.24136 0.539063,-0.539062 -3.4e-5,-0.297702 -0.241361,-0.539029 -0.539063,-0.539063 z m 6.910156,0.01367 c -0.371037,7e-5 -0.671805,0.300838 -0.671874,0.671875 6.9e-5,0.371037 0.300837,0.671805 0.671874,0.671875 0.371038,-6.8e-5 0.671807,-0.300837 0.671876,-0.671875 -6.9e-5,-0.371038 -0.300838,-0.671807 -0.671876,-0.671875 z m -1.548828,0.253906 c -0.28312,0.01957 -0.502596,0.255269 -0.501953,0.539063 3.4e-5,0.297702 0.241361,0.539029 0.539063,0.539063 0.297702,-3.5e-5 0.539028,-0.241361 0.539062,-0.539063 -3.4e-5,-0.297702 -0.24136,-0.539028 -0.539062,-0.539063 -0.01237,-4.26e-4 -0.02474,-4.26e-4 -0.03711,0 z m -6.847656,0.07813 c -0.155071,0.01059 -0.275435,0.139489 -0.27539,0.294921 3.3e-4,0.162744 0.132177,0.294592 0.294921,0.294922 0.163506,7.49e-4 0.296545,-0.131414 0.296875,-0.294922 -3.31e-4,-0.163507 -0.133369,-0.29567 -0.296875,-0.294921 -0.0065,-2.15e-4 -0.01302,-2.15e-4 -0.01953,0 z m 13.689453,0.134765 c -0.16677,0.01197 -0.295715,0.151162 -0.294922,0.318359 6.95e-4,0.175221 0.143138,0.31679 0.31836,0.316407 0.174459,-6.91e-4 0.315715,-0.141948 0.316406,-0.316407 3.83e-4,-0.175221 -0.141186,-0.317664 -0.316406,-0.318359 -0.0078,-2.88e-4 -0.01563,-2.88e-4 -0.02344,0 z m -8.279297,0.01563 c -0.322655,-3.14e-4 -0.584298,0.261329 -0.583984,0.583984 -3.14e-4,0.322656 0.261328,0.584299 0.583984,0.583985 0.321893,-7.64e-4 0.582346,-0.262091 0.582032,-0.583985 3.14e-4,-0.321894 -0.260139,-0.58322 -0.582032,-0.583984 z m 6.826172,0.05859 c -0.285225,7.47e-4 -0.515956,0.232353 -0.515625,0.517578 -3.31e-4,0.285225 0.2304,0.516831 0.515625,0.517578 0.285988,3.31e-4 0.517909,-0.23159 0.517578,-0.517578 3.31e-4,-0.285988 -0.23159,-0.517909 -0.517578,-0.517578 z m -13.65625,0.03906 c -0.145937,-7.64e-4 -0.264436,0.117735 -0.263672,0.263672 3.21e-4,0.145174 0.1185,0.262477 0.263672,0.261719 0.14441,-3.21e-4 0.261398,-0.117309 0.261719,-0.261719 7.58e-4,-0.145172 -0.116545,-0.263351 -0.261719,-0.263672 z m 12.244141,0.244141 c -0.372564,-10e-4 -0.674843,0.301264 -0.673828,0.673828 6.8e-5,0.371802 0.302028,0.672886 0.673828,0.671875 0.371038,-6.9e-5 0.671806,-0.300837 0.671875,-0.671875 10e-4,-0.3718 -0.300073,-0.67376 -0.671875,-0.673828 z m -6.880859,0.05078 c -0.299915,0.02159 -0.531985,0.271576 -0.53125,0.572266 4.3e-5,0.316036 0.256229,0.572222 0.572265,0.572266 0.316036,-4.3e-5 0.572223,-0.25623 0.572266,-0.572266 -4.3e-5,-0.316036 -0.25623,-0.572223 -0.572266,-0.572266 -0.01367,-4.9e-4 -0.02735,-4.9e-4 -0.04102,0 z m -1.378907,0.205078 c -0.371038,6.9e-5 -0.671806,0.300837 -0.671875,0.671875 6.9e-5,0.371038 0.300837,0.671806 0.671875,0.671875 0.371038,-6.9e-5 0.671806,-0.300837 0.671875,-0.671875 -6.9e-5,-0.371038 -0.300837,-0.671806 -0.671875,-0.671875 z m 6.783203,0.01953 c -0.371038,6.9e-5 -0.671806,0.300837 -0.671875,0.671875 6.9e-5,0.371038 0.300837,0.671806 0.671875,0.671875 0.371038,-6.9e-5 0.671806,-0.300837 0.671875,-0.671875 -6.9e-5,-0.371038 -0.300837,-0.671806 -0.671875,-0.671875 z m -8.294922,0.234375 c -0.298464,-0.001 -0.540982,0.240596 -0.541015,0.539062 3.3e-5,0.298466 0.242551,0.540109 0.541015,0.539063 0.297702,-3.4e-5 0.539029,-0.241361 0.539063,-0.539063 -3.5e-5,-0.297702 -0.241361,-0.539028 -0.539063,-0.539062 z m 6.853516,0.08008 c -0.316036,4.3e-5 -0.572222,0.256229 -0.572266,0.572265 4.3e-5,0.316036 0.25623,0.572223 0.572266,0.572266 0.316798,10e-4 0.574178,-0.255466 0.574219,-0.572266 -4.2e-5,-0.3168 -0.257421,-0.573303 -0.574219,-0.572265 z m -1.466797,0.207031 c -0.352617,0.02472 -0.6258,0.318394 -0.625,0.671875 6.9e-5,0.371038 0.300837,0.671806 0.671875,0.671875 0.371038,-6.9e-5 0.671806,-0.300837 0.671875,-0.671875 -6.9e-5,-0.371038 -0.300837,-0.671806 -0.671875,-0.671875 -0.01562,-5.45e-4 -0.03125,-5.45e-4 -0.04687,0 z m -6.853515,0.002 c -0.194318,-3.75e-4 -0.351938,0.157245 -0.351563,0.351563 7.04e-4,0.193555 0.158007,0.349984 0.351563,0.349609 0.192793,-7e-4 0.348909,-0.156816 0.349609,-0.349609 3.75e-4,-0.193556 -0.156054,-0.350859 -0.349609,-0.351563 z m 13.68164,0.240238 c -0.254414,3.73e-4 -0.460564,0.206523 -0.460937,0.460937 -7.06e-4,0.255176 0.20576,0.462517 0.460937,0.462891 0.255941,7.08e-4 0.463599,-0.20695 0.462891,-0.462891 -3.74e-4,-0.255177 -0.207715,-0.461643 -0.462891,-0.460937 z m -8.277344,0.04297 c -0.371037,7e-5 -0.671805,0.300838 -0.671874,0.671875 6.9e-5,0.371037 0.300837,0.671805 0.671874,0.671875 0.371038,-6.8e-5 0.671807,-0.300837 0.671876,-0.671875 -6.9e-5,-0.371038 -0.300838,-0.671807 -0.671876,-0.671875 z m -6.894531,0.134766 c -0.10899,0.0072 -0.193643,0.09781 -0.193359,0.207031 -5.1e-5,0.114361 0.09267,0.207082 0.207031,0.207031 0.114361,5.1e-5 0.207082,-0.09267 0.207031,-0.207031 5.1e-5,-0.114361 -0.09267,-0.207082 -0.207031,-0.207031 -0.0046,-1.51e-4 -0.0091,-1.51e-4 -0.01367,0 z m 13.710938,0.01953 c -0.279368,2.6e-5 -0.505834,0.226491 -0.50586,0.505859 2.6e-5,0.279368 0.226492,0.505834 0.50586,0.50586 0.279368,-2.6e-5 0.505833,-0.226492 0.505859,-0.50586 -2.6e-5,-0.279367 -0.226492,-0.505833 -0.505859,-0.505859 z m -1.419922,0.138672 c -0.3718,-0.001 -0.67376,0.300073 -0.673828,0.671875 6.8e-5,0.371802 0.302028,0.672886 0.673828,0.671875 0.371038,-6.9e-5 0.671806,-0.300837 0.671875,-0.671875 -6.9e-5,-0.371038 -0.300837,-0.671806 -0.671875,-0.671875 z m -6.871094,0.113281 c -0.297702,3.5e-5 -0.539028,0.241361 -0.539062,0.539063 3.5e-5,0.297701 0.241361,0.539027 0.539062,0.539062 0.297702,-3.4e-5 0.539028,-0.24136 0.539063,-0.539062 -3.4e-5,-0.297702 -0.241361,-0.539029 -0.539063,-0.539063 z m -1.441406,0.08203 c -0.371802,6.8e-5 -0.672886,0.302028 -0.671875,0.673828 6.9e-5,0.371038 0.300837,0.671806 0.671875,0.671875 0.371038,-6.9e-5 0.671806,-0.300837 0.671875,-0.671875 0.001,-0.3718 -0.300073,-0.67376 -0.671875,-0.673828 z m 6.837891,0.128906 c -0.32775,4.08e-4 -0.593342,0.266 -0.59375,0.59375 -6.71e-4,0.328513 0.265237,0.595295 0.59375,0.595703 0.329276,6.73e-4 0.596376,-0.266427 0.595703,-0.595703 -4.08e-4,-0.328513 -0.26719,-0.594421 -0.595703,-0.59375 z m -1.521485,0.197265 c -0.352617,0.02472 -0.6258,0.318394 -0.625,0.671875 6.9e-5,0.371038 0.300837,0.671806 0.671875,0.671875 0.371038,-6.9e-5 0.671806,-0.300837 0.671875,-0.671875 -6.9e-5,-0.371038 -0.300837,-0.671806 -0.671875,-0.671875 -0.01562,-5.45e-4 -0.03125,-5.45e-4 -0.04687,0 z m -6.736328,0.146485 c -0.279367,2.6e-5 -0.505833,0.226492 -0.505859,0.505859 2.6e-5,0.279367 0.226492,0.505833 0.505859,0.505859 0.279367,-2.6e-5 0.505833,-0.226492 0.505859,-0.505859 -2.6e-5,-0.279367 -0.226492,-0.505833 -0.505859,-0.505859 z m 5.318359,0.107422 c -0.371038,6.9e-5 -0.671806,0.300837 -0.671875,0.671875 6.9e-5,0.371038 0.300837,0.671806 0.671875,0.671875 0.371038,-6.9e-5 0.671806,-0.300837 0.671875,-0.671875 -6.9e-5,-0.371038 -0.300837,-0.671806 -0.671875,-0.671875 z m -6.898437,0.06055 c -0.166019,0.01192 -0.294689,0.149961 -0.294922,0.316407 -3.83e-4,0.175221 0.141186,0.317664 0.316406,0.318359 0.175984,3.84e-4 0.318744,-0.142375 0.31836,-0.318359 -6.95e-4,-0.175221 -0.143138,-0.31679 -0.31836,-0.316407 -0.0072,-2.42e-4 -0.01432,-2.42e-4 -0.02148,0 z M 40.103516,32.0625 c -0.132696,-4.3e-5 -0.240278,0.107538 -0.240235,0.240234 -4.3e-5,0.132696 0.107539,0.240278 0.240235,0.240235 0.132696,4.3e-5 0.240277,-0.107539 0.240234,-0.240235 4.3e-5,-0.132695 -0.107539,-0.240277 -0.240234,-0.240234 z m -1.47461,0.05273 c -0.25594,-7.08e-4 -0.463598,0.206951 -0.46289,0.462891 3.74e-4,0.255177 0.207714,0.461642 0.46289,0.460937 0.254414,-3.73e-4 0.460565,-0.206523 0.460938,-0.460937 7.06e-4,-0.255177 -0.20576,-0.462518 -0.460938,-0.462891 z m -8.287109,0.113282 c -0.299915,0.02159 -0.531985,0.271575 -0.53125,0.572265 4.3e-5,0.316036 0.256229,0.572222 0.572265,0.572266 0.316036,-4.3e-5 0.572223,-0.25623 0.572266,-0.572266 -4.4e-5,-0.316036 -0.25623,-0.572222 -0.572266,-0.572265 -0.01367,-4.9e-4 -0.02735,-4.9e-4 -0.04102,0 z m 6.824219,0.08398 c -0.279368,2.6e-5 -0.505834,0.226491 -0.50586,0.505859 2.6e-5,0.279368 0.226492,0.505834 0.50586,0.50586 0.279368,-2.6e-5 0.505833,-0.226492 0.505859,-0.50586 -2.6e-5,-0.279367 -0.226492,-0.505833 -0.505859,-0.505859 z m -1.439454,0.05078 c -0.371037,7e-5 -0.671805,0.300838 -0.671874,0.671875 6.9e-5,0.371037 0.300837,0.671805 0.671874,0.671875 0.371038,-6.8e-5 0.671807,-0.300837 0.671876,-0.671875 -6.9e-5,-0.371038 -0.300838,-0.671807 -0.671876,-0.671875 z M 28.869141,32.4746 c -0.299915,0.02159 -0.531985,0.271576 -0.53125,0.572266 4.3e-5,0.316036 0.256229,0.572222 0.572265,0.572266 0.316036,-4.3e-5 0.572223,-0.25623 0.572266,-0.572266 -4.3e-5,-0.316036 -0.25623,-0.572223 -0.572266,-0.572266 -0.01367,-4.9e-4 -0.02735,-4.9e-4 -0.04102,0 z m -1.435547,0.273438 c -0.316036,4.3e-5 -0.572222,0.256229 -0.572266,0.572265 4.3e-5,0.316036 0.25623,0.572223 0.572266,0.572266 0.316036,-4.4e-5 0.572222,-0.25623 0.572265,-0.572266 -4.4e-5,-0.316035 -0.25623,-0.572221 -0.572265,-0.572265 z m 6.871094,0.08594 c -0.279368,2.6e-5 -0.505834,0.226492 -0.50586,0.50586 2.6e-5,0.279368 0.226492,0.505833 0.50586,0.505859 0.279367,-2.6e-5 0.505833,-0.226492 0.505859,-0.505859 -2.6e-5,-0.279368 -0.226491,-0.505834 -0.505859,-0.50586 z m -1.53711,0.208985 c -0.305784,0.02125 -0.542978,0.275509 -0.542969,0.582031 -3.14e-4,0.322656 0.261329,0.584298 0.583985,0.583984 0.322655,3.14e-4 0.584298,-0.261329 0.583984,-0.583984 -7.64e-4,-0.321892 -0.262091,-0.582345 -0.583984,-0.582031 -0.01367,-4.81e-4 -0.02735,-4.81e-4 -0.04102,0 z m -7.041016,0.142578 c -0.201152,0.01401 -0.35723,0.181173 -0.357421,0.382812 -3.66e-4,0.212652 0.172113,0.385132 0.384765,0.384766 0.211889,-7.12e-4 0.383179,-0.172876 0.382813,-0.384766 -7.09e-4,-0.211127 -0.171686,-0.382103 -0.382813,-0.382812 -0.0091,-3.24e-4 -0.01823,-3.24e-4 -0.02734,0 z m 5.607422,0.107422 c -0.335134,5.1e-5 -0.606497,0.27229 -0.605468,0.607422 5.2e-5,0.334369 0.271099,0.605416 0.605468,0.605468 0.334369,-5.2e-5 0.605417,-0.271099 0.605469,-0.605468 0.001,-0.335132 -0.270335,-0.607372 -0.605469,-0.607422 z m 8.347657,0.06055 c -0.171867,0.01261 -0.304827,0.155796 -0.304688,0.328125 3.39e-4,0.181078 0.147047,0.327786 0.328125,0.328125 0.18184,7.4e-4 0.329739,-0.146284 0.330078,-0.328125 -3.39e-4,-0.181841 -0.148238,-0.328865 -0.330078,-0.328125 -0.0078,-2.79e-4 -0.01563,-2.79e-4 -0.02344,0 z m -1.488282,0.185546 c -0.212652,-3.66e-4 -0.385131,0.172114 -0.384765,0.384766 -3.66e-4,0.212652 0.172113,0.385132 0.384765,0.384766 0.212652,3.66e-4 0.385132,-0.172114 0.384766,-0.384766 3.66e-4,-0.212652 -0.172114,-0.385132 -0.384766,-0.384766 z m -8.300781,0.02539 c -0.304321,-3.23e-4 -0.551104,0.24646 -0.550781,0.550781 -3.23e-4,0.304322 0.246459,0.551105 0.550781,0.550782 0.304322,3.23e-4 0.551104,-0.24646 0.550781,-0.550782 3.23e-4,-0.304321 -0.24646,-0.551104 -0.550781,-0.550781 z m 6.839844,0.03906 c -0.310942,-6.82e-4 -0.563182,0.251558 -0.5625,0.5625 4e-4,0.310179 0.252322,0.561225 0.5625,0.560546 0.309416,-3.99e-4 0.560148,-0.25113 0.560547,-0.560546 6.79e-4,-0.310179 -0.250368,-0.562101 -0.560547,-0.5625 z m -12.417969,0.01953 c -0.131635,0.0099 -0.233172,0.11995 -0.232422,0.251953 6.73e-4,0.137791 0.112209,0.249327 0.25,0.25 0.138554,4e-4 0.251275,-0.111448 0.251953,-0.25 4.02e-4,-0.139316 -0.112637,-0.252355 -0.251953,-0.251953 -0.0059,-2.05e-4 -0.01172,-2.05e-4 -0.01758,0 z m 4.158203,0.302734 c -0.273511,-6.97e-4 -0.495712,0.22063 -0.496094,0.494141 -6.99e-4,0.274274 0.22182,0.496793 0.496094,0.496094 0.273511,-3.82e-4 0.494838,-0.222583 0.494141,-0.496094 -3.82e-4,-0.272748 -0.221393,-0.493759 -0.494141,-0.494141 z m 6.783203,0.04102 c -0.261033,1.8e-5 -0.472638,0.211623 -0.472656,0.472656 1.8e-5,0.261033 0.211623,0.472638 0.472656,0.472656 0.261034,-1.7e-5 0.472639,-0.211622 0.472657,-0.472656 -1.8e-5,-0.261034 -0.211623,-0.472639 -0.472657,-0.472656 z m -1.451171,0.259765 c -0.282348,0.02054 -0.500714,0.25597 -0.5,0.539063 3.4e-5,0.297702 0.24136,0.539028 0.539062,0.539063 0.297702,-3.5e-5 0.539028,-0.241361 0.539062,-0.539063 -3.4e-5,-0.297702 -0.24136,-0.539028 -0.539062,-0.539063 -0.01302,-4.72e-4 -0.02604,-4.72e-4 -0.03906,0 z m -7.078126,0.01172 c -0.242136,0.01679 -0.429912,0.218221 -0.429687,0.460938 -7.05e-4,0.255176 0.20576,0.462516 0.460937,0.46289 0.25594,7.08e-4 0.463599,-0.20695 0.462891,-0.46289 -3.73e-4,-0.255178 -0.207714,-0.461644 -0.462891,-0.460938 -0.01041,-3.53e-4 -0.02084,-3.53e-4 -0.03125,0 z M 32.347656,34.5 c -0.304321,-3.23e-4 -0.551104,0.24646 -0.550781,0.550781 -3.23e-4,0.304321 0.24646,0.551104 0.550781,0.550781 0.303558,-7.56e-4 0.549151,-0.247222 0.548828,-0.550781 3.23e-4,-0.303559 -0.24527,-0.550025 -0.548828,-0.550781 z m -1.449218,0.207031 c -0.297702,3.4e-5 -0.539029,0.241361 -0.539063,0.539063 3.5e-5,0.297702 0.241361,0.539028 0.539063,0.539062 0.297701,-3.5e-5 0.539027,-0.241361 0.539062,-0.539062 -3.4e-5,-0.297702 -0.24136,-0.539028 -0.539062,-0.539063 z m -5.615235,0.03711 c -0.126839,3.13e-4 -0.229282,0.10363 -0.228515,0.230468 3.12e-4,0.126076 0.102439,0.228203 0.228515,0.228516 0.126076,-3.12e-4 0.228204,-0.10244 0.228516,-0.228516 7.67e-4,-0.126838 -0.101676,-0.230156 -0.228516,-0.230468 z m 13.931641,0.01172 c -0.200176,3.48e-4 -0.36206,0.163107 -0.361328,0.363282 3.47e-4,0.199412 0.161916,0.360981 0.361328,0.361328 0.200174,7.31e-4 0.362933,-0.161153 0.363281,-0.361328 7.36e-4,-0.200939 -0.162342,-0.364017 -0.363281,-0.363282 z m -9.826172,0.28125 c -0.253083,0.01812 -0.449164,0.228691 -0.449219,0.482422 -3.4e-4,0.267654 0.216721,0.484715 0.484375,0.484375 0.266891,-7.38e-4 0.482762,-0.217484 0.482422,-0.484375 -7.35e-4,-0.266129 -0.216293,-0.481687 -0.482422,-0.482422 -0.01172,-4.26e-4 -0.02344,-4.26e-4 -0.03516,0 z m 8.40625,0.04687 c -0.187698,-1.7e-5 -0.339861,0.152146 -0.339844,0.339844 -1.7e-5,0.187698 0.152146,0.339861 0.339844,0.339844 0.187698,1.7e-5 0.339861,-0.152146 0.339844,-0.339844 1.7e-5,-0.187698 -0.152146,-0.339861 -0.339844,-0.339844 z m -1.582031,0.04297 c -0.217949,0.01603 -0.386623,0.197479 -0.386719,0.416016 -3.57e-4,0.230224 0.185793,0.417248 0.416016,0.417969 0.230985,3.57e-4 0.418326,-0.186984 0.417968,-0.417969 -7.21e-4,-0.230222 -0.187745,-0.416373 -0.417968,-0.416016 -0.0098,-3.43e-4 -0.01954,-3.43e-4 -0.0293,0 z m -1.455079,0.232422 c -0.26478,0.0195 -0.469442,0.240363 -0.46875,0.505859 2.6e-5,0.279368 0.226492,0.505834 0.50586,0.50586 0.279368,-2.6e-5 0.505833,-0.226492 0.505859,-0.50586 -2.6e-5,-0.279367 -0.226492,-0.505833 -0.505859,-0.505859 -0.01237,-4.54e-4 -0.02474,-4.54e-4 -0.03711,0 z m -6.976562,0.03906 c -0.273511,3.82e-4 -0.494837,0.222583 -0.494141,0.496093 3.82e-4,0.272748 0.221393,0.493759 0.494141,0.494141 0.272748,-3.82e-4 0.493759,-0.221393 0.494141,-0.494141 6.96e-4,-0.27351 -0.22063,-0.495711 -0.494141,-0.496093 z m 5.511719,0.195312 c -0.294066,0.0209 -0.521846,0.265739 -0.521485,0.560547 3.99e-4,0.310179 0.252321,0.561226 0.5625,0.560547 0.309416,-3.99e-4 0.560148,-0.251131 0.560547,-0.560547 -3.99e-4,-0.309416 -0.251131,-0.560148 -0.560547,-0.560547 -0.01367,-5e-4 -0.02735,-5e-4 -0.04102,0 z m -6.931641,0.199219 c -0.224366,0 -0.40625,0.181884 -0.40625,0.40625 0,0.224366 0.181884,0.40625 0.40625,0.40625 0.224366,0 0.40625,-0.181884 0.40625,-0.40625 0,-0.224366 -0.181884,-0.40625 -0.40625,-0.40625 z m 5.523438,0.01758 c -0.297702,3.4e-5 -0.539028,0.24136 -0.539063,0.539062 3.4e-5,0.297702 0.241361,0.539029 0.539063,0.539063 0.297702,-3.5e-5 0.539028,-0.241361 0.539062,-0.539063 -3.5e-5,-0.297701 -0.241361,-0.539027 -0.539062,-0.539062 z m -1.47461,0.330079 c -0.267654,-3.4e-4 -0.484716,0.216723 -0.484375,0.484377 7.38e-4,0.266891 0.217484,0.482762 0.484375,0.482422 0.266129,-7.35e-4 0.481687,-0.216293 0.482422,-0.482422 3.4e-4,-0.266891 -0.215531,-0.483637 -0.482422,-0.484375 z m 6.830078,0.197266 c -0.247985,0.01748 -0.440051,0.224057 -0.439453,0.472656 1.8e-5,0.261034 0.211623,0.472639 0.472657,0.472656 0.261033,-1.8e-5 0.472638,-0.211623 0.472656,-0.472656 -1.8e-5,-0.261033 -0.211623,-0.472638 -0.472656,-0.472656 -0.01106,-3.89e-4 -0.02214,-3.89e-4 -0.0332,0 z m -8.484375,0.248047 c -0.230418,0.01643 -0.40878,0.208451 -0.408203,0.439453 9e-6,0.242699 0.196754,0.439444 0.439453,0.439453 0.242699,-9e-6 0.439444,-0.196754 0.439453,-0.439453 -9e-6,-0.242699 -0.196754,-0.439444 -0.439453,-0.439453 -0.01041,-3.7e-4 -0.02084,-3.7e-4 -0.03125,0 z m 7.097657,0.07812 c -0.24932,-3.49e-4 -0.451521,0.201852 -0.451172,0.451172 -3.49e-4,0.24932 0.201852,0.451521 0.451172,0.451172 0.24932,3.49e-4 0.451521,-0.201852 0.451172,-0.451172 3.49e-4,-0.24932 -0.201852,-0.451521 -0.451172,-0.451172 z m -8.56836,0.273438 c -0.189434,0.01365 -0.336097,0.171403 -0.335937,0.361328 3.47e-4,0.199412 0.161916,0.360981 0.361328,0.361328 0.200174,7.31e-4 0.362933,-0.161153 0.363281,-0.361328 -3.48e-4,-0.200175 -0.163107,-0.362059 -0.363281,-0.361328 -0.0085,-2.97e-4 -0.01693,-2.97e-4 -0.02539,0 z m 7.066406,0.0293 c -0.207001,0.0147 -0.367369,0.187009 -0.367187,0.394531 3.56e-4,0.218509 0.177976,0.395254 0.396484,0.394531 0.217746,-3.55e-4 0.394176,-0.176785 0.394532,-0.394531 -3.56e-4,-0.217746 -0.176786,-0.394176 -0.394532,-0.394531 -0.0098,-3.62e-4 -0.01954,-3.62e-4 -0.0293,0 z m -1.474609,0.273437 c -0.207001,0.0147 -0.367369,0.187009 -0.367187,0.394532 -7.23e-4,0.218508 0.176022,0.396128 0.394531,0.396484 0.219272,7.26e-4 0.39721,-0.177212 0.396484,-0.396484 -3.56e-4,-0.218509 -0.177975,-0.395255 -0.396484,-0.394532 -0.0091,-3.15e-4 -0.01823,-3.15e-4 -0.02734,0 z m -1.472656,0.144578 c -0.26478,0.0195 -0.469442,0.240363 -0.46875,0.505859 2.6e-5,0.279367 0.226492,0.505833 0.505859,0.505859 0.279368,-2.6e-5 0.505834,-0.226491 0.50586,-0.505859 -2.6e-5,-0.279368 -0.226492,-0.505833 -0.50586,-0.505859 -0.01237,-4.54e-4 -0.02474,-4.54e-4 -0.03711,0 z m -1.634766,0.269531 c -0.242699,9e-6 -0.439444,0.196754 -0.439453,0.439453 9e-6,0.242699 0.196754,0.439444 0.439453,0.439453 0.242699,-9e-6 0.439444,-0.196754 0.439453,-0.439453 -9e-6,-0.242699 -0.196754,-0.439444 -0.439453,-0.439453 z m 7.035157,0.275391 c -0.157633,-3.93e-4 -0.285526,0.12748 -0.285157,0.285113 -3.93e-4,0.15765 0.127507,0.285549 0.285157,0.285156 0.156886,-6.87e-4 0.283595,-0.128269 0.283203,-0.285156 3.92e-4,-0.156887 -0.126317,-0.284469 -0.283203,-0.285156 z m -1.441407,0.138671 c -0.199412,3.47e-4 -0.360981,0.161917 -0.361328,0.361329 -7.31e-4,0.200174 0.161153,0.362933 0.361328,0.363281 0.200175,-3.48e-4 0.362059,-0.163107 0.361328,-0.363281 -3.47e-4,-0.199412 -0.161916,-0.360982 -0.361328,-0.361329 z m -7.013672,0.03516 c -0.164271,-7.54e-4 -0.297629,0.132604 -0.296875,0.296875 3.31e-4,0.163507 0.133369,0.29567 0.296875,0.294921 0.162744,-3.3e-4 0.294592,-0.132177 0.294922,-0.294921 7.49e-4,-0.163506 -0.131414,-0.296545 -0.294922,-0.296875 z m 5.572266,0.326175 c -0.16092,0.01128 -0.285575,0.145326 -0.285156,0.30664 -2.6e-5,0.169363 0.137277,0.306666 0.30664,0.306641 0.169364,2.6e-5 0.306667,-0.137277 0.306641,-0.306641 2.5e-5,-0.169363 -0.137278,-0.306666 -0.306641,-0.30664 -0.0072,-2.51e-4 -0.01432,-2.51e-4 -0.02148,0 z m -1.501953,0.21875 c -0.195283,0.01434 -0.346237,0.177238 -0.345703,0.373046 -8e-6,0.206032 0.167015,0.373055 0.373047,0.373047 0.206031,8e-6 0.373054,-0.167016 0.373046,-0.373047 8e-6,-0.206031 -0.167015,-0.373054 -0.373046,-0.373046 -0.0091,-3.34e-4 -0.01823,-3.34e-4 -0.02734,0 z m -1.47461,0.296874 c -0.183585,0.01296 -0.325959,0.165568 -0.326171,0.34961 -3.75e-4,0.194317 0.157245,0.351937 0.351562,0.351562 0.194318,3.75e-4 0.351938,-0.157244 0.351563,-0.351562 -7.04e-4,-0.193555 -0.158007,-0.349985 -0.351563,-0.34961 -0.0085,-3.06e-4 -0.01693,-3.06e-4 -0.02539,0 z"
       id="path1395-3"
       inkscape:connector-curvature="0"
       sodipodi:nodetypes="ccccccccccccccccccccccccccccccccccccccccccccccccccccccccccccccccccccccccccccccccccccccccccccccccccccccccccccccccccccccccccccccccccccccccccccccccccccccccccccccccccccccccccccccccccccccccccccccccccccccccccccccccccccccccccccccccccccccccccccccccccccccccccccccccccccccccccccccccccccccccccccccccccccccccccccccccccccccccccccccccccccccccccccccccccccccccccccccccccccccccccccccccccccccccccccccccccccccccccccccccccccccccccccccccccccccccccccccccccccccccccccccccccccccccccccccccccccccccccccccccccccccccccccccccccccccccccccccccccccccccccccccccccccccccccccccccccccccccccccccccccccccccccccccccccccccccccccccccccccccccc" />
    <path
       inkscape:connector-curvature="0"
       style="display:inline;opacity:1;vector-effect:none;fill:#b4b4b4;fill-opacity:1;stroke:none;stroke-width:1.95340443;stroke-linecap:round;stroke-linejoin:bevel;stroke-miterlimit:4;stroke-dasharray:none;stroke-dashoffset:0;stroke-opacity:1"
       d="m 56.962172,23.697266 c 0.224366,0 0.40625,0.181884 0.40625,0.40625 0,0.224366 -0.181884,0.40625 -0.40625,0.40625 -0.224366,0 -0.40625,-0.181884 -0.40625,-0.40625 0,-0.224366 0.181884,-0.40625 0.40625,-0.40625 z m 1.47461,0.373042 c 0.169363,-2.5e-5 0.306666,0.137278 0.30664,0.306641 2.6e-5,0.169363 -0.137277,0.306666 -0.30664,0.306641 -0.169364,2.6e-5 -0.306667,-0.137277 -0.306641,-0.306641 -2.6e-5,-0.169364 0.137277,-0.306667 0.306641,-0.306641 z m 1.433594,0.337891 c 0.155071,0.01059 0.275436,0.13949 0.27539,0.294922 -3.3e-4,0.162744 -0.132178,0.294592 -0.294922,0.294922 -0.163506,7.49e-4 -0.296545,-0.131414 -0.296875,-0.294922 3.3e-4,-0.163508 0.133369,-0.295671 0.296875,-0.294922 0.0065,-2.15e-4 0.01302,-2.15e-4 0.01953,0 z m 1.496093,0.285156 c 0.155071,0.01059 0.275437,0.13949 0.275391,0.294922 -3.3e-4,0.162744 -0.132178,0.294592 -0.294922,0.294922 -0.163506,7.49e-4 -0.296545,-0.131414 -0.296875,-0.294922 3.3e-4,-0.163508 0.133369,-0.295671 0.296875,-0.294922 0.0065,-2.15e-4 0.01302,-2.15e-4 0.01953,0 z m -6.894531,0.05273 c 0.24932,-3.49e-4 0.451521,0.201852 0.451172,0.451172 3.49e-4,0.24932 -0.201852,0.451521 -0.451172,0.451172 -0.248557,-7.3e-4 -0.449568,-0.202614 -0.449219,-0.451172 -3.49e-4,-0.248558 0.200662,-0.450442 0.449219,-0.451172 z m 8.322266,0.230466 c 0.114362,-5.1e-5 0.207083,0.09267 0.207031,0.207032 5.1e-5,0.114361 -0.09267,0.207082 -0.207031,0.207031 -0.114362,5.2e-5 -0.207083,-0.09267 -0.207032,-0.207031 -5.2e-5,-0.114362 0.09267,-0.207084 0.207032,-0.207032 z m -5.34375,0.05469 c 0.24932,-3.49e-4 0.451521,0.201852 0.451172,0.451172 -7.3e-4,0.248557 -0.202614,0.449568 -0.451172,0.449219 -0.248558,3.49e-4 -0.450442,-0.200662 -0.451172,-0.449219 -3.49e-4,-0.24932 0.201852,-0.451521 0.451172,-0.451172 z m -1.53125,0.109375 c 0.189434,0.01365 0.336097,0.171403 0.335937,0.361328 7.31e-4,0.200174 -0.161153,0.362933 -0.361328,0.363281 -0.200938,7.35e-4 -0.364016,-0.162343 -0.363281,-0.363281 3.48e-4,-0.200175 0.163107,-0.362059 0.363281,-0.361328 0.0085,-2.97e-4 0.01693,-2.97e-4 0.02539,0 z m 2.980468,0.210937 c 0.248557,7.3e-4 0.449568,0.202614 0.449219,0.451172 3.49e-4,0.248558 -0.200662,0.450442 -0.449219,0.451172 -0.24932,3.49e-4 -0.451521,-0.201852 -0.451172,-0.451172 -3.49e-4,-0.24932 0.201852,-0.451521 0.451172,-0.451172 z m 1.494141,0.257813 c 0.253083,0.01812 0.449164,0.228691 0.449219,0.482422 3.4e-4,0.266891 -0.215531,0.483637 -0.482422,0.484375 -0.267654,3.4e-4 -0.484715,-0.216721 -0.484375,-0.484375 7.38e-4,-0.266891 0.217484,-0.482762 0.484375,-0.482422 0.01106,-3.8e-4 0.02214,-3.8e-4 0.0332,0 z m -6.925781,0.333984 c 0.211889,7.13e-4 0.383178,0.172877 0.382812,0.384766 3.66e-4,0.211889 -0.170923,0.384053 -0.382812,0.384766 -0.212652,3.66e-4 -0.385132,-0.172114 -0.384766,-0.384766 -3.66e-4,-0.212652 0.172114,-0.385132 0.384766,-0.384766 z m 8.361328,0.06055 c 0.149203,0.01092 0.264444,0.135556 0.263672,0.285156 -6.86e-4,0.156887 -0.128268,0.283596 -0.285156,0.283204 -0.156126,-6.82e-4 -0.282522,-0.127078 -0.283204,-0.283204 -3.92e-4,-0.156888 0.126317,-0.28447 0.283204,-0.285156 0.0072,-2.7e-4 0.01432,-2.7e-4 0.02148,0 z m -6.861328,0.236328 c 0.189434,0.01365 0.336097,0.171403 0.335937,0.361328 7.32e-4,0.200175 -0.161152,0.362934 -0.361328,0.363282 -0.200176,-3.48e-4 -0.36206,-0.163107 -0.361328,-0.363282 3.47e-4,-0.199412 0.161916,-0.360981 0.361328,-0.361328 0.0085,-2.97e-4 0.01693,-2.97e-4 0.02539,0 z m 8.33789,0.01563 c 0.160921,0.01128 0.285577,0.145327 0.285157,0.306642 2.6e-5,0.169364 -0.137277,0.306667 -0.306641,0.306641 -0.169364,2.6e-5 -0.306667,-0.137277 -0.306641,-0.306641 -2.6e-5,-0.169364 0.137277,-0.306667 0.306641,-0.306641 0.0072,-2.51e-4 0.01432,-2.51e-4 0.02148,0 z m -6.890625,0.126953 c 0.279368,2.6e-5 0.505834,0.226492 0.50586,0.50586 -2.6e-5,0.279368 -0.226492,0.505833 -0.50586,0.505859 -0.279367,-2.6e-5 -0.505833,-0.226492 -0.505859,-0.505859 2.6e-5,-0.279368 0.226491,-0.505834 0.505859,-0.50586 z m 1.458985,0.261719 c 0.288217,0.02021 0.511706,0.259904 0.511718,0.548828 3.23e-4,0.304322 -0.246459,0.551105 -0.550781,0.550782 -0.304322,3.23e-4 -0.551104,-0.24646 -0.550781,-0.550782 7.56e-4,-0.303558 0.247222,-0.549151 0.550781,-0.548828 0.01302,-4.62e-4 0.02604,-4.62e-4 0.03906,0 z m 6.824218,0.148438 c 0.113599,0.001 0.205135,0.09343 0.205079,0.207032 5.5e-5,0.113603 -0.09148,0.20601 -0.205079,0.207031 -0.114361,5.1e-5 -0.207082,-0.09267 -0.207031,-0.207031 -5.2e-5,-0.114362 0.09267,-0.207083 0.207031,-0.207032 z m -5.390624,0.07422 c 0.316035,4.4e-5 0.572221,0.25623 0.572265,0.572265 -4.3e-5,0.316036 -0.256229,0.572222 -0.572265,0.572266 -0.316036,-4.3e-5 -0.572223,-0.25623 -0.572266,-0.572266 4.4e-5,-0.316036 0.25623,-0.572222 0.572266,-0.572265 z m -6.824219,0.123045 c 0.224366,0 0.40625,0.181884 0.40625,0.40625 0,0.224366 -0.181884,0.40625 -0.40625,0.40625 -0.224366,0 -0.40625,-0.181884 -0.40625,-0.40625 0,-0.224366 0.181884,-0.40625 0.40625,-0.40625 z m 8.300781,0.140626 c 0.321893,7.64e-4 0.582345,0.262091 0.582031,0.583985 -7.62e-4,0.321131 -0.2609,0.581269 -0.582031,0.582031 -0.321893,3.14e-4 -0.58322,-0.260139 -0.583984,-0.582031 -3.14e-4,-0.322656 0.261328,-0.584299 0.583984,-0.583985 z m -6.84375,0.06641 c 0.265552,0.01852 0.471323,0.239663 0.470703,0.505859 -2.6e-5,0.279367 -0.226492,0.505833 -0.505859,0.505859 -0.279368,-2.6e-5 -0.505834,-0.226491 -0.50586,-0.505859 2.6e-5,-0.279368 0.226492,-0.505833 0.50586,-0.505859 0.01172,-4.07e-4 0.02344,-4.07e-4 0.03516,0 z m 1.46875,0.150387 c 0.371038,6.9e-5 0.671806,0.300837 0.671875,0.671875 -6.9e-5,0.371038 -0.300837,0.671806 -0.671875,0.671875 -0.371038,-6.9e-5 -0.671806,-0.300837 -0.671875,-0.671875 6.9e-5,-0.371038 0.300837,-0.671806 0.671875,-0.671875 z m 6.837891,0.103516 c 0.285988,-3.31e-4 0.517909,0.23159 0.517578,0.517578 3.31e-4,0.285988 -0.23159,0.517909 -0.517578,0.517578 -0.285225,-7.47e-4 -0.515956,-0.232353 -0.515625,-0.517578 -3.31e-4,-0.285225 0.2304,-0.516831 0.515625,-0.517578 z m -5.363282,0.169922 c 0.371038,6.9e-5 0.671806,0.300837 0.671875,0.671875 -6.9e-5,0.371038 -0.300837,0.671806 -0.671875,0.671875 -0.371038,-6.9e-5 -0.671806,-0.300837 -0.671875,-0.671875 6.9e-5,-0.371038 0.300837,-0.671806 0.671875,-0.671875 z m 6.830079,0.130859 c 0.175983,-3.84e-4 0.318743,0.142376 0.318359,0.318359 3.84e-4,0.175984 -0.142375,0.318744 -0.318359,0.31836 -0.175221,-6.95e-4 -0.31679,-0.143138 -0.316407,-0.31836 -3.83e-4,-0.175222 0.141186,-0.317664 0.316407,-0.318359 z m -5.388672,0.08594 c 0.371038,6.9e-5 0.671806,0.300837 0.671875,0.671875 -6.9e-5,0.371038 -0.300837,0.671806 -0.671875,0.671875 -0.371038,-6.9e-5 -0.671806,-0.300837 -0.671875,-0.671875 6.9e-5,-0.371038 0.300837,-0.671806 0.671875,-0.671875 z m -6.847657,0.228515 c 0.255177,-7.06e-4 0.462518,0.20576 0.462891,0.460938 7.08e-4,0.25594 -0.206951,0.463598 -0.462891,0.46289 -0.255177,-3.74e-4 -0.461642,-0.207714 -0.460937,-0.46289 3.73e-4,-0.254414 0.206523,-0.460565 0.460937,-0.460938 z m 8.267579,0.07617 c 0.371037,7e-5 0.671805,0.300838 0.671874,0.671875 -6.9e-5,0.371037 -0.300837,0.671805 -0.671874,0.671875 -0.371038,-6.8e-5 -0.671807,-0.300837 -0.671876,-0.671875 6.9e-5,-0.371038 0.300838,-0.671807 0.671876,-0.671875 z m 5.40625,0.0039 c 0.119937,0.0085 0.212893,0.108279 0.21289,0.228516 -3.12e-4,0.126076 -0.10244,0.228204 -0.228516,0.228516 -0.126838,7.67e-4 -0.230156,-0.101676 -0.230468,-0.228516 3.12e-4,-0.12684 0.10363,-0.229283 0.230468,-0.228516 0.0052,-1.78e-4 0.01042,-1.78e-4 0.01563,0 z m -12.197266,0.19336 c 0.255177,3.74e-4 0.461642,0.207714 0.460937,0.46289 -3.73e-4,0.254414 -0.206523,0.460565 -0.460937,0.460938 -0.255177,7.06e-4 -0.462518,-0.20576 -0.462891,-0.460938 -7.08e-4,-0.25594 0.206951,-0.463598 0.462891,-0.46289 z m 8.287109,0.08789 c 0.371038,6.9e-5 0.671806,0.300837 0.671875,0.671875 -6.9e-5,0.371038 -0.300837,0.671806 -0.671875,0.671875 -0.371038,-6.9e-5 -0.671806,-0.300837 -0.671875,-0.671875 6.9e-5,-0.371038 0.300837,-0.671806 0.671875,-0.671875 z M 54.386,28.54101 c 0.371802,6.7e-5 0.672887,0.302027 0.671876,0.673828 -6.9e-5,0.371038 -0.300838,0.671807 -0.671876,0.671875 -0.371037,-7e-5 -0.671805,-0.300838 -0.671874,-0.671875 -10e-4,-0.3718 0.300073,-0.67376 0.671874,-0.673828 z m 8.332032,0.292968 c 0.297702,3.5e-5 0.539028,0.241361 0.539062,0.539063 -3.5e-5,0.297701 -0.241361,0.539027 -0.539062,0.539062 -0.297702,-3.4e-5 -0.539028,-0.24136 -0.539063,-0.539062 3.4e-5,-0.297702 0.241361,-0.539029 0.539063,-0.539063 z m -6.910156,0.01367 c 0.371037,7e-5 0.671805,0.300838 0.671874,0.671875 -6.9e-5,0.371037 -0.300837,0.671805 -0.671874,0.671875 -0.371038,-6.8e-5 -0.671807,-0.300837 -0.671876,-0.671875 6.9e-5,-0.371038 0.300838,-0.671807 0.671876,-0.671875 z m 1.548828,0.253906 c 0.28312,0.01957 0.502596,0.255269 0.501953,0.539063 -3.4e-5,0.297702 -0.241361,0.539029 -0.539063,0.539063 -0.297702,-3.5e-5 -0.539028,-0.241361 -0.539062,-0.539063 3.4e-5,-0.297702 0.24136,-0.539028 0.539062,-0.539063 0.01237,-4.26e-4 0.02474,-4.26e-4 0.03711,0 z m 6.847656,0.07813 c 0.155071,0.01059 0.275435,0.139489 0.27539,0.294921 -3.3e-4,0.162744 -0.132177,0.294592 -0.294921,0.294922 -0.163506,7.49e-4 -0.296545,-0.131414 -0.296875,-0.294922 3.31e-4,-0.163507 0.133369,-0.29567 0.296875,-0.294921 0.0065,-2.15e-4 0.01302,-2.15e-4 0.01953,0 z m -13.689453,0.134765 c 0.16677,0.01197 0.295715,0.151162 0.294922,0.318359 -6.95e-4,0.175221 -0.143138,0.31679 -0.31836,0.316407 -0.174459,-6.91e-4 -0.315715,-0.141948 -0.316406,-0.316407 -3.83e-4,-0.175221 0.141186,-0.317664 0.316406,-0.318359 0.0078,-2.88e-4 0.01563,-2.88e-4 0.02344,0 z m 8.279297,0.01563 c 0.322655,-3.14e-4 0.584298,0.261329 0.583984,0.583984 3.14e-4,0.322656 -0.261328,0.584299 -0.583984,0.583985 -0.321893,-7.64e-4 -0.582346,-0.262091 -0.582032,-0.583985 -3.14e-4,-0.321894 0.260139,-0.58322 0.582032,-0.583984 z m -6.826172,0.05859 c 0.285225,7.47e-4 0.515956,0.232353 0.515625,0.517578 3.31e-4,0.285225 -0.2304,0.516831 -0.515625,0.517578 -0.285988,3.31e-4 -0.517909,-0.23159 -0.517578,-0.517578 -3.31e-4,-0.285988 0.23159,-0.517909 0.517578,-0.517578 z m 13.65625,0.03906 c 0.145937,-7.64e-4 0.264436,0.117735 0.263672,0.263672 -3.21e-4,0.145174 -0.1185,0.262477 -0.263672,0.261719 -0.14441,-3.21e-4 -0.261398,-0.117309 -0.261719,-0.261719 -7.58e-4,-0.145172 0.116545,-0.263351 0.261719,-0.263672 z M 53.380141,29.67187 c 0.372564,-10e-4 0.674843,0.301264 0.673828,0.673828 -6.8e-5,0.371802 -0.302028,0.672886 -0.673828,0.671875 -0.371038,-6.9e-5 -0.671806,-0.300837 -0.671875,-0.671875 -0.001,-0.3718 0.300073,-0.67376 0.671875,-0.673828 z M 60.261,29.72265 c 0.299915,0.02159 0.531985,0.271576 0.53125,0.572266 -4.3e-5,0.316036 -0.256229,0.572222 -0.572265,0.572266 -0.316036,-4.3e-5 -0.572223,-0.25623 -0.572266,-0.572266 4.3e-5,-0.316036 0.25623,-0.572223 0.572266,-0.572266 0.01367,-4.9e-4 0.02735,-4.9e-4 0.04102,0 z m 1.378907,0.205078 c 0.371038,6.9e-5 0.671806,0.300837 0.671875,0.671875 -6.9e-5,0.371038 -0.300837,0.671806 -0.671875,0.671875 -0.371038,-6.9e-5 -0.671806,-0.300837 -0.671875,-0.671875 6.9e-5,-0.371038 0.300837,-0.671806 0.671875,-0.671875 z m -6.783203,0.01953 c 0.371038,6.9e-5 0.671806,0.300837 0.671875,0.671875 -6.9e-5,0.371038 -0.300837,0.671806 -0.671875,0.671875 -0.371038,-6.9e-5 -0.671806,-0.300837 -0.671875,-0.671875 6.9e-5,-0.371038 0.300837,-0.671806 0.671875,-0.671875 z m 8.294922,0.234375 c 0.298464,-0.001 0.540982,0.240596 0.541015,0.539062 -3.3e-5,0.298466 -0.242551,0.540109 -0.541015,0.539063 -0.297702,-3.4e-5 -0.539029,-0.241361 -0.539063,-0.539063 3.5e-5,-0.297702 0.241361,-0.539028 0.539063,-0.539062 z m -6.853516,0.08008 c 0.316036,4.3e-5 0.572222,0.256229 0.572266,0.572265 -4.3e-5,0.316036 -0.25623,0.572223 -0.572266,0.572266 -0.316798,10e-4 -0.574178,-0.255466 -0.574219,-0.572266 4.2e-5,-0.3168 0.257421,-0.573303 0.574219,-0.572265 z m 1.466797,0.207031 c 0.352617,0.02472 0.6258,0.318394 0.625,0.671875 -6.9e-5,0.371038 -0.300837,0.671806 -0.671875,0.671875 -0.371038,-6.9e-5 -0.671806,-0.300837 -0.671875,-0.671875 6.9e-5,-0.371038 0.300837,-0.671806 0.671875,-0.671875 0.01562,-5.45e-4 0.03125,-5.45e-4 0.04687,0 z m 6.853515,0.002 c 0.194318,-3.75e-4 0.351938,0.157245 0.351563,0.351563 -7.04e-4,0.193555 -0.158007,0.349984 -0.351563,0.349609 -0.192793,-7e-4 -0.348909,-0.156816 -0.349609,-0.349609 -3.75e-4,-0.193556 0.156054,-0.350859 0.349609,-0.351563 z m -13.68164,0.240238 c 0.254414,3.73e-4 0.460564,0.206523 0.460937,0.460937 7.06e-4,0.255176 -0.20576,0.462517 -0.460937,0.462891 -0.255941,7.08e-4 -0.463599,-0.20695 -0.462891,-0.462891 3.74e-4,-0.255177 0.207715,-0.461643 0.462891,-0.460937 z m 8.277344,0.04297 c 0.371037,7e-5 0.671805,0.300838 0.671874,0.671875 -6.9e-5,0.371037 -0.300837,0.671805 -0.671874,0.671875 -0.371038,-6.8e-5 -0.671807,-0.300837 -0.671876,-0.671875 6.9e-5,-0.371038 0.300838,-0.671807 0.671876,-0.671875 z m 6.894531,0.134766 c 0.10899,0.0072 0.193643,0.09781 0.193359,0.207031 5.1e-5,0.114361 -0.09267,0.207082 -0.207031,0.207031 -0.114361,5.1e-5 -0.207082,-0.09267 -0.207031,-0.207031 -5.1e-5,-0.114361 0.09267,-0.207082 0.207031,-0.207031 0.0046,-1.51e-4 0.0091,-1.51e-4 0.01367,0 z m -13.710938,0.01953 c 0.279368,2.6e-5 0.505834,0.226491 0.50586,0.505859 -2.6e-5,0.279368 -0.226492,0.505834 -0.50586,0.50586 -0.279368,-2.6e-5 -0.505833,-0.226492 -0.505859,-0.50586 2.6e-5,-0.279367 0.226492,-0.505833 0.505859,-0.505859 z m 1.419922,0.138672 c 0.3718,-0.001 0.67376,0.300073 0.673828,0.671875 -6.8e-5,0.371802 -0.302028,0.672886 -0.673828,0.671875 -0.371038,-6.9e-5 -0.671806,-0.300837 -0.671875,-0.671875 6.9e-5,-0.371038 0.300837,-0.671806 0.671875,-0.671875 z m 6.871094,0.113281 c 0.297702,3.5e-5 0.539028,0.241361 0.539062,0.539063 -3.5e-5,0.297701 -0.241361,0.539027 -0.539062,0.539062 -0.297702,-3.4e-5 -0.539028,-0.24136 -0.539063,-0.539062 3.4e-5,-0.297702 0.241361,-0.539029 0.539063,-0.539063 z m 1.441406,0.08203 c 0.371802,6.8e-5 0.672886,0.302028 0.671875,0.673828 -6.9e-5,0.371038 -0.300837,0.671806 -0.671875,0.671875 -0.371038,-6.9e-5 -0.671806,-0.300837 -0.671875,-0.671875 -0.001,-0.3718 0.300073,-0.67376 0.671875,-0.673828 z m -6.837891,0.128906 c 0.32775,4.08e-4 0.593342,0.266 0.59375,0.59375 6.71e-4,0.328513 -0.265237,0.595295 -0.59375,0.595703 -0.329276,6.73e-4 -0.596376,-0.266427 -0.595703,-0.595703 4.08e-4,-0.328513 0.26719,-0.594421 0.595703,-0.59375 z m 1.521485,0.197265 c 0.352617,0.02472 0.6258,0.318394 0.625,0.671875 -6.9e-5,0.371038 -0.300837,0.671806 -0.671875,0.671875 -0.371038,-6.9e-5 -0.671806,-0.300837 -0.671875,-0.671875 6.9e-5,-0.371038 0.300837,-0.671806 0.671875,-0.671875 0.01562,-5.45e-4 0.03125,-5.45e-4 0.04687,0 z m 6.736328,0.146485 c 0.279367,2.6e-5 0.505833,0.226492 0.505859,0.505859 -2.6e-5,0.279367 -0.226492,0.505833 -0.505859,0.505859 -0.279367,-2.6e-5 -0.505833,-0.226492 -0.505859,-0.505859 2.6e-5,-0.279367 0.226492,-0.505833 0.505859,-0.505859 z m -5.318359,0.107422 c 0.371038,6.9e-5 0.671806,0.300837 0.671875,0.671875 -6.9e-5,0.371038 -0.300837,0.671806 -0.671875,0.671875 -0.371038,-6.9e-5 -0.671806,-0.300837 -0.671875,-0.671875 6.9e-5,-0.371038 0.300837,-0.671806 0.671875,-0.671875 z m 6.898437,0.06055 c 0.166019,0.01192 0.294689,0.149961 0.294922,0.316407 3.83e-4,0.175221 -0.141186,0.317664 -0.316406,0.318359 -0.175984,3.84e-4 -0.318744,-0.142375 -0.31836,-0.318359 6.95e-4,-0.175221 0.143138,-0.31679 0.31836,-0.316407 0.0072,-2.42e-4 0.01432,-2.42e-4 0.02148,0 z M 51.405532,32.11523 c 0.25594,-7.08e-4 0.463598,0.206951 0.46289,0.462891 -3.74e-4,0.255177 -0.207714,0.461642 -0.46289,0.460937 -0.254414,-3.73e-4 -0.460565,-0.206523 -0.460938,-0.460937 -7.06e-4,-0.255177 0.20576,-0.462518 0.460938,-0.462891 z m 8.287109,0.113282 c 0.299915,0.02159 0.531985,0.271575 0.53125,0.572265 -4.3e-5,0.316036 -0.256229,0.572222 -0.572265,0.572266 -0.316036,-4.3e-5 -0.572223,-0.25623 -0.572266,-0.572266 4.4e-5,-0.316036 0.25623,-0.572222 0.572266,-0.572265 0.01367,-4.9e-4 0.02735,-4.9e-4 0.04102,0 z m -6.824219,0.08398 c 0.279368,2.6e-5 0.505834,0.226491 0.50586,0.505859 -2.6e-5,0.279368 -0.226492,0.505834 -0.50586,0.50586 -0.279368,-2.6e-5 -0.505833,-0.226492 -0.505859,-0.50586 2.6e-5,-0.279367 0.226492,-0.505833 0.505859,-0.505859 z m 1.439454,0.05078 c 0.371037,7e-5 0.671805,0.300838 0.671874,0.671875 -6.9e-5,0.371037 -0.300837,0.671805 -0.671874,0.671875 -0.371038,-6.8e-5 -0.671807,-0.300837 -0.671876,-0.671875 6.9e-5,-0.371038 0.300838,-0.671807 0.671876,-0.671875 z m 6.857421,0.111328 c 0.299915,0.02159 0.531985,0.271576 0.53125,0.572266 -4.3e-5,0.316036 -0.256229,0.572222 -0.572265,0.572266 -0.316036,-4.3e-5 -0.572223,-0.25623 -0.572266,-0.572266 4.3e-5,-0.316036 0.25623,-0.572223 0.572266,-0.572266 0.01367,-4.9e-4 0.02735,-4.9e-4 0.04102,0 z m 1.435547,0.273438 c 0.316036,4.3e-5 0.572222,0.256229 0.572266,0.572265 -4.3e-5,0.316036 -0.25623,0.572223 -0.572266,0.572266 -0.316036,-4.4e-5 -0.572222,-0.25623 -0.572265,-0.572266 4.4e-5,-0.316035 0.25623,-0.572221 0.572265,-0.572265 z m -6.871094,0.08594 c 0.279368,2.6e-5 0.505834,0.226492 0.50586,0.50586 -2.6e-5,0.279368 -0.226492,0.505833 -0.50586,0.505859 -0.279367,-2.6e-5 -0.505833,-0.226492 -0.505859,-0.505859 2.6e-5,-0.279368 0.226491,-0.505834 0.505859,-0.50586 z m 1.53711,0.208985 c 0.305784,0.02125 0.542978,0.275509 0.542969,0.582031 3.14e-4,0.322656 -0.261329,0.584298 -0.583985,0.583984 -0.322655,3.14e-4 -0.584298,-0.261329 -0.583984,-0.583984 7.64e-4,-0.321892 0.262091,-0.582345 0.583984,-0.582031 0.01367,-4.81e-4 0.02735,-4.81e-4 0.04102,0 z m 7.041016,0.142578 c 0.201152,0.01401 0.35723,0.181173 0.357421,0.382812 3.66e-4,0.212652 -0.172113,0.385132 -0.384765,0.384766 -0.211889,-7.12e-4 -0.383179,-0.172876 -0.382813,-0.384766 7.09e-4,-0.211127 0.171686,-0.382103 0.382813,-0.382812 0.0091,-3.24e-4 0.01823,-3.24e-4 0.02734,0 z m -5.607422,0.107422 c 0.335134,5.1e-5 0.606497,0.27229 0.605468,0.607422 -5.2e-5,0.334369 -0.271099,0.605416 -0.605468,0.605468 -0.334369,-5.2e-5 -0.605417,-0.271099 -0.605469,-0.605468 -10e-4,-0.335132 0.270335,-0.607372 0.605469,-0.607422 z m -8.347657,0.06055 c 0.171867,0.01261 0.304827,0.155796 0.304688,0.328125 -3.39e-4,0.181078 -0.147047,0.327786 -0.328125,0.328125 -0.18184,7.4e-4 -0.329739,-0.146284 -0.330078,-0.328125 3.39e-4,-0.181841 0.148238,-0.328865 0.330078,-0.328125 0.0078,-2.79e-4 0.01563,-2.79e-4 0.02344,0 z m 1.488282,0.185546 c 0.212652,-3.66e-4 0.385131,0.172114 0.384765,0.384766 3.66e-4,0.212652 -0.172113,0.385132 -0.384765,0.384766 -0.212652,3.66e-4 -0.385132,-0.172114 -0.384766,-0.384766 -3.66e-4,-0.212652 0.172114,-0.385132 0.384766,-0.384766 z m 8.300781,0.02539 c 0.304321,-3.23e-4 0.551104,0.24646 0.550781,0.550781 3.23e-4,0.304322 -0.246459,0.551105 -0.550781,0.550782 -0.304322,3.23e-4 -0.551104,-0.24646 -0.550781,-0.550782 -3.23e-4,-0.304321 0.24646,-0.551104 0.550781,-0.550781 z m -6.839844,0.03906 c 0.310942,-6.82e-4 0.563182,0.251558 0.5625,0.5625 -4e-4,0.310179 -0.252322,0.561225 -0.5625,0.560546 -0.309416,-3.99e-4 -0.560148,-0.25113 -0.560547,-0.560546 -6.79e-4,-0.310179 0.250368,-0.562101 0.560547,-0.5625 z m 12.417969,0.01953 c 0.131635,0.0099 0.233172,0.11995 0.232422,0.251953 -6.73e-4,0.137791 -0.112209,0.249327 -0.25,0.25 -0.138554,4e-4 -0.251275,-0.111448 -0.251953,-0.25 -4.02e-4,-0.139316 0.112637,-0.252355 0.251953,-0.251953 0.0059,-2.05e-4 0.01172,-2.05e-4 0.01758,0 z m -4.158203,0.302734 c 0.273511,-6.97e-4 0.495712,0.22063 0.496094,0.494141 6.99e-4,0.274274 -0.22182,0.496793 -0.496094,0.496094 -0.273511,-3.82e-4 -0.494838,-0.222583 -0.494141,-0.496094 3.82e-4,-0.272748 0.221393,-0.493759 0.494141,-0.494141 z m -6.783203,0.04102 c 0.261033,1.8e-5 0.472638,0.211623 0.472656,0.472656 -1.8e-5,0.261033 -0.211623,0.472638 -0.472656,0.472656 -0.261034,-1.7e-5 -0.472639,-0.211622 -0.472657,-0.472656 1.8e-5,-0.261034 0.211623,-0.472639 0.472657,-0.472656 z m 1.451171,0.259765 c 0.282348,0.02054 0.500714,0.25597 0.5,0.539063 -3.4e-5,0.297702 -0.24136,0.539028 -0.539062,0.539063 -0.297702,-3.5e-5 -0.539028,-0.241361 -0.539062,-0.539063 3.4e-5,-0.297702 0.24136,-0.539028 0.539062,-0.539063 0.01302,-4.72e-4 0.02604,-4.72e-4 0.03906,0 z m 7.078126,0.01172 c 0.242136,0.01679 0.429912,0.218221 0.429687,0.460938 7.05e-4,0.255176 -0.20576,0.462516 -0.460937,0.46289 -0.25594,7.08e-4 -0.463599,-0.20695 -0.462891,-0.46289 3.73e-4,-0.255178 0.207714,-0.461644 0.462891,-0.460938 0.01041,-3.53e-4 0.02084,-3.53e-4 0.03125,0 z M 57.686782,34.5 c 0.304321,-3.23e-4 0.551104,0.24646 0.550781,0.550781 3.23e-4,0.304321 -0.24646,0.551104 -0.550781,0.550781 -0.303558,-7.56e-4 -0.549151,-0.247222 -0.548828,-0.550781 -3.23e-4,-0.303559 0.24527,-0.550025 0.548828,-0.550781 z M 59.136,34.707031 c 0.297702,3.4e-5 0.539029,0.241361 0.539063,0.539063 -3.5e-5,0.297702 -0.241361,0.539028 -0.539063,0.539062 -0.297701,-3.5e-5 -0.539027,-0.241361 -0.539062,-0.539062 3.4e-5,-0.297702 0.24136,-0.539028 0.539062,-0.539063 z m 5.615235,0.03711 c 0.126839,3.13e-4 0.229282,0.10363 0.228515,0.230468 -3.12e-4,0.126076 -0.102439,0.228203 -0.228515,0.228516 -0.126076,-3.12e-4 -0.228204,-0.10244 -0.228516,-0.228516 -7.67e-4,-0.126838 0.101676,-0.230156 0.228516,-0.230468 z m -13.931641,0.01172 c 0.200176,3.48e-4 0.36206,0.163107 0.361328,0.363282 -3.47e-4,0.199412 -0.161916,0.360981 -0.361328,0.361328 -0.200174,7.31e-4 -0.362933,-0.161153 -0.363281,-0.361328 -7.36e-4,-0.200939 0.162342,-0.364017 0.363281,-0.363282 z m 9.826172,0.28125 c 0.253083,0.01812 0.449164,0.228691 0.449219,0.482422 3.4e-4,0.267654 -0.216721,0.484715 -0.484375,0.484375 -0.266891,-7.38e-4 -0.482762,-0.217484 -0.482422,-0.484375 7.35e-4,-0.266129 0.216293,-0.481687 0.482422,-0.482422 0.01172,-4.26e-4 0.02344,-4.26e-4 0.03516,0 z m -8.40625,0.04687 c 0.187698,-1.7e-5 0.339861,0.152146 0.339844,0.339844 1.7e-5,0.187698 -0.152146,0.339861 -0.339844,0.339844 -0.187698,1.7e-5 -0.339861,-0.152146 -0.339844,-0.339844 -1.7e-5,-0.187698 0.152146,-0.339861 0.339844,-0.339844 z m 1.582031,0.04297 c 0.217949,0.01603 0.386623,0.197479 0.386719,0.416016 3.57e-4,0.230224 -0.185793,0.417248 -0.416016,0.417969 -0.230985,3.57e-4 -0.418326,-0.186984 -0.417968,-0.417969 7.21e-4,-0.230222 0.187745,-0.416373 0.417968,-0.416016 0.0098,-3.43e-4 0.01954,-3.43e-4 0.0293,0 z m 1.455079,0.232422 c 0.26478,0.0195 0.469442,0.240363 0.46875,0.505859 -2.6e-5,0.279368 -0.226492,0.505834 -0.50586,0.50586 -0.279368,-2.6e-5 -0.505833,-0.226492 -0.505859,-0.50586 2.6e-5,-0.279367 0.226492,-0.505833 0.505859,-0.505859 0.01237,-4.54e-4 0.02474,-4.54e-4 0.03711,0 z m 6.976562,0.03906 c 0.273511,3.82e-4 0.494837,0.222583 0.494141,0.496093 -3.82e-4,0.272748 -0.221393,0.493759 -0.494141,0.494141 -0.272748,-3.82e-4 -0.493759,-0.221393 -0.494141,-0.494141 -6.96e-4,-0.27351 0.22063,-0.495711 0.494141,-0.496093 z m -5.511719,0.195312 c 0.294066,0.0209 0.521846,0.265739 0.521485,0.560547 -3.99e-4,0.310179 -0.252321,0.561226 -0.5625,0.560547 -0.309416,-3.99e-4 -0.560148,-0.251131 -0.560547,-0.560547 3.99e-4,-0.309416 0.251131,-0.560148 0.560547,-0.560547 0.01367,-5e-4 0.02735,-5e-4 0.04102,0 z m 6.931641,0.199219 c 0.224366,0 0.40625,0.181884 0.40625,0.40625 0,0.224366 -0.181884,0.40625 -0.40625,0.40625 -0.224366,0 -0.40625,-0.181884 -0.40625,-0.40625 0,-0.224366 0.181884,-0.40625 0.40625,-0.40625 z m -5.523438,0.01758 c 0.297702,3.4e-5 0.539028,0.24136 0.539063,0.539062 -3.4e-5,0.297702 -0.241361,0.539029 -0.539063,0.539063 -0.297702,-3.5e-5 -0.539028,-0.241361 -0.539062,-0.539063 3.5e-5,-0.297701 0.241361,-0.539027 0.539062,-0.539062 z m 1.47461,0.330079 c 0.267654,-3.4e-4 0.484716,0.216723 0.484375,0.484377 -7.38e-4,0.266891 -0.217484,0.482762 -0.484375,0.482422 -0.266129,-7.35e-4 -0.481687,-0.216293 -0.482422,-0.482422 -3.4e-4,-0.266891 0.215531,-0.483637 0.482422,-0.484375 z m -6.830078,0.197266 c 0.247985,0.01748 0.440051,0.224057 0.439453,0.472656 -1.8e-5,0.261034 -0.211623,0.472639 -0.472657,0.472656 -0.261033,-1.8e-5 -0.472638,-0.211623 -0.472656,-0.472656 1.8e-5,-0.261033 0.211623,-0.472638 0.472656,-0.472656 0.01106,-3.89e-4 0.02214,-3.89e-4 0.0332,0 z m 8.484375,0.248047 c 0.230418,0.01643 0.40878,0.208451 0.408203,0.439453 -9e-6,0.242699 -0.196754,0.439444 -0.439453,0.439453 -0.242699,-9e-6 -0.439444,-0.196754 -0.439453,-0.439453 9e-6,-0.242699 0.196754,-0.439444 0.439453,-0.439453 0.01041,-3.7e-4 0.02084,-3.7e-4 0.03125,0 z m -7.097657,0.07812 c 0.24932,-3.49e-4 0.451521,0.201852 0.451172,0.451172 3.49e-4,0.24932 -0.201852,0.451521 -0.451172,0.451172 -0.24932,3.49e-4 -0.451521,-0.201852 -0.451172,-0.451172 -3.49e-4,-0.24932 0.201852,-0.451521 0.451172,-0.451172 z m 8.56836,0.273438 c 0.189434,0.01365 0.336097,0.171403 0.335937,0.361328 -3.47e-4,0.199412 -0.161916,0.360981 -0.361328,0.361328 -0.200174,7.31e-4 -0.362933,-0.161153 -0.363281,-0.361328 3.48e-4,-0.200175 0.163107,-0.362059 0.363281,-0.361328 0.0085,-2.97e-4 0.01693,-2.97e-4 0.02539,0 z m -7.066406,0.0293 c 0.207001,0.0147 0.367369,0.187009 0.367187,0.394531 -3.56e-4,0.218509 -0.177976,0.395254 -0.396484,0.394531 -0.217746,-3.55e-4 -0.394176,-0.176785 -0.394532,-0.394531 3.56e-4,-0.217746 0.176786,-0.394176 0.394532,-0.394531 0.0098,-3.62e-4 0.01954,-3.62e-4 0.0293,0 z m 1.474609,0.273437 c 0.207001,0.0147 0.367369,0.187009 0.367187,0.394532 7.23e-4,0.218508 -0.176022,0.396128 -0.394531,0.396484 -0.219272,7.26e-4 -0.39721,-0.177212 -0.396484,-0.396484 3.56e-4,-0.218509 0.177975,-0.395255 0.396484,-0.394532 0.0091,-3.15e-4 0.01823,-3.15e-4 0.02734,0 z m 1.472656,0.144578 c 0.26478,0.0195 0.469442,0.240363 0.46875,0.505859 -2.6e-5,0.279367 -0.226492,0.505833 -0.505859,0.505859 -0.279368,-2.6e-5 -0.505834,-0.226491 -0.50586,-0.505859 2.6e-5,-0.279368 0.226492,-0.505833 0.50586,-0.505859 0.01237,-4.54e-4 0.02474,-4.54e-4 0.03711,0 z m 1.634766,0.269531 c 0.242699,9e-6 0.439444,0.196754 0.439453,0.439453 -9e-6,0.242699 -0.196754,0.439444 -0.439453,0.439453 -0.242699,-9e-6 -0.439444,-0.196754 -0.439453,-0.439453 9e-6,-0.242699 0.196754,-0.439444 0.439453,-0.439453 z m -5.59375,0.414062 c 0.199412,3.47e-4 0.360981,0.161917 0.361328,0.361329 7.31e-4,0.200174 -0.161153,0.362933 -0.361328,0.363281 -0.200175,-3.48e-4 -0.362059,-0.163107 -0.361328,-0.363281 3.47e-4,-0.199412 0.161916,-0.360982 0.361328,-0.361329 z m 7.013672,0.03516 c 0.164271,-7.54e-4 0.297629,0.132604 0.296875,0.296875 -3.31e-4,0.163507 -0.133369,0.29567 -0.296875,0.294921 -0.162744,-3.3e-4 -0.294592,-0.132177 -0.294922,-0.294921 -7.49e-4,-0.163506 0.131414,-0.296545 0.294922,-0.296875 z m -5.572266,0.326175 c 0.16092,0.01128 0.285575,0.145326 0.285156,0.30664 2.6e-5,0.169363 -0.137277,0.306666 -0.30664,0.306641 -0.169364,2.6e-5 -0.306667,-0.137277 -0.306641,-0.306641 -2.5e-5,-0.169363 0.137278,-0.306666 0.306641,-0.30664 0.0072,-2.51e-4 0.01432,-2.51e-4 0.02148,0 z m 1.501953,0.21875 c 0.195283,0.01434 0.346237,0.177238 0.345703,0.373046 8e-6,0.206032 -0.167015,0.373055 -0.373047,0.373047 -0.206031,8e-6 -0.373054,-0.167016 -0.373046,-0.373047 -8e-6,-0.206031 0.167015,-0.373054 0.373046,-0.373046 0.0091,-3.34e-4 0.01823,-3.34e-4 0.02734,0 z m 1.47461,0.296874 c 0.183585,0.01296 0.325959,0.165568 0.326171,0.34961 3.75e-4,0.194317 -0.157245,0.351937 -0.351562,0.351562 -0.194318,3.75e-4 -0.351938,-0.157244 -0.351563,-0.351562 7.04e-4,-0.193555 0.158007,-0.349985 0.351563,-0.34961 0.0085,-3.06e-4 0.01693,-3.06e-4 0.02539,0 z"
       id="path1395-3-0"
       sodipodi:nodetypes="ccccccccccccccccccccccccccccccccccccccccccccccccccccccccccccccccccccccccccccccccccccccccccccccccccccccccccccccccccccccccccccccccccccccccccccccccccccccccccccccccccccccccccccccccccccccccccccccccccccccccccccccccccccccccccccccccccccccccccccccccccccccccccccccccccccccccccccccccccccccccccccccccccccccccccccccccccccccccccccccccccccccccccccccccccccccccccccccccccccccccccccccccccccccccccccccccccccccccccccccccccccccccccccccccccccccccccccccccccccccccccccccccccccccccccccccccccccccccccccccccccccccccccccccccccccccccccccccccccccccccccccccccccccccccccccccccccccccccccccccccccccccccccccccccccccccccccccccccc" />
  </g>
  <title
     id="title9">Face Scar</title>
</svg>
