<?xml version="1.0" encoding="UTF-8" standalone="no"?>
<!--?xml version="1.0" encoding="UTF-8" standalone="no"?-->

<!--?xml version="1.0" encoding="UTF-8" standalone="no"?-->

<!-- Created with Inkscape (http://www.inkscape.org/) -->

<svg
   xmlns:dc="http://purl.org/dc/elements/1.1/"
   xmlns:cc="http://creativecommons.org/ns#"
   xmlns:rdf="http://www.w3.org/1999/02/22-rdf-syntax-ns#"
   xmlns:svg="http://www.w3.org/2000/svg"
   xmlns="http://www.w3.org/2000/svg"
   xmlns:sodipodi="http://sodipodi.sourceforge.net/DTD/sodipodi-0.dtd"
   xmlns:inkscape="http://www.inkscape.org/namespaces/inkscape"
   width="100%"
   height="100%"
   viewBox="0 0 90 90"
   id="svg2"
   version="1.1"
   inkscape:version="0.92.3 (2405546, 2018-03-11)"
   sodipodi:docname="eyes-goat.svg"
   class="face-scar"
   data-z="1050"
   data-slots="eyes"
   data-tags="new+eyes">
  <defs
     id="defs4" />
  <sodipodi:namedview
     id="base"
     pagecolor="#ffffff"
     bordercolor="#666666"
     borderopacity="1.0"
     inkscape:pageopacity="0.0"
     inkscape:pageshadow="2"
     inkscape:zoom="22.577651"
     inkscape:cx="43.41745"
     inkscape:cy="59.141912"
     inkscape:document-units="in"
     inkscape:current-layer="layer1"
     showgrid="true"
     units="in"
     inkscape:window-width="2493"
     inkscape:window-height="1385"
     inkscape:window-x="67"
     inkscape:window-y="54"
     inkscape:window-maximized="1" />
  <metadata
     id="metadata7">
    <rdf:rdf>
      <cc:work
         rdf:about="">
        <dc:format>image/svg+xml</dc:format>
        <dc:type
           rdf:resource="http://purl.org/dc/dcmitype/StillImage" />
        <dc:title>Face Scar</dc:title>
      </cc:work>
    </rdf:rdf>
    <rdf:rdf>
      <cc:work
         rdf:about="">
        <dc:format>image/svg+xml</dc:format>
        <dc:type
           rdf:resource="http://purl.org/dc/dcmitype/StillImage" />
        <dc:title>Face Scar</dc:title>
      </cc:work>
    </rdf:rdf>
    <rdf:RDF>
      <cc:Work
         rdf:about="">
        <dc:format>image/svg+xml</dc:format>
        <dc:type
           rdf:resource="http://purl.org/dc/dcmitype/StillImage" />
        <dc:title>Face Scar</dc:title>
      </cc:Work>
    </rdf:RDF>
  </metadata>
  <g
     inkscape:groupmode="layer"
     id="layer2"
     inkscape:label="FaceScar"
     style="display:inline"
     class="eyes">
    <path
       style="opacity:1;vector-effect:none;fill:#ffffff;fill-opacity:1;stroke:#000000;stroke-width:2.25;stroke-linecap:round;stroke-linejoin:bevel;stroke-miterlimit:4;stroke-dasharray:none;stroke-dashoffset:0;stroke-opacity:1"
       d="m 32.042969,34.328125 a 4.7354641,4.7354641 0 0 1 -4.736328,-4.736328 4.7354641,4.7354641 0 0 1 0.228515,-1.433594 9.4709282,9.4709282 0 0 1 4.507813,-1.144531 9.4709282,9.4709282 0 0 1 4.515625,1.158203 4.7354641,4.7354641 0 0 1 0.21875,1.419922 4.7354641,4.7354641 0 0 1 -4.734375,4.736328 z"
       id="path878"
       inkscape:connector-curvature="0" />
    <path
       style="display:inline;opacity:1;vector-effect:none;fill:#ffffff;fill-opacity:1;stroke:#000000;stroke-width:2.25;stroke-linecap:round;stroke-linejoin:bevel;stroke-miterlimit:4;stroke-dasharray:none;stroke-dashoffset:0;stroke-opacity:1"
       d="m 58.042969,34.328125 a 4.7354641,4.7354641 0 0 1 -4.736328,-4.736328 4.7354641,4.7354641 0 0 1 0.228515,-1.433594 9.4709282,9.4709282 0 0 1 4.507813,-1.144531 9.4709282,9.4709282 0 0 1 4.515625,1.158203 4.7354641,4.7354641 0 0 1 0.21875,1.419922 4.7354641,4.7354641 0 0 1 -4.734375,4.736328 z"
       id="path878-3"
       inkscape:connector-curvature="0" />
  </g>
  <g
     inkscape:groupmode="layer"
     id="layer1"
     class="pupil"
     inkscape:label="pupil">
    <path
       style="color:#000000;display:inline;overflow:visible;fill:#b4b4b4;fill-opacity:1;fill-rule:nonzero;stroke:none;stroke-width:0.55438513;stroke-miterlimit:4;stroke-dasharray:none;marker:none;enable-background:accumulate"
       d="m 34.102662,30.302063 c 0.03793,-0.718508 -0.83316,-1.291311 -1.477077,-1.003521 -0.309809,0.236125 -0.69439,0.08317 -1.022274,-0.01337 -0.510955,-0.199617 -1.080826,0.09646 -1.249566,0.609406 -0.28741,0.637404 0.236435,1.529356 0.964563,1.465318 0.498655,-0.113886 1.053739,-0.273878 1.539283,-0.02381 0.615688,0.182588 1.271691,-0.416765 1.245071,-1.034023 z"
       id="path6632"
       inkscape:connector-curvature="0" />
    <path
       style="color:#000000;display:inline;overflow:visible;fill:#b4b4b4;fill-opacity:1;fill-rule:nonzero;stroke:none;stroke-width:0.55438513;stroke-miterlimit:4;stroke-dasharray:none;marker:none;enable-background:accumulate"
       d="m 60.101824,30.434938 c 0.03793,-0.718508 -0.83316,-1.291311 -1.477077,-1.003521 -0.309809,0.236125 -0.69439,0.08317 -1.022274,-0.01337 -0.510955,-0.199617 -1.080826,0.09646 -1.249566,0.609406 -0.28741,0.637404 0.236435,1.529356 0.964563,1.465318 0.498655,-0.113886 1.053739,-0.273878 1.539283,-0.02381 0.615688,0.182588 1.271691,-0.416765 1.245071,-1.034023 z"
       id="path6632-3"
       inkscape:connector-curvature="0" />
  </g>
  <title
     id="title9">Face Scar</title>
</svg>
