<?xml version="1.0" encoding="UTF-8" standalone="no"?>
<!--?xml version="1.0" encoding="UTF-8" standalone="no"?-->

<!--?xml version="1.0" encoding="UTF-8" standalone="no"?-->

<svg
   xmlns:tokenerator="http://dougrich.net/tokens"
   xmlns:dc="http://purl.org/dc/elements/1.1/"
   xmlns:cc="http://creativecommons.org/ns#"
   xmlns:rdf="http://www.w3.org/1999/02/22-rdf-syntax-ns#"
   xmlns:svg="http://www.w3.org/2000/svg"
   xmlns="http://www.w3.org/2000/svg"
   xmlns:sodipodi="http://sodipodi.sourceforge.net/DTD/sodipodi-0.dtd"
   xmlns:inkscape="http://www.inkscape.org/namespaces/inkscape"
   viewBox="0 0 90 90"
   id="crocodile-snout"
   class="crocodile-snout"
   version="1.1"
   sodipodi:docname="face-mask-circle.svg"
   inkscape:version="0.92.3 (2405546, 2018-03-11)"
   data-z="860"
   data-slots="face"
   data-tags="new+face">
  <defs
     id="defs10" />
  <sodipodi:namedview
     pagecolor="#ffffff"
     bordercolor="#666666"
     borderopacity="1"
     objecttolerance="10"
     gridtolerance="10"
     guidetolerance="10"
     inkscape:pageopacity="0"
     inkscape:pageshadow="2"
     inkscape:window-width="2493"
     inkscape:window-height="1385"
     id="namedview8"
     showgrid="false"
     inkscape:zoom="10.488889"
     inkscape:cx="51.533336"
     inkscape:cy="57.080516"
     inkscape:window-x="67"
     inkscape:window-y="54"
     inkscape:window-maximized="1"
     inkscape:current-layer="layer1"
     inkscape:lockguides="false"
     showguides="false" />
  <metadata
     id="metadata2">
    <tokenerator:name>Crocodile Snout</tokenerator:name>
    <tokenerator:author>Douglas Richardson</tokenerator:author>
    <tokenerator:z>860</tokenerator:z>
    <tokenerator:variants
       collision="face" />
    <tokenerator:availability
       type="visible" />
    <rdf:rdf>
      <cc:work
         rdf:about="">
        <dc:format>image/svg+xml</dc:format>
        <dc:type
           rdf:resource="http://purl.org/dc/dcmitype/StillImage" />
        <dc:title />
      </cc:work>
    </rdf:rdf>
    <rdf:rdf>
      <cc:work
         rdf:about="">
        <dc:format>image/svg+xml</dc:format>
        <dc:type
           rdf:resource="http://purl.org/dc/dcmitype/StillImage" />
        <dc:title />
      </cc:work>
    </rdf:rdf>
    <rdf:RDF>
      <cc:Work
         rdf:about="">
        <dc:format>image/svg+xml</dc:format>
        <dc:type
           rdf:resource="http://purl.org/dc/dcmitype/StillImage" />
        <dc:title></dc:title>
      </cc:Work>
    </rdf:RDF>
  </metadata>
  <g
     inkscape:groupmode="layer"
     id="layer4"
     class="straps"
     inkscape:label="straps">
    <path
       style="color:#000000;font-style:normal;font-variant:normal;font-weight:normal;font-stretch:normal;font-size:medium;line-height:normal;font-family:sans-serif;font-variant-ligatures:normal;font-variant-position:normal;font-variant-caps:normal;font-variant-numeric:normal;font-variant-alternates:normal;font-feature-settings:normal;text-indent:0;text-align:start;text-decoration:none;text-decoration-line:none;text-decoration-style:solid;text-decoration-color:#000000;letter-spacing:normal;word-spacing:normal;text-transform:none;writing-mode:lr-tb;direction:ltr;text-orientation:mixed;dominant-baseline:auto;baseline-shift:baseline;text-anchor:start;white-space:normal;shape-padding:0;clip-rule:nonzero;display:inline;overflow:visible;visibility:visible;opacity:1;isolation:auto;mix-blend-mode:normal;color-interpolation:sRGB;color-interpolation-filters:linearRGB;solid-color:#000000;solid-opacity:1;vector-effect:none;fill:#b4b4b4;fill-opacity:1;fill-rule:nonzero;stroke:#000000;stroke-width:2.20799994;stroke-linecap:butt;stroke-linejoin:miter;stroke-miterlimit:4;stroke-dasharray:none;stroke-dashoffset:0;stroke-opacity:1;color-rendering:auto;image-rendering:auto;shape-rendering:auto;text-rendering:auto;enable-background:accumulate"
       d="M 18.005859 21.228516 A 36 36 0 0 0 14.296875 26.289062 C 14.521751 30.350081 14.982667 34.922845 15.486328 39.138672 C 16.295215 45.909357 17.169922 51.539063 17.169922 51.539062 L 20.964844 50.949219 C 20.964844 50.949219 20.098786 45.377587 19.298828 38.681641 C 18.572935 32.605657 17.938266 25.61316 18.005859 21.228516 z "
       id="path900" />
    <path
       style="color:#000000;font-style:normal;font-variant:normal;font-weight:normal;font-stretch:normal;font-size:medium;line-height:normal;font-family:sans-serif;font-variant-ligatures:normal;font-variant-position:normal;font-variant-caps:normal;font-variant-numeric:normal;font-variant-alternates:normal;font-feature-settings:normal;text-indent:0;text-align:start;text-decoration:none;text-decoration-line:none;text-decoration-style:solid;text-decoration-color:#000000;letter-spacing:normal;word-spacing:normal;text-transform:none;writing-mode:lr-tb;direction:ltr;text-orientation:mixed;dominant-baseline:auto;baseline-shift:baseline;text-anchor:start;white-space:normal;shape-padding:0;clip-rule:nonzero;display:inline;overflow:visible;visibility:visible;opacity:1;isolation:auto;mix-blend-mode:normal;color-interpolation:sRGB;color-interpolation-filters:linearRGB;solid-color:#000000;solid-opacity:1;vector-effect:none;fill:#b4b4b4;fill-opacity:1;fill-rule:nonzero;stroke:#000000;stroke-width:2.20799994;stroke-linecap:butt;stroke-linejoin:miter;stroke-miterlimit:4;stroke-dasharray:none;stroke-dashoffset:0;stroke-opacity:1;color-rendering:auto;image-rendering:auto;shape-rendering:auto;text-rendering:auto;enable-background:accumulate"
       d="M 72.685547 22.037109 C 71.815973 34.250587 68.523438 51.404297 68.523438 51.404297 L 72.292969 52.136719 C 72.292969 52.136719 74.872475 38.826688 76.101562 26.957031 A 36 36 0 0 0 72.685547 22.037109 z "
       id="path902" />
    <path
       style="color:#000000;font-style:normal;font-variant:normal;font-weight:normal;font-stretch:normal;font-size:medium;line-height:normal;font-family:sans-serif;font-variant-ligatures:normal;font-variant-position:normal;font-variant-caps:normal;font-variant-numeric:normal;font-variant-alternates:normal;font-feature-settings:normal;text-indent:0;text-align:start;text-decoration:none;text-decoration-line:none;text-decoration-style:solid;text-decoration-color:#000000;letter-spacing:normal;word-spacing:normal;text-transform:none;writing-mode:lr-tb;direction:ltr;text-orientation:mixed;dominant-baseline:auto;baseline-shift:baseline;text-anchor:start;white-space:normal;shape-padding:0;clip-rule:nonzero;display:inline;overflow:visible;visibility:visible;opacity:1;isolation:auto;mix-blend-mode:normal;color-interpolation:sRGB;color-interpolation-filters:linearRGB;solid-color:#000000;solid-opacity:1;vector-effect:none;fill:#b4b4b4;fill-opacity:1;fill-rule:nonzero;stroke:#000000;stroke-width:2.20799994;stroke-linecap:butt;stroke-linejoin:miter;stroke-miterlimit:4;stroke-dasharray:none;stroke-dashoffset:0;stroke-opacity:1;color-rendering:auto;image-rendering:auto;shape-rendering:auto;text-rendering:auto;enable-background:accumulate"
       d="M 78.693359 57.556641 C 74.942696 59.495576 67.634169 63.054386 62.869141 64.113281 L 63.701172 67.863281 C 67.47086 67.025574 72.256042 65.016944 75.990234 63.244141 A 36 36 0 0 0 78.693359 57.556641 z "
       id="path904" />
    <path
       style="color:#000000;font-style:normal;font-variant:normal;font-weight:normal;font-stretch:normal;font-size:medium;line-height:normal;font-family:sans-serif;font-variant-ligatures:normal;font-variant-position:normal;font-variant-caps:normal;font-variant-numeric:normal;font-variant-alternates:normal;font-feature-settings:normal;text-indent:0;text-align:start;text-decoration:none;text-decoration-line:none;text-decoration-style:solid;text-decoration-color:#000000;letter-spacing:normal;word-spacing:normal;text-transform:none;writing-mode:lr-tb;direction:ltr;text-orientation:mixed;dominant-baseline:auto;baseline-shift:baseline;text-anchor:start;white-space:normal;shape-padding:0;clip-rule:nonzero;display:inline;overflow:visible;visibility:visible;opacity:1;isolation:auto;mix-blend-mode:normal;color-interpolation:sRGB;color-interpolation-filters:linearRGB;solid-color:#000000;solid-opacity:1;vector-effect:none;fill:#b4b4b4;fill-opacity:1;fill-rule:nonzero;stroke:#000000;stroke-width:2.20799994;stroke-linecap:butt;stroke-linejoin:miter;stroke-miterlimit:4;stroke-dasharray:none;stroke-dashoffset:0;stroke-opacity:1;color-rendering:auto;image-rendering:auto;shape-rendering:auto;text-rendering:auto;enable-background:accumulate"
       d="M 12.966797 61.419922 A 36 36 0 0 0 16.052734 66.332031 C 18.687969 66.968522 21.908436 67.5309 25.855469 67.863281 L 26.177734 64.037109 C 19.954508 63.513048 15.729931 62.412984 12.966797 61.419922 z "
       id="path906" />
  </g>
  <g
     inkscape:groupmode="layer"
     id="layer2"
     class="mask"
     inkscape:label="mask"
     style="display:inline">
    <path
       style="fill:#ffffff;fill-opacity:1;stroke:#000000;stroke-width:2.20799994;stroke-linecap:butt;stroke-linejoin:miter;stroke-miterlimit:4;stroke-dasharray:none;stroke-opacity:1"
       d="m 25.855375,67.862603 c -7.263,-5.356952 -8.362584,-9.929521 -8.980611,-18.848195 20.10786,-3.883306 37.17299,-3.774565 55.806978,0 -0.618027,8.918674 -1.717611,13.491243 -8.980611,18.848195 -13.34351,3.966639 -24.071862,3.879728 -37.845756,0 z"
       id="path860"
       inkscape:connector-curvature="0"
       sodipodi:nodetypes="ccccc" />
  </g>
  <g
     inkscape:groupmode="layer"
     id="layer1"
     class="symbol"
     inkscape:label="symbol">
    <path
       style="fill:#b4b4b4;fill-opacity:1;stroke:none;stroke-width:1.23630583px;stroke-linecap:butt;stroke-linejoin:miter;stroke-opacity:1"
       d="m 40.530621,47.475999 c -3.010526,-0.07673 -6.119158,1.314647 -7.119141,3.373047 -1.164996,2.398072 -2.122183,6.447908 -0.763672,9.837891 -0.181372,0.1617 -0.37997,0.326722 -0.548828,0.486328 -1.52043,1.437124 -2.577243,2.668835 -2.951172,4.148437 l 2.910157,0.734375 c 0.06943,-0.274719 0.781421,-1.455317 2.101562,-2.703125 0.04034,-0.03813 0.09144,-0.08069 0.132813,-0.11914 0.287952,0.298215 0.595993,0.587833 0.949218,0.855468 6.201188,4.698574 11.140625,-0.04297 11.140625,-0.04297 l -3.169922,-4.917969 c -1.260568,0.471389 -2.556732,0.575115 -3.658203,0.236328 0.03042,-0.01837 0.05732,-0.03633 0.08789,-0.05469 1.588274,-0.953733 3.38266,-1.877284 5.316406,-2.714844 0.477277,1.435169 1.033917,3.313558 2.560547,5.927734 3.435688,5.883216 10.378906,5.355469 10.378906,5.355469 l -0.996093,-6.123047 c 0,0 -3.168471,1.044028 -5.632813,-2.253906 -1.081104,-1.446798 -1.700161,-2.921288 -2.341797,-4.40625 2.57548,-0.844884 5.316647,-1.503739 8.164063,-1.835938 l -0.347657,-2.978515 c -3.216926,0.375308 -6.282631,1.126282 -9.140624,2.089843 -0.564237,-1.000343 -1.250243,-2.001677 -2.236329,-3 -1.258649,-1.274268 -3.029622,-1.84849 -4.835937,-1.894531 z m -0.53711,5.121094 c 0.549681,-0.02703 1.16872,0.07176 1.857422,0.335937 0.753404,0.289001 1.286056,0.618725 1.695313,1.00586 -1.972191,0.866783 -3.81062,1.814877 -5.449219,2.798828 -0.300891,0.18068 -0.57503,0.364576 -0.863281,0.546875 -0.08433,-0.188077 -0.162404,-0.384123 -0.226563,-0.597656 -0.451973,-1.504277 0.604379,-3.972712 2.986328,-4.089844 z"
       id="path849"
       inkscape:connector-curvature="0" />
  </g>
  <g
     inkscape:groupmode="layer"
     id="g17"
     inkscape:label="stripes">
    <path
       style="fill:none;stroke:#000000;stroke-width:1.24800003;stroke-linecap:butt;stroke-linejoin:miter;stroke-miterlimit:4;stroke-dasharray:none;stroke-opacity:1"
       d="m 25.264831,63.638771 c 3.908898,2.192797 35.895126,3.003178 39.231991,-0.333686"
       id="path877"
       inkscape:connector-curvature="0" />
    <path
       style="display:inline;fill:none;stroke:#000000;stroke-width:1.24800003;stroke-linecap:butt;stroke-linejoin:miter;stroke-miterlimit:4;stroke-dasharray:none;stroke-opacity:1"
       d="m 22.236424,57.818351 c 4.509189,1.221862 41.407554,1.673419 45.256863,-0.185935"
       id="path877-7"
       inkscape:connector-curvature="0" />
    <path
       style="display:inline;fill:none;stroke:#000000;stroke-width:1.24800003;stroke-linecap:butt;stroke-linejoin:miter;stroke-miterlimit:4;stroke-dasharray:none;stroke-opacity:1"
       d="m 21.602528,52.750206 c 4.635121,-1.070681 42.563979,-1.466367 46.520791,0.16293"
       id="path877-5"
       inkscape:connector-curvature="0" />
  </g>
</svg>
