<!--?xml version="1.0" encoding="UTF-8" standalone="no"?--><!-- Created with Inkscape (http://www.inkscape.org/) --><svg xmlns:dc="http://purl.org/dc/elements/1.1/" xmlns:cc="http://creativecommons.org/ns#" xmlns:rdf="http://www.w3.org/1999/02/22-rdf-syntax-ns#" xmlns:svg="http://www.w3.org/2000/svg" xmlns="http://www.w3.org/2000/svg" xmlns:sodipodi="http://sodipodi.sourceforge.net/DTD/sodipodi-0.dtd" xmlns:inkscape="http://www.inkscape.org/namespaces/inkscape" width="100%" height="100%" viewBox="0 0 90 90" id="svg2" version="1.1" inkscape:version="0.48.4 r9939" sodipodi:docname="frog.svg" class="frog" data-z="100" data-slots="body" data-tags="animals+body">
  <defs id="defs4"/>
  <sodipodi:namedview id="base" pagecolor="#ffffff" bordercolor="#666666" borderopacity="1.0" inkscape:pageopacity="0.0" inkscape:pageshadow="2" inkscape:zoom="2.7708659" inkscape:cx="66.627482" inkscape:cy="46.314225" inkscape:document-units="in" inkscape:current-layer="layer2" showgrid="false" units="in" inkscape:window-width="1920" inkscape:window-height="1003" inkscape:window-x="-9" inkscape:window-y="-9" inkscape:window-maximized="1">
    <inkscape:grid type="xygrid" id="grid2994" empspacing="5" visible="true" enabled="true" snapvisiblegridlinesonly="true" units="in" spacingx="0.014in" spacingy="0.014in"/>
  </sodipodi:namedview>
  <metadata id="metadata7">
    <rdf:rdf>
      <cc:work rdf:about="">
        <dc:format>image/svg+xml</dc:format>
        <dc:type rdf:resource="http://purl.org/dc/dcmitype/StillImage"/>
        <dc:title/>
      </cc:work>
    </rdf:rdf>
  </metadata>
  <g inkscape:label="Body" inkscape:groupmode="layer" id="layer1" class="body" transform="translate(0,-962.35975)" style="display:inline">
    <path inkscape:connector-curvature="0" style="fill:#ffffff;fill-opacity:1;stroke:#000000;stroke-width:2.25;stroke-linecap:round;stroke-miterlimit:4;stroke-opacity:1;stroke-dasharray:none;stroke-dashoffset:0" d="m 22.0625,969.6723 c -6.46173,0 -11.71875,5.2257 -11.71875,11.6875 0,3.1993 1.28944,6.1096 3.375,8.2187 C 10.72745,994.8277 9,1000.8858 9,1007.3598 c 0,19.8822 16.11775,36 36,36 19.88225,0 36,-16.1178 36,-36 0,-6.474 -1.72745,-12.5321 -4.71875,-17.7813 2.07783,-2.1091 3.34375,-5.0194 3.34375,-8.2187 0,-6.4618 -5.22577,-11.6875 -11.6875,-11.6875 -3.72129,0 -7.0393,1.7332 -9.1875,4.4375 -4.24091,-1.7566 -8.87407,-2.75 -13.75,-2.75 -4.88621,0 -9.53313,0.9864 -13.78125,2.75 -2.13969,-2.6977 -5.44025,-4.4375 -9.15625,-4.4375 z" id="path3829-1-5-74-4-94-7"/>
  </g>
  <g inkscape:groupmode="layer" id="layer3" class="eyes" inkscape:label="Eyes">
    <path sodipodi:type="arc" style="color:#000000;fill:#000000;fill-opacity:1;fill-rule:nonzero;stroke:none;stroke-width:0;stroke-linecap:butt;stroke-linejoin:miter;stroke-miterlimit:4;stroke-opacity:1;stroke-dasharray:none;stroke-dashoffset:0;marker:none;visibility:visible;display:inline;overflow:visible;enable-background:accumulate" id="path7687" sodipodi:cx="-249.3" sodipodi:cy="107.1" sodipodi:rx="2.7" sodipodi:ry="2.7" d="m -246.6,107.1 a 2.7,2.7 0 1 1 -5.4,0 2.7,2.7 0 1 1 5.4,0 z" transform="matrix(1.4861111,0,0,1.5092592,392.5,-143.16666)"/>
    <path sodipodi:type="arc" style="color:#000000;fill:#000000;fill-opacity:1;fill-rule:nonzero;stroke:none;stroke-width:0;stroke-linecap:butt;stroke-linejoin:miter;stroke-miterlimit:4;stroke-opacity:1;stroke-dasharray:none;stroke-dashoffset:0;marker:none;visibility:visible;display:inline;overflow:visible;enable-background:accumulate" id="path7687-1" sodipodi:cx="-249.3" sodipodi:cy="107.1" sodipodi:rx="2.7" sodipodi:ry="2.7" d="m -246.6,107.1 a 2.7,2.7 0 1 1 -5.4,0 2.7,2.7 0 1 1 5.4,0 z" transform="matrix(1.4861111,0,0,1.5092592,438.49,-143.16666)"/>
  </g>
  <g inkscape:groupmode="layer" id="layer2" class="belly" inkscape:label="Belly">
    <path inkscape:connector-curvature="0" style="fill:#b4b4b4;fill-opacity:1;stroke:#000000;stroke-width:2.25000000000000000;stroke-linecap:round;stroke-miterlimit:4;stroke-opacity:1;stroke-dasharray:none;stroke-dashoffset:0;display:inline" d="m 23.40625,43.18755 c 1.8,9 7.28186,7.3762 9,10.8125 3.42907,6.8581 2.50793,17.9245 1.375,25.1875 2.33215,0.7642 4.76634,1.3203 7.28125,1.5937 2.2303,0.1021 4.20208,0.1584 5.78125,0.1875 0.011,2e-4 0.0204,-2e-4 0.0312,0 3.24414,-0.1672 6.38243,-0.8108 9.34375,-1.7812 -1.13293,-7.263 -2.05407,-18.3294 1.375,-25.1875 1.71814,-3.4363 7.2,-1.8125 9,-10.8125 -0.19755,0.028 -0.39707,0.067 -0.59375,0.094 -12.34776,1.7162 -30.1913,1.6779 -42.59375,-0.094 z" id="path3829-1-5-74-4-94-7-6"/>
  </g>
</svg>
