<!--?xml version="1.0" encoding="UTF-8" standalone="no"?--><!-- Created with Inkscape (http://www.inkscape.org/) --><svg xmlns:dc="http://purl.org/dc/elements/1.1/" xmlns:cc="http://creativecommons.org/ns#" xmlns:rdf="http://www.w3.org/1999/02/22-rdf-syntax-ns#" xmlns:svg="http://www.w3.org/2000/svg" xmlns="http://www.w3.org/2000/svg" xmlns:sodipodi="http://sodipodi.sourceforge.net/DTD/sodipodi-0.dtd" xmlns:inkscape="http://www.inkscape.org/namespaces/inkscape" width="100%" height="100%" viewBox="0 0 90 90" id="svg2" version="1.1" inkscape:version="0.48.4 r9939" sodipodi:docname="fuzzy-cape.svg" class="fuzzy-cape" data-z="0" data-slots="back" data-tags="clothing+back">
  <defs id="defs4">
    <inkscape:path-effect effect="sketch" id="path-effect5121-4" is_visible="true" nbiter_approxstrokes="3" strokelength="1" strokelength_rdm="0;1" strokeoverlap="0.1" strokeoverlap_rdm="0;1" ends_tolerance="0.9;1" parallel_offset="0.9;1" tremble_size="1.5;1" tremble_frequency="0.01" nbtangents="0" tgt_places_rdmness="1;1" tgtscale="10.5" tgtlength="100" tgtlength_rdm="0.1;1"/>
    <inkscape:path-effect effect="sketch" id="path-effect5121-7" is_visible="true" nbiter_approxstrokes="3" strokelength="1" strokelength_rdm="0;1" strokeoverlap="0.1" strokeoverlap_rdm="0;1" ends_tolerance="0.9;1" parallel_offset="0.9;1" tremble_size="1.5;1" tremble_frequency="0.01" nbtangents="0" tgt_places_rdmness="1;1" tgtscale="10.5" tgtlength="100" tgtlength_rdm="0.1;1"/>
    <inkscape:path-effect effect="sketch" id="path-effect5257" is_visible="true" nbiter_approxstrokes="2" strokelength="1" strokelength_rdm="0.1;1" strokeoverlap="0" strokeoverlap_rdm="0;1" ends_tolerance="0;1" parallel_offset="0.8;1" tremble_size="0.7;1" tremble_frequency="1" nbtangents="0" tgt_places_rdmness="1;1" tgtscale="10" tgtlength="100" tgtlength_rdm="0.3;1"/>
  </defs>
  <sodipodi:namedview id="base" pagecolor="#ffffff" bordercolor="#666666" borderopacity="1.0" inkscape:pageopacity="0.0" inkscape:pageshadow="2" inkscape:zoom="5.6444128" inkscape:cx="60.002932" inkscape:cy="5.5295213" inkscape:document-units="in" inkscape:current-layer="layer1" showgrid="false" units="in" inkscape:window-width="1920" inkscape:window-height="1017" inkscape:window-x="-8" inkscape:window-y="-8" inkscape:window-maximized="1">
    <inkscape:grid type="xygrid" id="grid2994" empspacing="5" visible="true" enabled="true" snapvisiblegridlinesonly="true" units="in" spacingx="0.014in" spacingy="0.014in"/>
  </sodipodi:namedview>
  <metadata id="metadata7">
    <rdf:rdf>
      <cc:work rdf:about="">
        <dc:format>image/svg+xml</dc:format>
        <dc:type rdf:resource="http://purl.org/dc/dcmitype/StillImage"/>
        <dc:title/>
      </cc:work>
    </rdf:rdf>
  </metadata>
  <g inkscape:label="Body" inkscape:groupmode="layer" id="layer1" class="cape" transform="translate(0,-962.35975)" style="display:inline">
    <path sodipodi:nodetypes="cccccccccccccccc" inkscape:connector-curvature="0" d="m 81,1007.3597 5.4,36.0001 c 0,1.8 -1.8,3.6 -5.4,3.6 -3.6,0 -7.2,0 -9,-1.8 -1.8,1.8 -5.4,3.6 -9,3.6 -1.8,0 -7.2,0 -9,-1.8 -1.8,1.8 -7.2,1.8 -9,1.8 -1.8,0 -7.2,0 -9,-1.8 -1.8,1.8 -5.4,1.8 -9,1.8 -3.6,0 -7.2,-1.8 -9,-3.6 -1.8,1.8 -7.2,1.8 -9,1.8 -1.8,0 -5.4,0 -5.4,-3.6 l 5.4,-36.0001 18,0 36,0 z" style="fill:#ffffff;fill-opacity:1;stroke:none" id="path3958-7-1-6-6"/>
    <path inkscape:connector-curvature="0" id="path3958-7-1-6" d="m 81.463123,1008.5483 c 0.2324,0.1718 0.167796,0.8158 -0.02591,0.9583 m -0.07852,-1.6309 c -0.03023,0.2293 0.352613,0.5364 0.510921,0.9967 m -1.164285,0.8865 c -0.135684,0.2233 -0.07661,0.2208 0.209442,0.3594 m 0.831526,0.6442 c 0.247552,0.4746 -0.03299,0.7622 0.394678,1.2171 m -0.344887,-1.7435 c -0.15209,0.4893 -0.306667,1.056 -0.61555,1.8249 m 1.259251,-0.9703 c -0.01498,0.2199 -0.419071,0.6729 -1.003929,1.1273 m 0.49634,0.714 c 0.137662,0.3578 0.225794,0.6806 0.266168,1.2233 m -0.377715,-0.1484 c 0.169925,0.2108 0.514251,0.6772 1.029236,0.9671 m -1.038323,-0.903 c -0.137504,0.4945 -0.06754,0.704 -0.07133,0.5392 m 1.312349,0.9564 c 0.2277,0.1149 0.254044,0.8378 -0.03715,1.3685 m -0.660618,-0.5099 c 0.235977,0.4733 0.108478,0.5623 -0.437115,0.4045 m -0.158625,-0.5639 c 0.214643,0.3965 0.145232,0.6345 -0.209706,0.8211 m 0.768039,2.8479 c -0.0062,0.1824 0.01135,0.4385 0.378477,-0.1808 m -0.421115,0.8087 c -0.02851,0.3846 0.223578,0.437 0.490595,0.6965 m -0.308888,-1.3203 c -0.138214,0.17 0.0653,0.6065 0.312489,0.6064 m 0.706366,1.2386 c -0.03005,0.4091 0.27495,0.8152 0.420479,1.2013 m -0.482024,-1.4984 c -0.0433,0.4905 -0.0096,0.8012 -0.21673,1.1053 -2.12e-4,3e-4 -4.24e-4,6e-4 -6.36e-4,9e-4 m -0.705472,0.1817 c 0.07466,0.3627 0.174876,0.4717 0.971866,0.606 0.0027,5e-4 0.0054,9e-4 0.0081,10e-4 m 0.951214,-0.3824 c -0.02056,0.3391 0.02845,0.9138 -0.196118,1.9301 m -1.459575,0.9817 c 0.05453,0.4255 -0.07601,0.2171 0.009,0.3427 m 0.749385,-0.8217 c -0.144141,0.5023 -0.08719,0.8192 -0.434328,1.7108 m 1.099065,1.0124 c -0.02837,0.2793 0.311968,0.6393 0.499313,0.9368 6.36e-4,10e-4 0.0013,0 0.0019,0 m 0.239486,-0.7858 c 0.23266,0.1429 0.09901,0.5463 0.407344,0.6915 m -1.567725,0.1111 c 0.111929,0.1879 0.03879,0.4 0.341766,0.8794 0.0025,0 0.0049,0.01 0.0073,0.012 m -0.210193,-0.065 c 0.06321,0.4702 -0.146603,0.7974 -0.565352,1.16 m 0.815507,-0.447 c 0.009,0.4203 -0.1777,0.4088 -0.392049,0.6521 m 0.664988,0.8052 c 0.126768,0.2983 0.125809,1.006 0.385564,1.4901 m -0.222436,0.041 c 0.09539,0.4088 0.189049,0.5004 0.285885,0.4621 m 0.807934,0.1539 c -0.118418,0.3118 0.02662,0.5255 -0.269405,0.6555 m -1.12318,0.055 c -0.105639,0.4362 0.08572,0.2369 0.315695,-0.091 0.0017,0 0.0034,-0.01 0.005,-0.01 m 0.659138,0.842 c 0.233943,0.346 0.255838,0.7012 0.08247,1.6248 m 0.0808,-0.4672 c 0.0064,0.3838 0.383784,0.5635 0.560835,0.9311 m -0.258265,-0.5879 c -0.141256,0.115 -0.09774,0.4945 0.175512,1.0318 m 1.007373,0.4157 c 0.171641,0.2769 -0.100405,0.394 -1.052914,0.6499 m 0.753278,-0.063 c 0.0048,0.4947 -0.192147,0.3452 -0.697862,-0.047 m 0.248265,1.9977 c 0.176151,0.1713 -0.246946,0.8243 -0.345058,1.2639 m 0.998007,-1.4003 c -0.07518,0.4031 -0.351049,0.4002 -0.813401,0.7224 m -0.07493,1.6841 c -0.07431,0.1311 0.180574,0.5996 0.549912,0.8374 0.0018,0 0.0037,0 0.0055,0 m 0.8982,-0.6226 c -0.02124,0.077 -0.03168,0.1399 -0.03513,0.1933 -0.05869,0.282 0.03744,0.2984 -0.276871,0.7331 m -0.176604,-1.5413 c -0.0028,0.4732 -0.356686,0.9838 -0.822595,1.6782 m 0.811212,1.226 c -0.08707,0.386 -0.462845,0.425 -0.941484,0.4848 m 0.325413,-0.395 c -0.235965,-0.01 -0.534278,0.2174 -1.3616,0.3186 m 0.624133,0.047 c -0.265779,0.1022 -0.84933,0.2821 -1.909021,0.241 m 1.077059,0.6607 c -0.105046,-0.012 -0.813504,0.084 -1.443221,-0.4198 m -0.760228,0.011 c -0.357209,-0.087 -0.475536,0.1209 -1.035885,0.1898 m 0.394872,0.5148 c -0.196821,0.089 -0.318051,-0.1859 -0.557754,-0.4619 -0.05814,-0.067 -0.123155,-0.1319 -0.198085,-0.1885 m -0.961716,0.1966 c -0.519229,-0.1943 -0.78779,0.3839 -0.863908,1.0099 -4.1e-4,0 -8.38e-4,0.01 -0.0013,0.01 m -0.137463,-0.6853 c -0.394863,0.1615 -0.605433,-0.1242 -0.87828,-0.2562 m -0.492581,0.078 c -0.287809,-0.1418 -0.91944,0.1636 -1.193281,0.2129 0,0 0,0 0,0 -0.0026,4e-4 -0.0052,9e-4 -0.0078,10e-4 m 0.116194,-0.6067 c -0.443136,-0.2214 -0.576815,-0.057 -0.204114,0.3612 m 0.875053,-0.7579 c -0.328971,-0.1085 -1.066966,0.1029 -2.192989,0.5921 m 0.995177,-0.2756 c -0.01209,0 -0.02514,0 -0.03877,0 -0.179687,-0.031 -0.442083,-0.2517 -0.04419,-0.5335 m -0.985652,-0.6425 c -0.508882,-0.1656 -0.759642,-0.036 -1.458962,0.6213 m -0.281354,1.3078 c -0.199243,-0.1005 -0.577404,-0.3649 -0.906016,-0.784 m 0.314666,-1.4321 c -0.383494,-0.3329 -0.643532,-0.1945 -0.397699,-0.4204 0,0 0,0 0,0 5.54e-4,-5e-4 0.0011,0 0.0016,0 m 0.169683,0.2868 c -0.115231,-0.1185 -0.260196,-0.1412 -0.367977,-0.1162 -0.109428,0.2444 -0.196123,0.5507 -0.172183,0.871 m -0.254365,0.1268 c -0.403886,0.089 -0.707369,0.1751 -1.308351,-0.1477 m 1.397349,-0.01 c -0.373204,0.055 -0.570391,0.2232 -0.844374,0.6641 m -1.363627,-0.1574 c -0.17615,0.2291 -0.264719,0.062 -0.436149,0.2338 m 0.243966,0.4107 c -0.470636,0.083 -0.345634,0.425 -0.585082,0.3191 m -0.209357,-0.1746 c -0.355144,0.052 -0.900223,0.1768 -2.092882,0 m 1.294884,0.9331 c -0.416816,0.1508 -0.621882,0.3073 -1.444916,0.1044 m 0.516549,-0.8517 c -0.470707,8e-4 -0.364229,0.2188 -0.255874,0.097 m -0.05175,1.6661 c -0.310647,-0.053 -0.532727,0.063 -0.689091,-0.2152 m -0.03224,-0.034 c -0.397957,0.2413 -1.013278,0.1023 -1.56638,0.034 m 0.985756,-0.4693 c -0.183953,-0.1459 -0.997709,0.1572 -1.891337,0.5763 m 0.07433,-0.2496 c -0.01149,0 -0.02285,0 -0.0341,-0.01 -0.363803,-0.086 -0.699684,-0.1956 -0.760511,-0.6702 m -0.877705,0.9634 c -0.08189,0.042 -0.27221,0.032 -0.497143,0.01 -0.224933,-0.024 -0.484255,-0.062 -0.6508,-0.051 m 0.221364,-0.4165 c -0.262016,0.068 -0.385917,0.082 -0.08056,0.011 m -0.974748,0.2417 c -0.510474,0.1226 -0.543175,0.128 -0.27016,-0.1661 0,0 10e-7,0 10e-7,0 4.85e-4,-5e-4 9.66e-4,-10e-4 0.0014,0 m -0.0807,-1.2456 c -0.102522,-0.086 -0.522567,-0.1963 -0.989584,-0.1294 -0.100116,0.014 -0.202272,0.037 -0.303666,0.07 m 1.078833,1.2345 c -0.191771,0.1469 -0.745959,-0.2989 -1.083438,-0.6171 m -1.241602,0.8858 c -0.212934,-0.1203 -0.463653,-0.4999 -1.059811,-0.8099 m 0.06329,0.6614 c -0.13509,0.027 -0.563068,-0.043 -0.260849,-0.33 m 0.0042,-1.7044 c -0.293749,0.08 -0.635089,-0.1249 -0.894492,0.019 m -1.044995,0.5431 c -0.434868,-0.3038 -0.382707,-0.4242 -0.476446,-0.5448 -0.0029,0.01 -0.0061,0.017 -0.0094,0.025 m 0.538651,0.4209 c -0.391717,0.1576 -0.796817,0.4388 -1.460247,0.3883 m 1.020777,-0.4197 c -0.235097,0.07 -0.707556,0.091 -1.346144,0.2388 m 1.124901,0.1104 c -0.389551,0.01 -0.914118,0.2047 -1.263917,0.217 m -0.36441,0.2963 c -0.432842,0.053 -0.573069,0.2155 -0.880944,-0.023 0,0 0,0 0,0 -0.0025,0 -0.0049,0 -0.0074,-0.01 m -0.262605,1.1308 c -0.308867,0 -0.411776,0.125 -0.615939,-0.3082 m 0.284047,-0.5073 c -0.05028,4e-4 -0.09909,0 -0.144319,0.01 -0.224258,0.02 -0.358204,0.063 -0.16009,-0.067 m -1.619174,-0.302 c -0.48358,0.2131 -0.650408,0.1641 -0.823198,0.7643 m 0.347449,1.016 c -0.482658,0.1877 -0.512847,0.069 -0.399244,-0.1423 m -0.263918,-2.062 c -0.131293,-0.094 -0.380765,-0.034 -0.635965,0.055 -0.2552,0.09 -0.515877,0.209 -0.70894,0.277 m 0.30033,-0.072 c -0.124153,0.07 -0.310562,-0.037 -0.46862,-0.1484 -0.158057,-0.1115 -0.288441,-0.2283 -0.361449,-0.2815 m 0.12317,0.033 c -0.02656,0 -0.05393,0 -0.08117,0.01 -0.09921,0.03 -0.225749,0.1271 -0.331834,0.305 -0.106085,0.1778 -0.19242,0.4369 -0.153098,0.755 m -0.936267,0.8851 c -0.201157,0.053 -0.317421,0.036 -0.417622,-0.01 -0.100202,-0.044 -0.184514,-0.1147 -0.374525,-0.1333 m -0.902281,-0.8876 c -0.426126,-0.076 -0.637946,-0.1523 -0.833374,-0.3034 m 1.591736,0.9558 c -0.164392,0.1475 -0.707679,-0.165 -0.815502,-0.6146 m -1.242885,0.7624 c -0.158766,-0.1878 -0.363447,0.2533 -0.496655,0.3828 -0.0069,0.01 -0.01355,0.013 -0.02002,0.017 m -0.01341,-1.5706 c -0.10705,0.046 -0.754204,-0.2201 -0.856911,-0.084 m 0.11731,0.4856 c -0.351148,-0.1675 -0.935482,-0.3255 -1.661463,-1.1342 m 2.010706,1.3916 c -0.333935,0.081 -0.640464,-0.5635 -1.218141,-1.3448 m -0.976091,0.7106 c -0.433817,0.016 -0.885644,-0.1738 -1.240896,0.04 m 1.709009,-0.082 c -0.157154,-0.1788 -0.692507,-0.4555 -1.287875,-0.6146 m -0.07907,0.3374 c -0.0048,-0.014 -0.01214,-0.028 -0.02181,-0.04 -0.121604,0.2693 -0.682776,0.6614 -1.747722,0.9959 0,0 0,0 0,0 -0.0061,0 -0.01209,0 -0.01805,0.01 m -0.519691,-0.4734 c -0.243503,0.1555 -0.780331,0.5283 -1.188988,0.6899 m 1.79135,0.388 c -0.481028,0.18 -0.936673,0.4163 -1.763106,0.2753 0,0 0,0 0,0 -0.0062,-10e-4 -0.0123,0 -0.01836,0 m 0.661188,-1.6584 c -0.262986,0.2342 -0.475955,0.089 -0.614184,0.1773 m -0.702061,0.4537 c -0.136862,-0.068 -0.282626,-0.1199 -0.409019,-0.2084 -0.148065,-0.1036 -0.269684,-0.2565 -0.312945,-0.5539 m 0.465031,0.6741 c -0.244613,0.1741 -0.70101,-0.1398 -1.112147,-0.2803 m -0.125665,0.1138 c -0.38309,0.1955 -0.930941,-0.055 -1.703429,-0.3928 m 1.101384,0.8408 c -0.50672,0.2181 -1.024912,-0.092 -1.478432,0.3373 m -0.228768,0.4686 c -0.306669,0.041 -0.51928,-0.1288 -0.247527,-0.6094 m 0.267887,-0.3209 c -0.463289,-0.1584 -0.977146,0.083 -1.588524,0.091 -0.073,10e-4 -0.147394,0 -0.223254,-0.01 m 0.851758,-0.094 c -0.137304,-0.035 -1.093173,-0.4152 -1.803726,-0.7031 -1.69e-4,-1e-4 -3.37e-4,-1e-4 -5.05e-4,-2e-4 m 0.898437,0.4321 c -0.149532,-0.2166 -0.880633,-0.2352 -1.360321,-0.6912 m -0.180999,0 c -0.279797,-0.1476 -0.826907,0.4136 -1.182276,0.7457 m 0.935775,-0.3392 c -0.427827,-0.2749 -0.553367,0.044 -0.969557,-0.02 m -1.29446,0.094 c -0.475854,-0.081 -0.473015,0.035 -0.125279,0.018 m -0.345572,-0.1324 c -0.212296,-0.2781 -0.701956,0.165 -0.898404,0.5586 m -1.140852,-1.7852 c -0.467045,0.065 -0.621318,-0.1964 -0.505811,-0.3327 m 1.697547,1.3507 c -0.273917,-0.1334 -0.545969,-0.4416 -0.920343,-0.7594 m -0.12948,-0.9739 c -0.06353,-0.1571 -0.867554,-0.3121 -1.253245,-0.5285 m -0.456837,1.2207 c -0.269274,-0.25 -0.645812,-0.4923 -0.977463,-0.3264 m 0.482893,-1.2223 c -0.142396,-0.073 -0.296315,-0.1493 -0.465984,-0.2173 -0.321927,0.165 -0.747503,0.3436 -1.354749,0.6409 m 0.425717,0.086 c -0.284133,0.068 -0.486112,-0.1608 -0.246177,-0.7474 0,0 0,0 0,0 9.47e-4,0 0.0019,-0.01 0.0028,-0.01 m -0.432972,1.5616 c -0.335556,0.1137 -0.434097,0.173 -0.789719,-0.2973 m 0.826982,0.5377 c -0.166005,0.1161 -0.773696,-0.088 -1.467066,-0.4932 m -0.6416,-0.2886 c -0.147515,0.01 -0.612846,0.4337 -0.849584,0.5838 m 0.962636,1.4915 c -0.06213,0.06 -0.169181,0.084 -0.306151,0.087 -0.283999,0.01 -0.696256,-0.08 -1.102336,-0.1339 m 1.048984,-1.5526 c -0.121639,-0.044 -0.48138,0.5859 -0.869236,1.2425 m 0.182851,-0.035 c -0.234696,0.01 -0.809702,0.033 -1.558088,-0.2292 m -0.577251,-0.412 c -0.183745,-0.1573 -0.319512,0.1877 0.03402,0.4718 m -0.740362,-0.7577 c -0.268395,0.012 -0.5126926,-0.081 -0.6029632,-0.056 m 0.5301602,-0.3004 c -0.03775,-6e-4 -0.07538,4e-4 -0.11295,0 -0.3574201,0.021 -0.8359719,0.171 -1.8116004,0.5175 m 0.365415,0.6436 c -0.2218147,0.028 -0.4369552,-0.075 -0.7455231,-0.087 m -0.1659376,-0.137 c -0.4743292,-0.079 -0.6741046,-0.2346 -1.5318285,-0.4885 m -0.6269486,-0.072 c -0.3446081,0.078 -0.4916513,-0.1137 -0.4458743,-0.4158 0.011719,-0.077 0.036037,-0.1619 0.072837,-0.2512 m -0.9904341,-0.4236 c -0.3535874,0.067 -0.3083743,-0.067 -0.3096094,0.141 m 1.4599126,0.9571 c -0.1632,-0.056 -0.4444669,-0.2311 -0.7842592,-0.4283 -0.094892,-0.055 -0.1944004,-0.1118 -0.2972442,-0.1676 m -1.3712618,-1.131 c -0.01726,-0.048 -0.068544,-0.1681 -0.128664,-0.2699 -0.06012,-0.1019 -0.1297599,-0.188 -0.1716342,-0.1203 m 0.7784738,-0.1977 c -0.05544,-0.2915 -0.3366092,-0.4824 -1.0324948,-0.5753 m 0.8260353,-0.7215 c -0.020897,-0.031 -0.037471,-0.061 -0.051059,-0.09 -0.063178,-0.2232 0.039035,-0.3682 -0.4446838,-0.3974 m 1.0526807,-0.2902 c 0.1116715,-0.3151 0.2154757,-0.808 -0.053373,-1.316 m 0.049026,0.7478 c 0.2600651,-0.1445 0.5198893,-0.5845 0.9336636,-0.7886 m -1.3781742,0.1667 c -0.1054146,-0.1704 0.098328,-0.8959 0.304147,-1.2495 m 0.6254022,1.0293 c 0.2378136,-0.1548 0.2079869,-0.8636 0.081921,-1.6034 m 0.6433137,-1.5838 c 0.2325732,-0.3752 0.3576525,-0.7023 0.3337786,-0.6175 m -1.9140084,0.2087 c 0.2162635,-0.4144 0.1979992,-0.4782 0.8532728,-0.7239 m 1.4028427,0.9227 c -0.068889,-0.4122 -0.2609372,-0.6503 -0.6781797,-0.7896 m -0.1234033,-0.1 c -0.1439213,-0.3429 -0.015705,-0.6825 -0.1514386,-1.3169 m 0.6605246,-0.6585 c 0.2614434,-0.2977 0.4339349,-0.336 0.5511937,-0.6859 m -2.0084161,0 c 0.1431946,-0.1433 0.3092499,-1.0478 1.1174448,-1.9583 0.00816,-0.01 0.016154,-0.018 0.023972,-0.027 m -0.231207,0.048 c -0.1481189,-0.4631 0.2550873,-0.2922 0.1454111,-0.5317 m -0.1026321,-0.5133 c 0.052799,-0.2289 0.044476,-0.614 -0.049822,-0.6266 m 0.3063797,0.8463 c -0.105779,-0.2827 0.043408,-0.8051 -0.3320647,-1.9312 m 0.9495165,1.0461 c 0.2009504,-0.4679 0.3253857,-0.607 0.8543785,-0.6225 m -0.4389269,0.1351 c 0.028996,-0.1339 -0.4804401,-0.9192 -0.984735,-1.5156 -0.00231,0 -0.00459,0 -0.00684,-0.01 m -0.4650196,0.9778 c -0.1186889,-0.4027 0.493129,-0.9523 0.7194069,-1.453 m 0.1636202,-0.7954 c 0.2056436,-0.4117 0.1725758,-0.4875 -0.2166382,-0.5244 m 1.5387745,0.2844 c -0.024585,-0.2196 -0.02756,-0.5989 -0.1899704,-0.3917 -0.00119,0 -0.00237,0 -0.00354,0 m 0.4888119,-0.7797 c -0.053271,-0.26 0.1181827,-0.589 0.033709,-1.2682 m 0.011771,-0.5689 c 0.2408136,-0.389 -0.3584017,-0.1658 -0.9227289,-0.1616 m 1.1551866,0.44 c 0.1892166,-0.5063 0.088796,-0.7402 -0.2386638,-0.7125 m -1.8158567,-0.9673 c 0.1716367,-0.2807 -0.023933,-0.4412 0.3662045,-0.9829 m 0.3749419,0.096 c 0.1209284,-0.2069 -0.046399,-0.6408 0.054311,-1.1516 m 1.1682905,0.6849 c 0.2413968,-0.2627 0.259652,-0.8425 0.3632206,-0.8927 m -0.2949598,-1.092 c -0.02121,-0.3927 0.1615145,-0.7236 -0.1995903,-0.7695 m -0.6195877,0.3347 c -0.069158,-0.3717 0.077404,-0.6237 0.5397189,-0.7388 m 1.228681,0.1511 c -0.03688,-0.1107 -0.2914118,-0.6983 -0.7354476,-0.9605 m 0.5204261,-0.1706 c 0.2435992,-0.3869 0.1665803,-0.839 0.4363419,-1.3824 m -1.4853432,0.3213 c 0.1275268,-0.4686 0.3068035,-0.5556 0.4842036,-0.7039 m -0.5582265,-0.7724 c 0.040992,-0.3929 -0.1747405,-0.4228 -0.170626,-0.3465 m 0.5499124,-0.1998 c -0.1573608,-0.2146 -0.087011,-0.5427 0.1913962,-0.575 m 0.6274376,0.2392 c -0.1260907,-0.2943 0.083824,-0.916 0.083402,-1.7592 m 0.3436823,-0.5647 c -0.069237,-0.1851 -0.003,-0.2279 0.1802813,-0.4017 m 0.5578198,0.1727 c -0.1127252,-0.2568 0.025444,-0.6559 -0.4703177,-0.6852 m -0.2702214,0.4487 c 0.231883,-0.1739 0.3624352,-0.8349 0.724883,-1.0848 m 0.2342952,-0.6514 c -0.029154,-0.198 -0.4426877,-0.099 -0.7902023,0.1069 m -0.3054562,0.5412 c -0.1532921,-0.187 0.310798,-0.444 0.9898936,-0.7372 0.00632,0 0.012518,0 0.018584,-0.01 m 0.2115378,-2.1733 c -0.020845,-0.092 -0.024634,-0.1733 -0.017193,-0.2472 0.2451411,-0.039 0.6625981,0.033 0.9022651,-0.025 m -1.7914376,1.4872 c 0.1270496,-0.1784 0.8352984,0.096 1.4775786,-0.246 0.0019,0 0.0038,0 0.0058,0 m 0.18256,-0.436 c 0.44653,-0.048 0.397595,0.202 0.815429,0.6395 m -0.350413,-1.5365 c 0.50088,-0.1453 0.704778,-0.2605 1.052355,-0.2562 m 0.885321,0.6561 c 0.398676,0.045 0.714825,0.07 1.337893,0.5784 0.0048,0 0.0096,0.01 0.01436,0.011 m -1.216387,-0.8277 c 0.499003,0.01 0.602543,-0.041 0.989987,0.3968 m 1.060955,0.8404 c 0.427101,-0.024 0.822472,-0.017 1.350716,-0.4065 m -1.727321,0.8878 c 0.517344,3e-4 0.990484,-0.1561 1.904091,-0.7101 m -0.859759,-0.4207 c 0.331563,0.1147 0.830047,-0.2521 1.542348,-0.113 0.0047,9e-4 0.0093,0 0.01392,0 m 0.759206,0.868 c 0.404514,-0.1717 0.41092,0.2217 0.673988,0.4571 m 0.652525,-0.046 c 0.142947,-0.1673 0.314678,-0.22 -0.01057,-0.5472 -0.0023,0 -0.0045,0 -0.0066,-0.01 m -0.535165,0.1225 c 0.270407,-0.1896 1.005568,0.1675 2.13744,-0.1103 m -0.206154,0.2398 c 0.129819,0.1206 0.395548,-0.3334 0.169148,-0.6918 m 0.106387,0.1664 c 0.335985,0.1367 0.796518,0.055 1.054663,-0.1234 m 0.660749,0.058 c 0.291842,0.075 0.393143,0.1023 0.640926,0.098 m -0.219264,-1.3848 c 0.303751,0.03 0.407434,-0.033 0.395752,-0.1787 m 0.38423,2.586 c 0.225866,0.1581 0.643935,0.1433 1.08205,-0.2085 m -0.19767,-1.2142 c 0.468511,0.1298 0.357112,0.1499 0.345625,0.3893 m 1.435965,-0.3458 c 0.444869,0 0.477951,-0.2192 1.014233,-0.1145 m -0.992397,-0.6923 c 0.04676,0.013 0.08942,0.022 0.128848,0.028 0.353195,0.053 0.447619,-0.1528 0.914084,0.037 m 0.444098,0.5816 c 0.515208,-0.1452 0.838199,-0.1161 1.313356,0.2005 m -1.430546,0.04 c 0.216762,0 0.764668,-0.016 1.536817,0.1685 m -0.756311,0.2848 c 0.446437,0.1277 0.585834,0.1405 1.188721,-0.1625 1.42e-4,0 2.85e-4,-10e-5 4.28e-4,-2e-4 m -0.578485,0.3776 c 0.180096,0.025 0.439383,-0.024 0.656682,-0.4992 m 2.530487,1.059 c 0.199441,0.1573 0.362603,0.057 0.435804,-0.3713 m -0.888431,-1.5962 c 0.119709,-0.1333 0.794327,-0.01 1.090252,0.4603 m -0.164663,0.6424 c 0.26881,0.083 1.003213,-0.1067 1.68584,0.051 m -0.743526,0.3358 c 0.528887,-0.199 0.540685,0.018 0.141627,0.2359 -2.52e-4,10e-5 -5.03e-4,3e-4 -7.54e-4,4e-4 m 0.736842,-1.2636 c 0.387223,-0.1143 0.698007,0.1439 1.712434,0.1098 m -1.63756,-0.1704 c 0.279696,0.063 0.68692,-0.01 1.681057,-0.2025 m 0.164716,1.2956 c 0.276357,0.039 1.02767,-0.1755 1.540604,-0.4467 m -0.54617,-0.6137 c 0.417602,0.082 0.496505,-0.046 0.354254,0.4484 m 1.086837,0.2496 c 0.383706,-0.056 0.753037,-0.3195 1.31671,-0.5747 m -0.14498,1.1191 c 0.219981,0.1437 0.999535,0.1608 1.384722,0.1174 m -0.828586,0.057 c 0.187814,-0.1077 0.677047,0.03 0.976971,0.1833 m -1.086666,-1.1836 c 0.217509,0.094 0.836719,0.035 1.341738,0.021 m 0.184279,-1.3243 c 0.425631,0.198 0.423187,0.5147 0.642131,1.0877 m -0.06076,-0.7627 c 0.208355,-0.02 0.836912,-0.02 1.17304,-0.016 m -0.246713,0.9375 c 0.259467,-0.045 1.140206,-0.011 1.930003,-0.4458 m 0.724575,0.2065 c 0.128398,0.2196 0.517698,0.086 0.653057,-0.047 m -1.166771,-0.1968 c 0.285128,0.05 0.6816,-0.193 1.017268,-0.031 m 0.804889,0.427 c 0.298138,0.082 0.549813,0.171 0.448089,0.036 m 0.680934,0.1523 c 0.210813,-0.1483 0.115079,-0.1366 -0.05813,-0.5618 m 0.202144,0.5137 c 0.340613,0.1099 0.673089,0.2993 1.4928,0.9647 0.0073,0.01 0.01455,0.012 0.02172,0.018 m -0.594187,-0.8596 c 0.4179,0.121 0.770769,0.039 1.400335,0.5118 m 0.275351,-0.5386 c 0.476931,0.1979 0.792007,-0.046 0.728988,-0.034 m -1.16646,0.5327 c 0.243892,-0.1452 0.811008,0.035 1.156825,-0.2896 m 1.086039,-0.5656 c 0.181475,0.025 0.291614,-0.056 0.440293,-0.01 m -0.161026,-0.6972 c 0.251461,0.1958 0.322107,0.1361 0.09031,0.1757 m 1.509985,1.4458 c 0.420699,0.019 0.216763,0.143 0.219023,-0.1241 m -0.07756,-0.7146 c 0.346258,-0.086 0.725097,0.1934 0.740125,0.295 m 1.079354,0.7857 c 0.167066,0.1537 0.653011,0.24 0.572137,0.1513 m -0.75752,-1.6575 c 0.220051,0.1436 0.535793,0.3953 0.51805,0.7095 m 0.38656,-0.2209 c 0.37223,-0.049 0.908933,-0.143 1.629999,-0.2913 m 0.809898,0.1036 c 0.296085,0.065 0.628858,0.1577 0.55656,-0.051 m -0.595135,-0.6532 c 0.108602,10e-4 0.938146,0.2841 1.698513,0.6139 m -0.447767,0.9326 c 0.242837,-0.037 1.057411,-0.051 1.77707,-0.5151 m -0.575339,0.1257 c 0.08287,-0.046 0.149624,-0.084 0.194736,-0.1273 0.07413,-0.071 0.08984,-0.156 0.02264,-0.3174 m -0.202727,0.3312 c 0.106247,-0.029 0.475678,-0.011 0.161951,0.4453 m 1.414365,-1.1896 c 0.118127,-0.091 0.593481,0.049 0.97503,0.7225 m -1.28845,0.8054 c 0.175865,0.094 0.949349,-0.1481 1.478805,-0.2213 m 1.934272,-0.8662 c 0.384985,-0.1252 0.467828,0.2904 0.985918,0.2476 m -0.492188,-0.1165 c 0.341703,0.012 0.56032,-0.2496 1.207279,-1.1638 m -1.164,0.9489 c 0.238507,-0.1366 0.769293,-0.038 1.591693,-0.098 m -0.500538,0.1769 c 0.115575,0.1533 0.704066,-0.1372 1.128027,0.1148 m -0.562271,-0.412 c 0.29131,0.1888 0.478232,0.3909 0.679187,0.5908 m 0.231884,0.6199 c 0.167696,0.1348 0.366531,-0.037 0.430594,-0.3822 m 1.351261,-1.2769 c 0.473852,0.02 1.037539,-0.082 1.538731,-0.2553 m -1.543796,1.8702 c 0.513632,-0.1234 0.436036,-0.023 0.953276,-0.2548 m 1.386272,-0.057 c 0.367396,-0.1745 0.770566,0.1217 0.725481,0.2319 m -0.06273,-0.2832 c 0.107933,-0.1805 0.352176,0.1652 0.758227,0.1358 m -0.578526,-0.9619 c 0.258893,-0.1441 0.516965,-0.01 0.738848,0.5405 m 0.513997,-0.7046 c 0.440275,-0.1706 0.449841,-0.033 0.419079,0.3353 m -0.582273,0.065 c 0.157792,-0.1971 0.82898,0.2222 2.03264,0.3958 m 0.699108,-1.0315 c 0.41845,-0.094 0.606792,0.1263 1.083633,0.5004 m -1.613078,0.9329 c 0.505573,0.08 0.662044,-0.3568 0.871546,-0.6478 m 0.705518,0.24 c 0.124941,-0.057 0.196945,-0.073 0.240778,-0.1006 -0.08824,0.1399 -0.246695,0.2528 -0.377905,0.1349 m 0.129434,0.087 c 0.01071,0.478 0.03145,0.4984 0.02372,0.3437 m 0.04005,0.4299 c 0.09098,0.1222 0.251173,0.8301 0.585411,1.294 m -0.19962,-0.1706 c -0.03832,0.4354 -0.434368,0.2193 -0.819228,0.091 m 1.189352,-0.3051 c 0.222489,0.1209 -3.54e-4,0.7784 -0.628617,1.6676 m 0.869322,1.0263 c 0.253481,0.2072 0.0233,0.4217 0.210836,0.1743 m -0.497238,-1.1549 c 0.06548,0.2805 0.08099,1.0368 0.05789,1.789 m 0.342953,-0.1965 c 0.01769,0.116 0.287569,0.7324 0.455185,0.6788 m -1.630039,1.0948 c -0.07993,0.236 0.434922,0.5114 1.373427,0.2534 m -0.541011,0.1589 c 0.118531,0.5092 -0.01364,0.6697 0.10691,1.4438 m 1.90975,-1.2504 c -0.102884,0.4553 0.105323,0.7245 -0.0045,1.6963 m -0.170293,-0.5897 c 0.06327,0.2473 -0.08872,0.6459 -0.365697,1.5503 m -0.59861,-0.2115 c -0.08016,0.2347 0.05554,0.584 0.172518,1.145 m 1.029554,-0.6381 c 0.213869,0.4207 -0.18579,1.0651 -0.385664,1.7473 m -0.638127,0.7611 c -0.111389,0.2243 0.166073,0.1928 0.583186,0.1197 m 0.940994,0.1071 c 0.125899,0.4607 0.06899,0.6028 -0.42555,1.1453 m 0.13437,-0.3706 c -0.142368,0.2135 0.05968,1.2891 -0.150784,2.2798 m 0.447394,-2.1928 c -0.06832,0.3217 -0.131994,0.9737 -0.606403,1.6911 m -0.93527,-0.5591 c 0.166255,0.5061 0.158557,0.5344 0.925279,0.957 0.0011,6e-4 0.0022,10e-4 0.0033,0 m 0.80015,0.2218 c 0.125319,0.2046 0.285924,0.6574 0.537031,0.7759 m -0.874429,1.6177 c -0.132403,0.1425 0.02543,0.5749 0.512022,0.6688 m -0.162716,0.1363 c 0.139319,0.3015 0.375218,0.9497 0.367556,1.4901 m 0.559094,-1.957 c 0.03911,0.466 -0.290353,0.7748 -0.957539,1.2859 m 0.198376,0.5217 c -0.125919,0.217 0.02518,0.4688 0.436615,0.8566 7.47e-4,7e-4 0.0015,10e-4 0.0022,0 m -1.679045,0.7201 c -0.06135,0.4178 0.240262,0.5495 0.231662,0.2035 m 0.39861,0.7438 c -0.110401,0.1953 -0.216616,0.4158 -0.200293,0.058 m -0.06539,0.1339 c -0.06763,0.3246 0.286115,0.9517 0.413396,1.2985 m 0.601546,-0.7654 c 0.04349,0.2146 -0.135954,0.1985 -0.02555,0.2938 m 1.19612,0.012 c -0.157322,0.5027 -0.268127,1.0302 -0.490109,1.88 m -0.252755,0.2062 c 0.06282,0.2448 0.106234,0.4022 -0.209493,0.4467 m -0.499204,1.0129 c -0.0718,0.1387 0.165478,0.8032 0.293103,1.2257 m -0.505896,-1.0235 c -0.149069,0.2946 0.508312,1.0063 0.726201,1.731 m 0.142437,-1.013 c -0.04437,0.3148 0.379191,0.1493 0.395922,-0.082 1.1e-5,-10e-5 2.2e-5,-3e-4 3.2e-5,-4e-4 m 0.0806,1.0449 c 0.197838,0.1451 0.211361,0.3776 -0.03699,0.588 m 0.605083,0.3498 c 0.154593,0.3942 0.07905,0.6281 0.320352,1.0207 m -0.846579,1.1767 c -0.07821,0.4653 -0.167685,0.6039 -0.35933,0.5853 m 1.746889,-0.5597 c -0.05339,0.1978 0.0037,0.7464 -0.29593,0.9433 m 0.110869,-0.6126 c -8.85e-4,0.1367 0.401981,0.6705 0.69121,1.1587 m 0.201211,0.4266 c 0.01271,0.3321 -0.08035,0.6084 -0.777495,0.939 m -0.203913,0.055 c 0.04334,0.1766 0.0232,0.3273 -0.04991,0.4519 -0.12596,0.1701 -0.366672,0.2931 -0.700875,0.3639 m 1.551528,-1.0741 c -0.06821,0.1068 -0.370886,0.818 -0.783713,1.8024 m -0.172893,1.0624 c -0.148063,0.1437 -0.168632,0.2523 -0.178178,0.4009 -0.0095,0.1486 -0.0066,0.3363 -0.149606,0.6661 0,0 0,0 0,0 -7.05e-4,0 -0.0014,0 -0.0021,0.01 m -0.764761,-2.2997 c -0.117119,0.05 -0.77669,0.1237 -1.281945,0.3735 0,0 0,0 0,0 -0.0046,0 -0.0092,0.01 -0.01375,0.01 m 0.317654,1.8794 c -0.277931,0.3036 -0.585802,0.118 -0.48285,-0.502 0,0 0,0 0,0 6.36e-4,0 0.0012,-0.01 0.0018,-0.011 m 1.027556,1.2209 c -0.119045,-0.1 -0.765031,0.1 -1.864476,0.1653 m -0.661671,-1.2857 c -0.2605,-0.1292 -0.626771,-0.066 -1.46436,0.2948 0,0 0,0 0,0 -0.0046,0 -0.0091,0 -0.01366,0.01 m -0.157855,0.1582 c -0.109655,-0.01 -0.44851,0.05 -0.74139,0.096 -0.116046,0.018 -0.221773,0.035 -0.297085,0.044 -0.0011,2e-4 -0.0022,3e-4 -0.0032,4e-4 m 0.936976,-0.8788 c -0.51772,0.2228 -0.405211,0.489 -0.703289,0.9552 m -0.694535,-1.5525 c -0.333012,-0.071 -0.480343,0.3256 -0.920424,1.1245 m 1.6204,0.4018 c -0.283488,-0.03 -0.591513,-0.5682 -1.113945,-1.0591 m -0.235775,0.032 c -0.305742,-0.036 -0.954103,0.1739 -1.385486,0.01 m -0.688828,0.2388 c -0.199713,0.1807 -0.453504,0.095 -0.741228,0.1217 m -0.118417,1.4438 c -0.03708,-0.01 -0.07911,-0.018 -0.126106,-0.035 -0.254742,-0.092 -0.656094,-0.3579 -1.202826,-0.9883 -0.0054,-0.01 -0.01076,-0.012 -0.01604,-0.019 m 0.910035,0.6648 c -0.177699,-0.2458 -0.791364,-0.3206 -0.969758,-0.8108 m -0.310649,-0.9411 c -0.498307,-0.1528 -0.343501,-0.1576 -0.351062,-0.4863 m -0.817661,0.8102 c -0.223134,0.051 -0.521124,-0.5589 -1.129439,-1.1067 m 0.793337,1.1621 c -0.18728,-0.044 -0.327632,-0.24 -0.512304,-0.5706 -0.156301,-0.08 -0.355389,-0.2557 -0.667269,-0.5343 m 0.926118,1.0263 c -0.4086,0.1275 -0.368294,0.085 -0.718593,0.1186 m 0.180029,-0.8094 c -0.319912,0.1667 -0.45605,0.569 -1.248424,0.8508 m 0.119334,0.897 c -0.309108,0.083 -0.708382,-0.1464 -1.718212,-0.4343 m -0.29814,-0.5424 c -0.327693,0.2614 -0.436766,0.2059 -0.281136,0.5582 m 0.263224,1.4116 c -0.241144,0.3075 -0.909204,0.054 -1.28695,0.1274 m 0.701447,-0.6182 c -0.369652,0.01 -0.317914,0.072 -0.524505,-0.2102 m -0.684561,0.7073 c -0.244088,-0.01 -0.581936,0.3044 -0.643846,0.8968 m 0.233095,-0.9736 c -0.212321,0.2141 -0.532026,0.01 -0.08634,-0.2987 m -0.709525,1.355 c -0.207298,0.1154 -0.88218,-0.053 -1.526921,-0.1502 m 0.422136,-0.01 c -0.272861,0.056 -0.746163,0.194 -1.43276,0.5696 m -0.0879,-1.4847 c -0.04194,-0.011 -0.08187,-0.018 -0.120332,-0.02 -0.165892,-0.01 -0.319418,0.065 -0.516291,0.2214 -0.196874,0.1565 -0.435979,0.3957 -0.860984,0.6399 m -0.450686,0.1415 c -0.197827,0.1655 -0.38288,0.023 -0.480974,-0.197 m 0.995233,-0.617 c -0.262911,-0.1937 -0.688782,-0.2093 -1.370702,-0.3458 m -0.190868,1.5072 c -0.236738,0.1344 -0.490916,-0.072 -0.678847,-0.2043 m 0.982798,0.1589 c -0.248268,-0.1537 -0.6661,-0.058 -0.876607,0.043 -0.03144,0.015 -0.0582,0.03 -0.07901,0.044 m -1.480012,-1.3378 c -0.134648,-0.1951 -0.285182,0.06 -0.05495,0.1998 m 0.08678,0.027 c -0.217037,0.1522 -0.902637,-0.3504 -1.407436,-1.0674 0,0 0,0 0,0 -1.22e-4,-2e-4 -2.45e-4,-4e-4 -3.67e-4,-5e-4 m 0.498131,1.8508 c -0.126647,-0.2394 -0.700532,-0.4935 -1.253454,-1.1006 m -0.114629,-0.3865 c -0.176686,0.032 -0.264666,0.066 0.183922,0.013 m -1.292937,0.4112 c -0.227448,-0.1284 -0.350912,0.1061 -0.306581,0.1567 2.12e-4,0 4.26e-4,0 6.42e-4,0.01 m 0.145332,-1.5954 c -0.294113,0.2443 -0.716207,0.2042 -1.449094,-0.181 m 0.486161,1.8409 c -0.257261,0.1246 -0.589925,0.223 -1.46659,0.2406 m 0.481333,-0.6293 c -0.257748,-0.084 -0.358989,0.4008 -0.176798,1.0024 m 0.08489,-0.7018 c -0.266034,-0.078 -0.861692,-0.057 -1.985086,-0.7035 m 1.117471,1.2083 c -0.09799,0.021 -0.322584,0.5044 -0.670494,0.6884 m -1.720164,-0.071 c -0.0109,0 -0.02137,0.01 -0.03142,0.01 -0.335594,0.1084 -0.204635,-0.037 -0.10325,-0.7355 m -1.15215,0.5836 c -0.438868,-0.1665 -0.599498,-0.049 -0.393813,0.1572 0,0 0,0 0,0 5.1e-5,0 1.01e-4,10e-5 1.51e-4,10e-5 m -0.02202,-0.074 c -0.115462,0.1983 -0.275851,0.1753 -0.08132,-0.059 m 0.115392,-0.6802 c -0.163066,-0.036 -0.496733,-0.014 -0.864406,0.038 -0.367673,0.052 -0.769176,0.134 -1.120481,0.2264 m -0.274599,-0.436 c -0.176696,-0.029 -0.289952,0.1848 -0.311012,0.2975 -0.0083,0.045 -0.0059,0.088 0.01824,0.1118 m 0.676218,-1.1886 c -0.163315,-0.069 -0.382901,0 -0.706852,0.189 -0.323951,0.1921 -0.752326,0.5115 -1.353257,0.8622 0,0 0,0 0,0 -0.004,0 -0.0079,0.01 -0.01188,0.01 m -0.188453,-0.1281 c -0.359068,-0.092 -0.420071,0.1532 -0.836868,0.1232 m 1.320998,-0.1605 c -0.512211,-0.17 -1.071022,-0.2989 -2.204497,-0.4028 m 0.782023,0.3843 c -0.30252,-0.1552 -0.287979,-0.2442 -0.312715,-0.3809 m -1.134743,-0.071 c -0.181485,0.031 -0.35361,0.01 -0.586555,-0.043 -0.231014,-0.052 -0.522157,-0.1348 -0.941395,-0.2258 m 0.685588,0.2537 c -0.402084,-0.1407 -0.712751,0.1388 -1.307217,0.3836 m -0.606076,0.1605 c -0.35685,0.1425 -0.04734,-0.1875 0.27784,-0.4817 m -0.22695,-0.2 c -0.462971,-0.069 -0.339177,0.093 0.174124,0.1233 m -0.485548,-0.1816 c -0.0909,-0.046 -0.417048,-0.1081 -0.64668,-0.5067 m -0.70119,0.2933 c -0.156144,-0.08 -0.417844,-0.3256 -0.53388,-0.5349 -0.046,0.037 -0.07665,0.079 -0.07832,0.134 m 0.05879,0.064 c -0.314418,0.4267 -0.973226,0.3722 -1.527463,0.6365 0,0 0,0 0,0 -7.69e-4,4e-4 -0.0015,7e-4 -0.0023,0 m 0.946648,-0.1069 c -0.07209,0.095 -0.299329,0.3241 -0.356169,0.044 m -1.035802,-0.7547 c -0.358708,0.2096 -0.56379,0.2446 -0.192728,0.6348 m 0.324588,-0.081 c -0.476102,0.1619 -0.878497,0.2915 -1.383569,0.3871 m 0.02678,0.2584 c -0.05529,0.039 -0.113992,0.075 -0.175875,0.1104 -0.338146,0.1954 -0.77224,0.3721 -1.258063,0.8672 m 1.158286,-0.4071 c -0.121054,0.098 -1.083001,-0.5565 -1.895014,-1.2189 m -0.140847,1.0834 c -0.518739,-0.043 -0.773786,-0.1885 -0.769852,-0.5437 0,0 0,0 0,0 3.6e-5,0 2.2e-5,-0.01 -4.3e-5,-0.01 m 0.777587,0.4291 c -0.186821,0.1153 -0.503141,0.1461 -0.505488,0.1677 m -1.171661,0.9525 c -0.163639,-0.1818 -0.796518,0.07 -1.520146,-0.2683 0,0 0,0 0,0 -0.0027,-10e-4 -0.0055,0 -0.0082,0 m -0.505837,-1.0978 c -0.120854,-0.077 -0.278382,-0.012 -0.37359,0.073 -0.08541,0.076 -0.120639,0.1651 -0.03415,0.1777 m 0.09196,1.0344 c -0.479803,-0.1236 -0.614677,-0.2438 -0.875671,-0.6356 m 0.493235,-0.8441 c -0.43985,-0.2186 -0.835777,0.1982 -1.363135,0.3162 m 0.450086,-0.3812 c -0.402116,0.1047 -0.454685,-0.01 -0.241079,0.084 m -0.961665,-0.1081 c -0.432332,-0.067 -0.458296,0.1398 -0.99301,0.1508 m 0.09533,0.7937 c -0.158298,0.037 -0.5546,-0.5591 -0.415927,-0.8886 m -1.114607,-0.3241 c -0.227121,-0.1525 -0.423568,0.071 -0.496766,0.206 m 0.346338,-0.9523 c -0.192215,-0.03 -0.669044,7e-4 -1.465699,-0.1708 m 0.928656,-0.7246 c -0.153271,-0.1543 -0.491108,-0.2381 -1.215228,-0.5158 m -0.380171,1.477 c -0.142896,-0.097 -0.718382,-0.3463 -0.83617,-0.6452 m 0.252407,-1.281 c -0.04604,-0.3756 -0.433312,-0.697 -1.072875,-1.006 m 0.418346,1.8848 c -0.0095,-0.026 -0.02302,-0.049 -0.04045,-0.068 -0.116038,0.2328 -0.448618,0.6028 -1.121303,0.8287 m 0.311237,-1.6135 c -0.251279,-0.031 -0.488196,0.2477 -1.251977,0.711 m 1.266489,-0.5251 c -0.196598,0.03 -0.532802,-0.016 -0.732473,0.1505 m -0.560769,-0.1031 c -0.173077,0.054 -0.688387,0.3937 -1.594685,1.0803 m 1.430614,0.5701 c -0.187567,-0.1454 -0.561264,0.1948 -0.720057,0.1818 m -1.105572,-0.5986 c -0.162924,0.016 -0.298294,-2e-4 -0.41606,-0.036 -0.26452,-0.08 -0.440631,-0.2569 -0.640793,-0.3815 m 0.412444,0.5942 c -0.355801,0.024 -0.600242,0.063 -0.88359,0.5352 m -0.194877,-0.082 c -0.324286,-0.086 -0.483884,0.1512 -0.412511,0.3385 m -1.176139,-1.973 c -0.1364,0 -0.4095592,0.019 -0.6916057,0.1095 -0.2820466,0.091 -0.5726576,0.2502 -0.7886294,0.4961 m 1.0026575,0.056 c -0.078044,0 -0.2858122,0.066 -0.430918,0.159 -0.1451058,0.093 -0.2291792,0.2098 -0.1994069,0.3186 m -0.5349034,1.1598 c -0.034384,0.015 -0.066068,0.023 -0.095255,0.027 -0.1385847,0.018 -0.2519589,-0.07 -0.3147041,-0.2207 -0.062745,-0.151 -0.074702,-0.3643 -0.00959,-0.5397 0,0 0,0 0,0 0.00116,0 0.00224,-0.01 0.00324,-0.01 m 0.4569861,-0.2756 c -0.1599266,-0.043 -0.9697364,-0.014 -1.5827051,0.4289 m -0.6832213,-0.3885 c -0.2569302,-0.1157 -0.7693992,-0.1001 -1.0683725,-0.2957 m 0.9290964,-0.4836 c -0.2064152,-0.1043 -0.3068232,-0.1602 -0.22756,-0.1355 0.041418,0.013 0.1317311,0.048 0.2808665,0.1087 m -1.2255409,-0.8932 c -0.3213733,-0.022 -0.7336141,-0.2516 -0.9913418,-0.099 m 0.1044721,1.0175 c -0.2247081,-0.227 -0.3576043,-0.3376 -0.3855817,-0.4891 -0.020336,-0.1101 0.014907,-0.2414 0.1155954,-0.4712 m -0.2922885,0.4286 c -0.254214,-0.4412 -0.684641,-0.7123 -1.216799,-1.0572 m 2.0077342,-0.5512 c -0.024487,-0.1101 0.037407,-0.5993 0.281328,-1.6263 0.023431,-0.082 0.047758,-0.1677 0.073007,-0.2559 m 0.00908,0.9741 c -0.01636,-0.2219 0.2145249,-0.4543 -0.053431,-0.4627 -0.00101,0 -0.00202,-10e-5 -0.00303,-10e-5 m -1.11859,-0.6536 c 0.221352,-0.3917 0.1260915,-0.6422 0.1143721,-1.4505 m -0.4550207,0.7976 c 0.1322465,-0.4432 0.4445648,-0.148 0.60609,0.1719 m -0.2241452,-0.8063 c 0.015973,-0.2658 -0.1666604,-0.7752 -0.2453607,-0.8057 m 0.198399,-0.062 c -0.067027,-0.1897 0.4075842,-1.1068 0.944621,-1.786 m -1.5924713,0.5067 c 0.1523718,-0.307 0.3357768,-0.9021 1.2812317,-1.0945 0.00507,-10e-4 0.010092,0 0.015057,0 m 0.2877967,-0.2419 c 0.2287661,-0.1425 -0.1569688,-0.7445 -0.075587,-0.8144 m -0.8908463,0.4648 c 0.095896,-0.4451 0.1912934,-0.6079 -0.024097,-1.0683 -0.00175,0 -0.00347,-0.01 -0.00515,-0.011 m 0.4950462,-0.9223 c 0.035919,-0.3456 0.1502367,-0.5531 0.433133,-0.636 m 0.6769744,1.5262 c -0.137919,-0.3804 -0.1588531,-0.7564 -0.2435783,-1.0771 m 0.9312195,-0.4398 c 0.2280664,-0.3072 0.099052,-0.5001 0.2447072,-1.0363 m -1.5944667,-0.8227 c -0.035108,-0.232 0.3633589,-0.4875 0.4410285,-0.5521 m 0.31953,0.1863 c 0.1778608,-0.1287 -7.08e-4,-0.3854 -0.07814,-0.8236 m -0.1962279,-0.3187 c 0.2617538,-0.5136 0.2607807,-0.6368 0.6536957,-0.6247 m -0.2967424,-0.9556 c 0.1941186,-0.2333 -0.1756308,-0.4473 -0.1857644,-0.9227 m 0.7740917,1.3948 c 0.031333,-0.1108 -0.2703124,-0.5371 -0.2792743,-0.8873 -6.23e-5,0 -1.166e-4,0 -1.631e-4,-0.01 m 0.586593,0.6121 c 0.1958438,-0.1733 0.2918084,-1.0779 0.1905814,-2.0498 m -0.1410096,1.0334 c -0.1166592,-0.3901 0.1845485,-0.7538 0.6860923,-0.9829 M 5.3945479,1026.55 c -0.067722,-0.4665 0.2526104,-0.4327 0.5013145,-0.6948 m 1.135139,-0.7735 c -0.054195,-0.3855 0.3203663,-0.9263 0.3196459,-1.218 -4.7e-6,0 -2.3e-6,0 7.3e-6,-0.01 m -1.4350962,-0.1988 c 0.1479091,-0.1629 0.3071699,-0.4832 0.2970897,-0.5404 m 0.016006,0.2841 c -0.163458,-0.1219 0.2138951,-0.4836 0.3345481,-1.0419 m 0.3016016,-0.8903 c -0.040837,-0.2274 0.086765,-0.3988 0.1338667,-0.2132 m -1.2307098,0.7237 c 0.089818,-0.3269 0.1473069,-0.8614 0.063578,-1.7557 -8.59e-5,-9e-4 -1.716e-4,0 -2.569e-4,0 m 0.4950275,0.2734 c 0.098857,-0.3176 0.2276509,-0.5478 0.1525281,-0.1278 m 1.7812739,-0.4353 c 0.1712232,-0.1064 -0.099585,-0.8977 -0.1421246,-1.494 m -0.6540905,0.7757 c 0.2337452,-0.3131 0.2965588,-0.8324 0.7945085,-1.2246 m -0.899076,0.4358 c -0.02178,-0.1304 0.1184676,-0.8175 0.703855,-1.7946 m -1.519226,0.1428 c 0.1125889,-0.2341 0.185103,-0.6814 -0.026804,-1.4357 m 0.5230661,-0.064 c 0.022364,-0.1425 0.1394566,-0.4505 0.5908924,-0.484 m 0.057576,0.5774 c 0.077705,-0.2569 0.2194808,-0.4807 0.2035213,-1.0714 m -1.0936925,-0.3375 c 0.2182345,-0.5354 0.2641216,-0.611 1.1013417,-1.1959 m -0.096172,-0.1564 c 0.1573359,-0.4082 0.4119538,-0.6872 0.5043843,-1.3691 m 0.3777467,1.062 c 0.057334,-0.5443 -0.048825,-0.9373 -0.1655526,-2.2172 m 0.373878,0.7154 c 0.2491915,-0.4528 0.407111,-0.5575 0.8845107,-1.3361 8.665e-4,-10e-4 0.00173,0 0.00259,0 m 0.092538,1.3759 c 0.00892,-0.4973 0.092619,-0.4793 -0.12811,-0.5551 m 0.030626,-0.7004 c 0.095619,-0.2974 -0.086371,-0.5947 0.04692,-1.2041 7.153e-4,0 0.00142,-0.01 0.00211,-0.01 m -1.2520264,-0.4868 c -0.092541,-0.2916 0.1632294,-0.2368 0.5237813,0.066 0.03351,0.033 0.067325,0.066 0.101407,0.1001 m -0.211466,-0.5213 c 0.480425,-0.1781 0.5934815,0.1891 1.3586483,0.045 m -0.3470897,0.5077 c 0.1344267,-0.025 0.4576687,0.1706 1.0825327,0.3549 m 0.698547,-1.0671 c 0.275905,0.1531 0.206573,0.3963 0.09495,0.5473 m -0.822724,0.096 c 0.241762,0.035 0.580212,0.303 0.593485,0.2669 9.2e-5,-2e-4 2.3e-4,-5e-4 4.12e-4,-7e-4 m 1.5532,-1.1187 c 0.18979,0.2023 0.551849,0.4205 1.251763,0.8521 m -0.341659,-1.4779 c 0.378609,-0.1426 0.49724,0.033 0.623642,0.5176 m 0.262222,-0.1304 c 0.400893,0.1829 0.691542,-0.03 0.866143,0.3884 m -0.436023,0.1847 c 0.530609,-0.1645 0.6547,-0.1264 1.49899,-0.5133 m -0.177346,0.4243 c 0.259156,0.1109 0.714945,0.2159 1.405025,0.2308 m -1.535945,-1.1966 c 0.201705,0.1704 0.78918,-0.024 1.243541,0.099 m 1.625266,0.941 c 0.301694,0.1802 0.570829,-0.137 0.522775,-0.2116 m -0.192749,-0.1024 c 0.238164,-0.1211 0.470895,0.079 0.406665,0.1726 m 0.624053,0.8227 c 0.353014,0.07 0.355263,-0.056 0.718065,-0.091 m -0.89248,-0.3681 c 0.37707,0.078 0.842818,-0.2473 1.729998,-0.6261 m 1.248423,0.6965 c 0.189022,0.01 0.319532,0.054 0.197505,-0.04 m -0.403876,-1.1455 c 0.363796,-0.169 0.463699,0.2525 1.01164,0.3562 m -0.03914,0.4289 c 0.407774,0.118 0.690977,-0.323 0.814905,-0.4368 m 0.36123,0.8202 c 0.391425,-0.1266 0.484354,0.1738 -0.108976,0.057 m 1.381653,0.2336 c 0.211924,0.1594 0.284456,0.1615 0.289806,0.01 8.66e-4,-0.025 -2.7e-5,-0.054 -0.0024,-0.088 m -0.125735,-1.1771 c 0.162137,0.155 0.596451,0.3968 0.999489,1.1962 m 0.943508,-0.6253 c 0.412682,0.1199 0.276301,0.1041 0.270919,0.4393 -5e-6,3e-4 -1e-5,7e-4 -1.4e-5,0 m -1.363418,-0.5798 c 0.44987,0 0.685443,-0.01 1.34013,0.3308 m 0.945433,-1.4859 c 0.501771,0.1105 0.796192,0.09 1.22131,0.7541 m -1.183966,-0.2711 c 0.433178,-0.051 0.835909,0.1897 1.16515,1.0313 m 0.284964,-0.426 c 0.259227,-0.1059 0.503785,0.2224 0.942078,0.4896 m 1.521236,0.6122 c 0.125762,-0.1403 0.260086,-0.042 0.07102,-0.2823 m -0.176868,0.2206 c 0.256103,-0.093 0.344707,-0.087 0.631752,0.1004 m 0.358552,-1.2449 c 0.430577,0.054 0.837274,0.2879 1.250146,0.8257 m -1.257793,-0.2481 c 0.346094,-0.092 0.672548,-0.068 0.703771,-0.094 m 1.251366,-0.1752 c 0.489637,0.057 0.756326,-0.2527 0.666464,-0.7607 m 0.229854,1.582 c 0.236604,0.1163 0.939075,0.01 1.512504,0.3847 0.0035,0 0.007,0 0.01052,0.01 m -1.78058,-1.0618 c 0.346305,0.134 0.9546,-0.056 1.792288,-0.5413 m 0.0251,1.0002 c 0.525287,-0.2283 0.538244,-0.329 0.989393,-1.0649 0.0015,0 0.0031,-0.01 0.0046,-0.01 m 0.496718,10e-5 c 0.461377,0.035 0.762412,-0.4247 0.903986,-0.6712 m -1.382873,2.2897 c 0.481649,0.1308 1.001494,-0.2164 2.265455,-0.163 m -0.90567,-1.234 c 0.277387,-0.045 0.632024,-0.241 0.80543,-0.1766 m 0.986533,0.3305 c 0.30626,-0.094 0.563492,-0.075 0.349218,-0.419 m 0.346867,0.1009 c 0.234476,-0.053 0.416849,-0.1856 0.498163,-0.2047 m 1.508672,0.7889 c 0.196404,-0.1346 0.679116,-0.3693 1.236154,-0.6295 m -0.428501,-0.2106 c 0.349753,-0.086 0.960375,0.2912 1.383232,0.3965 0.0024,6e-4 0.0049,0 0.0073,0 m -1.992717,1.0791 c 0.300403,0.01 0.807075,-0.4119 1.416661,-0.9554 m 1.370363,0.06 c 0.491787,0.075 0.57754,-0.05 0.399202,-0.6889 m -0.263495,-0.3802 c 0.17306,-0.01 0.700766,-0.024 1.663578,0.5674 m -1.842612,0.3887 c 0.321926,0.016 0.546981,0.025 0.74828,-0.071 m 2.174673,0.6043 c 0.317083,-0.1305 0.330366,0.259 -0.04415,0.627 m -0.292523,-1.43 c 0.09817,-0.061 0.52913,-0.05 1.143665,-0.2293 m -1.095782,-0.095 c 0.314104,-0.1352 0.751672,-0.03 0.977351,-0.1072 m 1.639591,1.9375 c 0.147056,0.047 0.666776,-0.2315 1.025351,-0.6168 m -0.986535,-0.768 c 0.152912,-0.064 1.004781,-0.1814 1.695582,-0.3754 0.0045,-10e-4 0.009,0 0.01351,0 m -1.134428,-0.4762 c 0.477945,-0.1033 0.633242,0 1.122632,0.027 m 0.216751,0.9955 c 0.216581,-0.01 0.680619,-0.2819 0.596227,-0.6635 m 1.168265,1.3234 c 0.145547,0.059 0.68684,-0.2226 1.446331,-0.7761 m -1.678174,1.1838 c 0.460879,-0.1696 0.791651,-0.3418 1.379744,-0.8425 0.0018,0 0.0035,0 0.0053,0 m 1.35881,0.8543 c 0.503214,0.089 0.708662,-0.2349 0.778032,-0.3878 m -0.289057,-1.1061 c 0.291406,0.038 0.797299,0.048 1.412001,0.5407 m -1.172462,-0.5208 c 0.539446,0.078 0.820799,0.091 1.803885,0.063 0.008,-2e-4 0.01587,-4e-4 0.02363,-6e-4 m -0.775991,0.9992 c 0.243888,-0.1049 0.397368,-0.1469 0.450127,-0.1317 0.05394,0.015 0.0026,0.091 -0.165082,0.2201 m -0.357615,-0.774 c 0.127369,0.1728 0.96379,-0.08 1.552657,0.2261 m -0.587612,-0.9103 c 0.371774,-0.1032 0.933483,0.1324 1.311449,0.5501 0.0028,0 0.0055,0.01 0.0083,0.01 m 0.510913,0.4807 c 0.274274,-0.031 0.376594,-0.2824 0.115124,-0.6362 m 1.661705,1.3715 c 0.337482,0.1652 0.760478,-0.063 0.934672,0.2406 m 0.28669,-2.2254 c 0.244429,0.014 0.385339,0.2803 0.365648,0.4303 m -1.444238,0.3708 c 0.35151,0.1416 0.717235,-0.1449 0.620922,-0.6355 m 2.482027,0.7024 c 0.332245,-0.2065 0.288738,0.1454 -0.220237,0.3524 m -1.043818,0.03 c 0.396252,0.022 1.049643,0.197 1.560694,0.2022 m -0.112598,-1.3014 c 0.177996,0.1444 0.671592,0.3159 1.313525,0.7304 m 0.680992,0 c 0.466916,-0.1675 0.62212,-0.1629 0.365056,-0.289 m 0.911688,-0.4151 c 0.396992,0.1437 0.400507,0.1444 0.712927,0.4016 m -0.232057,0.7614 c 0.44821,0.064 0.927884,0.082 1.594849,0.044 m -0.895239,-0.1948 c 0.208534,0.1758 0.325328,0.037 0.161246,-0.1685 m 0.428188,-0.7589 c 0.376877,-0.076 0.397423,-0.139 0.698626,-0.1508 1.9e-4,0 3.8e-4,0 5.71e-4,0 m 0.03673,0.8925 c 0.234493,0.1684 0.667147,-0.2763 0.741132,-0.3379 m 2.191957,0.4189 c 0.311797,0.028 0.614639,-0.067 0.667893,0.4257 4.54e-4,0 9.26e-4,0.01 0.0014,0.012 m -1.725331,-0.7442 c 0.236198,-0.043 0.51841,0.2289 0.825627,0.065 m -0.398332,1.1926 c 0.489847,0.1805 0.753644,-0.1469 1.849873,-0.138 m -0.224092,-1.0171 c 0.165068,0.043 0.337074,0.052 0.525848,0.049 0.109806,0.1889 0.255373,0.3533 0.467313,0.5632" style="fill:none;fill-opacity:1;stroke:#000000;stroke-width:2.25000000000000000;stroke-linecap:square;stroke-linejoin:miter;stroke-miterlimit:4;stroke-opacity:1;stroke-dasharray:none" class="ignored"/>
    <path inkscape:connector-curvature="0" id="path3992-1-1" d="m 71.631067,1045.9172 c 0.08879,-0.4526 -0.323917,-0.7991 -0.774235,-1.9488 m 1.220438,0.9712 c 0.02963,-0.2592 0.126823,-0.7212 0.03549,-1.6022 -5.62e-4,0 -0.0011,-0.011 -0.0017,-0.016 m 0.165221,0.372 c -0.122003,-0.5033 -0.224847,-0.8397 -0.076,-1.5264 m -0.426336,0.3512 c -0.270524,-0.4702 -0.32962,-0.4138 -0.391524,-0.6767 m -0.108167,-1.1774 c -0.02746,-0.2666 -0.262701,-0.2932 -0.465774,-0.304 m 0.993493,1.1023 c -0.06972,-0.2431 -0.43125,-0.6927 -0.470135,-0.7222 m -0.684275,-0.9039 c -0.0776,-0.2075 -0.228924,-1.0734 -0.697464,-1.7142 m 0.439102,0.089 c 0.03232,-0.2721 -0.06001,-0.467 -0.257908,-0.8275 m 1.710518,8.4241 c -0.01752,-0.3024 -0.331673,-0.531 -0.280377,-1.2399 2.15e-4,0 4.21e-4,-0.01 6.19e-4,-0.01 m 0.0053,0.052 c -0.003,-0.3908 0.278695,-0.9062 0.659466,-1.7583 m -0.04141,0.024 c 0.02935,-0.1901 -0.203885,-0.9098 -0.890636,-1.2884 m -0.487703,0.1473 c -0.08288,-0.3466 0.01195,-0.372 0.524027,0.048 m 0.922683,-1.2521 c -0.247493,-0.5029 -0.301119,-0.5793 -0.863882,-0.3314 -0.0021,10e-4 -0.0042,0 -0.0063,0 m -0.304614,-0.2979 c -0.09155,-0.2067 0.05659,-0.6533 0.475344,-1.3616 m -0.76968,1.811 c -0.08045,-0.1387 -0.146932,-0.9253 0.198901,-1.4735 m -1.451921,-0.2909 c 0.03634,-0.086 -0.11472,-0.2463 -0.177429,-0.5893 m -15.309194,8.1483 c -0.01301,-0.3948 -0.143895,-0.2626 0.07217,-0.3099 m -0.373188,-0.8635 c -0.168824,-0.4224 -0.128875,-0.4439 0.120171,-0.8865 m -0.01627,0.6177 c 0.07932,-0.1102 0.158329,-0.142 -0.01002,-0.1148 m 0.408301,-0.94 c -0.139764,-0.2847 -0.03701,-0.2579 0.11419,-0.2442 m -0.0043,-0.7108 c -0.159677,-0.4195 -0.07165,-0.4356 -0.125036,-0.5042 m 0.04903,-0.8959 c 0.127559,-0.4289 0.06995,-0.1118 -0.01816,0.023 m -0.312291,-0.805 c 0.0058,-0.4333 -0.402697,-0.6674 -1.163803,-1.0833 m -0.07891,1.3732 c 0.04232,-0.1614 0.178802,-0.5746 0.480129,-1.0505 m 0.100362,-0.2041 c -0.202125,-0.4696 -0.04867,-0.6072 -0.08747,-1.3966 m 0.940517,0.6607 c 0.06085,-0.074 -0.06782,-0.1807 -0.247449,-0.32 m -0.365677,8.9452 c 0.0989,-0.4779 0.188578,-0.8906 0.990028,-1.8032 m -1.218112,1.1019 c 0.193926,-0.3027 0.360747,-0.6044 1.068974,-1.2454 m -0.27711,-0.4284 c -0.133347,-0.2367 -0.242788,-0.3698 -1.013989,0.1374 m 1.734455,-0.58 c -0.101732,-0.348 -0.166241,-0.5814 -0.605949,-0.9377 m 1.04492,0.1826 c 0.154056,-0.1605 -0.205911,-0.9856 -0.32544,-1.5294 m -0.768957,0.6732 c -0.169558,-0.3969 -0.0093,-0.6499 -0.228045,-1.4776 m 0.386389,-0.5236 c -0.202749,-0.3512 -0.201819,-0.5674 -0.348821,-0.2536 m 0.420933,-0.7341 c 0.01769,-0.3484 0.0728,-0.4374 0.0895,-0.8975 m -0.56024,0.4955 c 0.103066,-0.4512 -0.227452,-0.5617 -0.353257,-0.9808 -2.78e-4,-9e-4 -5.54e-4,0 -8.28e-4,0 m -0.767925,-0.044 c -0.0021,-0.2084 -0.112753,-0.4445 -0.129931,-0.5496 m -17.117147,8.1013 c -0.05536,-0.5094 0.184067,-0.2555 0.313487,-0.2078 8.99e-4,3e-4 0.0018,6e-4 0.0026,9e-4 m -0.03353,-0.2275 c 0.03127,-0.3285 -0.09727,-0.3874 -0.325897,-0.5112 m 0.357217,0.501 c -0.01535,-0.267 -0.259578,-0.515 -0.257264,-0.811 m 0.879802,0.2306 c 0.0061,-0.2774 -0.190095,-0.9801 -0.21662,-2.0106 m 0.716108,0.7536 c -0.102996,-0.1906 -0.169773,-0.4556 -0.653029,-0.846 m -1.010712,-0.2933 c 0.05138,-0.4366 0.230557,-0.7916 0.0916,-0.93 m 0.570932,-0.3008 c -0.06333,-0.1732 0.311359,-0.6067 0.405563,-0.6781 m 0.495389,-0.068 c 0.122321,-0.2289 -0.151424,-0.4645 0.07281,-1.0711 m -1.099702,-1.0892 c -0.151951,-0.1833 -0.274069,-0.2475 -1.073494,-0.1399 m 2.200096,0.488 c 0.09668,-0.2292 -0.04961,-0.4616 -0.210147,-0.7655 m -0.359089,9.7791 c -0.06638,-0.1787 -0.09658,-0.9834 0.343714,-1.3994 m -0.183908,-0.2432 c -0.0784,-0.3827 -0.01813,-0.7842 0.05164,-1.5517 4.57e-4,0 8.97e-4,-0.01 0.0013,-0.015 m -0.740715,0.4031 c 0.205267,-0.1926 0.181285,-0.9119 0.27451,-1.5318 m -0.479443,0.057 c -0.04023,-0.161 0.29634,-0.3833 0.720023,-0.2156 m -0.02968,-0.2716 c -0.0034,-0.216 -0.08531,-0.362 -0.401993,-0.093 m -0.363199,-1.0215 c 0.159385,-0.5423 -0.364632,-0.5172 -0.994884,0.01 -0.0051,0 -0.01014,0.01 -0.01507,0.012 m 1.788902,-1.3529 c -0.05908,-0.4541 0.115278,-0.935 -0.220802,-1.4702 m -0.09471,0.1443 c -0.02925,-0.3902 0.411167,-0.634 0.582571,-0.4359 m -0.582688,-0.2822 c 0.165143,-0.1063 0.315341,-0.3782 0.847091,-0.7721 m -1.292868,0.5386 c -8.44e-4,-0.1472 -0.0057,-0.2548 0.01783,-0.3439 m -18.144279,7.3965 c 0.03049,-0.3766 0.210879,-0.4872 0.897492,-0.7818 m 0.03464,0.2763 c 0.208701,-0.1887 0.333531,-0.9233 0.603433,-1.6147 m -0.56278,-0.728 c 0.255697,-0.5024 0.181578,-0.5136 -0.129543,-0.9232 m 0.618978,0.5848 c 0.0092,-0.351 0.178579,-0.6703 0.728654,-0.7276 m -0.161298,-0.4877 c 0.144973,-0.1919 0.07084,-0.3357 -0.365089,-0.092 m -0.72215,-0.5462 c 0.132845,-0.2981 0.193448,-0.5798 0.458385,-1.322 m 1.515902,0.3159 c 0.05997,-0.3511 -0.195309,-0.6486 -0.596279,-0.4829 m -0.394972,0.1551 c -0.106277,-0.3895 0.133031,-0.4958 0.152611,-0.957 m -0.788089,6.609 c 0.256109,-0.3806 -0.146154,-0.5374 -0.0334,-0.275 6.94e-4,0 0.0014,0 0.0021,0 m -0.287376,-0.315 c -0.02032,-0.3858 0.332101,-0.6419 0.691725,-0.9331 m 0.203863,-0.6676 c -0.04486,-0.1514 0.107767,-0.3922 -0.166769,0.043 m 0.491885,-1.3063 c -0.0294,-0.2354 0.288582,-0.3985 0.291104,-0.6827 m -0.835796,0.9984 c 0.235859,-0.1656 -0.0023,-0.4991 -0.06343,-0.9114 m -0.06914,-0.121 c 0.175544,-0.1601 0.168024,-0.6115 0.494191,-0.3693 0.0015,10e-4 0.003,0 0.0044,0 m 0.04449,-1.0782 c 0.263965,-0.1848 -0.180689,-0.2672 -0.59375,-0.3098 m 0.557013,-0.9169 c 0.07876,-0.2207 0.15969,-0.573 0.11427,-0.8854" style="fill:#ffffff;fill-opacity:1;stroke:#000000;stroke-width:2.25000000000000000;stroke-linecap:square;stroke-linejoin:miter;stroke-miterlimit:4;stroke-opacity:1" class="ignored"/>
  </g>
</svg>
