<!--?xml version="1.0" encoding="UTF-8" standalone="no"?--><!-- Created with Inkscape (http://www.inkscape.org/) --><svg xmlns:dc="http://purl.org/dc/elements/1.1/" xmlns:cc="http://creativecommons.org/ns#" xmlns:rdf="http://www.w3.org/1999/02/22-rdf-syntax-ns#" xmlns:svg="http://www.w3.org/2000/svg" xmlns="http://www.w3.org/2000/svg" xmlns:sodipodi="http://sodipodi.sourceforge.net/DTD/sodipodi-0.dtd" xmlns:inkscape="http://www.inkscape.org/namespaces/inkscape" width="100%" height="100%" viewBox="0 0 90 90" id="svg2" version="1.1" inkscape:version="0.48.4 r9939" sodipodi:docname="fluffy-collar.svg" class="fuzzy-collar" data-z="700" data-slots="collar" data-tags="clothing+collar">
  <defs id="defs4">
    <inkscape:path-effect effect="sketch" id="path-effect5121-4" is_visible="true" nbiter_approxstrokes="3" strokelength="1" strokelength_rdm="0;1" strokeoverlap="0.1" strokeoverlap_rdm="0;1" ends_tolerance="0.9;1" parallel_offset="0.9;1" tremble_size="1.5;1" tremble_frequency="0.01" nbtangents="0" tgt_places_rdmness="1;1" tgtscale="10.5" tgtlength="100" tgtlength_rdm="0.1;1"/>
    <inkscape:path-effect effect="sketch" id="path-effect5121-7" is_visible="true" nbiter_approxstrokes="3" strokelength="1" strokelength_rdm="0;1" strokeoverlap="0.1" strokeoverlap_rdm="0;1" ends_tolerance="0.9;1" parallel_offset="0.9;1" tremble_size="1.5;1" tremble_frequency="0.01" nbtangents="0" tgt_places_rdmness="1;1" tgtscale="10.5" tgtlength="100" tgtlength_rdm="0.1;1"/>
  </defs>
  <sodipodi:namedview id="base" pagecolor="#ffffff" bordercolor="#666666" borderopacity="1.0" inkscape:pageopacity="0.0" inkscape:pageshadow="2" inkscape:zoom="7.9824051" inkscape:cx="73.920153" inkscape:cy="23.502304" inkscape:document-units="in" inkscape:current-layer="svg2" showgrid="false" units="in" inkscape:window-width="1920" inkscape:window-height="1017" inkscape:window-x="-8" inkscape:window-y="-8" inkscape:window-maximized="1">
    <inkscape:grid type="xygrid" id="grid2994" empspacing="5" visible="true" enabled="true" snapvisiblegridlinesonly="true" units="in" spacingx="0.014in" spacingy="0.014in"/>
  </sodipodi:namedview>
  <metadata id="metadata7">
    <rdf:rdf>
      <cc:work rdf:about="">
        <dc:format>image/svg+xml</dc:format>
        <dc:type rdf:resource="http://purl.org/dc/dcmitype/StillImage"/>
        <dc:title/>
      </cc:work>
    </rdf:rdf>
  </metadata>
  <g inkscape:label="Body" inkscape:groupmode="layer" id="layer1" class="collar" transform="translate(0,-962.35975)" style="display:inline">
    <path style="fill:#ffffff;fill-opacity:1;stroke:#000000;stroke-width:2.25;stroke-linecap:butt;stroke-linejoin:miter;stroke-miterlimit:4;stroke-opacity:1;stroke-dasharray:none" d="m 80.99932,1010.9602 c -5.55978,-2.8859 -11.88229,4.0533 -18,5.4 -4.14344,0.9121 -10.14957,-1.6634 -12.6,1.8 -1.76703,2.4975 -0.27407,6.751 1.8,9 2.96125,3.2111 8.27415,2.9942 12.6,3.6 4.7536,0.6658 10.22304,2.365 14.4,0 3.04446,-1.7237 5.01825,-5.5223 5.4,-9 0.41407,-3.772 -0.23198,-9.0517 -3.6,-10.8 z" id="path5119-2-5" inkscape:connector-curvature="0" sodipodi:nodetypes="aaaaaaaa"/>
    <path style="fill:none;stroke:#000000;stroke-width:2.25;stroke-linecap:butt;stroke-linejoin:miter;stroke-miterlimit:4;stroke-opacity:1" d="m 81.198205,1012.5518 c -0.31099,-0.1315 -0.624492,-0.2333 -0.940257,-0.3081 m -0.736124,-2.1284 c -0.328759,-0.081 -0.659646,-0.1329 -0.992509,-0.1598 m -1.022112,1.1243 c -0.335276,-0.032 -0.672597,-0.039 -1.011819,-0.022 m 1.479405,-0.1469 c -0.324964,0.017 -0.651878,0.056 -0.980544,0.1143 m -1.149994,-1.3759 c -0.07643,0.011 -0.15295,0.023 -0.229554,0.037 -0.251662,0.043 -0.504238,0.097 -0.757655,0.1608 m 0.972841,1.3396 c -0.321264,0.083 -0.643875,0.1805 -0.967678,0.2917 m -1.070327,-0.8297 c -0.314545,0.1031 -0.630206,0.2188 -0.946832,0.3451 m 2.180327,-0.7403 c -0.303718,0.12 -0.608481,0.2502 -0.914169,0.3887 m -0.109252,1.3516 c -0.298055,0.1365 -0.597049,0.281 -0.896872,0.4316 m 0.07487,-1.7346 c -0.162826,0.081 -0.325842,0.1647 -0.489027,0.2494 -0.136243,0.071 -0.272603,0.1425 -0.409069,0.2152 m 0.01255,1.5786 c -0.289118,0.1536 -0.578863,0.3117 -0.86914,0.4722 m -1.34687,-1.6478 c -0.287592,0.1598 -0.575725,0.3222 -0.864305,0.4856 m -0.549892,0.4364 c -0.287993,0.1608 -0.57643,0.3229 -0.865215,0.4844 m 1.955894,-0.046 c -0.296136,0.1654 -0.592567,0.3305 -0.889179,0.4937 m -0.07158,0.4742 c -0.293338,0.1565 -0.58699,0.3112 -0.880848,0.4624 m -0.508287,0.084 c -0.298311,0.1586 -0.596683,0.3139 -0.895007,0.4639 m 1.329643,0.7322 c -0.298425,0.1522 -0.596949,0.2992 -0.895462,0.4393 m -0.470437,-1.6253 c -0.304867,0.1442 -0.609688,0.2814 -0.914343,0.4098 m -0.75229,-0.212 c -0.310327,0.1312 -0.620469,0.2535 -0.930299,0.3647 m -1.287934,1.1776 c -0.313792,0.1129 -0.627337,0.2146 -0.940499,0.3031 m 1.49209,0.4756 c -0.267985,0.078 -0.535693,0.1472 -0.803039,0.2054 -0.054,0.012 -0.108318,0.023 -0.162943,0.033 m 0.368202,-1.3267 c -0.322447,0.062 -0.655723,0.1046 -0.997373,0.1309 m -0.163702,1.5892 c -0.325142,0.031 -0.658266,0.047 -0.997165,0.052 m -0.627555,-0.046 c -0.330071,0.01 -0.665773,0 -1.005073,-0.01 m 1.253794,-2.7619 c -0.326991,0 -0.657678,-0.016 -0.990184,-0.032 m 0.723787,2.1329 c -0.333115,-0.019 -0.668207,-0.043 -1.003431,-0.068 m 0.269672,0.9451 c -0.331245,-0.028 -0.662829,-0.057 -0.992936,-0.084 m 0.09302,0.1431 c -0.338284,-0.023 -0.675131,-0.045 -1.00865,-0.062 m -1.194571,0.2322 c -0.197839,-0.011 -0.394577,-0.02 -0.589813,-0.027 -0.137183,0 -0.273626,-0.01 -0.409188,-0.011 m -0.563355,-3.0642 c -0.341462,-0.013 -0.67757,-0.018 -1.006166,-0.011 m 0.917243,2.9062 c -0.342375,0.013 -0.676897,0.038 -1.001151,0.079 m 2.742195,-1.7234 c -0.339285,0.036 -0.667791,0.09 -0.982725,0.1667 m -0.978961,0.4671 c -0.0837,0.019 -0.166469,0.039 -0.248269,0.061 -0.241682,0.065 -0.474859,0.1442 -0.69819,0.2401 m -0.911772,-1.2758 c -0.313651,0.1244 -0.608853,0.2795 -0.882226,0.4713 m 1.821468,-0.698 c -0.267274,0.1833 -0.513843,0.4015 -0.736298,0.6605 m -2.791472,3.6124 c -0.117526,0.1273 -0.228999,0.2649 -0.334,0.4134 -0.09171,0.1298 -0.174707,0.2642 -0.249362,0.4028 m 0.47567,-4.0795 c -0.169563,0.2844 -0.301117,0.5882 -0.398281,0.9064 m 1.450191,2.4188 c -0.09504,0.3127 -0.156736,0.6395 -0.188397,0.9759 m 0.436287,0.8481 c -0.03554,0.3265 -0.04258,0.6625 -0.02413,1.0036 m -1.966701,-3.7638 c 0.0096,0.3285 0.04335,0.6622 0.09863,0.9974 m 0.687094,3.9341 c 0.03651,0.2619 0.08626,0.5248 0.14794,0.7869 0.01539,0.065 0.03153,0.1308 0.04839,0.1961 m -0.252997,-2.0405 c 0.08069,0.3164 0.179175,0.6314 0.293041,0.9415 m 2.136755,1.4742 c 0.111568,0.3134 0.238571,0.6222 0.378624,0.9232 m -0.607989,-1.3558 c 0.135605,0.3089 0.284808,0.6099 0.445178,0.8996 m -0.852866,-0.4821 c 0.161269,0.2938 0.334504,0.5765 0.517101,0.8443 m -0.744523,1.8194 c 0.191735,0.286 0.393749,0.556 0.603077,0.8059 m 0.309368,-1.3214 c 0.09457,0.1139 0.19069,0.2238 0.28809,0.3293 0.128334,0.1389 0.261074,0.2714 0.397951,0.3979 m -1.226816,-0.5394 c 0.246403,0.2296 0.506354,0.4394 0.778298,0.6313 m 1.457319,-0.6318 c 0.26794,0.1977 0.548063,0.3771 0.838763,0.5404 m -0.163656,0.8222 c 0.291505,0.1637 0.593563,0.3112 0.904614,0.4444 m -0.481904,-2.0724 c 0.299074,0.1332 0.607227,0.2524 0.922942,0.3596 m 1.254437,1.6416 c 0.312341,0.1135 0.632146,0.215 0.957973,0.3062 m -2.003813,-1.6179 c 0.313831,0.085 0.633604,0.1607 0.957952,0.2281 m -1.674203,2.6612 c 0.217578,0.049 0.437231,0.095 0.658558,0.1378 0.107409,0.021 0.215212,0.041 0.323364,0.06 m 1.56927,-1.472 c 0.326622,0.057 0.656519,0.1083 0.988417,0.1544 m -0.07187,0.7362 c 0.32473,0.05 0.65164,0.094 0.979497,0.1358 m -0.478594,-0.6043 c 0.328169,0.035 0.65739,0.067 0.986436,0.097 m 2.516636,-0.5827 c 0.332431,0.033 0.664651,0.064 0.995417,0.095 m -3.709236,1.1934 c 0.336841,0.034 0.672365,0.067 1.005292,0.1006 m 2.025358,-1.6841 c 0.330112,0.031 0.657852,0.063 0.981906,0.097 m -0.923207,1.948 c 0.33767,0.037 0.671471,0.076 1.000002,0.1189 m 0.472509,-0.8803 c 0.110637,0.013 0.220695,0.027 0.33012,0.041 0.216755,0.028 0.435012,0.058 0.654581,0.09 m -0.874222,-1.597 c 0.323618,0.05 0.650204,0.1032 0.979137,0.1591 m 0.588944,2.5839 c 0.321969,0.057 0.646278,0.1163 0.972338,0.1765 m -0.558798,-1.125 c 0.325733,0.058 0.653252,0.1166 0.981977,0.1748 m 2.135615,1.725 c 0.326662,0.054 0.654522,0.1071 0.983006,0.1587 m -0.07262,-1.1537 c 0.33186,0.051 0.664225,0.1011 0.996521,0.1479 m -2.208276,1.2277 c 0.333021,0.055 0.66616,0.1077 0.998839,0.1554 m -0.917002,-2.3218 c 0.333437,0.046 0.666463,0.088 0.998492,0.1235 m 1.598473,0.828 c 0.210596,0.024 0.420852,0.045 0.630612,0.064 0.118768,0.011 0.237377,0.02 0.355798,0.029 m -0.13955,-1.7424 c 0.329901,0.023 0.658513,0.038 0.985212,0.045 m 0.975266,2.4246 c 0.335618,0.01 0.669177,0.01 1.000036,0 m -1.579129,-0.6334 c 0.333488,0 0.664213,-0.015 0.991508,-0.04 m 1.102685,-1.1259 c 0.337564,-0.032 0.671535,-0.076 1.001234,-0.1347 m -1.518881,1.0807 c 0.326589,-0.055 0.649149,-0.1235 0.966953,-0.2087 m -0.475923,-0.7132 c 0.327202,-0.077 0.649495,-0.1709 0.966176,-0.2824 m -1.474743,1.0487 c 0.313948,-0.1077 0.62256,-0.233 0.925135,-0.3777 m 0.999691,-1.057 c 0.184926,-0.086 0.367572,-0.1802 0.547763,-0.2818 0.106705,-0.06 0.21207,-0.1229 0.316069,-0.1882 m 1.910986,0.5377 c 0.282243,-0.1732 0.554765,-0.3646 0.81712,-0.572 m -3.287465,-0.5084 c 0.26283,-0.2067 0.51582,-0.4291 0.758542,-0.6653 m 1.777714,0.7499 c 0.239099,-0.2285 0.46819,-0.4708 0.686862,-0.7249 m 1.199695,-0.3227 c 0.225575,-0.2511 0.440846,-0.5139 0.645404,-0.7866 m -1.152919,1.5985 c 0.195963,-0.2612 0.381571,-0.5324 0.556442,-0.8119 m 0.05931,-0.3456 c 0.179629,-0.2802 0.348569,-0.5687 0.506438,-0.8637 m -1.183345,-0.873 c 0.162078,-0.2939 0.313221,-0.5944 0.453046,-0.8998 m -0.169804,-1.4292 c 0.137754,-0.3 0.264332,-0.6051 0.379355,-0.9136 m 0.437951,1.0998 c 0.119709,-0.3153 0.227721,-0.634 0.323648,-0.9543 m 0.768852,1.4194 c 0.09493,-0.3194 0.177653,-0.6408 0.247774,-0.9623 m 0.35004,-1.1356 c 0.07916,-0.324 0.145156,-0.6485 0.197565,-0.9713 m 0.389808,1.8684 c 0.03813,-0.2303 0.06965,-0.4599 0.09439,-0.688 0.01103,-0.1017 0.02129,-0.2044 0.03077,-0.3082 m -2.457796,-0.2054 c 0.03166,-0.3243 0.05554,-0.6587 0.07065,-1.0001 m 0.140557,-2.2715 c 0.01205,-0.3229 0.016,-0.6526 0.01098,-0.9865 m 0.27738,2.9088 c -0.0028,-0.3261 -0.01404,-0.6564 -0.03456,-0.9883 m 3.243108,-2.6656 c -0.01333,-0.3359 -0.03582,-0.6736 -0.06828,-1.0106 m -0.955667,1.8522 c -0.02966,-0.3288 -0.0691,-0.6573 -0.119158,-0.9832 m 0.140182,-1.3421 c -0.04889,-0.3316 -0.108389,-0.6606 -0.179334,-0.9844 m -1.426558,1.9744 c -0.04415,-0.1931 -0.09233,-0.3844 -0.14473,-0.5736 -0.03596,-0.1298 -0.0739,-0.2585 -0.11389,-0.386 m -1.494229,-0.5458 c -0.09731,-0.3255 -0.207403,-0.6434 -0.331179,-0.9509 m 1.503016,2.2449 c -0.117763,-0.3114 -0.250049,-0.6125 -0.397826,-0.9003 m 1.062289,-2.6141 c -0.148389,-0.3068 -0.312944,-0.5993 -0.494712,-0.8745 m 0.882452,-0.1392 c -0.181154,-0.2795 -0.380425,-0.5415 -0.598904,-0.7826 m -0.805222,1.5798 c -0.222926,-0.2533 -0.465384,-0.4851 -0.728566,-0.692 m 0.440909,0.2759 c -0.25793,-0.2046 -0.536215,-0.385 -0.83604,-0.5377 m -0.744162,-0.857 c -0.03298,-0.018 -0.06622,-0.035 -0.09973,-0.052 -2.19e-4,3e-4 -4.38e-4,6e-4 -6.57e-4,9e-4 -0.240378,-0.1217 -0.48212,-0.2253 -0.725165,-0.3121 m 0.888051,1.4971 c -0.322859,-0.1191 -0.647846,-0.2087 -0.974843,-0.2715 m -0.588051,-1.1905 c -0.327443,-0.067 -0.657082,-0.1062 -0.988715,-0.1207 m -1.286571,0.6935 c -0.326746,-0.015 -0.655576,0 -0.986267,0.027 m 0.925891,-1.8786 c -0.286043,0.021 -0.573507,0.059 -0.862279,0.1112 -0.04237,0.01 -0.08476,0.016 -0.127186,0.024 m 1.761451,1.6459 c -0.32692,0.061 -0.655456,0.1392 -0.985456,0.2332 m 0.504923,0.1027 c -0.319737,0.083 -0.640847,0.1814 -0.963186,0.292 m -1.184207,-0.259 c -0.309288,0.1073 -0.619765,0.2265 -0.931301,0.3554 m -0.647587,-1.3276 c -0.306248,0.1251 -0.613391,0.2598 -0.921293,0.4022 m 0.160073,-0.5035 c -0.299934,0.136 -0.600706,0.2795 -0.902197,0.4286 m -0.530232,0.3618 c -0.08454,0.042 -0.169129,0.085 -0.253772,0.1276 -0.213034,0.1081 -0.426393,0.2188 -0.640032,0.3315 m -0.144093,0.3376 c -0.297988,0.1492 -0.596489,0.3023 -0.895381,0.4577 m 1.510074,0.5101 c -0.295174,0.1599 -0.590818,0.3219 -0.886818,0.4845 m -2.096806,0.186 c -0.295443,0.1628 -0.591201,0.3262 -0.88716,0.4885 m 1.893946,-0.538 c -0.288129,0.1598 -0.576725,0.3188 -0.865691,0.4754 m 0.944473,0 c -0.293652,0.1613 -0.587481,0.3202 -0.881385,0.4751 m -0.835297,-0.8652 c -0.301532,0.156 -0.603085,0.308 -0.904543,0.4543 m -1.234505,1.7706 c -0.304114,0.1528 -0.608115,0.2997 -0.911889,0.4389 m 2.713925,-1.1773 c -0.304696,0.1418 -0.609462,0.2761 -0.914172,0.401 m -0.08172,0.7929 c -0.315946,0.1295 -0.631593,0.2492 -0.946817,0.3572 m -1.105099,1.0816 c -0.322135,0.1123 -0.643873,0.2127 -0.96508,0.2989 m 0.529663,-2.9697 c -0.187693,0.051 -0.375173,0.097 -0.562418,0.1389 -0.139442,0.031 -0.280941,0.058 -0.424298,0.081 m 0.100422,1.4921 c -0.320628,0.056 -0.651124,0.092 -0.989107,0.1146 m 0.698311,-1.9808 c -0.331274,0.026 -0.669841,0.038 -1.01353,0.04 m -0.818234,2.6801 c -0.329694,0 -0.664444,-0.013 -1.002264,-0.031 m -0.757699,0.076 c -0.332601,-0.014 -0.668405,-0.035 -1.005526,-0.059 m 0.842805,0.1902 c -0.33223,-0.024 -0.665896,-0.051 -0.999171,-0.078 m -1.712507,-3.3981 c -0.331383,-0.026 -0.662612,-0.053 -0.991866,-0.077 m 2.531944,1.4061 c -0.332371,-0.02 -0.662873,-0.039 -0.989628,-0.052 m -0.799214,-0.093 c -0.110279,-0.01 -0.220156,-0.011 -0.329561,-0.016 -0.224962,-0.01 -0.447924,-0.016 -0.668274,-0.019 m -1.717831,-0.258 c -0.335937,-0.01 -0.666113,0 -0.988308,0.011 m 1.527541,2.7181 c -0.338124,0.018 -0.667839,0.05 -0.986616,0.1 m 1.341799,-3.7078 c -0.299293,0.039 -0.589211,0.093 -0.867661,0.1672 -0.03279,0.01 -0.06542,0.018 -0.09789,0.027 m 1.470377,3.4289 c -0.326635,0.088 -0.63767,0.2015 -0.929792,0.3473 m -3.691535,-1.5966 c -0.299202,0.138 -0.579182,0.3084 -0.836409,0.5172 m 2.899912,-0.077 c -0.254499,0.1985 -0.488022,0.4324 -0.697379,0.7071 m 0.793941,-0.6554 c -0.05629,0.069 -0.11101,0.1399 -0.164118,0.2139 -0.143664,0.2003 -0.266326,0.4119 -0.369393,0.6329 m -1.791743,1.5743 c -0.143526,0.2987 -0.250276,0.6153 -0.323726,0.9448 m 1.98193,-0.5946 c -0.0841,0.3169 -0.136216,0.6465 -0.159626,0.9844 m -3.280687,0.065 c -0.02707,0.3303 -0.02696,0.6687 -0.0026,1.011 m 1.183046,-1.5789 c 0.01991,0.3318 0.06294,0.6679 0.126412,1.0042 m 0.125409,0.6615 c 0.03277,0.1769 0.07129,0.354 0.115163,0.5308 0.03725,0.15 0.07836,0.2998 0.123081,0.449 m -2.191097,-0.9248 c 0.09516,0.3224 0.207314,0.6423 0.334028,0.9564 m 2.598309,0.2847 c 0.121386,0.3111 0.257524,0.6167 0.406009,0.9137 m -1.079469,-1.8119 c 0.143133,0.3034 0.299347,0.5982 0.466173,0.8808 m 2.532001,3.7034 c 0.174816,0.2915 0.36093,0.5705 0.555625,0.8332 m -3.586005,-2.9956 c 0.205127,0.2825 0.419855,0.5474 0.641049,0.7904 m 0.237239,2.8014 c 0.03869,0.045 0.07761,0.09 0.116761,0.1334 0.185035,0.2067 0.379641,0.3995 0.582937,0.5794 m -0.141906,-1.0742 c 0.255521,0.2261 0.524169,0.4324 0.80439,0.6212 m 1.976263,-0.9184 c 0.278405,0.1874 0.568606,0.3571 0.86903,0.511 m -0.991929,-0.2203 c 0.295602,0.1547 0.601378,0.2938 0.915783,0.4193 m 1.416514,0.8929 c 0.301781,0.1271 0.612074,0.2407 0.929377,0.3429 m -0.340562,-1.0967 c 0.3094,0.1019 0.625784,0.1925 0.947733,0.2737 m -1.798337,-0.3734 c 0.320071,0.086 0.645686,0.1625 0.975487,0.2314 m 0.268569,1.2944 c 0.135687,0.03 0.272073,0.059 0.409065,0.086 0.194564,0.039 0.39035,0.076 0.587093,0.1104 m 1.277995,-0.8067 c 0.324551,0.054 0.652042,0.1011 0.981216,0.1444 m 0.194488,-0.9871 c 0.324741,0.041 0.651387,0.078 0.978708,0.1123 m -1.7543,-0.373 c 0.331326,0.04 0.663308,0.077 0.994708,0.1125 m 1.803101,3.2653 c 0.328974,0.035 0.65757,0.068 0.98455,0.1004 m -1.874658,-3.0142 c 0.337317,0.029 0.672999,0.057 1.005754,0.087 m 1.378075,3.2168 c 0.334497,0.038 0.666041,0.078 0.993301,0.1199 m -1.441411,-1.4798 c 0.325079,0.041 0.646131,0.084 0.961845,0.1317 0.0083,0 0.01662,0 0.02494,0 m 0.302546,-1.8055 c 0.02502,0 0.05002,0.01 0.07498,0.01 0.306355,0.039 0.615596,0.083 0.927194,0.1296 m -0.946401,2.1921 c 0.330725,0.052 0.664206,0.1072 0.999812,0.1642 m 1.692621,-0.8141 c 0.326156,0.053 0.654403,0.1075 0.984144,0.1626 m 0.333654,-0.4648 c 0.32451,0.059 0.650634,0.1178 0.977797,0.1761 m -0.524804,-0.9202 c 0.33243,0.055 0.665715,0.11 0.999272,0.1627 m 0.08939,0.8161 c 0.332149,0.05 0.664754,0.099 0.997237,0.1437 m -2.642017,0.8041 c 0.333374,0.05 0.666662,0.097 0.999284,0.1398 m 1.220802,-1.8309 c 0.33367,0.045 0.666749,0.086 0.998651,0.1203 m -0.137329,1.7288 c 0.127781,0.013 0.255399,0.025 0.382822,0.037 0.209459,0.019 0.41839,0.034 0.626646,0.047 m 0.658444,1.6466 c 0.335921,0.017 0.67013,0.026 1.002006,0.026 m -2.059776,-2.654 c 0.3403,0 0.67819,0 1.013029,-0.023 m 1.616277,1.414 c 0.332068,-0.014 0.661308,-0.039 0.98704,-0.077 m -2.597096,-1.1783 c 0.331642,-0.037 0.659812,-0.086 0.983799,-0.1502 m 2.95406,0.6128 c 0.327694,-0.062 0.651064,-0.1378 0.969388,-0.2309 m -2.38866,0.011 c 0.323446,-0.088 0.641884,-0.1928 0.95461,-0.3159 m -0.228594,0.6411 c 0.305727,-0.1183 0.605943,-0.2545 0.89992,-0.4104 m 1.15265,1.5545 c 0.106673,-0.056 0.212541,-0.1137 0.317568,-0.1745 0.180763,-0.1046 0.35766,-0.2168 0.530572,-0.3359 m 0.239316,-2.0951 c 0.277771,-0.1826 0.545712,-0.3825 0.803386,-0.5979 m -0.425666,0.9439 c 0.254066,-0.2048 0.498191,-0.425 0.731952,-0.6586 m -0.391575,-0.6212 c 0.238504,-0.2353 0.466856,-0.4838 0.684643,-0.7436 m -0.46243,0.6016 c 0.218701,-0.2491 0.427125,-0.5096 0.624867,-0.7797 m 1.722524,-1.4381 c 0.192693,-0.2666 0.374832,-0.5425 0.54603,-0.8261 m -2.041735,1.1013 c 0.172297,-0.2873 0.333867,-0.5824 0.484331,-0.8834 m 0.873681,1.8753 c 0.152571,-0.2925 0.294116,-0.5912 0.424259,-0.8945 m 0.80664,-2.5019 c 0.130917,-0.3089 0.250538,-0.6224 0.358486,-0.9387 m -1.664119,1.1677 c 0.109745,-0.3188 0.207737,-0.6405 0.293591,-0.9633 m 1.164905,-0.159 c 0.08954,-0.3206 0.166641,-0.6428 0.230915,-0.9648 m -0.618096,0.2521 c 0.0674,-0.3292 0.121646,-0.6582 0.162326,-0.9852 m -1.214536,-1.2946 c 0.02114,-0.1448 0.03967,-0.2892 0.05553,-0.433 0.02067,-0.1874 0.0388,-0.3784 0.05419,-0.5725 m 1.173636,2.7644 c 0.02584,-0.3274 0.0438,-0.6639 0.05294,-1.0067 m -0.845251,-2.5001 c 0.01608,-0.3279 0.02394,-0.6619 0.02266,-0.9992 m 1.898757,2.1079 c -6.8e-4,-0.331 -0.01,-0.6655 -0.0288,-1.0009 m -1.479187,-0.9789 c -0.01539,-0.3315 -0.04001,-0.6643 -0.07469,-0.9959 m -0.676724,-0.5405 c -0.03703,-0.3291 -0.08398,-0.6572 -0.141672,-0.982 m 0.86552,0.454 c -0.05471,-0.3279 -0.120303,-0.6526 -0.197612,-0.9716 m -0.158707,1.2521 c -0.02687,-0.1083 -0.05504,-0.216 -0.08456,-0.3229 -0.05916,-0.2143 -0.123723,-0.4258 -0.193935,-0.6336 m -1.274507,-1.2215 c -0.101883,-0.3227 -0.21706,-0.6371 -0.346453,-0.9403 m 0.271414,1.332 c -0.130976,-0.317 -0.276679,-0.6224 -0.438114,-0.9131 m 1.570696,0.8039 c -0.165779,-0.2944 -0.348078,-0.574 -0.547995,-0.8355 m 0.153994,-0.8276 c -0.196269,-0.2707 -0.410916,-0.5228 -0.645097,-0.7527 m 0.73748,0.066 c -0.232951,-0.2379 -0.485781,-0.4535 -0.759682,-0.6432 m -0.197048,-0.6551 c -0.201273,-0.1461 -0.414209,-0.2781 -0.639304,-0.3943 -3.4e-5,10e-5 -6.9e-5,2e-4 -1.05e-4,2e-4 -0.04403,-0.023 -0.08811,-0.045 -0.132238,-0.066 m -0.577618,1.0435 c -0.3077,-0.1519 -0.617573,-0.2746 -0.929496,-0.3703 m -0.02675,-1.3192 c -0.314235,-0.1156 -0.63103,-0.2018 -0.950134,-0.2615 m 0.196759,-1.3299 c -0.324494,-0.069 -0.651367,-0.1103 -0.980384,-0.1267 m 0.05187,0.5774 c -0.327511,-0.018 -0.65717,-0.011 -0.988762,0.018 m 0.65895,0.7241 c -0.309511,0.017 -0.620692,0.054 -0.933367,0.1078 -0.01457,0 -0.02915,0.01 -0.04373,0.01 m -1.008366,0.6886 c -0.01813,0 -0.03627,0.01 -0.05441,0.01 -0.307645,0.055 -0.616651,0.1264 -0.926881,0.2116 m 1.054737,0.7101 c -0.314284,0.088 -0.629953,0.1901 -0.946862,0.3053 m -0.339927,-0.1022 c -0.30925,0.1072 -0.619709,0.2266 -0.931248,0.3561 m -0.609416,-0.8732 c -0.30628,0.1276 -0.613484,0.265 -0.921476,0.4102 m 1.030681,-0.046 c -0.301874,0.141 -0.604635,0.2895 -0.908161,0.4436 m -0.24158,0.1777 c -0.107828,0.053 -0.215758,0.1061 -0.323787,0.1603 -0.184732,0.093 -0.369751,0.1873 -0.55503,0.2836 m 1.48314,1.4951 c -0.290137,0.15 -0.580872,0.3039 -0.872107,0.46 m -1.81143,-1.4762 c -0.288366,0.1564 -0.577226,0.3152 -0.866484,0.4747 m -0.556498,-1.211 c -0.289882,0.1574 -0.580162,0.3157 -0.87074,0.4732 m 0.777998,1.5049 c -0.293553,0.1619 -0.587368,0.3232 -0.881338,0.4821 m 0.301934,-1.0571 c -0.295423,0.1598 -0.590927,0.3173 -0.886409,0.471 m 2.416644,-0.1943 c -0.294842,0.1569 -0.589885,0.31 -0.885022,0.4575 m -2.066532,0.1306 c -0.299674,0.1475 -0.599372,0.2895 -0.898984,0.4243 m 0.794059,0.4218 c -0.308831,0.1431 -0.617413,0.2788 -0.925632,0.4052 M 64.8485,1015.391 c -0.315004,0.125 -0.629685,0.2407 -0.943921,0.3452 m -0.13379,0.7275 c -0.320845,0.1139 -0.641218,0.2162 -0.960995,0.3045 m 1.603168,-2.0136 c -0.21078,0.062 -0.421416,0.1189 -0.631864,0.1685 -0.109926,0.026 -0.221191,0.049 -0.333691,0.071 m -1.501374,0.421 c -0.323622,0.059 -0.657424,0.099 -0.998996,0.1243 m -0.966297,2.1567 c -0.327508,0.026 -0.662416,0.038 -1.002543,0.04 m 3.340362,-2.5242 c -0.33303,0.01 -0.671343,0.01 -1.012922,7e-4 m -1.189829,3.0473 c -0.328412,-0.013 -0.6602,-0.032 -0.993496,-0.056 m 1.493866,-2.8481 c -0.330504,-0.025 -0.662656,-0.055 -0.994636,-0.085 m -1.466378,-0.4305 c -0.33126,-0.021 -0.662488,-0.044 -0.991867,-0.064 m -0.597144,0.7068 c -0.338937,-0.023 -0.676074,-0.044 -1.009506,-0.059 m 0.732565,0.7712 c -0.14019,-0.01 -0.27976,-0.015 -0.418568,-0.021 -0.198641,-0.01 -0.395723,-0.015 -0.590835,-0.018 m -0.869348,-0.252 c -0.336852,0 -0.668085,0 -0.991508,0.019 m 1.286976,1.0512 c -0.337849,0.017 -0.667505,0.048 -0.986482,0.095 m 0.548801,-0.3027 c -0.330248,0.043 -0.649553,0.1033 -0.955192,0.1869 -0.0059,0 -0.01188,0 -0.01782,0 m -1.19832,-0.067 c -0.02608,0.01 -0.05207,0.014 -0.07796,0.021 -0.298468,0.084 -0.5838,0.1905 -0.853424,0.323 m 1.660341,-0.026 c -0.309449,0.1351 -0.599778,0.302 -0.867666,0.5068 m -2.180457,-0.7453 c -0.261675,0.1947 -0.502355,0.4247 -0.718861,0.6955 m 0.616782,0.4648 c -0.07617,0.09 -0.149632,0.1844 -0.220276,0.2837 -0.128075,0.1801 -0.239654,0.369 -0.335725,0.5653 m 0.314866,0.1694 c -0.14751,0.2977 -0.257962,0.6137 -0.334807,0.9431 m -1.114714,-0.5029 c -0.08114,0.3209 -0.129862,0.655 -0.149407,0.9978 m 0.981192,-0.1241 c -0.02795,0.3292 -0.02829,0.6669 -0.004,1.0089 m -0.693151,1.3432 c 0.01913,0.3263 0.06173,0.6571 0.125077,0.9886 m 1.523091,-1.4427 c 0.03529,0.2039 0.0784,0.4081 0.128709,0.612 0.03017,0.1222 0.06292,0.2442 0.09813,0.3659 m -2.019344,-1.357 c 0.0844,0.319 0.186179,0.6361 0.302972,0.9477 m 0.152108,1.9505 c 0.116318,0.3112 0.247787,0.6172 0.392015,0.9147 m 2.181339,-0.4813 c 0.142667,0.3006 0.298457,0.5928 0.464911,0.8732 m -0.398124,-1.7067 c 0.165776,0.2922 0.343162,0.5723 0.529515,0.8366 m -1.135674,0.3143 c 0.192803,0.2775 0.395695,0.5383 0.60566,0.7781 m -0.127387,0.2244 c 0.0566,0.067 0.113746,0.1328 0.17137,0.1968 0.16594,0.1844 0.339606,0.3576 0.520361,0.5205 m 0.435177,0.2901 c 0.250504,0.2225 0.514396,0.4253 0.790102,0.6105 m 1.098102,-0.8032 c 0.267909,0.1968 0.547862,0.3757 0.838228,0.5387 m 0.06763,-0.587 c 0.286338,0.1634 0.5831,0.311 0.888708,0.4447 m -0.990123,-0.2178 c 0.30119,0.1285 0.611138,0.2433 0.928343,0.3465 m 0.928438,1.3203 c 0.310658,0.1104 0.628398,0.2093 0.951792,0.2985 m -0.02983,0.9309 c 0.319261,0.082 0.644143,0.1544 0.973283,0.219 m -1.19057,-0.8333 c 0.160373,0.036 0.321819,0.071 0.484179,0.104 0.163902,0.033 0.328734,0.065 0.494331,0.094 m -0.392308,0 c 0.324882,0.058 0.652873,0.1097 0.982711,0.1569 m 1.505359,-1.1095 c 0.333782,0.046 0.669377,0.087 1.005531,0.1254 m -1.746629,1.282 c 0.326027,0.04 0.652986,0.077 0.979652,0.1128 m 0.752037,-0.095 c 0.337271,0.035 0.674099,0.069 1.009225,0.102 m 0.179033,-0.6245 c 0.329006,0.036 0.656578,0.072 0.98145,0.1084 m -0.91533,0.1364 c 0.333988,0.029 0.665349,0.059 0.992744,0.092 m -1.072717,0.5482 c 0.335096,0.034 0.666079,0.072 0.991539,0.1136 m 2.911012,1.7961 c 0.05206,0.01 0.103988,0.015 0.155774,0.023 0.271802,0.041 0.546023,0.084 0.822279,0.1309 m -0.169623,-1.6495 c 0.32434,0.051 0.651491,0.1046 0.980834,0.1606 m -2.82784,-2.2177 c 0.32745,0.052 0.657155,0.1061 0.988519,0.1609 m -0.108988,1.5029 c 0.323711,0.062 0.649115,0.1249 0.975639,0.1869 m 1.035794,-0.7246 c 0.327195,0.059 0.655483,0.1171 0.98429,0.1732 m 0.202758,1.4626 c 0.328865,0.057 0.65827,0.1128 0.987644,0.1648 m -2.14291,-2.2981 c 0.325449,0.047 0.651165,0.091 0.976575,0.1309 m 0.678711,2.4454 c 0.335519,0.042 0.670563,0.08 1.004538,0.1109 m 0.458604,-1.3438 c 0.153257,0.016 0.306314,0.031 0.45911,0.045 0.177531,0.016 0.35471,0.03 0.531445,0.041 m -1.089911,0.2813 c 0.335259,0.022 0.668914,0.036 1.000343,0.041 m -0.708417,0.8368 c 0.334909,0 0.667682,0 0.997668,-0.02 m 0.272462,-0.3062 c 0.332425,-0.012 0.662163,-0.036 0.988531,-0.072 m 0.183915,-1.1777 c 0.335686,-0.027 0.66775,-0.068 0.995504,-0.1226 m 3.50322,0.2587 c 0.326167,-0.054 0.648182,-0.1228 0.965315,-0.2081 m -2.101715,0.6562 c 0.322666,-0.087 0.640372,-0.1902 0.9524,-0.3117 m -1.369873,-0.3608 c 0.307836,-0.1177 0.610226,-0.2531 0.906449,-0.4082 m 1.023214,1.1176 c 0.133595,-0.065 0.265991,-0.1349 0.397125,-0.2083 0.158912,-0.089 0.314922,-0.1836 0.467956,-0.2836 m -0.03804,0.728 c 0.276876,-0.1759 0.54404,-0.3696 0.801049,-0.579 m -1.004049,-0.1275 c 0.254594,-0.2089 0.499308,-0.4334 0.733715,-0.6715 m 2.131543,-1.9214 c 0.239383,-0.2272 0.46862,-0.4678 0.687297,-0.7201 m -1.235738,0.4561 c 0.212289,-0.2536 0.414366,-0.5185 0.605839,-0.7929 m 0.200173,-0.8933 c 0.193546,-0.2678 0.376637,-0.5452 0.548889,-0.8303 m -1.828304,1.5055 c 0.178609,-0.278 0.346514,-0.5639 0.503327,-0.8562 m 3.116635,1.389 c 0.15228,-0.2932 0.293643,-0.5927 0.423716,-0.8969 m -1.610952,-3.0922 c 0.137591,-0.3027 0.263742,-0.6103 0.378071,-0.9208 m 0.348641,1.7683 c 0.11192,-0.3131 0.212066,-0.6295 0.300055,-0.9472 m -0.291501,1.5586 c 0.100635,-0.3181 0.188706,-0.638 0.263801,-0.9578 m -1.826883,-2.2707 c 0.07387,-0.3278 0.134514,-0.6557 0.181523,-0.9815 m 3.086693,1.4356 c 0.02418,-0.1727 0.04467,-0.3449 0.0614,-0.5162 0.01558,-0.1596 0.02929,-0.3219 0.04102,-0.4865 m -2.409033,0.072 c 0.026,-0.3214 0.04418,-0.6522 0.05359,-0.9894 m -0.181159,1.1904 c 0.0096,-0.3303 0.01104,-0.6669 0.0033,-1.0072 m 0.405693,-0.4128 c -0.0049,-0.3303 -0.01828,-0.6643 -0.04105,-0.9994 m 0.747334,-0.092 c -0.01813,-0.3336 -0.04548,-0.6687 -0.08287,-1.0028 m 0.638902,-2.1721 c -0.04008,-0.3271 -0.09003,-0.6534 -0.150638,-0.9764 m -0.728487,1.6429 c -0.0537,-0.3319 -0.118177,-0.6609 -0.194254,-0.9843 m -1.553633,0.6308 c -0.0326,-0.1385 -0.06724,-0.276 -0.10398,-0.4123 -0.05135,-0.1906 -0.106813,-0.3788 -0.166554,-0.5643 m -0.151636,-1.1793 c -0.103963,-0.3235 -0.220837,-0.6387 -0.351543,-0.943 m 1.464866,0.4229 c -0.124235,-0.3163 -0.263283,-0.6213 -0.418124,-0.912 m -0.133461,-0.1035 c -0.153918,-0.3023 -0.324392,-0.5897 -0.512479,-0.859 m 0.877212,0.3623 c -0.189637,-0.2805 -0.397613,-0.5424 -0.625048,-0.7825 m -1.56987,0.3722 c -0.226731,-0.2411 -0.473269,-0.4601 -0.740767,-0.6536 m 2.626883,1.0861 c -0.223247,-0.1637 -0.460847,-0.31 -0.713513,-0.4368 -2.85e-4,3e-4 -5.71e-4,7e-4 -8.56e-4,0 -0.01903,-0.01 -0.03806,-0.019 -0.05711,-0.028 m -0.480955,0.367 c -8.4e-5,-10e-5 -1.68e-4,-2e-4 -2.52e-4,-3e-4 -0.295465,-0.155 -0.592953,-0.2825 -0.892356,-0.3848" id="path5119-1" class="ignored" inkscape:connector-curvature="0"/>
    <path style="fill:#ffffff;fill-opacity:1;stroke:#000000;stroke-width:2.25;stroke-linecap:butt;stroke-linejoin:miter;stroke-miterlimit:4;stroke-opacity:1;stroke-dasharray:none" d="m 8.92662,1010.9602 c 5.55978,-2.8859 11.88229,4.0533 18,5.4 4.14344,0.9121 10.14957,-1.6634 12.6,1.8 1.76703,2.4975 0.27407,6.751 -1.8,9 -2.96125,3.2111 -8.27415,2.9942 -12.6,3.6 -4.7536,0.6658 -10.22304,2.365 -14.4,0 -3.04446,-1.7237 -5.01825,-5.5223 -5.4,-9 -0.41407,-3.772 0.23198,-9.0517 3.6,-10.8 z" id="path5119-2-1" inkscape:connector-curvature="0" sodipodi:nodetypes="aaaaaaaa"/>
    <path style="fill:none;stroke:#000000;stroke-width:2.25;stroke-linecap:butt;stroke-linejoin:miter;stroke-miterlimit:4;stroke-opacity:1" d="m 10.1905,1012.5518 c 0.320004,-0.1315 0.64213,-0.2333 0.966282,-0.3081 m -0.93091,-2.1284 c 0.324745,-0.081 0.651883,-0.1329 0.9812,-0.1598 m -1.221408,1.1243 c 0.326632,-0.032 0.655419,-0.039 0.986132,-0.022 m 1.279629,-0.1469 c 0.334002,0.017 0.669801,0.056 1.007244,0.1143 m -1.347473,-1.3759 c 0.07505,0.011 0.15019,0.023 0.22542,0.037 0.247149,0.043 0.495257,0.097 0.74425,0.1608 m 0.779066,1.3396 c 0.315117,0.083 0.63169,0.1805 0.949576,0.2917 m -1.259997,-0.8297 c 0.308781,0.1031 0.61884,0.2188 0.930051,0.3451 m 1.994564,-0.7403 c 0.307723,0.12 0.616438,0.2502 0.926009,0.3887 m -0.291611,1.3516 c 0.30338,0.1365 0.60755,0.281 0.91238,0.4316 m -0.10472,-1.7346 c 0.160677,0.081 0.3216,0.1647 0.48275,0.2494 0.134544,0.071 0.269246,0.1425 0.404097,0.2152 m -0.16495,1.5786 c 0.298894,0.1536 0.598383,0.3117 0.898343,0.4722 m -1.522967,-1.6478 c 0.29708,0.1598 0.594627,0.3222 0.892522,0.4856 m -0.725259,0.4364 c 0.295555,0.1608 0.591476,0.3229 0.887648,0.4844 m 1.780591,-0.046 c 0.288477,0.1654 0.577278,0.3305 0.86631,0.4937 m -0.247472,0.4742 c 0.294509,0.1565 0.589142,0.3112 0.883793,0.4624 m -0.685419,0.084 c 0.294936,0.1586 0.590061,0.3139 0.885268,0.4639 m 1.150626,0.7322 c 0.302358,0.1522 0.604673,0.2992 0.906832,0.4393 m -0.651969,-1.6253 c 0.305498,0.1442 0.610892,0.2814 0.916068,0.4098 m -0.936921,-0.212 c 0.311434,0.1312 0.622679,0.2535 0.93361,0.3647 m -1.476143,1.1776 c 0.320672,0.1129 0.640966,0.2146 0.960751,0.3031 m 1.300034,0.4756 c 0.270219,0.078 0.540092,0.1472 0.809537,0.2054 0.05442,0.012 0.109167,0.023 0.164216,0.033 m 0.172211,-1.3267 c 0.316784,0.062 0.644365,0.1046 0.980291,0.1309 m -0.362776,1.5892 c 0.325679,0.031 0.659403,0.047 0.998967,0.052 m -0.827499,-0.046 c 0.326457,0.01 0.658644,0 0.994555,-0.01 m 1.053885,-2.7619 c 0.332791,0 0.66929,-0.016 1.007584,-0.032 m 0.524148,2.1329 c 0.329304,-0.019 0.66053,-0.043 0.991857,-0.068 m 0.07023,0.9451 c 0.334136,-0.028 0.668531,-0.057 1.001354,-0.084 m -0.106432,0.1431 c 0.330817,-0.023 0.660344,-0.045 0.986728,-0.062 m -1.394224,0.2322 c 0.197794,-0.011 0.394507,-0.02 0.589739,-0.027 0.137181,0 0.273631,-0.01 0.409211,-0.011 m -0.763285,-3.0642 c 0.337011,-0.013 0.668908,-0.018 0.993534,-0.011 m 0.717318,2.9062 c 0.339739,0.013 0.67183,0.038 0.993841,0.079 m 2.543381,-1.7234 c 0.341447,0.036 0.671927,0.09 0.988673,0.1667 m -1.173807,0.4671 c 0.08473,0.019 0.168507,0.039 0.251292,0.061 0.244593,0.065 0.48049,0.1442 0.706385,0.2401 m -1.096536,-1.2758 c 0.310422,0.1244 0.602566,0.2795 0.872963,0.4713 m 1.656904,-0.698 c 0.275861,0.1833 0.530967,0.4015 0.762218,0.6605 m -2.925402,3.6124 c 0.116398,0.1273 0.226767,0.2649 0.330685,0.4134 0.09076,0.1298 0.172861,0.2642 0.246655,0.4028 m 0.3786,-4.0795 c 0.161058,0.2844 0.284237,0.5882 0.372998,0.9064 m 1.392709,2.4188 c 0.100738,0.3127 0.167998,0.6395 0.205131,0.9759 m 0.414208,0.8481 c 0.04259,0.3265 0.05669,0.6625 0.04532,1.0036 m -1.95939,-3.7638 c -0.0096,0.3285 -0.04319,0.6622 -0.09816,0.9974 m 0.718444,3.9341 c -0.04287,0.2619 -0.09889,0.5248 -0.166753,0.7869 -0.01693,0.065 -0.03461,0.1308 -0.053,0.1961 m -0.201628,-2.0405 c -0.08596,0.3164 -0.189621,0.6314 -0.30852,0.9415 m 2.205371,1.4742 c -0.114066,0.3134 -0.243534,0.6222 -0.385999,0.9232 m -0.523871,-1.3558 c -0.14394,0.3089 -0.30125,0.6099 -0.469445,0.8996 m -0.754131,-0.4821 c -0.170148,0.2938 -0.351911,0.5765 -0.542639,0.8443 m -0.631263,1.8194 c -0.192533,0.286 -0.395181,0.556 -0.604997,0.8059 m 0.437904,-1.3214 c -0.09433,0.1139 -0.190204,0.2238 -0.287363,0.3293 -0.128015,0.1389 -0.260436,0.2714 -0.39699,0.3979 m -1.080965,-0.5394 c -0.240573,0.2296 -0.494724,0.4394 -0.760846,0.6313 m 1.618804,-0.6318 c -0.268022,0.1977 -0.548395,0.3771 -0.839514,0.5404 m 0.01,0.8222 c -0.282495,0.1637 -0.575818,0.3112 -0.878377,0.4444 m -0.299411,-2.0724 c -0.302946,0.1332 -0.614875,0.2524 -0.934276,0.3596 m 1.443035,1.6416 c -0.309631,0.1135 -0.626643,0.215 -0.949593,0.3062 m -1.811151,-1.6179 c -0.322114,0.085 -0.65014,0.1607 -0.982695,0.2281 m -1.478909,2.6612 c -0.21716,0.049 -0.436374,0.095 -0.657241,0.1378 -0.107186,0.021 -0.214762,0.041 -0.322681,0.06 m 1.76623,-1.472 c -0.326001,0.057 -0.655317,0.1083 -0.986675,0.1544 m 0.126113,0.7362 c -0.332903,0.05 -0.667861,0.094 -1.003617,0.1358 m -0.280004,-0.6043 c -0.333242,0.035 -0.667413,0.067 -1.001272,0.097 m 2.715554,-0.5827 c -0.331965,0.033 -0.663899,0.064 -0.994557,0.095 m -3.510185,1.1934 c -0.330011,0.034 -0.658824,0.067 -0.985173,0.1006 m 2.224375,-1.6841 c -0.338775,0.031 -0.674994,0.063 -1.007325,0.097 m -0.72441,1.948 c -0.332771,0.037 -0.661822,0.076 -0.985759,0.1189 m 0.670813,-0.8803 c -0.111793,0.013 -0.222998,0.027 -0.33356,0.041 -0.219007,0.028 -0.439519,0.058 -0.661341,0.09 m -0.676574,-1.597 c -0.328955,0.05 -0.660819,0.1032 -0.994955,0.1591 m 0.786146,2.5839 c -0.330732,0.057 -0.663734,0.1163 -0.998392,0.1765 m -0.361819,-1.125 c -0.327753,0.058 -0.657177,0.1166 -0.987683,0.1748 m 2.332602,1.725 c -0.328298,0.054 -0.657775,0.1071 -0.987855,0.1587 m 0.124594,-1.1537 c -0.325229,0.051 -0.65129,0.1011 -0.977619,0.1479 m -2.010638,1.2277 c -0.326762,0.055 -0.653718,0.1077 -0.980298,0.1554 m -0.718795,-2.3218 c -0.32944,0.046 -0.658564,0.088 -0.986791,0.1235 m 1.797328,0.828 c -0.214707,0.024 -0.429016,0.045 -0.642774,0.064 -0.121031,0.011 -0.241884,0.02 -0.362533,0.029 m 0.05992,-1.7424 c -0.339174,0.023 -0.676692,0.038 -1.011941,0.045 m 1.175179,2.4246 c -0.335538,0.01 -0.668976,0.01 -0.999673,0 m -1.379182,-0.6334 c -0.337977,0 -0.673262,-0.015 -1.005187,-0.04 m 1.301942,-1.1259 c -0.331201,-0.032 -0.659175,-0.076 -0.983215,-0.1347 m -1.321452,1.0807 c -0.334904,-0.055 -0.665618,-0.1235 -0.991447,-0.2087 m -0.281952,-0.7132 c -0.320717,-0.077 -0.636777,-0.1709 -0.94744,-0.2824 m -1.286335,1.0487 c -0.3126236,-0.1077 -0.6198209,-0.233 -0.9208755,-0.3777 m 1.1801175,-1.057 c -0.190467,-0.086 -0.378594,-0.1802 -0.5642203,-0.2818 -0.1099244,-0.06 -0.2184793,-0.1229 -0.3256421,-0.1882 m 2.0808894,0.5377 c -0.283798,-0.1732 -0.557865,-0.3646 -0.821761,-0.572 m -3.1297034,-0.5084 c -0.2622051,-0.2067 -0.5144004,-0.4291 -0.7561532,-0.6653 m 1.9228562,0.7499 c -0.2439859,-0.2285 -0.4778166,-0.4708 -0.701074,-0.7249 m 1.3321496,-0.3227 c -0.2157148,-0.2511 -0.4212707,-0.5139 -0.6162738,-0.7866 m -1.0330077,1.5985 c -0.2042027,-0.2612 -0.3979503,-0.5324 -0.5808441,-0.8119 m 0.1668875,-0.3456 c -0.1801762,-0.2802 -0.3497939,-0.5687 -0.5084678,-0.8637 m -1.0879213,-0.873 c -0.1579426,-0.2939 -0.3050054,-0.5944 -0.4408104,-0.8998 m -0.086454,-1.4292 c -0.1426784,-0.3 -0.2739854,-0.6051 -0.3935343,-0.9136 m 0.5091562,1.0998 c -0.1208049,-0.3153 -0.2298221,-0.634 -0.3266623,-0.9543 m 0.8276545,1.4194 c -0.1046769,-0.3194 -0.1968939,-0.6408 -0.2762418,-0.9623 m 0.395948,-1.1356 c -0.077748,-0.324 -0.1425074,-0.6485 -0.1938574,-0.9713 m 0.4220456,1.8684 c -0.038623,-0.2303 -0.07057,-0.4599 -0.095697,-0.688 -0.011196,-0.1017 -0.021625,-0.2044 -0.031255,-0.3082 m -2.4388332,-0.2054 c -0.031734,-0.3243 -0.055662,-0.6587 -0.070776,-1.0001 m 0.1499441,-2.2715 c -0.020418,-0.3229 -0.032741,-0.6526 -0.036032,-0.9865 m 0.2773925,2.9088 c -0.00455,-0.3261 -5.352e-4,-0.6564 0.012923,-0.9883 m 3.2335418,-2.6656 c 0.016594,-0.3359 0.042148,-0.6736 0.077464,-1.0106 m -0.9753558,1.8522 c 0.03403,-0.3288 0.077741,-0.6573 0.1319316,-0.9832 m 0.1094974,-1.3421 c 0.051709,-0.3316 0.1139564,-0.6606 0.1875593,-0.9844 m -1.4694623,1.9744 c 0.039947,-0.1931 0.084029,-0.3844 0.1324228,-0.5736 0.033214,-0.1298 0.06846,-0.2585 0.1057944,-0.386 m -1.5509611,-0.5458 c 0.091305,-0.3255 0.1955786,-0.6434 0.3137275,-0.9509 m 1.4304383,2.2449 c 0.1244955,-0.3114 0.2632231,-0.6125 0.4171645,-0.9003 m 0.9714995,-2.6141 c 0.1552101,-0.3068 0.3264528,-0.5993 0.5147925,-0.8745 m 0.7709961,-0.1392 c 0.1910397,-0.2795 0.3997735,-0.5415 0.6273811,-0.7826 m -0.9392033,1.5798 c 0.2219027,-0.2533 0.4632415,-0.4851 0.7251979,-0.692 m 0.2843223,0.2759 c 0.2565334,-0.2046 0.5334317,-0.385 0.8318526,-0.5377 m -0.9204897,-0.857 c 0.032489,-0.018 0.065242,-0.035 0.098259,-0.052 -2.19e-4,3e-4 -4.381e-4,6e-4 -6.573e-4,9e-4 0.2368416,-0.1217 0.4751282,-0.2253 0.7147678,-0.3121 m 1.0000656,1.4971 c 0.316106,-0.1191 0.634711,-0.2087 0.955579,-0.2715 m -0.7846,-1.1905 c 0.329878,-0.067 0.662009,-0.1062 0.996222,-0.1207 m -1.486376,0.6935 c 0.335289,-0.015 0.672571,0 1.011702,0.027 m 0.726559,-1.8786 c 0.286579,0.021 0.574482,0.059 0.863591,0.1112 0.04242,0.01 0.08486,0.016 0.127329,0.024 m 1.56495,1.6459 c 0.31869,0.061 0.638891,0.1392 0.960435,0.2332 m 0.312326,0.1027 c 0.312817,0.083 0.626941,0.1814 0.942225,0.292 m -1.372711,-0.259 c 0.31044,0.1073 0.621976,0.2265 0.93447,0.3554 m -0.832307,-1.3276 c 0.302089,0.1251 0.605226,0.2598 0.909298,0.4022 m -0.02142,-0.5035 c 0.299006,0.136 0.598822,0.2795 0.899331,0.4286 m -0.709148,0.3618 c 0.08372,0.042 0.167505,0.085 0.251342,0.1276 0.211008,0.1081 0.422369,0.2188 0.634046,0.3315 m -0.321118,0.3376 c 0.288829,0.1492 0.578302,0.3023 0.868327,0.4577 m 1.334257,0.5101 c 0.288947,0.1599 0.578373,0.3219 0.868181,0.4845 m -2.272088,0.186 c 0.288189,0.1628 0.576817,0.3262 0.865789,0.4885 m 1.71854,-0.538 c 0.297196,0.1598 0.594491,0.3188 0.891775,0.4754 m 0.76829,0 c 0.295534,0.1613 0.591275,0.3202 0.887111,0.4751 m -1.012908,-0.8652 c 0.293676,0.156 0.587527,0.308 0.881449,0.4543 m -1.414186,1.7706 c 0.299235,0.1528 0.598582,0.2997 0.897927,0.4389 m 2.531554,-1.1773 c 0.308793,0.1418 0.617302,0.2761 0.925417,0.401 m -0.267342,0.7929 c 0.309386,0.1295 0.618626,0.2492 0.92759,0.3572 m -1.294408,1.0816 c 0.316123,0.1123 0.631939,0.2127 0.947311,0.2989 m 0.336494,-2.9697 c 0.183324,0.051 0.36654,0.097 0.549616,0.1389 0.136339,0.031 0.274748,0.058 0.415025,0.081 m -0.0968,1.4921 c 0.32285,0.056 0.655736,0.092 0.996287,0.1146 m 0.498832,-1.9808 c 0.32161,0.026 0.650518,0.038 0.984603,0.04 m -1.018222,2.6801 c 0.327923,0 0.660946,-0.013 0.9971,-0.031 m -0.957536,0.076 c 0.327953,-0.014 0.659059,-0.035 0.99146,-0.059 m 0.643239,0.1902 c 0.330985,-0.024 0.663467,-0.051 0.995626,-0.078 m -1.911928,-3.3981 c 0.334985,-0.026 0.669774,-0.053 1.002527,-0.077 m 2.332454,1.4061 c 0.337964,-0.02 0.674069,-0.039 1.006403,-0.052 m -0.99895,-0.093 c 0.110591,-0.01 0.220787,-0.011 0.330516,-0.016 0.22563,-0.01 0.449287,-0.016 0.670355,-0.019 m -1.917813,-0.258 c 0.343822,-0.01 0.681589,0 1.011072,0.011 m 1.32777,2.7181 c 0.344365,0.018 0.679968,0.05 1.004305,0.1 m 1.143727,-3.7078 c 0.307614,0.039 0.605554,0.093 0.891769,0.1672 0.0337,0.01 0.06724,0.018 0.100618,0.027 m 1.277633,3.4289 c 0.330779,0.088 0.64568,0.2015 0.941474,0.3473 m -3.871639,-1.5966 c 0.305621,0.138 0.591936,0.3084 0.855619,0.5172 m 2.74331,-0.077 c 0.258527,0.1985 0.496123,0.4324 0.709753,0.7071 m 0.669973,-0.6554 c 0.05496,0.069 0.108339,0.1399 0.160077,0.2139 0.139959,0.2003 0.258928,0.4119 0.358266,0.6329 m -1.877209,1.5743 c 0.147021,0.2987 0.257274,0.6153 0.334292,0.9448 m 1.935264,-0.5946 c 0.07557,0.3169 0.119176,0.6465 0.13404,0.9844 m -3.293655,0.065 c 0.02094,0.3303 0.01473,0.6687 -0.01569,1.011 m 1.1978,-1.5789 c -0.02391,0.3318 -0.07081,0.6679 -0.137995,1.0042 m 0.1629,0.6615 c -0.03202,0.1769 -0.06981,0.354 -0.112995,0.5308 -0.03666,0.15 -0.0772,0.2998 -0.121382,0.449 m -2.134508,-0.9248 c -0.08926,0.3224 -0.19556,0.6423 -0.316526,0.9564 m 2.671545,0.2847 c -0.120214,0.3111 -0.255328,0.6167 -0.402941,0.9137 m -0.99107,-1.8119 c -0.151487,0.3034 -0.315845,0.5982 -0.490551,0.8808 m 2.634908,3.7034 c -0.171635,0.2915 -0.354627,0.5705 -0.546285,0.8332 m -3.468449,-2.9956 c -0.195082,0.2825 -0.400019,0.5474 -0.611768,0.7904 m 0.370471,2.8014 c -0.03997,0.045 -0.08016,0.09 -0.120565,0.1334 -0.190968,0.2067 -0.391324,0.3995 -0.600237,0.5794 m 0.0088,-1.0742 c -0.246722,0.2261 -0.506777,0.4324 -0.77853,0.6212 m 2.141627,-0.9184 c -0.269668,0.1874 -0.551199,0.3571 -0.842965,0.511 m -0.815402,-0.2203 c -0.287452,0.1547 -0.585153,0.2938 -0.891528,0.4193 m 1.601022,0.8929 c -0.306739,0.1271 -0.622083,0.2407 -0.94454,0.3429 m -0.150609,-1.0967 c -0.317139,0.1019 -0.641249,0.1925 -0.970904,0.2737 m -1.60479,-0.3734 c -0.319063,0.086 -0.643618,0.1625 -0.972309,0.2314 m 0.464427,1.2944 c -0.132035,0.03 -0.264798,0.059 -0.398199,0.086 -0.189465,0.039 -0.380216,0.076 -0.571992,0.1104 m 1.475304,-0.8067 c -0.329681,0.054 -0.662316,0.1011 -0.996637,0.1444 m 0.392682,-0.9871 c -0.334087,0.041 -0.669847,0.078 -1.006026,0.1123 m -1.555592,-0.373 c -0.331014,0.04 -0.662713,0.077 -0.99386,0.1125 m 2.002076,3.2653 c -0.33618,0.035 -0.671845,0.068 -1.005738,0.1004 m -1.6756,-3.0142 c -0.330166,0.029 -0.658771,0.057 -0.984542,0.087 m 1.57705,3.2168 c -0.334896,0.038 -0.667078,0.078 -0.995196,0.1199 m -1.242722,-1.4798 c -0.328473,0.041 -0.65298,0.084 -0.972192,0.1317 -0.0084,0 -0.0168,0 -0.02521,0 m 0.500636,-1.8055 c -0.02435,0 -0.04868,0.01 -0.07297,0.01 -0.298149,0.039 -0.5992,0.083 -0.902649,0.1296 m -0.748903,2.1921 c -0.321822,0.052 -0.646385,0.1072 -0.973079,0.1642 m 1.889735,-0.8141 c -0.326702,0.053 -0.65558,0.1075 -0.986039,0.1626 m 0.530612,-0.4648 c -0.329332,0.059 -0.660188,0.1178 -0.991982,0.1761 m -0.327773,-0.9202 c -0.32308,0.055 -0.64738,0.11 -0.972337,0.1627 m 0.286712,0.8161 c -0.325666,0.05 -0.651918,0.099 -0.978191,0.1437 m -2.444228,0.8041 c -0.327271,0.05 -0.654643,0.097 -0.981542,0.1398 m 1.419191,-1.8309 c -0.330143,0.045 -0.659842,0.086 -0.988509,0.1203 m 0.06171,1.7288 c -0.124513,0.013 -0.248884,0.025 -0.373081,0.037 -0.204157,0.019 -0.407842,0.034 -0.610913,0.047 m 0.858073,1.6466 c -0.333879,0.017 -0.666182,0.026 -0.996284,0.026 m -1.859798,-2.654 c -0.331175,0 -0.660235,0 -0.986524,-0.023 m 1.816115,1.414 c -0.338989,-0.014 -0.674962,-0.039 -1.00725,-0.077 m -2.39823,-1.1783 c -0.335567,-0.037 -0.667382,-0.086 -0.994758,-0.1502 m 3.15068,0.6128 c -0.330597,-0.062 -0.6569,-0.1378 -0.978203,-0.2309 m -2.19606,0.011 c -0.319152,-0.088 -0.633377,-0.1928 -0.941942,-0.3159 m -0.04224,0.6411 c -0.313103,-0.1183 -0.620657,-0.2545 -0.9219841,-0.4104 m 1.3303091,1.5545 c -0.109891,-0.056 -0.218969,-0.1137 -0.327203,-0.1745 -0.186283,-0.1046 -0.368652,-0.2168 -0.546996,-0.3359 m 0.405792,-2.0951 c -0.276606,-0.1826 -0.543461,-0.3825 -0.800125,-0.5979 m -0.2715243,0.9439 c -0.2588782,-0.2048 -0.5077515,-0.425 -0.7461936,-0.6586 m -0.2501053,-0.6212 c -0.2324507,-0.2353 -0.4548065,-0.4838 -0.6666568,-0.7436 m -0.333621,0.6016 c -0.2106216,-0.2491 -0.4109648,-0.5096 -0.6006358,-0.7797 m 1.8388473,-1.4381 c -0.1957306,-0.2666 -0.3810912,-0.5425 -0.5556906,-0.8261 m -1.9376854,1.1013 c -0.1759616,-0.2873 -0.341255,-0.5824 -0.4954926,-0.8834 m 0.9656123,1.8753 c -0.1560075,-0.2925 -0.3010323,-0.5912 -0.4346894,-0.8945 m 0.8864935,-2.5019 c -0.1380367,-0.3089 -0.2645733,-0.6224 -0.3792202,-0.9387 m -1.5964627,1.1677 c -0.1190785,-0.3188 -0.2261108,-0.6405 -0.3206984,-0.9633 m 1.2200426,-0.159 c -0.097953,-0.3206 -0.1832733,-0.6428 -0.2555489,-0.9648 m -0.5760455,0.2521 c -0.076703,-0.3292 -0.1398982,-0.6582 -0.1891591,-0.9852 m -1.1864443,-1.2946 c -0.020637,-0.1448 -0.038646,-0.2892 -0.053991,-0.433 -0.019996,-0.1874 -0.037422,-0.3784 -0.052083,-0.5725 m 1.189782,2.7644 c -0.02851,-0.3274 -0.049155,-0.6639 -0.060956,-1.0067 m -0.838575,-2.5001 c -0.00755,-0.3279 -0.0069,-0.6619 0.00278,-0.9992 m 1.8960378,2.1079 c 0.00657,-0.331 0.021812,-0.6655 0.046554,-1.0009 m -1.4916085,-0.9789 c 0.024034,-0.3315 0.057318,-0.6643 0.1006366,-0.9959 m -0.6994863,-0.5405 c 0.036953,-0.3291 0.083904,-0.6572 0.1416606,-0.982 m 0.8314459,0.454 c 0.057302,-0.3279 0.1254339,-0.6526 0.2052184,-0.9716 m -0.2054252,1.2521 c 0.024634,-0.1083 0.050606,-0.216 0.077947,-0.3229 0.054797,-0.2143 0.1150945,-0.4258 0.1811521,-0.6336 m -1.3355949,-1.2215 c 0.1014861,-0.3227 0.2162458,-0.6371 0.3452039,-0.9403 m 0.1938269,1.332 c 0.1282056,-0.317 0.2713982,-0.6224 0.4305645,-0.9131 m 1.4741756,0.8039 c 0.156979,-0.2944 0.330683,-0.574 0.5221737,-0.8355 m 0.036164,-0.8276 c 0.1967438,-0.2707 0.4119169,-0.5228 0.6466745,-0.7527 m 0.5968583,0.066 c 0.2327145,-0.2379 0.4852141,-0.4535 0.7586879,-0.6432 m -0.3597798,-0.6551 c 0.2008637,-0.1461 0.4133365,-0.2781 0.6379092,-0.3943 -3.43e-5,10e-5 -6.92e-5,2e-4 -1.045e-4,2e-4 0.043926,-0.023 0.087899,-0.045 0.1319186,-0.066 m -0.7565059,1.0435 c 0.3033622,-0.1519 0.6091379,-0.2746 0.9171271,-0.3703 m -0.5652093,-1.3192 c 0.3222701,-0.1156 0.6466129,-0.2018 0.972927,-0.2615 m 7.4e-4,-1.3299 c 0.33172,-0.069 0.665534,-0.1103 1.001307,-0.1267 m -0.147801,0.5774 c 0.334582,-0.018 0.671133,-0.011 1.009501,0.018 m 0.459451,0.7241 c 0.318656,0.017 0.638981,0.054 0.960841,0.1078 0.015,0 0.03001,0.01 0.04502,0.01 m -1.205194,0.6886 c 0.01788,0 0.03577,0.01 0.05367,0.01 0.303444,0.055 0.608339,0.1264 0.914551,0.2116 m 0.861756,0.7101 c 0.31951,0.088 0.640355,0.1901 0.962385,0.3053 m -0.528807,-0.1022 c 0.311633,0.1072 0.624376,0.2266 0.938088,0.3561 m -0.79447,-0.8732 c 0.303046,0.1276 0.607141,0.265 0.91217,0.4102 m 0.848914,-0.046 c 0.297856,0.141 0.596497,0.2895 0.895811,0.4436 m -0.420709,0.1777 c 0.110742,0.053 0.221572,0.1061 0.332485,0.1603 0.189666,0.093 0.379574,0.1873 0.569693,0.2836 m 1.305968,1.4951 c 0.297046,0.15 0.594673,0.3039 0.892762,0.46 m -1.987331,-1.4762 c 0.295914,0.1564 0.592301,0.3152 0.889047,0.4747 m -0.731802,-1.211 c 0.293704,0.1574 0.58778,0.3157 0.882122,0.4732 m 0.602631,1.5049 c 0.291521,0.1619 0.583364,0.3232 0.875427,0.4821 m 0.12585,-1.0571 c 0.293311,0.1598 0.58694,0.3173 0.880779,0.471 m 2.239194,-0.1943 c 0.299711,0.1569 0.599434,0.31 0.899058,0.4575 m -2.245992,0.1306 c 0.302823,0.1475 0.605641,0.2895 0.908337,0.4243 m 0.611965,0.4218 c 0.303628,0.1431 0.607314,0.2788 0.910932,0.4052 m -0.675933,-0.2911 c 0.309159,0.125 0.618218,0.2407 0.927048,0.3452 m -0.32274,0.7275 c 0.316182,0.1139 0.632156,0.2162 0.947779,0.3045 m 1.410358,-2.0136 c 0.214555,0.062 0.428843,0.1189 0.642826,0.1685 0.111773,0.026 0.224873,0.049 0.339197,0.071 m -1.698233,0.421 c 0.318574,0.059 0.647421,0.099 0.98415,0.1243 M 26.167,1017.696 c 0.324753,0.026 0.657153,0.038 0.995055,0.04 m 3.140381,-2.5242 c 0.324251,0.01 0.653761,0.01 0.986565,7e-4 m -1.389691,3.0473 c 0.331894,-0.013 0.667105,-0.032 1.003743,-0.056 m 1.294278,-2.8481 c 0.332448,-0.025 0.666493,-0.055 1.000303,-0.085 m -1.665805,-0.4305 c 0.334782,-0.021 0.669553,-0.044 1.002474,-0.064 m -0.796618,0.7068 c 0.33099,-0.023 0.660379,-0.044 0.9863,-0.059 m 0.532857,0.7712 c 0.137293,-0.01 0.274009,-0.015 0.410009,-0.021 0.194622,-0.01 0.387777,-0.015 0.579059,-0.018 m -1.069317,-0.252 c 0.342504,0 0.679256,0 1.008043,0.019 m 1.087144,1.0512 c 0.34457,0.017 0.680715,0.048 1.00595,0.095 m 0.350458,-0.3027 c 0.336066,0.043 0.660825,0.1033 0.97161,0.1869 0.006,0 0.01208,0 0.01812,0 m -1.391806,-0.067 c 0.02663,0.01 0.05316,0.014 0.07959,0.021 0.30475,0.084 0.596167,0.1905 0.871769,0.323 m 1.478625,-0.026 c 0.301998,0.1351 0.58514,0.302 0.845886,0.5068 m -2.339737,-0.7453 c 0.261374,0.1947 0.501932,0.4247 0.718526,0.6955 m 0.489562,0.4648 c 0.07327,0.09 0.143815,0.1844 0.211516,0.2837 0.12274,0.1801 0.229137,0.369 0.320117,0.5653 m 0.225633,0.1694 c 0.155982,0.2977 0.274684,0.6137 0.35969,0.9431 m -1.16484,-0.5029 c 0.09006,0.3209 0.14766,0.655 0.176107,0.9978 m 0.965325,-0.1241 c 0.02964,0.3292 0.03171,0.6669 0.0092,1.0089 m -0.680764,1.3432 c -0.01683,0.3263 -0.057,0.6571 -0.11781,0.9886 m 1.558625,-1.4427 c -0.03549,0.2039 -0.07878,0.4081 -0.129277,0.612 -0.03028,0.1222 -0.06314,0.2442 -0.09846,0.3659 m -1.964425,-1.357 c -0.09433,0.319 -0.205776,0.6361 -0.331879,0.9477 m 0.223859,1.9505 c -0.120145,0.3112 -0.25517,0.6172 -0.402665,0.9147 m 2.268357,-0.4813 c -0.14708,0.3006 -0.307311,0.5928 -0.478192,0.8732 m -0.296571,-1.7067 c -0.175785,0.2922 -0.362915,0.5723 -0.558676,0.8366 m -1.019519,0.3143 c -0.202191,0.2775 -0.414054,0.5383 -0.63252,0.7781 m 0.0043,0.2244 c -0.0585,0.067 -0.117502,0.1328 -0.176951,0.1968 -0.171194,0.1844 -0.349905,0.3576 -0.535534,0.5205 m 0.584338,0.2901 c -0.246883,0.2225 -0.507062,0.4253 -0.77893,0.6105 m 1.26224,-0.8032 c -0.276337,0.1968 -0.564578,0.3757 -0.863148,0.5387 m 0.243254,-0.587 c -0.293869,0.1634 -0.598049,0.311 -0.910987,0.4447 m -0.806245,-0.2178 c -0.305293,0.1285 -0.619249,0.2433 -0.940366,0.3465 m 1.117969,1.3203 c -0.314451,0.1104 -0.636062,0.2093 -0.963402,0.2985 m 0.163442,0.9309 c -0.318875,0.082 -0.643427,0.1544 -0.972295,0.219 m -0.994887,-0.8333 c -0.161723,0.036 -0.324504,0.071 -0.488179,0.104 -0.165232,0.033 -0.331376,0.065 -0.498266,0.094 m -0.195107,0 c -0.328844,0.058 -0.660698,0.1097 -0.994291,0.1569 m 1.703489,-1.1095 c -0.32467,0.046 -0.651315,0.087 -0.978707,0.1254 m -1.547956,1.282 c -0.336019,0.04 -0.672654,0.077 -1.008658,0.1128 m 0.950995,-0.095 c -0.327641,0.035 -0.655045,0.069 -0.980976,0.102 m 0.37809,-0.6245 c -0.338276,0.036 -0.675012,0.072 -1.008916,0.1084 m -0.71634,0.1364 c -0.335246,0.029 -0.667693,0.059 -0.996012,0.092 m -0.873991,0.5482 c -0.335572,0.034 -0.667109,0.072 -0.99319,0.1136 m 3.109176,1.7961 c -0.05327,0.01 -0.106397,0.015 -0.159376,0.023 -0.27807,0.041 -0.558511,0.084 -0.840929,0.1309 m 0.02792,-1.6495 c -0.32821,0.051 -0.659227,0.1046 -0.992426,0.1606 m -2.6307,-2.2177 c -0.325352,0.052 -0.652824,0.1061 -0.98182,0.1609 m 0.08797,1.5029 c -0.330009,0.062 -0.661566,0.1249 -0.994081,0.1869 m 1.23281,-0.7246 c -0.328131,0.059 -0.657341,0.1171 -0.987058,0.1732 m 0.400042,1.4626 c -0.328709,0.057 -0.658017,0.1128 -0.987351,0.1648 m -1.945171,-2.2981 c -0.334913,0.047 -0.669671,0.091 -1.003694,0.1309 m 0.877041,2.4454 c -0.32799,0.042 -0.65552,0.08 -0.982012,0.1109 m 0.657586,-1.3438 c -0.155145,0.016 -0.310058,0.031 -0.464679,0.045 -0.179649,0.016 -0.358905,0.03 -0.537672,0.041 m -0.890331,0.2813 c -0.334315,0.022 -0.667058,0.036 -0.997607,0.041 m -0.508456,0.8368 c -0.336481,0 -0.670692,0 -1.001991,-0.02 m 0.472343,-0.3062 c -0.338794,-0.012 -0.674558,-0.036 -1.00663,-0.072 m 0.382919,-1.1777 c -0.332072,-0.027 -0.660672,-0.068 -0.985097,-0.1226 m 3.700117,0.2587 c -0.333222,-0.054 -0.662108,-0.1228 -0.98596,-0.2081 m -1.908651,0.6562 c -0.321731,-0.087 -0.638605,-0.1902 -0.9499,-0.3117 m -1.182829,-0.3608 c -0.313583,-0.1177 -0.621645,-0.2531 -0.9235,-0.4082 m 1.201793,1.1176 c -0.134049,-0.065 -0.266868,-0.1349 -0.398393,-0.2083 -0.159387,-0.089 -0.315823,-0.1836 -0.469235,-0.2836 m 0.129551,0.728 c -0.281305,-0.1759 -0.552782,-0.3696 -0.8139929,-0.579 m -0.8487306,-0.1275 c -0.2622773,-0.2089 -0.5145197,-0.4334 -0.7562997,-0.6715 m 2.2742032,-1.9214 c -0.235503,-0.2272 -0.4609318,-0.4678 -0.6758761,-0.7201 m -1.1057482,0.4561 c -0.2209087,-0.2536 -0.431503,-0.5185 -0.6313772,-0.7929 m 0.3176579,-0.8933 c -0.1986793,-0.2678 -0.3869264,-0.5452 -0.564348,-0.8303 m -1.723112,1.5055 c -0.1733897,-0.278 -0.3361372,-0.5639 -0.4878632,-0.8562 m 3.2096989,1.389 c -0.160008,-0.2932 -0.3089894,-0.5927 -0.4465557,-0.8969 m -1.5299634,-3.0922 c -0.1350896,-0.3027 -0.2589047,-0.6103 -0.3710628,-0.9208 m 0.4174507,1.7683 c -0.1207049,-0.3131 -0.2294894,-0.6295 -0.3259547,-0.9472 m -0.2351693,1.5586 c -0.090804,-0.3181 -0.1692362,-0.638 -0.2349041,-0.9578 m -1.783573,-2.2707 c -0.074416,-0.3278 -0.1355595,-0.6557 -0.1830061,-0.9815 m 3.1161395,1.4356 c -0.028153,-0.1727 -0.052533,-0.3449 -0.073079,-0.5162 -0.019134,-0.1596 -0.036409,-0.3219 -0.051699,-0.4865 m -2.3919797,0.072 c -0.031264,-0.3214 -0.054667,-0.6522 -0.069198,-0.9894 m -0.1736042,1.1904 c -0.016862,-0.3303 -0.025614,-0.6669 -0.025342,-1.0072 m 0.4038621,-0.4128 c -5.51e-4,-0.3303 0.00757,-0.6643 0.025227,-0.9994 m 0.7358438,-0.092 c 0.018201,-0.3336 0.045527,-0.6687 0.082789,-1.0028 m 0.6171453,-2.1721 c 0.030537,-0.3271 0.070972,-0.6534 0.1221359,-0.9764 m -0.7614492,1.6429 c 0.054566,-0.3319 0.1198867,-0.6609 0.1967858,-0.9843 m -1.5990981,0.6308 c 0.030165,-0.1385 0.062408,-0.276 0.096792,-0.4123 0.048054,-0.1906 0.1002896,-0.3788 0.1568782,-0.5643 m -0.2112923,-1.1793 c 0.094556,-0.3235 0.2025007,-0.6387 0.3247433,-0.943 m 1.3889268,0.4229 c 0.1293859,-0.3163 0.2733587,-0.6213 0.4329144,-0.912 m -0.2281008,-0.1035 c 0.1625606,-0.3023 0.3414693,-0.5897 0.5378137,-0.859 m 0.7614659,0.3623 c 0.1965914,-0.2805 0.4113332,-0.5424 0.6454033,-0.7825 m -1.7083397,0.3722 c 0.2322164,-0.2411 0.4840778,-0.4601 0.7568113,-0.6536 m 2.466113,1.0861 c 0.2185104,-0.1637 0.451358,-0.31 0.699196,-0.4368 -2.85e-4,3e-4 -5.71e-4,7e-4 -8.56e-4,0 0.01866,-0.01 0.03734,-0.019 0.05602,-0.028 m -0.5940829,0.367 c -8.4e-5,-10e-5 -1.679e-4,-2e-4 -2.518e-4,-3e-4 0.2909027,-0.155 0.5840257,-0.2825 0.8791907,-0.3848" id="path5119-5" class="ignored" inkscape:connector-curvature="0"/>
    <path style="fill:none;stroke:#000000;stroke-width:4.5;stroke-linecap:butt;stroke-linejoin:miter;stroke-miterlimit:4;stroke-opacity:1;stroke-dasharray:none" d="m 40.95373,1021.7597 8.0929,0" id="path5204" inkscape:connector-curvature="0"/>
  </g>
</svg>
