<!--?xml version="1.0" encoding="UTF-8" standalone="no"?--><!--?xml version="1.0" encoding="UTF-8" standalone="no"?--><!-- Created with Inkscape (http://www.inkscape.org/) --><svg xmlns:dc="http://purl.org/dc/elements/1.1/" xmlns:cc="http://creativecommons.org/ns#" xmlns:rdf="http://www.w3.org/1999/02/22-rdf-syntax-ns#" xmlns:svg="http://www.w3.org/2000/svg" xmlns="http://www.w3.org/2000/svg" xmlns:sodipodi="http://sodipodi.sourceforge.net/DTD/sodipodi-0.dtd" xmlns:inkscape="http://www.inkscape.org/namespaces/inkscape" xlink="http://www.w3.org/1999/xlink" width="100%" height="100%" viewBox="0 0 90 90" id="svg2" version="1.1" inkscape:version="0.92.3 (2405546, 2018-03-11)" sodipodi:docname="hair-featherhawk.svg" class="mohawk" data-z="900" data-slots="hair" data-tags="hair">
  <defs id="defs4">
    <linearGradient inkscape:collect="always" href="#linearGradient4261" id="linearGradient4267" x1="59.220001" y1="8.1000004" x2="57.959999" y2="32.040001" gradientUnits="userSpaceOnUse"/>
    <linearGradient inkscape:collect="always" href="#linearGradient4261-3" id="linearGradient4267-2" x1="59.220001" y1="8.1000004" x2="57.959999" y2="32.040001" gradientUnits="userSpaceOnUse"/>
    <linearGradient inkscape:collect="always" href="#linearGradient4261-8" id="linearGradient4267-6" x1="59.220001" y1="8.1000004" x2="57.959999" y2="32.040001" gradientUnits="userSpaceOnUse"/>
    <linearGradient y2="32.040001" x2="57.959999" y1="8.1000004" x1="59.220001" gradientUnits="userSpaceOnUse" id="linearGradient4318" href="#linearGradient4261-8" inkscape:collect="always"/>
    <linearGradient inkscape:collect="always" href="#linearGradient4261-8" id="linearGradient4344" gradientUnits="userSpaceOnUse" x1="59.220001" y1="8.1000004" x2="57.959999" y2="32.040001"/>
    <linearGradient inkscape:collect="always" href="#linearGradient4261-8" id="linearGradient3026" gradientUnits="userSpaceOnUse" x1="59.220001" y1="8.1000004" x2="57.959999" y2="32.040001"/>
    <linearGradient inkscape:collect="always" href="#linearGradient4261-8-7" id="linearGradient3026-1" gradientUnits="userSpaceOnUse" x1="59.220001" y1="8.1000004" x2="57.959999" y2="32.040001"/>
    <linearGradient y2="32.040001" x2="57.959999" y1="8.1000004" x1="59.220001" gradientUnits="userSpaceOnUse" id="linearGradient3043" href="#linearGradient4261-8-7" inkscape:collect="always"/>
    <linearGradient y2="32.040001" x2="57.959999" y1="8.1000004" x1="59.220001" gradientUnits="userSpaceOnUse" id="linearGradient3043-9" href="#linearGradient4261-8-7-4" inkscape:collect="always"/>
    <linearGradient y2="32.040001" x2="57.959999" y1="8.1000004" x1="59.220001" gradientUnits="userSpaceOnUse" id="linearGradient3078" href="#linearGradient4261-8-7-4" inkscape:collect="always"/>
    <linearGradient y2="32.040001" x2="57.959999" y1="8.1000004" x1="59.220001" gradientUnits="userSpaceOnUse" id="linearGradient3078-1" href="#linearGradient4261-8-7-4-7" inkscape:collect="always"/>
    <linearGradient y2="32.040001" x2="57.959999" y1="8.1000004" x1="59.220001" gradientUnits="userSpaceOnUse" id="linearGradient3146" href="#linearGradient4261-8-7-4-7" inkscape:collect="always"/>
    <linearGradient y2="32.040001" x2="57.959999" y1="8.1000004" x1="59.220001" gradientUnits="userSpaceOnUse" id="linearGradient3146-5" href="#linearGradient4261-8-7-4-7-2" inkscape:collect="always"/>
    <linearGradient y2="32.040001" x2="57.959999" y1="8.1000004" x1="59.220001" gradientUnits="userSpaceOnUse" id="linearGradient3192" href="#linearGradient4261-8-7-4-7-2" inkscape:collect="always"/>
    <linearGradient inkscape:collect="always" href="#linearGradient4261-8-7-4-7-2" id="linearGradient3299" gradientUnits="userSpaceOnUse" x1="59.220001" y1="8.1000004" x2="57.959999" y2="32.040001"/>
    <mask maskUnits="userSpaceOnUse" id="mask3295">
      <path inkscape:connector-curvature="0" id="path3297" d="M 44.9375,11 C 26.18151,11 11,26.241794 11,45.03125 c 0,0.298383 0.02361,0.578458 0.03125,0.875 l 67.875,0 c 0.0077,-0.296643 0.03125,-0.576515 0.03125,-0.875 l 0,-0.0625 C 78.9375,26.21279 63.726924,11 44.9375,11 z" style="fill:url(#linearGradient3299);fill-opacity:1;fill-rule:nonzero;stroke:none;display:inline" class="ignored"/>
    </mask>
    <mask maskUnits="userSpaceOnUse" id="mask3295-3">
      <path inkscape:connector-curvature="0" id="path3297-6" d="M 44.9375,11 C 26.18151,11 11,26.241794 11,45.03125 c 0,0.298383 0.02361,0.578458 0.03125,0.875 h 67.875 c 0.0077,-0.296643 0.03125,-0.576515 0.03125,-0.875 v -0.0625 C 78.9375,26.21279 63.726924,11 44.9375,11 Z" style="display:inline;fill:url(#linearGradient4267);fill-opacity:1;fill-rule:nonzero;stroke:none" class="ignored"/>
    </mask>
  </defs>
  <sodipodi:namedview id="base" pagecolor="#ffffff" bordercolor="#666666" borderopacity="1.0" inkscape:pageopacity="0.0" inkscape:pageshadow="2" inkscape:zoom="11.313708" inkscape:cx="60.639372" inkscape:cy="10.885956" inkscape:document-units="in" inkscape:current-layer="layer1" showgrid="true" units="in" inkscape:window-width="3773" inkscape:window-height="2105" inkscape:window-x="67" inkscape:window-y="27" inkscape:window-maximized="1"/>
  <metadata id="metadata7">
    <rdf:rdf>
      <cc:work rdf:about="">
        <dc:format>image/svg+xml</dc:format>
        <dc:type rdf:resource="http://purl.org/dc/dcmitype/StillImage"/>
        <dc:title/>
      </cc:work>
    </rdf:rdf>
    <rdf:rdf>
      <cc:work rdf:about="">
        <dc:format>image/svg+xml</dc:format>
        <dc:type rdf:resource="http://purl.org/dc/dcmitype/StillImage"/>
        <dc:title/>
      </cc:work>
    </rdf:rdf>
  </metadata>
  <g inkscape:groupmode="layer" id="layer1" inkscape:label="Hair" class="hair" style="display:inline">
    <path style="fill:#ffffff;fill-opacity:1;stroke:#000000;stroke-width:2.25;stroke-linecap:butt;stroke-linejoin:bevel;stroke-miterlimit:4;stroke-dasharray:none;stroke-opacity:1" d="m 36.314314,1.0380932 c 0,0 -3.061607,6.5582242 -3.212752,9.2419718 -0.151144,2.683747 2.457032,4.176764 2.457032,4.176764 0,0 2.75932,-1.190729 2.910463,-3.874475 0.151144,-2.6837482 -2.154743,-9.5442608 -2.154743,-9.5442608 z" id="path921" inkscape:connector-curvature="0"/>
    <path style="display:inline;fill:#ffffff;fill-opacity:1;stroke:#000000;stroke-width:2.25;stroke-linecap:butt;stroke-linejoin:bevel;stroke-miterlimit:4;stroke-dasharray:none;stroke-opacity:1" d="m 40.32,1.296 c 0,0 -1.232793,7.1318985 -0.674184,9.761214 0.558609,2.629316 3.467229,3.385364 3.467229,3.385364 0,0 2.350012,-1.873266 1.791402,-4.5025813 C 44.345838,7.3106807 40.32,1.296 40.32,1.296 Z" id="path921-3" inkscape:connector-curvature="0"/>
    <path style="display:inline;fill:#ffffff;fill-opacity:1;stroke:#000000;stroke-width:2.25;stroke-linecap:butt;stroke-linejoin:bevel;stroke-miterlimit:4;stroke-dasharray:none;stroke-opacity:1" d="m 46.660427,0.96569545 c 0,0 -2.580889,6.76186125 -2.53818,9.44952255 0.04271,2.687661 2.751724,3.988782 2.751724,3.988782 0,0 2.666307,-1.386539 2.623597,-4.074199 C 49.45486,7.6421392 46.660427,0.96569545 46.660427,0.96569545 Z" id="path921-3-6" inkscape:connector-curvature="0"/>
    <path style="display:inline;fill:#ffffff;fill-opacity:1;stroke:#000000;stroke-width:2.25;stroke-linecap:butt;stroke-linejoin:bevel;stroke-miterlimit:4;stroke-dasharray:none;stroke-opacity:1" d="m 51.501542,1.0843345 c 0,0 -2.079381,6.932527 -1.840198,9.6098645 0.239184,2.677338 3.036111,3.776823 3.036111,3.776823 0,0 2.557747,-1.577851 2.318564,-4.255187 C 54.776836,7.5384962 51.501542,1.0843345 51.501542,1.0843345 Z" id="path921-3-6-7" inkscape:connector-curvature="0"/>
    <path style="display:inline;fill:#ffffff;fill-opacity:1;stroke:#000000;stroke-width:2.25;stroke-linecap:butt;stroke-linejoin:bevel;stroke-miterlimit:4;stroke-dasharray:none;stroke-opacity:1" d="m 38.793063,3.0738016 c 0,0 -3.349082,8.4316634 -3.34095,11.8010744 0.0081,3.369414 3.38161,5.045987 3.38161,5.045987 0,0 3.365347,-1.692837 3.357213,-5.062249 -0.0081,-3.369413 -3.397873,-11.7848124 -3.397873,-11.7848124 z" id="path921-3-3" inkscape:connector-curvature="0"/>
    <path style="display:inline;fill:#ffffff;fill-opacity:1;stroke:#000000;stroke-width:2.25;stroke-linecap:butt;stroke-linejoin:bevel;stroke-miterlimit:4;stroke-dasharray:none;stroke-opacity:1" d="m 44.054814,3.8832488 c 0,0 -3.235158,8.4760282 -3.181622,11.8450252 0.05354,3.368997 3.449301,4.999959 3.449301,4.999959 0,0 3.342229,-1.738034 3.288692,-5.107029 C 47.557648,12.252207 44.054814,3.8832488 44.054814,3.8832488 Z" id="path921-3-6-5" inkscape:connector-curvature="0"/>
    <path style="display:inline;fill:#ffffff;fill-opacity:1;stroke:#000000;stroke-width:2.25;stroke-linecap:butt;stroke-linejoin:bevel;stroke-miterlimit:4;stroke-dasharray:none;stroke-opacity:1" d="m 49.417668,1.9073828 c 0,0 -3.044505,8.5463612 -2.915526,11.9133132 0.128981,3.366953 3.560422,4.921449 3.560422,4.921449 0,0 3.302463,-1.812454 3.173482,-5.179406 C 53.107069,10.195786 49.417668,1.9073828 49.417668,1.9073828 Z" id="path921-3-6-7-6" inkscape:connector-curvature="0"/>
    <path style="display:inline;fill:#ffffff;fill-opacity:1;stroke:#000000;stroke-width:2.73345494;stroke-linecap:butt;stroke-linejoin:bevel;stroke-miterlimit:4;stroke-dasharray:none;stroke-opacity:1" d="m 40.432624,7.1075685 c 0,0 -2.400864,10.7571685 -1.745001,14.7976895 0.655869,4.040522 5.024317,5.404919 5.024317,5.404919 0,0 3.712591,-2.676123 3.056727,-6.716643 C 46.112802,16.553013 40.432624,7.1075685 40.432624,7.1075685 Z" id="path921-3-6-5-2" inkscape:connector-curvature="0"/>
    <path style="display:inline;fill:#ffffff;fill-opacity:1;stroke:#000000;stroke-width:2.73345494;stroke-linecap:butt;stroke-linejoin:bevel;stroke-miterlimit:4;stroke-dasharray:none;stroke-opacity:1" d="m 49.058025,7.5298641 c 0,0 -5.828134,9.3548749 -6.547507,13.3845729 -0.719372,4.0297 2.950639,6.763921 2.950639,6.763921 0,0 4.389386,-1.295474 5.108757,-5.325172 C 51.28929,18.323487 49.058025,7.5298641 49.058025,7.5298641 Z" id="path921-3-6-7-6-7" inkscape:connector-curvature="0"/>
  </g>
</svg>
