<!--?xml version="1.0" encoding="UTF-8" standalone="no"?--><!-- Created with Inkscape (http://www.inkscape.org/) --><svg xmlns:dc="http://purl.org/dc/elements/1.1/" xmlns:cc="http://creativecommons.org/ns#" xmlns:rdf="http://www.w3.org/1999/02/22-rdf-syntax-ns#" xmlns:svg="http://www.w3.org/2000/svg" xmlns="http://www.w3.org/2000/svg" xmlns:sodipodi="http://sodipodi.sourceforge.net/DTD/sodipodi-0.dtd" xmlns:inkscape="http://www.inkscape.org/namespaces/inkscape" width="100%" height="100%" viewBox="0 0 90 90" id="svg2" version="1.1" inkscape:version="0.48.4 r9939" sodipodi:docname="hammer (right).svg" class="hammer-right" data-z="1200" data-slots="right-weapon" data-tags="right-hand+weapon">
  <defs id="defs4"/>
  <sodipodi:namedview id="base" pagecolor="#ffffff" bordercolor="#666666" borderopacity="1.0" inkscape:pageopacity="0.0" inkscape:pageshadow="2" inkscape:zoom="5.6444128" inkscape:cx="143.32614" inkscape:cy="65.29485" inkscape:document-units="in" inkscape:current-layer="svg2" showgrid="false" units="in" inkscape:window-width="1920" inkscape:window-height="1017" inkscape:window-x="-8" inkscape:window-y="-8" inkscape:window-maximized="1">
    <inkscape:grid type="xygrid" id="grid2994" empspacing="5" visible="true" enabled="true" snapvisiblegridlinesonly="true" units="in" spacingx="0.014in" spacingy="0.014in"/>
  </sodipodi:namedview>
  <metadata id="metadata7">
    <rdf:rdf>
      <cc:work rdf:about="">
        <dc:format>image/svg+xml</dc:format>
        <dc:type rdf:resource="http://purl.org/dc/dcmitype/StillImage"/>
        <dc:title/>
      </cc:work>
    </rdf:rdf>
  </metadata>
  <g inkscape:label="Body" inkscape:groupmode="layer" id="layer1" class="hammer-head" transform="translate(0,-962.35975)" style="display:inline">
    <path style="fill:none;stroke:#000000;stroke-width:2.25;stroke-miterlimit:4;stroke-opacity:1;stroke-dasharray:none;display:inline" d="m 74.00769,999.91926 -3.136332,4.75004 3.477341,0.9318 z" id="path4960-1-4" inkscape:connector-curvature="0"/>
    <path inkscape:connector-curvature="0" style="fill:none;stroke:#000000;stroke-width:3.5999999;stroke-miterlimit:4;stroke-opacity:1;stroke-dasharray:none;display:inline" d="m 71.685502,1008.586 -8.8516,33.0347 z" id="rect4958-9-1" sodipodi:nodetypes="ccc"/>
    <path style="fill:#ffffff;fill-opacity:1;stroke:#000000;stroke-width:2.25;stroke-linecap:butt;stroke-linejoin:miter;stroke-miterlimit:4;stroke-opacity:1;stroke-dasharray:none;display:inline" d="m 60.974797,996.39858 -4.658734,17.38672 8.693302,2.3293 4.658754,-17.38667 z" id="path4952-5" inkscape:connector-curvature="0"/>
    <path style="fill:#ffffff;fill-opacity:1;stroke:#000000;stroke-width:2.25;stroke-linecap:butt;stroke-linejoin:miter;stroke-miterlimit:4;stroke-opacity:1;stroke-dasharray:none;display:inline" d="m 78.361471,1001.0573 -4.658754,17.3867 8.693352,2.3294 4.658704,-17.3867 z" id="path4954-4" inkscape:connector-curvature="0"/>
    <path style="fill:#ffffff;fill-opacity:1;stroke:#000000;stroke-width:2.25;stroke-linecap:butt;stroke-linejoin:miter;stroke-miterlimit:4;stroke-opacity:1;stroke-dasharray:none;display:inline" d="m 68.736378,1002.2053 8.693352,2.3294 -2.795272,10.4319 -8.693302,-2.3293 z" id="path4956-3" inkscape:connector-curvature="0"/>
    <path inkscape:connector-curvature="0" style="fill:none;stroke:#000000;stroke-width:6.75;stroke-miterlimit:4;stroke-opacity:1;stroke-dasharray:none;display:inline" d="m 67.294204,1024.9743 -5.124624,19.1253 z" id="rect5134-3-7" sodipodi:nodetypes="ccc"/>
    <path sodipodi:type="arc" style="fill:none;stroke:#000000;stroke-width:2.25;stroke-opacity:1;display:inline" id="path4962-2-0" sodipodi:cx="193.5" sodipodi:cy="-58.5" sodipodi:rx="0.89999998" sodipodi:ry="0.89999998" d="m 194.4,-58.5 a 0.89999998,0.89999998 0 1 1 -1.8,0 0.89999998,0.89999998 0 1 1 1.8,0 z" transform="matrix(0.4460699,0.11952407,-0.11952407,0.4460699,-29.149905,1004.8771)"/>
    <path sodipodi:type="arc" style="fill:none;stroke:#000000;stroke-width:2.25;stroke-opacity:1;display:inline" id="path4962-2-0-9" sodipodi:cx="193.5" sodipodi:cy="-58.5" sodipodi:rx="0.89999998" sodipodi:ry="0.89999998" d="m 194.4,-58.5 a 0.89999998,0.89999998 0 1 1 -1.8,0 0.89999998,0.89999998 0 1 1 1.8,0 z" transform="matrix(0.4460699,0.11952407,-0.11952407,0.4460699,-30.316611,1009.2313)"/>
    <path sodipodi:type="arc" style="fill:none;stroke:#000000;stroke-width:2.25;stroke-opacity:1;display:inline" id="path4962-2-0-9-4" sodipodi:cx="193.5" sodipodi:cy="-58.5" sodipodi:rx="0.89999998" sodipodi:ry="0.89999998" d="m 194.4,-58.5 a 0.89999998,0.89999998 0 1 1 -1.8,0 0.89999998,0.89999998 0 1 1 1.8,0 z" transform="matrix(0.4460699,0.11952407,-0.11952407,0.4460699,-31.4776,1013.5642)"/>
    <path sodipodi:type="arc" style="fill:none;stroke:#000000;stroke-width:2.25;stroke-opacity:1;display:inline" id="path4962-2-0-9-4-8" sodipodi:cx="193.5" sodipodi:cy="-58.5" sodipodi:rx="0.89999998" sodipodi:ry="0.89999998" d="m 194.4,-58.5 a 0.89999998,0.89999998 0 1 1 -1.8,0 0.89999998,0.89999998 0 1 1 1.8,0 z" transform="matrix(0.4460699,0.11952407,-0.11952407,0.4460699,-14.095655,1018.2331)"/>
    <path sodipodi:type="arc" style="fill:none;stroke:#000000;stroke-width:2.25;stroke-opacity:1;display:inline" id="path4962-2-0-9-4-8-8" sodipodi:cx="193.5" sodipodi:cy="-58.5" sodipodi:rx="0.89999998" sodipodi:ry="0.89999998" d="m 194.4,-58.5 a 0.89999998,0.89999998 0 1 1 -1.8,0 0.89999998,0.89999998 0 1 1 1.8,0 z" transform="matrix(0.4460699,0.11952407,-0.11952407,0.4460699,-12.907602,1013.8846)"/>
    <path sodipodi:type="arc" style="fill:none;stroke:#000000;stroke-width:2.25;stroke-opacity:1;display:inline" id="path4962-2-0-9-4-8-8-2" sodipodi:cx="193.5" sodipodi:cy="-58.5" sodipodi:rx="0.89999998" sodipodi:ry="0.89999998" d="m 194.4,-58.5 a 0.89999998,0.89999998 0 1 1 -1.8,0 0.89999998,0.89999998 0 1 1 1.8,0 z" transform="matrix(0.4460699,0.11952407,-0.11952407,0.4460699,-11.767959,1009.546)"/>
  </g>
</svg>
