<!--?xml version="1.0" encoding="UTF-8" standalone="no"?--><!--?xml version="1.0" encoding="UTF-8" standalone="no"?--><!--?xml version="1.0" encoding="UTF-8" standalone="no"?--><svg xmlns:dc="http://purl.org/dc/elements/1.1/" xmlns:cc="http://creativecommons.org/ns#" xmlns:rdf="http://www.w3.org/1999/02/22-rdf-syntax-ns#" xmlns:svg="http://www.w3.org/2000/svg" xmlns="http://www.w3.org/2000/svg" xmlns:sodipodi="http://sodipodi.sourceforge.net/DTD/sodipodi-0.dtd" xmlns:inkscape="http://www.inkscape.org/namespaces/inkscape" viewBox="0 0 90 90" class="buttoned-shirt-2" id="svg2" version="1.1" inkscape:version="0.92.3 (2405546, 2018-03-11)" width="100%" height="100%" sodipodi:docname="hoodie-circle-2.svg" data-z="500" data-slots="clothing" data-tags="clothing">
  <defs id="defs16"/>
  <sodipodi:namedview pagecolor="#ffffff" bordercolor="#666666" borderopacity="1" objecttolerance="10" gridtolerance="10" guidetolerance="10" inkscape:pageopacity="0" inkscape:pageshadow="2" inkscape:window-width="2493" inkscape:window-height="1385" id="namedview14" showgrid="false" inkscape:zoom="14.833529" inkscape:cx="21.612683" inkscape:cy="47.399947" inkscape:window-x="67" inkscape:window-y="54" inkscape:window-maximized="1" inkscape:current-layer="layer3"/>
  <metadata title="Basic Body" contributor="Douglas Richardson" id="metadata4">
    <layers id="layers6">
      <layer name="Primary" data-layer="layer1" id="layer8"/>
    </layers>
    <rdf:rdf>
      <cc:work rdf:about="">
        <dc:format>image/svg+xml</dc:format>
        <dc:type rdf:resource="http://purl.org/dc/dcmitype/StillImage"/>
        <dc:title/>
      </cc:work>
    </rdf:rdf>
    <rdf:rdf>
      <cc:work rdf:about="">
        <dc:format>image/svg+xml</dc:format>
        <dc:type rdf:resource="http://purl.org/dc/dcmitype/StillImage"/>
      </cc:work>
    </rdf:rdf>
    <rdf:rdf>
      <cc:work rdf:about="">
        <dc:format>image/svg+xml</dc:format>
        <dc:type rdf:resource="http://purl.org/dc/dcmitype/StillImage"/>
        <dc:title/>
      </cc:work>
    </rdf:rdf>
  </metadata>
  <g inkscape:groupmode="layer" id="layer1" inkscape:label="shirt" class="shirt" style="display:inline">
    <path style="display:inline;fill:#ffffff;fill-opacity:1;stroke:#000000;stroke-width:2.25;stroke-linecap:round;stroke-miterlimit:4;stroke-dasharray:none;stroke-dashoffset:0;stroke-opacity:1" d="m 9.1875,48.78125 c 0.017477,0.167721 0.042725,0.332978 0.0625,0.5 0.081881,0.691592 0.1919332,1.383592 0.3125,2.0625 0.1496841,0.842867 0.3239197,1.678639 0.53125,2.5 0.166637,0.659739 0.360003,1.324076 0.5625,1.96875 0.13687,0.435742 0.284681,0.852823 0.4375,1.28125 0.06027,0.168963 0.124789,0.332213 0.1875,0.5 0.177545,0.475031 0.365704,0.940973 0.5625,1.40625 0.227712,0.538373 0.465966,1.069139 0.71875,1.59375 0.226494,0.470052 0.441452,0.94782 0.6875,1.40625 0.04635,0.08635 0.109223,0.164076 0.15625,0.25 0.260602,0.476155 0.531309,0.943472 0.8125,1.40625 0.300664,0.494826 0.614027,0.989947 0.9375,1.46875 0.173778,0.256974 0.351056,0.497818 0.53125,0.75 0.225469,0.316007 0.452185,0.629204 0.6875,0.9375 0.145017,0.189567 0.288821,0.375927 0.4375,0.5625 0.452763,0.568158 0.920537,1.148104 1.40625,1.6875 0.04454,0.04956 0.08019,0.106943 0.125,0.15625 1.060641,1.164866 2.202358,2.232467 3.40625,3.25 0.559189,0.472628 1.131104,0.936577 1.71875,1.375 0.07198,0.05383 0.146357,0.102948 0.21875,0.15625 0.01167,0.0086 0.01957,0.02269 0.03125,0.03125 0.508226,0.373249 1.034448,0.715788 1.5625,1.0625 0.281957,0.184757 0.556368,0.385502 0.84375,0.5625 0.563694,0.347909 1.134986,0.682881 1.71875,1 0.0079,0.0043 0.02335,-0.0043 0.03125,0 0.707371,0.383113 1.421351,0.72627 2.15625,1.0625 0.04239,0.0194 0.08252,0.04326 0.125,0.0625 0.736759,0.333616 1.48782,0.652915 2.25,0.9375 C 36.328485,80.184707 40.5664,81 45,81 c 4.970563,0 9.693019,-1.022051 14,-2.84375 0.538373,-0.227712 1.069139,-0.465966 1.59375,-0.71875 0.491036,-0.236605 0.99041,-0.460819 1.46875,-0.71875 0.0332,-0.01789 0.06061,-0.0445 0.09375,-0.0625 0.510096,-0.277101 1.005174,-0.574336 1.5,-0.875 0.494826,-0.300664 0.989947,-0.614027 1.46875,-0.9375 0.478803,-0.323473 0.944224,-0.654472 1.40625,-1 0.462925,-0.346689 0.929681,-0.694405 1.375,-1.0625 0.05142,-0.04244 0.105068,-0.08228 0.15625,-0.125 0.07852,-0.06563 0.140802,-0.152462 0.21875,-0.21875 0.53632,-0.456094 1.085165,-0.919948 1.59375,-1.40625 0.582501,-0.55698 1.143316,-1.124091 1.6875,-1.71875 0.418988,-0.457851 0.82356,-0.927154 1.21875,-1.40625 0.117452,-0.142319 0.228456,-0.293358 0.34375,-0.4375 0.286234,-0.35808 0.571074,-0.724706 0.84375,-1.09375 0.303301,-0.410286 0.588977,-0.826631 0.875,-1.25 0.323473,-0.478803 0.636836,-0.973924 0.9375,-1.46875 0.300664,-0.494826 0.597899,-0.989904 0.875,-1.5 0.277101,-0.510096 0.528466,-1.037889 0.78125,-1.5625 0.422699,-0.877243 0.804363,-1.772486 1.15625,-2.6875 0.111964,-0.29112 0.239184,-0.580306 0.34375,-0.875 0.02219,-0.0626 0.04065,-0.124744 0.0625,-0.1875 0.191484,-0.549239 0.365981,-1.095308 0.53125,-1.65625 0.100485,-0.341469 0.221949,-0.685644 0.3125,-1.03125 0.164541,-0.628045 0.306523,-1.265386 0.4375,-1.90625 0.0126,-0.06158 0.01896,-0.125807 0.03125,-0.1875 0.140772,-0.707952 0.245164,-1.4341 0.34375,-2.15625 0.0159,-0.116395 0.04772,-0.227003 0.0625,-0.34375 C 73.66625,52.2084 60.74785,54 45.90625,54 29.62445,54 15.621,51.86025 9.1875,48.78125 Z" id="path3829-1-5-74-4-9-2" inkscape:connector-curvature="0"/>
    <path style="fill:none;stroke:#000000;stroke-width:2.25;stroke-linecap:round;stroke-linejoin:miter;stroke-miterlimit:4;stroke-dasharray:none;stroke-opacity:1" d="m 36.025465,70.907468 c 0,2.271756 -1.792119,5.327735 -3.546324,7.774899" id="path839" inkscape:connector-curvature="0"/>
    <path style="display:inline;fill:none;stroke:#000000;stroke-width:2.25;stroke-linecap:round;stroke-linejoin:miter;stroke-miterlimit:4;stroke-dasharray:none;stroke-opacity:1" d="m 54.613679,70.859799 c 0,2.204242 1.687182,5.146787 3.389872,7.555141" id="path839-3" inkscape:connector-curvature="0"/>
  </g>
  <g inkscape:groupmode="layer" id="layer2" inkscape:label="trim" class="trim" style="display:inline">
    <path style="display:inline;fill:none;stroke:#000000;stroke-width:1.125;stroke-linecap:butt;stroke-linejoin:miter;stroke-miterlimit:4;stroke-dasharray:none;stroke-opacity:1" d="m 37.684896,53.730816 c -0.741563,3.033668 -0.337074,3.775231 0.202245,4.651624 0.539318,0.876393 0.06742,3.168498 -0.404489,3.977476" id="path856" inkscape:connector-curvature="0"/>
    <path style="display:inline;fill:none;stroke:#000000;stroke-width:1.125;stroke-linecap:butt;stroke-linejoin:miter;stroke-miterlimit:4;stroke-dasharray:none;stroke-opacity:1" d="m 52.163171,53.730816 c 0.741563,3.033668 0.337074,3.775231 -0.202245,4.651624 -0.539318,0.876393 -0.06742,3.168498 0.404489,3.977476" id="path856-7" inkscape:connector-curvature="0"/>
    <path style="display:inline;fill:#b4b4b4;fill-opacity:1;stroke:#000000;stroke-width:1.125;stroke-linecap:butt;stroke-linejoin:miter;stroke-miterlimit:4;stroke-dasharray:none;stroke-opacity:1" d="m 36.968613,61.289704 1.651664,0.859539 -1.508407,2.587046 -1.20504,-0.682576 z" id="path896" inkscape:connector-curvature="0" sodipodi:nodetypes="ccccc"/>
    <path style="display:inline;fill:#b4b4b4;fill-opacity:1;stroke:#000000;stroke-width:1.125;stroke-linecap:butt;stroke-linejoin:miter;stroke-miterlimit:4;stroke-dasharray:none;stroke-opacity:1" d="m 52.897089,61.289704 -1.651664,0.859539 1.508407,2.587046 1.20504,-0.682576 z" id="path896-3" inkscape:connector-curvature="0" sodipodi:nodetypes="ccccc"/>
  </g>
  <g inkscape:groupmode="layer" id="layer3" class="logo" inkscape:label="logo">
    <path style="fill:#b4b4b4;fill-opacity:1;stroke:none;stroke-width:0.55052298px;stroke-linecap:butt;stroke-linejoin:miter;stroke-opacity:1" d="m 43.403864,61.429194 c -1.340578,-0.03417 -2.724842,0.585409 -3.170131,1.502007 -0.518769,1.067854 -0.945001,2.871233 -0.340061,4.380781 -0.08077,0.07201 -0.169199,0.145488 -0.244391,0.216561 -0.677042,0.639946 -1.147638,1.188423 -1.314147,1.847285 l 1.295883,0.327015 c 0.03091,-0.122332 0.347965,-0.648048 0.935819,-1.203693 0.01797,-0.01698 0.04072,-0.03593 0.05914,-0.05306 0.128224,0.132795 0.265394,0.261761 0.422684,0.380938 2.761368,2.092259 4.960884,-0.01914 4.960884,-0.01914 l -1.411556,-2.189956 c -0.561327,0.209908 -1.138505,0.256097 -1.628985,0.105237 0.01354,-0.0082 0.02552,-0.01618 0.03914,-0.02435 0.707254,-0.424694 1.506288,-0.835948 2.367379,-1.20891 0.21253,0.639075 0.4604,1.475516 1.140203,2.6396 1.529901,2.619777 4.621693,2.384773 4.621693,2.384773 l -0.443557,-2.726573 c 0,0 -1.41091,0.464902 -2.508274,-1.003656 -0.481411,-0.644256 -0.757075,-1.300841 -1.042794,-1.96209 1.146853,-0.376224 2.367486,-0.66961 3.635431,-0.817536 l -0.15481,-1.326324 c -1.432488,0.167123 -2.797636,0.50153 -4.070291,0.9306 -0.251253,-0.445449 -0.556729,-0.891339 -0.99583,-1.33589 -0.560472,-0.567427 -1.349081,-0.823126 -2.153427,-0.843628 z m -0.239174,2.280407 c 0.244772,-0.01203 0.520428,0.03196 0.827104,0.149591 0.335489,0.128692 0.572677,0.275517 0.754918,0.447907 -0.87821,0.385975 -1.696857,0.808159 -2.42652,1.246309 -0.133986,0.08046 -0.256059,0.162344 -0.384416,0.243522 -0.03755,-0.08375 -0.07232,-0.171049 -0.100888,-0.266135 -0.201262,-0.669849 0.269128,-1.769036 1.329802,-1.821194 z" id="path849" inkscape:connector-curvature="0"/>
  </g>
</svg>
