<!--?xml version="1.0" encoding="UTF-8" standalone="no"?--><!-- Created with Inkscape (http://www.inkscape.org/) --><svg xmlns:dc="http://purl.org/dc/elements/1.1/" xmlns:cc="http://creativecommons.org/ns#" xmlns:rdf="http://www.w3.org/1999/02/22-rdf-syntax-ns#" xmlns:svg="http://www.w3.org/2000/svg" xmlns="http://www.w3.org/2000/svg" xlink="http://www.w3.org/1999/xlink" xmlns:sodipodi="http://sodipodi.sourceforge.net/DTD/sodipodi-0.dtd" xmlns:inkscape="http://www.inkscape.org/namespaces/inkscape" width="100%" height="100%" viewBox="0 0 90 90" id="svg2" version="1.1" inkscape:version="0.48.4 r9939" sodipodi:docname="C:\git\dougrich.net\token-builder\token-builder-content\template.svg" class="long-beard" data-z="850" data-slots="facial-hair" data-tags="face+hair">
  <defs id="defs4">
    <linearGradient id="linearGradient5737">
      <stop style="stop-color:#000000;stop-opacity:1;" offset="0" id="stop5739"/>
      <stop style="stop-color:#000000;stop-opacity:0;" offset="1" id="stop5741"/>
    </linearGradient>
    <linearGradient inkscape:collect="always" href="#linearGradient5728" id="linearGradient5734" x1="945" y1="310.2579" x2="945" y2="388.79999" gradientUnits="userSpaceOnUse"/>
    <linearGradient inkscape:collect="always" id="linearGradient5728">
      <stop style="stop-color:#000000;stop-opacity:1;" offset="0" id="stop5730"/>
      <stop style="stop-color:#000000;stop-opacity:0;" offset="1" id="stop5732"/>
    </linearGradient>
  </defs>
  <sodipodi:namedview id="base" pagecolor="#ffffff" bordercolor="#666666" borderopacity="1.0" inkscape:pageopacity="0.0" inkscape:pageshadow="2" inkscape:zoom="0.99780064" inkscape:cx="243.53079" inkscape:cy="-151.57569" inkscape:document-units="in" inkscape:current-layer="layer1" showgrid="false" units="in" inkscape:window-width="1920" inkscape:window-height="1003" inkscape:window-x="-9" inkscape:window-y="-9" inkscape:window-maximized="1">
    <inkscape:grid type="xygrid" id="grid2994" empspacing="5" visible="true" enabled="true" snapvisiblegridlinesonly="true" units="in" spacingx="0.014in" spacingy="0.014in"/>
  </sodipodi:namedview>
  <metadata id="metadata7">
    <rdf:rdf>
      <cc:work rdf:about="">
        <dc:format>image/svg+xml</dc:format>
        <dc:type rdf:resource="http://purl.org/dc/dcmitype/StillImage"/>
        <dc:title/>
      </cc:work>
    </rdf:rdf>
  </metadata>
  <g inkscape:label="Body" inkscape:groupmode="layer" id="layer1" class="hair" transform="translate(0,-962.35975)" style="display:inline">
    <path style="fill:#ffffff;fill-opacity:1;stroke:#000000;stroke-width:2.25;stroke-linecap:butt;stroke-linejoin:miter;stroke-miterlimit:4;stroke-opacity:1;stroke-dasharray:none;display:inline" d="m 36,1001.9598 c 1.21038,-0.2016 2.38043,0.6333 3.6,0.7686 3.57825,0.397 7.22358,0.5277 10.8,0.1146 1.22743,-0.1417 2.37827,-1.0678 3.6,-0.8832 3.45933,0.5225 6.85243,2.6381 9,5.4 3.84521,4.9451 4.83449,11.7613 5.4,18 0.49049,5.411 1.0247,11.5587 -1.8,16.1999 -1.1247,1.848 -3.32949,2.9731 -5.4,3.6 -1.14851,0.3478 -2.4155,-0.1922 -3.6,0 -1.87287,0.3039 -3.50741,1.9345 -5.4,1.8 -1.33827,-0.095 -2.25836,-1.8 -3.6,-1.8 -1.34164,0 -2.25836,1.8 -3.6,1.8 -1.34164,0 -2.25836,-1.8 -3.6,-1.8 -1.34164,0 -2.26173,1.7049 -3.6,1.8 -1.89259,0.1345 -3.52713,-1.4961 -5.4,-1.8 -1.1845,-0.1922 -2.45149,0.3478 -3.6,0 -2.07051,-0.6269 -4.2753,-1.752 -5.4,-3.6 -2.8247,-4.6412 -2.29049,-10.7889 -1.8,-16.1999 0.56551,-6.2387 1.55479,-13.0549 5.4,-18 2.14757,-2.7619 5.54896,-4.8253 9,-5.4 z" id="path6102" inkscape:connector-curvature="0" sodipodi:nodetypes="aaaaaaaaaaaaaaaaaaaa"/>
    <path style="fill:#ffffff;fill-opacity:1;stroke:#000000;stroke-width:2.25;stroke-linecap:butt;stroke-linejoin:miter;stroke-miterlimit:4;stroke-opacity:1;stroke-dasharray:none;display:inline" d="m 39.59375,998.3598 c -1.89737,0 -4.13551,0.4035 -5.40625,1.8125 -3.70481,4.1078 -4.7839,8.8888 -5.3875,14.3875 -1.04752,9.5426 0,28.7999 0,28.7999 l 5.4,3.6 c 0,0 -1.12549,-18.6483 -0.0125,-28.7874 0.6036,-5.4987 0.22071,-8.2524 3.625,-12.6125 0.82566,-1.0575 2.41736,-1.482 3.59375,-1.7813 1.17639,-0.2993 2.36215,-0.1247 3.26992,-0.1249 0.90776,-2e-4 2.33838,-0.093 3.26143,0.1249 1.30575,0.3082 2.76809,0.7238 3.59375,1.7813 3.40429,4.3601 2.99015,7.1138 3.59375,12.6125 1.11299,10.1391 0.6749,28.7874 0.6749,28.7874 l 5.4,-3.6 c 0,0 1.04752,-19.2573 0,-28.7999 -0.6036,-5.4987 -2.37009,-10.2797 -6.0749,-14.3875 -1.27074,-1.409 -3.50888,-1.8125 -5.40625,-1.8125 -1.61276,0 -4.23577,-0.2561 -5.03125,0.1341 -0.75307,-0.3708 -3.46,-0.1341 -5.09385,-0.1341 z" id="path6082" inkscape:connector-curvature="0" sodipodi:nodetypes="sssccsscscssccssscs"/>
    <path style="fill:none;stroke:#000000;stroke-width:2.25;stroke-linecap:butt;stroke-linejoin:miter;stroke-miterlimit:4;stroke-opacity:1;stroke-dasharray:none;display:inline" d="m 42.34371,1019.9598 c -3.6,5.4 -1.2,14.4 -1.8,21.6" id="path6105" inkscape:connector-curvature="0" sodipodi:nodetypes="cc"/>
    <path style="fill:none;stroke:#000000;stroke-width:2.25;stroke-linecap:butt;stroke-linejoin:miter;stroke-miterlimit:4;stroke-opacity:1;stroke-dasharray:none;display:inline" d="m 47.30226,1019.9598 c 3.6,5.4 1.2,14.4 1.8,21.6" id="path6107" inkscape:connector-curvature="0" sodipodi:nodetypes="cc"/>
  </g>
</svg>
