<?xml version="1.0" encoding="UTF-8" standalone="no"?>
<!--?xml version="1.0" encoding="UTF-8" standalone="no"?-->

<!-- Created with Inkscape (http://www.inkscape.org/) -->

<svg
   xmlns:dc="http://purl.org/dc/elements/1.1/"
   xmlns:cc="http://creativecommons.org/ns#"
   xmlns:rdf="http://www.w3.org/1999/02/22-rdf-syntax-ns#"
   xmlns:svg="http://www.w3.org/2000/svg"
   xmlns="http://www.w3.org/2000/svg"
   xmlns:sodipodi="http://sodipodi.sourceforge.net/DTD/sodipodi-0.dtd"
   xmlns:inkscape="http://www.inkscape.org/namespaces/inkscape"
   width="100%"
   height="100%"
   viewBox="0 0 90 90"
   id="svg2"
   version="1.1"
   inkscape:version="0.92.3 (2405546, 2018-03-11)"
   sodipodi:docname="machete-code-left.svg"
   class="machete-left"
   data-z="1200"
   data-slots="left-weapon"
   data-tags="new+left-hand+weapon">
  <defs
     id="defs4" />
  <sodipodi:namedview
     id="base"
     pagecolor="#ffffff"
     bordercolor="#666666"
     borderopacity="1.0"
     inkscape:pageopacity="0.0"
     inkscape:pageshadow="2"
     inkscape:zoom="11.288825"
     inkscape:cx="36.556238"
     inkscape:cy="35.203531"
     inkscape:document-units="in"
     inkscape:current-layer="layer3"
     showgrid="false"
     units="in"
     inkscape:window-width="2493"
     inkscape:window-height="1385"
     inkscape:window-x="67"
     inkscape:window-y="54"
     inkscape:window-maximized="1">
    <inkscape:grid
       type="xygrid"
       id="grid2994"
       empspacing="5"
       visible="true"
       enabled="true"
       snapvisiblegridlinesonly="true"
       units="in"
       spacingx="1.344"
       spacingy="1.344"
       originx="0"
       originy="0" />
  </sodipodi:namedview>
  <metadata
     id="metadata7">
    <rdf:rdf>
      <cc:work
         rdf:about="">
        <dc:format>image/svg+xml</dc:format>
        <dc:type
           rdf:resource="http://purl.org/dc/dcmitype/StillImage" />
        <dc:title />
      </cc:work>
    </rdf:rdf>
    <rdf:RDF>
      <cc:Work
         rdf:about="">
        <dc:format>image/svg+xml</dc:format>
        <dc:type
           rdf:resource="http://purl.org/dc/dcmitype/StillImage" />
        <dc:title></dc:title>
      </cc:Work>
    </rdf:RDF>
  </metadata>
  <g
     inkscape:label="Primary"
     inkscape:groupmode="layer"
     id="layer1"
     transform="translate(0,-962.35975)"
     class="blade"
     style="display:inline">
    <path
       style="opacity:1;vector-effect:none;fill:#ffffff;fill-opacity:1;stroke:#000000;stroke-width:2.25;stroke-linecap:round;stroke-linejoin:miter;stroke-miterlimit:4;stroke-dasharray:none;stroke-dashoffset:0;stroke-opacity:1"
       d="m 8.579686,985.85176 c -0.564842,-2.78123 1.361441,-8.96618 5.223302,-13.25246 l 14.598318,74.4627 -7.531939,1.4766 z"
       id="rect819"
       inkscape:connector-curvature="0"
       sodipodi:nodetypes="ccccc" />
  </g>
  <g
     inkscape:groupmode="layer"
     id="layer2"
     inkscape:label="Secondary"
     style="display:inline"
     class="handle">
    <path
       inkscape:connector-curvature="0"
       style="opacity:1;vector-effect:none;fill:#ffffff;fill-opacity:1;stroke:#000000;stroke-width:2.25;stroke-linecap:round;stroke-linejoin:miter;stroke-miterlimit:4;stroke-dasharray:none;stroke-dashoffset:0;stroke-opacity:1"
       d="M 17.30947,68.020477 20.869369,86.178716 28.401761,84.702 24.841862,66.543761 Z"
       id="rect822" />
  </g>
  <g
     inkscape:groupmode="layer"
     id="layer3"
     class="code"
     inkscape:label="Code">
    <path
       style="color:#000000;font-style:normal;font-variant:normal;font-weight:normal;font-stretch:normal;font-size:medium;line-height:normal;font-family:sans-serif;font-variant-ligatures:normal;font-variant-position:normal;font-variant-caps:normal;font-variant-numeric:normal;font-variant-alternates:normal;font-feature-settings:normal;text-indent:0;text-align:start;text-decoration:none;text-decoration-line:none;text-decoration-style:solid;text-decoration-color:#000000;letter-spacing:normal;word-spacing:normal;text-transform:none;writing-mode:lr-tb;direction:ltr;text-orientation:mixed;dominant-baseline:auto;baseline-shift:baseline;text-anchor:start;white-space:normal;shape-padding:0;clip-rule:nonzero;display:inline;overflow:visible;visibility:visible;opacity:1;isolation:auto;mix-blend-mode:normal;color-interpolation:sRGB;color-interpolation-filters:linearRGB;solid-color:#000000;solid-opacity:1;vector-effect:none;fill:#b4b4b4;fill-opacity:1;fill-rule:nonzero;stroke:none;stroke-width:1.24347472;stroke-linecap:square;stroke-linejoin:round;stroke-miterlimit:4;stroke-dasharray:none;stroke-dashoffset:0;stroke-opacity:1;marker:none;color-rendering:auto;image-rendering:auto;shape-rendering:auto;text-rendering:auto;enable-background:accumulate"
       d="m 12.156317,21.116003 c -0.581151,0.10904 -1.031876,0.518714 -1.281651,1.012675 -0.249774,0.49396 -0.327803,1.086097 -0.214523,1.689849 0.113282,0.603754 0.400855,1.128412 0.8127,1.498234 0.411845,0.369821 0.980217,0.587163 1.561368,0.478123 0.58115,-0.109041 1.030997,-0.517431 1.280772,-1.011391 0.249775,-0.49396 0.327602,-1.087178 0.21432,-1.690932 -0.113282,-0.603752 -0.400652,-1.127329 -0.812496,-1.497151 -0.411846,-0.369821 -0.979339,-0.588449 -1.56049,-0.479407 z m 0.229413,1.222693 c 0.149993,-0.02815 0.316243,0.01662 0.500909,0.182441 0.184665,0.165821 0.355232,0.449838 0.421052,0.800634 0.06582,0.350796 0.01001,0.678406 -0.101985,0.899892 -0.111995,0.221485 -0.250713,0.323466 -0.400707,0.351609 -0.149992,0.02815 -0.317321,-0.01646 -0.501989,-0.182237 -0.184666,-0.165824 -0.355436,-0.450921 -0.421255,-0.801717 -0.06582,-0.350796 -0.0098,-0.677326 0.102183,-0.89881 0.111996,-0.221486 0.251794,-0.32367 0.401787,-0.351812 z"
       id="path857"
       inkscape:connector-curvature="0" />
    <path
       style="color:#000000;font-style:normal;font-variant:normal;font-weight:normal;font-stretch:normal;font-size:medium;line-height:normal;font-family:sans-serif;font-variant-ligatures:normal;font-variant-position:normal;font-variant-caps:normal;font-variant-numeric:normal;font-variant-alternates:normal;font-feature-settings:normal;text-indent:0;text-align:start;text-decoration:none;text-decoration-line:none;text-decoration-style:solid;text-decoration-color:#000000;letter-spacing:normal;word-spacing:normal;text-transform:none;writing-mode:lr-tb;direction:ltr;text-orientation:mixed;dominant-baseline:auto;baseline-shift:baseline;text-anchor:start;white-space:normal;shape-padding:0;clip-rule:nonzero;display:inline;overflow:visible;visibility:visible;opacity:1;isolation:auto;mix-blend-mode:normal;color-interpolation:sRGB;color-interpolation-filters:linearRGB;solid-color:#000000;solid-opacity:1;vector-effect:none;fill:#b4b4b4;fill-opacity:1;fill-rule:nonzero;stroke:none;stroke-width:1.24347472;stroke-linecap:butt;stroke-linejoin:bevel;stroke-miterlimit:4;stroke-dasharray:none;stroke-dashoffset:0;stroke-opacity:1;color-rendering:auto;image-rendering:auto;shape-rendering:auto;text-rendering:auto;enable-background:accumulate"
       d="m 13.01852,26.365535 -1.244819,1.071792 0.810265,0.942482 0.439419,-0.377898 0.450829,2.247681 -0.514455,0.103241 0.243265,1.218975 2.079642,-0.415942 -0.243264,-1.218975 -0.345132,0.06924 -0.660152,-3.291726 z"
       id="path859"
       inkscape:connector-curvature="0" />
    <path
       style="color:#000000;font-style:normal;font-variant:normal;font-weight:normal;font-stretch:normal;font-size:medium;line-height:normal;font-family:sans-serif;font-variant-ligatures:normal;font-variant-position:normal;font-variant-caps:normal;font-variant-numeric:normal;font-variant-alternates:normal;font-feature-settings:normal;text-indent:0;text-align:start;text-decoration:none;text-decoration-line:none;text-decoration-style:solid;text-decoration-color:#000000;letter-spacing:normal;word-spacing:normal;text-transform:none;writing-mode:lr-tb;direction:ltr;text-orientation:mixed;dominant-baseline:auto;baseline-shift:baseline;text-anchor:start;white-space:normal;shape-padding:0;clip-rule:nonzero;display:inline;overflow:visible;visibility:visible;opacity:1;isolation:auto;mix-blend-mode:normal;color-interpolation:sRGB;color-interpolation-filters:linearRGB;solid-color:#000000;solid-opacity:1;vector-effect:none;fill:#b4b4b4;fill-opacity:1;fill-rule:nonzero;stroke:none;stroke-width:1.24347472;stroke-linecap:square;stroke-linejoin:round;stroke-miterlimit:4;stroke-dasharray:none;stroke-dashoffset:0;stroke-opacity:1;marker:none;color-rendering:auto;image-rendering:auto;shape-rendering:auto;text-rendering:auto;enable-background:accumulate"
       d="m 15.400643,37.460358 c -0.581151,0.109041 -1.031876,0.518714 -1.281651,1.012675 -0.249774,0.49396 -0.327804,1.086097 -0.214522,1.689849 0.113281,0.603754 0.400854,1.128412 0.812699,1.498234 0.411845,0.369821 0.980216,0.587163 1.561367,0.478123 0.581152,-0.109041 1.030998,-0.517431 1.280773,-1.011391 0.249774,-0.49396 0.327601,-1.087178 0.214319,-1.690932 -0.113281,-0.603752 -0.400651,-1.127329 -0.812496,-1.497151 -0.411845,-0.369821 -0.979338,-0.588449 -1.560489,-0.479407 z m 0.229413,1.222693 c 0.149992,-0.02815 0.316242,0.01662 0.500908,0.182441 0.184666,0.165821 0.355234,0.449838 0.421053,0.800634 0.06582,0.350795 0.01001,0.678406 -0.101985,0.899892 -0.111996,0.221485 -0.250714,0.323466 -0.400706,0.351609 -0.149994,0.02815 -0.317323,-0.01646 -0.501989,-0.182237 -0.184667,-0.165823 -0.355437,-0.450922 -0.421257,-0.801717 -0.06582,-0.350797 -0.0098,-0.677326 0.102193,-0.89881 0.111995,-0.221485 0.251794,-0.32367 0.401787,-0.351812 z"
       id="path857-3"
       inkscape:connector-curvature="0" />
    <path
       style="color:#000000;font-style:normal;font-variant:normal;font-weight:normal;font-stretch:normal;font-size:medium;line-height:normal;font-family:sans-serif;font-variant-ligatures:normal;font-variant-position:normal;font-variant-caps:normal;font-variant-numeric:normal;font-variant-alternates:normal;font-feature-settings:normal;text-indent:0;text-align:start;text-decoration:none;text-decoration-line:none;text-decoration-style:solid;text-decoration-color:#000000;letter-spacing:normal;word-spacing:normal;text-transform:none;writing-mode:lr-tb;direction:ltr;text-orientation:mixed;dominant-baseline:auto;baseline-shift:baseline;text-anchor:start;white-space:normal;shape-padding:0;clip-rule:nonzero;display:inline;overflow:visible;visibility:visible;opacity:1;isolation:auto;mix-blend-mode:normal;color-interpolation:sRGB;color-interpolation-filters:linearRGB;solid-color:#000000;solid-opacity:1;vector-effect:none;fill:#b4b4b4;fill-opacity:1;fill-rule:nonzero;stroke:none;stroke-width:1.24347472;stroke-linecap:square;stroke-linejoin:round;stroke-miterlimit:4;stroke-dasharray:none;stroke-dashoffset:0;stroke-opacity:1;marker:none;color-rendering:auto;image-rendering:auto;shape-rendering:auto;text-rendering:auto;enable-background:accumulate"
       d="m 16.365364,42.588115 c -0.58115,0.109041 -1.031876,0.518715 -1.281651,1.012676 -0.249774,0.49396 -0.327804,1.086097 -0.214522,1.68985 0.113281,0.603753 0.400855,1.128412 0.812699,1.498233 0.411845,0.36982 0.980217,0.587163 1.561368,0.478123 0.581151,-0.109041 1.030998,-0.517431 1.280773,-1.011391 0.249773,-0.493959 0.3276,-1.087178 0.214319,-1.690931 -0.113281,-0.603753 -0.400652,-1.127331 -0.812496,-1.497152 -0.411846,-0.369822 -0.979339,-0.588448 -1.56049,-0.479408 z m 0.229413,1.222693 c 0.149993,-0.02815 0.316243,0.01662 0.500909,0.182441 0.184666,0.165822 0.355233,0.44984 0.421052,0.800635 0.06582,0.350797 0.01001,0.678406 -0.101985,0.899892 -0.111996,0.221484 -0.250714,0.323466 -0.400706,0.351609 -0.149992,0.02814 -0.317323,-0.01646 -0.50199,-0.182237 -0.184666,-0.165824 -0.355436,-0.450921 -0.421255,-0.801717 -0.06582,-0.350795 -0.0098,-0.677326 0.102183,-0.89881 0.111995,-0.221486 0.251794,-0.32367 0.401787,-0.351813 z"
       id="path857-7"
       inkscape:connector-curvature="0" />
    <path
       style="color:#000000;font-style:normal;font-variant:normal;font-weight:normal;font-stretch:normal;font-size:medium;line-height:normal;font-family:sans-serif;font-variant-ligatures:normal;font-variant-position:normal;font-variant-caps:normal;font-variant-numeric:normal;font-variant-alternates:normal;font-feature-settings:normal;text-indent:0;text-align:start;text-decoration:none;text-decoration-line:none;text-decoration-style:solid;text-decoration-color:#000000;letter-spacing:normal;word-spacing:normal;text-transform:none;writing-mode:lr-tb;direction:ltr;text-orientation:mixed;dominant-baseline:auto;baseline-shift:baseline;text-anchor:start;white-space:normal;shape-padding:0;clip-rule:nonzero;display:inline;overflow:visible;visibility:visible;opacity:1;isolation:auto;mix-blend-mode:normal;color-interpolation:sRGB;color-interpolation-filters:linearRGB;solid-color:#000000;solid-opacity:1;vector-effect:none;fill:#b4b4b4;fill-opacity:1;fill-rule:nonzero;stroke:none;stroke-width:1.24347472;stroke-linecap:butt;stroke-linejoin:bevel;stroke-miterlimit:4;stroke-dasharray:none;stroke-dashoffset:0;stroke-opacity:1;color-rendering:auto;image-rendering:auto;shape-rendering:auto;text-rendering:auto;enable-background:accumulate"
       d="m 17.227567,47.837647 -1.24482,1.071794 0.810267,0.942481 0.439418,-0.377897 0.450829,2.24768 -0.514454,0.103242 0.243264,1.218975 2.079642,-0.415943 -0.243264,-1.218974 -0.345132,0.06924 -0.660152,-3.291726 z"
       id="path859-5"
       inkscape:connector-curvature="0" />
    <path
       style="color:#000000;font-style:normal;font-variant:normal;font-weight:normal;font-stretch:normal;font-size:medium;line-height:normal;font-family:sans-serif;font-variant-ligatures:normal;font-variant-position:normal;font-variant-caps:normal;font-variant-numeric:normal;font-variant-alternates:normal;font-feature-settings:normal;text-indent:0;text-align:start;text-decoration:none;text-decoration-line:none;text-decoration-style:solid;text-decoration-color:#000000;letter-spacing:normal;word-spacing:normal;text-transform:none;writing-mode:lr-tb;direction:ltr;text-orientation:mixed;dominant-baseline:auto;baseline-shift:baseline;text-anchor:start;white-space:normal;shape-padding:0;clip-rule:nonzero;display:inline;overflow:visible;visibility:visible;opacity:1;isolation:auto;mix-blend-mode:normal;color-interpolation:sRGB;color-interpolation-filters:linearRGB;solid-color:#000000;solid-opacity:1;vector-effect:none;fill:#b4b4b4;fill-opacity:1;fill-rule:nonzero;stroke:none;stroke-width:1.24347472;stroke-linecap:square;stroke-linejoin:round;stroke-miterlimit:4;stroke-dasharray:none;stroke-dashoffset:0;stroke-opacity:1;marker:none;color-rendering:auto;image-rendering:auto;shape-rendering:auto;text-rendering:auto;enable-background:accumulate"
       d="m 19.60969,58.93247 c -0.581151,0.109041 -1.031876,0.518715 -1.281651,1.012676 -0.249774,0.49396 -0.327803,1.086097 -0.214522,1.68985 0.113282,0.603753 0.400854,1.128412 0.812699,1.498233 0.411845,0.369821 0.980217,0.587164 1.561367,0.478123 0.581151,-0.109041 1.030998,-0.517431 1.280773,-1.011391 0.249775,-0.493959 0.327601,-1.087178 0.21432,-1.690931 C 21.869394,60.305277 21.582024,59.781699 21.17018,59.411878 20.758334,59.042056 20.190841,58.82343 19.60969,58.93247 Z m 0.229413,1.222693 c 0.149992,-0.02815 0.316242,0.01662 0.500909,0.182441 0.184665,0.165822 0.355232,0.449839 0.421051,0.800635 0.06582,0.350796 0.01001,0.678406 -0.101985,0.899892 -0.111996,0.221485 -0.250713,0.323466 -0.400707,0.351609 -0.149992,0.02814 -0.317322,-0.01646 -0.501988,-0.182238 -0.184667,-0.165823 -0.355437,-0.45092 -0.421257,-0.801716 -0.06582,-0.350796 -0.0098,-0.677326 0.102193,-0.89881 0.111994,-0.221486 0.251793,-0.323669 0.401786,-0.351812 z"
       id="path857-3-3"
       inkscape:connector-curvature="0" />
    <path
       style="color:#000000;font-style:normal;font-variant:normal;font-weight:normal;font-stretch:normal;font-size:medium;line-height:normal;font-family:sans-serif;font-variant-ligatures:normal;font-variant-position:normal;font-variant-caps:normal;font-variant-numeric:normal;font-variant-alternates:normal;font-feature-settings:normal;text-indent:0;text-align:start;text-decoration:none;text-decoration-line:none;text-decoration-style:solid;text-decoration-color:#000000;letter-spacing:normal;word-spacing:normal;text-transform:none;writing-mode:lr-tb;direction:ltr;text-orientation:mixed;dominant-baseline:auto;baseline-shift:baseline;text-anchor:start;white-space:normal;shape-padding:0;clip-rule:nonzero;display:inline;overflow:visible;visibility:visible;opacity:1;isolation:auto;mix-blend-mode:normal;color-interpolation:sRGB;color-interpolation-filters:linearRGB;solid-color:#000000;solid-opacity:1;vector-effect:none;fill:#b4b4b4;fill-opacity:1;fill-rule:nonzero;stroke:none;stroke-width:1.24347472;stroke-linecap:square;stroke-linejoin:round;stroke-miterlimit:4;stroke-dasharray:none;stroke-dashoffset:0;stroke-opacity:1;marker:none;color-rendering:auto;image-rendering:auto;shape-rendering:auto;text-rendering:auto;enable-background:accumulate"
       d="m 14.234308,32.143079 c -0.581151,0.10904 -1.031876,0.518715 -1.281651,1.012676 -0.249774,0.49396 -0.327804,1.086097 -0.214523,1.689849 0.113282,0.603754 0.400855,1.128412 0.8127,1.498234 0.411845,0.36982 0.980217,0.587163 1.561368,0.478123 0.58115,-0.109042 1.030997,-0.517431 1.280772,-1.011391 0.249774,-0.493961 0.327601,-1.087178 0.21432,-1.690932 -0.113281,-0.603752 -0.400652,-1.12733 -0.812496,-1.497151 -0.411846,-0.369822 -0.979339,-0.588449 -1.56049,-0.479408 z m 0.229412,1.222693 c 0.149994,-0.02815 0.316244,0.01662 0.50091,0.182441 0.184665,0.165822 0.355232,0.449838 0.421052,0.800634 0.06582,0.350796 0.01001,0.678407 -0.101985,0.899893 -0.111996,0.221484 -0.250714,0.323466 -0.400706,0.351608 -0.149993,0.02815 -0.317323,-0.01646 -0.501989,-0.182237 -0.184667,-0.165824 -0.355437,-0.450921 -0.421256,-0.801717 -0.06582,-0.350797 -0.0098,-0.677326 0.102193,-0.898809 0.111994,-0.221486 0.251793,-0.32367 0.401785,-0.351813 z"
       id="path857-3-6"
       inkscape:connector-curvature="0" />
    <path
       style="color:#000000;font-style:normal;font-variant:normal;font-weight:normal;font-stretch:normal;font-size:medium;line-height:normal;font-family:sans-serif;font-variant-ligatures:normal;font-variant-position:normal;font-variant-caps:normal;font-variant-numeric:normal;font-variant-alternates:normal;font-feature-settings:normal;text-indent:0;text-align:start;text-decoration:none;text-decoration-line:none;text-decoration-style:solid;text-decoration-color:#000000;letter-spacing:normal;word-spacing:normal;text-transform:none;writing-mode:lr-tb;direction:ltr;text-orientation:mixed;dominant-baseline:auto;baseline-shift:baseline;text-anchor:start;white-space:normal;shape-padding:0;clip-rule:nonzero;display:inline;overflow:visible;visibility:visible;opacity:1;isolation:auto;mix-blend-mode:normal;color-interpolation:sRGB;color-interpolation-filters:linearRGB;solid-color:#000000;solid-opacity:1;vector-effect:none;fill:#b4b4b4;fill-opacity:1;fill-rule:nonzero;stroke:none;stroke-width:1.24347472;stroke-linecap:square;stroke-linejoin:round;stroke-miterlimit:4;stroke-dasharray:none;stroke-dashoffset:0;stroke-opacity:1;marker:none;color-rendering:auto;image-rendering:auto;shape-rendering:auto;text-rendering:auto;enable-background:accumulate"
       d="m 18.598729,53.798576 c -0.581151,0.109041 -1.031876,0.518715 -1.281651,1.012676 -0.249774,0.49396 -0.327804,1.086097 -0.214523,1.68985 0.113282,0.603753 0.400855,1.128412 0.8127,1.498233 0.411845,0.369821 0.980217,0.587164 1.561368,0.478123 0.58115,-0.10904 1.030997,-0.517431 1.280772,-1.011391 0.249775,-0.493959 0.327602,-1.087178 0.21432,-1.690931 -0.113282,-0.603753 -0.400652,-1.127331 -0.812496,-1.497151 -0.411846,-0.369823 -0.979339,-0.588449 -1.56049,-0.479409 z m 0.229412,1.222693 c 0.149993,-0.02814 0.316244,0.01662 0.50091,0.182441 0.184665,0.165822 0.355232,0.449839 0.421052,0.800635 0.06582,0.350796 0.01001,0.678406 -0.101985,0.899892 -0.111996,0.221485 -0.250713,0.323466 -0.400707,0.351609 -0.149992,0.02814 -0.317321,-0.01646 -0.501988,-0.182238 -0.184667,-0.165823 -0.355437,-0.45092 -0.421256,-0.801716 -0.06582,-0.350796 -0.0098,-0.677326 0.102193,-0.89881 0.111995,-0.221486 0.251793,-0.323669 0.401785,-0.351812 z"
       id="path857-3-3-2"
       inkscape:connector-curvature="0" />
  </g>
</svg>
