<?xml version="1.0" encoding="UTF-8" standalone="no"?>
<!--?xml version="1.0" encoding="UTF-8" standalone="no"?-->

<!-- Created with Inkscape (http://www.inkscape.org/) -->

<svg
   xmlns:dc="http://purl.org/dc/elements/1.1/"
   xmlns:cc="http://creativecommons.org/ns#"
   xmlns:rdf="http://www.w3.org/1999/02/22-rdf-syntax-ns#"
   xmlns:svg="http://www.w3.org/2000/svg"
   xmlns="http://www.w3.org/2000/svg"
   xmlns:sodipodi="http://sodipodi.sourceforge.net/DTD/sodipodi-0.dtd"
   xmlns:inkscape="http://www.inkscape.org/namespaces/inkscape"
   width="100%"
   height="100%"
   viewBox="0 0 90 90"
   id="svg2"
   version="1.1"
   inkscape:version="0.92.3 (2405546, 2018-03-11)"
   sodipodi:docname="machete-code-right.svg"
   class="machete-right"
   data-z="1200"
   data-slots="right-weapon"
   data-tags="new+right-hand+weapon">
  <defs
     id="defs4" />
  <sodipodi:namedview
     id="base"
     pagecolor="#ffffff"
     bordercolor="#666666"
     borderopacity="1.0"
     inkscape:pageopacity="0.0"
     inkscape:pageshadow="2"
     inkscape:zoom="11.288825"
     inkscape:cx="50.870092"
     inkscape:cy="52.398116"
     inkscape:document-units="in"
     inkscape:current-layer="layer3"
     showgrid="false"
     units="in"
     inkscape:window-width="2493"
     inkscape:window-height="1385"
     inkscape:window-x="67"
     inkscape:window-y="54"
     inkscape:window-maximized="1">
    <inkscape:grid
       type="xygrid"
       id="grid2994"
       empspacing="5"
       visible="true"
       enabled="true"
       snapvisiblegridlinesonly="true"
       units="in"
       spacingx="1.344"
       spacingy="1.344"
       originx="0"
       originy="0" />
  </sodipodi:namedview>
  <metadata
     id="metadata7">
    <rdf:rdf>
      <cc:work
         rdf:about="">
        <dc:format>image/svg+xml</dc:format>
        <dc:type
           rdf:resource="http://purl.org/dc/dcmitype/StillImage" />
        <dc:title />
      </cc:work>
    </rdf:rdf>
    <rdf:RDF>
      <cc:Work
         rdf:about="">
        <dc:format>image/svg+xml</dc:format>
        <dc:type
           rdf:resource="http://purl.org/dc/dcmitype/StillImage" />
        <dc:title></dc:title>
      </cc:Work>
    </rdf:RDF>
  </metadata>
  <g
     inkscape:label="Primary"
     inkscape:groupmode="layer"
     id="layer1"
     transform="translate(0,-962.35975)"
     class="blade">
    <path
       style="opacity:1;vector-effect:none;fill:#ffffff;fill-opacity:1;stroke:#000000;stroke-width:2.25;stroke-linecap:round;stroke-linejoin:miter;stroke-miterlimit:4;stroke-dasharray:none;stroke-dashoffset:0;stroke-opacity:1"
       d="m 81.941161,985.85176 c 0.564842,-2.78123 -1.361441,-8.96618 -5.223302,-13.25246 l -14.598318,74.4627 7.531939,1.4766 z"
       id="rect819"
       inkscape:connector-curvature="0"
       sodipodi:nodetypes="ccccc" />
  </g>
  <g
     inkscape:groupmode="layer"
     id="layer2"
     inkscape:label="Secondary"
     style="display:inline"
     class="handle">
    <path
       inkscape:connector-curvature="0"
       style="opacity:1;vector-effect:none;fill:#ffffff;fill-opacity:1;stroke:#000000;stroke-width:2.25;stroke-linecap:round;stroke-linejoin:miter;stroke-miterlimit:4;stroke-dasharray:none;stroke-dashoffset:0;stroke-opacity:1"
       d="M 73.211377,68.020477 69.651478,86.178716 62.119086,84.702 65.678985,66.543761 Z"
       id="rect822" />
  </g>
  <g
     inkscape:groupmode="layer"
     id="layer3"
     class="code"
     inkscape:label="code">
    <path
       style="color:#000000;font-style:normal;font-variant:normal;font-weight:normal;font-stretch:normal;font-size:medium;line-height:normal;font-family:sans-serif;font-variant-ligatures:normal;font-variant-position:normal;font-variant-caps:normal;font-variant-numeric:normal;font-variant-alternates:normal;font-feature-settings:normal;text-indent:0;text-align:start;text-decoration:none;text-decoration-line:none;text-decoration-style:solid;text-decoration-color:#000000;letter-spacing:normal;word-spacing:normal;text-transform:none;writing-mode:lr-tb;direction:ltr;text-orientation:mixed;dominant-baseline:auto;baseline-shift:baseline;text-anchor:start;white-space:normal;shape-padding:0;clip-rule:nonzero;display:inline;overflow:visible;visibility:visible;opacity:1;isolation:auto;mix-blend-mode:normal;color-interpolation:sRGB;color-interpolation-filters:linearRGB;solid-color:#000000;solid-opacity:1;vector-effect:none;fill:#b4b4b4;fill-opacity:1;fill-rule:nonzero;stroke:none;stroke-width:1.24347472;stroke-linecap:square;stroke-linejoin:round;stroke-miterlimit:4;stroke-dasharray:none;stroke-dashoffset:0;stroke-opacity:1;marker:none;color-rendering:auto;image-rendering:auto;shape-rendering:auto;text-rendering:auto;enable-background:accumulate"
       d="m 78.377454,21.356485 c -0.580025,-0.11488 -1.150765,0.09784 -1.5663,0.463512 -0.415534,0.365671 -0.708142,0.886338 -0.827476,1.488924 -0.119381,0.602577 -0.04746,1.196555 0.197344,1.692997 0.244805,0.496442 0.691612,0.909538 1.271639,1.024404 0.580025,0.114879 1.149473,-0.09698 1.565007,-0.462648 0.415535,-0.36567 0.708358,-0.887417 0.827691,-1.490004 0.11938,-0.602575 0.04725,-1.195475 -0.197557,-1.691917 -0.244808,-0.496441 -0.690319,-0.910403 -1.270348,-1.025268 z m -0.241671,1.220329 c 0.149714,0.0296 0.287389,0.133017 0.397158,0.355612 0.109767,0.222596 0.162499,0.54967 0.09316,0.899789 -0.06937,0.350112 -0.242959,0.633487 -0.429279,0.79745 -0.186319,0.163962 -0.35301,0.207052 -0.502715,0.177405 -0.149712,-0.0296 -0.288449,-0.133269 -0.398236,-0.355825 -0.109767,-0.222599 -0.162286,-0.550752 -0.09295,-0.90087 0.06936,-0.350112 0.242753,-0.632407 0.42906,-0.796372 0.186321,-0.163962 0.354091,-0.206839 0.503793,-0.177191 z"
       id="path857"
       inkscape:connector-curvature="0" />
    <path
       style="color:#000000;font-style:normal;font-variant:normal;font-weight:normal;font-stretch:normal;font-size:medium;line-height:normal;font-family:sans-serif;font-variant-ligatures:normal;font-variant-position:normal;font-variant-caps:normal;font-variant-numeric:normal;font-variant-alternates:normal;font-feature-settings:normal;text-indent:0;text-align:start;text-decoration:none;text-decoration-line:none;text-decoration-style:solid;text-decoration-color:#000000;letter-spacing:normal;word-spacing:normal;text-transform:none;writing-mode:lr-tb;direction:ltr;text-orientation:mixed;dominant-baseline:auto;baseline-shift:baseline;text-anchor:start;white-space:normal;shape-padding:0;clip-rule:nonzero;display:inline;overflow:visible;visibility:visible;opacity:1;isolation:auto;mix-blend-mode:normal;color-interpolation:sRGB;color-interpolation-filters:linearRGB;solid-color:#000000;solid-opacity:1;vector-effect:none;fill:#b4b4b4;fill-opacity:1;fill-rule:nonzero;stroke:none;stroke-width:1.24347472;stroke-linecap:butt;stroke-linejoin:bevel;stroke-miterlimit:4;stroke-dasharray:none;stroke-dashoffset:0;stroke-opacity:1;color-rendering:auto;image-rendering:auto;shape-rendering:auto;text-rendering:auto;enable-background:accumulate"
       d="m 77.225911,26.550224 -1.55409,0.532086 0.401728,1.176187 0.548427,-0.187415 -0.41725,2.254156 -0.515958,-0.09545 -0.227429,1.222029 2.085195,0.387148 0.227428,-1.222029 -0.346134,-0.06404 0.611139,-3.301177 z"
       id="path859"
       inkscape:connector-curvature="0" />
    <path
       style="color:#000000;font-style:normal;font-variant:normal;font-weight:normal;font-stretch:normal;font-size:medium;line-height:normal;font-family:sans-serif;font-variant-ligatures:normal;font-variant-position:normal;font-variant-caps:normal;font-variant-numeric:normal;font-variant-alternates:normal;font-feature-settings:normal;text-indent:0;text-align:start;text-decoration:none;text-decoration-line:none;text-decoration-style:solid;text-decoration-color:#000000;letter-spacing:normal;word-spacing:normal;text-transform:none;writing-mode:lr-tb;direction:ltr;text-orientation:mixed;dominant-baseline:auto;baseline-shift:baseline;text-anchor:start;white-space:normal;shape-padding:0;clip-rule:nonzero;display:inline;overflow:visible;visibility:visible;opacity:1;isolation:auto;mix-blend-mode:normal;color-interpolation:sRGB;color-interpolation-filters:linearRGB;solid-color:#000000;solid-opacity:1;vector-effect:none;fill:#b4b4b4;fill-opacity:1;fill-rule:nonzero;stroke:none;stroke-width:1.24347472;stroke-linecap:square;stroke-linejoin:round;stroke-miterlimit:4;stroke-dasharray:none;stroke-dashoffset:0;stroke-opacity:1;marker:none;color-rendering:auto;image-rendering:auto;shape-rendering:auto;text-rendering:auto;enable-background:accumulate"
       d="m 74.300769,42.854119 c -0.580025,-0.114879 -1.150765,0.09784 -1.566301,0.463514 -0.415533,0.36567 -0.708143,0.886338 -0.827476,1.488924 -0.11938,0.602577 -0.04746,1.196556 0.197344,1.692997 0.244806,0.49644 0.691613,0.909537 1.27164,1.024404 0.580025,0.11488 1.149472,-0.09698 1.565008,-0.462648 0.415532,-0.36567 0.708355,-0.887418 0.827689,-1.490003 0.11938,-0.602576 0.04725,-1.195476 -0.197557,-1.691917 -0.244807,-0.496443 -0.69032,-0.910404 -1.270347,-1.025271 z m -0.241672,1.22033 c 0.149715,0.0296 0.28739,0.133017 0.397159,0.355612 0.109767,0.222597 0.162499,0.549673 0.09316,0.89979 -0.06937,0.350113 -0.242958,0.633487 -0.429278,0.797449 -0.18632,0.163961 -0.353012,0.207052 -0.502715,0.177406 -0.149691,-0.0297 -0.288451,-0.133269 -0.398236,-0.355825 -0.109769,-0.222599 -0.162287,-0.550752 -0.09295,-0.90087 0.06936,-0.350111 0.242752,-0.632406 0.42906,-0.796372 0.186321,-0.163963 0.354091,-0.206839 0.503794,-0.177192 z"
       id="path857-7"
       inkscape:connector-curvature="0" />
    <path
       style="color:#000000;font-style:normal;font-variant:normal;font-weight:normal;font-stretch:normal;font-size:medium;line-height:normal;font-family:sans-serif;font-variant-ligatures:normal;font-variant-position:normal;font-variant-caps:normal;font-variant-numeric:normal;font-variant-alternates:normal;font-feature-settings:normal;text-indent:0;text-align:start;text-decoration:none;text-decoration-line:none;text-decoration-style:solid;text-decoration-color:#000000;letter-spacing:normal;word-spacing:normal;text-transform:none;writing-mode:lr-tb;direction:ltr;text-orientation:mixed;dominant-baseline:auto;baseline-shift:baseline;text-anchor:start;white-space:normal;shape-padding:0;clip-rule:nonzero;display:inline;overflow:visible;visibility:visible;opacity:1;isolation:auto;mix-blend-mode:normal;color-interpolation:sRGB;color-interpolation-filters:linearRGB;solid-color:#000000;solid-opacity:1;vector-effect:none;fill:#b4b4b4;fill-opacity:1;fill-rule:nonzero;stroke:none;stroke-width:1.24347472;stroke-linecap:butt;stroke-linejoin:bevel;stroke-miterlimit:4;stroke-dasharray:none;stroke-dashoffset:0;stroke-opacity:1;color-rendering:auto;image-rendering:auto;shape-rendering:auto;text-rendering:auto;enable-background:accumulate"
       d="m 72.260575,53.608604 -1.554092,0.532088 0.401731,1.176187 0.548425,-0.187413 -0.41725,2.254155 -0.515957,-0.09545 -0.227428,1.222028 2.085194,0.387149 0.227428,-1.222028 -0.346134,-0.06404 0.611139,-3.301177 z"
       id="path859-5"
       inkscape:connector-curvature="0" />
    <path
       style="color:#000000;font-style:normal;font-variant:normal;font-weight:normal;font-stretch:normal;font-size:medium;line-height:normal;font-family:sans-serif;font-variant-ligatures:normal;font-variant-position:normal;font-variant-caps:normal;font-variant-numeric:normal;font-variant-alternates:normal;font-feature-settings:normal;text-indent:0;text-align:start;text-decoration:none;text-decoration-line:none;text-decoration-style:solid;text-decoration-color:#000000;letter-spacing:normal;word-spacing:normal;text-transform:none;writing-mode:lr-tb;direction:ltr;text-orientation:mixed;dominant-baseline:auto;baseline-shift:baseline;text-anchor:start;white-space:normal;shape-padding:0;clip-rule:nonzero;display:inline;overflow:visible;visibility:visible;opacity:1;isolation:auto;mix-blend-mode:normal;color-interpolation:sRGB;color-interpolation-filters:linearRGB;solid-color:#000000;solid-opacity:1;vector-effect:none;fill:#b4b4b4;fill-opacity:1;fill-rule:nonzero;stroke:none;stroke-width:1.24347472;stroke-linecap:square;stroke-linejoin:round;stroke-miterlimit:4;stroke-dasharray:none;stroke-dashoffset:0;stroke-opacity:1;marker:none;color-rendering:auto;image-rendering:auto;shape-rendering:auto;text-rendering:auto;enable-background:accumulate"
       d="m 71.235179,59.232939 c -0.580025,-0.11488 -1.150765,0.09784 -1.5663,0.463514 -0.415534,0.36567 -0.708143,0.886339 -0.827476,1.488924 -0.11938,0.602577 -0.04746,1.196556 0.197343,1.692997 0.244806,0.496441 0.691612,0.909538 1.271639,1.024404 0.580025,0.11488 1.149473,-0.09698 1.565008,-0.462648 0.415535,-0.365669 0.708356,-0.887417 0.82769,-1.490003 0.11938,-0.602576 0.04725,-1.195476 -0.197557,-1.691917 -0.244806,-0.496443 -0.69032,-0.910404 -1.270347,-1.025271 z m -0.241671,1.22033 c 0.149713,0.0296 0.287388,0.133016 0.397158,0.355612 0.109766,0.222597 0.162498,0.549672 0.09316,0.89979 -0.06936,0.350112 -0.242958,0.633486 -0.429277,0.797449 -0.186321,0.163962 -0.353012,0.207052 -0.502716,0.177405 -0.149691,-0.0297 -0.288451,-0.133269 -0.398235,-0.355825 -0.109768,-0.222598 -0.162288,-0.550751 -0.09295,-0.900869 0.06937,-0.350112 0.242752,-0.632407 0.429069,-0.796369 0.186319,-0.163963 0.35409,-0.206839 0.503792,-0.177192 z"
       id="path857-3-3"
       inkscape:connector-curvature="0" />
    <path
       style="color:#000000;font-style:normal;font-variant:normal;font-weight:normal;font-stretch:normal;font-size:medium;line-height:normal;font-family:sans-serif;font-variant-ligatures:normal;font-variant-position:normal;font-variant-caps:normal;font-variant-numeric:normal;font-variant-alternates:normal;font-feature-settings:normal;text-indent:0;text-align:start;text-decoration:none;text-decoration-line:none;text-decoration-style:solid;text-decoration-color:#000000;letter-spacing:normal;word-spacing:normal;text-transform:none;writing-mode:lr-tb;direction:ltr;text-orientation:mixed;dominant-baseline:auto;baseline-shift:baseline;text-anchor:start;white-space:normal;shape-padding:0;clip-rule:nonzero;display:inline;overflow:visible;visibility:visible;opacity:1;isolation:auto;mix-blend-mode:normal;color-interpolation:sRGB;color-interpolation-filters:linearRGB;solid-color:#000000;solid-opacity:1;vector-effect:none;fill:#b4b4b4;fill-opacity:1;fill-rule:nonzero;stroke:none;stroke-width:1.24347472;stroke-linecap:square;stroke-linejoin:round;stroke-miterlimit:4;stroke-dasharray:none;stroke-dashoffset:0;stroke-opacity:1;marker:none;color-rendering:auto;image-rendering:auto;shape-rendering:auto;text-rendering:auto;enable-background:accumulate"
       d="m 76.206271,32.365591 c -0.580024,-0.11488 -1.150765,0.09784 -1.5663,0.463513 -0.415534,0.365671 -0.708143,0.886338 -0.827476,1.488924 -0.119381,0.602577 -0.04746,1.196555 0.197344,1.692997 0.244807,0.496441 0.691612,0.909538 1.271639,1.024404 0.580025,0.114879 1.149472,-0.09698 1.565007,-0.462648 0.415535,-0.365671 0.708357,-0.887417 0.827691,-1.490003 0.11938,-0.602576 0.04725,-1.195477 -0.197557,-1.691917 -0.244806,-0.496443 -0.690319,-0.910404 -1.270348,-1.02527 z M 75.9646,33.585919 c 0.149716,0.0296 0.287391,0.133017 0.397159,0.355614 0.109768,0.222596 0.1625,0.549671 0.09316,0.899789 -0.06937,0.350112 -0.242959,0.633487 -0.429278,0.79745 -0.186321,0.163961 -0.353012,0.207052 -0.502714,0.177404 -0.149714,-0.0296 -0.288451,-0.133269 -0.398236,-0.355824 -0.109769,-0.2226 -0.162288,-0.550753 -0.09295,-0.90087 0.06936,-0.350113 0.242752,-0.632407 0.429068,-0.796368 0.18632,-0.163963 0.35409,-0.20684 0.503792,-0.177193 z"
       id="path857-3-6"
       inkscape:connector-curvature="0" />
    <path
       style="color:#000000;font-style:normal;font-variant:normal;font-weight:normal;font-stretch:normal;font-size:medium;line-height:normal;font-family:sans-serif;font-variant-ligatures:normal;font-variant-position:normal;font-variant-caps:normal;font-variant-numeric:normal;font-variant-alternates:normal;font-feature-settings:normal;text-indent:0;text-align:start;text-decoration:none;text-decoration-line:none;text-decoration-style:solid;text-decoration-color:#000000;letter-spacing:normal;word-spacing:normal;text-transform:none;writing-mode:lr-tb;direction:ltr;text-orientation:mixed;dominant-baseline:auto;baseline-shift:baseline;text-anchor:start;white-space:normal;shape-padding:0;clip-rule:nonzero;display:inline;overflow:visible;visibility:visible;opacity:1;isolation:auto;mix-blend-mode:normal;color-interpolation:sRGB;color-interpolation-filters:linearRGB;solid-color:#000000;solid-opacity:1;vector-effect:none;fill:#b4b4b4;fill-opacity:1;fill-rule:nonzero;stroke:none;stroke-width:1.24347472;stroke-linecap:square;stroke-linejoin:round;stroke-miterlimit:4;stroke-dasharray:none;stroke-dashoffset:0;stroke-opacity:1;marker:none;color-rendering:auto;image-rendering:auto;shape-rendering:auto;text-rendering:auto;enable-background:accumulate"
       d="m 73.287676,48.254118 c -0.580024,-0.114879 -1.150764,0.09784 -1.5663,0.463514 -0.415534,0.36567 -0.708142,0.886338 -0.827477,1.488924 -0.11938,0.602576 -0.04746,1.196556 0.197344,1.692997 0.244807,0.496442 0.691613,0.909537 1.271641,1.024404 0.580023,0.114879 1.149471,-0.09698 1.565006,-0.462648 0.415535,-0.365669 0.708358,-0.887417 0.82769,-1.490004 0.119381,-0.602575 0.04725,-1.195476 -0.197557,-1.691916 -0.244806,-0.496444 -0.690319,-0.910405 -1.270347,-1.025271 z m -0.241671,1.220329 c 0.149692,0.0297 0.287389,0.133017 0.397158,0.355613 0.109768,0.222596 0.1625,0.549671 0.09317,0.899789 -0.06937,0.350112 -0.242959,0.633488 -0.429279,0.797451 -0.186321,0.163961 -0.353012,0.207051 -0.502715,0.177405 -0.149691,-0.0297 -0.28845,-0.133269 -0.398235,-0.355826 -0.109769,-0.222598 -0.162287,-0.550752 -0.09295,-0.900869 0.06937,-0.350112 0.242752,-0.632407 0.42907,-0.796368 0.186319,-0.163963 0.354089,-0.206839 0.503791,-0.177192 z"
       id="path857-3-3-2"
       inkscape:connector-curvature="0" />
    <path
       style="color:#000000;font-style:normal;font-variant:normal;font-weight:normal;font-stretch:normal;font-size:medium;line-height:normal;font-family:sans-serif;font-variant-ligatures:normal;font-variant-position:normal;font-variant-caps:normal;font-variant-numeric:normal;font-variant-alternates:normal;font-feature-settings:normal;text-indent:0;text-align:start;text-decoration:none;text-decoration-line:none;text-decoration-style:solid;text-decoration-color:#000000;letter-spacing:normal;word-spacing:normal;text-transform:none;writing-mode:lr-tb;direction:ltr;text-orientation:mixed;dominant-baseline:auto;baseline-shift:baseline;text-anchor:start;white-space:normal;shape-padding:0;clip-rule:nonzero;display:inline;overflow:visible;visibility:visible;opacity:1;isolation:auto;mix-blend-mode:normal;color-interpolation:sRGB;color-interpolation-filters:linearRGB;solid-color:#000000;solid-opacity:1;vector-effect:none;fill:#b4b4b4;fill-opacity:1;fill-rule:nonzero;stroke:none;stroke-width:1.24347472;stroke-linecap:butt;stroke-linejoin:bevel;stroke-miterlimit:4;stroke-dasharray:none;stroke-dashoffset:0;stroke-opacity:1;color-rendering:auto;image-rendering:auto;shape-rendering:auto;text-rendering:auto;enable-background:accumulate"
       d="m 75.270857,37.466837 -1.554092,0.532088 0.401731,1.176187 0.548425,-0.187413 -0.41725,2.254155 -0.515957,-0.09545 -0.227429,1.222028 2.085195,0.387149 0.227428,-1.222028 -0.346135,-0.06404 0.61114,-3.301177 z"
       id="path859-5-3"
       inkscape:connector-curvature="0" />
  </g>
</svg>
