<?xml version="1.0" encoding="UTF-8" standalone="no"?>
<!--?xml version="1.0" encoding="UTF-8" standalone="no"?-->

<!-- Created with Inkscape (http://www.inkscape.org/) -->

<svg
   xmlns:dc="http://purl.org/dc/elements/1.1/"
   xmlns:cc="http://creativecommons.org/ns#"
   xmlns:rdf="http://www.w3.org/1999/02/22-rdf-syntax-ns#"
   xmlns:svg="http://www.w3.org/2000/svg"
   xmlns="http://www.w3.org/2000/svg"
   xmlns:sodipodi="http://sodipodi.sourceforge.net/DTD/sodipodi-0.dtd"
   xmlns:inkscape="http://www.inkscape.org/namespaces/inkscape"
   width="100%"
   height="100%"
   viewBox="0 0 90 90"
   id="svg2"
   version="1.1"
   inkscape:version="0.92.3 (2405546, 2018-03-11)"
   sodipodi:docname="magic-orb-left.svg"
   class="magic-left"
   data-z="1200"
   data-slots="left-weapon"
   data-tags="new+left-hand+weapon">
  <defs
     id="defs4" />
  <sodipodi:namedview
     id="base"
     pagecolor="#ffffff"
     bordercolor="#666666"
     borderopacity="1.0"
     inkscape:pageopacity="0.0"
     inkscape:pageshadow="2"
     inkscape:zoom="31.92962"
     inkscape:cx="10.892078"
     inkscape:cy="31.199799"
     inkscape:document-units="in"
     inkscape:current-layer="layer1"
     showgrid="false"
     units="in"
     inkscape:window-width="3773"
     inkscape:window-height="2105"
     inkscape:window-x="67"
     inkscape:window-y="27"
     inkscape:window-maximized="1">
    <inkscape:grid
       type="xygrid"
       id="grid2994"
       empspacing="5"
       visible="true"
       enabled="true"
       snapvisiblegridlinesonly="true"
       units="in"
       spacingx="1.344"
       spacingy="1.344"
       originx="0"
       originy="0" />
  </sodipodi:namedview>
  <metadata
     id="metadata7">
    <rdf:rdf>
      <cc:work
         rdf:about="">
        <dc:format>image/svg+xml</dc:format>
        <dc:type
           rdf:resource="http://purl.org/dc/dcmitype/StillImage" />
        <dc:title />
      </cc:work>
    </rdf:rdf>
    <rdf:RDF>
      <cc:Work
         rdf:about="">
        <dc:format>image/svg+xml</dc:format>
        <dc:type
           rdf:resource="http://purl.org/dc/dcmitype/StillImage" />
        <dc:title></dc:title>
      </cc:Work>
    </rdf:RDF>
  </metadata>
  <g
     inkscape:label="Body"
     inkscape:groupmode="layer"
     id="layer1"
     class="secondary"
     transform="translate(0,-962.35975)"
     style="display:inline">
    <path
       style="fill:#b4b4b4;fill-opacity:0.50196078;stroke:#000000;stroke-width:0;stroke-linecap:butt;stroke-linejoin:miter;stroke-miterlimit:4;stroke-dasharray:none;stroke-opacity:1"
       d="m 9.0306152,1022.1249 c 1.2056828,0.2926 -2.5159209,1.8019 -2.6854292,3.1784 -0.1973699,1.6027 0.693866,3.621 2.1355592,4.3483 1.8197558,0.9181 4.1136418,-1.8247 6.0161808,-1.0934 1.234522,0.4745 1.234658,2.5622 2.423596,3.1415 1.532905,0.747 3.457403,0.3631 5.115322,-0.035 1.866477,-0.4485 4.335785,-0.8415 5.148104,-2.5808 0.981571,-2.1017 -2.141231,-4.516 -1.601683,-6.7721 0.645544,-2.6981 5.991146,-3.6519 5.3726,-6.3563 -0.511292,-2.2356 -4.816042,-1.0395 -6.28387,-2.8017 -0.893181,-1.0723 -1.609947,-2.821 -0.985538,-4.0692 0.925204,-1.8493 5.480571,-0.3906 5.700507,-2.4467 0.236947,-2.2144 -3.243906,-3.5236 -5.443228,-3.8743 -2.38136,-0.3797 -4.59422,2.8396 -6.90619,2.1541 -0.989262,-0.2932 -0.951577,-2.2519 -1.974947,-2.3835 -1.888201,-0.243 -4.128571,1.4978 -4.638649,3.3319 -0.5543608,1.9921 3.311533,3.8222 2.446678,5.7005 -1.008544,2.1904 -5.8975785,-0.037 -6.906189,2.1541 -0.8648544,1.8782 3.8231912,5.3648 2.4466782,5.7005 -2.6952269,0.6573 -0.585184,2.4114 0.620498,2.704 z"
       id="path5956-0-3-4"
       inkscape:connector-curvature="0"
       sodipodi:nodetypes="saaaaaaaaaaaaaaaaass" />
  </g>
  <g
     inkscape:groupmode="layer"
     id="layer2"
     inkscape:label="Secondary"
     class="core"
     style="display:inline">
    <circle
       style="opacity:1;vector-effect:none;fill:#ffffff;fill-opacity:1;stroke:#000000;stroke-width:2.25;stroke-linecap:round;stroke-linejoin:bevel;stroke-miterlimit:4;stroke-dasharray:none;stroke-dashoffset:0;stroke-opacity:1"
       id="path838"
       cx="17.47303"
       cy="59.195202"
       r="7.0038409" />
  </g>
  <g
     inkscape:groupmode="layer"
     id="layer4"
     class="pupil"
     inkscape:label="Accent">
    <ellipse
       style="display:inline;opacity:1;vector-effect:none;fill:#b4b4b4;fill-opacity:1;stroke:none;stroke-width:0.70956028;stroke-linecap:round;stroke-linejoin:bevel;stroke-miterlimit:4;stroke-dasharray:none;stroke-dashoffset:0;stroke-opacity:1"
       id="path838-0"
       cx="17.47303"
       cy="59.195202"
       rx="0.82679963"
       ry="5.9004588" />
  </g>
</svg>
