<!--?xml version="1.0" encoding="UTF-8" standalone="no"?--><!--?xml version="1.0" encoding="UTF-8" standalone="no"?--><!-- Created with Inkscape (http://www.inkscape.org/) --><svg xmlns:dc="http://purl.org/dc/elements/1.1/" xmlns:cc="http://creativecommons.org/ns#" xmlns:rdf="http://www.w3.org/1999/02/22-rdf-syntax-ns#" xmlns:svg="http://www.w3.org/2000/svg" xmlns="http://www.w3.org/2000/svg" xmlns:sodipodi="http://sodipodi.sourceforge.net/DTD/sodipodi-0.dtd" xmlns:inkscape="http://www.inkscape.org/namespaces/inkscape" width="100%" height="100%" viewBox="0 0 90 90" id="svg2" version="1.1" inkscape:version="0.92.3 (2405546, 2018-03-11)" sodipodi:docname="nerd-glasses.svg" class="nerd-glasses" data-z="1100" data-slots="glasses" data-tags="">
  <defs id="defs4"/>
  <sodipodi:namedview id="base" pagecolor="#ffffff" bordercolor="#666666" borderopacity="1.0" inkscape:pageopacity="0.0" inkscape:pageshadow="2" inkscape:zoom="18.711111" inkscape:cx="28.573819" inkscape:cy="37.951479" inkscape:document-units="in" inkscape:current-layer="layer2" showgrid="true" units="in" inkscape:window-width="3773" inkscape:window-height="2105" inkscape:window-x="67" inkscape:window-y="27" inkscape:window-maximized="1"/>
  <metadata id="metadata7">
    <rdf:rdf>
      <cc:work rdf:about="">
        <dc:format>image/svg+xml</dc:format>
        <dc:type rdf:resource="http://purl.org/dc/dcmitype/StillImage"/>
        <dc:title>Flower Girl Hair</dc:title>
      </cc:work>
    </rdf:rdf>
    <rdf:rdf>
      <cc:work rdf:about="">
        <dc:format>image/svg+xml</dc:format>
        <dc:type rdf:resource="http://purl.org/dc/dcmitype/StillImage"/>
        <dc:title>Flower Girl Hair</dc:title>
      </cc:work>
    </rdf:rdf>
  </metadata>
  <title id="title4043">Flower Girl Hair</title>
  <g inkscape:groupmode="layer" id="layer1" class="frames" inkscape:label="frames">
    <path style="fill:none;fill-opacity:1;stroke:#000000;stroke-width:3.84;stroke-linecap:butt;stroke-linejoin:miter;stroke-miterlimit:4;stroke-dasharray:none;stroke-opacity:1" d="m 40.32,37.6 c 0,0 2.115445,-1.26 5.04,-1.26 2.924557,0 5.04,1.26 5.04,1.26" id="path4592-1-5" inkscape:connector-curvature="0" sodipodi:nodetypes="czc"/>
    <ellipse style="color:#000000;display:inline;overflow:visible;visibility:visible;fill:#ffffff;fill-opacity:1;fill-rule:nonzero;stroke:#000000;stroke-width:2.20799994;stroke-miterlimit:4;stroke-dasharray:none;stroke-opacity:1;marker:none;enable-background:accumulate" id="path4572-0-6-3" cx="31.922562" cy="37.35796" rx="8.6132717" ry="8.6573505"/>
    <ellipse style="color:#000000;display:inline;overflow:visible;visibility:visible;fill:#ffffff;fill-opacity:1;fill-rule:nonzero;stroke:#000000;stroke-width:2.20799994;stroke-miterlimit:4;stroke-dasharray:none;stroke-opacity:1;marker:none;enable-background:accumulate" id="path4572-0-6" cx="58.037766" cy="37.35796" rx="8.6132717" ry="8.6573505"/>
  </g>
  <g inkscape:groupmode="layer" id="layer2" class="lensflare" inkscape:label="lensflare">
    <path style="color:#000000;font-style:normal;font-variant:normal;font-weight:normal;font-stretch:normal;font-size:medium;line-height:normal;font-family:sans-serif;font-variant-ligatures:normal;font-variant-position:normal;font-variant-caps:normal;font-variant-numeric:normal;font-variant-alternates:normal;font-feature-settings:normal;text-indent:0;text-align:start;text-decoration:none;text-decoration-line:none;text-decoration-style:solid;text-decoration-color:#000000;letter-spacing:normal;word-spacing:normal;text-transform:none;writing-mode:lr-tb;direction:ltr;text-orientation:mixed;dominant-baseline:auto;baseline-shift:baseline;text-anchor:start;white-space:normal;shape-padding:0;clip-rule:nonzero;display:inline;overflow:visible;visibility:visible;opacity:1;isolation:auto;mix-blend-mode:normal;color-interpolation:sRGB;color-interpolation-filters:linearRGB;solid-color:#000000;solid-opacity:1;vector-effect:none;fill:#b4b4b4;fill-opacity:1;fill-rule:evenodd;stroke:none;stroke-width:2.20799994;stroke-linecap:round;stroke-linejoin:miter;stroke-miterlimit:4;stroke-dasharray:none;stroke-dashoffset:0;stroke-opacity:1;color-rendering:auto;image-rendering:auto;shape-rendering:auto;text-rendering:auto;enable-background:accumulate" d="m 33.220703,30.269531 c -0.290209,-0.0094 -0.581148,-0.0028 -0.871094,0.01953 -3.988643,0.306546 -7.327164,3.757928 -6.982421,7.892579 0.288239,3.456995 3.291866,6.350234 6.890624,6.023437 2.979022,-0.27052 5.46986,-2.874766 5.160157,-5.992187 -0.253579,-2.552485 -2.497014,-4.686327 -5.185547,-4.392579 -2.175065,0.237647 -3.994141,2.166622 -3.714844,4.476563 0.223002,1.844347 1.874067,3.385972 3.853516,3.119141 1.557797,-0.209993 2.862475,-1.621594 2.605468,-3.316407 a 1.1042,1.1042 0 1 0 -2.183593,0.330079 c 0.05461,0.360089 -0.296274,0.742141 -0.716797,0.798828 -0.653891,0.08815 -1.28266,-0.498179 -1.367188,-1.197266 -0.119959,-0.99213 0.738659,-1.903846 1.761719,-2.015625 1.377343,-0.150488 2.611441,1.021304 2.75,2.416016 0.18001,1.811947 -1.345846,3.409286 -3.162109,3.574218 -2.298266,0.208702 -4.30126,-1.717924 -4.492188,-4.007812 -0.236673,-2.838533 2.135415,-5.291259 4.953125,-5.507813 0.209356,-0.01609 0.420561,-0.02049 0.63086,-0.01367 a 1.1041104,1.1041104 0 1 0 0.07031,-2.207031 z" id="path882" inkscape:connector-curvature="0"/>
    <path style="color:#000000;font-style:normal;font-variant:normal;font-weight:normal;font-stretch:normal;font-size:medium;line-height:normal;font-family:sans-serif;font-variant-ligatures:normal;font-variant-position:normal;font-variant-caps:normal;font-variant-numeric:normal;font-variant-alternates:normal;font-feature-settings:normal;text-indent:0;text-align:start;text-decoration:none;text-decoration-line:none;text-decoration-style:solid;text-decoration-color:#000000;letter-spacing:normal;word-spacing:normal;text-transform:none;writing-mode:lr-tb;direction:ltr;text-orientation:mixed;dominant-baseline:auto;baseline-shift:baseline;text-anchor:start;white-space:normal;shape-padding:0;clip-rule:nonzero;display:inline;overflow:visible;visibility:visible;opacity:1;isolation:auto;mix-blend-mode:normal;color-interpolation:sRGB;color-interpolation-filters:linearRGB;solid-color:#000000;solid-opacity:1;vector-effect:none;fill:#b4b4b4;fill-opacity:1;fill-rule:evenodd;stroke:none;stroke-width:2.20799994;stroke-linecap:round;stroke-linejoin:miter;stroke-miterlimit:4;stroke-dasharray:none;stroke-dashoffset:0;stroke-opacity:1;color-rendering:auto;image-rendering:auto;shape-rendering:auto;text-rendering:auto;enable-background:accumulate" d="m 59.449219,30.269531 c -0.290209,-0.0094 -0.581148,-0.0028 -0.871094,0.01953 -3.988643,0.306546 -7.329117,3.757928 -6.984375,7.892579 0.28824,3.456995 3.291866,6.350234 6.890625,6.023437 2.979022,-0.27052 5.471813,-2.874766 5.162109,-5.992187 -0.253579,-2.552485 -2.498967,-4.686327 -5.1875,-4.392579 -2.175065,0.237647 -3.994141,2.166622 -3.714843,4.476563 0.223002,1.844347 1.874066,3.385972 3.853515,3.119141 1.557798,-0.209993 2.862476,-1.621594 2.605469,-3.316407 a 1.1042005,1.1042005 0 1 0 -2.183594,0.330079 c 0.05461,0.360089 -0.296273,0.742141 -0.716797,0.798828 -0.653891,0.08815 -1.28266,-0.498179 -1.367187,-1.197266 -0.11996,-0.99213 0.740612,-1.903846 1.763672,-2.015625 1.377342,-0.150488 2.611441,1.021304 2.75,2.416016 0.18001,1.811947 -1.347799,3.409286 -3.164063,3.574218 -2.298265,0.208702 -4.301259,-1.717924 -4.492187,-4.007812 -0.236674,-2.838533 2.135415,-5.291259 4.953125,-5.507813 0.209355,-0.01609 0.420561,-0.02049 0.630859,-0.01367 a 1.1041104,1.1041104 0 1 0 0.07227,-2.207031 z" id="path882-5" inkscape:connector-curvature="0"/>
  </g>
</svg>
