<?xml version="1.0" encoding="UTF-8" standalone="no"?>
<!--?xml version="1.0" encoding="UTF-8" standalone="no"?-->

<!--?xml version="1.0" encoding="UTF-8" standalone="no"?-->

<!-- Created with Inkscape (http://www.inkscape.org/) -->

<svg
   xmlns:dc="http://purl.org/dc/elements/1.1/"
   xmlns:cc="http://creativecommons.org/ns#"
   xmlns:rdf="http://www.w3.org/1999/02/22-rdf-syntax-ns#"
   xmlns:svg="http://www.w3.org/2000/svg"
   xmlns="http://www.w3.org/2000/svg"
   xmlns:sodipodi="http://sodipodi.sourceforge.net/DTD/sodipodi-0.dtd"
   xmlns:inkscape="http://www.inkscape.org/namespaces/inkscape"
   width="100%"
   height="100%"
   viewBox="0 0 90 90"
   id="svg2"
   version="1.1"
   inkscape:version="0.92.3 (2405546, 2018-03-11)"
   sodipodi:docname="nerd-glasses-3.svg"
   class="nerd-glasses-s"
   data-z="1100"
   data-slots="glasses"
   data-tags="new">
  <defs
     id="defs4" />
  <sodipodi:namedview
     id="base"
     pagecolor="#ffffff"
     bordercolor="#666666"
     borderopacity="1.0"
     inkscape:pageopacity="0.0"
     inkscape:pageshadow="2"
     inkscape:zoom="18.711112"
     inkscape:cx="43.395741"
     inkscape:cy="47.178816"
     inkscape:document-units="in"
     inkscape:current-layer="layer2"
     showgrid="true"
     units="in"
     inkscape:window-width="2560"
     inkscape:window-height="1412"
     inkscape:window-x="2560"
     inkscape:window-y="0"
     inkscape:window-maximized="1" />
  <metadata
     id="metadata7">
    <rdf:rdf>
      <cc:work
         rdf:about="">
        <dc:format>image/svg+xml</dc:format>
        <dc:type
           rdf:resource="http://purl.org/dc/dcmitype/StillImage" />
        <dc:title>Flower Girl Hair</dc:title>
      </cc:work>
    </rdf:rdf>
    <rdf:rdf>
      <cc:work
         rdf:about="">
        <dc:format>image/svg+xml</dc:format>
        <dc:type
           rdf:resource="http://purl.org/dc/dcmitype/StillImage" />
        <dc:title>Flower Girl Hair</dc:title>
      </cc:work>
    </rdf:rdf>
    <rdf:RDF>
      <cc:Work
         rdf:about="">
        <dc:format>image/svg+xml</dc:format>
        <dc:type
           rdf:resource="http://purl.org/dc/dcmitype/StillImage" />
        <dc:title>Flower Girl Hair</dc:title>
      </cc:Work>
    </rdf:RDF>
  </metadata>
  <title
     id="title4043">Flower Girl Hair</title>
  <g
     inkscape:groupmode="layer"
     id="layer1"
     class="frames"
     inkscape:label="frames">
    <path
       style="fill:none;fill-opacity:1;stroke:#000000;stroke-width:3.84;stroke-linecap:butt;stroke-linejoin:miter;stroke-miterlimit:4;stroke-dasharray:none;stroke-opacity:1"
       d="m 40.32,37.6 c 0,0 2.115445,-1.26 5.04,-1.26 2.924557,0 5.04,1.26 5.04,1.26"
       id="path4592-1-5"
       inkscape:connector-curvature="0"
       sodipodi:nodetypes="czc" />
    <ellipse
       style="color:#000000;display:inline;overflow:visible;visibility:visible;fill:#ffffff;fill-opacity:1;fill-rule:nonzero;stroke:#000000;stroke-width:2.20799994;stroke-miterlimit:4;stroke-dasharray:none;stroke-opacity:1;marker:none;enable-background:accumulate"
       id="path4572-0-6-3"
       cx="31.922562"
       cy="37.35796"
       rx="8.6132717"
       ry="8.6573505" />
    <path
       style="color:#000000;display:inline;overflow:visible;visibility:visible;fill:#ffffff;fill-opacity:1;fill-rule:nonzero;stroke:#000000;stroke-width:2.208;stroke-miterlimit:4;stroke-dasharray:none;stroke-opacity:1;marker:none;enable-background:accumulate"
       d="m 66.651037,37.35796 a 8.6132717,8.6573505 0 0 1 -8.613271,8.65735 8.6132717,8.6573505 0 0 1 -8.613272,-8.65735 8.6132717,8.6573505 0 0 1 8.613272,-8.657351 8.6132717,8.6573505 0 0 1 8.613271,8.657351 z"
       id="path4572-0-6" />
  </g>
  <g
     inkscape:groupmode="layer"
     id="layer2"
     class="lensflare"
     inkscape:label="lensflare">
    <path
       inkscape:connector-curvature="0"
       style="color:#000000;font-style:normal;font-variant:normal;font-weight:normal;font-stretch:normal;font-size:medium;line-height:normal;font-family:sans-serif;font-variant-ligatures:normal;font-variant-position:normal;font-variant-caps:normal;font-variant-numeric:normal;font-variant-alternates:normal;font-feature-settings:normal;text-indent:0;text-align:start;text-decoration:none;text-decoration-line:none;text-decoration-style:solid;text-decoration-color:#000000;letter-spacing:normal;word-spacing:normal;text-transform:none;writing-mode:lr-tb;direction:ltr;text-orientation:mixed;dominant-baseline:auto;baseline-shift:baseline;text-anchor:start;white-space:normal;shape-padding:0;clip-rule:nonzero;display:inline;overflow:visible;visibility:visible;opacity:1;isolation:auto;mix-blend-mode:normal;color-interpolation:sRGB;color-interpolation-filters:linearRGB;solid-color:#000000;solid-opacity:1;vector-effect:none;fill:#b4b4b4;fill-opacity:1;fill-rule:nonzero;stroke:none;stroke-width:2.20799994;stroke-linecap:butt;stroke-linejoin:miter;stroke-miterlimit:4;stroke-dasharray:none;stroke-dashoffset:0;stroke-opacity:1;marker:none;color-rendering:auto;image-rendering:auto;shape-rendering:auto;text-rendering:auto;enable-background:accumulate"
       d="m 56.193359,31.138672 -1.152343,0.474609 0.236328,0.578125 0.501953,1.21875 c -1.365999,0.793912 -2.300781,2.261553 -2.300781,3.947266 0,0.893644 0.264435,1.725358 0.71289,2.429687 l -0.345703,0.304688 -0.466797,0.414062 0.826172,0.935547 0.466797,-0.414062 0.335937,-0.296875 c 0.746682,0.670138 1.702609,1.11245 2.763672,1.175781 l -0.474609,-2.308594 c -0.230708,-0.0761 -0.444241,-0.1876 -0.636719,-0.326172 L 57.107422,38.875 57.574219,38.460938 56.748047,37.525391 56.28125,37.939453 55.882812,38.291016 C 55.761311,38.005427 55.6875,37.692622 55.6875,37.357422 c 0,-0.783794 0.370335,-1.461834 0.939453,-1.890625 l 0.238281,0.578125 0.236328,0.578125 1.154297,-0.474609 -0.236328,-0.578126 -0.228515,-0.55664 c 0.08199,-0.0085 0.161671,-0.02344 0.246093,-0.02344 0.332745,1e-6 0.647938,0.069 0.933594,0.191407 l 1.8125,-1.449219 c -0.766797,-0.588316 -1.712438,-0.951172 -2.746094,-0.951172 -0.3823,0 -0.748095,0.0621 -1.103515,0.152344 l -0.501953,-1.216797 z m 5.972657,4.314453 -1.820313,1.457031 c 0.0254,0.137131 0.03943,0.278849 0.04102,0.423828 l -0.351563,-0.115234 -0.591797,-0.195312 -0.388671,1.185546 0.59375,0.195313 0.412109,0.134765 c -0.153633,0.264547 -0.346372,0.503216 -0.585938,0.689454 L 59.941406,41.5 c 0.989571,-0.463082 1.789811,-1.270966 2.244141,-2.265625 l 0.636719,0.208984 0.591796,0.19336 0.388672,-1.185547 -0.591796,-0.19336 -0.667969,-0.21875 c 0.03376,-0.22234 0.05273,-0.450197 0.05273,-0.68164 0,-0.680055 -0.16056,-1.321863 -0.429687,-1.904297 z"
       id="path4572-0-6-36" />
  </g>
</svg>
