<?xml version="1.0" encoding="UTF-8" standalone="no"?>
<!--?xml version="1.0" encoding="UTF-8" standalone="no"?-->

<!-- Created with Inkscape (http://www.inkscape.org/) -->

<svg
   xmlns:dc="http://purl.org/dc/elements/1.1/"
   xmlns:cc="http://creativecommons.org/ns#"
   xmlns:rdf="http://www.w3.org/1999/02/22-rdf-syntax-ns#"
   xmlns:svg="http://www.w3.org/2000/svg"
   xmlns="http://www.w3.org/2000/svg"
   xmlns:sodipodi="http://sodipodi.sourceforge.net/DTD/sodipodi-0.dtd"
   xmlns:inkscape="http://www.inkscape.org/namespaces/inkscape"
   width="100%"
   height="100%"
   viewBox="0 0 90 90"
   id="svg2"
   version="1.1"
   inkscape:version="0.92.3 (2405546, 2018-03-11)"
   sodipodi:docname="officer-uniform.svg"
   class="suspenders"
   data-z="500"
   data-slots="clothing"
   data-tags="new+clothing">
  <defs
     id="defs4" />
  <sodipodi:namedview
     id="base"
     pagecolor="#ffffff"
     bordercolor="#666666"
     borderopacity="1.0"
     inkscape:pageopacity="0.0"
     inkscape:pageshadow="2"
     inkscape:zoom="22.577651"
     inkscape:cx="62.737928"
     inkscape:cy="31.331829"
     inkscape:document-units="in"
     inkscape:current-layer="layer2"
     showgrid="true"
     units="in"
     inkscape:window-width="3773"
     inkscape:window-height="2105"
     inkscape:window-x="67"
     inkscape:window-y="27"
     inkscape:window-maximized="1" />
  <metadata
     id="metadata7">
    <rdf:rdf>
      <cc:work
         rdf:about="">
        <dc:format>image/svg+xml</dc:format>
        <dc:type
           rdf:resource="http://purl.org/dc/dcmitype/StillImage" />
        <dc:title />
      </cc:work>
    </rdf:rdf>
    <rdf:RDF>
      <cc:Work
         rdf:about="">
        <dc:format>image/svg+xml</dc:format>
        <dc:type
           rdf:resource="http://purl.org/dc/dcmitype/StillImage" />
        <dc:title></dc:title>
      </cc:Work>
    </rdf:RDF>
  </metadata>
  <g
     inkscape:label="Body"
     inkscape:groupmode="layer"
     id="layer1"
     class="shirt"
     transform="translate(0,-962.35975)"
     style="display:inline"
     sodipodi:insensitive="true">
    <path
       style="display:inline;fill:#ffffff;fill-opacity:1;stroke:#000000;stroke-width:2.20799994;stroke-linecap:round;stroke-linejoin:round;stroke-miterlimit:4;stroke-dasharray:none;stroke-dashoffset:0;stroke-opacity:1"
       d="m 9.18,1011.1409 c 1.88688,18.1081 17.2051,32.2189 35.8125,32.2189 18.33498,0 33.47434,-13.7119 35.71875,-31.4375 -7.05244,2.6459 -19.97089,4.4375 -34.8125,4.4375 -16.28176,0 -30.28526,-2.1398 -36.71875,-5.2188 z"
       id="path3829-1-5-74-4-9-0-7-87-0"
       inkscape:connector-curvature="0"
       sodipodi:nodetypes="cscsc" />
  </g>
  <g
     inkscape:groupmode="layer"
     id="layer3"
     inkscape:label="Tie"
     class="tie">
    <path
       style="display:inline;fill:#b4b4b4;fill-opacity:1;stroke:#000000;stroke-width:2.25;stroke-linecap:butt;stroke-linejoin:miter;stroke-miterlimit:4;stroke-dasharray:none;stroke-opacity:1"
       d="m 45.36,57.24005 h -2.427025 l -1.618016,13.9073 4.045041,6.9537 4.04504,-6.9537 -1.618016,-13.9073 z"
       id="path3922"
       inkscape:connector-curvature="0" />
    <path
       style="display:inline;fill:#b4b4b4;fill-opacity:1;stroke:#000000;stroke-width:2.25;stroke-linecap:butt;stroke-linejoin:miter;stroke-miterlimit:4;stroke-dasharray:none;stroke-opacity:1"
       d="m 41.39866,54.304874 c -0.06399,1.2495 -0.04441,2.5875 0.295068,3.3438 0.759556,1.692 3.677004,2.5 3.677004,2.5 0,0 2.89475,-0.808 3.654306,-2.5 0.339569,-0.7565 0.35913,-2.094 0.295068,-3.3438 -1.169741,0.044 -2.354599,0.094 -3.563516,0.094 -1.478224,0 -2.938923,-0.029 -4.35793,-0.094 z"
       id="path3920"
       inkscape:connector-curvature="0" />
  </g>
  <g
     inkscape:groupmode="layer"
     id="layer4"
     class="jacket"
     inkscape:label="jacket"
     style="display:inline">
    <path
       style="fill:#ffffff;stroke:#000000;stroke-width:2.208;stroke-linecap:butt;stroke-linejoin:miter;stroke-opacity:1;stroke-miterlimit:4;stroke-dasharray:none;fill-opacity:1"
       d="M 9.1796875 48.78125 C 11.066567 66.88935 26.384788 81 44.992188 81 C 63.327168 81 78.466527 67.2881 80.710938 49.5625 C 75.153495 51.647514 65.926978 53.186584 55.013672 53.751953 L 45.630859 70.814453 L 33.382812 53.548828 C 22.655522 52.770896 13.882961 51.032187 9.1796875 48.78125 z "
       id="path840" />
    <path
       style="display:inline;fill:#ffffff;fill-opacity:1;stroke:#000000;stroke-width:2.20799994;stroke-linecap:butt;stroke-linejoin:bevel;stroke-miterlimit:4;stroke-dasharray:none;stroke-opacity:1"
       d="m 30.144531,53.271484 -0.24414,1.167969 c 0.818021,3.962551 1.163793,7.827557 3.378906,11.111328 l 3.947265,0.496094 -1.595703,3.388672 c 3.655288,6.103777 5.939911,8.30722 10.796408,10.190153 1.516063,-0.101257 -0.159043,-4.875138 1.299949,-5.158397 L 45.039062,70.115234 40.154297,63.09375 33.679688,53.966797 33.029297,53.517578 c -0.980764,-0.0734 -1.938989,-0.156932 -2.884766,-0.246094 z"
       id="path870-6"
       inkscape:connector-curvature="0"
       sodipodi:nodetypes="cccccccccccc" />
    <path
       style="fill:#ffffff;stroke:#000000;stroke-width:2.20799994;stroke-linecap:butt;stroke-linejoin:bevel;stroke-miterlimit:4;stroke-dasharray:none;stroke-opacity:1;fill-opacity:1"
       d="M 58.996094 53.498047 C 57.697026 53.597432 56.368528 53.681764 55.013672 53.751953 L 45.630859 70.814453 L 40.412109 80.703125 C 41.91284 80.893687 43.439779 81 44.992188 81 C 45.268527 81 45.541552 80.986665 45.816406 80.980469 C 49.639348 78.566705 52.239587 74.913445 54.914062 69.150391 L 52.972656 65.949219 L 56.845703 65.041016 C 58.704162 61.543016 58.64314 57.663214 59.041016 53.636719 L 58.996094 53.498047 z "
       id="path870" />
  </g>
  <g
     inkscape:groupmode="layer"
     id="layer2"
     inkscape:label="pockets"
     class="pockets">
    <path
       style="display:inline;fill:#b4b4b4;stroke:#000000;stroke-width:2.208;stroke-linecap:butt;stroke-linejoin:miter;stroke-miterlimit:4;stroke-dasharray:none;stroke-opacity:1;fill-opacity:1"
       d="m 61.440578,62.222859 c -1.108662,4.196133 -3.874007,8.833946 -3.448883,9.98882 0.425125,1.154876 6.149665,0.481271 6.85017,-0.08915 0.700506,-0.570419 3.69157,-8.438945 3.925481,-9.940038 0.23391,-1.501092 -2.095377,-1.183828 -3.865125,-1.266184 -1.769749,-0.08235 -3.136893,0.426004 -3.461643,1.30655 z"
       id="path931"
       inkscape:connector-curvature="0" />
    <path
       style="display:inline;fill:none;stroke:#000000;stroke-width:1.15199995;stroke-linecap:butt;stroke-linejoin:bevel;stroke-miterlimit:4;stroke-dasharray:none;stroke-opacity:1"
       d="m 61.587452,63.735089 2.303163,2.037413 4.384867,-1.793809"
       id="path933"
       inkscape:connector-curvature="0" />
    <path
       style="display:inline;fill:none;stroke:#000000;stroke-width:1.15199995;stroke-linecap:round;stroke-linejoin:miter;stroke-miterlimit:4;stroke-dasharray:none;stroke-opacity:1"
       d="m 63.890615,65.772502 -2.916587,6.8267"
       id="path935"
       inkscape:connector-curvature="0" />
    <path
       style="display:inline;fill:#b4b4b4;stroke:#000000;stroke-width:2.208;stroke-linecap:butt;stroke-linejoin:miter;stroke-miterlimit:4;stroke-dasharray:none;stroke-opacity:1;fill-opacity:1"
       d="m 28.134043,62.123761 c 1.341408,4.127625 4.361593,8.603664 4.001667,9.780489 -0.359927,1.176828 -6.113163,0.824161 -6.844448,0.293776 -0.731287,-0.530384 -4.157369,-8.219475 -4.474795,-9.705152 -0.317425,-1.485676 2.025951,-1.299067 3.788332,-1.480188 1.762382,-0.181114 3.155796,0.25005 3.529244,1.111073 z"
       id="path931-3"
       inkscape:connector-curvature="0" />
    <path
       style="display:inline;fill:none;stroke:#000000;stroke-width:1.15199995;stroke-linecap:butt;stroke-linejoin:bevel;stroke-miterlimit:4;stroke-dasharray:none;stroke-opacity:1"
       d="m 28.071901,63.641835 -2.185714,2.16293 -4.478253,-1.545981"
       id="path933-5"
       inkscape:connector-curvature="0" />
    <path
       style="display:inline;fill:none;stroke:#000000;stroke-width:1.15199995;stroke-linecap:round;stroke-linejoin:miter;stroke-miterlimit:4;stroke-dasharray:none;stroke-opacity:1"
       d="m 25.886187,65.804765 3.293504,6.653055"
       id="path935-6"
       inkscape:connector-curvature="0" />
  </g>
</svg>
