<?xml version="1.0" encoding="UTF-8" standalone="no"?>
<!--?xml version="1.0" encoding="UTF-8" standalone="no"?-->

<svg
   xmlns:dc="http://purl.org/dc/elements/1.1/"
   xmlns:cc="http://creativecommons.org/ns#"
   xmlns:rdf="http://www.w3.org/1999/02/22-rdf-syntax-ns#"
   xmlns:svg="http://www.w3.org/2000/svg"
   xmlns="http://www.w3.org/2000/svg"
   xmlns:sodipodi="http://sodipodi.sourceforge.net/DTD/sodipodi-0.dtd"
   xmlns:inkscape="http://www.inkscape.org/namespaces/inkscape"
   viewBox="0 0 90 90"
   class="bird-big-beak"
   width="100%"
   height="100%"
   id="svg3336"
   data-z="860"
   data-slots="face"
   data-tags="new+animals+face"
   version="1.1"
   inkscape:version="0.92.3 (2405546, 2018-03-11)"
   sodipodi:docname="old-one-face.svg">
  <defs
     id="defs3348" />
  <sodipodi:namedview
     pagecolor="#ffffff"
     bordercolor="#666666"
     borderopacity="1"
     objecttolerance="10"
     gridtolerance="10"
     guidetolerance="10"
     inkscape:pageopacity="0"
     inkscape:pageshadow="2"
     inkscape:window-width="3773"
     inkscape:window-height="2105"
     id="namedview3346"
     showgrid="false"
     inkscape:zoom="20.422222"
     inkscape:cx="20.160405"
     inkscape:cy="45.876963"
     inkscape:window-x="67"
     inkscape:window-y="27"
     inkscape:window-maximized="1"
     inkscape:current-layer="layer1" />
  <metadata
     title="Basic Body"
     contributor="Douglas Richardson"
     id="metadata3338">
    <layers>
      <layer
         name="Primary"
         data-layer="layer1" />
    </layers>
    <rdf:rdf>
      <cc:work
         rdf:about="">
        <dc:format>image/svg+xml</dc:format>
        <dc:type
           rdf:resource="http://purl.org/dc/dcmitype/StillImage" />
        <dc:title>Basic Body</dc:title>
      </cc:work>
    </rdf:rdf>
    <rdf:RDF>
      <cc:Work
         rdf:about="">
        <dc:format>image/svg+xml</dc:format>
        <dc:type
           rdf:resource="http://purl.org/dc/dcmitype/StillImage" />
        <dc:title>Basic Body</dc:title>
      </cc:Work>
    </rdf:RDF>
  </metadata>
  <title
     id="title3344">Basic Body</title>
  <g
     inkscape:groupmode="layer"
     id="layer1"
     inkscape:label="chin"
     class="chin">
    <path
       style="opacity:1;vector-effect:none;fill:#ffffff;fill-opacity:1;stroke:#000000;stroke-width:2.25;stroke-linecap:square;stroke-linejoin:bevel;stroke-miterlimit:4;stroke-dasharray:none;stroke-dashoffset:0;stroke-opacity:1"
       d="m 34.510466,42.609869 c -0.05874,6.080655 -3.584152,8.074054 -4.465544,14.880365 C 29.163529,64.296545 34.5,67.773437 34.5,67.773438 c 0,0 -2.505089,-3.33844 -0.0078,-7.990235 1.949398,-3.631233 4.904514,-4.024991 6.087891,-7.580078 1.33225,0.588095 2.772238,0.89272 4.228515,0.894531 1.408646,-0.0036 2.802171,-0.290566 4.097657,-0.84375 1.194558,3.508175 4.130217,3.915365 6.070312,7.529297 2.497299,4.651795 -0.0078,7.990235 -0.0078,7.990235 0,-10e-7 5.336471,-3.476893 4.455078,-10.283204 -0.805167,-6.217567 -3.806204,-8.429438 -3.960112,-14.562845"
       id="path817"
       inkscape:connector-curvature="0"
       sodipodi:nodetypes="cscscccccsc" />
    <path
       style="fill:#ffffff;fill-opacity:1;stroke:#000000;stroke-width:2.25;stroke-linecap:butt;stroke-linejoin:bevel;stroke-miterlimit:4;stroke-dasharray:none;stroke-opacity:1"
       d="m 50.414581,45.15778 c 0.04897,6.463547 2.250533,10.392399 1.95865,15.465723 -0.309849,5.385613 -2.113166,8.618064 -2.113166,8.618064 0,0 -0.384113,-4.0642 -1.853101,-8.030468 -1.468988,-3.966268 -3.966268,-4.316649 -3.67247,-9.94777 0.293798,5.631121 -2.203482,5.981502 -3.67247,9.94777 -1.468988,3.966268 -1.853101,8.030468 -1.853101,8.030468 0,0 -1.803318,-3.232451 -2.113167,-8.618064 -0.291882,-5.073324 1.909685,-9.002176 1.958651,-15.465723"
       id="path821-6"
       inkscape:connector-curvature="0"
       sodipodi:nodetypes="cscscscsc" />
  </g>
</svg>
