<?xml version="1.0" encoding="UTF-8" standalone="no"?>
<!--?xml version="1.0" encoding="UTF-8" standalone="no"?-->

<svg
   xmlns:dc="http://purl.org/dc/elements/1.1/"
   xmlns:cc="http://creativecommons.org/ns#"
   xmlns:rdf="http://www.w3.org/1999/02/22-rdf-syntax-ns#"
   xmlns:svg="http://www.w3.org/2000/svg"
   xmlns="http://www.w3.org/2000/svg"
   xmlns:sodipodi="http://sodipodi.sourceforge.net/DTD/sodipodi-0.dtd"
   xmlns:inkscape="http://www.inkscape.org/namespaces/inkscape"
   viewBox="0 0 90 90"
   class="maw"
   version="1.1"
   id="svg819"
   data-z="500"
   data-slots="clothing"
   data-tags="armor+fantasy+clothing+animals+new"
   sodipodi:docname="oversized-mouth.svg"
   inkscape:version="0.92.3 (2405546, 2018-03-11)">
  <metadata
     id="metadata822" />
  <metadata1
     id="metadata825">
    <rdf:RDF>
      <cc:Work
         rdf:about="">
        <dc:format>image/svg+xml</dc:format>
        <dc:type
           rdf:resource="http://purl.org/dc/dcmitype/StillImage" />
        <dc:title />
      </cc:Work>
    </rdf:RDF>
  </metadata1>
  <defs
     id="defs823" />
  <sodipodi:namedview
     pagecolor="#ffffff"
     bordercolor="#666666"
     borderopacity="1"
     objecttolerance="10"
     gridtolerance="10"
     guidetolerance="10"
     inkscape:pageopacity="0"
     inkscape:pageshadow="2"
     inkscape:window-width="3773"
     inkscape:window-height="2105"
     id="namedview821"
     showgrid="false"
     inkscape:zoom="32"
     inkscape:cx="39.084872"
     inkscape:cy="26.021536"
     inkscape:window-x="67"
     inkscape:window-y="27"
     inkscape:window-maximized="1"
     inkscape:current-layer="layer1" />
  <g
     inkscape:groupmode="layer"
     id="layer1"
     class="maw"
     inkscape:label="maw"
     style="display:inline">
    <path
       inkscape:connector-curvature="0"
       style="display:inline;fill:#b4b4b4;fill-opacity:1;stroke:#000000;stroke-width:2.25;stroke-miterlimit:4;stroke-dasharray:none;stroke-dashoffset:0;stroke-opacity:1"
       d="M 75.531251,46.07422 A 48.063103,48.063103 0 0 1 45.000001,57.062501 48.063103,48.063103 0 0 1 14.453126,46.076173 30.584811,30.584811 0 0 0 45.000001,75.583985 30.584811,30.584811 0 0 0 75.531251,46.07422 Z"
       id="circle815-6-9-2" />
  </g>
  <g
     inkscape:groupmode="layer"
     id="layer2"
     class="tongue"
     inkscape:label="tongue"
     style="display:inline"
     sodipodi:insensitive="true">
    <path
       style="display:inline;opacity:1;vector-effect:none;fill:#ffffff;fill-opacity:1;stroke:#000000;stroke-width:2.25;stroke-linecap:round;stroke-linejoin:bevel;stroke-miterlimit:4;stroke-dasharray:none;stroke-dashoffset:0;stroke-opacity:1"
       d="m 37.310547,69.078125 c -3.342416,-1.57e-4 -6.293674,0.826509 -8.099609,2.089844 A 30.584811,30.584811 0 0 0 45,75.583984 30.584811,30.584811 0 0 0 61.080078,70.949219 c -1.824377,-1.138645 -4.624733,-1.870934 -7.769531,-1.871094 -3.157518,0.002 -6.125927,0.752829 -8,2.023437 -1.874073,-1.270608 -4.842482,-2.021407 -8,-2.023437 z"
       id="path900"
       inkscape:connector-curvature="0" />
  </g>
  <g
     inkscape:groupmode="layer"
     id="layer3"
     class="teeth"
     inkscape:label="teeth"
     style="display:inline"
     sodipodi:insensitive="true">
    <path
       style="display:inline;fill:#ffffff;fill-opacity:1;stroke:#000000;stroke-width:2.25;stroke-linecap:butt;stroke-linejoin:miter;stroke-miterlimit:4;stroke-dasharray:none;stroke-opacity:1"
       d="m 32.3125,55.457031 c 1.038511,7.731272 4.288369,11.056476 6.328125,11.611328 1.93531,-0.823813 6.442679,-3.767067 6.929687,-9.365234 l -5.160156,-0.875 a 48.063103,48.063103 0 0 1 -6.208984,-1.050781 z"
       id="path824-3"
       inkscape:connector-curvature="0" />
    <path
       style="display:inline;fill:#ffffff;fill-opacity:1;stroke:#000000;stroke-width:2.25;stroke-linecap:butt;stroke-linejoin:miter;stroke-miterlimit:4;stroke-dasharray:none;stroke-opacity:1"
       d="m 22.441406,51.392578 c -0.05201,4.507815 1.64581,8.139038 4.197266,9.447266 2.718003,-0.604315 4.750481,-2.604611 6.326172,-5.38086 A 48.063103,48.063103 0 0 1 22.441406,51.392578 Z"
       id="path824-3-6"
       inkscape:connector-curvature="0" />
    <path
       style="display:inline;fill:#ffffff;fill-opacity:1;stroke:#000000;stroke-width:2.25;stroke-linecap:butt;stroke-linejoin:miter;stroke-miterlimit:4;stroke-dasharray:none;stroke-opacity:1"
       d="m 15.166016,46.613281 c -0.610625,3.20693 0.06154,6.027126 1.683593,7.431641 2.100209,0.04428 3.967044,-0.971101 5.648438,-2.625 a 48.063103,48.063103 0 0 1 -7.332031,-4.806641 z"
       id="path824-3-6-7"
       inkscape:connector-curvature="0" />
    <path
       style="display:inline;fill:#ffffff;fill-opacity:1;stroke:#000000;stroke-width:2.25;stroke-linecap:butt;stroke-linejoin:miter;stroke-miterlimit:4;stroke-dasharray:none;stroke-opacity:1"
       d="m 58.324219,55.457031 -12.753907,2.246094 c -0.07529,5.928934 4.490472,8.541421 6.425782,9.365234 2.039756,-0.554852 5.289614,-3.880056 6.328125,-11.611328 z"
       id="path824-3-5"
       inkscape:connector-curvature="0" />
    <path
       style="display:inline;fill:#ffffff;fill-opacity:1;stroke:#000000;stroke-width:2.25;stroke-linecap:butt;stroke-linejoin:miter;stroke-miterlimit:4;stroke-dasharray:none;stroke-opacity:1"
       d="M 68.185547,51.035156 A 48.063103,48.063103 0 0 1 57.59375,55.324219 c 1.586105,2.847745 3.641813,4.901421 6.404297,5.515625 2.618359,-1.342532 4.336872,-5.131931 4.1875,-9.804688 z"
       id="path824-3-6-3"
       inkscape:connector-curvature="0" />
    <path
       style="display:inline;fill:#ffffff;fill-opacity:1;stroke:#000000;stroke-width:2.25;stroke-linecap:butt;stroke-linejoin:miter;stroke-miterlimit:4;stroke-dasharray:none;stroke-opacity:1"
       d="m 75.388672,46.179688 a 48.063103,48.063103 0 0 1 -7.46875,5.013671 c 1.738014,1.784597 3.674915,2.897785 5.867187,2.851563 0.201479,-0.174458 0.384697,-0.375772 0.556641,-0.591797 a 30.584811,30.584811 0 0 0 1.152344,-6.6875 c -0.03483,-0.195469 -0.06283,-0.387643 -0.107422,-0.585937 z"
       id="path824-3-6-7-5"
       inkscape:connector-curvature="0" />
  </g>
</svg>
