<?xml version="1.0" encoding="UTF-8" standalone="no"?>
<!--?xml version="1.0" encoding="UTF-8" standalone="no"?-->

<!--?xml version="1.0" encoding="UTF-8" standalone="no"?-->

<!--?xml version="1.0" encoding="UTF-8" standalone="no"?-->

<svg
   xmlns:dc="http://purl.org/dc/elements/1.1/"
   xmlns:cc="http://creativecommons.org/ns#"
   xmlns:rdf="http://www.w3.org/1999/02/22-rdf-syntax-ns#"
   xmlns:svg="http://www.w3.org/2000/svg"
   xmlns="http://www.w3.org/2000/svg"
   xmlns:sodipodi="http://sodipodi.sourceforge.net/DTD/sodipodi-0.dtd"
   xmlns:inkscape="http://www.inkscape.org/namespaces/inkscape"
   viewBox="0 0 90 90"
   class="maw"
   version="1.1"
   id="svg819"
   data-z="500"
   data-slots="clothing"
   data-tags="new+armor+fantasy+clothing+animals"
   sodipodi:docname="oversized-mouth-slab.svg"
   inkscape:version="0.92.3 (2405546, 2018-03-11)">
  <metadata
     id="metadata822">
    <rdf:rdf>
      <cc:work
         rdf:about="">
        <dc:format>image/svg+xml</dc:format>
        <dc:type
           rdf:resource="http://purl.org/dc/dcmitype/StillImage" />
        <dc:title />
      </cc:work>
    </rdf:rdf>
    <rdf:RDF>
      <cc:Work
         rdf:about="">
        <dc:format>image/svg+xml</dc:format>
        <dc:type
           rdf:resource="http://purl.org/dc/dcmitype/StillImage" />
        <dc:title />
      </cc:Work>
    </rdf:RDF>
  </metadata>
  <metadata1
     id="metadata825">
    <rdf:rdf>
      <cc:work
         rdf:about="">
        <dc:format>image/svg+xml</dc:format>
        <dc:type
           rdf:resource="http://purl.org/dc/dcmitype/StillImage" />
        <dc:title />
      </cc:work>
    </rdf:rdf>
  </metadata1>
  <defs
     id="defs823" />
  <sodipodi:namedview
     pagecolor="#ffffff"
     bordercolor="#666666"
     borderopacity="1"
     objecttolerance="10"
     gridtolerance="10"
     guidetolerance="10"
     inkscape:pageopacity="0"
     inkscape:pageshadow="2"
     inkscape:window-width="3773"
     inkscape:window-height="2105"
     id="namedview821"
     showgrid="false"
     inkscape:zoom="16.000001"
     inkscape:cx="51.284622"
     inkscape:cy="33.627338"
     inkscape:window-x="67"
     inkscape:window-y="27"
     inkscape:window-maximized="1"
     inkscape:current-layer="layer3" />
  <g
     inkscape:groupmode="layer"
     id="layer3"
     class="teeth"
     inkscape:label="teeth"
     style="display:inline">
    <path
       style="display:inline;fill:#ffffff;fill-opacity:1;stroke:#000000;stroke-width:2.2488189;stroke-miterlimit:4;stroke-dasharray:none;stroke-dashoffset:0;stroke-opacity:1;stroke-linejoin:round;stroke-linecap:round"
       d="M 75.53125 46.074219 A 48.063103 48.063103 0 0 1 67.285156 51.507812 L 68.439453 55.818359 C 68.711936 56.83528 68.112624 57.872048 67.095703 58.144531 L 64.269531 58.902344 C 63.25261 59.174827 62.215843 58.575515 61.943359 57.558594 L 61.037109 54.175781 A 48.063103 48.063103 0 0 1 56.183594 55.667969 L 56.955078 61.871094 C 57.085105 62.915827 56.349419 63.862161 55.304688 63.992188 L 52.400391 64.353516 C 51.355657 64.483542 50.409323 63.747859 50.279297 62.703125 L 49.548828 56.828125 A 48.063103 48.063103 0 0 1 45 57.0625 A 48.063103 48.063103 0 0 1 40.404297 56.816406 L 39.832031 62.71875 C 39.73048 63.766635 38.805698 64.527333 37.757812 64.425781 L 34.845703 64.144531 C 33.797818 64.04298 33.035167 63.118198 33.136719 62.070312 L 33.759766 55.632812 A 48.063103 48.063103 0 0 1 27.482422 53.691406 L 26.445312 57.558594 C 26.172829 58.575515 25.136062 59.174827 24.119141 58.902344 L 21.292969 58.144531 C 20.276048 57.872048 19.676736 56.83528 19.949219 55.818359 L 21.304688 50.757812 A 48.063103 48.063103 0 0 1 14.453125 46.076172 A 30.584811 30.584811 0 0 0 23.632812 66.8125 L 24.15625 64.855469 C 24.428733 63.838548 25.467454 63.239236 26.484375 63.511719 L 29.310547 64.269531 C 30.327468 64.542014 30.92678 65.580735 30.654297 66.597656 L 29.396484 71.291016 A 30.584811 30.584811 0 0 0 41.582031 75.363281 L 41.582031 70.113281 C 41.582031 69.060487 42.429628 68.212891 43.482422 68.212891 L 46.408203 68.212891 C 47.460997 68.212891 48.308594 69.060487 48.308594 70.113281 L 48.308594 75.388672 A 30.584811 30.584811 0 0 0 59.671875 71.791016 L 58.529297 67.525391 C 58.256814 66.50847 58.856126 65.469749 59.873047 65.197266 L 62.699219 64.439453 C 63.71614 64.16697 64.754861 64.766282 65.027344 65.783203 L 65.513672 67.599609 A 30.584811 30.584811 0 0 0 75.53125 46.074219 z "
       id="circle815-6-9-2-3" />
  </g>
</svg>
