<!--?xml version="1.0" encoding="UTF-8" standalone="no"?--><!--?xml version="1.0" encoding="UTF-8" standalone="no"?--><!-- Created with Inkscape (http://www.inkscape.org/) --><svg xmlns:dc="http://purl.org/dc/elements/1.1/" xmlns:cc="http://creativecommons.org/ns#" xmlns:rdf="http://www.w3.org/1999/02/22-rdf-syntax-ns#" xmlns:svg="http://www.w3.org/2000/svg" xmlns="http://www.w3.org/2000/svg" xmlns:sodipodi="http://sodipodi.sourceforge.net/DTD/sodipodi-0.dtd" xmlns:inkscape="http://www.inkscape.org/namespaces/inkscape" width="100%" height="100%" viewBox="0 0 90 90" id="svg2" version="1.1" inkscape:version="0.92.3 (2405546, 2018-03-11)" sodipodi:docname="pig-snout-ring.svg" class="pig-snout" data-z="400" data-slots="face" data-tags="face">
  <defs id="defs4"/>
  <sodipodi:namedview id="base" pagecolor="#ffffff" bordercolor="#666666" borderopacity="1.0" inkscape:pageopacity="0.0" inkscape:pageshadow="2" inkscape:zoom="31.92962" inkscape:cx="50.601567" inkscape:cy="39.872319" inkscape:document-units="in" inkscape:current-layer="layer3" showgrid="false" units="in" inkscape:window-width="2493" inkscape:window-height="1385" inkscape:window-x="67" inkscape:window-y="54" inkscape:window-maximized="1">
    <inkscape:grid type="xygrid" id="grid2994" empspacing="5" visible="true" enabled="true" snapvisiblegridlinesonly="true" units="in" spacingx="1.344" spacingy="1.344" originx="0" originy="0"/>
  </sodipodi:namedview>
  <metadata id="metadata7">
    <rdf:rdf>
      <cc:work rdf:about="">
        <dc:format>image/svg+xml</dc:format>
        <dc:type rdf:resource="http://purl.org/dc/dcmitype/StillImage"/>
        <dc:title/>
      </cc:work>
    </rdf:rdf>
    <rdf:rdf>
      <cc:work rdf:about="">
        <dc:format>image/svg+xml</dc:format>
        <dc:type rdf:resource="http://purl.org/dc/dcmitype/StillImage"/>
        <dc:title/>
      </cc:work>
    </rdf:rdf>
  </metadata>
  <g inkscape:label="Body" inkscape:groupmode="layer" id="layer1" class="snout" transform="translate(0,-962.35975)" style="display:inline">
    <path sodipodi:type="arc" style="color:#000000;fill:#ffffff;fill-opacity:1;fill-rule:nonzero;stroke:#000000;stroke-width:2.25;stroke-linecap:butt;stroke-linejoin:miter;stroke-miterlimit:4;stroke-opacity:1;stroke-dasharray:none;stroke-dashoffset:0;marker:none;visibility:visible;display:inline;overflow:visible;enable-background:accumulate" id="path7874" sodipodi:cx="-46.799999" sodipodi:cy="135.89999" sodipodi:rx="9.000001" sodipodi:ry="6.299994" d="m -37.799998,135.89999 a 9.000001,6.299994 0 0 1 -9.000001,6.3 9.000001,6.299994 0 0 1 -9.000001,-6.3 9.000001,6.299994 0 0 1 9.000001,-6.29999 9.000001,6.299994 0 0 1 9.000001,6.29999 z" transform="translate(92.125,872.3597)"/>
  </g>
  <g inkscape:groupmode="layer" id="layer3" class="ring" inkscape:label="ring">
    <path style="color:#000000;font-style:normal;font-variant:normal;font-weight:normal;font-stretch:normal;font-size:medium;line-height:normal;font-family:sans-serif;font-variant-ligatures:normal;font-variant-position:normal;font-variant-caps:normal;font-variant-numeric:normal;font-variant-alternates:normal;font-feature-settings:normal;text-indent:0;text-align:start;text-decoration:none;text-decoration-line:none;text-decoration-style:solid;text-decoration-color:#000000;letter-spacing:normal;word-spacing:normal;text-transform:none;writing-mode:lr-tb;direction:ltr;text-orientation:mixed;dominant-baseline:auto;baseline-shift:baseline;text-anchor:start;white-space:normal;shape-padding:0;clip-rule:nonzero;display:inline;overflow:visible;visibility:visible;opacity:1;isolation:auto;mix-blend-mode:normal;color-interpolation:sRGB;color-interpolation-filters:linearRGB;solid-color:#000000;solid-opacity:1;vector-effect:none;fill:#b4b4b4;fill-opacity:1;fill-rule:nonzero;stroke:#000000;stroke-width:1.248;stroke-linecap:round;stroke-linejoin:bevel;stroke-miterlimit:4;stroke-dasharray:none;stroke-dashoffset:0;stroke-opacity:1;marker:none;color-rendering:auto;image-rendering:auto;shape-rendering:auto;text-rendering:auto;enable-background:accumulate" d="m 42.828125,44.810547 a 0.96009598,0.96009598 0 0 0 -0.341797,0.08008 c -1.054708,0.448465 -1.947266,1.24062 -1.947266,2.371094 10e-7,1.037791 0.766803,1.778844 1.623047,2.21875 0.856245,0.439905 1.923289,0.669922 3.09375,0.669922 1.170462,0 2.237506,-0.230017 3.09375,-0.669922 0.856245,-0.439906 1.623047,-1.180959 1.623047,-2.21875 10e-7,-1.099479 -0.850859,-1.882522 -1.863281,-2.333985 a 0.96009598,0.96009598 0 1 0 -0.783203,1.751954 c 0.631409,0.281559 0.726562,0.563223 0.726562,0.582031 0,0.02794 -0.07692,0.251264 -0.580078,0.509765 -0.503154,0.258501 -1.312886,0.458985 -2.216797,0.458985 -0.90391,0 -1.713643,-0.200484 -2.216797,-0.458985 -0.503153,-0.258501 -0.580078,-0.481824 -0.580078,-0.509765 0,-0.01947 0.107731,-0.318794 0.777344,-0.603516 a 0.96009598,0.96009598 0 0 0 -0.408203,-1.847656 z" id="path840" inkscape:connector-curvature="0"/>
  </g>
</svg>
