<!--?xml version="1.0" encoding="UTF-8" standalone="no"?--><!-- Created with Inkscape (http://www.inkscape.org/) --><svg xmlns:dc="http://purl.org/dc/elements/1.1/" xmlns:cc="http://creativecommons.org/ns#" xmlns:rdf="http://www.w3.org/1999/02/22-rdf-syntax-ns#" xmlns:svg="http://www.w3.org/2000/svg" xmlns="http://www.w3.org/2000/svg" xmlns:sodipodi="http://sodipodi.sourceforge.net/DTD/sodipodi-0.dtd" xmlns:inkscape="http://www.inkscape.org/namespaces/inkscape" width="100%" height="100%" viewBox="0 0 90 90" id="svg2" version="1.1" inkscape:version="0.48.4 r9939" sodipodi:docname="plaid.svg" class="plaid" data-z="500" data-slots="clothing" data-tags="clothing">
  <defs id="defs4"/>
  <sodipodi:namedview id="base" pagecolor="#ffffff" bordercolor="#666666" borderopacity="1.0" inkscape:pageopacity="0.0" inkscape:pageshadow="2" inkscape:zoom="8.3056373" inkscape:cx="42.321287" inkscape:cy="46.774574" inkscape:document-units="in" inkscape:current-layer="layer2" showgrid="true" units="in" inkscape:window-width="1920" inkscape:window-height="1003" inkscape:window-x="-9" inkscape:window-y="-9" inkscape:window-maximized="1" showguides="true" inkscape:guide-bbox="true">
    <inkscape:grid type="xygrid" id="grid2994" empspacing="5" visible="true" enabled="true" snapvisiblegridlinesonly="true" units="in" spacingx="0.014in" spacingy="0.014in"/>
  </sodipodi:namedview>
  <metadata id="metadata7">
    <rdf:rdf>
      <cc:work rdf:about="">
        <dc:format>image/svg+xml</dc:format>
        <dc:type rdf:resource="http://purl.org/dc/dcmitype/StillImage"/>
        <dc:title/>
      </cc:work>
    </rdf:rdf>
  </metadata>
  <g inkscape:groupmode="layer" id="layer2" inkscape:label="Shirt" style="display:inline" class="shirt" sodipodi:insensitive="true">
    <path style="fill:#ffffff;fill-opacity:1;stroke:none" d="m 9.1875,48.78125 c 1.88688,18.1081 17.2051,32.2188 35.8125,32.2188 18.33498,0 33.47434,-13.7119 35.71875,-31.4375 -7.05244,2.6459 -19.97089,4.4375 -34.8125,4.4375 -16.28176,0 -30.28526,-2.1398 -36.71875,-5.2188 z" id="path3829-1-5-74-4-9-0-7" inkscape:connector-curvature="0" sodipodi:nodetypes="cscsc"/>
  </g>
  <g inkscape:groupmode="layer" id="layer3" inkscape:label="Layer" style="display:inline" class="stripes" sodipodi:insensitive="true">
    <path style="font-size:medium;font-style:normal;font-variant:normal;font-weight:normal;font-stretch:normal;text-indent:0;text-align:start;text-decoration:none;line-height:normal;letter-spacing:normal;word-spacing:normal;text-transform:none;direction:ltr;block-progression:tb;writing-mode:lr-tb;text-anchor:start;baseline-shift:baseline;color:#000000;fill:#4b4b4b;fill-opacity:0.52156863;fill-rule:nonzero;stroke:none;stroke-width:3.03457165;marker:none;visibility:visible;display:inline;overflow:visible;enable-background:accumulate;font-family:Sans;-inkscape-font-specification:Sans" d="m 21.78125,72.53125 c 1.59255,1.343245 3.313944,2.539534 5.125,3.59375 l 36.15625,0 c 1.820594,-1.058406 3.556184,-2.243395 5.15625,-3.59375 l -46.4375,0 z" id="rect4094" inkscape:connector-curvature="0"/>
    <path style="font-size:medium;font-style:normal;font-variant:normal;font-weight:normal;font-stretch:normal;text-indent:0;text-align:start;text-decoration:none;line-height:normal;letter-spacing:normal;word-spacing:normal;text-transform:none;direction:ltr;block-progression:tb;writing-mode:lr-tb;text-anchor:start;baseline-shift:baseline;color:#000000;fill:#4b4b4b;fill-opacity:0.52156863;fill-rule:nonzero;stroke:none;stroke-width:3.03457165;marker:none;visibility:visible;display:inline;overflow:visible;enable-background:accumulate;font-family:Sans;-inkscape-font-specification:Sans" d="m 15.03125,64.96875 c 0.839355,1.256469 1.763423,2.455566 2.75,3.59375 l 54.4375,0 c 0.985531,-1.137201 1.880071,-2.338558 2.71875,-3.59375 l -0.75,0 -59.15625,0 z" id="rect4094-6" inkscape:connector-curvature="0"/>
    <path style="font-size:medium;font-style:normal;font-variant:normal;font-weight:normal;font-stretch:normal;text-indent:0;text-align:start;text-decoration:none;line-height:normal;letter-spacing:normal;word-spacing:normal;text-transform:none;direction:ltr;block-progression:tb;writing-mode:lr-tb;text-anchor:start;baseline-shift:baseline;color:#000000;fill:#4b4b4b;fill-opacity:0.52156863;fill-rule:nonzero;stroke:none;stroke-width:3.03457165;marker:none;visibility:visible;display:inline;overflow:visible;enable-background:accumulate;font-family:Sans;-inkscape-font-specification:Sans" d="m 11.09375,57.125 c 0.438181,1.225178 0.936801,2.434067 1.5,3.59375 l 64.8125,0 c 0.563593,-1.159633 1.061365,-2.368675 1.5,-3.59375 l -67.09375,0 -0.71875,0 z" id="rect4094-6-4" inkscape:connector-curvature="0"/>
    <path style="font-size:medium;font-style:normal;font-variant:normal;font-weight:normal;font-stretch:normal;text-indent:0;text-align:start;text-decoration:none;line-height:normal;letter-spacing:normal;word-spacing:normal;text-transform:none;direction:ltr;block-progression:tb;writing-mode:lr-tb;text-anchor:start;baseline-shift:baseline;color:#000000;fill:#4b4b4b;fill-opacity:0.52156863;fill-rule:nonzero;stroke:none;stroke-width:3.03457165;marker:none;visibility:visible;display:inline;overflow:visible;enable-background:accumulate;font-family:Sans;-inkscape-font-specification:Sans" d="m 9.375,50.15625 c 0.1750922,1.221796 0.3928596,2.414831 0.6875,3.59375 l 26.6875,0 C 26.917566,53.241134 18.442704,51.936164 12.8125,50.15625 l -3.4375,0 z m 69.625,0 C 73.378154,51.936237 64.938179,53.235956 55.125,53.75 l 22.96875,0 1.84375,0 C 79.96076,53.65688 79.97747,53.562158 80,53.46875 l 0,-1.25 0,-0.5625 0,-1.5 -1,0 z" id="rect4094-6-4-7" inkscape:connector-curvature="0"/>
    <path style="font-size:medium;font-style:normal;font-variant:normal;font-weight:normal;font-stretch:normal;text-indent:0;text-align:start;text-decoration:none;line-height:normal;letter-spacing:normal;word-spacing:normal;text-transform:none;direction:ltr;block-progression:tb;writing-mode:lr-tb;text-anchor:start;baseline-shift:baseline;color:#000000;fill:#4b4b4b;fill-opacity:0.52156863;fill-rule:nonzero;stroke:none;stroke-width:3.03457165;marker:none;visibility:visible;display:inline;overflow:visible;enable-background:accumulate;font-family:Sans;-inkscape-font-specification:Sans" d="m 17.65625,51.4375 0,10.78125 0,6.1875 c 1.216087,1.418725 2.517221,2.75432 3.9375,3.96875 l 0,-2.59375 0,-7.5625 0,-10.03125 c -1.389531,-0.233002 -2.695306,-0.47991 -3.9375,-0.75 z" id="rect4094-3" inkscape:connector-curvature="0"/>
    <path style="font-size:medium;font-style:normal;font-variant:normal;font-weight:normal;font-stretch:normal;text-indent:0;text-align:start;text-decoration:none;line-height:normal;letter-spacing:normal;word-spacing:normal;text-transform:none;direction:ltr;block-progression:tb;writing-mode:lr-tb;text-anchor:start;baseline-shift:baseline;color:#000000;fill:#4b4b4b;fill-opacity:0.52156863;fill-rule:nonzero;stroke:none;stroke-width:3.03457165;marker:none;visibility:visible;display:inline;overflow:visible;enable-background:accumulate;font-family:Sans;-inkscape-font-specification:Sans" d="m 25,52.6875 0,10.1875 0,7.53125 0,4.53125 c 1.264477,0.845854 2.598028,1.629374 3.96875,2.3125 l 0,-6.84375 0,-7.53125 0,-9.71875 C 27.607484,53.016104 26.274225,52.859201 25,52.6875 z" id="rect4094-3-4" inkscape:connector-curvature="0"/>
    <path style="font-size:medium;font-style:normal;font-variant:normal;font-weight:normal;font-stretch:normal;text-indent:0;text-align:start;text-decoration:none;line-height:normal;letter-spacing:normal;word-spacing:normal;text-transform:none;direction:ltr;block-progression:tb;writing-mode:lr-tb;text-anchor:start;baseline-shift:baseline;color:#000000;fill:#4b4b4b;fill-opacity:0.52156863;fill-rule:nonzero;stroke:none;stroke-width:3.03457165;marker:none;visibility:visible;display:inline;overflow:visible;enable-background:accumulate;font-family:Sans;-inkscape-font-specification:Sans" d="m 32.90625,53.5 0,8.15625 0,7.5625 0,9.6875 c 1.291987,0.46083 2.613498,0.843578 3.96875,1.15625 l 0,-10.84375 0,-7.5625 0,-7.90625 C 35.522196,53.681 34.203275,53.598353 32.90625,53.5 z" id="rect4094-3-5" inkscape:connector-curvature="0"/>
    <path style="font-size:medium;font-style:normal;font-variant:normal;font-weight:normal;font-stretch:normal;text-indent:0;text-align:start;text-decoration:none;line-height:normal;letter-spacing:normal;word-spacing:normal;text-transform:none;direction:ltr;block-progression:tb;writing-mode:lr-tb;text-anchor:start;baseline-shift:baseline;color:#000000;fill:#4b4b4b;fill-opacity:0.52156863;fill-rule:nonzero;stroke:none;stroke-width:3.03457165;marker:none;visibility:visible;display:inline;overflow:visible;enable-background:accumulate;font-family:Sans;-inkscape-font-specification:Sans" d="m 40.5,53.90625 0,8.75 0,7.5625 0,10.5 c 1.307818,0.163492 2.621293,0.261869 3.96875,0.28125 l 0,-10.78125 0,-7.5625 0,-8.6875 C 43.13421,53.95824 41.798231,53.94485 40.5,53.90625 z" id="rect4094-3-5-0" inkscape:connector-curvature="0"/>
    <path style="font-size:medium;font-style:normal;font-variant:normal;font-weight:normal;font-stretch:normal;text-indent:0;text-align:start;text-decoration:none;line-height:normal;letter-spacing:normal;word-spacing:normal;text-transform:none;direction:ltr;block-progression:tb;writing-mode:lr-tb;text-anchor:start;baseline-shift:baseline;color:#000000;fill:#4b4b4b;fill-opacity:0.52156863;fill-rule:nonzero;stroke:none;stroke-width:3.03457165;marker:none;visibility:visible;display:inline;overflow:visible;enable-background:accumulate;font-family:Sans;-inkscape-font-specification:Sans" d="m 51.875,53.875 c -1.288645,0.0428 -2.611442,0.07888 -3.9375,0.09375 l 0,9.78125 0,7.53125 0,9.59375 c 1.333378,-0.107482 2.649058,-0.282381 3.9375,-0.53125 l 0,-9.0625 0,-7.53125 0,-9.875 z" id="rect4094-3-5-0-5" inkscape:connector-curvature="0"/>
    <path style="font-size:medium;font-style:normal;font-variant:normal;font-weight:normal;font-stretch:normal;text-indent:0;text-align:start;text-decoration:none;line-height:normal;letter-spacing:normal;word-spacing:normal;text-transform:none;direction:ltr;block-progression:tb;writing-mode:lr-tb;text-anchor:start;baseline-shift:baseline;color:#000000;fill:#4b4b4b;fill-opacity:0.52156863;fill-rule:nonzero;stroke:none;stroke-width:3.03457165;marker:none;visibility:visible;display:inline;overflow:visible;enable-background:accumulate;font-family:Sans;-inkscape-font-specification:Sans" d="M 59.3125,53.46875 C 58.024913,53.570367 56.719171,53.677582 55.375,53.75 l 0,10.28125 0,7.5625 0,7.875 c 1.341324,-0.403513 2.667071,-0.855494 3.9375,-1.40625 l 0,-6.46875 0,-7.5625 0,-10.5625 z" id="rect4094-3-5-0-5-0" inkscape:connector-curvature="0"/>
    <path style="font-size:medium;font-style:normal;font-variant:normal;font-weight:normal;font-stretch:normal;text-indent:0;text-align:start;text-decoration:none;line-height:normal;letter-spacing:normal;word-spacing:normal;text-transform:none;direction:ltr;block-progression:tb;writing-mode:lr-tb;text-anchor:start;baseline-shift:baseline;color:#000000;fill:#4b4b4b;fill-opacity:0.52156863;fill-rule:nonzero;stroke:none;stroke-width:3.03457165;marker:none;visibility:visible;display:inline;overflow:visible;enable-background:accumulate;font-family:Sans;-inkscape-font-specification:Sans" d="m 67,52.65625 c -1.279054,0.175934 -2.600426,0.324851 -3.96875,0.46875 l 0,9.9375 0,7.5625 0,5.53125 C 64.415845,75.353482 65.740119,74.474025 67,73.5 l 0,-2.875 0,-7.5625 0,-10.40625 z" id="rect4094-3-5-0-5-2" inkscape:connector-curvature="0"/>
    <path style="font-size:medium;font-style:normal;font-variant:normal;font-weight:normal;font-stretch:normal;text-indent:0;text-align:start;text-decoration:none;line-height:normal;letter-spacing:normal;word-spacing:normal;text-transform:none;direction:ltr;block-progression:tb;writing-mode:lr-tb;text-anchor:start;baseline-shift:baseline;color:#000000;fill:#4b4b4b;fill-opacity:0.52156863;fill-rule:nonzero;stroke:none;stroke-width:3.03457165;marker:none;visibility:visible;display:inline;overflow:visible;enable-background:accumulate;font-family:Sans;-inkscape-font-specification:Sans" d="m 74.625,51.3125 c -1.244706,0.280504 -2.569442,0.53864 -3.96875,0.78125 l 0,12.1875 0,5.96875 c 1.461937,-1.484902 2.780472,-3.092951 3.96875,-4.8125 l 0,-1.15625 0,-12.96875 z" id="rect4094-3-5-0-5-3" inkscape:connector-curvature="0"/>
    <path sodipodi:nodetypes="cscsc" inkscape:connector-curvature="0" id="path3760" d="m 9.1875,48.78125 c 1.88688,18.1081 17.2051,32.2188 35.8125,32.2188 18.33498,0 33.47434,-13.7119 35.71875,-31.4375 -7.05244,2.6459 -19.97089,4.4375 -34.8125,4.4375 -16.28176,0 -30.28526,-2.1398 -36.71875,-5.2188 z" style="fill:none;stroke:#000000;stroke-width:4.5;stroke-linecap:round;stroke-miterlimit:4;stroke-opacity:1;stroke-dasharray:none;stroke-dashoffset:0;display:inline" class="ignored"/>
  </g>
</svg>
