<!--?xml version="1.0" encoding="UTF-8" standalone="no"?--><!-- Created with Inkscape (http://www.inkscape.org/) --><svg xmlns:dc="http://purl.org/dc/elements/1.1/" xmlns:cc="http://creativecommons.org/ns#" xmlns:rdf="http://www.w3.org/1999/02/22-rdf-syntax-ns#" xmlns:svg="http://www.w3.org/2000/svg" xmlns="http://www.w3.org/2000/svg" xmlns:sodipodi="http://sodipodi.sourceforge.net/DTD/sodipodi-0.dtd" xmlns:inkscape="http://www.inkscape.org/namespaces/inkscape" width="100%" height="100%" viewBox="0 0 90 90" id="svg2" version="1.1" inkscape:version="0.48.4 r9939" sodipodi:docname="template.svg" class="plumed-helmet" data-z="1000" data-slots="hat" data-tags="hat">
  <defs id="defs4"/>
  <sodipodi:namedview id="base" pagecolor="#ffffff" bordercolor="#666666" borderopacity="1.0" inkscape:pageopacity="0.0" inkscape:pageshadow="2" inkscape:zoom="7.9824051" inkscape:cx="12.771018" inkscape:cy="58.887197" inkscape:document-units="in" inkscape:current-layer="svg2" showgrid="false" units="in" inkscape:window-width="1920" inkscape:window-height="1017" inkscape:window-x="1912" inkscape:window-y="-8" inkscape:window-maximized="1">
    <inkscape:grid type="xygrid" id="grid2994" empspacing="5" visible="true" enabled="true" snapvisiblegridlinesonly="true" units="in" spacingx="0.014in" spacingy="0.014in"/>
  </sodipodi:namedview>
  <metadata id="metadata7">
    <rdf:rdf>
      <cc:work rdf:about="">
        <dc:format>image/svg+xml</dc:format>
        <dc:type rdf:resource="http://purl.org/dc/dcmitype/StillImage"/>
        <dc:title/>
      </cc:work>
    </rdf:rdf>
  </metadata>
  <g inkscape:label="Body" inkscape:groupmode="layer" id="layer1" class="helmet" transform="translate(0,-962.35975)" style="display:inline">
    <path style="fill:#ffffff;fill-opacity:1;stroke:#000000;stroke-width:2.25;stroke-linecap:round;stroke-miterlimit:4;stroke-opacity:1;stroke-dasharray:none;stroke-dashoffset:0;display:inline" d="m 12.6,986.83976 c -3.78,7.56 -4.0114045,11.16842 -4.88125,18.42624 1.6609679,1.8002 4.63106,3 8.03125,3 5.219091,0 9.4375,-2.8331 9.4375,-6.3125 0,-0.076 0.004,-0.1435 0,-0.2188 0.04545,-3.40853 1.139121,-6.60247 3.03125,-9.34369 z" id="path3829-1-5-74-4-9-0-7-87-0" inkscape:connector-curvature="0" sodipodi:nodetypes="ccssccc"/>
    <path style="fill:#ffffff;fill-opacity:1;stroke:#000000;stroke-width:2.25;stroke-linecap:butt;stroke-linejoin:miter;stroke-miterlimit:4;stroke-opacity:1;stroke-dasharray:none;display:inline" d="m 41.58,998.17976 2.52,2.51994 2.52,-2.51994 0,-6.3 0,-5.04 -5.04,0 z" id="path4282" inkscape:connector-curvature="0"/>
    <path style="fill:#ffffff;fill-opacity:1;stroke:#000000;stroke-width:2.25;stroke-linecap:round;stroke-miterlimit:4;stroke-opacity:1;stroke-dasharray:none;stroke-dashoffset:0;display:inline" d="m 77.581805,986.83976 c 3.78,7.56 4.011404,11.16843 4.88125,18.42624 -1.660968,1.8003 -4.63106,3 -8.03125,3 -5.219091,0 -9.4375,-2.8331 -9.4375,-6.3125 0,-0.076 -0.004,-0.1435 0,-0.2188 -0.04545,-3.40853 -1.139121,-6.60246 -3.03125,-9.34369 z" id="path3829-1-5-74-4-9-0-7-87-0-5" inkscape:connector-curvature="0" sodipodi:nodetypes="ccssccc"/>
    <path style="fill:#ffffff;fill-opacity:1;stroke:#000000;stroke-width:2.25;stroke-linecap:round;stroke-miterlimit:4;stroke-opacity:1;stroke-dasharray:none;stroke-dashoffset:0;display:inline" d="m 45.09375,968.45351 c -16.536354,0 -30.524703,9.83781 -35.40625,23.4375 l 70.84375,0 c -4.881547,-13.59969 -18.901146,-23.4375 -35.4375,-23.4375 z" id="path2997" inkscape:connector-curvature="0"/>
  </g>
  <g inkscape:groupmode="layer" id="layer2" inkscape:label="Plume" class="plume">
    <path style="fill:#ffffff;fill-opacity:1;stroke:#000000;stroke-width:2.25;stroke-linecap:butt;stroke-linejoin:miter;stroke-miterlimit:4;stroke-opacity:1;stroke-dasharray:none;display:inline" d="m 34.019998,20.82529 c 2.52,2.52 2.52,2.52 2.52,5.04 l 15.120002,0 c 0,-2.52 0,-2.52 2.52,-5.04" id="path3776" inkscape:connector-curvature="0" sodipodi:nodetypes="cccc"/>
    <path style="fill:#ffffff;fill-opacity:1;stroke:#000000;stroke-width:2.25;stroke-linecap:round;stroke-miterlimit:4;stroke-opacity:1;stroke-dashoffset:0;display:inline" d="m 34.02,2.6769321 20.16,0 0,16.7630669 -20.16,0 z" id="rect3774" inkscape:connector-curvature="0"/>
    <path id="path3799" transform="matrix(-0.93867471,0.344804,-0.344804,-0.93867471,8.233043,44.96195)" style="fill:#000000;fill-opacity:0.49019608;stroke:none;display:inline" d="m -42.840001,15.03 c 0,0.347939 -0.282061,0.63 -0.63,0.63 -0.34794,0 -0.63,-0.282061 -0.63,-0.63 0,-0.34794 0.28206,-0.63 0.63,-0.63 0.347939,0 0.63,0.28206 0.63,0.63 z m 1.511873,4.84385 c 0,0.347939 -0.282061,0.63 -0.63,0.63 -0.34794,0 -0.63,-0.282061 -0.63,-0.63 0,-0.34794 0.28206,-0.63 0.63,-0.63 0.347939,0 0.63,0.28206 0.63,0.63 z m -6.482971,3.687546 c 0.346863,0.02735 0.605878,0.330713 0.578527,0.677575 -0.02735,0.346863 -0.330713,0.605878 -0.677575,0.578526 -0.346863,-0.02735 -0.605878,-0.330711 -0.578526,-0.677574 0.02735,-0.346863 0.330711,-0.605878 0.677574,-0.578527 z m 1.322995,-9.64699 c 0,0.347939 -0.282061,0.63 -0.63,0.63 -0.34794,0 -0.63,-0.282061 -0.63,-0.63 0,-0.34794 0.28206,-0.63 0.63,-0.63 0.347939,0 0.63,0.28206 0.63,0.63 z m 1.408118,5.061523 c 0,0.347939 -0.282061,0.63 -0.63,0.63 -0.34794,0 -0.63,-0.282061 -0.63,-0.63 0,-0.34794 0.28206,-0.63 0.63,-0.63 0.347939,0 0.63,0.28206 0.63,0.63 z m -7.887589,2.577092 c -0.197118,0.286716 -0.589344,0.359349 -0.87606,0.162231 -0.286717,-0.197118 -0.359349,-0.589344 -0.162231,-0.87606 0.197119,-0.286716 0.589343,-0.35935 0.87606,-0.162231 0.286716,0.197118 0.35935,0.589343 0.162231,0.87606 z m 1.158244,0.241196 c 0.346862,0.02735 0.605878,0.330712 0.578526,0.677575 -0.02735,0.346863 -0.330712,0.605877 -0.677574,0.578526 -0.346864,-0.02735 -0.605878,-0.330711 -0.578527,-0.677575 0.02735,-0.346862 0.330712,-0.605878 0.677575,-0.578526 z m 2.073476,-4.431124 c -0.197118,0.286716 -0.589344,0.359349 -0.87606,0.162231 -0.286716,-0.197119 -0.359349,-0.589344 -0.162231,-0.87606 0.197119,-0.286717 0.589343,-0.35935 0.87606,-0.162231 0.286716,0.197118 0.35935,0.589343 0.162231,0.87606 z m -1.576287,0.06499 c -0.197118,0.286716 -0.589344,0.35935 -0.87606,0.162232 -0.286717,-0.197119 -0.359349,-0.589345 -0.162231,-0.87606 0.197119,-0.286717 0.589343,-0.35935 0.87606,-0.162231 0.286716,0.197118 0.35935,0.589343 0.162231,0.876059 z m 0.937876,1.738796 c -0.197118,0.286716 -0.589344,0.359349 -0.87606,0.162231 -0.286717,-0.197119 -0.359349,-0.589344 -0.162231,-0.87606 0.197119,-0.286717 0.589343,-0.35935 0.87606,-0.162231 0.286716,0.197118 0.35935,0.589343 0.162231,0.87606 z m -1.460217,-0.183395 c -0.197118,0.286715 -0.589344,0.359349 -0.87606,0.162231 -0.286716,-0.197119 -0.359349,-0.589344 -0.162231,-0.87606 0.197119,-0.286717 0.589343,-0.35935 0.87606,-0.162231 0.286716,0.197118 0.35935,0.589343 0.162231,0.87606 z m 0.575727,1.708614 c -0.197118,0.286716 -0.589344,0.359349 -0.87606,0.162231 -0.286717,-0.197119 -0.359349,-0.589344 -0.162231,-0.87606 0.197118,-0.286717 0.589343,-0.35935 0.87606,-0.162231 0.286716,0.197118 0.35935,0.589343 0.162231,0.87606 z m 1.158234,0.241224 c 0.346862,0.02735 0.605877,0.330712 0.578526,0.677574 -0.02735,0.346864 -0.330712,0.605878 -0.677575,0.578527 -0.346863,-0.02735 -0.605877,-0.330712 -0.578526,-0.677575 0.02735,-0.346862 0.330711,-0.605878 0.677575,-0.578526 z m 0.84444,1.332587 c 0.346862,0.02735 0.605877,0.330713 0.578526,0.677575 -0.02735,0.346863 -0.330712,0.605878 -0.677575,0.578526 -0.346863,-0.02735 -0.605877,-0.330711 -0.578526,-0.677574 0.02735,-0.346863 0.330711,-0.605878 0.677575,-0.578527 z m 1.036894,-1.681599 c 0.346862,0.02735 0.605877,0.330712 0.578526,0.677575 -0.02735,0.346863 -0.330712,0.605877 -0.677575,0.578526 -0.346863,-0.02735 -0.605877,-0.330712 -0.578526,-0.677575 0.02735,-0.346862 0.330711,-0.605878 0.677575,-0.578526 z m 0.571289,1.356255 c 0.346862,0.02735 0.605877,0.330713 0.578526,0.677575 -0.02735,0.346863 -0.330712,0.605878 -0.677575,0.578526 -0.346863,-0.02735 -0.605877,-0.330711 -0.578526,-0.677574 0.02735,-0.346863 0.330712,-0.605878 0.677575,-0.578527 z m 1.191845,-1.352915 c 0.346862,0.02735 0.605877,0.330713 0.578526,0.677575 -0.02735,0.346863 -0.330713,0.605878 -0.677575,0.578526 -0.346863,-0.02735 -0.605878,-0.330711 -0.578526,-0.677574 0.02735,-0.346863 0.330711,-0.605878 0.677575,-0.578527 z m -3.391303,-1.364233 c 0.184425,-0.295041 0.573109,-0.384714 0.86815,-0.200289 0.295042,0.184424 0.384714,0.573108 0.20029,0.868149 -0.184425,0.295042 -0.573108,0.384715 -0.86815,0.20029 -0.295041,-0.184425 -0.384715,-0.573108 -0.20029,-0.86815 z m 1.571954,-0.133693 c 0.184424,-0.295041 0.573109,-0.384714 0.86815,-0.200289 0.295041,0.184425 0.384713,0.573108 0.200289,0.868149 -0.184425,0.295042 -0.573108,0.384715 -0.86815,0.20029 -0.295041,-0.184425 -0.384714,-0.573108 -0.200289,-0.86815 z M -49.288232,17.3935 c 0.184425,-0.295041 0.573109,-0.384714 0.86815,-0.200289 0.295042,0.184425 0.384714,0.573108 0.200289,0.868149 -0.184424,0.295042 -0.573108,0.384715 -0.868149,0.20029 -0.295041,-0.184425 -0.384715,-0.573108 -0.20029,-0.86815 z m 1.466827,0.119528 c 0.184425,-0.295041 0.573109,-0.384714 0.86815,-0.20029 0.295042,0.184425 0.384714,0.573109 0.200289,0.86815 -0.184425,0.295042 -0.573108,0.384715 -0.868149,0.20029 -0.295041,-0.184425 -0.384715,-0.573108 -0.20029,-0.86815 z m -0.649707,-1.681873 c 0.184425,-0.295041 0.573109,-0.384714 0.86815,-0.200289 0.295042,0.184424 0.384714,0.573108 0.200289,0.868149 -0.184424,0.295042 -0.573108,0.384715 -0.868149,0.20029 -0.295041,-0.184425 -0.384715,-0.573108 -0.20029,-0.86815 z m -3.196519,-0.541735 c 0.184424,-0.295041 0.573109,-0.384713 0.86815,-0.200289 0.295042,0.184425 0.384714,0.573109 0.200289,0.86815 -0.184425,0.295042 -0.573108,0.384714 -0.86815,0.200289 -0.295041,-0.184424 -0.384714,-0.573108 -0.200289,-0.86815 z m 1.57195,-0.133683 c 0.184424,-0.295041 0.573109,-0.384714 0.86815,-0.20029 0.295042,0.184425 0.384714,0.573109 0.200289,0.86815 -0.184425,0.295042 -0.573108,0.384714 -0.86815,0.20029 -0.295041,-0.184425 -0.384714,-0.573108 -0.200289,-0.86815 z m -1.012825,-1.696239 c 0.184424,-0.295041 0.573109,-0.384713 0.86815,-0.200289 0.295042,0.184425 0.384714,0.573109 0.200289,0.86815 -0.184425,0.295042 -0.573108,0.384714 -0.86815,0.200289 -0.295041,-0.184424 -0.384714,-0.573108 -0.200289,-0.86815 z m 1.466823,0.119538 c 0.184425,-0.295041 0.573109,-0.384714 0.86815,-0.20029 0.295042,0.184425 0.384714,0.573109 0.20029,0.86815 -0.184425,0.295042 -0.573108,0.384714 -0.86815,0.200289 -0.295041,-0.184424 -0.384715,-0.573108 -0.20029,-0.868149 z m -0.649707,-1.681873 c 0.184425,-0.295041 0.573109,-0.384714 0.86815,-0.20029 0.295042,0.184425 0.384714,0.573109 0.20029,0.86815 -0.184425,0.295042 -0.573108,0.384714 -0.86815,0.200289 -0.295041,-0.184424 -0.384714,-0.573108 -0.20029,-0.868149 z m 5.861566,2.563548 c 0,0.347939 -0.282061,0.63 -0.63,0.63 -0.34794,0 -0.63,-0.282061 -0.63,-0.63 0,-0.34794 0.28206,-0.63 0.63,-0.63 0.347939,0 0.63,0.28206 0.63,0.63 z m -1.262101,0.946571 c 0,0.347939 -0.282061,0.63 -0.63,0.63 -0.34794,0 -0.63,-0.282061 -0.63,-0.63 0,-0.34794 0.28206,-0.63 0.63,-0.63 0.347939,0 0.63,0.28206 0.63,0.63 z m 1.75792,0.901524 c 0,0.347939 -0.282061,0.63 -0.63,0.63 -0.34794,0 -0.63,-0.282061 -0.63,-0.63 0,-0.34794 0.28206,-0.63 0.63,-0.63 0.347939,0 0.63,0.28206 0.63,0.63 z m -1.307183,0.676143 c 0,0.347939 -0.282061,0.63 -0.63,0.63 -0.34794,0 -0.63,-0.282061 -0.63,-0.63 0,-0.34794 0.28206,-0.63 0.63,-0.63 0.347939,0 0.63,0.28206 0.63,0.63 z m 1.442408,1.081789 c 0,0.347939 -0.282061,0.63 -0.63,0.63 -0.34794,0 -0.63,-0.282061 -0.63,-0.63 0,-0.34794 0.28206,-0.63 0.63,-0.63 0.347939,0 0.63,0.28206 0.63,0.63 z m 1.032084,1.278682 c 0,0.347939 -0.282061,0.63 -0.63,0.63 -0.34794,0 -0.63,-0.282061 -0.63,-0.63 0,-0.34794 0.28206,-0.63 0.63,-0.63 0.347939,0 0.63,0.28206 0.63,0.63 z m -1.2621,0.946572 c 0,0.347939 -0.282061,0.63 -0.63,0.63 -0.34794,0 -0.63,-0.282061 -0.63,-0.63 0,-0.34794 0.28206,-0.63 0.63,-0.63 0.347939,0 0.63,0.28206 0.63,0.63 z m 1.75792,0.901524 c 0,0.347939 -0.282061,0.63 -0.63,0.63 -0.34794,0 -0.63,-0.282061 -0.63,-0.63 0,-0.34794 0.28206,-0.63 0.63,-0.63 0.347939,0 0.63,0.28206 0.63,0.63 z m -1.307183,0.676143 c 0,0.347939 -0.282061,0.63 -0.63,0.63 -0.34794,0 -0.63,-0.282061 -0.63,-0.63 0,-0.34794 0.28206,-0.63 0.63,-0.63 0.347939,0 0.63,0.28206 0.63,0.63 z m 1.442443,1.081695 c 0,0.347939 -0.282061,0.63 -0.63,0.63 -0.34794,0 -0.63,-0.282061 -0.63,-0.63 0,-0.34794 0.28206,-0.63 0.63,-0.63 0.347939,0 0.63,0.28206 0.63,0.63 z m -2.857529,-0.534924 c 0.184693,0.294872 0.09537,0.683638 -0.199498,0.868332 -0.294874,0.184694 -0.683639,0.09538 -0.868332,-0.199498 -0.184694,-0.294873 -0.09538,-0.683638 0.199498,-0.868332 0.294872,-0.184693 0.683638,-0.09538 0.868332,0.199498 z m -0.567172,1.472221 c 0.184693,0.294873 0.09537,0.683639 -0.199498,0.868332 -0.294873,0.184694 -0.683639,0.09537 -0.868332,-0.199498 -0.184694,-0.294873 -0.09538,-0.683638 0.199498,-0.868332 0.294872,-0.184693 0.683638,-0.09538 0.868332,0.199498 z m 1.968365,-0.169174 c 0.184694,0.294872 0.09537,0.683638 -0.199497,0.868332 -0.294874,0.184694 -0.683639,0.09538 -0.868332,-0.199498 -0.184694,-0.294874 -0.09538,-0.683638 0.199497,-0.868332 0.294873,-0.184693 0.683639,-0.09538 0.868332,0.199498 z m -0.748903,1.266866 c 0.184694,0.294872 0.09537,0.683639 -0.199497,0.868332 -0.294874,0.184694 -0.683639,0.09538 -0.868333,-0.199498 -0.184693,-0.294873 -0.09538,-0.683638 0.199498,-0.868332 0.294873,-0.184693 0.683638,-0.09538 0.868332,0.199498 z m 1.796653,0.151163 c 0.184693,0.294873 0.09537,0.683639 -0.199498,0.868332 -0.294873,0.184694 -0.683639,0.09538 -0.868332,-0.199498 -0.184694,-0.294873 -0.09538,-0.683638 0.199498,-0.868332 0.294872,-0.184693 0.683638,-0.09538 0.868332,0.199498 z m 0.100572,1.237655 c 0.119971,-0.326601 0.48199,-0.494109 0.808592,-0.374138 0.326602,0.119971 0.494109,0.48199 0.374138,0.808591 -0.119971,0.326603 -0.481989,0.49411 -0.808591,0.374139 -0.326602,-0.119971 -0.49411,-0.481989 -0.374139,-0.808592 z m 1.511088,-0.453353 c 0.119971,-0.326601 0.48199,-0.494109 0.808591,-0.374138 0.326603,0.119971 0.49411,0.48199 0.374139,0.808591 -0.119971,0.326603 -0.481989,0.49411 -0.808592,0.374139 -0.326601,-0.119971 -0.494109,-0.481989 -0.374138,-0.808592 z m -1.339282,-1.452356 c 0.119971,-0.326601 0.48199,-0.494109 0.808592,-0.374138 0.326602,0.119971 0.494109,0.48199 0.374138,0.808591 -0.119971,0.326603 -0.481989,0.49411 -0.808591,0.374139 -0.326602,-0.119971 -0.49411,-0.481989 -0.374139,-0.808592 z m 1.460143,-0.183936 c 0.119971,-0.326602 0.48199,-0.49411 0.808592,-0.374139 0.326602,0.119971 0.494109,0.48199 0.374138,0.808592 -0.119971,0.326602 -0.481989,0.494109 -0.808592,0.374138 -0.326601,-0.119971 -0.494109,-0.481989 -0.374138,-0.808591 z m -0.980935,-1.512814 c 0.119971,-0.326602 0.48199,-0.49411 0.808592,-0.374139 0.326602,0.119971 0.494109,0.48199 0.374138,0.808592 -0.119971,0.326602 -0.481989,0.494109 -0.808591,0.374138 -0.326602,-0.119971 -0.49411,-0.481989 -0.374139,-0.808591 z m 1.942824,-0.582872 c 0.119971,-0.326601 0.48199,-0.494109 0.808591,-0.374138 0.326603,0.119971 0.49411,0.48199 0.374139,0.808591 -0.119971,0.326603 -0.481989,0.49411 -0.808592,0.374139 -0.326601,-0.119971 -0.494109,-0.481989 -0.374138,-0.808592 z m -1.163125,-1.147554 c 0.119971,-0.326602 0.48199,-0.494109 0.808592,-0.374139 0.326602,0.119972 0.494109,0.48199 0.374138,0.808592 -0.119971,0.326602 -0.481989,0.49411 -0.808591,0.374139 -0.326602,-0.119971 -0.49411,-0.48199 -0.374139,-0.808592 z m -0.02852,-1.883255 c 0.119971,-0.326602 0.48199,-0.49411 0.808592,-0.374139 0.326602,0.119971 0.494109,0.48199 0.374138,0.808592 -0.119971,0.326602 -0.481989,0.494109 -0.808591,0.374138 -0.326602,-0.119971 -0.49411,-0.481989 -0.374139,-0.808591 z m -0.880775,-1.524027 c 0.11997,-0.326601 0.48199,-0.494109 0.808591,-0.374138 0.326603,0.119971 0.494109,0.48199 0.374139,0.808591 -0.119971,0.326603 -0.481989,0.49411 -0.808592,0.374139 -0.326601,-0.119971 -0.49411,-0.481989 -0.374138,-0.808592 z m -1.394537,-1.040479 c 0.11997,-0.326602 0.48199,-0.49411 0.808591,-0.374139 0.326603,0.119971 0.49411,0.48199 0.374139,0.808592 -0.119971,0.326602 -0.481989,0.494109 -0.808592,0.374138 -0.326601,-0.11997 -0.494109,-0.481989 -0.374138,-0.808591 z m 0.714934,-1.946295 c 0.11997,-0.326602 0.48199,-0.49411 0.808591,-0.374139 0.326603,0.119971 0.494109,0.48199 0.374139,0.808592 -0.119971,0.326602 -0.481989,0.494109 -0.808592,0.374138 -0.326601,-0.11997 -0.49411,-0.481989 -0.374138,-0.808591 z m 0.92049,1.154456 c 0.119971,-0.326602 0.48199,-0.49411 0.808591,-0.374139 0.326603,0.119971 0.49411,0.48199 0.374139,0.808592 -0.119971,0.326602 -0.481989,0.494109 -0.808592,0.374138 -0.326601,-0.11997 -0.494109,-0.481989 -0.374138,-0.808591 z m 1.898795,-0.07083 c 0.119971,-0.326601 0.48199,-0.494109 0.808592,-0.374138 0.326602,0.119971 0.494109,0.48199 0.374138,0.808591 -0.119971,0.326603 -0.481989,0.49411 -0.808592,0.374139 -0.326601,-0.119971 -0.494109,-0.481989 -0.374138,-0.808592 z m -0.714937,1.946305 c 0.11997,-0.326602 0.48199,-0.49411 0.808591,-0.374139 0.326603,0.119971 0.49411,0.48199 0.374139,0.808592 -0.119971,0.326602 -0.481989,0.494109 -0.808592,0.374138 -0.326601,-0.119971 -0.494109,-0.481989 -0.374138,-0.808591 z m 1.365207,2.950499 c 0.11997,-0.326602 0.48199,-0.49411 0.808591,-0.374139 0.326603,0.119971 0.494109,0.48199 0.374139,0.808592 -0.119971,0.326602 -0.481989,0.494109 -0.808592,0.374138 -0.326601,-0.119971 -0.49411,-0.481989 -0.374138,-0.808591 z m -0.291018,-1.69156 c 0.119971,-0.326601 0.48199,-0.494109 0.808592,-0.374138 0.326602,0.119971 0.494109,0.48199 0.374138,0.808591 -0.119971,0.326603 -0.481989,0.49411 -0.808591,0.374139 -0.326602,-0.119971 -0.49411,-0.481989 -0.374139,-0.808592 z m 1.133729,-1.648404 c 0.119971,-0.326602 0.48199,-0.49411 0.808592,-0.374139 0.326602,0.119971 0.494109,0.48199 0.374138,0.808592 -0.119971,0.326602 -0.481989,0.494109 -0.808591,0.374138 -0.326602,-0.119971 -0.49411,-0.481989 -0.374139,-0.808591 z" inkscape:connector-curvature="0" class="ignored"/>
  </g>
</svg>
