<!--?xml version="1.0" encoding="UTF-8" standalone="no"?--><!-- Created with Inkscape (http://www.inkscape.org/) --><svg xmlns:dc="http://purl.org/dc/elements/1.1/" xmlns:cc="http://creativecommons.org/ns#" xmlns:rdf="http://www.w3.org/1999/02/22-rdf-syntax-ns#" xmlns:svg="http://www.w3.org/2000/svg" xmlns="http://www.w3.org/2000/svg" xlink="http://www.w3.org/1999/xlink" xmlns:sodipodi="http://sodipodi.sourceforge.net/DTD/sodipodi-0.dtd" xmlns:inkscape="http://www.inkscape.org/namespaces/inkscape" width="100%" height="100%" viewBox="0 0 90 90" id="svg2" version="1.1" inkscape:version="0.48.4 r9939" sodipodi:docname="poofy-collar.svg" class="poofy-collar" data-z="800" data-slots="pauldron" data-tags="pauldron">
  <defs id="defs4">
    <inkscape:path-effect effect="sketch" id="path-effect5121-4" is_visible="true" nbiter_approxstrokes="3" strokelength="1" strokelength_rdm="0;1" strokeoverlap="0.1" strokeoverlap_rdm="0;1" ends_tolerance="0.9;1" parallel_offset="0.9;1" tremble_size="1.5;1" tremble_frequency="0.01" nbtangents="0" tgt_places_rdmness="1;1" tgtscale="10.5" tgtlength="100" tgtlength_rdm="0.1;1"/>
    <inkscape:path-effect effect="sketch" id="path-effect5121-7" is_visible="true" nbiter_approxstrokes="3" strokelength="1" strokelength_rdm="0;1" strokeoverlap="0.1" strokeoverlap_rdm="0;1" ends_tolerance="0.9;1" parallel_offset="0.9;1" tremble_size="1.5;1" tremble_frequency="0.01" nbtangents="0" tgt_places_rdmness="1;1" tgtscale="10.5" tgtlength="100" tgtlength_rdm="0.1;1"/>
    <inkscape:path-effect effect="sketch" id="path-effect5257" is_visible="true" nbiter_approxstrokes="2" strokelength="1" strokelength_rdm="0.1;1" strokeoverlap="0" strokeoverlap_rdm="0;1" ends_tolerance="0;1" parallel_offset="0.8;1" tremble_size="0.7;1" tremble_frequency="1" nbtangents="0" tgt_places_rdmness="1;1" tgtscale="10" tgtlength="100" tgtlength_rdm="0.3;1"/>
    <linearGradient inkscape:collect="always" href="#linearGradient5728-3" id="linearGradient5483" gradientUnits="userSpaceOnUse" x1="945" y1="310.2579" x2="945" y2="388.79999" gradientTransform="translate(-1170,962.35973)"/>
    <linearGradient id="linearGradient5728-3">
      <stop style="stop-color:#000000;stop-opacity:1;" offset="0" id="stop5730-7"/>
      <stop style="stop-color:#000000;stop-opacity:0;" offset="1" id="stop5732-3"/>
    </linearGradient>
    <inkscape:path-effect effect="sketch" id="path-effect6957" is_visible="true" nbiter_approxstrokes="1" strokelength="2" strokelength_rdm="0.2;1" strokeoverlap="0" strokeoverlap_rdm="0;1" ends_tolerance="0;1" parallel_offset="0.1;1" tremble_size="0.6;1" tremble_frequency="2.51" nbtangents="0" tgt_places_rdmness="1;1" tgtscale="10" tgtlength="100" tgtlength_rdm="0.3;1"/>
  </defs>
  <sodipodi:namedview id="base" pagecolor="#ffffff" bordercolor="#666666" borderopacity="1.0" inkscape:pageopacity="0.0" inkscape:pageshadow="2" inkscape:zoom="2.8222064" inkscape:cx="209.18939" inkscape:cy="-36.807904" inkscape:document-units="in" inkscape:current-layer="svg2" showgrid="false" units="in" inkscape:window-width="1920" inkscape:window-height="1017" inkscape:window-x="-8" inkscape:window-y="-8" inkscape:window-maximized="1">
    <inkscape:grid type="xygrid" id="grid2994" empspacing="5" visible="true" enabled="true" snapvisiblegridlinesonly="true" units="in" spacingx="0.014in" spacingy="0.014in"/>
  </sodipodi:namedview>
  <metadata id="metadata7">
    <rdf:rdf>
      <cc:work rdf:about="">
        <dc:format>image/svg+xml</dc:format>
        <dc:type rdf:resource="http://purl.org/dc/dcmitype/StillImage"/>
        <dc:title/>
      </cc:work>
    </rdf:rdf>
  </metadata>
  <g inkscape:label="Body" inkscape:groupmode="layer" id="layer1" class="poof" transform="translate(0,-962.35975)" style="display:inline">
    <path style="fill:#ffffff;fill-opacity:1;stroke:#000000;stroke-width:2.25;stroke-linecap:butt;stroke-linejoin:miter;stroke-miterlimit:4;stroke-opacity:1;stroke-dasharray:none" d="m 21.6,1012.7598 c 0,0 -1.9198,-3.1048 -3.52448,-3.6 -2.9234,-0.9021 -6.76568,-0.2899 -9,1.8 -0.90785,0.8492 -0.97367,3.6 -0.97367,3.6 0,0 -3.48086,1.8811 -3.92612,3.6 -0.4758,1.8367 0.48229,4.0349 1.8,5.4 1.19201,1.2349 4.82427,1.8 4.82427,1.8 0,0 -0.26099,2.7186 0.57573,3.6 1.97705,2.0824 5.76423,2.8815 8.42427,1.8 2.00405,-0.8148 3.6,-5.4 3.6,-5.4 0,0 2.67198,0.7608 3.6,0 2.36599,-1.9396 3.14415,-6.2517 1.8,-9 -1.1789,-2.4104 -7.2,-3.6 -7.2,-3.6 z" id="path5986" inkscape:connector-curvature="0" sodipodi:nodetypes="caacaacaacaac"/>
    <path style="fill:#ffffff;fill-opacity:1;stroke:#000000;stroke-width:2.25;stroke-linecap:butt;stroke-linejoin:miter;stroke-miterlimit:4;stroke-opacity:1;stroke-dasharray:none" d="m 68.42656,1012.7598 c 0,0 1.9198,-3.1048 3.52448,-3.6 2.9234,-0.9021 6.76568,-0.2899 8.999998,1.8 0.90785,0.8492 0.97367,3.6 0.97367,3.6 0,0 3.48086,1.8811 3.92612,3.6 0.4758,1.8367 -0.48229,4.0349 -1.8,5.4 -1.19201,1.2349 -4.824268,1.8 -4.824268,1.8 0,0 0.26099,2.7186 -0.57573,3.6 -1.97705,2.0824 -5.76423,2.8815 -8.42427,1.8 -2.00405,-0.8148 -3.6,-5.4 -3.6,-5.4 0,0 -2.67198,0.7608 -3.6,0 -2.36599,-1.9396 -3.14415,-6.2517 -1.8,-9 1.1789,-2.4104 7.2,-3.6 7.2,-3.6 z" id="path5986-2" inkscape:connector-curvature="0" sodipodi:nodetypes="caacaacaacaac"/>
  </g>
</svg>
