<!--?xml version="1.0" encoding="UTF-8" standalone="no"?--><!-- Created with Inkscape (http://www.inkscape.org/) --><svg xmlns:dc="http://purl.org/dc/elements/1.1/" xmlns:cc="http://creativecommons.org/ns#" xmlns:rdf="http://www.w3.org/1999/02/22-rdf-syntax-ns#" xmlns:svg="http://www.w3.org/2000/svg" xmlns="http://www.w3.org/2000/svg" xlink="http://www.w3.org/1999/xlink" xmlns:sodipodi="http://sodipodi.sourceforge.net/DTD/sodipodi-0.dtd" xmlns:inkscape="http://www.inkscape.org/namespaces/inkscape" width="100%" height="100%" viewBox="0 0 90 90" id="svg2" version="1.1" inkscape:version="0.48.4 r9939" sodipodi:docname="C:\git\dougrich.net\token-builder\token-builder-content\template.svg" class="ragged-shirt" data-z="500" data-slots="clothing" data-tags="clothing">
  <defs id="defs4">
    <linearGradient id="linearGradient5737">
      <stop style="stop-color:#000000;stop-opacity:1;" offset="0" id="stop5739"/>
      <stop style="stop-color:#000000;stop-opacity:0;" offset="1" id="stop5741"/>
    </linearGradient>
    <linearGradient inkscape:collect="always" href="#linearGradient5728" id="linearGradient5734" x1="945" y1="310.2579" x2="945" y2="388.79999" gradientUnits="userSpaceOnUse"/>
    <linearGradient inkscape:collect="always" id="linearGradient5728">
      <stop style="stop-color:#000000;stop-opacity:1;" offset="0" id="stop5730"/>
      <stop style="stop-color:#000000;stop-opacity:0;" offset="1" id="stop5732"/>
    </linearGradient>
  </defs>
  <sodipodi:namedview id="base" pagecolor="#ffffff" bordercolor="#666666" borderopacity="1.0" inkscape:pageopacity="0.0" inkscape:pageshadow="2" inkscape:zoom="0.99780064" inkscape:cx="622.81693" inkscape:cy="-31.311182" inkscape:document-units="in" inkscape:current-layer="layer1" showgrid="false" units="in" inkscape:window-width="1920" inkscape:window-height="511" inkscape:window-x="-9" inkscape:window-y="-9" inkscape:window-maximized="1">
    <inkscape:grid type="xygrid" id="grid2994" empspacing="5" visible="true" enabled="true" snapvisiblegridlinesonly="true" units="in" spacingx="0.014in" spacingy="0.014in"/>
  </sodipodi:namedview>
  <metadata id="metadata7">
    <rdf:rdf>
      <cc:work rdf:about="">
        <dc:format>image/svg+xml</dc:format>
        <dc:type rdf:resource="http://purl.org/dc/dcmitype/StillImage"/>
        <dc:title/>
      </cc:work>
    </rdf:rdf>
  </metadata>
  <g inkscape:label="Body" inkscape:groupmode="layer" id="layer1" class="shirt" transform="translate(0,-962.35975)" style="display:inline">
    <path style="fill:#ffffff;fill-opacity:1;stroke:#000000;stroke-width:2.25;stroke-linecap:round;stroke-miterlimit:4;stroke-opacity:1;stroke-dasharray:none;stroke-dashoffset:0;display:inline" d="m 9.3125,1012.0785 c 0.72532,5.5302 2.71668,10.6481 5.65625,15.0938 L 18,1025.3598 l 5.40625,3.5937 7.1875,1.8125 0,3.5938 -2.78125,4.6562 c 5.10395,2.7776 10.96785,4.3438 17.1875,4.3438 9.11569,0 17.44001,-3.4124 23.78125,-9 l -7.59375,-5.4063 7.21875,-1.7812 3.59375,-3.625 5.15625,0 c 1.77991,-3.5295 2.9966,-7.3924 3.53125,-11.4688 -3.2875,6.0812 -13.78788,8.8143 -26.78125,9.4688 0.007,0.7215 -1.23459,1.2664 -1.71875,2 -0.74156,1.1238 -1.18123,2.4197 -1.78125,3.625 -0.59793,1.201 -1.8125,2.2521 -1.8125,3.5937 0,1.3416 2.15547,2.2967 1.8125,3.5938 -0.55317,2.092 -3.2521,3.799 -5.40625,3.5937 -0.84327,-0.08 -1.31659,-1.0945 -1.8125,-1.7812 -0.78818,-1.0916 -0.99782,-2.5301 -1.78125,-3.625 -0.9858,-1.3778 -3.31947,-1.922 -3.59375,-3.5938 -0.21646,-1.3194 1.96949,-2.2701 1.78125,-3.5937 -0.24289,-1.708 -2.71592,-2.6694 -3.5,-3.8125 C 23.55879,1020.8819 12.6,1018.1597 9.3125,1012.0785 z" id="path2989-5-1-0-1" inkscape:connector-curvature="0"/>
  </g>
</svg>
