<!--?xml version="1.0" encoding="UTF-8" standalone="no"?--><!-- Created with Inkscape (http://www.inkscape.org/) --><svg xmlns:dc="http://purl.org/dc/elements/1.1/" xmlns:cc="http://creativecommons.org/ns#" xmlns:rdf="http://www.w3.org/1999/02/22-rdf-syntax-ns#" xmlns:svg="http://www.w3.org/2000/svg" xmlns="http://www.w3.org/2000/svg" xlink="http://www.w3.org/1999/xlink" xmlns:sodipodi="http://sodipodi.sourceforge.net/DTD/sodipodi-0.dtd" xmlns:inkscape="http://www.inkscape.org/namespaces/inkscape" width="100%" height="100%" viewBox="0 0 90 90" id="svg2" version="1.1" inkscape:version="0.48.4 r9939" sodipodi:docname="C:\git\dougrich.net\token-builder\token-builder-content\template.svg" class="simple-banded-mail" data-z="500" data-slots="clothing" data-tags="clothing">
  <defs id="defs4">
    <linearGradient id="linearGradient5737">
      <stop style="stop-color:#000000;stop-opacity:1;" offset="0" id="stop5739"/>
      <stop style="stop-color:#000000;stop-opacity:0;" offset="1" id="stop5741"/>
    </linearGradient>
    <linearGradient inkscape:collect="always" href="#linearGradient5728" id="linearGradient5734" x1="945" y1="310.2579" x2="945" y2="388.79999" gradientUnits="userSpaceOnUse"/>
    <linearGradient inkscape:collect="always" id="linearGradient5728">
      <stop style="stop-color:#000000;stop-opacity:1;" offset="0" id="stop5730"/>
      <stop style="stop-color:#000000;stop-opacity:0;" offset="1" id="stop5732"/>
    </linearGradient>
  </defs>
  <sodipodi:namedview id="base" pagecolor="#ffffff" bordercolor="#666666" borderopacity="1.0" inkscape:pageopacity="0.0" inkscape:pageshadow="2" inkscape:zoom="0.99780064" inkscape:cx="622.81693" inkscape:cy="-31.311182" inkscape:document-units="in" inkscape:current-layer="layer1" showgrid="false" units="in" inkscape:window-width="1920" inkscape:window-height="511" inkscape:window-x="-9" inkscape:window-y="-9" inkscape:window-maximized="1">
    <inkscape:grid type="xygrid" id="grid2994" empspacing="5" visible="true" enabled="true" snapvisiblegridlinesonly="true" units="in" spacingx="0.014in" spacingy="0.014in"/>
  </sodipodi:namedview>
  <metadata id="metadata7">
    <rdf:rdf>
      <cc:work rdf:about="">
        <dc:format>image/svg+xml</dc:format>
        <dc:type rdf:resource="http://purl.org/dc/dcmitype/StillImage"/>
        <dc:title/>
      </cc:work>
    </rdf:rdf>
  </metadata>
  <g inkscape:label="Body" inkscape:groupmode="layer" id="layer1" class="plates" transform="translate(0,-962.35975)" style="display:inline">
    <path style="fill:#ffffff;fill-opacity:1;stroke:#000000;stroke-width:2.25;stroke-linecap:round;stroke-miterlimit:4;stroke-opacity:1;stroke-dasharray:none;stroke-dashoffset:0;display:inline" d="m 9.1875,1011.141 c 1.8869,18.1081 17.2051,32.2188 35.8125,32.2188 18.335,0 33.4743,-13.7119 35.7188,-31.4375 -7.0525,2.6459 -19.9709,4.4375 -34.8125,4.4375 -16.2818,0 -30.2853,-2.1398 -36.7188,-5.2188 z" id="path3829-1-5-74-4-9-0-7-87-0-2" inkscape:connector-curvature="0" sodipodi:nodetypes="cscsc"/>
    <g transform="translate(-900,-630.00005)" id="g5496" style="fill:none;display:inline">
      <path id="rect5215" transform="translate(0,962.35975)" d="m 918,694.125 0,4.6875 c 2.57665,2.91805 5.60803,5.41498 9,7.375 l 0,-12.0625 -9,0 z" style="fill:none;stroke:#000000;stroke-width:2.25;stroke-linecap:butt;stroke-linejoin:miter;stroke-miterlimit:4;stroke-opacity:1;stroke-dasharray:none;stroke-dashoffset:0" inkscape:connector-curvature="0"/>
      <path id="rect5215-7" transform="translate(0,962.35975)" d="m 927,694.125 0,12.0625 c 2.78461,1.60907 5.80892,2.8667 9,3.6875 l 0,-15.75 -9,0 z" style="fill:none;stroke:#000000;stroke-width:2.25;stroke-linecap:butt;stroke-linejoin:miter;stroke-miterlimit:4;stroke-opacity:1;stroke-dasharray:none;stroke-dashoffset:0" inkscape:connector-curvature="0"/>
      <path id="rect5215-79" transform="translate(0,962.35975)" d="m 936,694.125 0,15.75 c 2.87668,0.73994 5.89263,1.125 9,1.125 l 0,-16.875 -9,0 z" style="fill:none;stroke:#000000;stroke-width:2.25;stroke-linecap:butt;stroke-linejoin:miter;stroke-miterlimit:4;stroke-opacity:1;stroke-dasharray:none;stroke-dashoffset:0" inkscape:connector-curvature="0"/>
      <path id="rect5215-7-3" transform="translate(0,962.35975)" d="M 945,694.125 945,711 c 3.11306,0 6.11866,-0.41315 9,-1.15625 l 0,-15.71875 -9,0 z" style="fill:none;stroke:#000000;stroke-width:2.25;stroke-linecap:butt;stroke-linejoin:miter;stroke-miterlimit:4;stroke-opacity:1;stroke-dasharray:none;stroke-dashoffset:0" inkscape:connector-curvature="0"/>
      <path id="rect5215-1" transform="translate(0,962.35975)" d="m 954,694.125 0,15.71875 c 3.19014,-0.82274 6.21654,-2.07645 9,-3.6875 l 0,-12.03125 -9,0 z" style="fill:none;stroke:#000000;stroke-width:2.25;stroke-linecap:butt;stroke-linejoin:miter;stroke-miterlimit:4;stroke-opacity:1;stroke-dasharray:none;stroke-dashoffset:0" inkscape:connector-curvature="0"/>
      <path id="rect5215-7-9" transform="translate(0,962.35975)" d="m 963,694.125 0,12.03125 c 3.38481,-1.9591 6.42772,-4.43005 9,-7.34375 l 0,-4.6875 -9,0 z" style="fill:none;stroke:#000000;stroke-width:2.25;stroke-linecap:butt;stroke-linejoin:miter;stroke-miterlimit:4;stroke-opacity:1;stroke-dasharray:none;stroke-dashoffset:0" inkscape:connector-curvature="0"/>
      <path id="rect5215-79-8" transform="translate(0,962.35975)" d="m 972,694.125 0,4.6875 c 1.29101,-1.46237 2.4575,-3.0285 3.5,-4.6875 l -3.5,0 z" style="fill:none;stroke:#000000;stroke-width:2.25;stroke-linecap:butt;stroke-linejoin:miter;stroke-miterlimit:4;stroke-opacity:1;stroke-dasharray:none;stroke-dashoffset:0" inkscape:connector-curvature="0"/>
      <path id="rect5215-7-0" transform="translate(0,962.35975)" d="m 914.5,694.125 c 1.04251,1.659 2.20884,3.22526 3.5,4.6875 l 0,-4.6875 -3.5,0 z" style="fill:none;stroke:#000000;stroke-width:2.25;stroke-linecap:butt;stroke-linejoin:miter;stroke-miterlimit:4;stroke-opacity:1;stroke-dasharray:none;stroke-dashoffset:0" inkscape:connector-curvature="0"/>
      <path id="rect5215-2" transform="translate(0,962.35975)" d="m 918,681.5 0,12.625 9,0 0,-11.15625 c -3.30191,-0.38964 -6.3203,-0.89934 -9,-1.46875 z" style="fill:none;stroke:#000000;stroke-width:2.25;stroke-linecap:butt;stroke-linejoin:miter;stroke-miterlimit:4;stroke-opacity:1;stroke-dasharray:none;stroke-dashoffset:0" inkscape:connector-curvature="0"/>
      <path id="rect5215-7-8" transform="translate(0,962.35975)" d="m 927,682.96875 0,11.15625 9,0 0,-10.40625 c -3.15421,-0.1775 -6.19091,-0.41851 -9,-0.75 z" style="fill:none;stroke:#000000;stroke-width:2.25;stroke-linecap:butt;stroke-linejoin:miter;stroke-miterlimit:4;stroke-opacity:1;stroke-dasharray:none;stroke-dashoffset:0" inkscape:connector-curvature="0"/>
      <path id="rect5215-79-6" transform="translate(0,962.35975)" d="m 936,683.71875 0,10.40625 9,0 0,-10.125 c -3.10874,-0.0154 -6.10398,-0.11828 -9,-0.28125 z" style="fill:none;stroke:#000000;stroke-width:2.25;stroke-linecap:butt;stroke-linejoin:miter;stroke-miterlimit:4;stroke-opacity:1;stroke-dasharray:none;stroke-dashoffset:0" inkscape:connector-curvature="0"/>
      <path id="rect5215-7-3-0" transform="translate(0,962.35975)" d="m 954,683.8125 c -2.62139,0.11977 -5.31118,0.1875 -8.09375,0.1875 -0.30733,0 -0.60058,0.002 -0.90625,0 l 0,10.125 9,0 0,-10.3125 z" style="fill:none;stroke:#000000;stroke-width:2.25;stroke-linecap:butt;stroke-linejoin:miter;stroke-miterlimit:4;stroke-opacity:1;stroke-dasharray:none;stroke-dashoffset:0" inkscape:connector-curvature="0"/>
      <path id="rect5215-1-2" transform="translate(0,962.35975)" d="m 963,683.125 c -2.83732,0.29771 -5.8466,0.54342 -9,0.6875 l 0,10.3125 9,0 0,-11 z" style="fill:none;stroke:#000000;stroke-width:2.25;stroke-linecap:butt;stroke-linejoin:miter;stroke-miterlimit:4;stroke-opacity:1;stroke-dasharray:none;stroke-dashoffset:0" inkscape:connector-curvature="0"/>
      <path id="rect5215-7-9-4" transform="translate(0,962.35975)" d="m 972,681.84375 c -2.7161,0.51492 -5.73737,0.93891 -9,1.28125 l 0,11 9,0 0,-12.28125 z" style="fill:none;stroke:#000000;stroke-width:2.25;stroke-linecap:butt;stroke-linejoin:miter;stroke-miterlimit:4;stroke-opacity:1;stroke-dasharray:none;stroke-dashoffset:0" inkscape:connector-curvature="0"/>
      <path id="rect5215-79-8-8" transform="translate(0,962.35975)" d="m 980.71875,679.5625 c -2.31066,0.8669 -5.28737,1.63073 -8.71875,2.28125 l 0,12.28125 3.5,0 c 2.71591,-4.322 4.5479,-9.26436 5.21875,-14.5625 z" style="fill:none;stroke:#000000;stroke-width:2.25;stroke-linecap:butt;stroke-linejoin:miter;stroke-miterlimit:4;stroke-opacity:1;stroke-dasharray:none;stroke-dashoffset:0" inkscape:connector-curvature="0"/>
      <path id="rect5215-7-0-0" transform="translate(0,962.35975)" d="m 909.1875,678.78125 c 0.5831,5.59591 2.46338,10.80979 5.3125,15.34375 l 3.5,0 0,-12.625 c -3.64506,-0.77454 -6.66176,-1.68943 -8.8125,-2.71875 z" style="fill:none;stroke:#000000;stroke-width:2.25;stroke-linecap:butt;stroke-linejoin:miter;stroke-miterlimit:4;stroke-opacity:1;stroke-dasharray:none;stroke-dashoffset:0" inkscape:connector-curvature="0"/>
    </g>
  </g>
</svg>
