<!--?xml version="1.0" encoding="UTF-8" standalone="no"?--><!-- Created with Inkscape (http://www.inkscape.org/) --><svg xmlns:dc="http://purl.org/dc/elements/1.1/" xmlns:cc="http://creativecommons.org/ns#" xmlns:rdf="http://www.w3.org/1999/02/22-rdf-syntax-ns#" xmlns:svg="http://www.w3.org/2000/svg" xmlns="http://www.w3.org/2000/svg" xmlns:sodipodi="http://sodipodi.sourceforge.net/DTD/sodipodi-0.dtd" xmlns:inkscape="http://www.inkscape.org/namespaces/inkscape" width="100%" height="100%" viewBox="0 0 90 90" id="svg2" version="1.1" inkscape:version="0.48.4 r9939" sodipodi:docname="C:\git\dougrich.net\token-builder\token-builder-content\template.svg" class="single-braid" data-z="900" data-slots="hair" data-tags="hair">
  <defs id="defs4"/>
  <sodipodi:namedview id="base" pagecolor="#ffffff" bordercolor="#666666" borderopacity="1.0" inkscape:pageopacity="0.0" inkscape:pageshadow="2" inkscape:zoom="0.72092901" inkscape:cx="-135.66267" inkscape:cy="63.138865" inkscape:document-units="in" inkscape:current-layer="layer1" showgrid="false" units="in" inkscape:window-width="1920" inkscape:window-height="1003" inkscape:window-x="-9" inkscape:window-y="-9" inkscape:window-maximized="1">
    <inkscape:grid type="xygrid" id="grid2994" empspacing="5" visible="true" enabled="true" snapvisiblegridlinesonly="true" units="in" spacingx="0.014in" spacingy="0.014in"/>
  </sodipodi:namedview>
  <metadata id="metadata7">
    <rdf:rdf>
      <cc:work rdf:about="">
        <dc:format>image/svg+xml</dc:format>
        <dc:type rdf:resource="http://purl.org/dc/dcmitype/StillImage"/>
        <dc:title/>
      </cc:work>
    </rdf:rdf>
  </metadata>
  <g inkscape:label="Body" inkscape:groupmode="layer" id="layer1" class="hair" transform="translate(0,-962.35975)" style="display:inline">
    <path sodipodi:nodetypes="sssssssssssssssssssssssssssssssssssssssssssss" inkscape:connector-curvature="0" id="path3930-1" d="m 41.40625,967.766 c -3.61257,-0.5402 -7.30647,0.7564 -10.8125,1.7813 -4.38488,1.2817 -8.8116,2.8439 -12.59375,5.4062 -2.10993,1.4294 -3.9161,3.3388 -5.40625,5.4063 -1.56622,2.173 -3.40294,4.5156 -3.59375,7.1875 -0.13544,1.8964 0.55475,3.9757 1.8,5.4125 0.87869,1.0138 2.27563,1.5854 3.6,1.8 4.18831,0.6786 8.47038,-0.8323 12.6,-1.8063 3.69659,-0.8719 7.40107,-1.9243 10.8125,-3.5938 1.93586,-0.9473 4.06644,-1.8812 5.375,-3.5937 1.15399,-1.5102 0.81186,-3.7903 1.8125,-5.4062 0.008,-0.013 0.0165,-0.031 0.0312,-0.031 0.0147,0 0.0235,0.019 0.0312,0.031 0.99471,1.6157 0.63116,3.8971 1.78125,5.4062 1.31164,1.7211 3.46133,2.6452 5.40625,3.5938 3.41366,1.6649 7.06325,2.987 10.8125,3.5937 2.3445,0.3794 5.25301,-1.4616 7.125,0 0.88017,0.6872 0.0552,2.4294 0.8125,3.25 0.66352,0.7189 2.29012,0.091 2.78125,0.9375 0.86863,1.4965 -0.98206,3.3635 -1,5.0938 -0.0201,1.935 -0.11546,4.1374 1,5.7187 0.57271,0.8119 2.30397,0.5184 2.59375,1.4688 0.39401,1.2922 -1.48304,2.3148 -1.8125,3.625 -0.43712,1.7383 -0.98382,3.785 -0.15625,5.375 0.87505,1.6811 2.87707,3.415 4.75,3.125 1.40512,-0.2176 1.54312,-2.4687 2.6875,-3.3125 1.46343,-1.0792 4.00176,-0.5545 5.0625,-2.0313 0.96777,-1.3474 0.61942,-3.3447 0.28125,-4.9687 -0.27349,-1.3135 -1.02614,-2.5068 -1.8125,-3.5938 -0.50079,-0.6923 -1.78309,-0.9586 -1.8125,-1.8125 -0.0442,-1.2839 2.36924,-1.6318 2.53125,-2.9062 0.17037,-1.3402 -1.01914,-2.5316 -1.8125,-3.625 -0.68778,-0.948 -2.28441,-1.3176 -2.5,-2.4688 -0.24375,-1.3016 1.65525,-2.3012 1.625,-3.625 -0.0307,-1.3413 -1.31534,-2.3476 -1.8125,-3.5937 -0.2882,-0.7224 -0.41743,-1.4995 -0.67188,-2.2344 -0.36799,-1.0629 -0.74483,-2.1279 -1.23437,-3.1406 -0.65005,-1.3448 -1.341,-2.6899 -2.25,-3.875 -1.54654,-2.0164 -3.27259,-3.9789 -5.375,-5.4063 -3.78751,-2.5714 -8.23065,-4.1228 -12.625,-5.4062 -3.49639,-1.0212 -7.17872,-2.3192 -10.78125,-1.7813 -1.32233,0.1974 -2.50777,1.0014 -3.59375,1.7813 -0.012,0.01 -0.0165,0.031 -0.0312,0.031 -0.0147,0 -0.0193,-0.023 -0.0312,-0.031 -1.08598,-0.7799 -2.27146,-1.5836 -3.59375,-1.7813 z" style="fill:#ffffff;fill-opacity:1;stroke:#000000;stroke-width:4.5;stroke-linecap:butt;stroke-linejoin:miter;stroke-miterlimit:4;stroke-opacity:1;stroke-dasharray:none;display:inline"/>
  </g>
</svg>
