<!--?xml version="1.0" encoding="UTF-8" standalone="no"?--><!--?xml version="1.0" encoding="UTF-8" standalone="no"?--><!--?xml version="1.0" encoding="UTF-8" standalone="no"?--><!-- Created with Inkscape (http://www.inkscape.org/) --><svg xmlns:dc="http://purl.org/dc/elements/1.1/" xmlns:cc="http://creativecommons.org/ns#" xmlns:rdf="http://www.w3.org/1999/02/22-rdf-syntax-ns#" xmlns:svg="http://www.w3.org/2000/svg" xmlns="http://www.w3.org/2000/svg" xmlns:sodipodi="http://sodipodi.sourceforge.net/DTD/sodipodi-0.dtd" xmlns:inkscape="http://www.inkscape.org/namespaces/inkscape" width="100%" height="100%" viewBox="0 0 90 90" id="svg2" version="1.1" inkscape:version="0.92.3 (2405546, 2018-03-11)" sodipodi:docname="small-antlers-ribbons.svg" class="small-horns" data-z="1000" data-slots="hat" data-tags="animals+hat">
  <defs id="defs4"/>
  <sodipodi:namedview id="base" pagecolor="#ffffff" bordercolor="#666666" borderopacity="1.0" inkscape:pageopacity="0.0" inkscape:pageshadow="2" inkscape:zoom="31.92962" inkscape:cx="40.542781" inkscape:cy="81.68604" inkscape:document-units="in" inkscape:current-layer="layer2" showgrid="false" units="in" inkscape:window-width="3773" inkscape:window-height="2105" inkscape:window-x="67" inkscape:window-y="27" inkscape:window-maximized="1" showguides="false">
    <inkscape:grid type="xygrid" id="grid2994" empspacing="5" visible="true" enabled="true" snapvisiblegridlinesonly="true" units="in" spacingx="1.344" spacingy="1.344" originx="0" originy="0"/>
  </sodipodi:namedview>
  <metadata id="metadata7">
    <rdf:rdf>
      <cc:work rdf:about="">
        <dc:format>image/svg+xml</dc:format>
        <dc:type rdf:resource="http://purl.org/dc/dcmitype/StillImage"/>
        <dc:title/>
      </cc:work>
    </rdf:rdf>
    <rdf:rdf>
      <cc:work rdf:about="">
        <dc:format>image/svg+xml</dc:format>
        <dc:type rdf:resource="http://purl.org/dc/dcmitype/StillImage"/>
        <dc:title/>
      </cc:work>
    </rdf:rdf>
    <rdf:rdf>
      <cc:work rdf:about="">
        <dc:format>image/svg+xml</dc:format>
        <dc:type rdf:resource="http://purl.org/dc/dcmitype/StillImage"/>
        <dc:title/>
      </cc:work>
    </rdf:rdf>
  </metadata>
  <g inkscape:label="Body" inkscape:groupmode="layer" id="layer1" class="horns" transform="translate(0,-962.35975)" style="display:inline" sodipodi:insensitive="true">
    <path style="color:#000000;font-style:normal;font-variant:normal;font-weight:normal;font-stretch:normal;font-size:medium;line-height:normal;font-family:sans-serif;font-variant-ligatures:normal;font-variant-position:normal;font-variant-caps:normal;font-variant-numeric:normal;font-variant-alternates:normal;font-feature-settings:normal;text-indent:0;text-align:start;text-decoration:none;text-decoration-line:none;text-decoration-style:solid;text-decoration-color:#000000;letter-spacing:normal;word-spacing:normal;text-transform:none;writing-mode:lr-tb;direction:ltr;text-orientation:mixed;dominant-baseline:auto;baseline-shift:baseline;text-anchor:start;white-space:normal;shape-padding:0;clip-rule:nonzero;display:inline;overflow:visible;visibility:visible;opacity:1;isolation:auto;mix-blend-mode:normal;color-interpolation:sRGB;color-interpolation-filters:linearRGB;solid-color:#000000;solid-opacity:1;vector-effect:none;fill:#ffffff;fill-opacity:1;fill-rule:nonzero;stroke:#000000;stroke-width:2.25;stroke-linecap:round;stroke-linejoin:miter;stroke-miterlimit:4;stroke-dasharray:none;stroke-dashoffset:0;stroke-opacity:1;color-rendering:auto;image-rendering:auto;shape-rendering:auto;text-rendering:auto;enable-background:accumulate" d="m 32.565201,982.43708 c -1.279494,-3.18522 -3.586398,-5.25345 -5.511112,-6.52166 0.63833,-1.0967 0.948852,-2.28949 0.939959,-3.3805 -0.01765,-2.16639 -0.782741,-3.91064 -2.173657,-5.16358 -1.004271,-0.9312 -2.57929,-0.84899 -3.481147,0.18172 -0.883216,1.00963 -0.781309,2.54394 0.227676,3.42789 0.0016,0.002 0.562437,0.90662 0.568041,1.59428 0.0046,0.56593 -0.06532,0.99877 -0.759153,1.50442 -0.665848,-0.0552 -1.794839,-0.20945 -3.03418,-0.7139 -1.890335,-0.76944 -3.660152,-1.99693 -4.251867,-5.23006 -0.330904,-1.95788 -2.742945,-2.71399 -4.132293,-1.29536 -0.560991,0.57252 -0.803575,1.38486 -0.648391,2.17125 0.899045,4.91238 4.297125,7.67389 7.199714,8.85535 2.095229,0.85284 4.032296,1.04435 4.967586,1.08978 0.676231,0.28984 4.231514,1.93383 5.58055,5.29218" id="path842" inkscape:connector-curvature="0" sodipodi:nodetypes="ccccccccccccccc"/>
    <path style="color:#000000;font-style:normal;font-variant:normal;font-weight:normal;font-stretch:normal;font-size:medium;line-height:normal;font-family:sans-serif;font-variant-ligatures:normal;font-variant-position:normal;font-variant-caps:normal;font-variant-numeric:normal;font-variant-alternates:normal;font-feature-settings:normal;text-indent:0;text-align:start;text-decoration:none;text-decoration-line:none;text-decoration-style:solid;text-decoration-color:#000000;letter-spacing:normal;word-spacing:normal;text-transform:none;writing-mode:lr-tb;direction:ltr;text-orientation:mixed;dominant-baseline:auto;baseline-shift:baseline;text-anchor:start;white-space:normal;shape-padding:0;clip-rule:nonzero;display:inline;overflow:visible;visibility:visible;opacity:1;isolation:auto;mix-blend-mode:normal;color-interpolation:sRGB;color-interpolation-filters:linearRGB;solid-color:#000000;solid-opacity:1;vector-effect:none;fill:#ffffff;fill-opacity:1;fill-rule:nonzero;stroke:#000000;stroke-width:2.25;stroke-linecap:round;stroke-linejoin:miter;stroke-miterlimit:4;stroke-dasharray:none;stroke-dashoffset:0;stroke-opacity:1;color-rendering:auto;image-rendering:auto;shape-rendering:auto;text-rendering:auto;enable-background:accumulate" d="m 54.822102,982.43708 c 1.279494,-3.18522 3.586398,-5.25345 5.511112,-6.52166 -0.63833,-1.0967 -0.948852,-2.28949 -0.939959,-3.3805 0.01765,-2.16639 0.782741,-3.91064 2.173657,-5.16358 1.004271,-0.9312 2.57929,-0.84899 3.481147,0.18172 0.883216,1.00963 0.781309,2.54394 -0.227676,3.42789 -0.0016,0.002 -0.562437,0.90662 -0.568041,1.59428 -0.0046,0.56593 0.06532,0.99877 0.759153,1.50442 0.665848,-0.0552 1.794839,-0.20945 3.03418,-0.7139 1.890335,-0.76944 3.660152,-1.99693 4.251867,-5.23006 0.330904,-1.95788 2.742945,-2.71399 4.132293,-1.29536 0.560991,0.57252 0.803575,1.38486 0.648391,2.17125 -0.899045,4.91238 -4.297125,7.67389 -7.199714,8.85535 -2.095229,0.85284 -4.032296,1.04435 -4.967586,1.08978 -0.676231,0.28984 -4.231514,1.93383 -5.58055,5.29218" id="path842-3" inkscape:connector-curvature="0" sodipodi:nodetypes="ccccccccccccccc"/>
  </g>
  <g inkscape:groupmode="layer" id="layer2" class="ribbons" inkscape:label="ribbons">
    <path style="color:#000000;font-style:normal;font-variant:normal;font-weight:normal;font-stretch:normal;font-size:medium;line-height:normal;font-family:sans-serif;font-variant-ligatures:normal;font-variant-position:normal;font-variant-caps:normal;font-variant-numeric:normal;font-variant-alternates:normal;font-feature-settings:normal;text-indent:0;text-align:start;text-decoration:none;text-decoration-line:none;text-decoration-style:solid;text-decoration-color:#000000;letter-spacing:normal;word-spacing:normal;text-transform:none;writing-mode:lr-tb;direction:ltr;text-orientation:mixed;dominant-baseline:auto;baseline-shift:baseline;text-anchor:start;white-space:normal;shape-padding:0;clip-rule:nonzero;display:inline;overflow:visible;visibility:visible;opacity:1;isolation:auto;mix-blend-mode:normal;color-interpolation:sRGB;color-interpolation-filters:linearRGB;solid-color:#000000;solid-opacity:1;vector-effect:none;fill:#ffffff;fill-opacity:1;fill-rule:nonzero;stroke:#000000;stroke-width:2.20799994;stroke-linecap:butt;stroke-linejoin:miter;stroke-miterlimit:4;stroke-dasharray:none;stroke-dashoffset:0;stroke-opacity:1;color-rendering:auto;image-rendering:auto;shape-rendering:auto;text-rendering:auto;enable-background:accumulate;font-variant-east_asian:normal" d="M 15.482422,7.1972656 C 15.28193,7.307193 15.102684,7.4520455 14.953125,7.625 l -4.875,5.474609 c -0.1799678,0.15723 -0.3290047,0.346672 -0.4394531,0.558594 -0.9208267,1.233354 -1.3191148,2.478901 -1.6953125,3.287109 -0.4079222,0.876365 -0.5543613,1.122431 -1.1757813,1.324219 -1.4440505,0.468913 -2.0200352,1.589034 -2.4472656,2.574219 -0.4272304,0.985185 -0.6860271,2.046542 -0.8808594,3.0625 -0.0504,0.262811 -0.083979,0.5056 -0.125,0.759766 l 2.9710844,2.11637 c 0.7250765,-0.962359 0.7355204,-1.163347 0.9254,-2.15348 0.2176088,-1.132059 0.3949079,-1.767665 0.7421875,-2.707031 1.6996629,-0.745749 2.88055,-2.113595 3.591797,-3.625 1.004935,0.991143 2.295164,1.993373 3.80664,2.808594 1.612125,0.869504 3.46719,1.534863 5.460938,1.580078 1.943904,0.04408 4.033259,-0.598254 5.728516,-2.140625 l 4.341796,-3.429688 c -0.840851,-1.120099 -1.788881,-2.024096 -2.716796,-2.75 -1.374339,1.08592 -2.780629,2.195476 -4.136719,3.28125 -0.993158,0.942461 -1.966293,1.227539 -3.128906,1.201172 -1.162614,-0.02637 -2.496586,-0.459654 -3.726563,-1.123047 -1.229977,-0.663392 -2.351184,-1.549654 -3.089844,-2.30664 -0.180391,-0.184868 -0.335118,-0.362448 -0.464843,-0.521485 l 4.18164,-4.693359 C 16.837927,9.5659788 16.008943,8.645674 15.482422,7.1972656 Z" id="path837" inkscape:connector-curvature="0" sodipodi:nodetypes="ccccssssccccccccccccscccc"/>
    <path style="color:#000000;font-style:normal;font-variant:normal;font-weight:normal;font-stretch:normal;font-size:medium;line-height:normal;font-family:sans-serif;font-variant-ligatures:normal;font-variant-position:normal;font-variant-caps:normal;font-variant-numeric:normal;font-variant-alternates:normal;font-feature-settings:normal;text-indent:0;text-align:start;text-decoration:none;text-decoration-line:none;text-decoration-style:solid;text-decoration-color:#000000;letter-spacing:normal;word-spacing:normal;text-transform:none;writing-mode:lr-tb;direction:ltr;text-orientation:mixed;dominant-baseline:auto;baseline-shift:baseline;text-anchor:start;white-space:normal;shape-padding:0;clip-rule:nonzero;display:inline;overflow:visible;visibility:visible;opacity:1;isolation:auto;mix-blend-mode:normal;color-interpolation:sRGB;color-interpolation-filters:linearRGB;solid-color:#000000;solid-opacity:1;vector-effect:none;fill:#ffffff;fill-opacity:1;fill-rule:nonzero;stroke:#000000;stroke-width:2.20799994;stroke-linecap:butt;stroke-linejoin:miter;stroke-miterlimit:4;stroke-dasharray:none;stroke-dashoffset:0;stroke-opacity:1;color-rendering:auto;image-rendering:auto;shape-rendering:auto;text-rendering:auto;enable-background:accumulate" d="m 71.880188,7.197266 c 0.200492,0.1099274 0.379738,0.2547799 0.529297,0.4277344 l 4.875,5.4746086 c 0.179968,0.15723 0.329005,0.346672 0.439453,0.558594 0.920827,1.233354 1.319115,2.478901 1.695313,3.287109 0.407922,0.876365 0.554361,1.122431 1.175781,1.324219 1.44405,0.468913 2.020035,1.589034 2.447266,2.574219 0.42723,0.985185 0.686027,2.046542 0.880859,3.0625 0.0504,0.262811 0.08398,0.5056 0.125,0.759766 l -2.971084,2.11637 c -0.725077,-0.962359 -0.735521,-1.163347 -0.9254,-2.15348 -0.217609,-1.132059 -0.394908,-1.767665 -0.742188,-2.707031 -1.699663,-0.745749 -2.88055,-2.113595 -3.591797,-3.625 -1.004935,0.991143 -2.295164,1.993373 -3.80664,2.808594 -1.612125,0.869504 -3.46719,1.534863 -5.460938,1.580078 -1.943904,0.04408 -4.033259,-0.598254 -5.728516,-2.140625 l -4.341796,-3.429688 c 0.840851,-1.120099 1.788881,-2.024096 2.716796,-2.75 1.374339,1.08592 2.780629,2.195476 4.136719,3.28125 0.993158,0.942461 1.966293,1.227539 3.128906,1.201172 1.162614,-0.02637 2.496586,-0.459654 3.726563,-1.123047 1.229977,-0.663392 2.351184,-1.549654 3.089844,-2.30664 0.180391,-0.184868 0.335118,-0.362448 0.464843,-0.521485 l -4.18164,-4.693359 c 0.962854,-0.6371458 1.791838,-1.5574506 2.318359,-3.005859 z" id="path837-9" inkscape:connector-curvature="0" sodipodi:nodetypes="ccccssssccccccccccccscccc"/>
  </g>
</svg>
