<?xml version="1.0" encoding="UTF-8" standalone="no"?>
<!--?xml version="1.0" encoding="UTF-8" standalone="no"?-->

<!-- Created with Inkscape (http://www.inkscape.org/) -->

<svg
   xmlns:dc="http://purl.org/dc/elements/1.1/"
   xmlns:cc="http://creativecommons.org/ns#"
   xmlns:rdf="http://www.w3.org/1999/02/22-rdf-syntax-ns#"
   xmlns:svg="http://www.w3.org/2000/svg"
   xmlns="http://www.w3.org/2000/svg"
   xmlns:sodipodi="http://sodipodi.sourceforge.net/DTD/sodipodi-0.dtd"
   xmlns:inkscape="http://www.inkscape.org/namespaces/inkscape"
   width="100%"
   height="100%"
   viewBox="0 0 90 90"
   id="svg2"
   version="1.1"
   inkscape:version="0.92.3 (2405546, 2018-03-11)"
   sodipodi:docname="small-antlers.svg"
   class="small-horns"
   data-z="1000"
   data-slots="hat"
   data-tags="new+hat">
  <defs
     id="defs4" />
  <sodipodi:namedview
     id="base"
     pagecolor="#ffffff"
     bordercolor="#666666"
     borderopacity="1.0"
     inkscape:pageopacity="0.0"
     inkscape:pageshadow="2"
     inkscape:zoom="22.577651"
     inkscape:cx="41.010734"
     inkscape:cy="56.337594"
     inkscape:document-units="in"
     inkscape:current-layer="layer1"
     showgrid="false"
     units="in"
     inkscape:window-width="3773"
     inkscape:window-height="2105"
     inkscape:window-x="67"
     inkscape:window-y="27"
     inkscape:window-maximized="1"
     showguides="false">
    <inkscape:grid
       type="xygrid"
       id="grid2994"
       empspacing="5"
       visible="true"
       enabled="true"
       snapvisiblegridlinesonly="true"
       units="in"
       spacingx="1.344"
       spacingy="1.344"
       originx="0"
       originy="0" />
  </sodipodi:namedview>
  <metadata
     id="metadata7">
    <rdf:rdf>
      <cc:work
         rdf:about="">
        <dc:format>image/svg+xml</dc:format>
        <dc:type
           rdf:resource="http://purl.org/dc/dcmitype/StillImage" />
        <dc:title />
      </cc:work>
    </rdf:rdf>
    <rdf:RDF>
      <cc:Work
         rdf:about="">
        <dc:format>image/svg+xml</dc:format>
        <dc:type
           rdf:resource="http://purl.org/dc/dcmitype/StillImage" />
        <dc:title></dc:title>
      </cc:Work>
    </rdf:RDF>
  </metadata>
  <g
     inkscape:label="Body"
     inkscape:groupmode="layer"
     id="layer1"
     class="horns"
     transform="translate(0,-962.35975)"
     style="display:inline">
    <path
       style="color:#000000;font-style:normal;font-variant:normal;font-weight:normal;font-stretch:normal;font-size:medium;line-height:normal;font-family:sans-serif;font-variant-ligatures:normal;font-variant-position:normal;font-variant-caps:normal;font-variant-numeric:normal;font-variant-alternates:normal;font-feature-settings:normal;text-indent:0;text-align:start;text-decoration:none;text-decoration-line:none;text-decoration-style:solid;text-decoration-color:#000000;letter-spacing:normal;word-spacing:normal;text-transform:none;writing-mode:lr-tb;direction:ltr;text-orientation:mixed;dominant-baseline:auto;baseline-shift:baseline;text-anchor:start;white-space:normal;shape-padding:0;clip-rule:nonzero;display:inline;overflow:visible;visibility:visible;opacity:1;isolation:auto;mix-blend-mode:normal;color-interpolation:sRGB;color-interpolation-filters:linearRGB;solid-color:#000000;solid-opacity:1;vector-effect:none;fill:#ffffff;fill-opacity:1;fill-rule:nonzero;stroke:#000000;stroke-width:2.25;stroke-linecap:round;stroke-linejoin:miter;stroke-miterlimit:4;stroke-dasharray:none;stroke-dashoffset:0;stroke-opacity:1;color-rendering:auto;image-rendering:auto;shape-rendering:auto;text-rendering:auto;enable-background:accumulate"
       d="m 32.565201,982.43708 c -1.279494,-3.18522 -3.586398,-5.25345 -5.511112,-6.52166 0.63833,-1.0967 0.948852,-2.28949 0.939959,-3.3805 -0.01765,-2.16639 -0.782741,-3.91064 -2.173657,-5.16358 -1.004271,-0.9312 -2.57929,-0.84899 -3.481147,0.18172 -0.883216,1.00963 -0.781309,2.54394 0.227676,3.42789 0.0016,0.002 0.562437,0.90662 0.568041,1.59428 0.0046,0.56593 -0.06532,0.99877 -0.759153,1.50442 -0.665848,-0.0552 -1.794839,-0.20945 -3.03418,-0.7139 -1.890335,-0.76944 -3.660152,-1.99693 -4.251867,-5.23006 -0.330904,-1.95788 -2.742945,-2.71399 -4.132293,-1.29536 -0.560991,0.57252 -0.803575,1.38486 -0.648391,2.17125 0.899045,4.91238 4.297125,7.67389 7.199714,8.85535 2.095229,0.85284 4.032296,1.04435 4.967586,1.08978 0.676231,0.28984 4.231514,1.93383 5.58055,5.29218"
       id="path842"
       inkscape:connector-curvature="0"
       sodipodi:nodetypes="ccccccccccccccc" />
    <path
       style="color:#000000;font-style:normal;font-variant:normal;font-weight:normal;font-stretch:normal;font-size:medium;line-height:normal;font-family:sans-serif;font-variant-ligatures:normal;font-variant-position:normal;font-variant-caps:normal;font-variant-numeric:normal;font-variant-alternates:normal;font-feature-settings:normal;text-indent:0;text-align:start;text-decoration:none;text-decoration-line:none;text-decoration-style:solid;text-decoration-color:#000000;letter-spacing:normal;word-spacing:normal;text-transform:none;writing-mode:lr-tb;direction:ltr;text-orientation:mixed;dominant-baseline:auto;baseline-shift:baseline;text-anchor:start;white-space:normal;shape-padding:0;clip-rule:nonzero;display:inline;overflow:visible;visibility:visible;opacity:1;isolation:auto;mix-blend-mode:normal;color-interpolation:sRGB;color-interpolation-filters:linearRGB;solid-color:#000000;solid-opacity:1;vector-effect:none;fill:#ffffff;fill-opacity:1;fill-rule:nonzero;stroke:#000000;stroke-width:2.25;stroke-linecap:round;stroke-linejoin:miter;stroke-miterlimit:4;stroke-dasharray:none;stroke-dashoffset:0;stroke-opacity:1;color-rendering:auto;image-rendering:auto;shape-rendering:auto;text-rendering:auto;enable-background:accumulate"
       d="m 54.822102,982.43708 c 1.279494,-3.18522 3.586398,-5.25345 5.511112,-6.52166 -0.63833,-1.0967 -0.948852,-2.28949 -0.939959,-3.3805 0.01765,-2.16639 0.782741,-3.91064 2.173657,-5.16358 1.004271,-0.9312 2.57929,-0.84899 3.481147,0.18172 0.883216,1.00963 0.781309,2.54394 -0.227676,3.42789 -0.0016,0.002 -0.562437,0.90662 -0.568041,1.59428 -0.0046,0.56593 0.06532,0.99877 0.759153,1.50442 0.665848,-0.0552 1.794839,-0.20945 3.03418,-0.7139 1.890335,-0.76944 3.660152,-1.99693 4.251867,-5.23006 0.330904,-1.95788 2.742945,-2.71399 4.132293,-1.29536 0.560991,0.57252 0.803575,1.38486 0.648391,2.17125 -0.899045,4.91238 -4.297125,7.67389 -7.199714,8.85535 -2.095229,0.85284 -4.032296,1.04435 -4.967586,1.08978 -0.676231,0.28984 -4.231514,1.93383 -5.58055,5.29218"
       id="path842-3"
       inkscape:connector-curvature="0"
       sodipodi:nodetypes="ccccccccccccccc" />
  </g>
</svg>
