<!--?xml version="1.0" encoding="UTF-8" standalone="no"?--><!--?xml version="1.0" encoding="UTF-8" standalone="no"?--><!-- Created with Inkscape (http://www.inkscape.org/) --><svg xmlns:dc="http://purl.org/dc/elements/1.1/" xmlns:cc="http://creativecommons.org/ns#" xmlns:rdf="http://www.w3.org/1999/02/22-rdf-syntax-ns#" xmlns:svg="http://www.w3.org/2000/svg" xmlns="http://www.w3.org/2000/svg" xmlns:sodipodi="http://sodipodi.sourceforge.net/DTD/sodipodi-0.dtd" xmlns:inkscape="http://www.inkscape.org/namespaces/inkscape" width="100%" height="100%" viewBox="0 0 90 90" id="svg2" version="1.1" inkscape:version="0.92.3 (2405546, 2018-03-11)" sodipodi:docname="snout-bull.svg" class="pig-snout" data-z="400" data-slots="face" data-tags="face">
  <defs id="defs4"/>
  <sodipodi:namedview id="base" pagecolor="#ffffff" bordercolor="#666666" borderopacity="1.0" inkscape:pageopacity="0.0" inkscape:pageshadow="2" inkscape:zoom="15.96481" inkscape:cx="41.398961" inkscape:cy="43.784297" inkscape:document-units="in" inkscape:current-layer="layer1" showgrid="false" units="in" inkscape:window-width="2493" inkscape:window-height="1385" inkscape:window-x="67" inkscape:window-y="54" inkscape:window-maximized="1">
    <inkscape:grid type="xygrid" id="grid2994" empspacing="5" visible="true" enabled="true" snapvisiblegridlinesonly="true" units="in" spacingx="1.344" spacingy="1.344" originx="0" originy="0"/>
  </sodipodi:namedview>
  <metadata id="metadata7">
    <rdf:rdf>
      <cc:work rdf:about="">
        <dc:format>image/svg+xml</dc:format>
        <dc:type rdf:resource="http://purl.org/dc/dcmitype/StillImage"/>
        <dc:title/>
      </cc:work>
    </rdf:rdf>
    <rdf:rdf>
      <cc:work rdf:about="">
        <dc:format>image/svg+xml</dc:format>
        <dc:type rdf:resource="http://purl.org/dc/dcmitype/StillImage"/>
        <dc:title/>
      </cc:work>
    </rdf:rdf>
  </metadata>
  <g inkscape:label="Body" inkscape:groupmode="layer" id="layer1" class="snout" transform="translate(0,-962.35975)" style="display:inline">
    <path style="opacity:1;vector-effect:none;fill:#ffffff;fill-opacity:1;stroke:#000000;stroke-width:2.20799994;stroke-linecap:butt;stroke-linejoin:bevel;stroke-miterlimit:4;stroke-dasharray:none;stroke-dashoffset:0;stroke-opacity:1;marker:none" d="m 36.67841,998.87595 a 6.0916581,4.7144136 48.766112 0 0 -2.703125,0.95312 6.0916581,4.7144136 48.766112 0 0 0.46875,7.68943 6.0916581,4.7144136 48.766112 0 0 1.818359,1.5196 c -0.952019,1.4258 -1.79952,3.2328 -0.871093,4.2988 1.69122,1.9418 7.076382,0.062 9.64453,0.125 2.568148,-0.063 7.955264,1.8168 9.646484,-0.125 0.92278,-1.0595 0.09137,-2.8515 -0.853515,-4.2735 a 4.7144136,6.0916581 41.233888 0 0 1.863281,-1.5449 4.7144136,6.0916581 41.233888 0 0 0.46875,-7.68943 4.7144136,6.0916581 41.233888 0 0 -7.560547,1.47463 4.7144136,6.0916581 41.233888 0 0 -0.63086,0.832 c -0.906044,-0.5209 -1.948911,-0.8574 -3.121093,-0.8262 -1.029632,0.028 -1.935504,0.3218 -2.732422,0.752 a 6.0916581,4.7144136 48.766112 0 0 -0.580078,-0.7578 6.0916581,4.7144136 48.766112 0 0 -4.857421,-2.42775 z" id="path896-3" inkscape:connector-curvature="0"/>
  </g>
  <g inkscape:groupmode="layer" id="layer2" class="nostrils" inkscape:label="nostrils">
    <ellipse style="display:inline;opacity:1;vector-effect:none;fill:#b4b4b4;fill-opacity:1;stroke:#000000;stroke-width:1.248;stroke-linecap:butt;stroke-linejoin:bevel;stroke-miterlimit:4;stroke-dasharray:none;stroke-dashoffset:0;stroke-opacity:1;marker:none" id="path896" cx="0.8521542" cy="56.663612" rx="2.2346904" ry="2.8875213" transform="rotate(-41.233888)"/>
    <ellipse style="display:inline;opacity:1;vector-effect:none;fill:#b4b4b4;fill-opacity:1;stroke:#000000;stroke-width:1.248;stroke-linecap:butt;stroke-linejoin:bevel;stroke-miterlimit:4;stroke-dasharray:none;stroke-dashoffset:0;stroke-opacity:1;marker:none" id="path896-2" cx="-66.932198" cy="-2.747956" rx="2.2346904" ry="2.8875213" transform="matrix(-0.75202519,-0.65913437,-0.65913437,0.75202519,0,0)"/>
  </g>
</svg>
