<!--?xml version="1.0" encoding="UTF-8" standalone="no"?--><!-- Created with Inkscape (http://www.inkscape.org/) --><svg xmlns:dc="http://purl.org/dc/elements/1.1/" xmlns:cc="http://creativecommons.org/ns#" xmlns:rdf="http://www.w3.org/1999/02/22-rdf-syntax-ns#" xmlns:svg="http://www.w3.org/2000/svg" xmlns="http://www.w3.org/2000/svg" xmlns:sodipodi="http://sodipodi.sourceforge.net/DTD/sodipodi-0.dtd" xmlns:inkscape="http://www.inkscape.org/namespaces/inkscape" width="100%" height="100%" viewBox="0 0 90 90" id="svg2" version="1.1" inkscape:version="0.48.4 r9939" sodipodi:docname="suspenders.svg" class="suspenders" data-z="500" data-slots="clothing" data-tags="clothing">
  <defs id="defs4"/>
  <sodipodi:namedview id="base" pagecolor="#ffffff" bordercolor="#666666" borderopacity="1.0" inkscape:pageopacity="0.0" inkscape:pageshadow="2" inkscape:zoom="7.9824051" inkscape:cx="12.771018" inkscape:cy="38.843113" inkscape:document-units="in" inkscape:current-layer="layer2" showgrid="true" units="in" inkscape:window-width="1920" inkscape:window-height="1017" inkscape:window-x="-8" inkscape:window-y="-8" inkscape:window-maximized="1">
    <inkscape:grid type="xygrid" id="grid2994" empspacing="5" visible="true" enabled="true" snapvisiblegridlinesonly="true" units="in" spacingx="0.014in" spacingy="0.014in"/>
  </sodipodi:namedview>
  <metadata id="metadata7">
    <rdf:rdf>
      <cc:work rdf:about="">
        <dc:format>image/svg+xml</dc:format>
        <dc:type rdf:resource="http://purl.org/dc/dcmitype/StillImage"/>
        <dc:title/>
      </cc:work>
    </rdf:rdf>
  </metadata>
  <g inkscape:label="Body" inkscape:groupmode="layer" id="layer1" class="shirt" transform="translate(0,-962.35975)" style="display:inline">
    <path style="fill:#ffffff;fill-opacity:1;stroke:#000000;stroke-width:2.25;stroke-linecap:round;stroke-miterlimit:4;stroke-opacity:1;stroke-dasharray:none;stroke-dashoffset:0;display:inline" d="m 9.18,1011.1409 c 1.88688,18.1081 17.2051,32.2189 35.8125,32.2189 18.33498,0 33.47434,-13.7119 35.71875,-31.4375 -7.05244,2.6459 -19.97089,4.4375 -34.8125,4.4375 -16.28176,0 -30.28526,-2.1398 -36.71875,-5.2188 z" id="path3829-1-5-74-4-9-0-7-87-0" inkscape:connector-curvature="0" sodipodi:nodetypes="cscsc"/>
  </g>
  <g inkscape:groupmode="layer" id="layer2" inkscape:label="Suspenders" class="loops">
    <path inkscape:connector-curvature="0" style="color:#000000;fill:#b4b4b4;fill-opacity:1;fill-rule:nonzero;stroke:#000000;stroke-width:2.25;stroke-linecap:butt;stroke-linejoin:round;stroke-miterlimit:4;stroke-opacity:1;stroke-dasharray:none;stroke-dashoffset:0;marker:none;visibility:visible;display:inline;overflow:visible;enable-background:accumulate" d="m 26.375,52.875 -1.9375,21.6875 c 1.513141,1.053405 3.111029,1.997607 4.78125,2.8125 l 2.15625,-24 c -1.715264,-0.1474 -3.407134,-0.304116 -5,-0.5 z" id="rect3000"/>
    <path inkscape:connector-curvature="0" style="color:#000000;fill:#b4b4b4;fill-opacity:1;fill-rule:nonzero;stroke:#000000;stroke-width:2.25;stroke-linecap:butt;stroke-linejoin:round;stroke-miterlimit:4;stroke-opacity:1;stroke-dasharray:none;stroke-dashoffset:0;marker:none;visibility:visible;display:inline;overflow:visible;enable-background:accumulate" d="m 63.65625,53.0625 c -1.619876,0.178352 -3.297384,0.339438 -5.03125,0.46875 L 61.6875,76.875 c 1.640844,-0.861464 3.208066,-1.842507 4.6875,-2.9375 l -2.71875,-20.875 z" id="rect3000-1"/>
  </g>
  <g inkscape:groupmode="layer" id="layer3" inkscape:label="Tie" class="tie">
    <path style="fill:#b4b4b4;fill-opacity:1;stroke:#000000;stroke-width:2.25000000000000000;stroke-linecap:butt;stroke-linejoin:miter;stroke-miterlimit:4;stroke-opacity:1;stroke-dasharray:none;display:inline" d="m 45.36,57.24005 -2.427025,0 -1.618016,13.9073 4.045041,6.9537 4.04504,-6.9537 -1.618016,-13.9073 z" id="path3922" inkscape:connector-curvature="0"/>
    <path style="fill:#b4b4b4;fill-opacity:1;stroke:#000000;stroke-width:2.25000000000000000;stroke-linecap:butt;stroke-linejoin:miter;stroke-miterlimit:4;stroke-opacity:1;stroke-dasharray:none;display:inline" d="m 41.39866,53.90625 c -0.06399,1.2495 -0.04441,2.5875 0.295068,3.3438 0.759556,1.692 3.677004,2.5 3.677004,2.5 0,0 2.89475,-0.808 3.654306,-2.5 0.339569,-0.7565 0.35913,-2.094 0.295068,-3.3438 -1.169741,0.044 -2.354599,0.094 -3.563516,0.094 -1.478224,0 -2.938923,-0.029 -4.35793,-0.094 z" id="path3920" inkscape:connector-curvature="0"/>
  </g>
</svg>
  

