<!--?xml version="1.0" encoding="UTF-8" standalone="no"?--><!-- Created with Inkscape (http://www.inkscape.org/) --><svg xmlns:dc="http://purl.org/dc/elements/1.1/" xmlns:cc="http://creativecommons.org/ns#" xmlns:rdf="http://www.w3.org/1999/02/22-rdf-syntax-ns#" xmlns:svg="http://www.w3.org/2000/svg" xmlns="http://www.w3.org/2000/svg" xlink="http://www.w3.org/1999/xlink" xmlns:sodipodi="http://sodipodi.sourceforge.net/DTD/sodipodi-0.dtd" xmlns:inkscape="http://www.inkscape.org/namespaces/inkscape" width="100%" height="100%" viewBox="0 0 90 90" id="svg2" version="1.1" inkscape:version="0.48.4 r9939" sodipodi:docname="v-dress.svg" class="v-dress" data-z="500" data-slots="clothing" data-tags="clothing">
  <defs id="defs4">
    <inkscape:path-effect effect="sketch" id="path-effect5121-4" is_visible="true" nbiter_approxstrokes="3" strokelength="1" strokelength_rdm="0;1" strokeoverlap="0.1" strokeoverlap_rdm="0;1" ends_tolerance="0.9;1" parallel_offset="0.9;1" tremble_size="1.5;1" tremble_frequency="0.01" nbtangents="0" tgt_places_rdmness="1;1" tgtscale="10.5" tgtlength="100" tgtlength_rdm="0.1;1"/>
    <inkscape:path-effect effect="sketch" id="path-effect5121-7" is_visible="true" nbiter_approxstrokes="3" strokelength="1" strokelength_rdm="0;1" strokeoverlap="0.1" strokeoverlap_rdm="0;1" ends_tolerance="0.9;1" parallel_offset="0.9;1" tremble_size="1.5;1" tremble_frequency="0.01" nbtangents="0" tgt_places_rdmness="1;1" tgtscale="10.5" tgtlength="100" tgtlength_rdm="0.1;1"/>
    <inkscape:path-effect effect="sketch" id="path-effect5257" is_visible="true" nbiter_approxstrokes="2" strokelength="1" strokelength_rdm="0.1;1" strokeoverlap="0" strokeoverlap_rdm="0;1" ends_tolerance="0;1" parallel_offset="0.8;1" tremble_size="0.7;1" tremble_frequency="1" nbtangents="0" tgt_places_rdmness="1;1" tgtscale="10" tgtlength="100" tgtlength_rdm="0.3;1"/>
    <linearGradient inkscape:collect="always" href="#linearGradient5728-3" id="linearGradient5483" gradientUnits="userSpaceOnUse" x1="945" y1="310.2579" x2="945" y2="388.79999" gradientTransform="translate(-1170,962.35973)"/>
    <linearGradient id="linearGradient5728-3">
      <stop style="stop-color:#000000;stop-opacity:1;" offset="0" id="stop5730-7"/>
      <stop style="stop-color:#000000;stop-opacity:0;" offset="1" id="stop5732-3"/>
    </linearGradient>
    <inkscape:path-effect effect="sketch" id="path-effect6957" is_visible="true" nbiter_approxstrokes="1" strokelength="2" strokelength_rdm="0.2;1" strokeoverlap="0" strokeoverlap_rdm="0;1" ends_tolerance="0;1" parallel_offset="0.1;1" tremble_size="0.6;1" tremble_frequency="2.51" nbtangents="0" tgt_places_rdmness="1;1" tgtscale="10" tgtlength="100" tgtlength_rdm="0.3;1"/>
  </defs>
  <sodipodi:namedview id="base" pagecolor="#ffffff" bordercolor="#666666" borderopacity="1.0" inkscape:pageopacity="0.0" inkscape:pageshadow="2" inkscape:zoom="7.9824051" inkscape:cx="86.465306" inkscape:cy="28.987456" inkscape:document-units="in" inkscape:current-layer="svg2" showgrid="false" units="in" inkscape:window-width="1920" inkscape:window-height="1017" inkscape:window-x="-8" inkscape:window-y="-8" inkscape:window-maximized="1">
    <inkscape:grid type="xygrid" id="grid2994" empspacing="5" visible="true" enabled="true" snapvisiblegridlinesonly="true" units="in" spacingx="0.014in" spacingy="0.014in"/>
  </sodipodi:namedview>
  <metadata id="metadata7">
    <rdf:rdf>
      <cc:work rdf:about="">
        <dc:format>image/svg+xml</dc:format>
        <dc:type rdf:resource="http://purl.org/dc/dcmitype/StillImage"/>
        <dc:title/>
      </cc:work>
    </rdf:rdf>
  </metadata>
  <g inkscape:label="Body" inkscape:groupmode="layer" id="layer1" class="body" transform="translate(0,-962.35975)" style="display:inline">
    <path style="fill:#ffffff;fill-opacity:1;stroke:#000000;stroke-width:4.5;stroke-linecap:butt;stroke-linejoin:miter;stroke-miterlimit:4;stroke-opacity:1;stroke-dasharray:none" d="m 9.3125,1012.0785 c 0.0851,0.649 0.1933,1.2999 0.3125,1.9375 0.0829,0.4415 0.18232,0.8769 0.28125,1.3125 0.11609,0.5111 0.20602,1.0288 0.34375,1.5312 0.006,0.022 0.0253,0.041 0.0312,0.062 0.18601,0.676 0.40121,1.3407 0.625,2 0.23215,0.6841 0.47855,1.3664 0.75,2.0313 0.0389,0.095 0.0853,0.1868 0.125,0.2812 0.24675,0.59 0.5045,1.1765 0.78125,1.75 0.0304,0.063 0.063,0.125 0.0937,0.1875 1.08427,2.1866 2.26269,4.0057 3.59375,5.8126 l -0.0625,-0.031 c -10.8,-3.6001 -12.59375,19.8125 -12.59375,19.8125 0,0 10.80625,1.8062 14.40625,-3.5938 3.6,5.4 10.8,5.3813 18,1.7813 3.6,3.6 12.6,3.6 18,0 7.2,3.6 15.99247,1.23 18,-1.7813 3.6,5.4 14.40625,3.5938 14.40625,3.5938 0,0 -1.79375,-23.4126 -12.59375,-19.8125 l -0.0625,0.031 c 1.38533,-1.8321 2.66704,-3.9332 3.59375,-5.8126 0.0308,-0.062 0.0633,-0.1247 0.0937,-0.1875 0.30085,-0.6234 0.5784,-1.2634 0.84375,-1.9062 0.0177,-0.043 0.0449,-0.082 0.0625,-0.125 0.27145,-0.6649 0.51785,-1.3472 0.75,-2.0313 0.22379,-0.6593 0.43899,-1.324 0.625,-2 0.0201,-0.073 0.0429,-0.1456 0.0625,-0.2187 0.12175,-0.4522 0.20823,-0.9159 0.3125,-1.375 0.0989,-0.4356 0.1984,-0.871 0.28125,-1.3125 0.0176,-0.094 0.0457,-0.1873 0.0625,-0.2813 0.097,-0.5433 0.17767,-1.1047 0.25,-1.6562 -2.46563,4.5609 -8.97359,7.2327 -17.5625,8.5625 -0.71574,0.1108 -1.47546,0.2201 -2.21875,0.3125 -2.22986,0.2772 -4.56374,0.471 -7,0.5937 0.007,0.7215 -1.23459,1.2664 -1.71875,2 -0.74156,1.1239 -1.18123,2.4198 -1.78125,3.6251 -0.59793,1.201 -1.8125,2.2521 -1.8125,3.5937 0,1.1382 1.55158,2.0045 1.8125,3.0313 -2.03513,2.3904 -4.66976,3.2248 -7.125,2.5 -0.0285,-0.042 -0.0651,-0.085 -0.0937,-0.125 -0.78818,-1.0917 -0.99782,-2.5301 -1.78125,-3.625 -0.9858,-1.3779 -3.31947,-1.922 -3.59375,-3.5938 -0.21646,-1.3194 1.96949,-2.2701 1.78125,-3.5937 -0.24289,-1.7081 -2.71592,-2.6695 -3.5,-3.8126 -2.3503,-0.1247 -4.64445,-0.3157 -6.84375,-0.5937 -0.7331,-0.093 -1.44588,-0.2016 -2.15625,-0.3125 -8.52445,-1.3314 -15.31562,-4.0016 -17.78125,-8.5625 z" id="path5370" inkscape:connector-curvature="0" sodipodi:nodetypes="ccsccsccccccccccccccccccsccscccsscccsccccsccssc"/>
    <path sodipodi:nodetypes="caaaac" inkscape:connector-curvature="0" id="path4086-2-8" d="m 37.8,1034.3598 c 0,0 14.46508,1.3472 14.4,-3.6 -0.0728,-5.5313 -16.25884,1.9314 -16.2,-3.6 0.0651,-6.1185 12.34694,-5.9416 18,-3.6001 1.99866,0.8279 3.23078,3.2685 3.6,5.4001 0.42222,2.4375 -1.8,7.2 -1.8,7.2" style="fill:none;stroke:#000000;stroke-width:2.25;stroke-linecap:butt;stroke-linejoin:miter;stroke-miterlimit:4;stroke-opacity:1;stroke-dasharray:none" class="ignored"/>
  </g>
</svg>
