<!--?xml version="1.0" encoding="UTF-8" standalone="no"?--><svg xmlns:dc="http://purl.org/dc/elements/1.1/" xmlns:cc="http://creativecommons.org/ns#" xmlns:rdf="http://www.w3.org/1999/02/22-rdf-syntax-ns#" xmlns:svg="http://www.w3.org/2000/svg" xmlns="http://www.w3.org/2000/svg" xmlns:sodipodi="http://sodipodi.sourceforge.net/DTD/sodipodi-0.dtd" xmlns:inkscape="http://www.inkscape.org/namespaces/inkscape" viewBox="0 0 90 90" class="victorian-hair-ponytail" id="svg2" version="1.1" inkscape:version="0.48.4 r9939" width="100%" height="100%" sodipodi:docname="victorian-hair (copy).svg" data-z="900" data-slots="hair" data-tags="hair">
  <defs id="defs16"/>
  <sodipodi:namedview pagecolor="#ffffff" bordercolor="#666666" borderopacity="1" objecttolerance="10" gridtolerance="10" guidetolerance="10" inkscape:pageopacity="0" inkscape:pageshadow="2" inkscape:window-width="1918" inkscape:window-height="1030" id="namedview14" showgrid="true" inkscape:zoom="7.4167645" inkscape:cx="9.0813823" inkscape:cy="42.398429" inkscape:window-x="0" inkscape:window-y="24" inkscape:window-maximized="0" inkscape:current-layer="layer1" inkscape:snap-global="false">
    <inkscape:grid type="xygrid" id="grid3753"/>
  </sodipodi:namedview>
  <metadata title="Basic Body" contributor="Douglas Richardson" id="metadata4">
    <layers id="layers6">
      <layer name="Primary" data-layer="layer1" id="layer8"/>
    </layers>
    <rdf:rdf>
      <cc:work rdf:about="">
        <dc:format>image/svg+xml</dc:format>
        <dc:type rdf:resource="http://purl.org/dc/dcmitype/StillImage"/>
        <dc:title/>
      </cc:work>
    </rdf:rdf>
  </metadata>
  <g inkscape:groupmode="layer" id="layer1" inkscape:label="hair" class="hair">
    <path style="fill:#ffffff;fill-opacity:1;stroke:#000000;stroke-width:4.5;stroke-linecap:butt;stroke-linejoin:miter;stroke-miterlimit:4;stroke-opacity:1;stroke-dasharray:none;display:inline" d="M 43.71875,6.53125 C 42.235298,6.5539035 40.77012,6.6439458 39.375,6.8125 33.79452,7.4867166 27.056735,9.2634047 23.0625,11.9375 19.068265,14.611595 16.464107,17.882598 15.53125,19.21875 14.598392,20.554903 13.017467,22.989221 12,25 c -2.303091,5.774471 -5.0000001,13 1,19 2,-6 3,-9 5,-10 2.52,2.52005 7.2,6.86005 10.15625,7.84375 0,0 -0.07307,-2.65545 0.125,-3.96875 0.486784,-3.22764 0.32581,-8.464169 2.96875,-11.34375 1.682007,-1.83261 7.03125,-2.5 7.03125,-2.5 0,0 3.370044,6.14734 4.0625,9.53125 0.272771,1.33298 0,4.0625 0,4.0625 0,0 5.034067,-2.08159 6.78125,-4.0625 1.752698,-1.987166 3.324107,-5.893358 6.625,-6.25 3.300894,-0.356642 3.661425,0.09661 4.21875,0.78125 2.233807,2.7441 5.578912,4.85643 6.78125,8.1875 0.769717,2.1325 4.383069,5.067047 4.383069,5.067047 -1.580428,7.239538 -12.42935,16.458416 -10,27.46875 10,-9.761898 1.617956,9.430168 6.526429,10.508805 3.473571,-5 8.424875,-10.83614 10.630846,-2.977555 1.971418,-2.309711 -2.157275,-15 6.311475,-10 6.53125,-7.434961 -4.0625,-23.3125 -4.0625,-23.3125 3.238061,-3.458284 1.331286,-8.321917 0.116931,-12.504547 0,0 -4.5629,-7.137703 -7.28125,-10.53125 C 70.65665,16.606453 68.032158,14.381529 64.84375,12.34375 61.655342,10.305971 60.24135,9.0354344 55.96875,7.875 52.7643,7.0046742 48.169107,6.4632896 43.71875,6.53125 z" id="path3788-7" inkscape:connector-curvature="0" sodipodi:nodetypes="ssssccccsscscsssscccccccssss"/>
  </g>
</svg>
