<?xml version="1.0" encoding="UTF-8" standalone="no"?>
<!--?xml version="1.0" encoding="UTF-8" standalone="no"?-->

<!--?xml version="1.0" encoding="UTF-8" standalone="no"?-->

<svg
   xmlns:dc="http://purl.org/dc/elements/1.1/"
   xmlns:cc="http://creativecommons.org/ns#"
   xmlns:rdf="http://www.w3.org/1999/02/22-rdf-syntax-ns#"
   xmlns:svg="http://www.w3.org/2000/svg"
   xmlns="http://www.w3.org/2000/svg"
   xmlns:sodipodi="http://sodipodi.sourceforge.net/DTD/sodipodi-0.dtd"
   xmlns:inkscape="http://www.inkscape.org/namespaces/inkscape"
   viewBox="0 0 90 90"
   class="webbing-officer-pouches"
   version="1.1"
   id="svg6103"
   sodipodi:docname="webbing-officer-pouches.svg"
   inkscape:version="0.92.3 (2405546, 2018-03-11)"
   data-z="700"
   data-slots="collar"
   data-tags="new+clothing+collar">
  <metadata
     id="metadata6109">
    <rdf:rdf>
      <cc:work
         rdf:about="">
        <dc:format>image/svg+xml</dc:format>
        <dc:type
           rdf:resource="http://purl.org/dc/dcmitype/StillImage" />
        <dc:title />
      </cc:work>
    </rdf:rdf>
    <rdf:RDF>
      <cc:Work
         rdf:about="">
        <dc:format>image/svg+xml</dc:format>
        <dc:type
           rdf:resource="http://purl.org/dc/dcmitype/StillImage" />
        <dc:title></dc:title>
      </cc:Work>
    </rdf:RDF>
  </metadata>
  <defs
     id="defs6107" />
  <sodipodi:namedview
     pagecolor="#ffffff"
     bordercolor="#666666"
     borderopacity="1"
     objecttolerance="10"
     gridtolerance="10"
     guidetolerance="10"
     inkscape:pageopacity="0"
     inkscape:pageshadow="2"
     inkscape:window-width="3773"
     inkscape:window-height="2105"
     id="namedview6105"
     showgrid="false"
     inkscape:zoom="15.116372"
     inkscape:cx="41.199611"
     inkscape:cy="15.350417"
     inkscape:window-x="67"
     inkscape:window-y="27"
     inkscape:window-maximized="1"
     inkscape:current-layer="layer3"
     showguides="false" />
  <g
     inkscape:groupmode="layer"
     id="layer1"
     inkscape:label="belts"
     class="belts"
     style="display:inline">
    <path
       style="color:#000000;font-style:normal;font-variant:normal;font-weight:normal;font-stretch:normal;font-size:medium;line-height:normal;font-family:sans-serif;font-variant-ligatures:normal;font-variant-position:normal;font-variant-caps:normal;font-variant-numeric:normal;font-variant-alternates:normal;font-feature-settings:normal;text-indent:0;text-align:start;text-decoration:none;text-decoration-line:none;text-decoration-style:solid;text-decoration-color:#000000;letter-spacing:normal;word-spacing:normal;text-transform:none;writing-mode:lr-tb;direction:ltr;text-orientation:mixed;dominant-baseline:auto;baseline-shift:baseline;text-anchor:start;white-space:normal;shape-padding:0;clip-rule:nonzero;display:inline;overflow:visible;visibility:visible;opacity:1;isolation:auto;mix-blend-mode:normal;color-interpolation:sRGB;color-interpolation-filters:linearRGB;solid-color:#000000;solid-opacity:1;vector-effect:none;fill:#ffffff;fill-opacity:1;fill-rule:nonzero;stroke:#000000;stroke-width:2.25;stroke-linecap:butt;stroke-linejoin:miter;stroke-miterlimit:4;stroke-dasharray:none;stroke-dashoffset:0;stroke-opacity:1;color-rendering:auto;image-rendering:auto;shape-rendering:auto;text-rendering:auto;enable-background:accumulate"
       d="M 15.271484 65.289062 C 15.408527 65.485501 15.546613 65.677828 15.6875 65.875 C 15.912969 66.191007 16.139685 66.504204 16.375 66.8125 C 16.520017 67.002067 16.663821 67.188427 16.8125 67.375 C 17.265263 67.943158 17.733037 68.523104 18.21875 69.0625 C 18.26329 69.11206 18.29894 69.169443 18.34375 69.21875 C 19.404391 70.383616 20.546108 71.451217 21.75 72.46875 C 21.807887 72.517676 21.869571 72.562606 21.927734 72.611328 C 37.535528 75.063814 54.104418 75.44456 64.255859 75.398438 C 64.547167 75.214645 64.841678 75.035159 65.125 74.84375 C 65.603803 74.520277 66.069224 74.189278 66.53125 73.84375 C 66.994175 73.497061 67.460931 73.149345 67.90625 72.78125 C 67.95767 72.73881 68.011318 72.69897 68.0625 72.65625 C 68.14102 72.59062 68.203302 72.503788 68.28125 72.4375 C 68.81757 71.981406 69.366415 71.517552 69.875 71.03125 C 70.457501 70.47427 71.018316 69.907159 71.5625 69.3125 C 71.569656 69.30468 71.576837 69.296889 71.583984 69.289062 C 64.120827 69.487199 36.511997 69.850067 15.271484 65.289062 z "
       id="path842" />
  </g>
  <g
     inkscape:groupmode="layer"
     id="layer2"
     inkscape:label="buckles"
     class="belts-2"
     style="display:inline">
    <path
       inkscape:connector-curvature="0"
       style="color:#000000;font-style:normal;font-variant:normal;font-weight:normal;font-stretch:normal;font-size:medium;line-height:normal;font-family:sans-serif;font-variant-ligatures:normal;font-variant-position:normal;font-variant-caps:normal;font-variant-numeric:normal;font-variant-alternates:normal;font-feature-settings:normal;text-indent:0;text-align:start;text-decoration:none;text-decoration-line:none;text-decoration-style:solid;text-decoration-color:#000000;letter-spacing:normal;word-spacing:normal;text-transform:none;writing-mode:lr-tb;direction:ltr;text-orientation:mixed;dominant-baseline:auto;baseline-shift:baseline;text-anchor:start;white-space:normal;shape-padding:0;clip-rule:nonzero;display:inline;overflow:visible;visibility:visible;opacity:1;isolation:auto;mix-blend-mode:normal;color-interpolation:sRGB;color-interpolation-filters:linearRGB;solid-color:#000000;solid-opacity:1;vector-effect:none;fill:#ffffff;fill-opacity:1;fill-rule:nonzero;stroke:#000000;stroke-width:2.25;stroke-linecap:butt;stroke-linejoin:miter;stroke-miterlimit:4;stroke-dasharray:none;stroke-dashoffset:0;stroke-opacity:1;color-rendering:auto;image-rendering:auto;shape-rendering:auto;text-rendering:auto;enable-background:accumulate"
       d="m 31.296875,53.369141 c 4.006962,3.423355 9.834491,7.428844 16.052734,11.363281 6.408023,4.054513 12.83505,7.789576 17.984375,9.96289 0.404478,-0.277455 0.803875,-0.557363 1.197266,-0.851562 0.462925,-0.346689 0.929681,-0.694405 1.375,-1.0625 0.05142,-0.04244 0.105068,-0.08228 0.15625,-0.125 0.07852,-0.06563 0.140802,-0.152462 0.21875,-0.21875 0.53632,-0.456094 1.085165,-0.919948 1.59375,-1.40625 0.26854,-0.256775 0.517526,-0.530181 0.777344,-0.792969 C 66.861551,69.062187 58.359131,64.598938 50.556641,59.662109 47.606594,57.795542 44.693412,55.81776 42.0625,53.9375 38.292093,53.85782 34.691819,53.663087 31.296875,53.369141 Z"
       id="path844" />
  </g>
  <g
     inkscape:groupmode="layer"
     id="layer3"
     class="pouches"
     inkscape:label="pouches">
    <rect
       style="display:inline;opacity:1;vector-effect:none;fill:#ffffff;fill-opacity:1;stroke:#000000;stroke-width:2.25;stroke-linecap:round;stroke-linejoin:bevel;stroke-miterlimit:4;stroke-dasharray:none;stroke-dashoffset:0;stroke-opacity:1;marker:none"
       id="rect927"
       width="8.9637909"
       height="14.503718"
       x="-0.9913559"
       y="64.503822"
       ry="3.1753652"
       transform="rotate(-10.456689)" />
    <path
       style="display:inline;fill:none;stroke:#000000;stroke-width:1.125;stroke-linecap:round;stroke-linejoin:miter;stroke-miterlimit:4;stroke-dasharray:none;stroke-opacity:1"
       d="m 13.211421,67.022971 c 0,0 0.484296,1.895103 2.911845,1.379811 2.427549,-0.515289 2.343076,-2.248739 2.343076,-2.248739"
       id="path929"
       inkscape:connector-curvature="0" />
    <rect
       style="display:inline;opacity:1;vector-effect:none;fill:#ffffff;fill-opacity:1;stroke:#000000;stroke-width:2.25;stroke-linecap:round;stroke-linejoin:bevel;stroke-miterlimit:4;stroke-dasharray:none;stroke-dashoffset:0;stroke-opacity:1;marker:none"
       id="rect927-7"
       width="8.9637909"
       height="14.503718"
       x="8.0543232"
       y="67.249596"
       ry="3.1753652"
       transform="rotate(-10.456689)" />
    <path
       style="display:inline;fill:none;stroke:#000000;stroke-width:1.125;stroke-linecap:round;stroke-linejoin:miter;stroke-miterlimit:4;stroke-dasharray:none;stroke-opacity:1"
       d="m 22.60521,68.081426 c 0,0 0.484296,1.895103 2.911845,1.379811 2.427549,-0.515289 2.343076,-2.248739 2.343076,-2.248739"
       id="path929-5"
       inkscape:connector-curvature="0" />
  </g>
</svg>
