<?xml version="1.0" encoding="UTF-8" standalone="no"?>
<!--?xml version="1.0" encoding="UTF-8" standalone="no"?-->

<!--?xml version="1.0" encoding="UTF-8" standalone="no"?-->

<svg
   xmlns:dc="http://purl.org/dc/elements/1.1/"
   xmlns:cc="http://creativecommons.org/ns#"
   xmlns:rdf="http://www.w3.org/1999/02/22-rdf-syntax-ns#"
   xmlns:svg="http://www.w3.org/2000/svg"
   xmlns="http://www.w3.org/2000/svg"
   xmlns:sodipodi="http://sodipodi.sourceforge.net/DTD/sodipodi-0.dtd"
   xmlns:inkscape="http://www.inkscape.org/namespaces/inkscape"
   viewBox="0 0 90 90"
   class="webbing-suspenders-pouches"
   version="1.1"
   id="svg6103"
   sodipodi:docname="webbing-suspenders-pouches.svg"
   inkscape:version="0.92.3 (2405546, 2018-03-11)"
   data-z="700"
   data-slots="collar"
   data-tags="new+clothing+collar">
  <metadata
     id="metadata6109">
    <rdf:rdf>
      <cc:work
         rdf:about="">
        <dc:format>image/svg+xml</dc:format>
        <dc:type
           rdf:resource="http://purl.org/dc/dcmitype/StillImage" />
        <dc:title />
      </cc:work>
    </rdf:rdf>
    <rdf:RDF>
      <cc:Work
         rdf:about="">
        <dc:format>image/svg+xml</dc:format>
        <dc:type
           rdf:resource="http://purl.org/dc/dcmitype/StillImage" />
        <dc:title></dc:title>
      </cc:Work>
    </rdf:RDF>
  </metadata>
  <defs
     id="defs6107" />
  <sodipodi:namedview
     pagecolor="#ffffff"
     bordercolor="#666666"
     borderopacity="1"
     objecttolerance="10"
     gridtolerance="10"
     guidetolerance="10"
     inkscape:pageopacity="0"
     inkscape:pageshadow="2"
     inkscape:window-width="3773"
     inkscape:window-height="2105"
     id="namedview6105"
     showgrid="false"
     inkscape:zoom="15.116372"
     inkscape:cx="41.199611"
     inkscape:cy="15.350417"
     inkscape:window-x="67"
     inkscape:window-y="27"
     inkscape:window-maximized="1"
     inkscape:current-layer="layer3"
     showguides="false" />
  <g
     inkscape:groupmode="layer"
     id="layer1"
     inkscape:label="belts"
     class="belts"
     style="display:inline">
    <path
       style="color:#000000;font-style:normal;font-variant:normal;font-weight:normal;font-stretch:normal;font-size:medium;line-height:normal;font-family:sans-serif;font-variant-ligatures:normal;font-variant-position:normal;font-variant-caps:normal;font-variant-numeric:normal;font-variant-alternates:normal;font-feature-settings:normal;text-indent:0;text-align:start;text-decoration:none;text-decoration-line:none;text-decoration-style:solid;text-decoration-color:#000000;letter-spacing:normal;word-spacing:normal;text-transform:none;writing-mode:lr-tb;direction:ltr;text-orientation:mixed;dominant-baseline:auto;baseline-shift:baseline;text-anchor:start;white-space:normal;shape-padding:0;clip-rule:nonzero;display:inline;overflow:visible;visibility:visible;opacity:1;isolation:auto;mix-blend-mode:normal;color-interpolation:sRGB;color-interpolation-filters:linearRGB;solid-color:#000000;solid-opacity:1;vector-effect:none;fill:#ffffff;fill-opacity:1;fill-rule:nonzero;stroke:#000000;stroke-width:2.25;stroke-linecap:round;stroke-linejoin:miter;stroke-miterlimit:4;stroke-dasharray:none;stroke-dashoffset:0;stroke-opacity:1;color-rendering:auto;image-rendering:auto;shape-rendering:auto;text-rendering:auto;enable-background:accumulate"
       d="M 69.167969 52.332031 C 67.282103 52.630248 65.281411 52.891452 63.175781 53.115234 C 63.177023 56.56513 62.972763 60.985631 62.564453 65.228516 C 62.087965 70.179849 61.202224 75.067372 60.4375 77.507812 C 60.489033 77.483314 60.542336 77.462274 60.59375 77.4375 C 61.084786 77.200895 61.58416 76.976681 62.0625 76.71875 C 62.0957 76.70086 62.12311 76.67425 62.15625 76.65625 C 62.666346 76.379149 63.161424 76.081914 63.65625 75.78125 C 64.151076 75.480586 64.646197 75.167223 65.125 74.84375 C 65.603803 74.520277 66.069224 74.189278 66.53125 73.84375 C 66.910708 73.55957 67.287514 73.268874 67.658203 72.972656 C 68.014814 70.731502 68.293422 68.314667 68.535156 65.802734 C 68.994242 61.032231 69.212637 56.19528 69.167969 52.332031 z "
       id="path1764" />
    <path
       style="color:#000000;font-style:normal;font-variant:normal;font-weight:normal;font-stretch:normal;font-size:medium;line-height:normal;font-family:sans-serif;font-variant-ligatures:normal;font-variant-position:normal;font-variant-caps:normal;font-variant-numeric:normal;font-variant-alternates:normal;font-feature-settings:normal;text-indent:0;text-align:start;text-decoration:none;text-decoration-line:none;text-decoration-style:solid;text-decoration-color:#000000;letter-spacing:normal;word-spacing:normal;text-transform:none;writing-mode:lr-tb;direction:ltr;text-orientation:mixed;dominant-baseline:auto;baseline-shift:baseline;text-anchor:start;white-space:normal;shape-padding:0;clip-rule:nonzero;display:inline;overflow:visible;visibility:visible;opacity:1;isolation:auto;mix-blend-mode:normal;color-interpolation:sRGB;color-interpolation-filters:linearRGB;solid-color:#000000;solid-opacity:1;vector-effect:none;fill:#ffffff;fill-opacity:1;fill-rule:nonzero;stroke:#000000;stroke-width:2.25;stroke-linecap:round;stroke-linejoin:miter;stroke-miterlimit:4;stroke-dasharray:none;stroke-dashoffset:0;stroke-opacity:1;color-rendering:auto;image-rendering:auto;shape-rendering:auto;text-rendering:auto;enable-background:accumulate"
       d="M 18.501953 51.611328 C 18.379918 58.833712 19.613039 66.098343 20.925781 71.732422 C 21.200953 71.977093 21.46775 72.230191 21.75 72.46875 C 22.309189 72.941378 22.881104 73.405327 23.46875 73.84375 C 23.54073 73.89758 23.615107 73.946698 23.6875 74 C 23.69917 74.0086 23.70707 74.02269 23.71875 74.03125 C 24.226976 74.404499 24.753198 74.747038 25.28125 75.09375 C 25.563207 75.278507 25.837618 75.479252 26.125 75.65625 C 26.688694 76.004159 27.259986 76.339131 27.84375 76.65625 C 27.85165 76.66055 27.8671 76.65195 27.875 76.65625 C 28.101194 76.778757 28.33644 76.880678 28.564453 76.996094 C 27.1352 72.153233 24.556092 62.083807 24.513672 52.632812 C 22.364341 52.333806 20.355823 51.992046 18.501953 51.611328 z "
       id="path1760" />
  </g>
  <g
     inkscape:groupmode="layer"
     id="layer2"
     inkscape:label="buckles"
     class="belts-2"
     style="display:inline">
    <path
       style="color:#000000;font-style:normal;font-variant:normal;font-weight:normal;font-stretch:normal;font-size:medium;line-height:normal;font-family:sans-serif;font-variant-ligatures:normal;font-variant-position:normal;font-variant-caps:normal;font-variant-numeric:normal;font-variant-alternates:normal;font-feature-settings:normal;text-indent:0;text-align:start;text-decoration:none;text-decoration-line:none;text-decoration-style:solid;text-decoration-color:#000000;letter-spacing:normal;word-spacing:normal;text-transform:none;writing-mode:lr-tb;direction:ltr;text-orientation:mixed;dominant-baseline:auto;baseline-shift:baseline;text-anchor:start;white-space:normal;shape-padding:0;clip-rule:nonzero;display:inline;overflow:visible;visibility:visible;opacity:1;isolation:auto;mix-blend-mode:normal;color-interpolation:sRGB;color-interpolation-filters:linearRGB;solid-color:#000000;solid-opacity:1;vector-effect:none;fill:#ffffff;fill-opacity:1;fill-rule:nonzero;stroke:#000000;stroke-width:2.25;stroke-linecap:round;stroke-linejoin:miter;stroke-miterlimit:4;stroke-dasharray:none;stroke-dashoffset:0;stroke-opacity:1;color-rendering:auto;image-rendering:auto;shape-rendering:auto;text-rendering:auto;enable-background:accumulate"
       d="M 17.101562 67.720703 C 17.466436 68.174399 17.832679 68.633759 18.21875 69.0625 C 18.26329 69.11206 18.29894 69.169443 18.34375 69.21875 C 19.404391 70.383616 20.546108 71.451217 21.75 72.46875 C 22.309189 72.941378 22.881104 73.405327 23.46875 73.84375 C 23.54073 73.89758 23.615107 73.946698 23.6875 74 C 23.69917 74.0086 23.70707 74.02269 23.71875 74.03125 C 24.226976 74.404499 24.753198 74.747038 25.28125 75.09375 C 25.489555 75.230245 25.695956 75.37184 25.904297 75.509766 C 36.818361 76.872981 47.839439 77.435611 58.833984 77.191406 C 59.67047 77.149593 60.515941 77.105073 61.359375 77.0625 C 61.594742 76.949438 61.83355 76.842205 62.0625 76.71875 C 62.0957 76.70086 62.12311 76.67425 62.15625 76.65625 C 62.666346 76.379149 63.161424 76.081914 63.65625 75.78125 C 64.151076 75.480586 64.646197 75.167223 65.125 74.84375 C 65.603803 74.520277 66.069224 74.189278 66.53125 73.84375 C 66.994175 73.497061 67.460931 73.149345 67.90625 72.78125 C 67.95767 72.73881 68.011318 72.69897 68.0625 72.65625 C 68.14102 72.59062 68.203302 72.503788 68.28125 72.4375 C 68.81757 71.981406 69.366415 71.517552 69.875 71.03125 C 70.381349 70.547086 70.864901 70.048024 71.341797 69.537109 C 67.480494 70.912477 63.244666 70.902983 59.193359 71.175781 C 47.152842 71.494428 35.079204 70.763259 23.152344 69.099609 C 21.091742 68.842202 19.075181 68.321224 17.101562 67.720703 z "
       id="path1762" />
  </g>
  <g
     inkscape:groupmode="layer"
     id="layer3"
     class="pouches"
     inkscape:label="pouches">
    <rect
       style="display:inline;opacity:1;vector-effect:none;fill:#ffffff;fill-opacity:1;stroke:#000000;stroke-width:2.25;stroke-linecap:round;stroke-linejoin:bevel;stroke-miterlimit:4;stroke-dasharray:none;stroke-dashoffset:0;stroke-opacity:1;marker:none"
       id="rect927-7-3"
       width="8.9637909"
       height="14.503718"
       x="5.8883281"
       y="66.590004"
       ry="3.1753652"
       transform="rotate(-6.7427075)" />
    <path
       style="display:inline;fill:none;stroke:#000000;stroke-width:1.125;stroke-linecap:round;stroke-linejoin:miter;stroke-miterlimit:4;stroke-dasharray:none;stroke-opacity:1"
       d="m 15.919227,69.001997 c 0,0 0.36053,1.922492 2.81636,1.565529 2.45583,-0.356962 2.48381,-2.092238 2.48381,-2.092238"
       id="path929-5-5"
       inkscape:connector-curvature="0" />
    <rect
       style="display:inline;opacity:1;vector-effect:none;fill:#ffffff;fill-opacity:1;stroke:#000000;stroke-width:2.25;stroke-linecap:round;stroke-linejoin:bevel;stroke-miterlimit:4;stroke-dasharray:none;stroke-dashoffset:0;stroke-opacity:1;marker:none"
       id="rect927-7-3-6"
       width="8.9637909"
       height="14.503718"
       x="72.016724"
       y="57.903534"
       ry="3.1753652"
       transform="rotate(6.944961)" />
    <path
       style="display:inline;fill:none;stroke:#000000;stroke-width:1.125;stroke-linecap:round;stroke-linejoin:miter;stroke-miterlimit:4;stroke-dasharray:none;stroke-opacity:1"
       d="m 65.83279,70.182536 c 0,0 -0.104638,1.953207 2.365923,2.187497 2.470553,0.234298 2.908357,-1.445075 2.908357,-1.445075"
       id="path929-5-5-2"
       inkscape:connector-curvature="0" />
    <rect
       style="display:inline;opacity:1;vector-effect:none;fill:#ffffff;fill-opacity:1;stroke:#000000;stroke-width:2.25;stroke-linecap:round;stroke-linejoin:bevel;stroke-miterlimit:4;stroke-dasharray:none;stroke-dashoffset:0;stroke-opacity:1;marker:none"
       id="rect927-7-3-9"
       width="8.9637909"
       height="14.503718"
       x="15.09287"
       y="68.744072"
       ry="3.1753652"
       transform="rotate(-6.7427075)" />
    <path
       style="display:inline;fill:none;stroke:#000000;stroke-width:1.125;stroke-linecap:round;stroke-linejoin:miter;stroke-miterlimit:4;stroke-dasharray:none;stroke-opacity:1"
       d="m 25.313016,70.060452 c 0,0 0.36053,1.922492 2.81636,1.565529 2.45583,-0.356962 2.48381,-2.092238 2.48381,-2.092238"
       id="path929-5-5-3"
       inkscape:connector-curvature="0" />
    <rect
       style="display:inline;opacity:1;vector-effect:none;fill:#ffffff;fill-opacity:1;stroke:#000000;stroke-width:2.25;stroke-linecap:round;stroke-linejoin:bevel;stroke-miterlimit:4;stroke-dasharray:none;stroke-dashoffset:0;stroke-opacity:1;marker:none"
       id="rect927-7-3-6-6"
       width="8.9637909"
       height="14.503718"
       x="62.866898"
       y="59.658897"
       ry="3.1753652"
       transform="rotate(6.944961)" />
    <path
       style="display:inline;fill:none;stroke:#000000;stroke-width:1.125;stroke-linecap:round;stroke-linejoin:miter;stroke-miterlimit:4;stroke-dasharray:none;stroke-opacity:1"
       d="m 56.537848,70.818661 c 0,0 -0.104638,1.953207 2.365923,2.187497 2.470553,0.234298 2.908357,-1.445075 2.908357,-1.445075"
       id="path929-5-5-2-0"
       inkscape:connector-curvature="0" />
  </g>
</svg>
