<svg xmlns="http://www.w3.org/2000/svg" width="90mm" height="90mm" viewBox="0 0 90 90"><circle cx="45" cy="45" r="36" fill="#b4b4b4" stroke="#000" stroke-width="2.75"/><path d="M22.059 52.156V17.579M32.642 45.277v-32.46M43.226 43.69V9.641M53.809 44.218v-32.46M64.392 47.922v-32.46M74.976 56.918v-31.93M73.214 22.697H16.942M79.564 33.28H43.929M80.093 43.863H47.104M27.35 46.864v-32.46M37.934 42.102V9.642M48.517 43.69V9.641M59.1 44.218v-32.46M69.684 53.214V19.167M67.922 17.405h-45.16M75.33 27.988H24.35M81.152 38.572H49.22" fill="none" stroke="#000" stroke-width="2.75"/><path d="M13.268 28.027A36 36 0 0 0 9 45c0 19.882 16.117 36 36 36 18.223-.014 33.562-13.643 35.72-31.738H70.252v-10.49H42.983V28.027z" fill="#fff" stroke="#000" stroke-width="4.49997664"/><path d="M58.926 12.113H30.7M6.876 51.584v32.163M22.75 51.584v32.163M38.626 51.584v32.163M54.5 72.75v10.997" fill="none" stroke="#000" stroke-width="2.75"/><path fill="#fff" stroke="#040000" stroke-width="2.75" stroke-linecap="square" d="M4.163 52.058h37.231v3.835H4.163zM4.163 67.933H57.53v3.835H4.163zM64.402 10.83l5.94-5.292v76.9h-5.94z"/><path d="M21.328 20.403v16.838l-6.805 6.805h13.213l-6.63-6.63" fill="none" stroke="#000" stroke-width="2.75"/><path d="M10.4 23.145l5.293-5.94H87.3v5.94z" fill="#fff" stroke="#040000" stroke-width="2.75" stroke-linecap="square"/><path fill="#fff" stroke="#040000" stroke-width="2.75" stroke-linecap="square" d="M63.189 15.679h8.279v8.092h-8.279z"/></svg>