<?xml version="1.0" encoding="utf-8"?>
<!DOCTYPE svg PUBLIC "-//W3C//DTD SVG 1.1//EN" "http://www.w3.org/Graphics/SVG/1.1/DTD/svg11.dtd">
<svg xmlns="http://www.w3.org/2000/svg" viewBox="0 0 90 90"><defs><g id="--logo"><g fill="#fff" stroke-width="4.5"><circle r="36" cy="45" cx="45" stroke="gray"/><path d="M19.2 20A36 36 0 0 0 9 45a36 36 0 0 0 36 36 36 36 0 0 0 35.6-31H65V40H36V20z" stroke="#000"/></g><g stroke="#000"><path d="M6 85V55m15 30V55m15 30V55m15 30V70" fill="none" stroke-width="2.3"/><path fill="#faffff" stroke-width="2.3" d="M3 53h36v4H3zM3 70h50.4v4H3z"/><path d="M80 50V35m-5 15V25m-5 25V20M60 40V12.3M55 40V10M45 40V9.2M40 40V9m-5 11v-9m-10 9v-5m57 30H65m16-5H65m13-5H36m29 5V15m7 10H36m14 15V9m11 6H28m8 5h32M36 30h36" fill="none" stroke-width="1.1"/></g><g stroke="#000" stroke-width="2.3"><path fill="#faffff" d="M61 60h15v25H61zM66 5h5v55h-5z"/><path fill="#faffff" d="M18 9h64v3H18z"/><path fill="#faffff" d="M76 5h8.6v15H76z"/><path d="M20 12v23l-5 10h10l-5-10" fill="none"/><path fill="#faffff" d="M13 44h14v4H13z"/></g></g></defs></svg>