<svg xmlns="http://www.w3.org/2000/svg" width="90" height="90"><path d="M35.788 72.224l.685.685.684-.684-.684-.686zm2.1.001l.685.685.685-.686-.685-.685zm2.1 0l.684.685.686-.686-.685-.685zm2.1 0l.685.685.685-.686-.685-.685zm2.1 0l.685.685.684-.685-.684-.685zm2.132 0l.686.685.684-.685-.684-.685zm2.068 0l.685.685.684-.685-.684-.685zm2.1-.001l.685.685.684-.684-.684-.686zm2.1.001l.685.685.685-.686-.685-.685zm-20.966-2.1l.65.65.652-.65-.651-.651zm2.1 0l.651.65.65-.65-.65-.651zm2.1 0l.65.65.652-.65-.651-.651zm2.1-.001l.65.651.652-.65-.651-.652zm2.1.001l.65.65.652-.65-.651-.651zm2.1 0l.65.65.651-.65-.65-.651zm2.1 0l.651.65.65-.65-.65-.651zm2.133 0l.651.65.65-.65-.65-.651zm2.067 0l.651.65.65-.65-.65-.651zm2.1 0l.65.65.652-.65-.651-.651zm2.1-.001l.65.651.652-.65-.651-.652zm2.1.001l.65.65.652-.65-.651-.651zm2.1 0l.65.65.651-.65-.65-.651z"/><path d="M31.622 70.125l.65.65.652-.65-.651-.651zm2.1 0l.651.65.65-.65-.65-.651zm2.1 0l.65.65.652-.65-.651-.651zm2.1-.001l.65.651.652-.65-.651-.652zm2.1.001l.65.65.652-.65-.651-.651zm2.1 0l.65.65.651-.65-.65-.651zm2.1 0l.651.65.65-.65-.65-.651zm2.133 0l.651.65.65-.65-.65-.651zm2.067 0l.651.65.65-.65-.65-.651zm2.1 0l.65.65.652-.65-.651-.651zm2.1-.001l.65.651.652-.65-.651-.652zm2.1.001l.65.65.652-.65-.651-.651zm2.1 0l.65.65.651-.65-.65-.651zm-29.367-2.1l.618.618.619-.618-.619-.619zm2.099 0l.619.618.618-.618-.618-.619zm2.101 0l.618.618.619-.618-.619-.619zm2.099 0l.619.618.618-.618-.618-.619zm2.1 0l.619.618.618-.618-.618-.619zm2.101 0l.618.618.619-.618-.619-.619zm2.099 0l.619.618.618-.618-.618-.619zm2.101 0l.618.618.619-.618-.619-.619zm2.099 0l.619.618.618-.618-.618-.619zm2.133 0l.619.618.618-.618-.618-.619zm2.067 0l.619.618.618-.618-.618-.619zm2.1 0l.619.618.618-.618-.618-.619zm2.101 0l.618.618.619-.618-.619-.619zm2.099 0l.619.618.618-.618-.618-.619zm2.101 0l.618.618.619-.618-.619-.619zm2.099 0l.619.618.618-.618-.618-.619zm2.101 0l.618.618.619-.618-.619-.619z"/><path d="M27.455 68.025l.618.618.619-.618-.619-.619zm2.099 0l.619.618.618-.618-.618-.619zm2.101 0l.618.618.619-.618-.619-.619zm2.099 0l.619.618.618-.618-.618-.619zm2.1 0l.619.618.618-.618-.618-.619zm2.101 0l.618.618.619-.618-.619-.619zm2.099 0l.619.618.618-.618-.618-.619zm2.101 0l.618.618.619-.618-.619-.619zm2.099 0l.619.618.618-.618-.618-.619zm2.133 0l.619.618.618-.618-.618-.619zm2.067 0l.619.618.618-.618-.618-.619zm2.1 0l.619.618.618-.618-.618-.619zm2.101 0l.618.618.619-.618-.619-.619zm2.099 0l.619.618.618-.618-.618-.619zm2.101 0l.618.618.619-.618-.619-.619zm2.099 0l.619.618.618-.618-.618-.619zm2.101 0l.618.618.619-.618-.619-.619zm-35.7-2.101l.618.62.619-.619-.619-.618zm2.099 0l.619.62.618-.619-.618-.618zm2.1.001l.619.619.618-.619-.618-.618zm2.1-.001l.619.62.618-.619-.618-.618zm2.1.001l.619.619.618-.619-.618-.618zm2.1-.001l.62.62.618-.619-.619-.618zm2.1 0l.619.62.618-.619-.618-.618zm2.101 0l.618.62.619-.619-.619-.618zm2.099 0l.619.62.618-.619-.618-.618zm2.1.001l.619.619.618-.619-.618-.618zm2.133-.001l.62.62.618-.619-.618-.618zm2.067.001l.619.619.618-.619-.618-.618zm2.1-.001l.62.62.618-.619-.619-.618zm2.1 0l.619.62.618-.619-.618-.618zm2.101 0l.618.62.619-.619-.619-.618zm2.099 0l.619.62.618-.619-.618-.618zm2.1.001l.619.619.618-.619-.618-.618zm2.1-.001l.619.62.618-.619-.618-.618zm2.1.001l.619.619.618-.619-.618-.618zm-39.869-2.1l.588.587.587-.587-.588-.588zm2.1-.001l.588.588.587-.588-.587-.587zm2.1 0l.587.588.588-.588-.588-.587zm2.101 0l.587.588.587-.588-.587-.587zm2.099 0l.588.588.587-.588-.587-.587zm2.1.001l.588.587.587-.587-.587-.588zm2.1-.001l.588.588.587-.588-.587-.587zm2.1.001l.588.587.587-.587-.588-.588zm2.1-.001l.588.588.587-.588-.587-.587zm2.1 0l.587.588.588-.588-.588-.587zm2.101 0l.587.588.587-.588-.587-.587zm2.133 0l.587.588.587-.588-.587-.587zm2.066.001l.588.587.587-.587-.587-.588zm2.1-.001l.588.588.587-.588-.587-.587zm2.1.001l.588.587.587-.587-.588-.588zm2.1-.001l.588.588.587-.588-.587-.587zm2.1 0l.587.588.588-.588-.588-.587zm2.101 0l.587.588.587-.588-.587-.587zm2.099 0l.588.588.587-.588-.587-.587zm2.1.001l.588.587.587-.587-.587-.588zm2.1-.001l.588.588.587-.588-.587-.587z"/><path d="M23.285 63.825l.588.587.587-.587-.588-.588zm2.1-.001l.588.588.587-.588-.587-.587zm2.1 0l.587.588.588-.588-.588-.587zm2.101 0l.587.588.587-.588-.587-.587zm2.099 0l.588.588.587-.588-.587-.587zm2.1.001l.588.587.587-.587-.587-.588zm2.1-.001l.588.588.587-.588-.587-.587zm2.1.001l.588.587.587-.587-.588-.588zm2.1-.001l.588.588.587-.588-.587-.587zm2.1 0l.587.588.588-.588-.588-.587zm2.101 0l.587.588.587-.588-.587-.587zm2.133 0l.587.588.587-.588-.587-.587zm2.066.001l.588.587.587-.587-.587-.588zm2.1-.001l.588.588.587-.588-.587-.587zm2.1.001l.588.587.587-.587-.588-.588zm2.1-.001l.588.588.587-.588-.587-.587zm2.1 0l.587.588.588-.588-.588-.587zm2.101 0l.587.588.587-.588-.587-.587zm2.099 0l.588.588.587-.588-.587-.587zm2.1.001l.588.587.587-.587-.587-.588zm2.1-.001l.588.588.587-.588-.587-.587zm-44.037-2.099l.558.558.558-.558-.558-.558zm2.067 0l.558.558.558-.558-.558-.558zm2.1-.001l.558.559.558-.558-.558-.558zm2.1.001l.558.558.558-.558-.558-.558zm2.1-.001l.558.559.558-.558-.558-.558zm2.1 0l.558.559.557-.558-.557-.558zm2.1.001l.558.558.557-.558-.557-.558zm2.1-.001l.558.559.558-.558-.558-.558zm2.1.001l.558.558.558-.558-.558-.558zm2.1-.001l.558.559.558-.558-.558-.558zm2.1.001l.558.558.558-.558-.558-.558zm2.1-.001l.558.559.558-.558-.558-.558zm2.133 0l.558.559.558-.558-.558-.558zm2.067.001l.558.558.558-.558-.558-.558zm2.1-.001l.558.559.558-.558-.558-.558zm2.1.001l.558.558.558-.558-.558-.558zm2.1-.001l.558.559.558-.558-.558-.558zm2.1.001l.558.558.558-.558-.558-.558zm2.1-.001l.558.559.558-.558-.558-.558zm2.1 0l.558.559.557-.558-.557-.558zm2.1.001l.558.558.558-.558-.558-.558zm2.1-.001l.558.559.558-.558-.558-.558zm2.1.001l.558.558.558-.558-.558-.558z"/><path d="M21.248 61.725l.558.558.558-.558-.558-.558zm2.067 0l.558.558.558-.558-.558-.558zm2.1-.001l.558.559.558-.558-.558-.558zm2.1.001l.558.558.558-.558-.558-.558zm2.1-.001l.558.559.558-.558-.558-.558zm2.1 0l.558.559.557-.558-.557-.558zm2.1.001l.558.558.557-.558-.557-.558zm2.1-.001l.558.559.558-.558-.558-.558zm2.1.001l.558.558.558-.558-.558-.558zm2.1-.001l.558.559.558-.558-.558-.558zm2.1.001l.558.558.558-.558-.558-.558zm2.1-.001l.558.559.558-.558-.558-.558zm2.133 0l.558.559.558-.558-.558-.558zm2.067.001l.558.558.558-.558-.558-.558zm2.1-.001l.558.559.558-.558-.558-.558zm2.1.001l.558.558.558-.558-.558-.558zm2.1-.001l.558.559.558-.558-.558-.558zm2.1.001l.558.558.558-.558-.558-.558zm2.1-.001l.558.559.558-.558-.558-.558zm2.1 0l.558.559.557-.558-.557-.558zm2.1.001l.558.558.558-.558-.558-.558zm2.1-.001l.558.559.558-.558-.558-.558zm2.1.001l.558.558.558-.558-.558-.558zm-46.139-2.1l.53.53.53-.53-.53-.53zm2.066 0l.53.53.531-.53-.53-.53zm2.1-.001l.53.53.531-.53-.53-.53zm2.1.001l.53.53.531-.53-.53-.53zm2.1-.001l.53.53.531-.53-.53-.53zm2.101.001l.53.53.53-.53-.53-.53zm2.099 0l.53.53.531-.53-.53-.53zm2.1-.001l.53.53.531-.53-.53-.53zm2.1.001l.53.53.531-.53-.53-.53zm2.1-.001l.53.53.531-.53-.53-.53zm2.1.001l.53.53.531-.53-.53-.53zm2.1-.001l.53.53.531-.53-.53-.53zm2.134 0l.53.53.53-.53-.53-.53zm2.066.001l.53.53.531-.53-.53-.53zm2.1-.001l.53.53.531-.53-.53-.53zm2.1.001l.53.53.531-.53-.53-.53zm2.1-.001l.53.53.531-.53-.53-.53zm2.1.001l.53.53.531-.53-.53-.53zm2.1-.001l.53.53.531-.53-.53-.53zm2.101.001l.53.53.53-.53-.53-.53zm2.099 0l.53.53.531-.53-.53-.53zm2.1-.001l.53.53.531-.53-.53-.53zm2.1.001l.53.53.531-.53-.53-.53zM19.17 57.524l.503.504.504-.504-.504-.503zm2.132 0l.504.504.504-.504-.504-.503zm2.067.001l.504.504.504-.504-.504-.504zm2.101 0l.503.504.504-.504-.504-.504zm2.1 0l.503.504.504-.504-.504-.504zm2.1-.001l.503.504.504-.504-.504-.503zm2.1.001l.503.504.504-.504-.504-.504zm2.1-.001l.503.504.504-.504-.504-.503zm2.1.001l.503.504.504-.504-.504-.504zm2.099 0l.504.504.504-.504-.504-.504zm2.101 0l.503.504.504-.504-.504-.504zm2.1 0l.503.504.504-.504-.504-.504zm2.1-.001l.503.504.504-.504-.504-.503zm2.133.001l.503.504.504-.504-.504-.504zm2.067-.001l.503.504.504-.504-.504-.503zm2.1.001l.503.504.504-.504-.504-.504zm2.099 0l.504.504.504-.504-.504-.504zm2.101 0l.503.504.504-.504-.504-.504zm2.1 0l.503.504.504-.504-.504-.504zm2.1-.001l.503.504.504-.504-.504-.503zm2.1.001l.503.504.504-.504-.504-.504zm2.1-.001l.503.504.504-.504-.504-.503zm2.1.001l.503.504.504-.504-.504-.504zm2.099 0l.504.504.504-.504-.504-.504zm2.101 0l.503.504.504-.504-.504-.504z"/><path d="M19.17 57.524l.503.504.504-.504-.504-.503zm2.132 0l.504.504.504-.504-.504-.503zm2.067.001l.504.504.504-.504-.504-.504zm2.101 0l.503.504.504-.504-.504-.504zm2.1 0l.503.504.504-.504-.504-.504zm2.1-.001l.503.504.504-.504-.504-.503zm2.1.001l.503.504.504-.504-.504-.504zm2.1-.001l.503.504.504-.504-.504-.503zm2.1.001l.503.504.504-.504-.504-.504zm2.099 0l.504.504.504-.504-.504-.504zm2.101 0l.503.504.504-.504-.504-.504zm2.1 0l.503.504.504-.504-.504-.504zm2.1-.001l.503.504.504-.504-.504-.503zm2.133.001l.503.504.504-.504-.504-.504zm2.067-.001l.503.504.504-.504-.504-.503zm2.1.001l.503.504.504-.504-.504-.504zm2.099 0l.504.504.504-.504-.504-.504zm2.101 0l.503.504.504-.504-.504-.504zm2.1 0l.503.504.504-.504-.504-.504zm2.1-.001l.503.504.504-.504-.504-.503zm2.1.001l.503.504.504-.504-.504-.504zm2.1-.001l.503.504.504-.504-.504-.503zm2.1.001l.503.504.504-.504-.504-.504zm2.099 0l.504.504.504-.504-.504-.504zm2.101 0l.503.504.504-.504-.504-.504zm-50.376-2.1l.479.478.479-.478-.48-.479zm2.134 0l.478.478.479-.478-.48-.479zm2.066 0l.48.478.478-.478-.479-.479zm2.1 0l.479.478.478-.478-.478-.479zm2.1 0l.48.478.478-.478-.479-.479zm2.1 0l.479.478.479-.478-.48-.479zm2.1 0l.479.478.478-.478-.478-.479zm2.1 0l.479.478.479-.478-.48-.479zm2.1 0l.479.478.478-.478-.478-.479zm2.1 0l.48.478.478-.478-.479-.479zm2.1 0l.479.478.478-.478-.478-.479zm2.1 0l.48.478.478-.478-.479-.479zm2.1 0l.479.478.479-.478-.48-.479zm2.134 0l.478.478.479-.478-.48-.479zm2.066 0l.479.478.479-.478-.48-.479zm2.1 0l.479.478.478-.478-.478-.479zm2.1 0l.48.478.478-.478-.479-.479zm2.1 0l.479.478.478-.478-.478-.479zm2.1-.001l.479.479.479-.479-.48-.478zm2.1.001l.479.478.479-.478-.48-.479zm2.1 0l.479.478.478-.478-.478-.479zm2.1 0l.479.478.479-.478-.48-.479zm2.1 0l.479.478.478-.478-.478-.479zm2.1 0l.48.478.478-.478-.479-.479zm2.1 0l.479.478.479-.478-.48-.479z"/><path d="M19.194 55.425l.479.478.479-.478-.48-.479zm2.134 0l.478.478.479-.478-.48-.479zm2.066 0l.48.478.478-.478-.479-.479zm2.1 0l.479.478.478-.478-.478-.479zm2.1 0l.48.478.478-.478-.479-.479zm2.1 0l.479.478.479-.478-.48-.479zm2.1 0l.479.478.478-.478-.478-.479zm2.1 0l.479.478.479-.478-.48-.479zm2.1 0l.479.478.478-.478-.478-.479zm2.1 0l.48.478.478-.478-.479-.479zm2.1 0l.479.478.478-.478-.478-.479zm2.1 0l.48.478.478-.478-.479-.479zm2.1 0l.479.478.479-.478-.48-.479zm2.134 0l.478.478.479-.478-.48-.479zm2.066 0l.479.478.479-.478-.48-.479zm2.1 0l.479.478.478-.478-.478-.479zm2.1 0l.48.478.478-.478-.479-.479zm2.1 0l.479.478.478-.478-.478-.479zm2.1-.001l.479.479.479-.479-.48-.478zm2.1.001l.479.478.479-.478-.48-.479zm2.1 0l.479.478.478-.478-.478-.479zm2.1 0l.479.478.479-.478-.48-.479zm2.1 0l.479.478.478-.478-.478-.479zm2.1 0l.48.478.478-.478-.479-.479zm2.1 0l.479.478.479-.478-.48-.479zm-52.475-2.1l.454.454.454-.454-.454-.455zm2.1 0l.454.454.454-.454-.454-.455zm2.133 0l.454.454.454-.454-.454-.455zm2.066 0l.454.454.455-.454-.455-.455zm2.101 0l.454.454.454-.454-.454-.455zm2.099 0l.454.454.455-.454-.455-.455zm2.101 0l.454.454.454-.454-.454-.455zm2.1 0l.454.454.454-.454-.454-.455zm2.1 0l.454.454.454-.454-.454-.455zm2.1 0l.454.454.454-.454-.454-.455zm2.099 0l.454.454.455-.454-.455-.455zm2.101 0l.454.454.454-.454-.454-.455zm2.099 0l.454.454.455-.454-.455-.455zm2.101 0l.454.454.454-.454-.454-.455zm2.133 0l.454.454.454-.454-.454-.455zm2.067 0l.454.454.454-.454-.454-.455zm2.1 0l.454.454.454-.454-.454-.455zm2.099 0l.454.454.455-.454-.455-.455zm2.101 0l.454.454.454-.454-.454-.455zm2.099 0l.454.454.455-.454-.455-.455zm2.101 0l.454.454.454-.454-.454-.455zm2.1 0l.454.454.454-.454-.454-.455zm2.1 0l.454.454.454-.454-.454-.455zm2.1 0l.454.454.454-.454-.454-.455zm2.099 0l.454.454.455-.454-.455-.455zm2.101 0l.454.454.454-.454-.454-.455zm2.133 0l.454.454.454-.454-.454-.455zM17.14 51.224l.433.432.431-.431-.431-.432zm2.101 0l.432.432.432-.431-.432-.432zm2.133 0l.432.432.432-.431-.432-.432zm2.067.001l.432.432.431-.432-.431-.432zm2.1-.001l.432.432.431-.431-.431-.432zm2.1.001l.432.432.431-.432-.431-.432zm2.1-.001l.432.432.432-.431-.432-.432zm2.099 0l.433.432.431-.431-.431-.432zm2.101 0l.432.432.432-.431-.432-.432zm2.099 0l.433.432.431-.431-.431-.432zm2.101.001l.432.432.431-.432-.431-.432zm2.1-.001l.432.432.431-.431-.431-.432zm2.1.001l.432.432.431-.432-.431-.432zm2.1-.001l.432.432.432-.431-.432-.432zm2.133 0l.432.432.432-.431-.432-.432zm2.067 0l.432.432.432-.431-.432-.432zm2.099 0l.433.432.431-.431-.431-.432zm2.101.001l.432.432.431-.432-.431-.432zm2.1-.001l.432.432.431-.431-.431-.432zm2.099 0l.432.432.432-.431-.432-.432zm2.101 0l.432.432.432-.431-.432-.432zm2.099 0l.433.432.431-.431-.431-.432zm2.101 0l.432.432.432-.431-.432-.432zm2.099 0l.433.432.431-.431-.431-.432zm2.101.001l.432.432.431-.432-.431-.432zm2.1-.001l.432.432.431-.431-.431-.432zm2.133 0l.432.432.431-.431-.431-.432z"/><path d="M17.14 51.224l.433.432.431-.431-.431-.432zm2.101 0l.432.432.432-.431-.432-.432zm2.133 0l.432.432.432-.431-.432-.432zm2.067.001l.432.432.431-.432-.431-.432zm2.1-.001l.432.432.431-.431-.431-.432zm2.1.001l.432.432.431-.432-.431-.432zm2.1-.001l.432.432.432-.431-.432-.432zm2.099 0l.433.432.431-.431-.431-.432zm2.101 0l.432.432.432-.431-.432-.432zm2.099 0l.433.432.431-.431-.431-.432zm2.101.001l.432.432.431-.432-.431-.432zm2.1-.001l.432.432.431-.431-.431-.432zm2.1.001l.432.432.431-.432-.431-.432zm2.1-.001l.432.432.432-.431-.432-.432zm2.133 0l.432.432.432-.431-.432-.432zm2.067 0l.432.432.432-.431-.432-.432zm2.099 0l.433.432.431-.431-.431-.432zm2.101.001l.432.432.431-.432-.431-.432zm2.1-.001l.432.432.431-.431-.431-.432zm2.099 0l.432.432.432-.431-.432-.432zm2.101 0l.432.432.432-.431-.432-.432zm2.099 0l.433.432.431-.431-.431-.432zm2.101 0l.432.432.432-.431-.432-.432zm2.099 0l.433.432.431-.431-.431-.432zm2.101.001l.432.432.431-.432-.431-.432zm2.1-.001l.432.432.431-.431-.431-.432zm2.133 0l.432.432.431-.431-.431-.432zm-54.611-2.1l.41.41.41-.41-.41-.41zm2.099 0l.41.41.41-.41-.41-.41zm2.134.001l.41.41.41-.41-.41-.41zm2.067-.001l.41.41.41-.41-.41-.41zm2.1.001l.41.41.41-.41-.41-.41zm2.1-.001l.41.41.41-.41-.41-.41zm2.1.001l.41.41.41-.41-.41-.41zm2.1-.001l.41.41.41-.41-.41-.41zm2.099 0l.41.41.41-.41-.41-.41zm2.1.001l.41.41.41-.41-.41-.41zm2.101-.001l.41.41.41-.41-.41-.41zm2.1.001l.41.41.41-.41-.41-.41zm2.1-.001l.41.41.41-.41-.41-.41zm2.1.001l.41.41.41-.41-.41-.41zm2.133 0l.41.41.41-.41-.41-.41zm2.066-.001l.41.41.41-.41-.41-.41zm2.101 0l.41.41.41-.41-.41-.41zm2.1 0l.41.41.41-.41-.41-.41zm2.1.001l.41.41.41-.41-.41-.41zm2.1-.001l.41.41.41-.41-.41-.41zm2.1.001l.41.41.41-.41-.41-.41zm2.1-.001l.41.41.41-.41-.41-.41zm2.099 0l.41.41.41-.41-.41-.41zm2.101 0l.41.41.41-.41-.41-.41zm2.1 0l.41.41.41-.41-.41-.41zm2.1.001l.41.41.41-.41-.41-.41zm2.133 0l.41.41.41-.41-.41-.41z"/><path d="M17.163 49.124l.41.41.41-.41-.41-.41zm2.099 0l.41.41.41-.41-.41-.41zm2.134.001l.41.41.41-.41-.41-.41zm2.067-.001l.41.41.41-.41-.41-.41zm2.1.001l.41.41.41-.41-.41-.41zm2.1-.001l.41.41.41-.41-.41-.41zm2.1.001l.41.41.41-.41-.41-.41zm2.1-.001l.41.41.41-.41-.41-.41zm2.099 0l.41.41.41-.41-.41-.41zm2.1.001l.41.41.41-.41-.41-.41zm2.101-.001l.41.41.41-.41-.41-.41zm2.1.001l.41.41.41-.41-.41-.41zm2.1-.001l.41.41.41-.41-.41-.41zm2.1.001l.41.41.41-.41-.41-.41zm2.133 0l.41.41.41-.41-.41-.41zm2.066-.001l.41.41.41-.41-.41-.41zm2.101 0l.41.41.41-.41-.41-.41zm2.1 0l.41.41.41-.41-.41-.41zm2.1.001l.41.41.41-.41-.41-.41zm2.1-.001l.41.41.41-.41-.41-.41zm2.1.001l.41.41.41-.41-.41-.41zm2.1-.001l.41.41.41-.41-.41-.41zm2.099 0l.41.41.41-.41-.41-.41zm2.101 0l.41.41.41-.41-.41-.41zm2.1 0l.41.41.41-.41-.41-.41zm2.1.001l.41.41.41-.41-.41-.41zm2.133 0l.41.41.41-.41-.41-.41zm-54.613-2.101l.39.39.39-.39-.39-.39zm2.1.001l.39.39.39-.39-.39-.39zm2.133 0l.39.39.39-.39-.39-.39zm2.067-.001l.39.39.39-.39-.39-.39zm2.1.001l.39.39.39-.39-.39-.39zm2.1-.001l.39.39.39-.39-.39-.39zm2.1.001l.39.39.39-.39-.39-.39zm2.1-.001l.39.39.39-.39-.39-.39zm2.1.001l.39.39.39-.39-.39-.39zm2.1-.001l.39.39.39-.39-.39-.39zm2.1 0l.39.39.39-.39-.39-.39zm2.1.001l.39.39.39-.39-.39-.39zm2.1-.001l.39.39.39-.39-.39-.39zm2.1.001l.39.39.39-.39-.39-.39zm2.133 0l.39.39.39-.39-.39-.39zm2.067 0l.39.39.39-.39-.39-.39zm2.1-.001l.39.39.39-.39-.39-.39zm2.1 0l.39.39.39-.39-.39-.39zm2.1.001l.39.39.39-.39-.39-.39zm2.1-.001l.39.39.39-.39-.39-.39zm2.1.001l.39.39.39-.39-.39-.39zm2.1-.001l.39.39.39-.39-.39-.39zm2.1.001l.39.39.39-.39-.39-.39zm2.1-.001l.39.39.39-.39-.39-.39zm2.1 0l.39.39.39-.39-.39-.39zm2.1.001l.39.39.39-.39-.39-.39zm2.133-.001l.39.39.39-.39-.39-.39zm-54.613-2.099l.37.37.37-.37-.37-.37zm2.1-.001l.37.37.37-.37-.37-.37zm2.133.001l.37.37.37-.37-.37-.37zm2.067-.001l.37.37.37-.37-.37-.37zm2.1.001l.37.37.37-.37-.37-.37zm2.1-.001l.37.37.37-.37-.37-.37zm2.1.001l.37.37.37-.37-.37-.37zm2.1 0l.37.37.37-.37-.37-.37zm2.1-.001l.37.37.37-.37-.37-.37zm2.1.001l.37.37.37-.37-.37-.37zm2.1-.001l.37.37.37-.37-.37-.37zm2.1.001l.37.37.37-.37-.37-.37zm2.1-.001l.37.37.37-.37-.37-.37zm2.1.001l.37.37.37-.37-.37-.37zm2.133 0l.37.37.37-.37-.37-.37zm2.067-.001l.37.37.37-.37-.37-.37zm2.1.001l.37.37.37-.37-.37-.37zm2.1-.001l.37.37.37-.37-.37-.37zm2.1.001l.37.37.37-.37-.37-.37zm2.1-.001l.37.37.37-.37-.37-.37zm2.1.001l.37.37.37-.37-.37-.37zm2.1 0l.37.37.37-.37-.37-.37zm2.1-.001l.37.37.37-.37-.37-.37zm2.1.001l.37.37.37-.37-.37-.37zm2.1-.001l.37.37.37-.37-.37-.37zm2.1.001l.37.37.37-.37-.37-.37zm2.133 0l.37.37.37-.37-.37-.37z"/><path d="M17.203 44.925l.37.37.37-.37-.37-.37zm2.1-.001l.37.37.37-.37-.37-.37zm2.133.001l.37.37.37-.37-.37-.37zm2.067-.001l.37.37.37-.37-.37-.37zm2.1.001l.37.37.37-.37-.37-.37zm2.1-.001l.37.37.37-.37-.37-.37zm2.1.001l.37.37.37-.37-.37-.37zm2.1 0l.37.37.37-.37-.37-.37zm2.1-.001l.37.37.37-.37-.37-.37zm2.1.001l.37.37.37-.37-.37-.37zm2.1-.001l.37.37.37-.37-.37-.37zm2.1.001l.37.37.37-.37-.37-.37zm2.1-.001l.37.37.37-.37-.37-.37zm2.1.001l.37.37.37-.37-.37-.37zm2.133 0l.37.37.37-.37-.37-.37zm2.067-.001l.37.37.37-.37-.37-.37zm2.1.001l.37.37.37-.37-.37-.37zm2.1-.001l.37.37.37-.37-.37-.37zm2.1.001l.37.37.37-.37-.37-.37zm2.1-.001l.37.37.37-.37-.37-.37zm2.1.001l.37.37.37-.37-.37-.37zm2.1 0l.37.37.37-.37-.37-.37zm2.1-.001l.37.37.37-.37-.37-.37zm2.1.001l.37.37.37-.37-.37-.37zm2.1-.001l.37.37.37-.37-.37-.37zm2.1.001l.37.37.37-.37-.37-.37zm2.133 0l.37.37.37-.37-.37-.37zm-54.615-2.1l.352.351.351-.351-.351-.352zm2.1 0l.352.351.351-.351-.351-.352zm2.133 0l.352.351.352-.351-.352-.352zm2.067 0l.352.351.351-.351-.351-.352zm2.1 0l.352.351.35-.351-.35-.352zm2.1 0l.352.351.351-.351-.351-.352zm2.1 0l.352.351.351-.351-.351-.352zm2.1 0l.352.351.351-.351-.351-.352zm2.1 0l.352.351.351-.351-.351-.352zm2.1-.001l.352.352.351-.352-.351-.352zm2.1.001l.352.351.351-.351-.351-.352zm2.1 0l.352.351.35-.351-.35-.352zm2.1 0l.352.351.351-.351-.351-.352zm2.1 0l.352.351.351-.351-.351-.352zm2.133 0l.352.351.352-.351-.352-.352zm2.067 0l.352.351.351-.351-.351-.352zm2.1-.001l.352.352.351-.352-.351-.352zm2.1.001l.352.351.351-.351-.351-.352zm2.1 0l.352.351.35-.351-.35-.352zm2.1 0l.352.351.351-.351-.351-.352zm2.1 0l.352.351.351-.351-.351-.352zm2.1-.001l.352.352.351-.352-.351-.352zm2.1.001l.352.351.351-.351-.351-.352zm2.1-.001l.352.352.351-.352-.351-.352zm2.1.001l.352.351.351-.351-.351-.352zm2.1 0l.352.351.35-.351-.35-.352zm2.133-.001l.352.352.352-.352-.352-.352z"/><path d="M17.221 42.825l.352.351.351-.351-.351-.352zm2.1 0l.352.351.351-.351-.351-.352zm2.133 0l.352.351.352-.351-.352-.352zm2.067 0l.352.351.351-.351-.351-.352zm2.1 0l.352.351.35-.351-.35-.352zm2.1 0l.352.351.351-.351-.351-.352zm2.1 0l.352.351.351-.351-.351-.352zm2.1 0l.352.351.351-.351-.351-.352zm2.1 0l.352.351.351-.351-.351-.352zm2.1-.001l.352.352.351-.352-.351-.352zm2.1.001l.352.351.351-.351-.351-.352zm2.1 0l.352.351.35-.351-.35-.352zm2.1 0l.352.351.351-.351-.351-.352zm2.1 0l.352.351.351-.351-.351-.352zm2.133 0l.352.351.352-.351-.352-.352zm2.067 0l.352.351.351-.351-.351-.352zm2.1-.001l.352.352.351-.352-.351-.352zm2.1.001l.352.351.351-.351-.351-.352zm2.1 0l.352.351.35-.351-.35-.352zm2.1 0l.352.351.351-.351-.351-.352zm2.1 0l.352.351.351-.351-.351-.352zm2.1-.001l.352.352.351-.352-.351-.352zm2.1.001l.352.351.351-.351-.351-.352zm2.1-.001l.352.352.351-.352-.351-.352zm2.1.001l.352.351.351-.351-.351-.352zm2.1 0l.352.351.35-.351-.35-.352zm2.133-.001l.352.352.352-.352-.352-.352zm-54.671-2.099l.39.39.39-.39-.39-.39zm2.1 0l.39.39.39-.39-.39-.39zm2.133-.001l.39.39.39-.39-.39-.39zm2.067.001l.39.39.39-.39-.39-.39zm2.1 0l.39.39.39-.39-.39-.39zm2.1 0l.39.39.39-.39-.39-.39zm2.1-.001l.39.39.39-.39-.39-.39zm2.1.001l.39.39.39-.39-.39-.39zm2.1 0l.39.39.39-.39-.39-.39zm2.1 0l.39.39.39-.39-.39-.39zm2.1 0l.39.39.39-.39-.39-.39zm2.1 0l.39.39.39-.39-.39-.39zm2.1 0l.39.39.39-.39-.39-.39zm2.1-.001l.39.39.39-.39-.39-.39zm2.134.001l.39.39.389-.39-.39-.39zm2.066 0l.39.39.39-.39-.39-.39zm2.1 0l.39.39.39-.39-.39-.39zm2.1 0l.39.39.39-.39-.39-.39zm2.1 0l.39.39.39-.39-.39-.39zm2.1 0l.39.39.39-.39-.39-.39zm2.1-.001l.39.39.39-.39-.39-.39zm2.1.001l.39.39.39-.39-.39-.39zm2.1 0l.39.39.39-.39-.39-.39zm2.1 0l.39.39.39-.39-.39-.39zm2.1 0l.39.39.39-.39-.39-.39zm2.1 0l.39.39.39-.39-.39-.39zm2.133 0l.39.39.39-.39-.39-.39zm-54.613-2.1l.37.37.37-.37-.37-.37zm2.1 0l.37.37.37-.37-.37-.37zm2.133 0l.37.37.37-.37-.37-.37zm2.067 0l.37.37.37-.37-.37-.37zm2.1 0l.37.37.37-.37-.37-.37zm2.1 0l.37.37.37-.37-.37-.37zm2.1 0l.37.37.37-.37-.37-.37zm2.1 0l.37.37.37-.37-.37-.37zm2.1 0l.37.37.37-.37-.37-.37zm2.1 0l.37.37.37-.37-.37-.37zm2.1 0l.37.37.37-.37-.37-.37zm2.1 0l.37.37.37-.37-.37-.37zm2.1 0l.37.37.37-.37-.37-.37zm2.1 0l.37.37.37-.37-.37-.37zm2.133 0l.37.37.37-.37-.37-.37zm2.067 0l.37.37.37-.37-.37-.37zm2.1 0l.37.37.37-.37-.37-.37zm2.1 0l.37.37.37-.37-.37-.37zm2.1 0l.37.37.37-.37-.37-.37zm2.1 0l.37.37.37-.37-.37-.37zm2.1 0l.37.37.37-.37-.37-.37zm2.1 0l.37.37.37-.37-.37-.37zm2.1 0l.37.37.37-.37-.37-.37zm2.1 0l.37.37.37-.37-.37-.37zm2.1 0l.37.37.37-.37-.37-.37zm2.1 0l.37.37.37-.37-.37-.37zm2.133 0l.37.37.37-.37-.37-.37z"/><path d="M17.203 38.625l.37.37.37-.37-.37-.37zm2.1 0l.37.37.37-.37-.37-.37zm2.133 0l.37.37.37-.37-.37-.37zm2.067 0l.37.37.37-.37-.37-.37zm2.1 0l.37.37.37-.37-.37-.37zm2.1 0l.37.37.37-.37-.37-.37zm2.1 0l.37.37.37-.37-.37-.37zm2.1 0l.37.37.37-.37-.37-.37zm2.1 0l.37.37.37-.37-.37-.37zm2.1 0l.37.37.37-.37-.37-.37zm2.1 0l.37.37.37-.37-.37-.37zm2.1 0l.37.37.37-.37-.37-.37zm2.1 0l.37.37.37-.37-.37-.37zm2.1 0l.37.37.37-.37-.37-.37zm2.133 0l.37.37.37-.37-.37-.37zm2.067 0l.37.37.37-.37-.37-.37zm2.1 0l.37.37.37-.37-.37-.37zm2.1 0l.37.37.37-.37-.37-.37zm2.1 0l.37.37.37-.37-.37-.37zm2.1 0l.37.37.37-.37-.37-.37zm2.1 0l.37.37.37-.37-.37-.37zm2.1 0l.37.37.37-.37-.37-.37zm2.1 0l.37.37.37-.37-.37-.37zm2.1 0l.37.37.37-.37-.37-.37zm2.1 0l.37.37.37-.37-.37-.37zm2.1 0l.37.37.37-.37-.37-.37zm2.133 0l.37.37.37-.37-.37-.37zm-54.615-2.101l.352.352.351-.352-.351-.351zm2.1.001l.352.352.351-.352-.351-.352zm2.134-.001l.351.352.352-.352-.352-.351zm2.066.001l.352.352.351-.352-.351-.352zm2.1-.001l.352.352.351-.352-.351-.351zm2.1 0l.352.352.35-.352-.35-.351zm2.1 0l.352.352.351-.352-.351-.351zm2.1 0l.352.352.351-.352-.351-.351zm2.1.001l.352.352.351-.352-.351-.352zm2.1-.001l.352.352.351-.352-.351-.351zm2.1.001l.352.352.351-.352-.351-.352zm2.1-.001l.352.352.351-.352-.351-.351zm2.1 0l.352.352.35-.352-.35-.351zm2.1 0l.352.352.351-.352-.351-.351zm2.134 0l.351.352.352-.352-.352-.351zm2.066.001l.352.352.351-.352-.351-.352zm2.1-.001l.352.352.351-.352-.351-.351zm2.1 0l.352.352.35-.352-.35-.351zm2.1 0l.352.352.351-.352-.351-.351zm2.1 0l.352.352.351-.352-.351-.351zm2.1 0l.352.352.351-.352-.351-.351zm2.1 0l.352.352.351-.352-.351-.351zm2.1.001l.352.352.351-.352-.351-.352zm2.1-.001l.352.352.351-.352-.351-.351zm2.1 0l.352.352.35-.352-.35-.351zm2.1 0l.352.352.351-.352-.351-.351zm2.133 0l.352.352.352-.352-.352-.351z"/><path d="M17.221 36.524l.352.352.351-.352-.351-.351zm2.1.001l.352.352.351-.352-.351-.352zm2.134-.001l.351.352.352-.352-.352-.351zm2.066.001l.352.352.351-.352-.351-.352zm2.1-.001l.352.352.351-.352-.351-.351zm2.1 0l.352.352.35-.352-.35-.351zm2.1 0l.352.352.351-.352-.351-.351zm2.1 0l.352.352.351-.352-.351-.351zm2.1.001l.352.352.351-.352-.351-.352zm2.1-.001l.352.352.351-.352-.351-.351zm2.1.001l.352.352.351-.352-.351-.352zm2.1-.001l.352.352.351-.352-.351-.351zm2.1 0l.352.352.35-.352-.35-.351zm2.1 0l.352.352.351-.352-.351-.351zm2.134 0l.351.352.352-.352-.352-.351zm2.066.001l.352.352.351-.352-.351-.352zm2.1-.001l.352.352.351-.352-.351-.351zm2.1 0l.352.352.35-.352-.35-.351zm2.1 0l.352.352.351-.352-.351-.351zm2.1 0l.352.352.351-.352-.351-.351zm2.1 0l.352.352.351-.352-.351-.351zm2.1 0l.352.352.351-.352-.351-.351zm2.1.001l.352.352.351-.352-.351-.352zm2.1-.001l.352.352.351-.352-.351-.351zm2.1 0l.352.352.35-.352-.35-.351zm2.1 0l.352.352.351-.352-.351-.351zm2.133 0l.352.352.352-.352-.352-.351zm-52.515-2.1l.334.335.334-.334-.334-.335zm2.133 0l.334.335.334-.334-.334-.335zm2.067.001l.334.334.334-.334-.334-.334zm2.1-.001l.334.335.334-.334-.334-.335zm2.1.001l.334.334.334-.334-.334-.334zm2.1-.001l.334.335.334-.334-.334-.335zm2.1.001l.334.334.334-.334-.334-.334zm2.1-.001l.334.335.334-.334-.334-.335zm2.099 0l.335.335.334-.334-.334-.335zm2.101.001l.334.334.334-.334-.334-.334zm2.1-.001l.334.335.334-.334-.334-.335zm2.1.001l.334.334.334-.334-.334-.334zm2.1-.001l.334.335.334-.334-.334-.335zm2.133 0l.334.335.334-.334-.334-.335zm2.067 0l.334.335.334-.334-.334-.335zm2.099 0l.335.335.334-.334-.334-.335zm2.101.001l.334.334.334-.334-.334-.334zm2.1-.001l.334.335.334-.334-.334-.335zm2.1.001l.334.334.334-.334-.334-.334zm2.1-.001l.334.335.334-.334-.334-.335zm2.099 0l.335.335.334-.334-.334-.335zm2.101 0l.334.335.334-.334-.334-.335zm2.099 0l.335.335.334-.334-.334-.335zm2.101.001l.334.334.334-.334-.334-.334zm2.1-.001l.334.335.334-.334-.334-.335zm-50.384-2.1l.318.318.317-.317-.317-.318zm2.134 0l.317.318.317-.317-.317-.318zm2.066.001l.318.317.317-.317-.317-.318zm2.1-.001l.318.318.317-.317-.317-.318zm2.1.001l.318.317.317-.317-.317-.318zm2.1-.001l.318.318.317-.317-.317-.318zm2.1.001l.318.317.317-.317-.317-.318zm2.1-.001l.318.318.317-.317-.317-.318zm2.1 0l.318.318.317-.317-.317-.318zm2.1.001l.318.317.317-.317-.317-.318zm2.1-.001l.318.318.317-.317-.317-.318zm2.1.001l.318.317.317-.317-.317-.318zm2.1-.001l.318.318.317-.317-.317-.318zm2.134 0l.317.318.317-.317-.317-.318zm2.066 0l.318.318.317-.317-.317-.318zm2.1 0l.318.318.317-.317-.317-.318zm2.1.001l.318.317.317-.317-.317-.318zm2.1-.001l.318.318.317-.317-.317-.318zm2.1.001l.318.317.317-.317-.317-.318zm2.1-.001l.318.318.317-.317-.317-.318zm2.1.001l.318.317.317-.317-.317-.318zm2.1-.001l.318.318.317-.317-.317-.318zm2.1 0l.318.318.317-.317-.317-.318zm2.1.001l.318.317.317-.317-.317-.318zm2.1-.001l.318.318.317-.317-.317-.318z"/><path d="M19.355 32.324l.318.318.317-.317-.317-.318zm2.134 0l.317.318.317-.317-.317-.318zm2.066.001l.318.317.317-.317-.317-.318zm2.1-.001l.318.318.317-.317-.317-.318zm2.1.001l.318.317.317-.317-.317-.318zm2.1-.001l.318.318.317-.317-.317-.318zm2.1.001l.318.317.317-.317-.317-.318zm2.1-.001l.318.318.317-.317-.317-.318zm2.1 0l.318.318.317-.317-.317-.318zm2.1.001l.318.317.317-.317-.317-.318zm2.1-.001l.318.318.317-.317-.317-.318zm2.1.001l.318.317.317-.317-.317-.318zm2.1-.001l.318.318.317-.317-.317-.318zm2.134 0l.317.318.317-.317-.317-.318zm2.066 0l.318.318.317-.317-.317-.318zm2.1 0l.318.318.317-.317-.317-.318zm2.1.001l.318.317.317-.317-.317-.318zm2.1-.001l.318.318.317-.317-.317-.318zm2.1.001l.318.317.317-.317-.317-.318zm2.1-.001l.318.318.317-.317-.317-.318zm2.1.001l.318.317.317-.317-.317-.318zm2.1-.001l.318.318.317-.317-.317-.318zm2.1 0l.318.318.317-.317-.317-.318zm2.1.001l.318.317.317-.317-.317-.318zm2.1-.001l.318.318.317-.317-.317-.318zm-48.251-2.099l.302.3.301-.3-.301-.302zm2.066 0l.303.3.301-.3-.301-.302zm2.1-.001l.303.302.301-.301-.301-.302zm2.1.001l.303.3.301-.3-.301-.302zm2.1 0l.303.3.301-.3-.301-.302zm2.101 0l.302.3.301-.3-.301-.302zm2.099 0l.303.3.301-.3-.301-.302zm2.1-.001l.303.302.301-.301-.301-.302zm2.1.001l.303.3.301-.3-.301-.302zm2.1-.001l.303.302.301-.301-.301-.302zm2.101.001l.302.3.301-.3-.301-.302zm2.099 0l.303.3.301-.3-.301-.302zm2.134-.001l.302.302.301-.301-.301-.302zm2.066.001l.303.3.301-.3-.301-.302zm2.1-.001l.303.302.301-.301-.301-.302zm2.1.001l.303.3.301-.3-.301-.302zm2.1-.001l.303.302.301-.301-.301-.302zm2.101.001l.302.3.301-.3-.301-.302zm2.099 0l.303.3.301-.3-.301-.302zm2.1-.001l.303.302.301-.301-.301-.302zm2.1.001l.303.3.301-.3-.301-.302zm2.1-.001l.303.302.301-.301-.301-.302zm2.1.001l.303.3.301-.3-.301-.302zm2.1-.001l.303.302.301-.301-.301-.302z"/><path d="M21.504 30.225l.302.3.301-.3-.301-.302zm2.066 0l.303.3.301-.3-.301-.302zm2.1-.001l.303.302.301-.301-.301-.302zm2.1.001l.303.3.301-.3-.301-.302zm2.1 0l.303.3.301-.3-.301-.302zm2.101 0l.302.3.301-.3-.301-.302zm2.099 0l.303.3.301-.3-.301-.302zm2.1-.001l.303.302.301-.301-.301-.302zm2.1.001l.303.3.301-.3-.301-.302zm2.1-.001l.303.302.301-.301-.301-.302zm2.101.001l.302.3.301-.3-.301-.302zm2.099 0l.303.3.301-.3-.301-.302zm2.134-.001l.302.302.301-.301-.301-.302zm2.066.001l.303.3.301-.3-.301-.302zm2.1-.001l.303.302.301-.301-.301-.302zm2.1.001l.303.3.301-.3-.301-.302zm2.1-.001l.303.302.301-.301-.301-.302zm2.101.001l.302.3.301-.3-.301-.302zm2.099 0l.303.3.301-.3-.301-.302zm2.1-.001l.303.302.301-.301-.301-.302zm2.1.001l.303.3.301-.3-.301-.302zm2.1-.001l.303.302.301-.301-.301-.302zm2.1.001l.303.3.301-.3-.301-.302zm2.1-.001l.303.302.301-.301-.301-.302zm-48.25-2.099l.286.286.286-.286-.286-.287zm2.067 0l.286.286.286-.286-.286-.287zm2.1 0l.286.286.286-.286-.286-.287zm2.1 0l.286.286.287-.286-.287-.287zm2.1 0l.286.286.286-.286-.286-.287zm2.1-.001l.286.287.286-.287-.286-.286zm2.1.001l.286.286.286-.286-.286-.287zm2.099 0l.287.286.286-.286-.286-.287zm2.101 0l.286.286.287-.286-.287-.287zm2.1 0l.286.286.286-.286-.286-.287zm2.1 0l.286.286.287-.286-.287-.287zm2.1 0l.286.286.286-.286-.286-.287zm2.133 0l.286.286.286-.286-.286-.287zm2.067 0l.286.286.286-.286-.286-.287zm2.1-.001l.286.287.286-.287-.286-.286zm2.1.001l.286.286.287-.286-.287-.287zm2.1 0l.286.286.286-.286-.286-.287zm2.1 0l.286.286.287-.286-.287-.287zm2.1 0l.286.286.286-.286-.286-.287zm2.1-.001l.286.287.286-.287-.286-.286zm2.1.001l.286.286.286-.286-.286-.287zm2.1-.001l.286.287.286-.287-.286-.286zm2.1.001l.286.286.287-.286-.287-.287zm-44.087-2.1l.273.272.272-.272-.272-.272zm2.1 0l.273.272.272-.272-.272-.272zm2.1 0l.272.272.273-.272-.273-.272zm2.1 0l.273.272.272-.272-.272-.272zm2.1 0l.273.272.272-.272-.272-.272zm2.1 0l.273.272.272-.272-.272-.272zm2.1 0l.273.272.272-.272-.272-.272zm2.1 0l.273.272.272-.272-.272-.272zm2.1 0l.273.272.272-.272-.272-.272zm2.1-.001l.273.273.272-.273-.272-.272zm2.1.001l.273.272.272-.272-.272-.272zm2.134 0l.272.272.272-.272-.272-.272zm2.066 0l.273.272.272-.272-.272-.272zm2.1 0l.273.272.272-.272-.272-.272zm2.1 0l.273.272.272-.272-.272-.272zm2.1 0l.273.272.272-.272-.272-.272zm2.1 0l.272.272.273-.272-.273-.272zm2.1 0l.273.272.272-.272-.272-.272zm2.1 0l.273.272.272-.272-.272-.272zm2.1 0l.273.272.272-.272-.272-.272zm2.1 0l.273.272.272-.272-.272-.272z"/><path d="M23.6 26.025l.273.272.272-.272-.272-.272zm2.1 0l.273.272.272-.272-.272-.272zm2.1 0l.272.272.273-.272-.273-.272zm2.1 0l.273.272.272-.272-.272-.272zm2.1 0l.273.272.272-.272-.272-.272zm2.1 0l.273.272.272-.272-.272-.272zm2.1 0l.273.272.272-.272-.272-.272zm2.1 0l.273.272.272-.272-.272-.272zm2.1 0l.273.272.272-.272-.272-.272zm2.1-.001l.273.273.272-.273-.272-.272zm2.1.001l.273.272.272-.272-.272-.272zm2.134 0l.272.272.272-.272-.272-.272zm2.066 0l.273.272.272-.272-.272-.272zm2.1 0l.273.272.272-.272-.272-.272zm2.1 0l.273.272.272-.272-.272-.272zm2.1 0l.273.272.272-.272-.272-.272zm2.1 0l.272.272.273-.272-.273-.272zm2.1 0l.273.272.272-.272-.272-.272zm2.1 0l.273.272.272-.272-.272-.272zm2.1 0l.273.272.272-.272-.272-.272zm2.1 0l.273.272.272-.272-.272-.272zm-39.886-2.1l.259.258.258-.258-.258-.259zm2.1 0l.258.258.259-.258-.259-.259zm2.1 0l.259.258.258-.258-.258-.259zm2.1 0l.259.258.258-.258-.258-.259zm2.1 0l.259.258.259-.258-.26-.259zm2.1 0l.259.258.258-.258-.258-.259zm2.1 0l.258.258.258-.258-.258-.259zm2.1 0l.259.258.258-.258-.258-.259zm2.1 0l.258.258.259-.258-.259-.259zm2.1 0l.259.258.258-.258-.258-.259zm2.133 0l.259.258.258-.258-.258-.259zm2.067 0l.259.258.259-.258-.26-.259zm2.1 0l.259.258.258-.258-.258-.259zm2.1 0l.258.258.258-.258-.258-.259zm2.1 0l.259.258.258-.258-.258-.259zm2.1 0l.258.258.259-.258-.259-.259zm2.1 0l.259.258.258-.258-.258-.259zm2.1 0l.259.258.258-.258-.258-.259zm2.1 0l.259.258.259-.258-.26-.259z"/><path d="M25.714 23.925l.259.258.258-.258-.258-.259zm2.1 0l.258.258.259-.258-.259-.259zm2.1 0l.259.258.258-.258-.258-.259zm2.1 0l.259.258.258-.258-.258-.259zm2.1 0l.259.258.259-.258-.26-.259zm2.1 0l.259.258.258-.258-.258-.259zm2.1 0l.258.258.258-.258-.258-.259zm2.1 0l.259.258.258-.258-.258-.259zm2.1 0l.258.258.259-.258-.259-.259zm2.1 0l.259.258.258-.258-.258-.259zm2.133 0l.259.258.258-.258-.258-.259zm2.067 0l.259.258.259-.258-.26-.259zm2.1 0l.259.258.258-.258-.258-.259zm2.1 0l.258.258.258-.258-.258-.259zm2.1 0l.259.258.258-.258-.258-.259zm2.1 0l.258.258.259-.258-.259-.259zm2.1 0l.259.258.258-.258-.258-.259zm2.1 0l.259.258.258-.258-.258-.259zm2.1 0l.259.258.259-.258-.26-.259zm-35.687-2.101l.246.246.245-.245-.245-.246zm2.101 0l.245.246.246-.245-.246-.246zm2.099 0l.246.246.245-.245-.245-.246zm2.1.001l.246.246.246-.246-.246-.246zm2.1-.001l.246.246.246-.245-.246-.246zm2.1 0l.246.246.245-.245-.245-.246zm2.101 0l.245.246.246-.245-.246-.246zm2.099 0l.246.246.245-.245-.245-.246zm2.101 0l.245.246.246-.245-.246-.246zm2.132 0l.246.246.246-.245-.246-.246zm2.067.001l.246.246.246-.246-.246-.246zm2.1-.001l.246.246.246-.245-.246-.246zm2.1 0l.246.246.245-.245-.245-.246zm2.101 0l.245.246.246-.245-.246-.246zm2.099 0l.246.246.245-.245-.245-.246zm2.101 0l.245.246.246-.245-.246-.246zm2.099 0l.246.246.245-.245-.245-.246zm-29.387-2.1l.233.234.233-.233-.233-.234zm2.1.001l.233.233.233-.233-.233-.234zm2.1-.001l.233.234.233-.233-.233-.234zm2.1.001l.233.233.233-.233-.233-.234zm2.1-.001l.233.234.233-.233-.233-.234zm2.1 0l.233.234.233-.233-.233-.234zm2.1 0l.233.234.234-.233-.234-.234zm2.133 0l.233.234.234-.233-.234-.234zm2.067.001l.233.233.233-.233-.233-.234zm2.1-.001l.233.234.233-.233-.233-.234zm2.1.001l.233.233.233-.233-.233-.234zm2.1-.001l.233.234.234-.233-.234-.234zm2.1 0l.233.234.233-.233-.233-.234zm2.1.001l.233.233.233-.233-.233-.234z"/><path d="M32.04 19.724l.233.234.233-.233-.233-.234zm2.1.001l.233.233.233-.233-.233-.234zm2.1-.001l.233.234.233-.233-.233-.234zm2.1.001l.233.233.233-.233-.233-.234zm2.1-.001l.233.234.233-.233-.233-.234zm2.1 0l.233.234.233-.233-.233-.234zm2.1 0l.233.234.234-.233-.234-.234zm2.133 0l.233.234.234-.233-.234-.234zm2.067.001l.233.233.233-.233-.233-.234zm2.1-.001l.233.234.233-.233-.233-.234zm2.1.001l.233.233.233-.233-.233-.234zm2.1-.001l.233.234.234-.233-.234-.234zm2.1 0l.233.234.233-.233-.233-.234zm2.1.001l.233.233.233-.233-.233-.234zm-23.089-2.101l.222.222.221-.221-.221-.222zm2.1.001l.222.222.221-.222-.221-.222zm2.1-.001l.222.222.221-.221-.221-.222zm2.1.001l.222.222.221-.222-.221-.222zm2.1-.001l.222.222.221-.221-.221-.222zm2.133 0l.222.222.221-.221-.221-.222zm2.067 0l.222.222.222-.221-.222-.222zm2.1 0l.222.222.221-.221-.221-.222zm2.1.001l.222.222.221-.222-.221-.222z"/><path d="M36.251 17.624l.222.222.221-.221-.221-.222zm2.1.001l.222.222.221-.222-.221-.222zm2.1-.001l.222.222.221-.221-.221-.222zm2.1.001l.222.222.221-.222-.221-.222zm2.1-.001l.222.222.221-.221-.221-.222zm2.133 0l.222.222.221-.221-.221-.222zm2.067 0l.222.222.222-.221-.222-.222zm2.1 0l.222.222.221-.221-.221-.222zm2.1.001l.222.222.221-.222-.221-.222zm-12.05 55.65l.722.721.721-.721-.721-.722zm2.1-.001l.722.722.722-.722-.722-.721zm2.1.001l.722.721.721-.721-.721-.722zm2.133 0l.722.721.721-.721-.721-.722zm-14.696-2.101l.685.685.684-.684-.684-.686zm2.1.001l.685.685.684-.685-.684-.685zm2.1-.001l.685.685.684-.684-.684-.686zm2.1.001l.685.685.685-.686-.685-.685zm2.1 0l.684.685.686-.686-.685-.685zm2.1 0l.685.685.685-.686-.685-.685zm2.1 0l.685.685.684-.685-.684-.685zm2.132 0l.686.685.684-.685-.684-.685zm2.068 0l.685.685.684-.685-.684-.685zm2.1-.001l.685.685.684-.684-.684-.686zm2.1.001l.685.685.685-.686-.685-.685zm2.1 0l.684.685.686-.686-.685-.685zm-27.266-2.1l.65.65.651-.65-.65-.651zm2.1 0l.651.65.65-.65-.65-.651zm2.1 0l.65.65.652-.65-.651-.651zm2.1 0l.651.65.65-.65-.65-.651zm2.1 0l.65.65.652-.65-.651-.651zm2.1-.001l.65.651.652-.65-.651-.652zm2.1.001l.65.65.652-.65-.651-.651zm2.1 0l.65.65.651-.65-.65-.651zm2.1 0l.651.65.65-.65-.65-.651zm2.133 0l.651.65.65-.65-.65-.651zm2.067 0l.651.65.65-.65-.65-.651zm2.1 0l.65.65.652-.65-.651-.651zm2.1-.001l.65.651.652-.65-.651-.652zm2.1.001l.65.65.652-.65-.651-.651zm2.1 0l.65.65.651-.65-.65-.651zm2.1 0l.651.65.65-.65-.65-.651z"/><path d="M28.472 69.075l.65.65.651-.65-.65-.651zm2.1 0l.651.65.65-.65-.65-.651zm2.1 0l.65.65.652-.65-.651-.651zm2.1 0l.651.65.65-.65-.65-.651zm2.1 0l.65.65.652-.65-.651-.651zm2.1-.001l.65.651.652-.65-.651-.652zm2.1.001l.65.65.652-.65-.651-.651zm2.1 0l.65.65.651-.65-.65-.651zm2.1 0l.651.65.65-.65-.65-.651zm2.133 0l.651.65.65-.65-.65-.651zm2.067 0l.651.65.65-.65-.65-.651zm2.1 0l.65.65.652-.65-.651-.651zm2.1-.001l.65.651.652-.65-.651-.652zm2.1.001l.65.65.652-.65-.651-.651zm2.1 0l.65.65.651-.65-.65-.651zm2.1 0l.651.65.65-.65-.65-.651zm-33.568-2.1l.619.618.618-.618-.618-.619zm2.101 0l.618.618.619-.618-.619-.619zm2.099 0l.619.618.618-.618-.618-.619zm2.101 0l.618.618.619-.618-.619-.619zm2.099 0l.619.618.618-.618-.618-.619zm2.1 0l.619.618.618-.618-.618-.619zm2.101 0l.618.618.619-.618-.619-.619zm2.099 0l.619.618.618-.618-.618-.619zm2.101 0l.618.618.619-.618-.619-.619zm2.099 0l.619.618.618-.618-.618-.619zm2.133 0l.619.618.618-.618-.618-.619zm2.067 0l.619.618.618-.618-.618-.619zm2.1 0l.619.618.618-.618-.618-.619zm2.101 0l.618.618.619-.618-.619-.619zm2.099 0l.619.618.618-.618-.618-.619zm2.101 0l.618.618.619-.618-.619-.619zm2.099 0l.619.618.618-.618-.618-.619zm2.101 0l.618.618.619-.618-.619-.619z"/><path d="M26.404 66.975l.619.618.618-.618-.618-.619zm2.101 0l.618.618.619-.618-.619-.619zm2.099 0l.619.618.618-.618-.618-.619zm2.101 0l.618.618.619-.618-.619-.619zm2.099 0l.619.618.618-.618-.618-.619zm2.1 0l.619.618.618-.618-.618-.619zm2.101 0l.618.618.619-.618-.619-.619zm2.099 0l.619.618.618-.618-.618-.619zm2.101 0l.618.618.619-.618-.619-.619zm2.099 0l.619.618.618-.618-.618-.619zm2.133 0l.619.618.618-.618-.618-.619zm2.067 0l.619.618.618-.618-.618-.619zm2.1 0l.619.618.618-.618-.618-.619zm2.101 0l.618.618.619-.618-.619-.619zm2.099 0l.619.618.618-.618-.618-.619zm2.101 0l.618.618.619-.618-.619-.619zm2.099 0l.619.618.618-.618-.618-.619zm2.101 0l.618.618.619-.618-.619-.619zm-37.801-2.101l.619.62.618-.619-.618-.618zm2.101 0l.618.62.619-.619-.619-.618zm2.099 0l.619.62.618-.619-.618-.618zm2.1.001l.619.619.618-.619-.618-.618zm2.1-.001l.619.62.618-.619-.618-.618zm2.1.001l.619.619.618-.619-.618-.618zm2.1-.001l.62.62.618-.619-.619-.618zm2.1 0l.619.62.618-.619-.618-.618zm2.101 0l.618.62.619-.619-.619-.618zm2.099 0l.619.62.618-.619-.618-.618zm2.1.001l.619.619.618-.619-.618-.618zm2.133-.001l.62.62.618-.619-.618-.618zm2.067.001l.619.619.618-.619-.618-.618zm2.1-.001l.62.62.618-.619-.619-.618zm2.1 0l.619.62.618-.619-.618-.618zm2.101 0l.618.62.619-.619-.619-.618zm2.099 0l.619.62.618-.619-.618-.618zm2.1.001l.619.619.618-.619-.618-.618zm2.1-.001l.619.62.618-.619-.618-.618zm2.1.001l.619.619.618-.619-.618-.618zm-41.935-2.101l.587.588.588-.588-.588-.587zm2.066.001l.588.587.587-.587-.588-.588zm2.1-.001l.588.588.587-.588-.587-.587zm2.1 0l.587.588.588-.588-.588-.587zm2.101 0l.587.588.587-.588-.587-.587zm2.099 0l.588.588.587-.588-.587-.587zm2.1.001l.588.587.587-.587-.587-.588zm2.1-.001l.588.588.587-.588-.587-.587zm2.1.001l.588.587.587-.587-.588-.588zm2.1-.001l.588.588.587-.588-.587-.587zm2.1 0l.587.588.588-.588-.588-.587zm2.101 0l.587.588.587-.588-.587-.587zm2.133 0l.587.588.587-.588-.587-.587zm2.066.001l.588.587.587-.587-.587-.588zm2.1-.001l.588.588.587-.588-.587-.587zm2.1.001l.588.587.587-.587-.588-.588zm2.1-.001l.588.588.587-.588-.587-.587zm2.1 0l.587.588.588-.588-.588-.587zm2.101 0l.587.588.587-.588-.587-.587zm2.099 0l.588.588.587-.588-.587-.587zm2.1.001l.588.587.587-.587-.587-.588zm2.1-.001l.588.588.587-.588-.587-.587z"/><path d="M22.269 62.774l.587.588.588-.588-.588-.587zm2.066.001l.588.587.587-.587-.588-.588zm2.1-.001l.588.588.587-.588-.587-.587zm2.1 0l.587.588.588-.588-.588-.587zm2.101 0l.587.588.587-.588-.587-.587zm2.099 0l.588.588.587-.588-.587-.587zm2.1.001l.588.587.587-.587-.587-.588zm2.1-.001l.588.588.587-.588-.587-.587zm2.1.001l.588.587.587-.587-.588-.588zm2.1-.001l.588.588.587-.588-.587-.587zm2.1 0l.587.588.588-.588-.588-.587zm2.101 0l.587.588.587-.588-.587-.587zm2.133 0l.587.588.587-.588-.587-.587zm2.066.001l.588.587.587-.587-.587-.588zm2.1-.001l.588.588.587-.588-.587-.587zm2.1.001l.588.587.587-.587-.588-.588zm2.1-.001l.588.588.587-.588-.587-.587zm2.1 0l.587.588.588-.588-.588-.587zm2.101 0l.587.588.587-.588-.587-.587zm2.099 0l.588.588.587-.588-.587-.587zm2.1.001l.588.587.587-.587-.587-.588zm2.1-.001l.588.588.587-.588-.587-.587zm-46.17-2.099l.558.558.557-.558-.557-.558zm2.133 0l.558.558.558-.558-.558-.558zm2.067 0l.558.558.558-.558-.558-.558zm2.1-.001l.558.558.558-.557-.558-.558zm2.1.001l.558.558.558-.558-.558-.558zm2.1-.001l.558.558.558-.557-.558-.558zm2.1 0l.558.558.557-.557-.557-.558zm2.1.001l.558.558.557-.558-.557-.558zm2.1-.001l.558.558.558-.557-.558-.558zm2.1.001l.558.558.558-.558-.558-.558zm2.1-.001l.558.558.558-.557-.558-.558zm2.1.001l.558.558.558-.558-.558-.558zm2.1-.001l.558.558.558-.557-.558-.558zm2.133 0l.558.558.558-.557-.558-.558zm2.067.001l.558.558.558-.558-.558-.558zm2.1-.001l.558.558.558-.557-.558-.558zm2.1.001l.558.558.558-.558-.558-.558zm2.1-.001l.558.558.558-.557-.558-.558zm2.1.001l.558.558.558-.558-.558-.558zm2.1-.001l.558.558.558-.557-.558-.558zm2.1 0l.558.558.557-.557-.557-.558zm2.1.001l.558.558.558-.558-.558-.558zm2.1-.001l.558.558.558-.557-.558-.558zm2.1.001l.558.558.558-.558-.558-.558z"/><path d="M20.165 60.675l.558.558.557-.558-.557-.558zm2.133 0l.558.558.558-.558-.558-.558zm2.067 0l.558.558.558-.558-.558-.558zm2.1-.001l.558.558.558-.557-.558-.558zm2.1.001l.558.558.558-.558-.558-.558zm2.1-.001l.558.558.558-.557-.558-.558zm2.1 0l.558.558.557-.557-.557-.558zm2.1.001l.558.558.557-.558-.557-.558zm2.1-.001l.558.558.558-.557-.558-.558zm2.1.001l.558.558.558-.558-.558-.558zm2.1-.001l.558.558.558-.557-.558-.558zm2.1.001l.558.558.558-.558-.558-.558zm2.1-.001l.558.558.558-.557-.558-.558zm2.133 0l.558.558.558-.557-.558-.558zm2.067.001l.558.558.558-.558-.558-.558zm2.1-.001l.558.558.558-.557-.558-.558zm2.1.001l.558.558.558-.558-.558-.558zm2.1-.001l.558.558.558-.557-.558-.558zm2.1.001l.558.558.558-.558-.558-.558zm2.1-.001l.558.558.558-.557-.558-.558zm2.1 0l.558.558.557-.557-.557-.558zm2.1.001l.558.558.558-.558-.558-.558zm2.1-.001l.558.558.558-.557-.558-.558zm2.1.001l.558.558.558-.558-.558-.558zm-48.273-2.1l.53.53.531-.53-.53-.53zm2.134 0l.53.53.53-.53-.53-.53zm2.066 0l.53.53.531-.53-.53-.53zm2.1-.001l.53.53.531-.53-.53-.53zm2.1.001l.53.53.531-.53-.53-.53zm2.1-.001l.53.53.531-.53-.53-.53zm2.101.001l.53.53.53-.53-.53-.53zm2.099 0l.53.53.531-.53-.53-.53zm2.1-.001l.53.53.531-.53-.53-.53zm2.1.001l.53.53.531-.53-.53-.53zm2.1-.001l.53.53.531-.53-.53-.53zm2.1.001l.53.53.531-.53-.53-.53zm2.1-.001l.53.53.531-.53-.53-.53zm2.134 0l.53.53.53-.53-.53-.53zm2.066.001l.53.53.531-.53-.53-.53zm2.1-.001l.53.53.531-.53-.53-.53zm2.1.001l.53.53.531-.53-.53-.53zm2.1-.001l.53.53.531-.53-.53-.53zm2.1.001l.53.53.531-.53-.53-.53zm2.1-.001l.53.53.531-.53-.53-.53zm2.101.001l.53.53.53-.53-.53-.53zm2.099 0l.53.53.531-.53-.53-.53zm2.1-.001l.53.53.531-.53-.53-.53zm2.1.001l.53.53.531-.53-.53-.53zm-50.372-2.1l.503.504.504-.504-.504-.504zm2.1-.001l.503.504.504-.504-.504-.503zm2.132 0l.504.504.504-.504-.504-.503zm2.067.001l.504.504.504-.504-.504-.504zm2.101 0l.503.504.504-.504-.504-.504zm2.1 0l.503.504.504-.504-.504-.504zm2.1-.001l.503.504.504-.504-.504-.503zm2.1.001l.503.504.504-.504-.504-.504zm2.1-.001l.503.504.504-.504-.504-.503zm2.1.001l.503.504.504-.504-.504-.504zm2.099 0l.504.504.504-.504-.504-.504zm2.101 0l.503.504.504-.504-.504-.504zm2.1 0l.503.504.504-.504-.504-.504zm2.1-.001l.503.504.504-.504-.504-.503zm2.133.001l.503.504.504-.504-.504-.504zm2.067-.001l.503.504.504-.504-.504-.503zm2.1.001l.503.504.504-.504-.504-.504zm2.099 0l.504.504.504-.504-.504-.504zm2.101 0l.503.504.504-.504-.504-.504zm2.1 0l.503.504.504-.504-.504-.504zm2.1-.001l.503.504.504-.504-.504-.503zm2.1.001l.503.504.504-.504-.504-.504zm2.1-.001l.503.504.504-.504-.504-.503zm2.1.001l.503.504.504-.504-.504-.504zm2.099 0l.504.504.504-.504-.504-.504zm2.101 0l.503.504.504-.504-.504-.504z"/><path d="M18.12 56.475l.503.504.504-.504-.504-.504zm2.1-.001l.503.504.504-.504-.504-.503zm2.132 0l.504.504.504-.504-.504-.503zm2.067.001l.504.504.504-.504-.504-.504zm2.101 0l.503.504.504-.504-.504-.504zm2.1 0l.503.504.504-.504-.504-.504zm2.1-.001l.503.504.504-.504-.504-.503zm2.1.001l.503.504.504-.504-.504-.504zm2.1-.001l.503.504.504-.504-.504-.503zm2.1.001l.503.504.504-.504-.504-.504zm2.099 0l.504.504.504-.504-.504-.504zm2.101 0l.503.504.504-.504-.504-.504zm2.1 0l.503.504.504-.504-.504-.504zm2.1-.001l.503.504.504-.504-.504-.503zm2.133.001l.503.504.504-.504-.504-.504zm2.067-.001l.503.504.504-.504-.504-.503zm2.1.001l.503.504.504-.504-.504-.504zm2.099 0l.504.504.504-.504-.504-.504zm2.101 0l.503.504.504-.504-.504-.504zm2.1 0l.503.504.504-.504-.504-.504zm2.1-.001l.503.504.504-.504-.504-.503zm2.1.001l.503.504.504-.504-.504-.504zm2.1-.001l.503.504.504-.504-.504-.503zm2.1.001l.503.504.504-.504-.504-.504zm2.099 0l.504.504.504-.504-.504-.504zm2.101 0l.503.504.504-.504-.504-.504zm-52.476-2.1l.479.478.478-.478-.478-.479zm2.1 0l.479.478.479-.478-.48-.479zm2.134 0l.478.478.479-.478-.48-.479zm2.066 0l.48.478.478-.478-.479-.479zm2.1 0l.479.478.478-.478-.478-.479zm2.1 0l.48.478.478-.478-.479-.479zm2.1 0l.479.478.479-.478-.48-.479zm2.1 0l.479.478.478-.478-.478-.479zm2.1 0l.479.478.479-.478-.48-.479zm2.1 0l.479.478.478-.478-.478-.479zm2.1 0l.48.478.478-.478-.479-.479zm2.1 0l.479.478.478-.478-.478-.479zm2.1 0l.48.478.478-.478-.479-.479zm2.1 0l.479.478.479-.478-.48-.479zm2.134 0l.478.478.479-.478-.48-.479zm2.066 0l.479.478.479-.478-.48-.479zm2.1 0l.479.478.478-.478-.478-.479zm2.1 0l.48.478.478-.478-.479-.479zm2.1 0l.479.478.478-.478-.478-.479zm2.1-.001l.479.479.479-.479-.48-.478zm2.1.001l.479.478.479-.478-.48-.479zm2.1 0l.479.478.478-.478-.478-.479zm2.1 0l.479.478.479-.478-.48-.479zm2.1 0l.479.478.478-.478-.478-.479zm2.1 0l.48.478.478-.478-.479-.479zm2.1 0l.479.478.479-.478-.48-.479z"/><path d="M18.144 54.375l.479.478.478-.478-.478-.479zm2.1 0l.479.478.479-.478-.48-.479zm2.134 0l.478.478.479-.478-.48-.479zm2.066 0l.48.478.478-.478-.479-.479zm2.1 0l.479.478.478-.478-.478-.479zm2.1 0l.48.478.478-.478-.479-.479zm2.1 0l.479.478.479-.478-.48-.479zm2.1 0l.479.478.478-.478-.478-.479zm2.1 0l.479.478.479-.478-.48-.479zm2.1 0l.479.478.478-.478-.478-.479zm2.1 0l.48.478.478-.478-.479-.479zm2.1 0l.479.478.478-.478-.478-.479zm2.1 0l.48.478.478-.478-.479-.479zm2.1 0l.479.478.479-.478-.48-.479zm2.134 0l.478.478.479-.478-.48-.479zm2.066 0l.479.478.479-.478-.48-.479zm2.1 0l.479.478.478-.478-.478-.479zm2.1 0l.48.478.478-.478-.479-.479zm2.1 0l.479.478.478-.478-.478-.479zm2.1-.001l.479.479.479-.479-.48-.478zm2.1.001l.479.478.479-.478-.48-.479zm2.1 0l.479.478.478-.478-.478-.479zm2.1 0l.479.478.479-.478-.48-.479zm2.1 0l.479.478.478-.478-.478-.479zm2.1 0l.48.478.478-.478-.479-.479zm2.1 0l.479.478.479-.478-.48-.479zm-52.475-2.1l.454.454.454-.454-.454-.455zm2.1 0l.454.454.454-.454-.454-.455zm2.133 0l.454.454.454-.454-.454-.455zm2.066 0l.454.454.455-.454-.455-.455zm2.101 0l.454.454.454-.454-.454-.455zm2.099 0l.454.454.455-.454-.455-.455zm2.101 0l.454.454.454-.454-.454-.455zm2.1 0l.454.454.454-.454-.454-.455zm2.1 0l.454.454.454-.454-.454-.455zm2.1 0l.454.454.454-.454-.454-.455zm2.099 0l.454.454.455-.454-.455-.455zm2.101 0l.454.454.454-.454-.454-.455zm2.099 0l.454.454.455-.454-.455-.455zm2.101 0l.454.454.454-.454-.454-.455zm2.133 0l.454.454.454-.454-.454-.455zm2.067 0l.454.454.454-.454-.454-.455zm2.1 0l.454.454.454-.454-.454-.455zm2.099 0l.454.454.455-.454-.455-.455zm2.101 0l.454.454.454-.454-.454-.455zm2.099 0l.454.454.455-.454-.455-.455zm2.101 0l.454.454.454-.454-.454-.455zm2.1 0l.454.454.454-.454-.454-.455zm2.1 0l.454.454.454-.454-.454-.455zm2.1 0l.454.454.454-.454-.454-.455zm2.099 0l.454.454.455-.454-.455-.455zm2.101 0l.454.454.454-.454-.454-.455zm-54.578-2.101l.432.432.432-.431-.432-.432zm2.099 0l.433.432.431-.431-.431-.432zm2.101 0l.432.432.432-.431-.432-.432zm2.133 0l.432.432.432-.431-.432-.432zm2.067.001l.432.432.431-.432-.431-.432zm2.1-.001l.432.432.431-.431-.431-.432zm2.1.001l.432.432.431-.432-.431-.432zm2.1-.001l.432.432.432-.431-.432-.432zm2.099 0l.433.432.431-.431-.431-.432zm2.101 0l.432.432.432-.431-.432-.432zm2.099 0l.433.432.431-.431-.431-.432zm2.101.001l.432.432.431-.432-.431-.432zm2.1-.001l.432.432.431-.431-.431-.432zm2.1.001l.432.432.431-.432-.431-.432zm2.1-.001l.432.432.432-.431-.432-.432zm2.133 0l.432.432.432-.431-.432-.432zm2.067 0l.432.432.432-.431-.432-.432zm2.099 0l.433.432.431-.431-.431-.432zm2.101.001l.432.432.431-.432-.431-.432zm2.1-.001l.432.432.431-.431-.431-.432zm2.099 0l.432.432.432-.431-.432-.432zm2.101 0l.432.432.432-.431-.432-.432zm2.099 0l.433.432.431-.431-.431-.432zm2.101 0l.432.432.432-.431-.432-.432zm2.099 0l.433.432.431-.431-.431-.432zm2.101.001l.432.432.431-.432-.431-.432zm2.1-.001l.432.432.431-.431-.431-.432zm2.133 0l.432.432.431-.431-.431-.432z"/><path d="M16.091 50.174l.432.432.432-.431-.432-.432zm2.099 0l.433.432.431-.431-.431-.432zm2.101 0l.432.432.432-.431-.432-.432zm2.133 0l.432.432.432-.431-.432-.432zm2.067.001l.432.432.431-.432-.431-.432zm2.1-.001l.432.432.431-.431-.431-.432zm2.1.001l.432.432.431-.432-.431-.432zm2.1-.001l.432.432.432-.431-.432-.432zm2.099 0l.433.432.431-.431-.431-.432zm2.101 0l.432.432.432-.431-.432-.432zm2.099 0l.433.432.431-.431-.431-.432zm2.101.001l.432.432.431-.432-.431-.432zm2.1-.001l.432.432.431-.431-.431-.432zm2.1.001l.432.432.431-.432-.431-.432zm2.1-.001l.432.432.432-.431-.432-.432zm2.133 0l.432.432.432-.431-.432-.432zm2.067 0l.432.432.432-.431-.432-.432zm2.099 0l.433.432.431-.431-.431-.432zm2.101.001l.432.432.431-.432-.431-.432zm2.1-.001l.432.432.431-.431-.431-.432zm2.099 0l.432.432.432-.431-.432-.432zm2.101 0l.432.432.432-.431-.432-.432zm2.099 0l.433.432.431-.431-.431-.432zm2.101 0l.432.432.432-.431-.432-.432zm2.099 0l.433.432.431-.431-.431-.432zm2.101.001l.432.432.431-.432-.431-.432zm2.1-.001l.432.432.431-.431-.431-.432zm2.133 0l.432.432.431-.431-.431-.432zm-56.711-2.099l.41.41.41-.41-.41-.41zm2.1-.001l.41.41.41-.41-.41-.41zm2.099 0l.41.41.41-.41-.41-.41zm2.134.001l.41.41.41-.41-.41-.41zm2.067-.001l.41.41.41-.41-.41-.41zm2.1.001l.41.41.41-.41-.41-.41zm2.1-.001l.41.41.41-.41-.41-.41zm2.1.001l.41.41.41-.41-.41-.41zm2.1-.001l.41.41.41-.41-.41-.41zm2.099 0l.41.41.41-.41-.41-.41zm2.1.001l.41.41.41-.41-.41-.41zm2.101-.001l.41.41.41-.41-.41-.41zm2.1.001l.41.41.41-.41-.41-.41zm2.1-.001l.41.41.41-.41-.41-.41zm2.1.001l.41.41.41-.41-.41-.41zm2.133 0l.41.41.41-.41-.41-.41zm2.066-.001l.41.41.41-.41-.41-.41zm2.101 0l.41.41.41-.41-.41-.41zm2.1 0l.41.41.41-.41-.41-.41zm2.1.001l.41.41.41-.41-.41-.41zm2.1-.001l.41.41.41-.41-.41-.41zm2.1.001l.41.41.41-.41-.41-.41zm2.1-.001l.41.41.41-.41-.41-.41zm2.099 0l.41.41.41-.41-.41-.41zm2.101 0l.41.41.41-.41-.41-.41zm2.1 0l.41.41.41-.41-.41-.41zm2.1.001l.41.41.41-.41-.41-.41zm2.133 0l.41.41.41-.41-.41-.41z"/><path d="M16.113 48.075l.41.41.41-.41-.41-.41zm2.1-.001l.41.41.41-.41-.41-.41zm2.099 0l.41.41.41-.41-.41-.41zm2.134.001l.41.41.41-.41-.41-.41zm2.067-.001l.41.41.41-.41-.41-.41zm2.1.001l.41.41.41-.41-.41-.41zm2.1-.001l.41.41.41-.41-.41-.41zm2.1.001l.41.41.41-.41-.41-.41zm2.1-.001l.41.41.41-.41-.41-.41zm2.099 0l.41.41.41-.41-.41-.41zm2.1.001l.41.41.41-.41-.41-.41zm2.101-.001l.41.41.41-.41-.41-.41zm2.1.001l.41.41.41-.41-.41-.41zm2.1-.001l.41.41.41-.41-.41-.41zm2.1.001l.41.41.41-.41-.41-.41zm2.133 0l.41.41.41-.41-.41-.41zm2.066-.001l.41.41.41-.41-.41-.41zm2.101 0l.41.41.41-.41-.41-.41zm2.1 0l.41.41.41-.41-.41-.41zm2.1.001l.41.41.41-.41-.41-.41zm2.1-.001l.41.41.41-.41-.41-.41zm2.1.001l.41.41.41-.41-.41-.41zm2.1-.001l.41.41.41-.41-.41-.41zm2.099 0l.41.41.41-.41-.41-.41zm2.101 0l.41.41.41-.41-.41-.41zm2.1 0l.41.41.41-.41-.41-.41zm2.1.001l.41.41.41-.41-.41-.41zm2.133 0l.41.41.41-.41-.41-.41zm-56.713-2.1l.39.39.39-.39-.39-.39zm2.1-.001l.39.39.39-.39-.39-.39zm2.1.001l.39.39.39-.39-.39-.39zm2.133 0l.39.39.39-.39-.39-.39zm2.067-.001l.39.39.39-.39-.39-.39zm2.1.001l.39.39.39-.39-.39-.39zm2.1-.001l.39.39.39-.39-.39-.39zm2.1.001l.39.39.39-.39-.39-.39zm2.1-.001l.39.39.39-.39-.39-.39zm2.1.001l.39.39.39-.39-.39-.39zm2.1-.001l.39.39.39-.39-.39-.39zm2.1 0l.39.39.39-.39-.39-.39zm2.1.001l.39.39.39-.39-.39-.39zm2.1-.001l.39.39.39-.39-.39-.39zm2.1.001l.39.39.39-.39-.39-.39zm2.133 0l.39.39.39-.39-.39-.39zm2.067 0l.39.39.39-.39-.39-.39zm2.1-.001l.39.39.39-.39-.39-.39zm2.1 0l.39.39.39-.39-.39-.39zm2.1.001l.39.39.39-.39-.39-.39zm2.1-.001l.39.39.39-.39-.39-.39zm2.1.001l.39.39.39-.39-.39-.39zm2.1-.001l.39.39.39-.39-.39-.39zm2.1.001l.39.39.39-.39-.39-.39zm2.1-.001l.39.39.39-.39-.39-.39zm2.1 0l.39.39.39-.39-.39-.39zm2.1.001l.39.39.39-.39-.39-.39zm2.133-.001l.39.39.39-.39-.39-.39zm-56.713-2.099l.37.37.37-.37-.37-.37zm2.1 0l.37.37.37-.37-.37-.37zm2.1-.001l.37.37.37-.37-.37-.37zm2.133.001l.37.37.37-.37-.37-.37zm2.067-.001l.37.37.37-.37-.37-.37zm2.1.001l.37.37.37-.37-.37-.37zm2.1-.001l.37.37.37-.37-.37-.37zm2.1.001l.37.37.37-.37-.37-.37zm2.1 0l.37.37.37-.37-.37-.37zm2.1-.001l.37.37.37-.37-.37-.37zm2.1.001l.37.37.37-.37-.37-.37zm2.1-.001l.37.37.37-.37-.37-.37zm2.1.001l.37.37.37-.37-.37-.37zm2.1-.001l.37.37.37-.37-.37-.37zm2.1.001l.37.37.37-.37-.37-.37zm2.133 0l.37.37.37-.37-.37-.37zm2.067-.001l.37.37.37-.37-.37-.37zm2.1.001l.37.37.37-.37-.37-.37zm2.1-.001l.37.37.37-.37-.37-.37zm2.1.001l.37.37.37-.37-.37-.37zm2.1-.001l.37.37.37-.37-.37-.37zm2.1.001l.37.37.37-.37-.37-.37zm2.1 0l.37.37.37-.37-.37-.37zm2.1-.001l.37.37.37-.37-.37-.37zm2.1.001l.37.37.37-.37-.37-.37zm2.1-.001l.37.37.37-.37-.37-.37zm2.1.001l.37.37.37-.37-.37-.37zm2.133 0l.37.37.37-.37-.37-.37z"/><path d="M16.153 43.875l.37.37.37-.37-.37-.37zm2.1 0l.37.37.37-.37-.37-.37zm2.1-.001l.37.37.37-.37-.37-.37zm2.133.001l.37.37.37-.37-.37-.37zm2.067-.001l.37.37.37-.37-.37-.37zm2.1.001l.37.37.37-.37-.37-.37zm2.1-.001l.37.37.37-.37-.37-.37zm2.1.001l.37.37.37-.37-.37-.37zm2.1 0l.37.37.37-.37-.37-.37zm2.1-.001l.37.37.37-.37-.37-.37zm2.1.001l.37.37.37-.37-.37-.37zm2.1-.001l.37.37.37-.37-.37-.37zm2.1.001l.37.37.37-.37-.37-.37zm2.1-.001l.37.37.37-.37-.37-.37zm2.1.001l.37.37.37-.37-.37-.37zm2.133 0l.37.37.37-.37-.37-.37zm2.067-.001l.37.37.37-.37-.37-.37zm2.1.001l.37.37.37-.37-.37-.37zm2.1-.001l.37.37.37-.37-.37-.37zm2.1.001l.37.37.37-.37-.37-.37zm2.1-.001l.37.37.37-.37-.37-.37zm2.1.001l.37.37.37-.37-.37-.37zm2.1 0l.37.37.37-.37-.37-.37zm2.1-.001l.37.37.37-.37-.37-.37zm2.1.001l.37.37.37-.37-.37-.37zm2.1-.001l.37.37.37-.37-.37-.37zm2.1.001l.37.37.37-.37-.37-.37zm2.133 0l.37.37.37-.37-.37-.37zm-56.715-2.1l.352.351.351-.351-.351-.352zm2.1 0l.352.351.351-.351-.351-.352zm2.1 0l.352.351.351-.351-.351-.352zm2.133 0l.352.351.352-.351-.352-.352zm2.067 0l.352.351.351-.351-.351-.352zm2.1 0l.352.351.35-.351-.35-.352zm2.1 0l.352.351.351-.351-.351-.352zm2.1 0l.352.351.351-.351-.351-.352zm2.1 0l.352.351.351-.351-.351-.352zm2.1 0l.352.351.351-.351-.351-.352zm2.1-.001l.352.352.351-.352-.351-.352zm2.1.001l.352.351.351-.351-.351-.352zm2.1 0l.352.351.35-.351-.35-.352zm2.1 0l.352.351.351-.351-.351-.352zm2.1 0l.352.351.351-.351-.351-.352zm2.133 0l.352.351.352-.351-.352-.352zm2.067 0l.352.351.351-.351-.351-.352zm2.1-.001l.352.352.351-.352-.351-.352zm2.1.001l.352.351.351-.351-.351-.352zm2.1 0l.352.351.35-.351-.35-.352zm2.1 0l.352.351.351-.351-.351-.352zm2.1 0l.352.351.351-.351-.351-.352zm2.1-.001l.352.352.351-.352-.351-.352zm2.1.001l.352.351.351-.351-.351-.352zm2.1-.001l.352.352.351-.352-.351-.352zm2.1.001l.352.351.351-.351-.351-.352zm2.1 0l.352.351.35-.351-.35-.352zm2.133-.001l.352.352.352-.352-.352-.352z"/><path d="M16.171 41.775l.352.351.351-.351-.351-.352zm2.1 0l.352.351.351-.351-.351-.352zm2.1 0l.352.351.351-.351-.351-.352zm2.133 0l.352.351.352-.351-.352-.352zm2.067 0l.352.351.351-.351-.351-.352zm2.1 0l.352.351.35-.351-.35-.352zm2.1 0l.352.351.351-.351-.351-.352zm2.1 0l.352.351.351-.351-.351-.352zm2.1 0l.352.351.351-.351-.351-.352zm2.1 0l.352.351.351-.351-.351-.352zm2.1-.001l.352.352.351-.352-.351-.352zm2.1.001l.352.351.351-.351-.351-.352zm2.1 0l.352.351.35-.351-.35-.352zm2.1 0l.352.351.351-.351-.351-.352zm2.1 0l.352.351.351-.351-.351-.352zm2.133 0l.352.351.352-.351-.352-.352zm2.067 0l.352.351.351-.351-.351-.352zm2.1-.001l.352.352.351-.352-.351-.352zm2.1.001l.352.351.351-.351-.351-.352zm2.1 0l.352.351.35-.351-.35-.352zm2.1 0l.352.351.351-.351-.351-.352zm2.1 0l.352.351.351-.351-.351-.352zm2.1-.001l.352.352.351-.352-.351-.352zm2.1.001l.352.351.351-.351-.351-.352zm2.1-.001l.352.352.351-.352-.351-.352zm2.1.001l.352.351.351-.351-.351-.352zm2.1 0l.352.351.35-.351-.35-.352zm2.133-.001l.352.352.352-.352-.352-.352zm-56.771-2.099l.39.39.39-.39-.39-.39zm2.1 0l.39.39.39-.39-.39-.39zm2.1 0l.39.39.39-.39-.39-.39zm2.133-.001l.39.39.39-.39-.39-.39zm2.067.001l.39.39.39-.39-.39-.39zm2.1 0l.39.39.39-.39-.39-.39zm2.1 0l.39.39.39-.39-.39-.39zm2.1-.001l.39.39.39-.39-.39-.39zm2.1.001l.39.39.39-.39-.39-.39zm2.1 0l.39.39.39-.39-.39-.39zm2.1 0l.39.39.39-.39-.39-.39zm2.1 0l.39.39.39-.39-.39-.39zm2.1 0l.39.39.39-.39-.39-.39zm2.1 0l.39.39.39-.39-.39-.39zm2.1-.001l.39.39.39-.39-.39-.39zm2.134.001l.39.39.389-.39-.39-.39zm2.066 0l.39.39.39-.39-.39-.39zm2.1 0l.39.39.39-.39-.39-.39zm2.1 0l.39.39.39-.39-.39-.39zm2.1 0l.39.39.39-.39-.39-.39zm2.1 0l.39.39.39-.39-.39-.39zm2.1-.001l.39.39.39-.39-.39-.39zm2.1.001l.39.39.39-.39-.39-.39zm2.1 0l.39.39.39-.39-.39-.39zm2.1 0l.39.39.39-.39-.39-.39zm2.1 0l.39.39.39-.39-.39-.39zm2.1 0l.39.39.39-.39-.39-.39zm2.133 0l.39.39.39-.39-.39-.39zm-54.613-2.1l.37.37.37-.37-.37-.37zm2.1 0l.37.37.37-.37-.37-.37zm2.133 0l.37.37.37-.37-.37-.37zm2.067 0l.37.37.37-.37-.37-.37zm2.1 0l.37.37.37-.37-.37-.37zm2.1 0l.37.37.37-.37-.37-.37zm2.1 0l.37.37.37-.37-.37-.37zm2.1 0l.37.37.37-.37-.37-.37zm2.1 0l.37.37.37-.37-.37-.37zm2.1 0l.37.37.37-.37-.37-.37zm2.1 0l.37.37.37-.37-.37-.37zm2.1 0l.37.37.37-.37-.37-.37zm2.1 0l.37.37.37-.37-.37-.37zm2.1 0l.37.37.37-.37-.37-.37zm2.133 0l.37.37.37-.37-.37-.37zm2.067 0l.37.37.37-.37-.37-.37zm2.1 0l.37.37.37-.37-.37-.37zm2.1 0l.37.37.37-.37-.37-.37zm2.1 0l.37.37.37-.37-.37-.37zm2.1 0l.37.37.37-.37-.37-.37zm2.1 0l.37.37.37-.37-.37-.37zm2.1 0l.37.37.37-.37-.37-.37zm2.1 0l.37.37.37-.37-.37-.37zm2.1 0l.37.37.37-.37-.37-.37zm2.1 0l.37.37.37-.37-.37-.37zm2.1 0l.37.37.37-.37-.37-.37z"/><path d="M18.253 37.575l.37.37.37-.37-.37-.37zm2.1 0l.37.37.37-.37-.37-.37zm2.133 0l.37.37.37-.37-.37-.37zm2.067 0l.37.37.37-.37-.37-.37zm2.1 0l.37.37.37-.37-.37-.37zm2.1 0l.37.37.37-.37-.37-.37zm2.1 0l.37.37.37-.37-.37-.37zm2.1 0l.37.37.37-.37-.37-.37zm2.1 0l.37.37.37-.37-.37-.37zm2.1 0l.37.37.37-.37-.37-.37zm2.1 0l.37.37.37-.37-.37-.37zm2.1 0l.37.37.37-.37-.37-.37zm2.1 0l.37.37.37-.37-.37-.37zm2.1 0l.37.37.37-.37-.37-.37zm2.133 0l.37.37.37-.37-.37-.37zm2.067 0l.37.37.37-.37-.37-.37zm2.1 0l.37.37.37-.37-.37-.37zm2.1 0l.37.37.37-.37-.37-.37zm2.1 0l.37.37.37-.37-.37-.37zm2.1 0l.37.37.37-.37-.37-.37zm2.1 0l.37.37.37-.37-.37-.37zm2.1 0l.37.37.37-.37-.37-.37zm2.1 0l.37.37.37-.37-.37-.37zm2.1 0l.37.37.37-.37-.37-.37zm2.1 0l.37.37.37-.37-.37-.37zm2.1 0l.37.37.37-.37-.37-.37zm-52.482-2.101l.352.352.351-.352-.351-.351zm2.1.001l.352.352.351-.352-.351-.352zm2.134-.001l.351.352.352-.352-.352-.351zm2.066.001l.352.352.351-.352-.351-.352zm2.1-.001l.352.352.351-.352-.351-.351zm2.1 0l.352.352.35-.352-.35-.351zm2.1 0l.352.352.351-.352-.351-.351zm2.1 0l.352.352.351-.352-.351-.351zm2.1.001l.352.352.351-.352-.351-.352zm2.1-.001l.352.352.351-.352-.351-.351zm2.1.001l.352.352.351-.352-.351-.352zm2.1-.001l.352.352.351-.352-.351-.351zm2.1 0l.352.352.35-.352-.35-.351zm2.1 0l.352.352.351-.352-.351-.351zm2.134 0l.351.352.352-.352-.352-.351zm2.066.001l.352.352.351-.352-.351-.352zm2.1-.001l.352.352.351-.352-.351-.351zm2.1 0l.352.352.35-.352-.35-.351zm2.1 0l.352.352.351-.352-.351-.351zm2.1 0l.352.352.351-.352-.351-.351zm2.1 0l.352.352.351-.352-.351-.351zm2.1 0l.352.352.351-.352-.351-.351zm2.1.001l.352.352.351-.352-.351-.352zm2.1-.001l.352.352.351-.352-.351-.351zm2.1 0l.352.352.35-.352-.35-.351zm2.1 0l.352.352.351-.352-.351-.351z"/><path d="M18.271 35.474l.352.352.351-.352-.351-.351zm2.1.001l.352.352.351-.352-.351-.352zm2.134-.001l.351.352.352-.352-.352-.351zm2.066.001l.352.352.351-.352-.351-.352zm2.1-.001l.352.352.351-.352-.351-.351zm2.1 0l.352.352.35-.352-.35-.351zm2.1 0l.352.352.351-.352-.351-.351zm2.1 0l.352.352.351-.352-.351-.351zm2.1.001l.352.352.351-.352-.351-.352zm2.1-.001l.352.352.351-.352-.351-.351zm2.1.001l.352.352.351-.352-.351-.352zm2.1-.001l.352.352.351-.352-.351-.351zm2.1 0l.352.352.35-.352-.35-.351zm2.1 0l.352.352.351-.352-.351-.351zm2.134 0l.351.352.352-.352-.352-.351zm2.066.001l.352.352.351-.352-.351-.352zm2.1-.001l.352.352.351-.352-.351-.351zm2.1 0l.352.352.35-.352-.35-.351zm2.1 0l.352.352.351-.352-.351-.351zm2.1 0l.352.352.351-.352-.351-.351zm2.1 0l.352.352.351-.352-.351-.351zm2.1 0l.352.352.351-.352-.351-.351zm2.1.001l.352.352.351-.352-.351-.352zm2.1-.001l.352.352.351-.352-.351-.351zm2.1 0l.352.352.35-.352-.35-.351zm2.1 0l.352.352.351-.352-.351-.351zm-52.482-2.099l.334.334.334-.334-.334-.334zm2.1-.001l.334.334.334-.333-.334-.335zm2.133 0l.334.334.334-.333-.334-.335zm2.067.001l.334.334.334-.334-.334-.334zm2.1-.001l.334.334.334-.333-.334-.335zm2.1.001l.334.334.334-.334-.334-.334zm2.1-.001l.334.334.334-.333-.334-.335zm2.1.001l.334.334.334-.334-.334-.334zm2.1-.001l.334.334.334-.333-.334-.335zm2.099 0l.335.334.334-.333-.334-.335zm2.101.001l.334.334.334-.334-.334-.334zm2.1-.001l.334.334.334-.333-.334-.335zm2.1.001l.334.334.334-.334-.334-.334zm2.1-.001l.334.334.334-.333-.334-.335zm2.133 0l.334.334.334-.333-.334-.335zm2.067 0l.334.334.334-.333-.334-.335zm2.099 0l.335.334.334-.333-.334-.335zm2.101.001l.334.334.334-.334-.334-.334zm2.1-.001l.334.334.334-.333-.334-.335zm2.1.001l.334.334.334-.334-.334-.334zm2.1-.001l.334.334.334-.333-.334-.335zm2.099 0l.335.334.334-.333-.334-.335zm2.101 0l.334.334.334-.333-.334-.335zm2.099 0l.335.334.334-.333-.334-.335zm2.101.001l.334.334.334-.334-.334-.334zm2.1-.001l.334.334.334-.333-.334-.335zm-50.384-2.1l.318.318.317-.317-.317-.318zm2.134 0l.317.318.317-.317-.317-.318zm2.066.001l.318.317.317-.317-.317-.317zm2.1-.001l.318.318.317-.317-.317-.318zm2.1.001l.318.317.317-.317-.317-.317zm2.1-.001l.318.318.317-.317-.317-.318zm2.1.001l.318.317.317-.317-.317-.317zm2.1-.001l.318.318.317-.317-.317-.318zm2.1 0l.318.318.317-.317-.317-.318zm2.1.001l.318.317.317-.317-.317-.317zm2.1-.001l.318.318.317-.317-.317-.318zm2.1.001l.318.317.317-.317-.317-.317zm2.1-.001l.318.318.317-.317-.317-.318zm2.134 0l.317.318.317-.317-.317-.318zm2.066 0l.318.318.317-.317-.317-.318zm2.1 0l.318.318.317-.317-.317-.318zm2.1.001l.318.317.317-.317-.317-.317zm2.1-.001l.318.318.317-.317-.317-.318zm2.1.001l.318.317.317-.317-.317-.317zm2.1-.001l.318.318.317-.317-.317-.318zm2.1.001l.318.317.317-.317-.317-.317zm2.1-.001l.318.318.317-.317-.317-.318zm2.1 0l.318.318.317-.317-.317-.318zm2.1.001l.318.317.317-.317-.317-.317z"/><path d="M20.405 31.274l.318.318.317-.317-.317-.318zm2.134 0l.317.318.317-.317-.317-.318zm2.066.001l.318.317.317-.317-.317-.317zm2.1-.001l.318.318.317-.317-.317-.318zm2.1.001l.318.317.317-.317-.317-.317zm2.1-.001l.318.318.317-.317-.317-.318zm2.1.001l.318.317.317-.317-.317-.317zm2.1-.001l.318.318.317-.317-.317-.318zm2.1 0l.318.318.317-.317-.317-.318zm2.1.001l.318.317.317-.317-.317-.317zm2.1-.001l.318.318.317-.317-.317-.318zm2.1.001l.318.317.317-.317-.317-.317zm2.1-.001l.318.318.317-.317-.317-.318zm2.134 0l.317.318.317-.317-.317-.318zm2.066 0l.318.318.317-.317-.317-.318zm2.1 0l.318.318.317-.317-.317-.318zm2.1.001l.318.317.317-.317-.317-.317zm2.1-.001l.318.318.317-.317-.317-.318zm2.1.001l.318.317.317-.317-.317-.317zm2.1-.001l.318.318.317-.317-.317-.318zm2.1.001l.318.317.317-.317-.317-.317zm2.1-.001l.318.318.317-.317-.317-.318zm2.1 0l.318.318.317-.317-.317-.318zm2.1.001l.318.317.317-.317-.317-.317zm-48.285-2.1l.303.301.301-.301-.301-.302zm2.134 0l.302.301.301-.301-.301-.302zm2.066 0l.303.301.301-.301-.301-.302zm2.1-.001l.303.302.301-.301-.301-.302zm2.1.001l.303.301.301-.301-.301-.302zm2.1 0l.303.301.301-.301-.301-.302zm2.101 0l.302.301.301-.301-.301-.302zm2.099 0l.303.301.301-.301-.301-.302zm2.1-.001l.303.302.301-.301-.301-.302zm2.1.001l.303.301.301-.301-.301-.302zm2.1-.001l.303.302.301-.301-.301-.302zm2.101.001l.302.301.301-.301-.301-.302zm2.099 0l.303.301.301-.301-.301-.302zm2.134-.001l.302.302.301-.301-.301-.302zm2.066.001l.303.301.301-.301-.301-.302zm2.1-.001l.303.302.301-.301-.301-.302zm2.1.001l.303.301.301-.301-.301-.302zm2.1-.001l.303.302.301-.301-.301-.302zm2.101.001l.302.301.301-.301-.301-.302zm2.099 0l.303.301.301-.301-.301-.302zm2.1-.001l.303.302.301-.301-.301-.302zm2.1.001l.303.301.301-.301-.301-.302zm2.1-.001l.303.302.301-.301-.301-.302zm2.1.001l.303.301.301-.301-.301-.302z"/><path d="M20.42 29.175l.303.301.301-.301-.301-.302zm2.134 0l.302.301.301-.301-.301-.302zm2.066 0l.303.301.301-.301-.301-.302zm2.1-.001l.303.302.301-.301-.301-.302zm2.1.001l.303.301.301-.301-.301-.302zm2.1 0l.303.301.301-.301-.301-.302zm2.101 0l.302.301.301-.301-.301-.302zm2.099 0l.303.301.301-.301-.301-.302zm2.1-.001l.303.302.301-.301-.301-.302zm2.1.001l.303.301.301-.301-.301-.302zm2.1-.001l.303.302.301-.301-.301-.302zm2.101.001l.302.301.301-.301-.301-.302zm2.099 0l.303.301.301-.301-.301-.302zm2.134-.001l.302.302.301-.301-.301-.302zm2.066.001l.303.301.301-.301-.301-.302zm2.1-.001l.303.302.301-.301-.301-.302zm2.1.001l.303.301.301-.301-.301-.302zm2.1-.001l.303.302.301-.301-.301-.302zm2.101.001l.302.301.301-.301-.301-.302zm2.099 0l.303.301.301-.301-.301-.302zm2.1-.001l.303.302.301-.301-.301-.302zm2.1.001l.303.301.301-.301-.301-.302zm2.1-.001l.303.302.301-.301-.301-.302zm2.1.001l.303.301.301-.301-.301-.302zm-46.15-2.1l.286.286.286-.286-.286-.287zm2.067 0l.286.286.286-.286-.286-.287zm2.1 0l.286.286.286-.286-.286-.287zm2.1 0l.286.286.287-.286-.287-.287zm2.1 0l.286.286.286-.286-.286-.287zm2.1-.001l.286.287.286-.287-.286-.286zm2.1.001l.286.286.286-.286-.286-.287zm2.099 0l.287.286.286-.286-.286-.287zm2.101 0l.286.286.287-.286-.287-.287zm2.1 0l.286.286.286-.286-.286-.287zm2.1 0l.286.286.287-.286-.287-.287zm2.1 0l.286.286.286-.286-.286-.287zm2.133 0l.286.286.286-.286-.286-.287zm2.067 0l.286.286.286-.286-.286-.287zm2.1-.001l.286.287.286-.287-.286-.286zm2.1.001l.286.286.287-.286-.287-.287zm2.1 0l.286.286.286-.286-.286-.287zm2.1 0l.286.286.287-.286-.287-.287zm2.1 0l.286.286.286-.286-.286-.287zm2.1-.001l.286.287.286-.287-.286-.286zm2.1.001l.286.286.286-.286-.286-.287zm2.1-.001l.286.287.286-.287-.286-.286zM24.65 24.975l.273.272.272-.272-.272-.272zm2.1 0l.273.272.272-.272-.272-.272zm2.1 0l.272.272.273-.272-.273-.272zm2.1 0l.273.272.272-.272-.272-.272zm2.1 0l.273.272.272-.272-.272-.272zm2.1 0l.273.272.272-.272-.272-.272zm2.1 0l.273.272.272-.272-.272-.272zm2.1 0l.273.272.272-.272-.272-.272zm2.1 0l.273.272.272-.272-.272-.272zm2.1-.001l.273.273.272-.273-.272-.272zm2.1.001l.273.272.272-.272-.272-.272zm2.134 0l.272.272.272-.272-.272-.272zm2.066 0l.273.272.272-.272-.272-.272zm2.1 0l.273.272.272-.272-.272-.272zm2.1 0l.273.272.272-.272-.272-.272zm2.1 0l.273.272.272-.272-.272-.272zm2.1 0l.272.272.273-.272-.273-.272zm2.1 0l.273.272.272-.272-.272-.272zm2.1 0l.273.272.272-.272-.272-.272zm2.1 0l.273.272.272-.272-.272-.272z"/><path d="M24.65 24.975l.273.272.272-.272-.272-.272zm2.1 0l.273.272.272-.272-.272-.272zm2.1 0l.272.272.273-.272-.273-.272zm2.1 0l.273.272.272-.272-.272-.272zm2.1 0l.273.272.272-.272-.272-.272zm2.1 0l.273.272.272-.272-.272-.272zm2.1 0l.273.272.272-.272-.272-.272zm2.1 0l.273.272.272-.272-.272-.272zm2.1 0l.273.272.272-.272-.272-.272zm2.1-.001l.273.273.272-.273-.272-.272zm2.1.001l.273.272.272-.272-.272-.272zm2.134 0l.272.272.272-.272-.272-.272zm2.066 0l.273.272.272-.272-.272-.272zm2.1 0l.273.272.272-.272-.272-.272zm2.1 0l.273.272.272-.272-.272-.272zm2.1 0l.273.272.272-.272-.272-.272zm2.1 0l.272.272.273-.272-.273-.272zm2.1 0l.273.272.272-.272-.272-.272zm2.1 0l.273.272.272-.272-.272-.272zm2.1 0l.273.272.272-.272-.272-.272zm-37.786-2.1l.259.258.258-.258-.258-.259zm2.1 0l.258.258.259-.258-.259-.259zm2.1 0l.259.258.258-.258-.258-.259zm2.1 0l.259.258.258-.258-.258-.259zm2.1 0l.259.258.259-.258-.26-.259zm2.1 0l.259.258.258-.258-.258-.259zm2.1 0l.258.258.258-.258-.258-.259zm2.1 0l.259.258.258-.258-.258-.259zm2.1 0l.258.258.259-.258-.259-.259zm2.1 0l.259.258.258-.258-.258-.259zm2.133 0l.259.258.258-.258-.258-.259zm2.067 0l.259.258.259-.258-.26-.259zm2.1 0l.259.258.258-.258-.258-.259zm2.1 0l.258.258.258-.258-.258-.259zm2.1 0l.259.258.258-.258-.258-.259zm2.1 0l.258.258.259-.258-.259-.259zm2.1 0l.259.258.258-.258-.258-.259zm2.1 0l.259.258.258-.258-.258-.259z"/><path d="M26.764 22.875l.259.258.258-.258-.258-.259zm2.1 0l.258.258.259-.258-.259-.259zm2.1 0l.259.258.258-.258-.258-.259zm2.1 0l.259.258.258-.258-.258-.259zm2.1 0l.259.258.259-.258-.26-.259zm2.1 0l.259.258.258-.258-.258-.259zm2.1 0l.258.258.258-.258-.258-.259zm2.1 0l.259.258.258-.258-.258-.259zm2.1 0l.258.258.259-.258-.259-.259zm2.1 0l.259.258.258-.258-.258-.259zm2.133 0l.259.258.258-.258-.258-.259zm2.067 0l.259.258.259-.258-.26-.259zm2.1 0l.259.258.258-.258-.258-.259zm2.1 0l.258.258.258-.258-.258-.259zm2.1 0l.259.258.258-.258-.258-.259zm2.1 0l.258.258.259-.258-.259-.259zm2.1 0l.259.258.258-.258-.258-.259zm2.1 0l.259.258.258-.258-.258-.259zm-33.587-2.101l.246.246.245-.245-.245-.246zm2.101 0l.245.246.246-.245-.246-.246zm2.099 0l.246.246.245-.245-.245-.246zm2.1.001l.246.246.246-.246-.246-.246zm2.1-.001l.246.246.246-.245-.246-.246zm2.1 0l.246.246.245-.245-.245-.246zm2.101 0l.245.246.246-.245-.246-.246zm2.099 0l.246.246.245-.245-.245-.246zm2.101 0l.245.246.246-.245-.246-.246zm2.132 0l.246.246.246-.245-.246-.246zm2.067.001l.246.246.246-.246-.246-.246zm2.1-.001l.246.246.246-.245-.246-.246zm2.1 0l.246.246.245-.245-.245-.246zm2.101 0l.245.246.246-.245-.246-.246zm2.099 0l.246.246.245-.245-.245-.246zm2.101 0l.245.246.246-.245-.246-.246zm-27.288-2.1l.233.234.233-.233-.233-.234zm2.1.001l.233.233.233-.233-.233-.233zm2.1-.001l.233.234.233-.233-.233-.234zm2.1.001l.233.233.233-.233-.233-.233zm2.1-.001l.233.234.233-.233-.233-.234zm2.1 0l.233.234.233-.233-.233-.234zm2.1 0l.233.234.234-.233-.234-.234zm2.133 0l.233.234.234-.233-.234-.234zm2.067.001l.233.233.233-.233-.233-.233zm2.1-.001l.233.234.233-.233-.233-.234zm2.1.001l.233.233.233-.233-.233-.233zm2.1-.001l.233.234.234-.233-.234-.234z"/><path d="M33.09 18.674l.233.234.233-.233-.233-.234zm2.1.001l.233.233.233-.233-.233-.233zm2.1-.001l.233.234.233-.233-.233-.234zm2.1.001l.233.233.233-.233-.233-.233zm2.1-.001l.233.234.233-.233-.233-.234zm2.1 0l.233.234.233-.233-.233-.234zm2.1 0l.233.234.234-.233-.234-.234zm2.133 0l.233.234.234-.233-.234-.234zm2.067.001l.233.233.233-.233-.233-.233zm2.1-.001l.233.234.233-.233-.233-.234zm2.1.001l.233.233.233-.233-.233-.233zm2.1-.001l.233.234.234-.233-.234-.234zm-16.789-2.099l.222.222.221-.222-.221-.222zm2.1-.001l.222.222.221-.221-.221-.222zm2.1.001l.222.222.221-.222-.221-.222zm2.1-.001l.222.222.221-.221-.221-.222zm2.133 0l.222.222.221-.221-.221-.222zm2.067 0l.222.222.222-.221-.222-.222z"/><path d="M39.401 16.575l.222.222.221-.222-.221-.222zm2.1-.001l.222.222.221-.221-.221-.222zm2.1.001l.222.222.221-.222-.221-.222zm2.1-.001l.222.222.221-.221-.221-.222zm2.133 0l.222.222.221-.221-.221-.222zm2.067 0l.222.222.222-.221-.222-.222z"/></svg>